<?xml version="1.0" encoding="utf-8" ?>
<svg baseProfile="full" height="500" version="1.1" width="1500" xmlns="http://www.w3.org/2000/svg" xmlns:ev="http://www.w3.org/2001/xml-events" xmlns:xlink="http://www.w3.org/1999/xlink"><defs /><text fill="black" x="0" y="100">VIETNAMESE </text><text fill="black" x="20" y="150">POS: </text><text fill="black" x="20" y="200">Source: </text><text fill="black" x="150" y="150">Cm</text><text fill="black" x="150" y="200">Ở</text><text fill="black" x="230" y="150">Pd</text><text fill="black" x="230" y="200">đây</text><text fill="black" x="310" y="150">Pp</text><text fill="black" x="310" y="200">người_ta</text><text fill="black" x="390" y="150">Vv</text><text fill="black" x="390" y="200">nói</text><text fill="black" x="470" y="150">Nn</text><text fill="black" x="470" y="200">ban</text><text fill="black" x="550" y="150">Nn</text><text fill="black" x="550" y="200">hợp_xướng</text><text fill="black" x="630" y="150">PU</text><text fill="black" x="630" y="200">"</text><text fill="black" x="710" y="150">FW</text><text fill="black" x="710" y="200">Chorus_Line</text><text fill="black" x="790" y="150">PU</text><text fill="black" x="790" y="200">"</text><text fill="black" x="870" y="150">R</text><text fill="black" x="870" y="200">đang</text><text fill="black" x="950" y="150">Vv</text><text fill="black" x="950" y="200">biểu_diễn</text><text fill="black" x="1030" y="150">Cm</text><text fill="black" x="1030" y="200">ở</text><text fill="black" x="1110" y="150">Nn</text><text fill="black" x="1110" y="200">rạp</text><text fill="black" x="1190" y="150">Nr</text><text fill="black" x="1190" y="200">Hartford</text><text fill="black" x="1270" y="150">PU</text><text fill="black" x="1270" y="200">.</text><text fill="black" x="0" y="450">ENGLISH </text><text fill="black" x="20" y="350">Target: </text><text fill="black" x="20" y="400">POS: </text><text fill="black" x="150" y="350">"</text><text fill="black" x="150" y="400">-</text><text fill="black" x="230" y="350">Chorus</text><text fill="black" x="230" y="400">NNP</text><text fill="black" x="310" y="350">Line</text><text fill="black" x="310" y="400">NNP</text><text fill="black" x="390" y="350">"</text><text fill="black" x="390" y="400">-</text><text fill="black" x="470" y="350">is</text><text fill="black" x="470" y="400">VBZ</text><text fill="black" x="550" y="350">at</text><text fill="black" x="550" y="400">IN</text><text fill="black" x="630" y="350">the</text><text fill="black" x="630" y="400">DT</text><text fill="black" x="710" y="350">Hartford</text><text fill="black" x="710" y="400">NNP</text><text fill="black" x="790" y="350">Theater</text><text fill="black" x="790" y="400">NNP</text><text fill="black" x="870" y="350">,</text><text fill="black" x="870" y="400">,</text><text fill="black" x="950" y="350">it</text><text fill="black" x="950" y="400">PRP</text><text fill="black" x="1030" y="350">says</text><text fill="black" x="1030" y="400">VBZ</text><text fill="black" x="1110" y="350">here</text><text fill="black" x="1110" y="400">RB</text><text fill="black" x="1190" y="350">.</text><text fill="black" x="1190" y="400">.</text><line stroke="red" x1="150" x2="1128" y1="210" y2="330" /><line stroke="red" x1="240" x2="1128" y1="210" y2="330" /><line stroke="red" x1="350" x2="953" y1="210" y2="330" /><line stroke="red" x1="400" x2="1048" y1="210" y2="330" /><line stroke="red" x1="480" x2="257" y1="210" y2="330" /><line stroke="red" x1="590" x2="257" y1="210" y2="330" /><line stroke="red" x1="630" x2="390" y1="210" y2="330" /><line stroke="red" x1="760" x2="328" y1="210" y2="330" /><line stroke="red" x1="790" x2="150" y1="210" y2="330" /><line stroke="red" x1="890" x2="473" y1="210" y2="330" /><line stroke="red" x1="990" x2="473" y1="210" y2="330" /><line stroke="red" x1="1030" x2="553" y1="210" y2="330" /><line stroke="red" x1="1120" x2="817" y1="210" y2="330" /><line stroke="red" x1="1230" x2="746" y1="210" y2="330" /><line stroke="red" x1="1270" x2="1190" y1="210" y2="330" /></svg>