<?xml version="1.0" encoding="utf-8" ?>
<svg baseProfile="full" height="500" version="1.1" width="2000" xmlns="http://www.w3.org/2000/svg" xmlns:ev="http://www.w3.org/2001/xml-events" xmlns:xlink="http://www.w3.org/1999/xlink"><defs /><text fill="black" x="0" y="100">VIETNAMESE </text><text fill="black" x="20" y="150">POS: </text><text fill="black" x="20" y="200">Source: </text><text fill="black" x="150" y="150">Vv</text><text fill="black" x="150" y="200">Xin</text><text fill="black" x="230" y="150">Vv</text><text fill="black" x="230" y="200">cám_ơn</text><text fill="black" x="310" y="150">Pp</text><text fill="black" x="310" y="200">ông</text><text fill="black" x="390" y="150">R</text><text fill="black" x="390" y="200">đã</text><text fill="black" x="470" y="150">Vv</text><text fill="black" x="470" y="200">cho</text><text fill="black" x="550" y="150">Pp</text><text fill="black" x="550" y="200">chúng_tôi</text><text fill="black" x="630" y="150">Vv</text><text fill="black" x="630" y="200">xem</text><text fill="black" x="710" y="150">Nc</text><text fill="black" x="710" y="200">bộ</text><text fill="black" x="790" y="150">Nn</text><text fill="black" x="790" y="200">sưu_tập</text><text fill="black" x="870" y="150">Nn</text><text fill="black" x="870" y="200">hoạ_phẩm</text><text fill="black" x="950" y="150">Cm</text><text fill="black" x="950" y="200">của</text><text fill="black" x="1030" y="150">Nr</text><text fill="black" x="1030" y="200">ông,</text><text fill="black" x="1110" y="150">PU</text><text fill="black" x="1110" y="200">"</text><text fill="black" x="1190" y="150">Pd</text><text fill="black" x="1190" y="200">Đó</text><text fill="black" x="1270" y="150">Vc</text><text fill="black" x="1270" y="200">là</text><text fill="black" x="1350" y="150">Nn</text><text fill="black" x="1350" y="200">đặc_ân</text><text fill="black" x="1430" y="150">Cm</text><text fill="black" x="1430" y="200">của</text><text fill="black" x="1510" y="150">Pp</text><text fill="black" x="1510" y="200">tôi</text><text fill="black" x="1590" y="150">PU</text><text fill="black" x="1590" y="200">"</text><text fill="black" x="1670" y="150">PU</text><text fill="black" x="1670" y="200">.</text><text fill="black" x="0" y="450">ENGLISH </text><text fill="black" x="20" y="350">Target: </text><text fill="black" x="20" y="400">POS: </text><text fill="black" x="150" y="350">Thank</text><text fill="black" x="150" y="400">VB</text><text fill="black" x="230" y="350">you</text><text fill="black" x="230" y="400">PRP</text><text fill="black" x="310" y="350">for</text><text fill="black" x="310" y="400">IN</text><text fill="black" x="390" y="350">showing</text><text fill="black" x="390" y="400">VBG</text><text fill="black" x="470" y="350">us</text><text fill="black" x="470" y="400">PRP</text><text fill="black" x="550" y="350">your</text><text fill="black" x="550" y="400">PRP$</text><text fill="black" x="630" y="350">collection</text><text fill="black" x="630" y="400">NN</text><text fill="black" x="710" y="350">of</text><text fill="black" x="710" y="400">IN</text><text fill="black" x="790" y="350">painting,</text><text fill="black" x="790" y="400">NN</text><text fill="black" x="870" y="350">"</text><text fill="black" x="870" y="400">-</text><text fill="black" x="950" y="350">It</text><text fill="black" x="950" y="400">PRP</text><text fill="black" x="1030" y="350">’</text><text fill="black" x="1030" y="400">-</text><text fill="black" x="1110" y="350">s</text><text fill="black" x="1110" y="400">NN</text><text fill="black" x="1190" y="350">my</text><text fill="black" x="1190" y="400">PRP$</text><text fill="black" x="1270" y="350">privilege</text><text fill="black" x="1270" y="400">NN</text><text fill="black" x="1350" y="350">"</text><text fill="black" x="1350" y="400">-</text><text fill="black" x="1430" y="350">.</text><text fill="black" x="1430" y="400">-</text><line stroke="red" x1="160" x2="168" y1="210" y2="330" /><line stroke="red" x1="260" x2="168" y1="210" y2="330" /><line stroke="red" x1="320" x2="239" y1="210" y2="330" /><line stroke="red" x1="480" x2="319" y1="210" y2="330" /><line stroke="red" x1="590" x2="473" y1="210" y2="330" /><line stroke="red" x1="640" x2="675" y1="210" y2="330" /><line stroke="red" x1="720" x2="675" y1="210" y2="330" /><line stroke="red" x1="820" x2="675" y1="210" y2="330" /><line stroke="red" x1="910" x2="826" y1="210" y2="330" /><line stroke="red" x1="1050" x2="826" y1="210" y2="330" /><line stroke="red" x1="1110" x2="870" y1="210" y2="330" /><line stroke="red" x1="1200" x2="953" y1="210" y2="330" /><line stroke="red" x1="1280" x2="1110" y1="210" y2="330" /><line stroke="red" x1="1380" x2="1306" y1="210" y2="330" /><line stroke="red" x1="1520" x2="1193" y1="210" y2="330" /><line stroke="red" x1="1590" x2="1350" y1="210" y2="330" /><line stroke="red" x1="1670" x2="1430" y1="210" y2="330" /></svg>