<?xml version="1.0" encoding="utf-8" ?>
<svg baseProfile="full" height="500" version="1.1" width="2300" xmlns="http://www.w3.org/2000/svg" xmlns:ev="http://www.w3.org/2001/xml-events" xmlns:xlink="http://www.w3.org/1999/xlink"><defs /><text fill="black" x="0" y="100">VIETNAMESE </text><text fill="black" x="20" y="150">POS: </text><text fill="black" x="20" y="200">Source: </text><text fill="black" x="150" y="150">PU</text><text fill="black" x="150" y="200">'</text><text fill="black" x="230" y="150">Nr</text><text fill="black" x="230" y="200">Renbim_'</text><text fill="black" x="310" y="150">Ve</text><text fill="black" x="310" y="200">có</text><text fill="black" x="390" y="150">Nn</text><text fill="black" x="390" y="200">nghĩa</text><text fill="black" x="470" y="150">Vc</text><text fill="black" x="470" y="200">là</text><text fill="black" x="550" y="150">PU</text><text fill="black" x="550" y="200">'</text><text fill="black" x="630" y="150">Nn</text><text fill="black" x="630" y="200">nhân_dân</text><text fill="black" x="710" y="150">PU</text><text fill="black" x="710" y="200">'</text><text fill="black" x="790" y="150">Cp</text><text fill="black" x="790" y="200">và</text><text fill="black" x="870" y="150">PU</text><text fill="black" x="870" y="200">'</text><text fill="black" x="950" y="150">Nn</text><text fill="black" x="950" y="200">bi</text><text fill="black" x="1030" y="150">PU</text><text fill="black" x="1030" y="200">'</text><text fill="black" x="1110" y="150">Ve</text><text fill="black" x="1110" y="200">có</text><text fill="black" x="1190" y="150">Nn</text><text fill="black" x="1190" y="200">nghĩa</text><text fill="black" x="1270" y="150">Vc</text><text fill="black" x="1270" y="200">là</text><text fill="black" x="1350" y="150">PU</text><text fill="black" x="1350" y="200">'</text><text fill="black" x="1430" y="150">Nn</text><text fill="black" x="1430" y="200">tiền_tệ</text><text fill="black" x="1510" y="150">PU</text><text fill="black" x="1510" y="200">'</text><text fill="black" x="1590" y="150">Cp</text><text fill="black" x="1590" y="200">hoặc</text><text fill="black" x="1670" y="150">PU</text><text fill="black" x="1670" y="200">'</text><text fill="black" x="1750" y="150">Nn</text><text fill="black" x="1750" y="200">tiền</text><text fill="black" x="1830" y="150">PU</text><text fill="black" x="1830" y="200">'</text><text fill="black" x="1910" y="150">PU</text><text fill="black" x="1910" y="200">.</text><text fill="black" x="0" y="450">ENGLISH </text><text fill="black" x="20" y="350">Target: </text><text fill="black" x="20" y="400">POS: </text><text fill="black" x="150" y="350">'</text><text fill="black" x="150" y="400">''</text><text fill="black" x="230" y="350">Renmin</text><text fill="black" x="230" y="400">FW</text><text fill="black" x="310" y="350">'means</text><text fill="black" x="310" y="400">FW</text><text fill="black" x="390" y="350">'</text><text fill="black" x="390" y="400">POS</text><text fill="black" x="470" y="350">people</text><text fill="black" x="470" y="400">NNS</text><text fill="black" x="550" y="350">'</text><text fill="black" x="550" y="400">POS</text><text fill="black" x="630" y="350">and</text><text fill="black" x="630" y="400">CC</text><text fill="black" x="710" y="350">'</text><text fill="black" x="710" y="400">''</text><text fill="black" x="790" y="350">bi</text><text fill="black" x="790" y="400">FW</text><text fill="black" x="870" y="350">'means</text><text fill="black" x="870" y="400">FW</text><text fill="black" x="950" y="350">'</text><text fill="black" x="950" y="400">POS</text><text fill="black" x="1030" y="350">currency</text><text fill="black" x="1030" y="400">NN</text><text fill="black" x="1110" y="350">'</text><text fill="black" x="1110" y="400">''</text><text fill="black" x="1190" y="350">or</text><text fill="black" x="1190" y="400">CC</text><text fill="black" x="1270" y="350">'money</text><text fill="black" x="1270" y="400">NN</text><text fill="black" x="1350" y="350">'</text><text fill="black" x="1350" y="400">''</text><text fill="black" x="1430" y="350">.</text><text fill="black" x="1430" y="400">.</text><line stroke="red" x1="150" x2="150" y1="210" y2="330" /><line stroke="red" x1="270" x2="257" y1="210" y2="330" /><line stroke="red" x1="320" x2="337" y1="210" y2="330" /><line stroke="red" x1="410" x2="337" y1="210" y2="330" /><line stroke="red" x1="480" x2="337" y1="210" y2="330" /><line stroke="red" x1="550" x2="390" y1="210" y2="330" /><line stroke="red" x1="670" x2="497" y1="210" y2="330" /><line stroke="red" x1="710" x2="550" y1="210" y2="330" /><line stroke="red" x1="800" x2="639" y1="210" y2="330" /><line stroke="red" x1="870" x2="710" y1="210" y2="330" /><line stroke="red" x1="960" x2="793" y1="210" y2="330" /><line stroke="red" x1="1030" x2="897" y1="210" y2="330" /><line stroke="red" x1="1120" x2="897" y1="210" y2="330" /><line stroke="red" x1="1210" x2="897" y1="210" y2="330" /><line stroke="red" x1="1280" x2="897" y1="210" y2="330" /><line stroke="red" x1="1350" x2="950" y1="210" y2="330" /><line stroke="red" x1="1460" x2="1066" y1="210" y2="330" /><line stroke="red" x1="1510" x2="950" y1="210" y2="330" /><line stroke="red" x1="1610" x2="1193" y1="210" y2="330" /><line stroke="red" x1="1670" x2="1297" y1="210" y2="330" /><line stroke="red" x1="1770" x2="1297" y1="210" y2="330" /><line stroke="red" x1="1830" x2="1350" y1="210" y2="330" /><line stroke="red" x1="1910" x2="1430" y1="210" y2="330" /></svg>