<?xml version="1.0" encoding="utf-8" ?>
<svg baseProfile="full" height="500" version="1.1" width="1600" xmlns="http://www.w3.org/2000/svg" xmlns:ev="http://www.w3.org/2001/xml-events" xmlns:xlink="http://www.w3.org/1999/xlink"><defs /><text fill="black" x="0" y="100">VIETNAMESE </text><text fill="black" x="20" y="150">POS: </text><text fill="black" x="20" y="200">Source: </text><text fill="black" x="150" y="150">PU</text><text fill="black" x="150" y="200">'</text><text fill="black" x="230" y="150">Cs</text><text fill="black" x="230" y="200">Nếu</text><text fill="black" x="310" y="150">Nc</text><text fill="black" x="310" y="200">điều</text><text fill="black" x="390" y="150">Pd</text><text fill="black" x="390" y="200">đó</text><text fill="black" x="470" y="150">Vv</text><text fill="black" x="470" y="200">giữ</text><text fill="black" x="550" y="150">R</text><text fill="black" x="550" y="200">được</text><text fill="black" x="630" y="150">Nn</text><text fill="black" x="630" y="200">hạnh_phúc</text><text fill="black" x="710" y="150">Nn</text><text fill="black" x="710" y="200">gia_đình</text><text fill="black" x="790" y="150">Cp</text><text fill="black" x="790" y="200">thì</text><text fill="black" x="870" y="150">R</text><text fill="black" x="870" y="200">vẫn</text><text fill="black" x="950" y="150">R</text><text fill="black" x="950" y="200">còn</text><text fill="black" x="1030" y="150">Aa</text><text fill="black" x="1030" y="200">hời</text><text fill="black" x="1110" y="150">M</text><text fill="black" x="1110" y="200">đấy</text><text fill="black" x="1190" y="150">PU</text><text fill="black" x="1190" y="200">!</text><text fill="black" x="0" y="450">ENGLISH </text><text fill="black" x="20" y="350">Target: </text><text fill="black" x="20" y="400">POS: </text><text fill="black" x="150" y="350">'</text><text fill="black" x="150" y="400">''</text><text fill="black" x="230" y="350">It</text><text fill="black" x="230" y="400">PRP</text><text fill="black" x="310" y="350">’</text><text fill="black" x="310" y="400">FW</text><text fill="black" x="390" y="350">ll</text><text fill="black" x="390" y="400">FW</text><text fill="black" x="470" y="350">be</text><text fill="black" x="470" y="400">VB</text><text fill="black" x="550" y="350">cheap</text><text fill="black" x="550" y="400">JJ</text><text fill="black" x="630" y="350">at</text><text fill="black" x="630" y="400">IN</text><text fill="black" x="710" y="350">the</text><text fill="black" x="710" y="400">DT</text><text fill="black" x="790" y="350">price</text><text fill="black" x="790" y="400">NN</text><text fill="black" x="870" y="350">if</text><text fill="black" x="870" y="400">IN</text><text fill="black" x="950" y="350">it</text><text fill="black" x="950" y="400">PRP</text><text fill="black" x="1030" y="350">keeps</text><text fill="black" x="1030" y="400">VBZ</text><text fill="black" x="1110" y="350">the</text><text fill="black" x="1110" y="400">DT</text><text fill="black" x="1190" y="350">family</text><text fill="black" x="1190" y="400">NN</text><text fill="black" x="1270" y="350">happy</text><text fill="black" x="1270" y="400">JJ</text><text fill="black" x="1350" y="350">!</text><text fill="black" x="1350" y="400">.</text><line stroke="red" x1="150" x2="150" y1="210" y2="330" /><line stroke="red" x1="240" x2="873" y1="210" y2="330" /><line stroke="red" x1="330" x2="953" y1="210" y2="330" /><line stroke="red" x1="480" x2="1048" y1="210" y2="330" /><line stroke="red" x1="670" x2="1288" y1="210" y2="330" /><line stroke="red" x1="750" x2="1217" y1="210" y2="330" /><line stroke="red" x1="800" x2="473" y1="210" y2="330" /><line stroke="red" x1="880" x2="473" y1="210" y2="330" /><line stroke="red" x1="960" x2="568" y1="210" y2="330" /><line stroke="red" x1="1040" x2="808" y1="210" y2="330" /><line stroke="red" x1="1120" x2="568" y1="210" y2="330" /><line stroke="red" x1="1190" x2="1350" y1="210" y2="330" /></svg>