<?xml version="1.0" encoding="utf-8" ?>
<svg baseProfile="full" height="500" version="1.1" width="1600" xmlns="http://www.w3.org/2000/svg" xmlns:ev="http://www.w3.org/2001/xml-events" xmlns:xlink="http://www.w3.org/1999/xlink"><defs /><text fill="black" x="0" y="100">VIETNAMESE </text><text fill="black" x="20" y="150">POS: </text><text fill="black" x="20" y="200">Source: </text><text fill="black" x="150" y="150">Nq</text><text fill="black" x="150" y="200">1</text><text fill="black" x="230" y="150">-</text><text fill="black" x="230" y="200">/</text><text fill="black" x="310" y="150">Nq</text><text fill="black" x="310" y="200">2</text><text fill="black" x="390" y="150">PU</text><text fill="black" x="390" y="200">,</text><text fill="black" x="470" y="150">Nq</text><text fill="black" x="470" y="200">3</text><text fill="black" x="550" y="150">-</text><text fill="black" x="550" y="200">/</text><text fill="black" x="630" y="150">Nq</text><text fill="black" x="630" y="200">4</text><text fill="black" x="710" y="150">PU</text><text fill="black" x="710" y="200">,</text><text fill="black" x="790" y="150">Nq</text><text fill="black" x="790" y="200">19</text><text fill="black" x="870" y="150">-</text><text fill="black" x="870" y="200">/</text><text fill="black" x="950" y="150">Nq</text><text fill="black" x="950" y="200">20</text><text fill="black" x="1030" y="150">Vc</text><text fill="black" x="1030" y="200">là</text><text fill="black" x="1110" y="150">Nq</text><text fill="black" x="1110" y="200">những</text><text fill="black" x="1190" y="150">Nn</text><text fill="black" x="1190" y="200">phân_số</text><text fill="black" x="1270" y="150">Aa</text><text fill="black" x="1270" y="200">thực_sự</text><text fill="black" x="1350" y="150">PU</text><text fill="black" x="1350" y="200">.</text><text fill="black" x="0" y="450">ENGLISH </text><text fill="black" x="20" y="350">Target: </text><text fill="black" x="20" y="400">POS: </text><text fill="black" x="150" y="350">1</text><text fill="black" x="150" y="400">CD</text><text fill="black" x="230" y="350">/</text><text fill="black" x="230" y="400">-</text><text fill="black" x="310" y="350">2</text><text fill="black" x="310" y="400">CD</text><text fill="black" x="390" y="350">,</text><text fill="black" x="390" y="400">,</text><text fill="black" x="470" y="350">3</text><text fill="black" x="470" y="400">CD</text><text fill="black" x="550" y="350">/</text><text fill="black" x="550" y="400">-</text><text fill="black" x="630" y="350">4</text><text fill="black" x="630" y="400">CD</text><text fill="black" x="710" y="350">,</text><text fill="black" x="710" y="400">,</text><text fill="black" x="790" y="350">19</text><text fill="black" x="790" y="400">CD</text><text fill="black" x="870" y="350">/</text><text fill="black" x="870" y="400">-</text><text fill="black" x="950" y="350">20</text><text fill="black" x="950" y="400">CD</text><text fill="black" x="1030" y="350">are</text><text fill="black" x="1030" y="400">VBP</text><text fill="black" x="1110" y="350">proper</text><text fill="black" x="1110" y="400">JJ</text><text fill="black" x="1190" y="350">fractions</text><text fill="black" x="1190" y="400">NNS</text><text fill="black" x="1270" y="350">.</text><text fill="black" x="1270" y="400">.</text><line stroke="red" x1="150" x2="150" y1="210" y2="330" /><line stroke="red" x1="230" x2="230" y1="210" y2="330" /><line stroke="red" x1="310" x2="310" y1="210" y2="330" /><line stroke="red" x1="390" x2="390" y1="210" y2="330" /><line stroke="red" x1="470" x2="470" y1="210" y2="330" /><line stroke="red" x1="550" x2="550" y1="210" y2="330" /><line stroke="red" x1="630" x2="630" y1="210" y2="330" /><line stroke="red" x1="710" x2="710" y1="210" y2="330" /><line stroke="red" x1="800" x2="793" y1="210" y2="330" /><line stroke="red" x1="870" x2="870" y1="210" y2="330" /><line stroke="red" x1="960" x2="953" y1="210" y2="330" /><line stroke="red" x1="1130" x2="1226" y1="210" y2="330" /><line stroke="red" x1="1220" x2="1226" y1="210" y2="330" /><line stroke="red" x1="1300" x2="1137" y1="210" y2="330" /><line stroke="red" x1="1350" x2="1270" y1="210" y2="330" /></svg>