<?xml version="1.0" encoding="utf-8" ?>
<svg baseProfile="full" height="500" version="1.1" width="1000" xmlns="http://www.w3.org/2000/svg" xmlns:ev="http://www.w3.org/2001/xml-events" xmlns:xlink="http://www.w3.org/1999/xlink"><defs /><text fill="black" x="0" y="100">VIETNAMESE </text><text fill="black" x="20" y="150">POS: </text><text fill="black" x="20" y="200">Source: </text><text fill="black" x="150" y="150">Nq</text><text fill="black" x="150" y="200">57.50</text><text fill="black" x="230" y="150">Nu</text><text fill="black" x="230" y="200">bảng</text><text fill="black" x="310" y="150">Nr</text><text fill="black" x="310" y="200">Anh</text><text fill="black" x="390" y="150">Vv</text><text fill="black" x="390" y="200">tính</text><text fill="black" x="470" y="150">Pp</text><text fill="black" x="470" y="200">cả</text><text fill="black" x="550" y="150">Nn</text><text fill="black" x="550" y="200">cước_phí</text><text fill="black" x="630" y="150">Cp</text><text fill="black" x="630" y="200">và</text><text fill="black" x="710" y="150">Nn</text><text fill="black" x="710" y="200">phí</text><text fill="black" x="790" y="150">Vv</text><text fill="black" x="790" y="200">đóng_gói</text><text fill="black" x="870" y="150">PU</text><text fill="black" x="870" y="200">.</text><text fill="black" x="0" y="450">ENGLISH </text><text fill="black" x="20" y="350">Target: </text><text fill="black" x="20" y="400">POS: </text><text fill="black" x="150" y="350">£</text><text fill="black" x="150" y="400">NN</text><text fill="black" x="230" y="350">57.50</text><text fill="black" x="230" y="400">CD</text><text fill="black" x="310" y="350">including</text><text fill="black" x="310" y="400">VBG</text><text fill="black" x="390" y="350">postage</text><text fill="black" x="390" y="400">NN</text><text fill="black" x="470" y="350">and</text><text fill="black" x="470" y="400">CC</text><text fill="black" x="550" y="350">packing</text><text fill="black" x="550" y="400">NN</text><text fill="black" x="630" y="350">.</text><text fill="black" x="630" y="400">.</text><line stroke="red" x1="170" x2="248" y1="210" y2="330" /><line stroke="red" x1="250" x2="150" y1="210" y2="330" /><line stroke="red" x1="320" x2="150" y1="210" y2="330" /><line stroke="red" x1="410" x2="248" y1="210" y2="330" /><line stroke="red" x1="480" x2="346" y1="210" y2="330" /><line stroke="red" x1="590" x2="417" y1="210" y2="330" /><line stroke="red" x1="640" x2="479" y1="210" y2="330" /><line stroke="red" x1="720" x2="577" y1="210" y2="330" /><line stroke="red" x1="830" x2="577" y1="210" y2="330" /><line stroke="red" x1="870" x2="630" y1="210" y2="330" /></svg>