<?xml version="1.0" encoding="utf-8" ?>
<svg baseProfile="full" height="500" version="1.1" width="1000" xmlns="http://www.w3.org/2000/svg" xmlns:ev="http://www.w3.org/2001/xml-events" xmlns:xlink="http://www.w3.org/1999/xlink"><defs /><text fill="black" x="0" y="100">VIETNAMESE </text><text fill="black" x="20" y="150">POS: </text><text fill="black" x="20" y="200">Source: </text><text fill="black" x="150" y="150">Nq</text><text fill="black" x="150" y="200">30</text><text fill="black" x="230" y="150">Nu</text><text fill="black" x="230" y="200">bảng</text><text fill="black" x="310" y="150">Nr</text><text fill="black" x="310" y="200">Anh</text><text fill="black" x="390" y="150">Nq</text><text fill="black" x="390" y="200">một</text><text fill="black" x="470" y="150">Nt</text><text fill="black" x="470" y="200">tháng</text><text fill="black" x="550" y="150">Vv</text><text fill="black" x="550" y="200">đóng_góp</text><text fill="black" x="630" y="150">Cm</text><text fill="black" x="630" y="200">vào</text><text fill="black" x="710" y="150">Nn</text><text fill="black" x="710" y="200">tiền</text><text fill="black" x="790" y="150">Vv</text><text fill="black" x="790" y="200">hưu_trí</text><text fill="black" x="870" y="150">PU</text><text fill="black" x="870" y="200">.</text><text fill="black" x="0" y="450">ENGLISH </text><text fill="black" x="20" y="350">Target: </text><text fill="black" x="20" y="400">POS: </text><text fill="black" x="150" y="350">£</text><text fill="black" x="150" y="400">NN</text><text fill="black" x="230" y="350">30</text><text fill="black" x="230" y="400">CD</text><text fill="black" x="310" y="350">a</text><text fill="black" x="310" y="400">DT</text><text fill="black" x="390" y="350">month</text><text fill="black" x="390" y="400">NN</text><text fill="black" x="470" y="350">goes</text><text fill="black" x="470" y="400">VBZ</text><text fill="black" x="550" y="350">towards</text><text fill="black" x="550" y="400">IN</text><text fill="black" x="630" y="350">a</text><text fill="black" x="630" y="400">DT</text><text fill="black" x="710" y="350">pension</text><text fill="black" x="710" y="400">NN</text><text fill="black" x="790" y="350">fund</text><text fill="black" x="790" y="400">NN</text><text fill="black" x="870" y="350">.</text><text fill="black" x="870" y="400">.</text><line stroke="red" x1="160" x2="233" y1="210" y2="330" /><line stroke="red" x1="250" x2="150" y1="210" y2="330" /><line stroke="red" x1="320" x2="150" y1="210" y2="330" /><line stroke="red" x1="400" x2="310" y1="210" y2="330" /><line stroke="red" x1="490" x2="408" y1="210" y2="330" /><line stroke="red" x1="590" x2="577" y1="210" y2="330" /><line stroke="red" x1="640" x2="577" y1="210" y2="330" /><line stroke="red" x1="730" x2="737" y1="210" y2="330" /><line stroke="red" x1="820" x2="737" y1="210" y2="330" /><line stroke="red" x1="870" x2="870" y1="210" y2="330" /></svg>