<?xml version="1.0" encoding="utf-8" ?>
<svg baseProfile="full" height="500" version="1.1" width="1300" xmlns="http://www.w3.org/2000/svg" xmlns:ev="http://www.w3.org/2001/xml-events" xmlns:xlink="http://www.w3.org/1999/xlink"><defs /><text fill="black" x="0" y="100">VIETNAMESE </text><text fill="black" x="20" y="150">POS: </text><text fill="black" x="20" y="200">Source: </text><text fill="black" x="150" y="150">Nt</text><text fill="black" x="150" y="200">Ngày</text><text fill="black" x="230" y="150">Nt</text><text fill="black" x="230" y="200">1</text><text fill="black" x="310" y="150">Nt</text><text fill="black" x="310" y="200">tháng</text><text fill="black" x="390" y="150">Nt</text><text fill="black" x="390" y="200">chạp</text><text fill="black" x="470" y="150">Nn</text><text fill="black" x="470" y="200">dương_lịch</text><text fill="black" x="550" y="150">R</text><text fill="black" x="550" y="200">đã</text><text fill="black" x="630" y="150">Vv</text><text fill="black" x="630" y="200">được</text><text fill="black" x="710" y="150">Aa</text><text fill="black" x="710" y="200">chính_thức</text><text fill="black" x="790" y="150">Vv</text><text fill="black" x="790" y="200">chọn</text><text fill="black" x="870" y="150">Vc</text><text fill="black" x="870" y="200">là</text><text fill="black" x="950" y="150">Nt</text><text fill="black" x="950" y="200">ngày</text><text fill="black" x="1030" y="150">Vv</text><text fill="black" x="1030" y="200">bầu_cử</text><text fill="black" x="1110" y="150">PU</text><text fill="black" x="1110" y="200">.</text><text fill="black" x="0" y="450">ENGLISH </text><text fill="black" x="20" y="350">Target: </text><text fill="black" x="20" y="400">POS: </text><text fill="black" x="150" y="350">1</text><text fill="black" x="150" y="400">CD</text><text fill="black" x="230" y="350">December</text><text fill="black" x="230" y="400">NNP</text><text fill="black" x="310" y="350">has</text><text fill="black" x="310" y="400">VBZ</text><text fill="black" x="390" y="350">been</text><text fill="black" x="390" y="400">VBN</text><text fill="black" x="470" y="350">nominated</text><text fill="black" x="470" y="400">VBN</text><text fill="black" x="550" y="350">as</text><text fill="black" x="550" y="400">IN</text><text fill="black" x="630" y="350">the</text><text fill="black" x="630" y="400">DT</text><text fill="black" x="710" y="350">day</text><text fill="black" x="710" y="400">NN</text><text fill="black" x="790" y="350">of</text><text fill="black" x="790" y="400">IN</text><text fill="black" x="870" y="350">the</text><text fill="black" x="870" y="400">DT</text><text fill="black" x="950" y="350">election</text><text fill="black" x="950" y="400">NN</text><text fill="black" x="1030" y="350">.</text><text fill="black" x="1030" y="400">.</text><line stroke="red" x1="170" x2="150" y1="210" y2="330" /><line stroke="red" x1="230" x2="150" y1="210" y2="330" /><line stroke="red" x1="330" x2="266" y1="210" y2="330" /><line stroke="red" x1="410" x2="506" y1="210" y2="330" /><line stroke="red" x1="520" x2="506" y1="210" y2="330" /><line stroke="red" x1="560" x2="319" y1="210" y2="330" /><line stroke="red" x1="650" x2="408" y1="210" y2="330" /><line stroke="red" x1="760" x2="506" y1="210" y2="330" /><line stroke="red" x1="810" x2="506" y1="210" y2="330" /><line stroke="red" x1="970" x2="719" y1="210" y2="330" /><line stroke="red" x1="1060" x2="986" y1="210" y2="330" /><line stroke="red" x1="1110" x2="1030" y1="210" y2="330" /></svg>