<?xml version="1.0" encoding="utf-8" ?>
<svg baseProfile="full" height="500" version="1.1" width="900" xmlns="http://www.w3.org/2000/svg" xmlns:ev="http://www.w3.org/2001/xml-events" xmlns:xlink="http://www.w3.org/1999/xlink"><defs /><text fill="black" x="0" y="100">VIETNAMESE </text><text fill="black" x="20" y="150">POS: </text><text fill="black" x="20" y="200">Source: </text><text fill="black" x="150" y="150">Vv</text><text fill="black" x="150" y="200">Giảm</text><text fill="black" x="230" y="150">Nq</text><text fill="black" x="230" y="200">10</text><text fill="black" x="310" y="150">Nu</text><text fill="black" x="310" y="200">xu</text><text fill="black" x="390" y="150">Cp</text><text fill="black" x="390" y="200">nếu</text><text fill="black" x="470" y="150">Nn</text><text fill="black" x="470" y="200">ông</text><text fill="black" x="550" y="150">Vv</text><text fill="black" x="550" y="200">dùng</text><text fill="black" x="630" y="150">Nn</text><text fill="black" x="630" y="200">phiếu</text><text fill="black" x="710" y="150">Pd</text><text fill="black" x="710" y="200">này</text><text fill="black" x="790" y="150">PU</text><text fill="black" x="790" y="200">.</text><text fill="black" x="0" y="450">ENGLISH </text><text fill="black" x="20" y="350">Target: </text><text fill="black" x="20" y="400">POS: </text><text fill="black" x="150" y="350">10p</text><text fill="black" x="150" y="400">VB</text><text fill="black" x="230" y="350">off</text><text fill="black" x="230" y="400">RP</text><text fill="black" x="310" y="350">if</text><text fill="black" x="310" y="400">IN</text><text fill="black" x="390" y="350">you</text><text fill="black" x="390" y="400">PRP</text><text fill="black" x="470" y="350">use</text><text fill="black" x="470" y="400">VBP</text><text fill="black" x="550" y="350">this</text><text fill="black" x="550" y="400">DT</text><text fill="black" x="630" y="350">coupon</text><text fill="black" x="630" y="400">NN</text><text fill="black" x="710" y="350">.</text><text fill="black" x="710" y="400">.</text><line stroke="red" x1="170" x2="159" y1="210" y2="330" /><line stroke="red" x1="240" x2="159" y1="210" y2="330" /><line stroke="red" x1="320" x2="159" y1="210" y2="330" /><line stroke="red" x1="400" x2="313" y1="210" y2="330" /><line stroke="red" x1="480" x2="399" y1="210" y2="330" /><line stroke="red" x1="570" x2="479" y1="210" y2="330" /><line stroke="red" x1="650" x2="657" y1="210" y2="330" /><line stroke="red" x1="720" x2="568" y1="210" y2="330" /><line stroke="red" x1="790" x2="710" y1="210" y2="330" /></svg>