<?xml version="1.0" encoding="utf-8" ?>
<svg baseProfile="full" height="500" version="1.1" width="1200" xmlns="http://www.w3.org/2000/svg" xmlns:ev="http://www.w3.org/2001/xml-events" xmlns:xlink="http://www.w3.org/1999/xlink"><defs /><text fill="black" x="0" y="100">VIETNAMESE </text><text fill="black" x="20" y="150">POS: </text><text fill="black" x="20" y="200">Source: </text><text fill="black" x="150" y="150">Nt</text><text fill="black" x="150" y="200">Hôm_qua</text><text fill="black" x="230" y="150">Cm</text><text fill="black" x="230" y="200">ở</text><text fill="black" x="310" y="150">Nn</text><text fill="black" x="310" y="200">sân_bay</text><text fill="black" x="390" y="150">Nr</text><text fill="black" x="390" y="200">Heathrow</text><text fill="black" x="470" y="150">Pp</text><text fill="black" x="470" y="200">người_ta</text><text fill="black" x="550" y="150">R</text><text fill="black" x="550" y="200">đã</text><text fill="black" x="630" y="150">Vv</text><text fill="black" x="630" y="200">tịch_thu</text><text fill="black" x="710" y="150">R</text><text fill="black" x="710" y="200">được</text><text fill="black" x="790" y="150">Nq</text><text fill="black" x="790" y="200">20</text><text fill="black" x="870" y="150">Nu</text><text fill="black" x="870" y="200">kilô</text><text fill="black" x="950" y="150">FW</text><text fill="black" x="950" y="200">hêrôin</text><text fill="black" x="1030" y="150">PU</text><text fill="black" x="1030" y="200">.</text><text fill="black" x="0" y="450">ENGLISH </text><text fill="black" x="20" y="350">Target: </text><text fill="black" x="20" y="400">POS: </text><text fill="black" x="150" y="350">20</text><text fill="black" x="150" y="400">CD</text><text fill="black" x="230" y="350">kilos</text><text fill="black" x="230" y="400">NNS</text><text fill="black" x="310" y="350">of</text><text fill="black" x="310" y="400">IN</text><text fill="black" x="390" y="350">heroin</text><text fill="black" x="390" y="400">NN</text><text fill="black" x="470" y="350">were</text><text fill="black" x="470" y="400">VBD</text><text fill="black" x="550" y="350">seized</text><text fill="black" x="550" y="400">VBN</text><text fill="black" x="630" y="350">yesterday</text><text fill="black" x="630" y="400">NN</text><text fill="black" x="710" y="350">at</text><text fill="black" x="710" y="400">IN</text><text fill="black" x="790" y="350">Heathrow</text><text fill="black" x="790" y="400">NNP</text><text fill="black" x="870" y="350">.</text><text fill="black" x="870" y="400">.</text><line stroke="red" x1="180" x2="666" y1="210" y2="330" /><line stroke="red" x1="230" x2="713" y1="210" y2="330" /><line stroke="red" x1="340" x2="826" y1="210" y2="330" /><line stroke="red" x1="430" x2="826" y1="210" y2="330" /><line stroke="red" x1="510" x2="826" y1="210" y2="330" /><line stroke="red" x1="670" x2="826" y1="210" y2="330" /><line stroke="red" x1="800" x2="826" y1="210" y2="330" /><line stroke="red" x1="890" x2="826" y1="210" y2="330" /><line stroke="red" x1="980" x2="826" y1="210" y2="330" /><line stroke="red" x1="1030" x2="870" y1="210" y2="330" /></svg>