<?xml version="1.0" encoding="utf-8" ?>
<svg baseProfile="full" height="500" version="1.1" width="1100" xmlns="http://www.w3.org/2000/svg" xmlns:ev="http://www.w3.org/2001/xml-events" xmlns:xlink="http://www.w3.org/1999/xlink"><defs /><text fill="black" x="0" y="100">VIETNAMESE </text><text fill="black" x="20" y="150">POS: </text><text fill="black" x="20" y="200">Source: </text><text fill="black" x="150" y="150">Nq</text><text fill="black" x="150" y="200">14</text><text fill="black" x="230" y="150">PU</text><text fill="black" x="230" y="200">,</text><text fill="black" x="310" y="150">Nq</text><text fill="black" x="310" y="200">21</text><text fill="black" x="390" y="150">Cp</text><text fill="black" x="390" y="200">và</text><text fill="black" x="470" y="150">Nq</text><text fill="black" x="470" y="200">28</text><text fill="black" x="550" y="150">Vc</text><text fill="black" x="550" y="200">là</text><text fill="black" x="630" y="150">Nq</text><text fill="black" x="630" y="200">những</text><text fill="black" x="710" y="150">Nn</text><text fill="black" x="710" y="200">bội_số</text><text fill="black" x="790" y="150">Cm</text><text fill="black" x="790" y="200">của</text><text fill="black" x="870" y="150">Nq</text><text fill="black" x="870" y="200">7</text><text fill="black" x="950" y="150">PU</text><text fill="black" x="950" y="200">.</text><text fill="black" x="0" y="450">ENGLISH </text><text fill="black" x="20" y="350">Target: </text><text fill="black" x="20" y="400">POS: </text><text fill="black" x="150" y="350">14</text><text fill="black" x="150" y="400">CD</text><text fill="black" x="230" y="350">,</text><text fill="black" x="230" y="400">,</text><text fill="black" x="310" y="350">21</text><text fill="black" x="310" y="400">CD</text><text fill="black" x="390" y="350">,</text><text fill="black" x="390" y="400">,</text><text fill="black" x="470" y="350">and</text><text fill="black" x="470" y="400">CC</text><text fill="black" x="550" y="350">28</text><text fill="black" x="550" y="400">CD</text><text fill="black" x="630" y="350">are</text><text fill="black" x="630" y="400">VBP</text><text fill="black" x="710" y="350">multiples</text><text fill="black" x="710" y="400">NNS</text><text fill="black" x="790" y="350">of</text><text fill="black" x="790" y="400">IN</text><text fill="black" x="870" y="350">7</text><text fill="black" x="870" y="400">CD</text><text fill="black" x="950" y="350">.</text><text fill="black" x="950" y="400">.</text><line stroke="red" x1="160" x2="153" y1="210" y2="330" /><line stroke="red" x1="230" x2="230" y1="210" y2="330" /><line stroke="red" x1="320" x2="313" y1="210" y2="330" /><line stroke="red" x1="400" x2="479" y1="210" y2="330" /><line stroke="red" x1="480" x2="553" y1="210" y2="330" /><line stroke="red" x1="650" x2="746" y1="210" y2="330" /><line stroke="red" x1="740" x2="746" y1="210" y2="330" /><line stroke="red" x1="870" x2="870" y1="210" y2="330" /><line stroke="red" x1="950" x2="950" y1="210" y2="330" /></svg>