<?xml version="1.0" encoding="utf-8" ?>
<svg baseProfile="full" height="500" version="1.1" width="1500" xmlns="http://www.w3.org/2000/svg" xmlns:ev="http://www.w3.org/2001/xml-events" xmlns:xlink="http://www.w3.org/1999/xlink"><defs /><text fill="black" x="0" y="100">VIETNAMESE </text><text fill="black" x="20" y="150">POS: </text><text fill="black" x="20" y="200">Source: </text><text fill="black" x="150" y="150">Nn</text><text fill="black" x="150" y="200">Thời_buổi</text><text fill="black" x="230" y="150">Pd</text><text fill="black" x="230" y="200">này</text><text fill="black" x="310" y="150">Nq</text><text fill="black" x="310" y="200">20</text><text fill="black" x="390" y="150">Nu</text><text fill="black" x="390" y="200">bảng</text><text fill="black" x="470" y="150">Nr</text><text fill="black" x="470" y="200">Anh</text><text fill="black" x="550" y="150">R</text><text fill="black" x="550" y="200">chẳng</text><text fill="black" x="630" y="150">Nn</text><text fill="black" x="630" y="200">nghĩa_lý</text><text fill="black" x="710" y="150">M</text><text fill="black" x="710" y="200">gì</text><text fill="black" x="790" y="150">Nt</text><text fill="black" x="790" y="200">khi</text><text fill="black" x="870" y="150">Pp</text><text fill="black" x="870" y="200">bạn</text><text fill="black" x="950" y="150">Vv</text><text fill="black" x="950" y="200">phải</text><text fill="black" x="1030" y="150">Vv</text><text fill="black" x="1030" y="200">nuôi</text><text fill="black" x="1110" y="150">Nq</text><text fill="black" x="1110" y="200">một</text><text fill="black" x="1190" y="150">Nn</text><text fill="black" x="1190" y="200">gia_đình</text><text fill="black" x="1270" y="150">PU</text><text fill="black" x="1270" y="200">.</text><text fill="black" x="0" y="450">ENGLISH </text><text fill="black" x="20" y="350">Target: </text><text fill="black" x="20" y="400">POS: </text><text fill="black" x="150" y="350">20</text><text fill="black" x="150" y="400">CD</text><text fill="black" x="230" y="350">goes</text><text fill="black" x="230" y="400">VBZ</text><text fill="black" x="310" y="350">nowhere</text><text fill="black" x="310" y="400">RB</text><text fill="black" x="390" y="350">when</text><text fill="black" x="390" y="400">WRB</text><text fill="black" x="470" y="350">you</text><text fill="black" x="470" y="400">PRP</text><text fill="black" x="550" y="350">'</text><text fill="black" x="550" y="400">''</text><text fill="black" x="630" y="350">re</text><text fill="black" x="630" y="400">IN</text><text fill="black" x="710" y="350">feeding</text><text fill="black" x="710" y="400">VBG</text><text fill="black" x="790" y="350">a</text><text fill="black" x="790" y="400">DT</text><text fill="black" x="870" y="350">family</text><text fill="black" x="870" y="400">NN</text><text fill="black" x="950" y="350">these</text><text fill="black" x="950" y="400">DT</text><text fill="black" x="1030" y="350">days</text><text fill="black" x="1030" y="400">NNS</text><text fill="black" x="1110" y="350">.</text><text fill="black" x="1110" y="400">.</text><line stroke="red" x1="190" x2="153" y1="210" y2="330" /><line stroke="red" x1="320" x2="153" y1="210" y2="330" /><line stroke="red" x1="410" x2="248" y1="210" y2="330" /><line stroke="red" x1="480" x2="337" y1="210" y2="330" /><line stroke="red" x1="570" x2="337" y1="210" y2="330" /><line stroke="red" x1="670" x2="737" y1="210" y2="330" /><line stroke="red" x1="720" x2="737" y1="210" y2="330" /><line stroke="red" x1="800" x2="408" y1="210" y2="330" /><line stroke="red" x1="880" x2="479" y1="210" y2="330" /><line stroke="red" x1="970" x2="737" y1="210" y2="330" /><line stroke="red" x1="1050" x2="737" y1="210" y2="330" /><line stroke="red" x1="1120" x2="790" y1="210" y2="330" /><line stroke="red" x1="1230" x2="897" y1="210" y2="330" /><line stroke="red" x1="1270" x2="1110" y1="210" y2="330" /></svg>