<?xml version="1.0" encoding="utf-8" ?>
<svg baseProfile="full" height="500" version="1.1" width="1200" xmlns="http://www.w3.org/2000/svg" xmlns:ev="http://www.w3.org/2001/xml-events" xmlns:xlink="http://www.w3.org/1999/xlink"><defs /><text fill="black" x="0" y="100">VIETNAMESE </text><text fill="black" x="20" y="150">POS: </text><text fill="black" x="20" y="200">Source: </text><text fill="black" x="150" y="150">Nq</text><text fill="black" x="150" y="200">2</text><text fill="black" x="230" y="150">PU</text><text fill="black" x="230" y="200">,</text><text fill="black" x="310" y="150">Nq</text><text fill="black" x="310" y="200">3</text><text fill="black" x="390" y="150">PU</text><text fill="black" x="390" y="200">,</text><text fill="black" x="470" y="150">Nq</text><text fill="black" x="470" y="200">4</text><text fill="black" x="550" y="150">Cp</text><text fill="black" x="550" y="200">và</text><text fill="black" x="630" y="150">Nq</text><text fill="black" x="630" y="200">6</text><text fill="black" x="710" y="150">Vc</text><text fill="black" x="710" y="200">là</text><text fill="black" x="790" y="150">Nn</text><text fill="black" x="790" y="200">thừa_số</text><text fill="black" x="870" y="150">Cm</text><text fill="black" x="870" y="200">của</text><text fill="black" x="950" y="150">Nq</text><text fill="black" x="950" y="200">12</text><text fill="black" x="1030" y="150">PU</text><text fill="black" x="1030" y="200">.</text><text fill="black" x="0" y="450">ENGLISH </text><text fill="black" x="20" y="350">Target: </text><text fill="black" x="20" y="400">POS: </text><text fill="black" x="150" y="350">2</text><text fill="black" x="150" y="400">CD</text><text fill="black" x="230" y="350">,</text><text fill="black" x="230" y="400">,</text><text fill="black" x="310" y="350">3</text><text fill="black" x="310" y="400">CD</text><text fill="black" x="390" y="350">,</text><text fill="black" x="390" y="400">,</text><text fill="black" x="470" y="350">4</text><text fill="black" x="470" y="400">CD</text><text fill="black" x="550" y="350">and</text><text fill="black" x="550" y="400">CC</text><text fill="black" x="630" y="350">6</text><text fill="black" x="630" y="400">CD</text><text fill="black" x="710" y="350">are</text><text fill="black" x="710" y="400">VBP</text><text fill="black" x="790" y="350">factors</text><text fill="black" x="790" y="400">NNS</text><text fill="black" x="870" y="350">of</text><text fill="black" x="870" y="400">IN</text><text fill="black" x="950" y="350">12</text><text fill="black" x="950" y="400">CD</text><text fill="black" x="1030" y="350">.</text><text fill="black" x="1030" y="400">.</text><line stroke="red" x1="150" x2="150" y1="210" y2="330" /><line stroke="red" x1="230" x2="230" y1="210" y2="330" /><line stroke="red" x1="310" x2="310" y1="210" y2="330" /><line stroke="red" x1="390" x2="390" y1="210" y2="330" /><line stroke="red" x1="470" x2="470" y1="210" y2="330" /><line stroke="red" x1="560" x2="559" y1="210" y2="330" /><line stroke="red" x1="630" x2="630" y1="210" y2="330" /><line stroke="red" x1="720" x2="719" y1="210" y2="330" /><line stroke="red" x1="820" x2="817" y1="210" y2="330" /><line stroke="red" x1="960" x2="953" y1="210" y2="330" /><line stroke="red" x1="1030" x2="1030" y1="210" y2="330" /></svg>