<?xml version="1.0" encoding="utf-8" ?>
<svg baseProfile="full" height="500" version="1.1" width="1300" xmlns="http://www.w3.org/2000/svg" xmlns:ev="http://www.w3.org/2001/xml-events" xmlns:xlink="http://www.w3.org/1999/xlink"><defs /><text fill="black" x="0" y="100">VIETNAMESE </text><text fill="black" x="20" y="150">POS: </text><text fill="black" x="20" y="200">Source: </text><text fill="black" x="150" y="150">Nt</text><text fill="black" x="150" y="200">Năm</text><text fill="black" x="230" y="150">Nt</text><text fill="black" x="230" y="200">1949</text><text fill="black" x="310" y="150">Vc</text><text fill="black" x="310" y="200">là</text><text fill="black" x="390" y="150">Nt</text><text fill="black" x="390" y="200">năm</text><text fill="black" x="470" y="150">Vv</text><text fill="black" x="470" y="200">kỷ_niệm</text><text fill="black" x="550" y="150">Nn</text><text fill="black" x="550" y="200">lần</text><text fill="black" x="630" y="150">Nn</text><text fill="black" x="630" y="200">thứ</text><text fill="black" x="710" y="150">An</text><text fill="black" x="710" y="200">hai</text><text fill="black" x="790" y="150">Nq</text><text fill="black" x="790" y="200">trăm</text><text fill="black" x="870" y="150">Nn</text><text fill="black" x="870" y="200">ngày_sinh</text><text fill="black" x="950" y="150">Cm</text><text fill="black" x="950" y="200">của</text><text fill="black" x="1030" y="150">Nr</text><text fill="black" x="1030" y="200">Goethe</text><text fill="black" x="1110" y="150">PU</text><text fill="black" x="1110" y="200">.</text><text fill="black" x="0" y="450">ENGLISH </text><text fill="black" x="20" y="350">Target: </text><text fill="black" x="20" y="400">POS: </text><text fill="black" x="150" y="350">1949</text><text fill="black" x="150" y="400">CD</text><text fill="black" x="230" y="350">was</text><text fill="black" x="230" y="400">VBD</text><text fill="black" x="310" y="350">the</text><text fill="black" x="310" y="400">DT</text><text fill="black" x="390" y="350">bicentenary</text><text fill="black" x="390" y="400">NN</text><text fill="black" x="470" y="350">of</text><text fill="black" x="470" y="400">IN</text><text fill="black" x="550" y="350">Goethe</text><text fill="black" x="550" y="400">NNP</text><text fill="black" x="630" y="350">'</text><text fill="black" x="630" y="400">POS</text><text fill="black" x="710" y="350">s</text><text fill="black" x="710" y="400">NN</text><text fill="black" x="790" y="350">birth</text><text fill="black" x="790" y="400">NN</text><text fill="black" x="870" y="350">.</text><text fill="black" x="870" y="400">.</text><line stroke="red" x1="160" x2="168" y1="210" y2="330" /><line stroke="red" x1="250" x2="168" y1="210" y2="330" /><line stroke="red" x1="400" x2="435" y1="210" y2="330" /><line stroke="red" x1="500" x2="435" y1="210" y2="330" /><line stroke="red" x1="560" x2="435" y1="210" y2="330" /><line stroke="red" x1="640" x2="435" y1="210" y2="330" /><line stroke="red" x1="720" x2="435" y1="210" y2="330" /><line stroke="red" x1="810" x2="435" y1="210" y2="330" /><line stroke="red" x1="910" x2="577" y1="210" y2="330" /><line stroke="red" x1="1060" x2="577" y1="210" y2="330" /><line stroke="red" x1="1110" x2="870" y1="210" y2="330" /></svg>