<?xml version="1.0" encoding="utf-8" ?>
<svg baseProfile="full" height="500" version="1.1" width="1200" xmlns="http://www.w3.org/2000/svg" xmlns:ev="http://www.w3.org/2001/xml-events" xmlns:xlink="http://www.w3.org/1999/xlink"><defs /><text fill="black" x="0" y="100">VIETNAMESE </text><text fill="black" x="20" y="150">POS: </text><text fill="black" x="20" y="200">Source: </text><text fill="black" x="150" y="150">Nq</text><text fill="black" x="150" y="200">20</text><text fill="black" x="230" y="150">Nt</text><text fill="black" x="230" y="200">năm</text><text fill="black" x="310" y="150">Nn</text><text fill="black" x="310" y="200">trước</text><text fill="black" x="390" y="150">Nn</text><text fill="black" x="390" y="200">vùng</text><text fill="black" x="470" y="150">Pd</text><text fill="black" x="470" y="200">này</text><text fill="black" x="550" y="150">R</text><text fill="black" x="550" y="200">đã</text><text fill="black" x="630" y="150">Vv</text><text fill="black" x="630" y="200">bị</text><text fill="black" x="710" y="150">Nq</text><text fill="black" x="710" y="200">một</text><text fill="black" x="790" y="150">Nn</text><text fill="black" x="790" y="200">căn_bệnh</text><text fill="black" x="870" y="150">Aa</text><text fill="black" x="870" y="200">khủng_khiếp</text><text fill="black" x="950" y="150">Vv</text><text fill="black" x="950" y="200">hoành_hành</text><text fill="black" x="1030" y="150">PU</text><text fill="black" x="1030" y="200">.</text><text fill="black" x="0" y="450">ENGLISH </text><text fill="black" x="20" y="350">Target: </text><text fill="black" x="20" y="400">POS: </text><text fill="black" x="150" y="350">20</text><text fill="black" x="150" y="400">CD</text><text fill="black" x="230" y="350">years</text><text fill="black" x="230" y="400">NNS</text><text fill="black" x="310" y="350">ago</text><text fill="black" x="310" y="400">IN</text><text fill="black" x="390" y="350">this</text><text fill="black" x="390" y="400">DT</text><text fill="black" x="470" y="350">area</text><text fill="black" x="470" y="400">NN</text><text fill="black" x="550" y="350">was</text><text fill="black" x="550" y="400">VBD</text><text fill="black" x="630" y="350">visited</text><text fill="black" x="630" y="400">VBN</text><text fill="black" x="710" y="350">by</text><text fill="black" x="710" y="400">IN</text><text fill="black" x="790" y="350">a</text><text fill="black" x="790" y="400">DT</text><text fill="black" x="870" y="350">terrible</text><text fill="black" x="870" y="400">JJ</text><text fill="black" x="950" y="350">disease</text><text fill="black" x="950" y="400">NN</text><text fill="black" x="1030" y="350">.</text><text fill="black" x="1030" y="400">.</text><line stroke="red" x1="160" x2="153" y1="210" y2="330" /><line stroke="red" x1="240" x2="248" y1="210" y2="330" /><line stroke="red" x1="330" x2="319" y1="210" y2="330" /><line stroke="red" x1="410" x2="488" y1="210" y2="330" /><line stroke="red" x1="480" x2="408" y1="210" y2="330" /><line stroke="red" x1="640" x2="559" y1="210" y2="330" /><line stroke="red" x1="720" x2="790" y1="210" y2="330" /><line stroke="red" x1="830" x2="977" y1="210" y2="330" /><line stroke="red" x1="920" x2="906" y1="210" y2="330" /><line stroke="red" x1="1000" x2="977" y1="210" y2="330" /><line stroke="red" x1="1030" x2="1030" y1="210" y2="330" /></svg>