<?xml version="1.0" encoding="utf-8" ?>
<svg baseProfile="full" height="500" version="1.1" width="2000" xmlns="http://www.w3.org/2000/svg" xmlns:ev="http://www.w3.org/2001/xml-events" xmlns:xlink="http://www.w3.org/1999/xlink"><defs /><text fill="black" x="0" y="100">VIETNAMESE </text><text fill="black" x="20" y="150">POS: </text><text fill="black" x="20" y="200">Source: </text><text fill="black" x="150" y="150">An</text><text fill="black" x="150" y="200">4</text><text fill="black" x="230" y="150">Vc</text><text fill="black" x="230" y="200">là</text><text fill="black" x="310" y="150">Nc</text><text fill="black" x="310" y="200">căn</text><text fill="black" x="390" y="150">Nn</text><text fill="black" x="390" y="200">bậc</text><text fill="black" x="470" y="150">An</text><text fill="black" x="470" y="200">hai</text><text fill="black" x="550" y="150">Cm</text><text fill="black" x="550" y="200">của</text><text fill="black" x="630" y="150">An</text><text fill="black" x="630" y="200">16</text><text fill="black" x="710" y="150">PU</text><text fill="black" x="710" y="200">,</text><text fill="black" x="790" y="150">Nc</text><text fill="black" x="790" y="200">căn</text><text fill="black" x="870" y="150">Nn</text><text fill="black" x="870" y="200">bậc</text><text fill="black" x="950" y="150">An</text><text fill="black" x="950" y="200">ba</text><text fill="black" x="1030" y="150">Cm</text><text fill="black" x="1030" y="200">của</text><text fill="black" x="1110" y="150">Nq</text><text fill="black" x="1110" y="200">64</text><text fill="black" x="1190" y="150">PU</text><text fill="black" x="1190" y="200">,</text><text fill="black" x="1270" y="150">Nc</text><text fill="black" x="1270" y="200">căn</text><text fill="black" x="1350" y="150">Nn</text><text fill="black" x="1350" y="200">bậc</text><text fill="black" x="1430" y="150">An</text><text fill="black" x="1430" y="200">bốn</text><text fill="black" x="1510" y="150">Cm</text><text fill="black" x="1510" y="200">của</text><text fill="black" x="1590" y="150">Nq</text><text fill="black" x="1590" y="200">256</text><text fill="black" x="1670" y="150">PU</text><text fill="black" x="1670" y="200">.</text><text fill="black" x="0" y="450">ENGLISH </text><text fill="black" x="20" y="350">Target: </text><text fill="black" x="20" y="400">POS: </text><text fill="black" x="150" y="350">4</text><text fill="black" x="150" y="400">CD</text><text fill="black" x="230" y="350">is</text><text fill="black" x="230" y="400">VBZ</text><text fill="black" x="310" y="350">the</text><text fill="black" x="310" y="400">DT</text><text fill="black" x="390" y="350">square</text><text fill="black" x="390" y="400">JJ</text><text fill="black" x="470" y="350">root</text><text fill="black" x="470" y="400">NN</text><text fill="black" x="550" y="350">of</text><text fill="black" x="550" y="400">IN</text><text fill="black" x="630" y="350">16</text><text fill="black" x="630" y="400">CD</text><text fill="black" x="710" y="350">,</text><text fill="black" x="710" y="400">,</text><text fill="black" x="790" y="350">the</text><text fill="black" x="790" y="400">DT</text><text fill="black" x="870" y="350">cube</text><text fill="black" x="870" y="400">NN</text><text fill="black" x="950" y="350">root</text><text fill="black" x="950" y="400">NN</text><text fill="black" x="1030" y="350">of</text><text fill="black" x="1030" y="400">IN</text><text fill="black" x="1110" y="350">64</text><text fill="black" x="1110" y="400">CD</text><text fill="black" x="1190" y="350">and</text><text fill="black" x="1190" y="400">CC</text><text fill="black" x="1270" y="350">the</text><text fill="black" x="1270" y="400">DT</text><text fill="black" x="1350" y="350">fourth</text><text fill="black" x="1350" y="400">JJ</text><text fill="black" x="1430" y="350">root</text><text fill="black" x="1430" y="400">NN</text><text fill="black" x="1510" y="350">of</text><text fill="black" x="1510" y="400">IN</text><text fill="black" x="1590" y="350">256</text><text fill="black" x="1590" y="400">CD</text><text fill="black" x="1670" y="350">.</text><text fill="black" x="1670" y="400">.</text><line stroke="red" x1="150" x2="150" y1="210" y2="330" /><line stroke="red" x1="240" x2="233" y1="210" y2="330" /><line stroke="red" x1="320" x2="488" y1="210" y2="330" /><line stroke="red" x1="400" x2="488" y1="210" y2="330" /><line stroke="red" x1="480" x2="488" y1="210" y2="330" /><line stroke="red" x1="640" x2="633" y1="210" y2="330" /><line stroke="red" x1="710" x2="710" y1="210" y2="330" /><line stroke="red" x1="800" x2="488" y1="210" y2="330" /><line stroke="red" x1="880" x2="968" y1="210" y2="330" /><line stroke="red" x1="960" x2="888" y1="210" y2="330" /><line stroke="red" x1="1120" x2="1113" y1="210" y2="330" /><line stroke="red" x1="1280" x2="1448" y1="210" y2="330" /><line stroke="red" x1="1360" x2="1448" y1="210" y2="330" /><line stroke="red" x1="1440" x2="1377" y1="210" y2="330" /><line stroke="red" x1="1600" x2="1599" y1="210" y2="330" /><line stroke="red" x1="1670" x2="1670" y1="210" y2="330" /></svg>