<?xml version="1.0" encoding="utf-8" ?>
<svg baseProfile="full" height="500" version="1.1" width="1800" xmlns="http://www.w3.org/2000/svg" xmlns:ev="http://www.w3.org/2001/xml-events" xmlns:xlink="http://www.w3.org/1999/xlink"><defs /><text fill="black" x="0" y="100">VIETNAMESE </text><text fill="black" x="20" y="150">POS: </text><text fill="black" x="20" y="200">Source: </text><text fill="black" x="150" y="150">An</text><text fill="black" x="150" y="200">30</text><text fill="black" x="230" y="150">Vc</text><text fill="black" x="230" y="200">là</text><text fill="black" x="310" y="150">Nn</text><text fill="black" x="310" y="200">bội_số_chung</text><text fill="black" x="390" y="150">Cm</text><text fill="black" x="390" y="200">của</text><text fill="black" x="470" y="150">Nq</text><text fill="black" x="470" y="200">2</text><text fill="black" x="550" y="150">PU</text><text fill="black" x="550" y="200">,</text><text fill="black" x="630" y="150">Nq</text><text fill="black" x="630" y="200">3</text><text fill="black" x="710" y="150">PU</text><text fill="black" x="710" y="200">,</text><text fill="black" x="790" y="150">Nq</text><text fill="black" x="790" y="200">5</text><text fill="black" x="870" y="150">PU</text><text fill="black" x="870" y="200">,</text><text fill="black" x="950" y="150">Nq</text><text fill="black" x="950" y="200">6</text><text fill="black" x="1030" y="150">PU</text><text fill="black" x="1030" y="200">,</text><text fill="black" x="1110" y="150">Nq</text><text fill="black" x="1110" y="200">10</text><text fill="black" x="1190" y="150">Cp</text><text fill="black" x="1190" y="200">và</text><text fill="black" x="1270" y="150">Nq</text><text fill="black" x="1270" y="200">15</text><text fill="black" x="1350" y="150">PU</text><text fill="black" x="1350" y="200">.</text><text fill="black" x="0" y="450">ENGLISH </text><text fill="black" x="20" y="350">Target: </text><text fill="black" x="20" y="400">POS: </text><text fill="black" x="150" y="350">30</text><text fill="black" x="150" y="400">CD</text><text fill="black" x="230" y="350">is</text><text fill="black" x="230" y="400">VBZ</text><text fill="black" x="310" y="350">a</text><text fill="black" x="310" y="400">DT</text><text fill="black" x="390" y="350">common</text><text fill="black" x="390" y="400">JJ</text><text fill="black" x="470" y="350">multiple</text><text fill="black" x="470" y="400">NN</text><text fill="black" x="550" y="350">of</text><text fill="black" x="550" y="400">IN</text><text fill="black" x="630" y="350">2</text><text fill="black" x="630" y="400">CD</text><text fill="black" x="710" y="350">,</text><text fill="black" x="710" y="400">,</text><text fill="black" x="790" y="350">3</text><text fill="black" x="790" y="400">CD</text><text fill="black" x="870" y="350">,</text><text fill="black" x="870" y="400">,</text><text fill="black" x="950" y="350">5</text><text fill="black" x="950" y="400">CD</text><text fill="black" x="1030" y="350">,</text><text fill="black" x="1030" y="400">,</text><text fill="black" x="1110" y="350">6</text><text fill="black" x="1110" y="400">CD</text><text fill="black" x="1190" y="350">,</text><text fill="black" x="1190" y="400">,</text><text fill="black" x="1270" y="350">10</text><text fill="black" x="1270" y="400">CD</text><text fill="black" x="1350" y="350">and</text><text fill="black" x="1350" y="400">CC</text><text fill="black" x="1430" y="350">15</text><text fill="black" x="1430" y="400">CD</text><text fill="black" x="1510" y="350">.</text><text fill="black" x="1510" y="400">.</text><line stroke="red" x1="160" x2="153" y1="210" y2="330" /><line stroke="red" x1="240" x2="233" y1="210" y2="330" /><line stroke="red" x1="370" x2="506" y1="210" y2="330" /><line stroke="red" x1="470" x2="630" y1="210" y2="330" /><line stroke="red" x1="550" x2="710" y1="210" y2="330" /><line stroke="red" x1="630" x2="790" y1="210" y2="330" /><line stroke="red" x1="710" x2="870" y1="210" y2="330" /><line stroke="red" x1="790" x2="950" y1="210" y2="330" /><line stroke="red" x1="870" x2="1030" y1="210" y2="330" /><line stroke="red" x1="950" x2="1110" y1="210" y2="330" /><line stroke="red" x1="1030" x2="1190" y1="210" y2="330" /><line stroke="red" x1="1120" x2="1273" y1="210" y2="330" /><line stroke="red" x1="1200" x2="1359" y1="210" y2="330" /><line stroke="red" x1="1280" x2="1433" y1="210" y2="330" /><line stroke="red" x1="1350" x2="1510" y1="210" y2="330" /></svg>