<?xml version="1.0" encoding="utf-8" ?>
<svg baseProfile="full" height="500" version="1.1" width="1000" xmlns="http://www.w3.org/2000/svg" xmlns:ev="http://www.w3.org/2001/xml-events" xmlns:xlink="http://www.w3.org/1999/xlink"><defs /><text fill="black" x="0" y="100">VIETNAMESE </text><text fill="black" x="20" y="150">POS: </text><text fill="black" x="20" y="200">Source: </text><text fill="black" x="150" y="150">Nn</text><text fill="black" x="150" y="200">Con_số</text><text fill="black" x="230" y="150">Vv</text><text fill="black" x="230" y="200">ước_lượng</text><text fill="black" x="310" y="150">R</text><text fill="black" x="310" y="200">có_lẽ</text><text fill="black" x="390" y="150">Vc</text><text fill="black" x="390" y="200">là</text><text fill="black" x="470" y="150">Nn</text><text fill="black" x="470" y="200">khoảng</text><text fill="black" x="550" y="150">Nq</text><text fill="black" x="550" y="200">3.000</text><text fill="black" x="630" y="150">Nn</text><text fill="black" x="630" y="200">học_sinh</text><text fill="black" x="710" y="150">Nq</text><text fill="black" x="710" y="200">mỗi</text><text fill="black" x="790" y="150">Nt</text><text fill="black" x="790" y="200">năm</text><text fill="black" x="870" y="150">PU</text><text fill="black" x="870" y="200">.</text><text fill="black" x="0" y="450">ENGLISH </text><text fill="black" x="20" y="350">Target: </text><text fill="black" x="20" y="400">POS: </text><text fill="black" x="150" y="350">3,000</text><text fill="black" x="150" y="400">CD</text><text fill="black" x="230" y="350">students</text><text fill="black" x="230" y="400">NNS</text><text fill="black" x="310" y="350">each</text><text fill="black" x="310" y="400">DT</text><text fill="black" x="390" y="350">year</text><text fill="black" x="390" y="400">NN</text><text fill="black" x="470" y="350">would</text><text fill="black" x="470" y="400">MD</text><text fill="black" x="550" y="350">be</text><text fill="black" x="550" y="400">VB</text><text fill="black" x="630" y="350">an</text><text fill="black" x="630" y="400">DT</text><text fill="black" x="710" y="350">approximation</text><text fill="black" x="710" y="400">NN</text><text fill="black" x="790" y="350">.</text><text fill="black" x="790" y="400">.</text><line stroke="red" x1="180" x2="168" y1="210" y2="330" /><line stroke="red" x1="270" x2="764" y1="210" y2="330" /><line stroke="red" x1="330" x2="764" y1="210" y2="330" /><line stroke="red" x1="400" x2="764" y1="210" y2="330" /><line stroke="red" x1="500" x2="764" y1="210" y2="330" /><line stroke="red" x1="570" x2="168" y1="210" y2="330" /><line stroke="red" x1="670" x2="266" y1="210" y2="330" /><line stroke="red" x1="720" x2="328" y1="210" y2="330" /><line stroke="red" x1="800" x2="408" y1="210" y2="330" /><line stroke="red" x1="870" x2="790" y1="210" y2="330" /></svg>