<?xml version="1.0" encoding="utf-8" ?>
<svg baseProfile="full" height="500" version="1.1" width="900" xmlns="http://www.w3.org/2000/svg" xmlns:ev="http://www.w3.org/2001/xml-events" xmlns:xlink="http://www.w3.org/1999/xlink"><defs /><text fill="black" x="0" y="100">VIETNAMESE </text><text fill="black" x="20" y="150">POS: </text><text fill="black" x="20" y="200">Source: </text><text fill="black" x="150" y="150">Nq</text><text fill="black" x="150" y="200">200</text><text fill="black" x="230" y="150">Nn</text><text fill="black" x="230" y="200">người</text><text fill="black" x="310" y="150">Cm</text><text fill="black" x="310" y="200">ở</text><text fill="black" x="390" y="150">Nn</text><text fill="black" x="390" y="200">xí_nghiệp</text><text fill="black" x="470" y="150">Pd</text><text fill="black" x="470" y="200">đó</text><text fill="black" x="550" y="150">R</text><text fill="black" x="550" y="200">đã</text><text fill="black" x="630" y="150">Vv</text><text fill="black" x="630" y="200">bị</text><text fill="black" x="710" y="150">Vv</text><text fill="black" x="710" y="200">sa_thải</text><text fill="black" x="790" y="150">PU</text><text fill="black" x="790" y="200">.</text><text fill="black" x="0" y="450">ENGLISH </text><text fill="black" x="20" y="350">Target: </text><text fill="black" x="20" y="400">POS: </text><text fill="black" x="150" y="350">200</text><text fill="black" x="150" y="400">CD</text><text fill="black" x="230" y="350">men</text><text fill="black" x="230" y="400">NNS</text><text fill="black" x="310" y="350">have</text><text fill="black" x="310" y="400">VBP</text><text fill="black" x="390" y="350">been</text><text fill="black" x="390" y="400">VBN</text><text fill="black" x="470" y="350">sacked</text><text fill="black" x="470" y="400">VBN</text><text fill="black" x="550" y="350">at</text><text fill="black" x="550" y="400">IN</text><text fill="black" x="630" y="350">the</text><text fill="black" x="630" y="400">DT</text><text fill="black" x="710" y="350">factory</text><text fill="black" x="710" y="400">NN</text><text fill="black" x="790" y="350">.</text><text fill="black" x="790" y="400">.</text><line stroke="red" x1="160" x2="159" y1="210" y2="330" /><line stroke="red" x1="250" x2="239" y1="210" y2="330" /><line stroke="red" x1="310" x2="553" y1="210" y2="330" /><line stroke="red" x1="430" x2="737" y1="210" y2="330" /><line stroke="red" x1="560" x2="328" y1="210" y2="330" /><line stroke="red" x1="640" x2="408" y1="210" y2="330" /><line stroke="red" x1="740" x2="497" y1="210" y2="330" /><line stroke="red" x1="790" x2="790" y1="210" y2="330" /></svg>