<?xml version="1.0" encoding="utf-8" ?>
<svg baseProfile="full" height="500" version="1.1" width="1600" xmlns="http://www.w3.org/2000/svg" xmlns:ev="http://www.w3.org/2001/xml-events" xmlns:xlink="http://www.w3.org/1999/xlink"><defs /><text fill="black" x="0" y="100">VIETNAMESE </text><text fill="black" x="20" y="150">POS: </text><text fill="black" x="20" y="200">Source: </text><text fill="black" x="150" y="150">Nq</text><text fill="black" x="150" y="200">4</text><text fill="black" x="230" y="150">Vv</text><text fill="black" x="230" y="200">so</text><text fill="black" x="310" y="150">Cp</text><text fill="black" x="310" y="200">với</text><text fill="black" x="390" y="150">Nq</text><text fill="black" x="390" y="200">8</text><text fill="black" x="470" y="150">Nn</text><text fill="black" x="470" y="200">bằng</text><text fill="black" x="550" y="150">Nq</text><text fill="black" x="550" y="200">6</text><text fill="black" x="630" y="150">Vv</text><text fill="black" x="630" y="200">so</text><text fill="black" x="710" y="150">Cp</text><text fill="black" x="710" y="200">với</text><text fill="black" x="790" y="150">Nq</text><text fill="black" x="790" y="200">12</text><text fill="black" x="870" y="150">Vc</text><text fill="black" x="870" y="200">là</text><text fill="black" x="950" y="150">Nq</text><text fill="black" x="950" y="200">một</text><text fill="black" x="1030" y="150">Nc</text><text fill="black" x="1030" y="200">điều</text><text fill="black" x="1110" y="150">Vv</text><text fill="black" x="1110" y="200">nêu</text><text fill="black" x="1190" y="150">Cm</text><text fill="black" x="1190" y="200">lên</text><text fill="black" x="1270" y="150">Nn</text><text fill="black" x="1270" y="200">tỷ_lệ_thức</text><text fill="black" x="1350" y="150">PU</text><text fill="black" x="1350" y="200">.</text><text fill="black" x="0" y="450">ENGLISH </text><text fill="black" x="20" y="350">Target: </text><text fill="black" x="20" y="400">POS: </text><text fill="black" x="150" y="350">4</text><text fill="black" x="150" y="400">CD</text><text fill="black" x="230" y="350">is</text><text fill="black" x="230" y="400">VBZ</text><text fill="black" x="310" y="350">to</text><text fill="black" x="310" y="400">TO</text><text fill="black" x="390" y="350">8</text><text fill="black" x="390" y="400">CD</text><text fill="black" x="470" y="350">as</text><text fill="black" x="470" y="400">IN</text><text fill="black" x="550" y="350">6</text><text fill="black" x="550" y="400">CD</text><text fill="black" x="630" y="350">is</text><text fill="black" x="630" y="400">VBZ</text><text fill="black" x="710" y="350">to</text><text fill="black" x="710" y="400">TO</text><text fill="black" x="790" y="350">12</text><text fill="black" x="790" y="400">CD</text><text fill="black" x="870" y="350">is</text><text fill="black" x="870" y="400">VBZ</text><text fill="black" x="950" y="350">a</text><text fill="black" x="950" y="400">DT</text><text fill="black" x="1030" y="350">statement</text><text fill="black" x="1030" y="400">NN</text><text fill="black" x="1110" y="350">of</text><text fill="black" x="1110" y="400">IN</text><text fill="black" x="1190" y="350">proportion</text><text fill="black" x="1190" y="400">NN</text><text fill="black" x="1270" y="350">.</text><text fill="black" x="1270" y="400">.</text><line stroke="red" x1="150" x2="150" y1="210" y2="330" /><line stroke="red" x1="240" x2="1235" y1="210" y2="330" /><line stroke="red" x1="320" x2="1235" y1="210" y2="330" /><line stroke="red" x1="390" x2="390" y1="210" y2="330" /><line stroke="red" x1="490" x2="473" y1="210" y2="330" /><line stroke="red" x1="550" x2="550" y1="210" y2="330" /><line stroke="red" x1="640" x2="1235" y1="210" y2="330" /><line stroke="red" x1="720" x2="1235" y1="210" y2="330" /><line stroke="red" x1="800" x2="793" y1="210" y2="330" /><line stroke="red" x1="880" x2="873" y1="210" y2="330" /><line stroke="red" x1="960" x2="950" y1="210" y2="330" /><line stroke="red" x1="1050" x2="1235" y1="210" y2="330" /><line stroke="red" x1="1120" x2="1235" y1="210" y2="330" /><line stroke="red" x1="1200" x2="1235" y1="210" y2="330" /><line stroke="red" x1="1320" x2="1235" y1="210" y2="330" /><line stroke="red" x1="1350" x2="1270" y1="210" y2="330" /></svg>