<?xml version="1.0" encoding="utf-8" ?>
<svg baseProfile="full" height="500" version="1.1" width="900" xmlns="http://www.w3.org/2000/svg" xmlns:ev="http://www.w3.org/2001/xml-events" xmlns:xlink="http://www.w3.org/1999/xlink"><defs /><text fill="black" x="0" y="100">VIETNAMESE </text><text fill="black" x="20" y="150">POS: </text><text fill="black" x="20" y="200">Source: </text><text fill="black" x="150" y="150">Nr</text><text fill="black" x="150" y="200">250g</text><text fill="black" x="230" y="150">Cp</text><text fill="black" x="230" y="200">hoặc</text><text fill="black" x="310" y="150">Nq</text><text fill="black" x="310" y="200">một</text><text fill="black" x="390" y="150">Nn</text><text fill="black" x="390" y="200">lượng</text><text fill="black" x="470" y="150">Aa</text><text fill="black" x="470" y="200">tương_đương</text><text fill="black" x="550" y="150">Vv</text><text fill="black" x="550" y="200">tính</text><text fill="black" x="630" y="150">Cm</text><text fill="black" x="630" y="200">bằng</text><text fill="black" x="710" y="150">FW</text><text fill="black" x="710" y="200">aoxơ</text><text fill="black" x="790" y="150">PU</text><text fill="black" x="790" y="200">.</text><text fill="black" x="0" y="450">ENGLISH </text><text fill="black" x="20" y="350">Target: </text><text fill="black" x="20" y="400">POS: </text><text fill="black" x="150" y="350">250</text><text fill="black" x="150" y="400">CD</text><text fill="black" x="230" y="350">grams</text><text fill="black" x="230" y="400">NNS</text><text fill="black" x="310" y="350">or</text><text fill="black" x="310" y="400">CC</text><text fill="black" x="390" y="350">an</text><text fill="black" x="390" y="400">DT</text><text fill="black" x="470" y="350">equivalent</text><text fill="black" x="470" y="400">JJ</text><text fill="black" x="550" y="350">amount</text><text fill="black" x="550" y="400">NN</text><text fill="black" x="630" y="350">in</text><text fill="black" x="630" y="400">IN</text><text fill="black" x="710" y="350">ounces</text><text fill="black" x="710" y="400">NNS</text><text fill="black" x="790" y="350">.</text><text fill="black" x="790" y="400">.</text><line stroke="red" x1="170" x2="248" y1="210" y2="330" /><line stroke="red" x1="250" x2="313" y1="210" y2="330" /><line stroke="red" x1="320" x2="393" y1="210" y2="330" /><line stroke="red" x1="410" x2="577" y1="210" y2="330" /><line stroke="red" x1="520" x2="515" y1="210" y2="330" /><line stroke="red" x1="570" x2="737" y1="210" y2="330" /><line stroke="red" x1="650" x2="737" y1="210" y2="330" /><line stroke="red" x1="730" x2="737" y1="210" y2="330" /><line stroke="red" x1="790" x2="790" y1="210" y2="330" /></svg>