<?xml version="1.0" encoding="utf-8" ?>
<svg baseProfile="full" height="500" version="1.1" width="1300" xmlns="http://www.w3.org/2000/svg" xmlns:ev="http://www.w3.org/2001/xml-events" xmlns:xlink="http://www.w3.org/1999/xlink"><defs /><text fill="black" x="0" y="100">VIETNAMESE </text><text fill="black" x="20" y="150">POS: </text><text fill="black" x="20" y="200">Source: </text><text fill="black" x="150" y="150">Nq</text><text fill="black" x="150" y="200">5.000</text><text fill="black" x="230" y="150">Nu</text><text fill="black" x="230" y="200">bảng</text><text fill="black" x="310" y="150">Nr</text><text fill="black" x="310" y="200">Anh</text><text fill="black" x="390" y="150">R</text><text fill="black" x="390" y="200">đã</text><text fill="black" x="470" y="150">Vv</text><text fill="black" x="470" y="200">được</text><text fill="black" x="550" y="150">Vv</text><text fill="black" x="550" y="200">dành</text><text fill="black" x="630" y="150">Aa</text><text fill="black" x="630" y="200">riêng</text><text fill="black" x="710" y="150">Cp</text><text fill="black" x="710" y="200">cho</text><text fill="black" x="790" y="150">Nq</text><text fill="black" x="790" y="200">một</text><text fill="black" x="870" y="150">Nn</text><text fill="black" x="870" y="200">kế_hoạch</text><text fill="black" x="950" y="150">Vv</text><text fill="black" x="950" y="200">huấn_luyện</text><text fill="black" x="1030" y="150">Aa</text><text fill="black" x="1030" y="200">mới</text><text fill="black" x="1110" y="150">PU</text><text fill="black" x="1110" y="200">.</text><text fill="black" x="0" y="450">ENGLISH </text><text fill="black" x="20" y="350">Target: </text><text fill="black" x="20" y="400">POS: </text><text fill="black" x="150" y="350">5,000</text><text fill="black" x="150" y="400">CD</text><text fill="black" x="230" y="350">has</text><text fill="black" x="230" y="400">VBZ</text><text fill="black" x="310" y="350">been</text><text fill="black" x="310" y="400">VBN</text><text fill="black" x="390" y="350">appropriated</text><text fill="black" x="390" y="400">VBN</text><text fill="black" x="470" y="350">for</text><text fill="black" x="470" y="400">IN</text><text fill="black" x="550" y="350">a</text><text fill="black" x="550" y="400">DT</text><text fill="black" x="630" y="350">new</text><text fill="black" x="630" y="400">JJ</text><text fill="black" x="710" y="350">training</text><text fill="black" x="710" y="400">NN</text><text fill="black" x="790" y="350">scheme</text><text fill="black" x="790" y="400">NN</text><text fill="black" x="870" y="350">.</text><text fill="black" x="870" y="400">.</text><line stroke="red" x1="170" x2="168" y1="210" y2="330" /><line stroke="red" x1="250" x2="168" y1="210" y2="330" /><line stroke="red" x1="320" x2="168" y1="210" y2="330" /><line stroke="red" x1="400" x2="239" y1="210" y2="330" /><line stroke="red" x1="490" x2="328" y1="210" y2="330" /><line stroke="red" x1="570" x2="444" y1="210" y2="330" /><line stroke="red" x1="650" x2="444" y1="210" y2="330" /><line stroke="red" x1="720" x2="479" y1="210" y2="330" /><line stroke="red" x1="800" x2="550" y1="210" y2="330" /><line stroke="red" x1="910" x2="817" y1="210" y2="330" /><line stroke="red" x1="1000" x2="746" y1="210" y2="330" /><line stroke="red" x1="1040" x2="639" y1="210" y2="330" /><line stroke="red" x1="1110" x2="870" y1="210" y2="330" /></svg>