<?xml version="1.0" encoding="utf-8" ?>
<svg baseProfile="full" height="500" version="1.1" width="1000" xmlns="http://www.w3.org/2000/svg" xmlns:ev="http://www.w3.org/2001/xml-events" xmlns:xlink="http://www.w3.org/1999/xlink"><defs /><text fill="black" x="0" y="100">VIETNAMESE </text><text fill="black" x="20" y="150">POS: </text><text fill="black" x="20" y="200">Source: </text><text fill="black" x="150" y="150">Nq</text><text fill="black" x="150" y="200">50</text><text fill="black" x="230" y="150">Nu</text><text fill="black" x="230" y="200">xu</text><text fill="black" x="310" y="150">Cp</text><text fill="black" x="310" y="200">thì</text><text fill="black" x="390" y="150">R</text><text fill="black" x="390" y="200">không</text><text fill="black" x="470" y="150">Vv</text><text fill="black" x="470" y="200">đáng</text><text fill="black" x="550" y="150">Cm</text><text fill="black" x="550" y="200">để</text><text fill="black" x="630" y="150">Vv</text><text fill="black" x="630" y="200">đôi_co</text><text fill="black" x="710" y="150">Cp</text><text fill="black" x="710" y="200">với</text><text fill="black" x="790" y="150">Nn</text><text fill="black" x="790" y="200">nhau</text><text fill="black" x="870" y="150">PU</text><text fill="black" x="870" y="200">.</text><text fill="black" x="0" y="450">ENGLISH </text><text fill="black" x="20" y="350">Target: </text><text fill="black" x="20" y="400">POS: </text><text fill="black" x="150" y="350">50p</text><text fill="black" x="150" y="400">NN</text><text fill="black" x="230" y="350">isn't</text><text fill="black" x="230" y="400">-</text><text fill="black" x="310" y="350">worth</text><text fill="black" x="310" y="400">-</text><text fill="black" x="390" y="350">quibbling</text><text fill="black" x="390" y="400">-</text><text fill="black" x="470" y="350">about</text><text fill="black" x="470" y="400">-</text><text fill="black" x="550" y="350">.</text><text fill="black" x="550" y="400">-</text><line stroke="red" x1="160" x2="159" y1="210" y2="330" /><line stroke="red" x1="240" x2="159" y1="210" y2="330" /><line stroke="red" x1="320" x2="248" y1="210" y2="330" /><line stroke="red" x1="410" x2="248" y1="210" y2="330" /><line stroke="red" x1="490" x2="328" y1="210" y2="330" /><line stroke="red" x1="560" x2="426" y1="210" y2="330" /><line stroke="red" x1="660" x2="426" y1="210" y2="330" /><line stroke="red" x1="720" x2="426" y1="210" y2="330" /><line stroke="red" x1="810" x2="426" y1="210" y2="330" /><line stroke="red" x1="870" x2="550" y1="210" y2="330" /></svg>