<?xml version="1.0" encoding="utf-8" ?>
<svg baseProfile="full" height="500" version="1.1" width="1300" xmlns="http://www.w3.org/2000/svg" xmlns:ev="http://www.w3.org/2001/xml-events" xmlns:xlink="http://www.w3.org/1999/xlink"><defs /><text fill="black" x="0" y="100">VIETNAMESE </text><text fill="black" x="20" y="150">POS: </text><text fill="black" x="20" y="200">Source: </text><text fill="black" x="150" y="150">An</text><text fill="black" x="150" y="200">9</text><text fill="black" x="230" y="150">Vc</text><text fill="black" x="230" y="200">là</text><text fill="black" x="310" y="150">Nq</text><text fill="black" x="310" y="200">một</text><text fill="black" x="390" y="150">Nn</text><text fill="black" x="390" y="200">phần_tử</text><text fill="black" x="470" y="150">Cm</text><text fill="black" x="470" y="200">của</text><text fill="black" x="550" y="150">Vv</text><text fill="black" x="550" y="200">tập_hợp</text><text fill="black" x="630" y="150">Nq</text><text fill="black" x="630" y="200">các</text><text fill="black" x="710" y="150">Nn</text><text fill="black" x="710" y="200">số</text><text fill="black" x="790" y="150">Aa</text><text fill="black" x="790" y="200">lớn</text><text fill="black" x="870" y="150">Aa</text><text fill="black" x="870" y="200">hơn</text><text fill="black" x="950" y="150">PU</text><text fill="black" x="950" y="200">.</text><text fill="black" x="0" y="450">ENGLISH </text><text fill="black" x="20" y="350">Target: </text><text fill="black" x="20" y="400">POS: </text><text fill="black" x="150" y="350">9</text><text fill="black" x="150" y="400">CD</text><text fill="black" x="230" y="350">is</text><text fill="black" x="230" y="400">VBZ</text><text fill="black" x="310" y="350">a</text><text fill="black" x="310" y="400">DT</text><text fill="black" x="390" y="350">member</text><text fill="black" x="390" y="400">NN</text><text fill="black" x="470" y="350">of</text><text fill="black" x="470" y="400">IN</text><text fill="black" x="550" y="350">the</text><text fill="black" x="550" y="400">DT</text><text fill="black" x="630" y="350">set</text><text fill="black" x="630" y="400">NN</text><text fill="black" x="710" y="350">of</text><text fill="black" x="710" y="400">IN</text><text fill="black" x="790" y="350">all</text><text fill="black" x="790" y="400">DT</text><text fill="black" x="870" y="350">numbers</text><text fill="black" x="870" y="400">NNS</text><text fill="black" x="950" y="350">greater</text><text fill="black" x="950" y="400">JJR</text><text fill="black" x="1030" y="350">than</text><text fill="black" x="1030" y="400">IN</text><text fill="black" x="1110" y="350">.</text><text fill="black" x="1110" y="400">.</text><line stroke="red" x1="150" x2="150" y1="210" y2="330" /><line stroke="red" x1="240" x2="233" y1="210" y2="330" /><line stroke="red" x1="320" x2="310" y1="210" y2="330" /><line stroke="red" x1="420" x2="417" y1="210" y2="330" /><line stroke="red" x1="580" x2="897" y1="210" y2="330" /><line stroke="red" x1="720" x2="897" y1="210" y2="330" /><line stroke="red" x1="800" x2="977" y1="210" y2="330" /><line stroke="red" x1="880" x2="1048" y1="210" y2="330" /><line stroke="red" x1="950" x2="1110" y1="210" y2="330" /></svg>