<?xml version="1.0" encoding="utf-8" ?>
<svg baseProfile="full" height="500" version="1.1" width="1600" xmlns="http://www.w3.org/2000/svg" xmlns:ev="http://www.w3.org/2001/xml-events" xmlns:xlink="http://www.w3.org/1999/xlink"><defs /><text fill="black" x="0" y="100">VIETNAMESE </text><text fill="black" x="20" y="150">POS: </text><text fill="black" x="20" y="200">Source: </text><text fill="black" x="150" y="150">Nq</text><text fill="black" x="150" y="200">Một_số</text><text fill="black" x="230" y="150">Nn</text><text fill="black" x="230" y="200">tiền</text><text fill="black" x="310" y="150">Vv</text><text fill="black" x="310" y="200">thưởng</text><text fill="black" x="390" y="150">Nq</text><text fill="black" x="390" y="200">1.000</text><text fill="black" x="470" y="150">Nu</text><text fill="black" x="470" y="200">bảng</text><text fill="black" x="550" y="150">Nr</text><text fill="black" x="550" y="200">Anh</text><text fill="black" x="630" y="150">Vv</text><text fill="black" x="630" y="200">dành</text><text fill="black" x="710" y="150">Cp</text><text fill="black" x="710" y="200">cho</text><text fill="black" x="790" y="150">Nn</text><text fill="black" x="790" y="200">việc</text><text fill="black" x="870" y="150">Vv</text><text fill="black" x="870" y="200">trả</text><text fill="black" x="950" y="150">R</text><text fill="black" x="950" y="200">lại</text><text fill="black" x="1030" y="150">Nc</text><text fill="black" x="1030" y="200">bức</text><text fill="black" x="1110" y="150">Nn</text><text fill="black" x="1110" y="200">tranh</text><text fill="black" x="1190" y="150">Vv</text><text fill="black" x="1190" y="200">bị</text><text fill="black" x="1270" y="150">Vv</text><text fill="black" x="1270" y="200">mất_cắp</text><text fill="black" x="1350" y="150">PU</text><text fill="black" x="1350" y="200">.</text><text fill="black" x="0" y="450">ENGLISH </text><text fill="black" x="20" y="350">Target: </text><text fill="black" x="20" y="400">POS: </text><text fill="black" x="150" y="350">A</text><text fill="black" x="150" y="400">DT</text><text fill="black" x="230" y="350">£</text><text fill="black" x="230" y="400">NN</text><text fill="black" x="310" y="350">1,000</text><text fill="black" x="310" y="400">CD</text><text fill="black" x="390" y="350">reward</text><text fill="black" x="390" y="400">NN</text><text fill="black" x="470" y="350">has</text><text fill="black" x="470" y="400">VBZ</text><text fill="black" x="550" y="350">been</text><text fill="black" x="550" y="400">VBN</text><text fill="black" x="630" y="350">offered</text><text fill="black" x="630" y="400">VBN</text><text fill="black" x="710" y="350">for</text><text fill="black" x="710" y="400">IN</text><text fill="black" x="790" y="350">the</text><text fill="black" x="790" y="400">DT</text><text fill="black" x="870" y="350">return</text><text fill="black" x="870" y="400">NN</text><text fill="black" x="950" y="350">of</text><text fill="black" x="950" y="400">IN</text><text fill="black" x="1030" y="350">the</text><text fill="black" x="1030" y="400">DT</text><text fill="black" x="1110" y="350">stolen</text><text fill="black" x="1110" y="400">JJ</text><text fill="black" x="1190" y="350">painting</text><text fill="black" x="1190" y="400">NN</text><text fill="black" x="1270" y="350">.</text><text fill="black" x="1270" y="400">.</text><line stroke="red" x1="180" x2="328" y1="210" y2="330" /><line stroke="red" x1="250" x2="417" y1="210" y2="330" /><line stroke="red" x1="340" x2="417" y1="210" y2="330" /><line stroke="red" x1="410" x2="328" y1="210" y2="330" /><line stroke="red" x1="490" x2="230" y1="210" y2="330" /><line stroke="red" x1="560" x2="230" y1="210" y2="330" /><line stroke="red" x1="650" x2="657" y1="210" y2="330" /><line stroke="red" x1="720" x2="719" y1="210" y2="330" /><line stroke="red" x1="810" x2="897" y1="210" y2="330" /><line stroke="red" x1="880" x2="897" y1="210" y2="330" /><line stroke="red" x1="960" x2="897" y1="210" y2="330" /><line stroke="red" x1="1040" x2="1226" y1="210" y2="330" /><line stroke="red" x1="1130" x2="1226" y1="210" y2="330" /><line stroke="red" x1="1200" x2="1137" y1="210" y2="330" /><line stroke="red" x1="1300" x2="1137" y1="210" y2="330" /><line stroke="red" x1="1350" x2="1270" y1="210" y2="330" /></svg>