<?xml version="1.0" encoding="utf-8" ?>
<svg baseProfile="full" height="500" version="1.1" width="1000" xmlns="http://www.w3.org/2000/svg" xmlns:ev="http://www.w3.org/2001/xml-events" xmlns:xlink="http://www.w3.org/1999/xlink"><defs /><text fill="black" x="0" y="100">VIETNAMESE </text><text fill="black" x="20" y="150">POS: </text><text fill="black" x="20" y="200">Source: </text><text fill="black" x="150" y="150">Nq</text><text fill="black" x="150" y="200">Năm</text><text fill="black" x="230" y="150">Nt</text><text fill="black" x="230" y="200">năm</text><text fill="black" x="310" y="150">Cm</text><text fill="black" x="310" y="200">trong</text><text fill="black" x="390" y="150">Nn</text><text fill="black" x="390" y="200">tù</text><text fill="black" x="470" y="150">R</text><text fill="black" x="470" y="200">chẳng</text><text fill="black" x="550" y="150">Vv</text><text fill="black" x="550" y="200">cải_tạo</text><text fill="black" x="630" y="150">R</text><text fill="black" x="630" y="200">được</text><text fill="black" x="710" y="150">M</text><text fill="black" x="710" y="200">gì</text><text fill="black" x="790" y="150">Pp</text><text fill="black" x="790" y="200">nó</text><text fill="black" x="870" y="150">PU</text><text fill="black" x="870" y="200">.</text><text fill="black" x="0" y="450">ENGLISH </text><text fill="black" x="20" y="350">Target: </text><text fill="black" x="20" y="400">POS: </text><text fill="black" x="150" y="350">5</text><text fill="black" x="150" y="400">CD</text><text fill="black" x="230" y="350">years</text><text fill="black" x="230" y="400">NNS</text><text fill="black" x="310" y="350">in</text><text fill="black" x="310" y="400">IN</text><text fill="black" x="390" y="350">prison</text><text fill="black" x="390" y="400">NN</text><text fill="black" x="470" y="350">had</text><text fill="black" x="470" y="400">VBD</text><text fill="black" x="550" y="350">not</text><text fill="black" x="550" y="400">RB</text><text fill="black" x="630" y="350">chastened</text><text fill="black" x="630" y="400">VBN</text><text fill="black" x="710" y="350">him</text><text fill="black" x="710" y="400">PRP</text><text fill="black" x="790" y="350">.</text><text fill="black" x="790" y="400">.</text><line stroke="red" x1="160" x2="150" y1="210" y2="330" /><line stroke="red" x1="240" x2="248" y1="210" y2="330" /><line stroke="red" x1="330" x2="313" y1="210" y2="330" /><line stroke="red" x1="400" x2="417" y1="210" y2="330" /><line stroke="red" x1="490" x2="559" y1="210" y2="330" /><line stroke="red" x1="580" x2="666" y1="210" y2="330" /><line stroke="red" x1="720" x2="666" y1="210" y2="330" /><line stroke="red" x1="800" x2="719" y1="210" y2="330" /><line stroke="red" x1="870" x2="790" y1="210" y2="330" /></svg>