<?xml version="1.0" encoding="utf-8" ?>
<svg baseProfile="full" height="500" version="1.1" width="1600" xmlns="http://www.w3.org/2000/svg" xmlns:ev="http://www.w3.org/2001/xml-events" xmlns:xlink="http://www.w3.org/1999/xlink"><defs /><text fill="black" x="0" y="100">VIETNAMESE </text><text fill="black" x="20" y="150">POS: </text><text fill="black" x="20" y="200">Source: </text><text fill="black" x="150" y="150">Nq</text><text fill="black" x="150" y="200">8</text><text fill="black" x="230" y="150">Aa</text><text fill="black" x="230" y="200">có_thể</text><text fill="black" x="310" y="150">Vv</text><text fill="black" x="310" y="200">chia</text><text fill="black" x="390" y="150">Aa</text><text fill="black" x="390" y="200">chẵn</text><text fill="black" x="470" y="150">Cp</text><text fill="black" x="470" y="200">cho</text><text fill="black" x="550" y="150">Nq</text><text fill="black" x="550" y="200">2</text><text fill="black" x="630" y="150">Cp</text><text fill="black" x="630" y="200">và</text><text fill="black" x="710" y="150">Nq</text><text fill="black" x="710" y="200">4</text><text fill="black" x="790" y="150">PU</text><text fill="black" x="790" y="200">,</text><text fill="black" x="870" y="150">Cp</text><text fill="black" x="870" y="200">nhưng</text><text fill="black" x="950" y="150">R</text><text fill="black" x="950" y="200">không</text><text fill="black" x="1030" y="150">Vv</text><text fill="black" x="1030" y="200">chia</text><text fill="black" x="1110" y="150">Aa</text><text fill="black" x="1110" y="200">chẵn</text><text fill="black" x="1190" y="150">Cp</text><text fill="black" x="1190" y="200">cho</text><text fill="black" x="1270" y="150">Nq</text><text fill="black" x="1270" y="200">3</text><text fill="black" x="1350" y="150">PU</text><text fill="black" x="1350" y="200">.</text><text fill="black" x="0" y="450">ENGLISH </text><text fill="black" x="20" y="350">Target: </text><text fill="black" x="20" y="400">POS: </text><text fill="black" x="150" y="350">8</text><text fill="black" x="150" y="400">CD</text><text fill="black" x="230" y="350">is</text><text fill="black" x="230" y="400">VBZ</text><text fill="black" x="310" y="350">divisible</text><text fill="black" x="310" y="400">JJ</text><text fill="black" x="390" y="350">by</text><text fill="black" x="390" y="400">IN</text><text fill="black" x="470" y="350">2</text><text fill="black" x="470" y="400">CD</text><text fill="black" x="550" y="350">and</text><text fill="black" x="550" y="400">CC</text><text fill="black" x="630" y="350">4</text><text fill="black" x="630" y="400">CD</text><text fill="black" x="710" y="350">,</text><text fill="black" x="710" y="400">,</text><text fill="black" x="790" y="350">but</text><text fill="black" x="790" y="400">CC</text><text fill="black" x="870" y="350">not</text><text fill="black" x="870" y="400">RB</text><text fill="black" x="950" y="350">by</text><text fill="black" x="950" y="400">IN</text><text fill="black" x="1030" y="350">3</text><text fill="black" x="1030" y="400">CD</text><text fill="black" x="1110" y="350">.</text><text fill="black" x="1110" y="400">.</text><line stroke="red" x1="150" x2="150" y1="210" y2="330" /><line stroke="red" x1="260" x2="346" y1="210" y2="330" /><line stroke="red" x1="330" x2="346" y1="210" y2="330" /><line stroke="red" x1="410" x2="346" y1="210" y2="330" /><line stroke="red" x1="550" x2="470" y1="210" y2="330" /><line stroke="red" x1="640" x2="559" y1="210" y2="330" /><line stroke="red" x1="710" x2="630" y1="210" y2="330" /><line stroke="red" x1="790" x2="710" y1="210" y2="330" /><line stroke="red" x1="890" x2="799" y1="210" y2="330" /><line stroke="red" x1="970" x2="879" y1="210" y2="330" /><line stroke="red" x1="1050" x2="346" y1="210" y2="330" /><line stroke="red" x1="1130" x2="346" y1="210" y2="330" /><line stroke="red" x1="1270" x2="1030" y1="210" y2="330" /><line stroke="red" x1="1350" x2="1110" y1="210" y2="330" /></svg>