<?xml version="1.0" encoding="utf-8" ?>
<svg baseProfile="full" height="500" version="1.1" width="1500" xmlns="http://www.w3.org/2000/svg" xmlns:ev="http://www.w3.org/2001/xml-events" xmlns:xlink="http://www.w3.org/1999/xlink"><defs /><text fill="black" x="0" y="100">VIETNAMESE </text><text fill="black" x="20" y="150">POS: </text><text fill="black" x="20" y="200">Source: </text><text fill="black" x="150" y="150">Nt</text><text fill="black" x="150" y="200">Năm</text><text fill="black" x="230" y="150">Nn</text><text fill="black" x="230" y="200">thứ</text><text fill="black" x="310" y="150">An</text><text fill="black" x="310" y="200">nhất</text><text fill="black" x="390" y="150">Nn</text><text fill="black" x="390" y="200">sau</text><text fill="black" x="470" y="150">Nt</text><text fill="black" x="470" y="200">công_nguyên</text><text fill="black" x="550" y="150">Aa</text><text fill="black" x="550" y="200">thật_sự</text><text fill="black" x="630" y="150">R</text><text fill="black" x="630" y="200">không</text><text fill="black" x="710" y="150">Aa</text><text fill="black" x="710" y="200">phải</text><text fill="black" x="790" y="150">Vc</text><text fill="black" x="790" y="200">là</text><text fill="black" x="870" y="150">Nt</text><text fill="black" x="870" y="200">năm</text><text fill="black" x="950" y="150">Nn</text><text fill="black" x="950" y="200">Chúa</text><text fill="black" x="1030" y="150">Vv</text><text fill="black" x="1030" y="200">được</text><text fill="black" x="1110" y="150">Vv</text><text fill="black" x="1110" y="200">sinh</text><text fill="black" x="1190" y="150">R</text><text fill="black" x="1190" y="200">ra</text><text fill="black" x="1270" y="150">PU</text><text fill="black" x="1270" y="200">.</text><text fill="black" x="0" y="450">ENGLISH </text><text fill="black" x="20" y="350">Target: </text><text fill="black" x="20" y="400">POS: </text><text fill="black" x="150" y="350">A</text><text fill="black" x="150" y="400">DT</text><text fill="black" x="230" y="350">.</text><text fill="black" x="230" y="400">.</text><text fill="black" x="310" y="350">D</text><text fill="black" x="310" y="400">NN</text><text fill="black" x="390" y="350">.</text><text fill="black" x="390" y="400">.</text><text fill="black" x="470" y="350">i</text><text fill="black" x="470" y="400">LS</text><text fill="black" x="550" y="350">was</text><text fill="black" x="550" y="400">VBD</text><text fill="black" x="630" y="350">not</text><text fill="black" x="630" y="400">RB</text><text fill="black" x="710" y="350">actually</text><text fill="black" x="710" y="400">RB</text><text fill="black" x="790" y="350">the</text><text fill="black" x="790" y="400">DT</text><text fill="black" x="870" y="350">year</text><text fill="black" x="870" y="400">NN</text><text fill="black" x="950" y="350">when</text><text fill="black" x="950" y="400">WRB</text><text fill="black" x="1030" y="350">Christ</text><text fill="black" x="1030" y="400">NNP</text><text fill="black" x="1110" y="350">was</text><text fill="black" x="1110" y="400">VBD</text><text fill="black" x="1190" y="350">born</text><text fill="black" x="1190" y="400">VBN</text><text fill="black" x="1270" y="350">.</text><text fill="black" x="1270" y="400">.</text><line stroke="red" x1="160" x2="310" y1="210" y2="330" /><line stroke="red" x1="240" x2="310" y1="210" y2="330" /><line stroke="red" x1="330" x2="310" y1="210" y2="330" /><line stroke="red" x1="400" x2="310" y1="210" y2="330" /><line stroke="red" x1="520" x2="310" y1="210" y2="330" /><line stroke="red" x1="580" x2="310" y1="210" y2="330" /><line stroke="red" x1="650" x2="639" y1="210" y2="330" /><line stroke="red" x1="730" x2="746" y1="210" y2="330" /><line stroke="red" x1="880" x2="888" y1="210" y2="330" /><line stroke="red" x1="970" x2="1057" y1="210" y2="330" /><line stroke="red" x1="1130" x2="1208" y1="210" y2="330" /><line stroke="red" x1="1200" x2="1208" y1="210" y2="330" /><line stroke="red" x1="1270" x2="1270" y1="210" y2="330" /></svg>