<?xml version="1.0" encoding="utf-8" ?>
<svg baseProfile="full" height="500" version="1.1" width="1600" xmlns="http://www.w3.org/2000/svg" xmlns:ev="http://www.w3.org/2001/xml-events" xmlns:xlink="http://www.w3.org/1999/xlink"><defs /><text fill="black" x="0" y="100">VIETNAMESE </text><text fill="black" x="20" y="150">POS: </text><text fill="black" x="20" y="200">Source: </text><text fill="black" x="150" y="150">Nn</text><text fill="black" x="150" y="200">Mức</text><text fill="black" x="230" y="150">Vv</text><text fill="black" x="230" y="200">chiết_khấu</text><text fill="black" x="310" y="150">Nq</text><text fill="black" x="310" y="200">7</text><text fill="black" x="390" y="150">Nu</text><text fill="black" x="390" y="200">%</text><text fill="black" x="470" y="150">Vc</text><text fill="black" x="470" y="200">là</text><text fill="black" x="550" y="150">Nn</text><text fill="black" x="550" y="200">mức</text><text fill="black" x="630" y="150">Aa</text><text fill="black" x="630" y="200">cao</text><text fill="black" x="710" y="150">R</text><text fill="black" x="710" y="200">nhất</text><text fill="black" x="790" y="150">Cp</text><text fill="black" x="790" y="200">mà</text><text fill="black" x="870" y="150">Pp</text><text fill="black" x="870" y="200">chúng_tôi</text><text fill="black" x="950" y="150">Aa</text><text fill="black" x="950" y="200">có_thể</text><text fill="black" x="1030" y="150">Vv</text><text fill="black" x="1030" y="200">dành</text><text fill="black" x="1110" y="150">Cp</text><text fill="black" x="1110" y="200">cho</text><text fill="black" x="1190" y="150">Nq</text><text fill="black" x="1190" y="200">các</text><text fill="black" x="1270" y="150">Nn</text><text fill="black" x="1270" y="200">ông</text><text fill="black" x="1350" y="150">PU</text><text fill="black" x="1350" y="200">.</text><text fill="black" x="0" y="450">ENGLISH </text><text fill="black" x="20" y="350">Target: </text><text fill="black" x="20" y="400">POS: </text><text fill="black" x="150" y="350">A</text><text fill="black" x="150" y="400">DT</text><text fill="black" x="230" y="350">7</text><text fill="black" x="230" y="400">CD</text><text fill="black" x="310" y="350">%</text><text fill="black" x="310" y="400">NN</text><text fill="black" x="390" y="350">discount</text><text fill="black" x="390" y="400">NN</text><text fill="black" x="470" y="350">is</text><text fill="black" x="470" y="400">VBZ</text><text fill="black" x="550" y="350">the</text><text fill="black" x="550" y="400">DT</text><text fill="black" x="630" y="350">best</text><text fill="black" x="630" y="400">JJS</text><text fill="black" x="710" y="350">we</text><text fill="black" x="710" y="400">PRP</text><text fill="black" x="790" y="350">can</text><text fill="black" x="790" y="400">MD</text><text fill="black" x="870" y="350">offer</text><text fill="black" x="870" y="400">VB</text><text fill="black" x="950" y="350">you</text><text fill="black" x="950" y="400">PRP</text><text fill="black" x="1030" y="350">.</text><text fill="black" x="1030" y="400">.</text><line stroke="red" x1="160" x2="426" y1="210" y2="330" /><line stroke="red" x1="280" x2="426" y1="210" y2="330" /><line stroke="red" x1="310" x2="230" y1="210" y2="330" /><line stroke="red" x1="390" x2="310" y1="210" y2="330" /><line stroke="red" x1="480" x2="473" y1="210" y2="330" /><line stroke="red" x1="560" x2="426" y1="210" y2="330" /><line stroke="red" x1="640" x2="426" y1="210" y2="330" /><line stroke="red" x1="730" x2="648" y1="210" y2="330" /><line stroke="red" x1="800" x2="648" y1="210" y2="330" /><line stroke="red" x1="910" x2="713" y1="210" y2="330" /><line stroke="red" x1="980" x2="799" y1="210" y2="330" /><line stroke="red" x1="1050" x2="888" y1="210" y2="330" /><line stroke="red" x1="1280" x2="959" y1="210" y2="330" /><line stroke="red" x1="1350" x2="1030" y1="210" y2="330" /></svg>