<?xml version="1.0" encoding="utf-8" ?>
<svg baseProfile="full" height="500" version="1.1" width="1700" xmlns="http://www.w3.org/2000/svg" xmlns:ev="http://www.w3.org/2001/xml-events" xmlns:xlink="http://www.w3.org/1999/xlink"><defs /><text fill="black" x="0" y="100">VIETNAMESE </text><text fill="black" x="20" y="150">POS: </text><text fill="black" x="20" y="200">Source: </text><text fill="black" x="150" y="150">Nq</text><text fill="black" x="150" y="200">Một</text><text fill="black" x="230" y="150">Nn</text><text fill="black" x="230" y="200">nhóm</text><text fill="black" x="310" y="150">Nn</text><text fill="black" x="310" y="200">người</text><text fill="black" x="390" y="150">Cm</text><text fill="black" x="390" y="200">tận</text><text fill="black" x="470" y="150">FW</text><text fill="black" x="470" y="200">tụy</text><text fill="black" x="550" y="150">Vv</text><text fill="black" x="550" y="200">đoàn_kết</text><text fill="black" x="630" y="150">Cp</text><text fill="black" x="630" y="200">với</text><text fill="black" x="710" y="150">Nn</text><text fill="black" x="710" y="200">nhau</text><text fill="black" x="790" y="150">Vv</text><text fill="black" x="790" y="200">chống</text><text fill="black" x="870" y="150">R</text><text fill="black" x="870" y="200">lại</text><text fill="black" x="950" y="150">Nq</text><text fill="black" x="950" y="200">những</text><text fill="black" x="1030" y="150">Nn</text><text fill="black" x="1030" y="200">người</text><text fill="black" x="1110" y="150">R</text><text fill="black" x="1110" y="200">không</text><text fill="black" x="1190" y="150">Vv</text><text fill="black" x="1190" y="200">đồng_ý</text><text fill="black" x="1270" y="150">Cp</text><text fill="black" x="1270" y="200">với</text><text fill="black" x="1350" y="150">Pp</text><text fill="black" x="1350" y="200">họ</text><text fill="black" x="1430" y="150">PU</text><text fill="black" x="1430" y="200">.</text><text fill="black" x="0" y="450">ENGLISH </text><text fill="black" x="20" y="350">Target: </text><text fill="black" x="20" y="400">POS: </text><text fill="black" x="150" y="350">A</text><text fill="black" x="150" y="400">DT</text><text fill="black" x="230" y="350">band</text><text fill="black" x="230" y="400">NN</text><text fill="black" x="310" y="350">of</text><text fill="black" x="310" y="400">IN</text><text fill="black" x="390" y="350">true</text><text fill="black" x="390" y="400">JJ</text><text fill="black" x="470" y="350">believers</text><text fill="black" x="470" y="400">NNS</text><text fill="black" x="550" y="350">bonded</text><text fill="black" x="550" y="400">VBN</text><text fill="black" x="630" y="350">together</text><text fill="black" x="630" y="400">RB</text><text fill="black" x="710" y="350">against</text><text fill="black" x="710" y="400">IN</text><text fill="black" x="790" y="350">those</text><text fill="black" x="790" y="400">DT</text><text fill="black" x="870" y="350">who</text><text fill="black" x="870" y="400">WP</text><text fill="black" x="950" y="350">did</text><text fill="black" x="950" y="400">VBD</text><text fill="black" x="1030" y="350">not</text><text fill="black" x="1030" y="400">RB</text><text fill="black" x="1110" y="350">agree</text><text fill="black" x="1110" y="400">VB</text><text fill="black" x="1190" y="350">with</text><text fill="black" x="1190" y="400">IN</text><text fill="black" x="1270" y="350">them</text><text fill="black" x="1270" y="400">PRP</text><text fill="black" x="1350" y="350">.</text><text fill="black" x="1350" y="400">.</text><line stroke="red" x1="160" x2="150" y1="210" y2="330" /><line stroke="red" x1="250" x2="577" y1="210" y2="330" /><line stroke="red" x1="400" x2="577" y1="210" y2="330" /><line stroke="red" x1="480" x2="577" y1="210" y2="330" /><line stroke="red" x1="590" x2="577" y1="210" y2="330" /><line stroke="red" x1="640" x2="666" y1="210" y2="330" /><line stroke="red" x1="730" x2="666" y1="210" y2="330" /><line stroke="red" x1="810" x2="737" y1="210" y2="330" /><line stroke="red" x1="880" x2="737" y1="210" y2="330" /><line stroke="red" x1="970" x2="808" y1="210" y2="330" /><line stroke="red" x1="1050" x2="879" y1="210" y2="330" /><line stroke="red" x1="1130" x2="1039" y1="210" y2="330" /><line stroke="red" x1="1220" x2="1128" y1="210" y2="330" /><line stroke="red" x1="1280" x2="1208" y1="210" y2="330" /><line stroke="red" x1="1360" x2="1288" y1="210" y2="330" /><line stroke="red" x1="1430" x2="1350" y1="210" y2="330" /></svg>