<?xml version="1.0" encoding="utf-8" ?>
<svg baseProfile="full" height="500" version="1.1" width="1400" xmlns="http://www.w3.org/2000/svg" xmlns:ev="http://www.w3.org/2001/xml-events" xmlns:xlink="http://www.w3.org/1999/xlink"><defs /><text fill="black" x="0" y="100">VIETNAMESE </text><text fill="black" x="20" y="150">POS: </text><text fill="black" x="20" y="200">Source: </text><text fill="black" x="150" y="150">Nq</text><text fill="black" x="150" y="200">Một</text><text fill="black" x="230" y="150">Nn</text><text fill="black" x="230" y="200">nhân_viên</text><text fill="black" x="310" y="150">Nn</text><text fill="black" x="310" y="200">quán</text><text fill="black" x="390" y="150">Nn</text><text fill="black" x="390" y="200">rượu</text><text fill="black" x="470" y="150">Vv</text><text fill="black" x="470" y="200">hỏi</text><text fill="black" x="550" y="150">Nq</text><text fill="black" x="550" y="200">một</text><text fill="black" x="630" y="150">Nn</text><text fill="black" x="630" y="200">người</text><text fill="black" x="710" y="150">Aa</text><text fill="black" x="710" y="200">khác</text><text fill="black" x="790" y="150">R</text><text fill="black" x="790" y="200">mới</text><text fill="black" x="870" y="150">Vd</text><text fill="black" x="870" y="200">vào</text><text fill="black" x="950" y="150">Vv</text><text fill="black" x="950" y="200">muốn</text><text fill="black" x="1030" y="150">Vv</text><text fill="black" x="1030" y="200">uống</text><text fill="black" x="1110" y="150">M</text><text fill="black" x="1110" y="200">gì</text><text fill="black" x="1190" y="150">PU</text><text fill="black" x="1190" y="200">.</text><text fill="black" x="0" y="450">ENGLISH </text><text fill="black" x="20" y="350">Target: </text><text fill="black" x="20" y="400">POS: </text><text fill="black" x="150" y="350">A</text><text fill="black" x="150" y="400">DT</text><text fill="black" x="230" y="350">barman</text><text fill="black" x="230" y="400">NN</text><text fill="black" x="310" y="350">asks</text><text fill="black" x="310" y="400">VBZ</text><text fill="black" x="390" y="350">a</text><text fill="black" x="390" y="400">DT</text><text fill="black" x="470" y="350">new</text><text fill="black" x="470" y="400">JJ</text><text fill="black" x="550" y="350">guest</text><text fill="black" x="550" y="400">NN</text><text fill="black" x="630" y="350">what</text><text fill="black" x="630" y="400">WP</text><text fill="black" x="710" y="350">he</text><text fill="black" x="710" y="400">PRP</text><text fill="black" x="790" y="350">would</text><text fill="black" x="790" y="400">MD</text><text fill="black" x="870" y="350">like</text><text fill="black" x="870" y="400">VB</text><text fill="black" x="950" y="350">to</text><text fill="black" x="950" y="400">TO</text><text fill="black" x="1030" y="350">drink</text><text fill="black" x="1030" y="400">VB</text><text fill="black" x="1110" y="350">.</text><text fill="black" x="1110" y="400">.</text><line stroke="red" x1="160" x2="150" y1="210" y2="330" /><line stroke="red" x1="270" x2="257" y1="210" y2="330" /><line stroke="red" x1="330" x2="257" y1="210" y2="330" /><line stroke="red" x1="410" x2="257" y1="210" y2="330" /><line stroke="red" x1="480" x2="257" y1="210" y2="330" /><line stroke="red" x1="560" x2="390" y1="210" y2="330" /><line stroke="red" x1="650" x2="568" y1="210" y2="330" /><line stroke="red" x1="730" x2="568" y1="210" y2="330" /><line stroke="red" x1="800" x2="479" y1="210" y2="330" /><line stroke="red" x1="970" x2="888" y1="210" y2="330" /><line stroke="red" x1="1050" x2="1048" y1="210" y2="330" /><line stroke="red" x1="1120" x2="648" y1="210" y2="330" /><line stroke="red" x1="1190" x2="1110" y1="210" y2="330" /></svg>