<?xml version="1.0" encoding="utf-8" ?>
<svg baseProfile="full" height="500" version="1.1" width="1000" xmlns="http://www.w3.org/2000/svg" xmlns:ev="http://www.w3.org/2001/xml-events" xmlns:xlink="http://www.w3.org/1999/xlink"><defs /><text fill="black" x="0" y="100">VIETNAMESE </text><text fill="black" x="20" y="150">POS: </text><text fill="black" x="20" y="200">Source: </text><text fill="black" x="150" y="150">Nq</text><text fill="black" x="150" y="200">Một</text><text fill="black" x="230" y="150">Nn</text><text fill="black" x="230" y="200">quán</text><text fill="black" x="310" y="150">Nn</text><text fill="black" x="310" y="200">rượu</text><text fill="black" x="390" y="150">Vv</text><text fill="black" x="390" y="200">cấm</text><text fill="black" x="470" y="150">Nn</text><text fill="black" x="470" y="200">quân_nhân</text><text fill="black" x="550" y="150">Vd</text><text fill="black" x="550" y="200">vào</text><text fill="black" x="630" y="150">PU</text><text fill="black" x="630" y="200">.</text><text fill="black" x="0" y="450">ENGLISH </text><text fill="black" x="20" y="350">Target: </text><text fill="black" x="20" y="400">POS: </text><text fill="black" x="150" y="350">A</text><text fill="black" x="150" y="400">DT</text><text fill="black" x="230" y="350">bar</text><text fill="black" x="230" y="400">NN</text><text fill="black" x="310" y="350">that</text><text fill="black" x="310" y="400">WDT</text><text fill="black" x="390" y="350">is</text><text fill="black" x="390" y="400">VBZ</text><text fill="black" x="470" y="350">off</text><text fill="black" x="470" y="400">RB</text><text fill="black" x="550" y="350">-</text><text fill="black" x="550" y="400">:</text><text fill="black" x="630" y="350">limits</text><text fill="black" x="630" y="400">NNS</text><text fill="black" x="710" y="350">to</text><text fill="black" x="710" y="400">TO</text><text fill="black" x="790" y="350">troops</text><text fill="black" x="790" y="400">NNS</text><text fill="black" x="870" y="350">.</text><text fill="black" x="870" y="400">.</text><line stroke="red" x1="160" x2="150" y1="210" y2="330" /><line stroke="red" x1="250" x2="239" y1="210" y2="330" /><line stroke="red" x1="330" x2="239" y1="210" y2="330" /><line stroke="red" x1="400" x2="657" y1="210" y2="330" /><line stroke="red" x1="510" x2="657" y1="210" y2="330" /><line stroke="red" x1="560" x2="657" y1="210" y2="330" /><line stroke="red" x1="630" x2="870" y1="210" y2="330" /></svg>