<?xml version="1.0" encoding="utf-8" ?>
<svg baseProfile="full" height="500" version="1.1" width="1600" xmlns="http://www.w3.org/2000/svg" xmlns:ev="http://www.w3.org/2001/xml-events" xmlns:xlink="http://www.w3.org/1999/xlink"><defs /><text fill="black" x="0" y="100">VIETNAMESE </text><text fill="black" x="20" y="150">POS: </text><text fill="black" x="20" y="200">Source: </text><text fill="black" x="150" y="150">Nc</text><text fill="black" x="150" y="200">Bức</text><text fill="black" x="230" y="150">FW</text><text fill="black" x="230" y="200">họa</text><text fill="black" x="310" y="150">Cm</text><text fill="black" x="310" y="200">của</text><text fill="black" x="390" y="150">Nn</text><text fill="black" x="390" y="200">người</text><text fill="black" x="470" y="150">R</text><text fill="black" x="470" y="200">mới</text><text fill="black" x="550" y="150">Vv</text><text fill="black" x="550" y="200">vào</text><text fill="black" x="630" y="150">Nn</text><text fill="black" x="630" y="200">nghề</text><text fill="black" x="710" y="150">R</text><text fill="black" x="710" y="200">không_thể</text><text fill="black" x="790" y="150">Vv</text><text fill="black" x="790" y="200">so_sánh</text><text fill="black" x="870" y="150">Cp</text><text fill="black" x="870" y="200">với</text><text fill="black" x="950" y="150">Nc</text><text fill="black" x="950" y="200">bức</text><text fill="black" x="1030" y="150">FW</text><text fill="black" x="1030" y="200">họa</text><text fill="black" x="1110" y="150">Cm</text><text fill="black" x="1110" y="200">của</text><text fill="black" x="1190" y="150">Nn</text><text fill="black" x="1190" y="200">người</text><text fill="black" x="1270" y="150">Aa</text><text fill="black" x="1270" y="200">chuyên_nghiệp</text><text fill="black" x="1350" y="150">PU</text><text fill="black" x="1350" y="200">.</text><text fill="black" x="0" y="450">ENGLISH </text><text fill="black" x="20" y="350">Target: </text><text fill="black" x="20" y="400">POS: </text><text fill="black" x="150" y="350">A</text><text fill="black" x="150" y="400">DT</text><text fill="black" x="230" y="350">beginner</text><text fill="black" x="230" y="400">NN</text><text fill="black" x="310" y="350">'</text><text fill="black" x="310" y="400">POS</text><text fill="black" x="390" y="350">s</text><text fill="black" x="390" y="400">NN</text><text fill="black" x="470" y="350">painting</text><text fill="black" x="470" y="400">NN</text><text fill="black" x="550" y="350">can</text><text fill="black" x="550" y="400">MD</text><text fill="black" x="630" y="350">'</text><text fill="black" x="630" y="400">POS</text><text fill="black" x="710" y="350">t</text><text fill="black" x="710" y="400">NN</text><text fill="black" x="790" y="350">be</text><text fill="black" x="790" y="400">VB</text><text fill="black" x="870" y="350">compared</text><text fill="black" x="870" y="400">VBN</text><text fill="black" x="950" y="350">to</text><text fill="black" x="950" y="400">TO</text><text fill="black" x="1030" y="350">that</text><text fill="black" x="1030" y="400">DT</text><text fill="black" x="1110" y="350">of</text><text fill="black" x="1110" y="400">IN</text><text fill="black" x="1190" y="350">an</text><text fill="black" x="1190" y="400">DT</text><text fill="black" x="1270" y="350">expert</text><text fill="black" x="1270" y="400">NN</text><text fill="black" x="1350" y="350">.</text><text fill="black" x="1350" y="400">.</text><line stroke="red" x1="160" x2="266" y1="210" y2="330" /><line stroke="red" x1="240" x2="266" y1="210" y2="330" /><line stroke="red" x1="410" x2="266" y1="210" y2="330" /><line stroke="red" x1="480" x2="266" y1="210" y2="330" /><line stroke="red" x1="650" x2="266" y1="210" y2="330" /><line stroke="red" x1="750" x2="559" y1="210" y2="330" /><line stroke="red" x1="820" x2="906" y1="210" y2="330" /><line stroke="red" x1="880" x2="906" y1="210" y2="330" /><line stroke="red" x1="960" x2="506" y1="210" y2="330" /><line stroke="red" x1="1040" x2="506" y1="210" y2="330" /><line stroke="red" x1="1210" x2="1297" y1="210" y2="330" /><line stroke="red" x1="1330" x2="1297" y1="210" y2="330" /><line stroke="red" x1="1350" x2="1350" y1="210" y2="330" /></svg>