<?xml version="1.0" encoding="utf-8" ?>
<svg baseProfile="full" height="500" version="1.1" width="1200" xmlns="http://www.w3.org/2000/svg" xmlns:ev="http://www.w3.org/2001/xml-events" xmlns:xlink="http://www.w3.org/1999/xlink"><defs /><text fill="black" x="0" y="100">VIETNAMESE </text><text fill="black" x="20" y="150">POS: </text><text fill="black" x="20" y="200">Source: </text><text fill="black" x="150" y="150">Nq</text><text fill="black" x="150" y="200">Một</text><text fill="black" x="230" y="150">Nc</text><text fill="black" x="230" y="200">chiếc</text><text fill="black" x="310" y="150">Nn</text><text fill="black" x="310" y="200">máy_bay</text><text fill="black" x="390" y="150">Aa</text><text fill="black" x="390" y="200">lớn</text><text fill="black" x="470" y="150">Vv</text><text fill="black" x="470" y="200">đậu</text><text fill="black" x="550" y="150">Cm</text><text fill="black" x="550" y="200">trên</text><text fill="black" x="630" y="150">Nn</text><text fill="black" x="630" y="200">đường_băng</text><text fill="black" x="710" y="150">Vc</text><text fill="black" x="710" y="200">là</text><text fill="black" x="790" y="150">Nq</text><text fill="black" x="790" y="200">một</text><text fill="black" x="870" y="150">Nn</text><text fill="black" x="870" y="200">bộ_máy</text><text fill="black" x="950" y="150">Aa</text><text fill="black" x="950" y="200">tuyệt_diệu</text><text fill="black" x="1030" y="150">PU</text><text fill="black" x="1030" y="200">.</text><text fill="black" x="0" y="450">ENGLISH </text><text fill="black" x="20" y="350">Target: </text><text fill="black" x="20" y="400">POS: </text><text fill="black" x="150" y="350">A</text><text fill="black" x="150" y="400">DT</text><text fill="black" x="230" y="350">big</text><text fill="black" x="230" y="400">JJ</text><text fill="black" x="310" y="350">airplane</text><text fill="black" x="310" y="400">NN</text><text fill="black" x="390" y="350">standing</text><text fill="black" x="390" y="400">NN</text><text fill="black" x="470" y="350">on</text><text fill="black" x="470" y="400">IN</text><text fill="black" x="550" y="350">the</text><text fill="black" x="550" y="400">DT</text><text fill="black" x="630" y="350">runway</text><text fill="black" x="630" y="400">NN</text><text fill="black" x="710" y="350">is</text><text fill="black" x="710" y="400">VBZ</text><text fill="black" x="790" y="350">a</text><text fill="black" x="790" y="400">DT</text><text fill="black" x="870" y="350">wonderful</text><text fill="black" x="870" y="400">JJ</text><text fill="black" x="950" y="350">machine</text><text fill="black" x="950" y="400">NN</text><text fill="black" x="1030" y="350">.</text><text fill="black" x="1030" y="400">.</text><line stroke="red" x1="160" x2="150" y1="210" y2="330" /><line stroke="red" x1="250" x2="346" y1="210" y2="330" /><line stroke="red" x1="340" x2="346" y1="210" y2="330" /><line stroke="red" x1="400" x2="239" y1="210" y2="330" /><line stroke="red" x1="480" x2="346" y1="210" y2="330" /><line stroke="red" x1="570" x2="473" y1="210" y2="330" /><line stroke="red" x1="680" x2="657" y1="210" y2="330" /><line stroke="red" x1="720" x2="713" y1="210" y2="330" /><line stroke="red" x1="800" x2="790" y1="210" y2="330" /><line stroke="red" x1="900" x2="906" y1="210" y2="330" /><line stroke="red" x1="1000" x2="906" y1="210" y2="330" /><line stroke="red" x1="1030" x2="1030" y1="210" y2="330" /></svg>