<?xml version="1.0" encoding="utf-8" ?>
<svg baseProfile="full" height="500" version="1.1" width="1500" xmlns="http://www.w3.org/2000/svg" xmlns:ev="http://www.w3.org/2001/xml-events" xmlns:xlink="http://www.w3.org/1999/xlink"><defs /><text fill="black" x="0" y="100">VIETNAMESE </text><text fill="black" x="20" y="150">POS: </text><text fill="black" x="20" y="200">Source: </text><text fill="black" x="150" y="150">Nn</text><text fill="black" x="150" y="200">Xe_đạp</text><text fill="black" x="230" y="150">Vv</text><text fill="black" x="230" y="200">di_chuyển</text><text fill="black" x="310" y="150">R</text><text fill="black" x="310" y="200">thường</text><text fill="black" x="390" y="150">Aa</text><text fill="black" x="390" y="200">tiện</text><text fill="black" x="470" y="150">Aa</text><text fill="black" x="470" y="200">hơn</text><text fill="black" x="550" y="150">Nn</text><text fill="black" x="550" y="200">xe</text><text fill="black" x="630" y="150">Nn</text><text fill="black" x="630" y="200">ô_tô</text><text fill="black" x="710" y="150">R</text><text fill="black" x="710" y="200">rất</text><text fill="black" x="790" y="150">Aa</text><text fill="black" x="790" y="200">nhiều</text><text fill="black" x="870" y="150">Cm</text><text fill="black" x="870" y="200">trong</text><text fill="black" x="950" y="150">Nq</text><text fill="black" x="950" y="200">những</text><text fill="black" x="1030" y="150">Nu</text><text fill="black" x="1030" y="200">thành_phố</text><text fill="black" x="1110" y="150">Aa</text><text fill="black" x="1110" y="200">tấp_nập</text><text fill="black" x="1190" y="150">PU</text><text fill="black" x="1190" y="200">.</text><text fill="black" x="0" y="450">ENGLISH </text><text fill="black" x="20" y="350">Target: </text><text fill="black" x="20" y="400">POS: </text><text fill="black" x="150" y="350">A</text><text fill="black" x="150" y="400">DT</text><text fill="black" x="230" y="350">bicycle</text><text fill="black" x="230" y="400">NN</text><text fill="black" x="310" y="350">'</text><text fill="black" x="310" y="400">POS</text><text fill="black" x="390" y="350">s</text><text fill="black" x="390" y="400">NN</text><text fill="black" x="470" y="350">often</text><text fill="black" x="470" y="400">RB</text><text fill="black" x="550" y="350">far</text><text fill="black" x="550" y="400">RB</text><text fill="black" x="630" y="350">more</text><text fill="black" x="630" y="400">RBR</text><text fill="black" x="710" y="350">convenient</text><text fill="black" x="710" y="400">JJ</text><text fill="black" x="790" y="350">than</text><text fill="black" x="790" y="400">IN</text><text fill="black" x="870" y="350">a</text><text fill="black" x="870" y="400">DT</text><text fill="black" x="950" y="350">car</text><text fill="black" x="950" y="400">NN</text><text fill="black" x="1030" y="350">in</text><text fill="black" x="1030" y="400">IN</text><text fill="black" x="1110" y="350">busy</text><text fill="black" x="1110" y="400">JJ</text><text fill="black" x="1190" y="350">cities</text><text fill="black" x="1190" y="400">NNS</text><text fill="black" x="1270" y="350">.</text><text fill="black" x="1270" y="400">.</text><line stroke="red" x1="180" x2="257" y1="210" y2="330" /><line stroke="red" x1="270" x2="257" y1="210" y2="330" /><line stroke="red" x1="340" x2="488" y1="210" y2="330" /><line stroke="red" x1="410" x2="755" y1="210" y2="330" /><line stroke="red" x1="480" x2="808" y1="210" y2="330" /><line stroke="red" x1="560" x2="959" y1="210" y2="330" /><line stroke="red" x1="650" x2="959" y1="210" y2="330" /><line stroke="red" x1="720" x2="559" y1="210" y2="330" /><line stroke="red" x1="810" x2="648" y1="210" y2="330" /><line stroke="red" x1="890" x2="1033" y1="210" y2="330" /><line stroke="red" x1="970" x2="1217" y1="210" y2="330" /><line stroke="red" x1="1070" x2="1217" y1="210" y2="330" /><line stroke="red" x1="1140" x2="1217" y1="210" y2="330" /><line stroke="red" x1="1190" x2="1270" y1="210" y2="330" /></svg>