<?xml version="1.0" encoding="utf-8" ?>
<svg baseProfile="full" height="500" version="1.1" width="1000" xmlns="http://www.w3.org/2000/svg" xmlns:ev="http://www.w3.org/2001/xml-events" xmlns:xlink="http://www.w3.org/1999/xlink"><defs /><text fill="black" x="0" y="100">VIETNAMESE </text><text fill="black" x="20" y="150">POS: </text><text fill="black" x="20" y="200">Source: </text><text fill="black" x="150" y="150">Nq</text><text fill="black" x="150" y="200">Một</text><text fill="black" x="230" y="150">Nn</text><text fill="black" x="230" y="200">vận_đơn</text><text fill="black" x="310" y="150">R</text><text fill="black" x="310" y="200">đã</text><text fill="black" x="390" y="150">Vv</text><text fill="black" x="390" y="200">được</text><text fill="black" x="470" y="150">Vv</text><text fill="black" x="470" y="200">phát_hành</text><text fill="black" x="550" y="150">Nt</text><text fill="black" x="550" y="200">hôm_nay</text><text fill="black" x="630" y="150">PU</text><text fill="black" x="630" y="200">.</text><text fill="black" x="0" y="450">ENGLISH </text><text fill="black" x="20" y="350">Target: </text><text fill="black" x="20" y="400">POS: </text><text fill="black" x="150" y="350">A</text><text fill="black" x="150" y="400">DT</text><text fill="black" x="230" y="350">bill</text><text fill="black" x="230" y="400">NN</text><text fill="black" x="310" y="350">of</text><text fill="black" x="310" y="400">IN</text><text fill="black" x="390" y="350">lading</text><text fill="black" x="390" y="400">NN</text><text fill="black" x="470" y="350">has</text><text fill="black" x="470" y="400">VBZ</text><text fill="black" x="550" y="350">already</text><text fill="black" x="550" y="400">RB</text><text fill="black" x="630" y="350">been</text><text fill="black" x="630" y="400">VBN</text><text fill="black" x="710" y="350">issued</text><text fill="black" x="710" y="400">VBN</text><text fill="black" x="790" y="350">today</text><text fill="black" x="790" y="400">NN</text><text fill="black" x="870" y="350">.</text><text fill="black" x="870" y="400">.</text><line stroke="red" x1="160" x2="150" y1="210" y2="330" /><line stroke="red" x1="260" x2="417" y1="210" y2="330" /><line stroke="red" x1="320" x2="577" y1="210" y2="330" /><line stroke="red" x1="410" x2="648" y1="210" y2="330" /><line stroke="red" x1="510" x2="737" y1="210" y2="330" /><line stroke="red" x1="580" x2="808" y1="210" y2="330" /><line stroke="red" x1="630" x2="870" y1="210" y2="330" /></svg>