<?xml version="1.0" encoding="utf-8" ?>
<svg baseProfile="full" height="500" version="1.1" width="900" xmlns="http://www.w3.org/2000/svg" xmlns:ev="http://www.w3.org/2001/xml-events" xmlns:xlink="http://www.w3.org/1999/xlink"><defs /><text fill="black" x="0" y="100">VIETNAMESE </text><text fill="black" x="20" y="150">POS: </text><text fill="black" x="20" y="200">Source: </text><text fill="black" x="150" y="150">Vv</text><text fill="black" x="150" y="200">Muốn</text><text fill="black" x="230" y="150">Ve</text><text fill="black" x="230" y="200">có</text><text fill="black" x="310" y="150">Nq</text><text fill="black" x="310" y="200">một</text><text fill="black" x="390" y="150">Nc</text><text fill="black" x="390" y="200">chiếc</text><text fill="black" x="470" y="150">Nn</text><text fill="black" x="470" y="200">xe_đạp</text><text fill="black" x="550" y="150">Cp</text><text fill="black" x="550" y="200">thì</text><text fill="black" x="630" y="150">Aa</text><text fill="black" x="630" y="200">rẻ</text><text fill="black" x="710" y="150">M</text><text fill="black" x="710" y="200">thôi</text><text fill="black" x="790" y="150">PU</text><text fill="black" x="790" y="200">.</text><text fill="black" x="0" y="450">ENGLISH </text><text fill="black" x="20" y="350">Target: </text><text fill="black" x="20" y="400">POS: </text><text fill="black" x="150" y="350">A</text><text fill="black" x="150" y="400">DT</text><text fill="black" x="230" y="350">bicycle</text><text fill="black" x="230" y="400">NN</text><text fill="black" x="310" y="350">is</text><text fill="black" x="310" y="400">VBZ</text><text fill="black" x="390" y="350">cheap</text><text fill="black" x="390" y="400">JJ</text><text fill="black" x="470" y="350">to</text><text fill="black" x="470" y="400">TO</text><text fill="black" x="550" y="350">run</text><text fill="black" x="550" y="400">VB</text><text fill="black" x="630" y="350">.</text><text fill="black" x="630" y="400">.</text><line stroke="red" x1="170" x2="257" y1="210" y2="330" /><line stroke="red" x1="410" x2="257" y1="210" y2="330" /><line stroke="red" x1="500" x2="257" y1="210" y2="330" /><line stroke="red" x1="560" x2="408" y1="210" y2="330" /><line stroke="red" x1="640" x2="408" y1="210" y2="330" /><line stroke="red" x1="730" x2="559" y1="210" y2="330" /><line stroke="red" x1="790" x2="630" y1="210" y2="330" /></svg>