<?xml version="1.0" encoding="utf-8" ?>
<svg baseProfile="full" height="500" version="1.1" width="1500" xmlns="http://www.w3.org/2000/svg" xmlns:ev="http://www.w3.org/2001/xml-events" xmlns:xlink="http://www.w3.org/1999/xlink"><defs /><text fill="black" x="0" y="100">VIETNAMESE </text><text fill="black" x="20" y="150">POS: </text><text fill="black" x="20" y="200">Source: </text><text fill="black" x="150" y="150">Nq</text><text fill="black" x="150" y="200">Một</text><text fill="black" x="230" y="150">Nn</text><text fill="black" x="230" y="200">dự_luật</text><text fill="black" x="310" y="150">R</text><text fill="black" x="310" y="200">có_lẽ</text><text fill="black" x="390" y="150">R</text><text fill="black" x="390" y="200">sẽ</text><text fill="black" x="470" y="150">Vv</text><text fill="black" x="470" y="200">làm</text><text fill="black" x="550" y="150">Vv</text><text fill="black" x="550" y="200">trì_hoãn</text><text fill="black" x="630" y="150">Nn</text><text fill="black" x="630" y="200">việc</text><text fill="black" x="710" y="150">Vv</text><text fill="black" x="710" y="200">xử_lý</text><text fill="black" x="790" y="150">Nn</text><text fill="black" x="790" y="200">thức_ăn</text><text fill="black" x="870" y="150">Cm</text><text fill="black" x="870" y="200">bằng</text><text fill="black" x="950" y="150">Vv</text><text fill="black" x="950" y="200">phóng_xạ</text><text fill="black" x="1030" y="150">Cm</text><text fill="black" x="1030" y="200">trong</text><text fill="black" x="1110" y="150">Nn</text><text fill="black" x="1110" y="200">nước</text><text fill="black" x="1190" y="150">Pd</text><text fill="black" x="1190" y="200">này</text><text fill="black" x="1270" y="150">PU</text><text fill="black" x="1270" y="200">.</text><text fill="black" x="0" y="450">ENGLISH </text><text fill="black" x="20" y="350">Target: </text><text fill="black" x="20" y="400">POS: </text><text fill="black" x="150" y="350">A</text><text fill="black" x="150" y="400">DT</text><text fill="black" x="230" y="350">bill</text><text fill="black" x="230" y="400">NN</text><text fill="black" x="310" y="350">that</text><text fill="black" x="310" y="400">WDT</text><text fill="black" x="390" y="350">would</text><text fill="black" x="390" y="400">MD</text><text fill="black" x="470" y="350">sidetrack</text><text fill="black" x="470" y="400">VB</text><text fill="black" x="550" y="350">food</text><text fill="black" x="550" y="400">NN</text><text fill="black" x="630" y="350">irradiation</text><text fill="black" x="630" y="400">NN</text><text fill="black" x="710" y="350">in</text><text fill="black" x="710" y="400">IN</text><text fill="black" x="790" y="350">this</text><text fill="black" x="790" y="400">DT</text><text fill="black" x="870" y="350">country</text><text fill="black" x="870" y="400">NN</text><text fill="black" x="950" y="350">.</text><text fill="black" x="950" y="400">.</text><line stroke="red" x1="160" x2="150" y1="210" y2="330" /><line stroke="red" x1="260" x2="248" y1="210" y2="330" /><line stroke="red" x1="330" x2="506" y1="210" y2="330" /><line stroke="red" x1="400" x2="408" y1="210" y2="330" /><line stroke="red" x1="480" x2="506" y1="210" y2="330" /><line stroke="red" x1="590" x2="675" y1="210" y2="330" /><line stroke="red" x1="650" x2="675" y1="210" y2="330" /><line stroke="red" x1="730" x2="675" y1="210" y2="330" /><line stroke="red" x1="820" x2="568" y1="210" y2="330" /><line stroke="red" x1="890" x2="675" y1="210" y2="330" /><line stroke="red" x1="990" x2="675" y1="210" y2="330" /><line stroke="red" x1="1050" x2="713" y1="210" y2="330" /><line stroke="red" x1="1130" x2="897" y1="210" y2="330" /><line stroke="red" x1="1200" x2="808" y1="210" y2="330" /><line stroke="red" x1="1270" x2="950" y1="210" y2="330" /></svg>