<?xml version="1.0" encoding="utf-8" ?>
<svg baseProfile="full" height="500" version="1.1" width="1600" xmlns="http://www.w3.org/2000/svg" xmlns:ev="http://www.w3.org/2001/xml-events" xmlns:xlink="http://www.w3.org/1999/xlink"><defs /><text fill="black" x="0" y="100">VIETNAMESE </text><text fill="black" x="20" y="150">POS: </text><text fill="black" x="20" y="200">Source: </text><text fill="black" x="150" y="150">Nn</text><text fill="black" x="150" y="200">Người</text><text fill="black" x="230" y="150">Aa</text><text fill="black" x="230" y="200">mù</text><text fill="black" x="310" y="150">Vv</text><text fill="black" x="310" y="200">đọc</text><text fill="black" x="390" y="150">Nn</text><text fill="black" x="390" y="200">chữ</text><text fill="black" x="470" y="150">Cm</text><text fill="black" x="470" y="200">bằng</text><text fill="black" x="550" y="150">Nn</text><text fill="black" x="550" y="200">cách</text><text fill="black" x="630" y="150">Vv</text><text fill="black" x="630" y="200">đưa</text><text fill="black" x="710" y="150">Nn</text><text fill="black" x="710" y="200">ngón</text><text fill="black" x="790" y="150">Nn</text><text fill="black" x="790" y="200">tay</text><text fill="black" x="870" y="150">Vv</text><text fill="black" x="870" y="200">sờ</text><text fill="black" x="950" y="150">D</text><text fill="black" x="950" y="200">lên</text><text fill="black" x="1030" y="150">Nq</text><text fill="black" x="1030" y="200">những</text><text fill="black" x="1110" y="150">Nn</text><text fill="black" x="1110" y="200">dòng</text><text fill="black" x="1190" y="150">Nn</text><text fill="black" x="1190" y="200">chấm</text><text fill="black" x="1270" y="150">Aa</text><text fill="black" x="1270" y="200">nhỏ</text><text fill="black" x="1350" y="150">PU</text><text fill="black" x="1350" y="200">.</text><text fill="black" x="0" y="450">ENGLISH </text><text fill="black" x="20" y="350">Target: </text><text fill="black" x="20" y="400">POS: </text><text fill="black" x="150" y="350">A</text><text fill="black" x="150" y="400">DT</text><text fill="black" x="230" y="350">blind</text><text fill="black" x="230" y="400">JJ</text><text fill="black" x="310" y="350">person</text><text fill="black" x="310" y="400">NN</text><text fill="black" x="390" y="350">reads</text><text fill="black" x="390" y="400">VBZ</text><text fill="black" x="470" y="350">Braille</text><text fill="black" x="470" y="400">NNP</text><text fill="black" x="550" y="350">by</text><text fill="black" x="550" y="400">IN</text><text fill="black" x="630" y="350">running</text><text fill="black" x="630" y="400">VBG</text><text fill="black" x="710" y="350">his</text><text fill="black" x="710" y="400">PRP$</text><text fill="black" x="790" y="350">fingers</text><text fill="black" x="790" y="400">NNS</text><text fill="black" x="870" y="350">over</text><text fill="black" x="870" y="400">IN</text><text fill="black" x="950" y="350">lines</text><text fill="black" x="950" y="400">NNS</text><text fill="black" x="1030" y="350">of</text><text fill="black" x="1030" y="400">IN</text><text fill="black" x="1110" y="350">dots</text><text fill="black" x="1110" y="400">NNS</text><text fill="black" x="1190" y="350">.</text><text fill="black" x="1190" y="400">.</text><line stroke="red" x1="170" x2="337" y1="210" y2="330" /><line stroke="red" x1="240" x2="248" y1="210" y2="330" /><line stroke="red" x1="320" x2="408" y1="210" y2="330" /><line stroke="red" x1="400" x2="497" y1="210" y2="330" /><line stroke="red" x1="490" x2="553" y1="210" y2="330" /><line stroke="red" x1="570" x2="657" y1="210" y2="330" /><line stroke="red" x1="640" x2="1128" y1="210" y2="330" /><line stroke="red" x1="730" x2="817" y1="210" y2="330" /><line stroke="red" x1="800" x2="817" y1="210" y2="330" /><line stroke="red" x1="880" x2="1128" y1="210" y2="330" /><line stroke="red" x1="960" x2="1128" y1="210" y2="330" /><line stroke="red" x1="1130" x2="1128" y1="210" y2="330" /><line stroke="red" x1="1210" x2="1128" y1="210" y2="330" /><line stroke="red" x1="1280" x2="1128" y1="210" y2="330" /><line stroke="red" x1="1350" x2="1190" y1="210" y2="330" /></svg>