<?xml version="1.0" encoding="utf-8" ?>
<svg baseProfile="full" height="500" version="1.1" width="1100" xmlns="http://www.w3.org/2000/svg" xmlns:ev="http://www.w3.org/2001/xml-events" xmlns:xlink="http://www.w3.org/1999/xlink"><defs /><text fill="black" x="0" y="100">VIETNAMESE </text><text fill="black" x="20" y="150">POS: </text><text fill="black" x="20" y="200">Source: </text><text fill="black" x="150" y="150">Nn</text><text fill="black" x="150" y="200">Lòng</text><text fill="black" x="230" y="150">Vv</text><text fill="black" x="230" y="200">đố_kỵ</text><text fill="black" x="310" y="150">Aa</text><text fill="black" x="310" y="200">gay_gắt</text><text fill="black" x="390" y="150">R</text><text fill="black" x="390" y="200">đã</text><text fill="black" x="470" y="150">Vv</text><text fill="black" x="470" y="200">làm</text><text fill="black" x="550" y="150">Vv</text><text fill="black" x="550" y="200">giảm</text><text fill="black" x="630" y="150">R</text><text fill="black" x="630" y="200">dần</text><text fill="black" x="710" y="150">Nn</text><text fill="black" x="710" y="200">tình_bạn</text><text fill="black" x="790" y="150">Cm</text><text fill="black" x="790" y="200">của</text><text fill="black" x="870" y="150">Pp</text><text fill="black" x="870" y="200">họ</text><text fill="black" x="950" y="150">PU</text><text fill="black" x="950" y="200">.</text><text fill="black" x="0" y="450">ENGLISH </text><text fill="black" x="20" y="350">Target: </text><text fill="black" x="20" y="400">POS: </text><text fill="black" x="150" y="350">A</text><text fill="black" x="150" y="400">DT</text><text fill="black" x="230" y="350">bitter</text><text fill="black" x="230" y="400">JJ</text><text fill="black" x="310" y="350">envy</text><text fill="black" x="310" y="400">NN</text><text fill="black" x="390" y="350">that</text><text fill="black" x="390" y="400">WDT</text><text fill="black" x="470" y="350">has</text><text fill="black" x="470" y="400">VBZ</text><text fill="black" x="550" y="350">corroded</text><text fill="black" x="550" y="400">VBN</text><text fill="black" x="630" y="350">their</text><text fill="black" x="630" y="400">PRP$</text><text fill="black" x="710" y="350">friendship</text><text fill="black" x="710" y="400">NN</text><text fill="black" x="790" y="350">.</text><text fill="black" x="790" y="400">.</text><line stroke="red" x1="170" x2="586" y1="210" y2="330" /><line stroke="red" x1="250" x2="586" y1="210" y2="330" /><line stroke="red" x1="340" x2="257" y1="210" y2="330" /><line stroke="red" x1="400" x2="479" y1="210" y2="330" /><line stroke="red" x1="480" x2="586" y1="210" y2="330" /><line stroke="red" x1="570" x2="586" y1="210" y2="330" /><line stroke="red" x1="640" x2="586" y1="210" y2="330" /><line stroke="red" x1="750" x2="755" y1="210" y2="330" /><line stroke="red" x1="880" x2="648" y1="210" y2="330" /><line stroke="red" x1="950" x2="790" y1="210" y2="330" /></svg>