<?xml version="1.0" encoding="utf-8" ?>
<svg baseProfile="full" height="500" version="1.1" width="1800" xmlns="http://www.w3.org/2000/svg" xmlns:ev="http://www.w3.org/2001/xml-events" xmlns:xlink="http://www.w3.org/1999/xlink"><defs /><text fill="black" x="0" y="100">VIETNAMESE </text><text fill="black" x="20" y="150">POS: </text><text fill="black" x="20" y="200">Source: </text><text fill="black" x="150" y="150">Nq</text><text fill="black" x="150" y="200">Một_ít</text><text fill="black" x="230" y="150">Nn</text><text fill="black" x="230" y="200">dầu</text><text fill="black" x="310" y="150">Cp</text><text fill="black" x="310" y="200">và</text><text fill="black" x="390" y="150">Nq</text><text fill="black" x="390" y="200">tí</text><text fill="black" x="470" y="150">Nn</text><text fill="black" x="470" y="200">sơn</text><text fill="black" x="550" y="150">Aa</text><text fill="black" x="550" y="200">có_thể</text><text fill="black" x="630" y="150">Vv</text><text fill="black" x="630" y="200">làm</text><text fill="black" x="710" y="150">Cp</text><text fill="black" x="710" y="200">cho</text><text fill="black" x="790" y="150">Nc</text><text fill="black" x="790" y="200">chiếc</text><text fill="black" x="870" y="150">Nn</text><text fill="black" x="870" y="200">xe_đạp</text><text fill="black" x="950" y="150">Aa</text><text fill="black" x="950" y="200">cũ</text><text fill="black" x="1030" y="150">Pd</text><text fill="black" x="1030" y="200">ấy</text><text fill="black" x="1110" y="150">Aa</text><text fill="black" x="1110" y="200">khá</text><text fill="black" x="1190" y="150">Aa</text><text fill="black" x="1190" y="200">hơn</text><text fill="black" x="1270" y="150">PU</text><text fill="black" x="1270" y="200">.</text><text fill="black" x="0" y="450">ENGLISH </text><text fill="black" x="20" y="350">Target: </text><text fill="black" x="20" y="400">POS: </text><text fill="black" x="150" y="350">A</text><text fill="black" x="150" y="400">DT</text><text fill="black" x="230" y="350">bit</text><text fill="black" x="230" y="400">NN</text><text fill="black" x="310" y="350">of</text><text fill="black" x="310" y="400">IN</text><text fill="black" x="390" y="350">oil</text><text fill="black" x="390" y="400">NN</text><text fill="black" x="470" y="350">and</text><text fill="black" x="470" y="400">CC</text><text fill="black" x="550" y="350">some</text><text fill="black" x="550" y="400">DT</text><text fill="black" x="630" y="350">paint</text><text fill="black" x="630" y="400">NN</text><text fill="black" x="710" y="350">could</text><text fill="black" x="710" y="400">MD</text><text fill="black" x="790" y="350">give</text><text fill="black" x="790" y="400">VB</text><text fill="black" x="870" y="350">that</text><text fill="black" x="870" y="400">IN</text><text fill="black" x="950" y="350">old</text><text fill="black" x="950" y="400">JJ</text><text fill="black" x="1030" y="350">bike</text><text fill="black" x="1030" y="400">NN</text><text fill="black" x="1110" y="350">a</text><text fill="black" x="1110" y="400">DT</text><text fill="black" x="1190" y="350">new</text><text fill="black" x="1190" y="400">JJ</text><text fill="black" x="1270" y="350">lease</text><text fill="black" x="1270" y="400">NN</text><text fill="black" x="1350" y="350">of</text><text fill="black" x="1350" y="400">IN</text><text fill="black" x="1430" y="350">life</text><text fill="black" x="1430" y="400">NN</text><text fill="black" x="1510" y="350">.</text><text fill="black" x="1510" y="400">.</text><line stroke="red" x1="180" x2="239" y1="210" y2="330" /><line stroke="red" x1="240" x2="399" y1="210" y2="330" /><line stroke="red" x1="320" x2="479" y1="210" y2="330" /><line stroke="red" x1="400" x2="648" y1="210" y2="330" /><line stroke="red" x1="480" x2="648" y1="210" y2="330" /><line stroke="red" x1="580" x2="728" y1="210" y2="330" /><line stroke="red" x1="720" x2="808" y1="210" y2="330" /><line stroke="red" x1="810" x2="1048" y1="210" y2="330" /><line stroke="red" x1="900" x2="1048" y1="210" y2="330" /><line stroke="red" x1="960" x2="959" y1="210" y2="330" /><line stroke="red" x1="1120" x2="1288" y1="210" y2="330" /><line stroke="red" x1="1200" x2="1288" y1="210" y2="330" /><line stroke="red" x1="1270" x2="1510" y1="210" y2="330" /></svg>