<?xml version="1.0" encoding="utf-8" ?>
<svg baseProfile="full" height="500" version="1.1" width="1000" xmlns="http://www.w3.org/2000/svg" xmlns:ev="http://www.w3.org/2001/xml-events" xmlns:xlink="http://www.w3.org/1999/xlink"><defs /><text fill="black" x="0" y="100">VIETNAMESE </text><text fill="black" x="20" y="150">POS: </text><text fill="black" x="20" y="200">Source: </text><text fill="black" x="150" y="150">Nn</text><text fill="black" x="150" y="200">Nồi_hơi</text><text fill="black" x="230" y="150">Vc</text><text fill="black" x="230" y="200">là</text><text fill="black" x="310" y="150">Nq</text><text fill="black" x="310" y="200">một</text><text fill="black" x="390" y="150">Nn</text><text fill="black" x="390" y="200">loại</text><text fill="black" x="470" y="150">Nn</text><text fill="black" x="470" y="200">thiết_bị</text><text fill="black" x="550" y="150">Vv</text><text fill="black" x="550" y="200">tiết_kiệm</text><text fill="black" x="630" y="150">Nn</text><text fill="black" x="630" y="200">nhiên_liệu</text><text fill="black" x="710" y="150">Aa</text><text fill="black" x="710" y="200">tốt</text><text fill="black" x="790" y="150">PU</text><text fill="black" x="790" y="200">.</text><text fill="black" x="0" y="450">ENGLISH </text><text fill="black" x="20" y="350">Target: </text><text fill="black" x="20" y="400">POS: </text><text fill="black" x="150" y="350">A</text><text fill="black" x="150" y="400">DT</text><text fill="black" x="230" y="350">boiler</text><text fill="black" x="230" y="400">NN</text><text fill="black" x="310" y="350">that</text><text fill="black" x="310" y="400">WDT</text><text fill="black" x="390" y="350">is</text><text fill="black" x="390" y="400">VBZ</text><text fill="black" x="470" y="350">a</text><text fill="black" x="470" y="400">DT</text><text fill="black" x="550" y="350">good</text><text fill="black" x="550" y="400">JJ</text><text fill="black" x="630" y="350">fuel</text><text fill="black" x="630" y="400">NN</text><text fill="black" x="710" y="350">-</text><text fill="black" x="710" y="400">:</text><text fill="black" x="790" y="350">saver</text><text fill="black" x="790" y="400">NN</text><text fill="black" x="870" y="350">.</text><text fill="black" x="870" y="400">.</text><line stroke="red" x1="180" x2="257" y1="210" y2="330" /><line stroke="red" x1="410" x2="257" y1="210" y2="330" /><line stroke="red" x1="510" x2="257" y1="210" y2="330" /><line stroke="red" x1="590" x2="257" y1="210" y2="330" /><line stroke="red" x1="680" x2="648" y1="210" y2="330" /><line stroke="red" x1="720" x2="568" y1="210" y2="330" /><line stroke="red" x1="790" x2="870" y1="210" y2="330" /></svg>