<?xml version="1.0" encoding="utf-8" ?>
<svg baseProfile="full" height="500" version="1.1" width="1400" xmlns="http://www.w3.org/2000/svg" xmlns:ev="http://www.w3.org/2001/xml-events" xmlns:xlink="http://www.w3.org/1999/xlink"><defs /><text fill="black" x="0" y="100">VIETNAMESE </text><text fill="black" x="20" y="150">POS: </text><text fill="black" x="20" y="200">Source: </text><text fill="black" x="150" y="150">Nq</text><text fill="black" x="150" y="200">Một_chút</text><text fill="black" x="230" y="150">Nn</text><text fill="black" x="230" y="200">nước</text><text fill="black" x="310" y="150">Vv</text><text fill="black" x="310" y="200">chườm</text><text fill="black" x="390" y="150">R</text><text fill="black" x="390" y="200">sẽ</text><text fill="black" x="470" y="150">Vv</text><text fill="black" x="470" y="200">làm</text><text fill="black" x="550" y="150">Cp</text><text fill="black" x="550" y="200">cho</text><text fill="black" x="630" y="150">Nn</text><text fill="black" x="630" y="200">đầu_gối</text><text fill="black" x="710" y="150">Aa</text><text fill="black" x="710" y="200">thâm</text><text fill="black" x="790" y="150">Aa</text><text fill="black" x="790" y="200">tím</text><text fill="black" x="870" y="150">Cm</text><text fill="black" x="870" y="200">của</text><text fill="black" x="950" y="150">Pp</text><text fill="black" x="950" y="200">bạn</text><text fill="black" x="1030" y="150">Vv</text><text fill="black" x="1030" y="200">bớt</text><text fill="black" x="1110" y="150">Aa</text><text fill="black" x="1110" y="200">đau</text><text fill="black" x="1190" y="150">PU</text><text fill="black" x="1190" y="200">.</text><text fill="black" x="0" y="450">ENGLISH </text><text fill="black" x="20" y="350">Target: </text><text fill="black" x="20" y="400">POS: </text><text fill="black" x="150" y="350">A</text><text fill="black" x="150" y="400">DT</text><text fill="black" x="230" y="350">bit</text><text fill="black" x="230" y="400">NN</text><text fill="black" x="310" y="350">of</text><text fill="black" x="310" y="400">IN</text><text fill="black" x="390" y="350">embrocation</text><text fill="black" x="390" y="400">NN</text><text fill="black" x="470" y="350">will</text><text fill="black" x="470" y="400">MD</text><text fill="black" x="550" y="350">soothe</text><text fill="black" x="550" y="400">VB</text><text fill="black" x="630" y="350">your</text><text fill="black" x="630" y="400">PRP$</text><text fill="black" x="710" y="350">bruised</text><text fill="black" x="710" y="400">VBN</text><text fill="black" x="790" y="350">knee</text><text fill="black" x="790" y="400">NN</text><text fill="black" x="870" y="350">.</text><text fill="black" x="870" y="400">.</text><line stroke="red" x1="190" x2="435" y1="210" y2="330" /><line stroke="red" x1="250" x2="435" y1="210" y2="330" /><line stroke="red" x1="330" x2="435" y1="210" y2="330" /><line stroke="red" x1="400" x2="488" y1="210" y2="330" /><line stroke="red" x1="480" x2="577" y1="210" y2="330" /><line stroke="red" x1="660" x2="808" y1="210" y2="330" /><line stroke="red" x1="730" x2="737" y1="210" y2="330" /><line stroke="red" x1="800" x2="737" y1="210" y2="330" /><line stroke="red" x1="960" x2="648" y1="210" y2="330" /><line stroke="red" x1="1040" x2="577" y1="210" y2="330" /><line stroke="red" x1="1120" x2="577" y1="210" y2="330" /><line stroke="red" x1="1190" x2="870" y1="210" y2="330" /></svg>