<?xml version="1.0" encoding="utf-8" ?>
<svg baseProfile="full" height="500" version="1.1" width="1300" xmlns="http://www.w3.org/2000/svg" xmlns:ev="http://www.w3.org/2001/xml-events" xmlns:xlink="http://www.w3.org/1999/xlink"><defs /><text fill="black" x="0" y="100">VIETNAMESE </text><text fill="black" x="20" y="150">POS: </text><text fill="black" x="20" y="200">Source: </text><text fill="black" x="150" y="150">Nq</text><text fill="black" x="150" y="200">Một_ít</text><text fill="black" x="230" y="150">Nn</text><text fill="black" x="230" y="200">cỏ</text><text fill="black" x="310" y="150">Aa</text><text fill="black" x="310" y="200">dại</text><text fill="black" x="390" y="150">Cp</text><text fill="black" x="390" y="200">thì</text><text fill="black" x="470" y="150">R</text><text fill="black" x="470" y="200">cũng</text><text fill="black" x="550" y="150">R</text><text fill="black" x="550" y="200">chẳng</text><text fill="black" x="630" y="150">Aa</text><text fill="black" x="630" y="200">hại</text><text fill="black" x="710" y="150">M</text><text fill="black" x="710" y="200">gì</text><text fill="black" x="790" y="150">Cp</text><text fill="black" x="790" y="200">cho</text><text fill="black" x="870" y="150">Nn</text><text fill="black" x="870" y="200">khu</text><text fill="black" x="950" y="150">Nn</text><text fill="black" x="950" y="200">vườn</text><text fill="black" x="1030" y="150">Pd</text><text fill="black" x="1030" y="200">này</text><text fill="black" x="1110" y="150">PU</text><text fill="black" x="1110" y="200">.</text><text fill="black" x="0" y="450">ENGLISH </text><text fill="black" x="20" y="350">Target: </text><text fill="black" x="20" y="400">POS: </text><text fill="black" x="150" y="350">A</text><text fill="black" x="150" y="400">DT</text><text fill="black" x="230" y="350">bit</text><text fill="black" x="230" y="400">NN</text><text fill="black" x="310" y="350">of</text><text fill="black" x="310" y="400">IN</text><text fill="black" x="390" y="350">weeding</text><text fill="black" x="390" y="400">VBG</text><text fill="black" x="470" y="350">wouldn</text><text fill="black" x="470" y="400">NN</text><text fill="black" x="550" y="350">'</text><text fill="black" x="550" y="400">POS</text><text fill="black" x="630" y="350">t</text><text fill="black" x="630" y="400">NN</text><text fill="black" x="710" y="350">hurt</text><text fill="black" x="710" y="400">NN</text><text fill="black" x="790" y="350">this</text><text fill="black" x="790" y="400">DT</text><text fill="black" x="870" y="350">garden</text><text fill="black" x="870" y="400">NN</text><text fill="black" x="950" y="350">.</text><text fill="black" x="950" y="400">.</text><line stroke="red" x1="180" x2="417" y1="210" y2="330" /><line stroke="red" x1="240" x2="417" y1="210" y2="330" /><line stroke="red" x1="320" x2="417" y1="210" y2="330" /><line stroke="red" x1="400" x2="417" y1="210" y2="330" /><line stroke="red" x1="490" x2="417" y1="210" y2="330" /><line stroke="red" x1="570" x2="497" y1="210" y2="330" /><line stroke="red" x1="640" x2="417" y1="210" y2="330" /><line stroke="red" x1="720" x2="417" y1="210" y2="330" /><line stroke="red" x1="880" x2="897" y1="210" y2="330" /><line stroke="red" x1="970" x2="897" y1="210" y2="330" /><line stroke="red" x1="1040" x2="808" y1="210" y2="330" /><line stroke="red" x1="1110" x2="950" y1="210" y2="330" /></svg>