<?xml version="1.0" encoding="utf-8" ?>
<svg baseProfile="full" height="500" version="1.1" width="1100" xmlns="http://www.w3.org/2000/svg" xmlns:ev="http://www.w3.org/2001/xml-events" xmlns:xlink="http://www.w3.org/1999/xlink"><defs /><text fill="black" x="0" y="100">VIETNAMESE </text><text fill="black" x="20" y="150">POS: </text><text fill="black" x="20" y="200">Source: </text><text fill="black" x="150" y="150">Nn</text><text fill="black" x="150" y="200">Sách</text><text fill="black" x="230" y="150">Vv</text><text fill="black" x="230" y="200">được</text><text fill="black" x="310" y="150">Vv</text><text fill="black" x="310" y="200">buộc</text><text fill="black" x="390" y="150">Cm</text><text fill="black" x="390" y="200">bằng</text><text fill="black" x="470" y="150">Nq</text><text fill="black" x="470" y="200">một</text><text fill="black" x="550" y="150">Nn</text><text fill="black" x="550" y="200">sợi</text><text fill="black" x="630" y="150">Nn</text><text fill="black" x="630" y="200">dây</text><text fill="black" x="710" y="150">Cp</text><text fill="black" x="710" y="200">hay</text><text fill="black" x="790" y="150">Nn</text><text fill="black" x="790" y="200">băng</text><text fill="black" x="870" y="150">Nn</text><text fill="black" x="870" y="200">vải</text><text fill="black" x="950" y="150">PU</text><text fill="black" x="950" y="200">.</text><text fill="black" x="0" y="450">ENGLISH </text><text fill="black" x="20" y="350">Target: </text><text fill="black" x="20" y="400">POS: </text><text fill="black" x="150" y="350">A</text><text fill="black" x="150" y="400">DT</text><text fill="black" x="230" y="350">book</text><text fill="black" x="230" y="400">NN</text><text fill="black" x="310" y="350">was</text><text fill="black" x="310" y="400">VBD</text><text fill="black" x="390" y="350">kept</text><text fill="black" x="390" y="400">VBN</text><text fill="black" x="470" y="350">closed</text><text fill="black" x="470" y="400">VBD</text><text fill="black" x="550" y="350">with</text><text fill="black" x="550" y="400">IN</text><text fill="black" x="630" y="350">strings</text><text fill="black" x="630" y="400">NNS</text><text fill="black" x="710" y="350">or</text><text fill="black" x="710" y="400">CC</text><text fill="black" x="790" y="350">straps</text><text fill="black" x="790" y="400">NNS</text><text fill="black" x="870" y="350">.</text><text fill="black" x="870" y="400">.</text><line stroke="red" x1="170" x2="817" y1="210" y2="330" /><line stroke="red" x1="330" x2="817" y1="210" y2="330" /><line stroke="red" x1="410" x2="568" y1="210" y2="330" /><line stroke="red" x1="560" x2="657" y1="210" y2="330" /><line stroke="red" x1="640" x2="657" y1="210" y2="330" /><line stroke="red" x1="720" x2="713" y1="210" y2="330" /><line stroke="red" x1="810" x2="817" y1="210" y2="330" /><line stroke="red" x1="880" x2="817" y1="210" y2="330" /><line stroke="red" x1="950" x2="870" y1="210" y2="330" /></svg>