<?xml version="1.0" encoding="utf-8" ?>
<svg baseProfile="full" height="500" version="1.1" width="1200" xmlns="http://www.w3.org/2000/svg" xmlns:ev="http://www.w3.org/2001/xml-events" xmlns:xlink="http://www.w3.org/1999/xlink"><defs /><text fill="black" x="0" y="100">VIETNAMESE </text><text fill="black" x="20" y="150">POS: </text><text fill="black" x="20" y="200">Source: </text><text fill="black" x="150" y="150">Nq</text><text fill="black" x="150" y="200">Một</text><text fill="black" x="230" y="150">Nc</text><text fill="black" x="230" y="200">cuộc</text><text fill="black" x="310" y="150">Vv</text><text fill="black" x="310" y="200">tranh_chấp</text><text fill="black" x="390" y="150">Nn</text><text fill="black" x="390" y="200">biên_giới</text><text fill="black" x="470" y="150">Aa</text><text fill="black" x="470" y="200">có_thể</text><text fill="black" x="550" y="150">Aa</text><text fill="black" x="550" y="200">dễ</text><text fill="black" x="630" y="150">Vv</text><text fill="black" x="630" y="200">biến</text><text fill="black" x="710" y="150">Vv</text><text fill="black" x="710" y="200">thành</text><text fill="black" x="790" y="150">Nq</text><text fill="black" x="790" y="200">một</text><text fill="black" x="870" y="150">Nn</text><text fill="black" x="870" y="200">cuộc_chiến</text><text fill="black" x="950" y="150">Nn</text><text fill="black" x="950" y="200">tranh</text><text fill="black" x="1030" y="150">PU</text><text fill="black" x="1030" y="200">.</text><text fill="black" x="0" y="450">ENGLISH </text><text fill="black" x="20" y="350">Target: </text><text fill="black" x="20" y="400">POS: </text><text fill="black" x="150" y="350">A</text><text fill="black" x="150" y="400">DT</text><text fill="black" x="230" y="350">border</text><text fill="black" x="230" y="400">NN</text><text fill="black" x="310" y="350">dispute</text><text fill="black" x="310" y="400">NN</text><text fill="black" x="390" y="350">that</text><text fill="black" x="390" y="400">WDT</text><text fill="black" x="470" y="350">could</text><text fill="black" x="470" y="400">MD</text><text fill="black" x="550" y="350">easily</text><text fill="black" x="550" y="400">RB</text><text fill="black" x="630" y="350">become</text><text fill="black" x="630" y="400">VB</text><text fill="black" x="710" y="350">a</text><text fill="black" x="710" y="400">DT</text><text fill="black" x="790" y="350">war</text><text fill="black" x="790" y="400">NN</text><text fill="black" x="870" y="350">.</text><text fill="black" x="870" y="400">.</text><line stroke="red" x1="160" x2="150" y1="210" y2="330" /><line stroke="red" x1="250" x2="337" y1="210" y2="330" /><line stroke="red" x1="360" x2="337" y1="210" y2="330" /><line stroke="red" x1="430" x2="257" y1="210" y2="330" /><line stroke="red" x1="500" x2="488" y1="210" y2="330" /><line stroke="red" x1="560" x2="577" y1="210" y2="330" /><line stroke="red" x1="650" x2="577" y1="210" y2="330" /><line stroke="red" x1="730" x2="657" y1="210" y2="330" /><line stroke="red" x1="800" x2="710" y1="210" y2="330" /><line stroke="red" x1="920" x2="799" y1="210" y2="330" /><line stroke="red" x1="970" x2="799" y1="210" y2="330" /><line stroke="red" x1="1030" x2="870" y1="210" y2="330" /></svg>