<?xml version="1.0" encoding="utf-8" ?>
<svg baseProfile="full" height="500" version="1.1" width="1700" xmlns="http://www.w3.org/2000/svg" xmlns:ev="http://www.w3.org/2001/xml-events" xmlns:xlink="http://www.w3.org/1999/xlink"><defs /><text fill="black" x="0" y="100">VIETNAMESE </text><text fill="black" x="20" y="150">POS: </text><text fill="black" x="20" y="200">Source: </text><text fill="black" x="150" y="150">Nq</text><text fill="black" x="150" y="200">Một</text><text fill="black" x="230" y="150">Nc</text><text fill="black" x="230" y="200">quyển</text><text fill="black" x="310" y="150">Nn</text><text fill="black" x="310" y="200">sách</text><text fill="black" x="390" y="150">R</text><text fill="black" x="390" y="200">sẽ</text><text fill="black" x="470" y="150">Vv</text><text fill="black" x="470" y="200">cho</text><text fill="black" x="550" y="150">Pp</text><text fill="black" x="550" y="200">anh</text><text fill="black" x="630" y="150">Vv</text><text fill="black" x="630" y="200">biết</text><text fill="black" x="710" y="150">Nq</text><text fill="black" x="710" y="200">tất_cả</text><text fill="black" x="790" y="150">Nq</text><text fill="black" x="790" y="200">những</text><text fill="black" x="870" y="150">Pp</text><text fill="black" x="870" y="200">gì</text><text fill="black" x="950" y="150">Pp</text><text fill="black" x="950" y="200">anh</text><text fill="black" x="1030" y="150">Vv</text><text fill="black" x="1030" y="200">cần</text><text fill="black" x="1110" y="150">Vv</text><text fill="black" x="1110" y="200">biết</text><text fill="black" x="1190" y="150">Cm</text><text fill="black" x="1190" y="200">về</text><text fill="black" x="1270" y="150">Nn</text><text fill="black" x="1270" y="200">thuế</text><text fill="black" x="1350" y="150">Nn</text><text fill="black" x="1350" y="200">cá_nhân</text><text fill="black" x="1430" y="150">PU</text><text fill="black" x="1430" y="200">.</text><text fill="black" x="0" y="450">ENGLISH </text><text fill="black" x="20" y="350">Target: </text><text fill="black" x="20" y="400">POS: </text><text fill="black" x="150" y="350">A</text><text fill="black" x="150" y="400">DT</text><text fill="black" x="230" y="350">book</text><text fill="black" x="230" y="400">NN</text><text fill="black" x="310" y="350">which</text><text fill="black" x="310" y="400">WDT</text><text fill="black" x="390" y="350">tell</text><text fill="black" x="390" y="400">VBP</text><text fill="black" x="470" y="350">you</text><text fill="black" x="470" y="400">PRP</text><text fill="black" x="550" y="350">all</text><text fill="black" x="550" y="400">DT</text><text fill="black" x="630" y="350">you</text><text fill="black" x="630" y="400">PRP</text><text fill="black" x="710" y="350">need</text><text fill="black" x="710" y="400">VBP</text><text fill="black" x="790" y="350">to</text><text fill="black" x="790" y="400">TO</text><text fill="black" x="870" y="350">know</text><text fill="black" x="870" y="400">VB</text><text fill="black" x="950" y="350">about</text><text fill="black" x="950" y="400">IN</text><text fill="black" x="1030" y="350">personal</text><text fill="black" x="1030" y="400">JJ</text><text fill="black" x="1110" y="350">taxation</text><text fill="black" x="1110" y="400">NN</text><text fill="black" x="1190" y="350">.</text><text fill="black" x="1190" y="400">.</text><line stroke="red" x1="160" x2="150" y1="210" y2="330" /><line stroke="red" x1="250" x2="248" y1="210" y2="330" /><line stroke="red" x1="330" x2="248" y1="210" y2="330" /><line stroke="red" x1="400" x2="328" y1="210" y2="330" /><line stroke="red" x1="480" x2="408" y1="210" y2="330" /><line stroke="red" x1="560" x2="479" y1="210" y2="330" /><line stroke="red" x1="650" x2="408" y1="210" y2="330" /><line stroke="red" x1="740" x2="559" y1="210" y2="330" /><line stroke="red" x1="960" x2="639" y1="210" y2="330" /><line stroke="red" x1="1040" x2="728" y1="210" y2="330" /><line stroke="red" x1="1130" x2="888" y1="210" y2="330" /><line stroke="red" x1="1200" x2="968" y1="210" y2="330" /><line stroke="red" x1="1290" x2="1146" y1="210" y2="330" /><line stroke="red" x1="1380" x2="1066" y1="210" y2="330" /><line stroke="red" x1="1430" x2="1190" y1="210" y2="330" /></svg>