<?xml version="1.0" encoding="utf-8" ?>
<svg baseProfile="full" height="500" version="1.1" width="1800" xmlns="http://www.w3.org/2000/svg" xmlns:ev="http://www.w3.org/2001/xml-events" xmlns:xlink="http://www.w3.org/1999/xlink"><defs /><text fill="black" x="0" y="100">VIETNAMESE </text><text fill="black" x="20" y="150">POS: </text><text fill="black" x="20" y="200">Source: </text><text fill="black" x="150" y="150">Nq</text><text fill="black" x="150" y="200">Một</text><text fill="black" x="230" y="150">Nc</text><text fill="black" x="230" y="200">chiếc</text><text fill="black" x="310" y="150">Nn</text><text fill="black" x="310" y="200">hộp</text><text fill="black" x="390" y="150">Vv</text><text fill="black" x="390" y="200">thu</text><text fill="black" x="470" y="150">M</text><text fill="black" x="470" y="200">được</text><text fill="black" x="550" y="150">Cm</text><text fill="black" x="550" y="200">trong</text><text fill="black" x="630" y="150">Nc</text><text fill="black" x="630" y="200">vụ</text><text fill="black" x="710" y="150">Nn</text><text fill="black" x="710" y="200">tai_nạn</text><text fill="black" x="790" y="150">Cp</text><text fill="black" x="790" y="200">với</text><text fill="black" x="870" y="150">Nq</text><text fill="black" x="870" y="200">các</text><text fill="black" x="950" y="150">Nn</text><text fill="black" x="950" y="200">thứ</text><text fill="black" x="1030" y="150">Nn</text><text fill="black" x="1030" y="200">bên</text><text fill="black" x="1110" y="150">Nn</text><text fill="black" x="1110" y="200">trong</text><text fill="black" x="1190" y="150">Cm</text><text fill="black" x="1190" y="200">của</text><text fill="black" x="1270" y="150">Pp</text><text fill="black" x="1270" y="200">nó</text><text fill="black" x="1350" y="150">R</text><text fill="black" x="1350" y="200">còn</text><text fill="black" x="1430" y="150">Aa</text><text fill="black" x="1430" y="200">nguyên_vẹn</text><text fill="black" x="1510" y="150">PU</text><text fill="black" x="1510" y="200">.</text><text fill="black" x="0" y="450">ENGLISH </text><text fill="black" x="20" y="350">Target: </text><text fill="black" x="20" y="400">POS: </text><text fill="black" x="150" y="350">A</text><text fill="black" x="150" y="400">DT</text><text fill="black" x="230" y="350">box</text><text fill="black" x="230" y="400">NN</text><text fill="black" x="310" y="350">recovered</text><text fill="black" x="310" y="400">VBN</text><text fill="black" x="390" y="350">from</text><text fill="black" x="390" y="400">IN</text><text fill="black" x="470" y="350">an</text><text fill="black" x="470" y="400">DT</text><text fill="black" x="550" y="350">accident</text><text fill="black" x="550" y="400">NN</text><text fill="black" x="630" y="350">with</text><text fill="black" x="630" y="400">IN</text><text fill="black" x="710" y="350">its</text><text fill="black" x="710" y="400">PRP$</text><text fill="black" x="790" y="350">contents</text><text fill="black" x="790" y="400">NNS</text><text fill="black" x="870" y="350">intact</text><text fill="black" x="870" y="400">JJ</text><text fill="black" x="950" y="350">.</text><text fill="black" x="950" y="400">.</text><line stroke="red" x1="160" x2="150" y1="210" y2="330" /><line stroke="red" x1="250" x2="239" y1="210" y2="330" /><line stroke="red" x1="320" x2="239" y1="210" y2="330" /><line stroke="red" x1="400" x2="346" y1="210" y2="330" /><line stroke="red" x1="490" x2="346" y1="210" y2="330" /><line stroke="red" x1="640" x2="586" y1="210" y2="330" /><line stroke="red" x1="740" x2="586" y1="210" y2="330" /><line stroke="red" x1="800" x2="648" y1="210" y2="330" /><line stroke="red" x1="880" x2="826" y1="210" y2="330" /><line stroke="red" x1="960" x2="826" y1="210" y2="330" /><line stroke="red" x1="1040" x2="826" y1="210" y2="330" /><line stroke="red" x1="1130" x2="826" y1="210" y2="330" /><line stroke="red" x1="1360" x2="897" y1="210" y2="330" /><line stroke="red" x1="1480" x2="897" y1="210" y2="330" /><line stroke="red" x1="1510" x2="950" y1="210" y2="330" /></svg>