<?xml version="1.0" encoding="utf-8" ?>
<svg baseProfile="full" height="500" version="1.1" width="1200" xmlns="http://www.w3.org/2000/svg" xmlns:ev="http://www.w3.org/2001/xml-events" xmlns:xlink="http://www.w3.org/1999/xlink"><defs /><text fill="black" x="0" y="100">VIETNAMESE </text><text fill="black" x="20" y="150">POS: </text><text fill="black" x="20" y="200">Source: </text><text fill="black" x="150" y="150">Nc</text><text fill="black" x="150" y="200">Nhà</text><text fill="black" x="230" y="150">Vv</text><text fill="black" x="230" y="200">kinh_doanh</text><text fill="black" x="310" y="150">Vv</text><text fill="black" x="310" y="200">phải</text><text fill="black" x="390" y="150">Vv</text><text fill="black" x="390" y="200">tránh</text><text fill="black" x="470" y="150">Cm</text><text fill="black" x="470" y="200">để</text><text fill="black" x="550" y="150">Nq</text><text fill="black" x="550" y="200">các</text><text fill="black" x="630" y="150">Nn</text><text fill="black" x="630" y="200">khách_hàng</text><text fill="black" x="710" y="150">Cm</text><text fill="black" x="710" y="200">của</text><text fill="black" x="790" y="150">Nn</text><text fill="black" x="790" y="200">anh</text><text fill="black" x="870" y="150">Pp</text><text fill="black" x="870" y="200">ta</text><text fill="black" x="950" y="150">Vv</text><text fill="black" x="950" y="200">bất_mãn</text><text fill="black" x="1030" y="150">PU</text><text fill="black" x="1030" y="200">.</text><text fill="black" x="0" y="450">ENGLISH </text><text fill="black" x="20" y="350">Target: </text><text fill="black" x="20" y="400">POS: </text><text fill="black" x="150" y="350">A</text><text fill="black" x="150" y="400">DT</text><text fill="black" x="230" y="350">businessman</text><text fill="black" x="230" y="400">NN</text><text fill="black" x="310" y="350">must</text><text fill="black" x="310" y="400">MD</text><text fill="black" x="390" y="350">avoid</text><text fill="black" x="390" y="400">VB</text><text fill="black" x="470" y="350">leaving</text><text fill="black" x="470" y="400">VBG</text><text fill="black" x="550" y="350">his</text><text fill="black" x="550" y="400">PRP$</text><text fill="black" x="630" y="350">customers</text><text fill="black" x="630" y="400">NNS</text><text fill="black" x="710" y="350">unaccommodated</text><text fill="black" x="710" y="400">JJ</text><text fill="black" x="790" y="350">.</text><text fill="black" x="790" y="400">.</text><line stroke="red" x1="160" x2="275" y1="210" y2="330" /><line stroke="red" x1="280" x2="275" y1="210" y2="330" /><line stroke="red" x1="330" x2="328" y1="210" y2="330" /><line stroke="red" x1="410" x2="408" y1="210" y2="330" /><line stroke="red" x1="480" x2="497" y1="210" y2="330" /><line stroke="red" x1="560" x2="666" y1="210" y2="330" /><line stroke="red" x1="680" x2="666" y1="210" y2="330" /><line stroke="red" x1="800" x2="559" y1="210" y2="330" /><line stroke="red" x1="880" x2="773" y1="210" y2="330" /><line stroke="red" x1="980" x2="773" y1="210" y2="330" /><line stroke="red" x1="1030" x2="790" y1="210" y2="330" /></svg>