<?xml version="1.0" encoding="utf-8" ?>
<svg baseProfile="full" height="500" version="1.1" width="2200" xmlns="http://www.w3.org/2000/svg" xmlns:ev="http://www.w3.org/2001/xml-events" xmlns:xlink="http://www.w3.org/1999/xlink"><defs /><text fill="black" x="0" y="100">VIETNAMESE </text><text fill="black" x="20" y="150">POS: </text><text fill="black" x="20" y="200">Source: </text><text fill="black" x="150" y="150">Nq</text><text fill="black" x="150" y="200">Một</text><text fill="black" x="230" y="150">Nc</text><text fill="black" x="230" y="200">cậu</text><text fill="black" x="310" y="150">Nn</text><text fill="black" x="310" y="200">bé</text><text fill="black" x="390" y="150">Cp</text><text fill="black" x="390" y="200">hay</text><text fill="black" x="470" y="150">Nq</text><text fill="black" x="470" y="200">một</text><text fill="black" x="550" y="150">Nc</text><text fill="black" x="550" y="200">cô</text><text fill="black" x="630" y="150">Nn</text><text fill="black" x="630" y="200">bé</text><text fill="black" x="710" y="150">R</text><text fill="black" x="710" y="200">đã</text><text fill="black" x="790" y="150">Vd</text><text fill="black" x="790" y="200">đến</text><text fill="black" x="870" y="150">Nn</text><text fill="black" x="870" y="200">trường_học</text><text fill="black" x="950" y="150">Nq</text><text fill="black" x="950" y="200">vài</text><text fill="black" x="1030" y="150">Nt</text><text fill="black" x="1030" y="200">năm</text><text fill="black" x="1110" y="150">R</text><text fill="black" x="1110" y="200">đều</text><text fill="black" x="1190" y="150">Vv</text><text fill="black" x="1190" y="200">biết</text><text fill="black" x="1270" y="150">Nn</text><text fill="black" x="1270" y="200">bảng_cửu_chương</text><text fill="black" x="1350" y="150">Cp</text><text fill="black" x="1350" y="200">và</text><text fill="black" x="1430" y="150">Nn</text><text fill="black" x="1430" y="200">hệ_thống</text><text fill="black" x="1510" y="150">Nn</text><text fill="black" x="1510" y="200">chữ_cái</text><text fill="black" x="1590" y="150">PU</text><text fill="black" x="1590" y="200">.</text><text fill="black" x="0" y="450">ENGLISH </text><text fill="black" x="20" y="350">Target: </text><text fill="black" x="20" y="400">POS: </text><text fill="black" x="150" y="350">A</text><text fill="black" x="150" y="400">DT</text><text fill="black" x="230" y="350">boy</text><text fill="black" x="230" y="400">NN</text><text fill="black" x="310" y="350">or</text><text fill="black" x="310" y="400">CC</text><text fill="black" x="390" y="350">girl</text><text fill="black" x="390" y="400">NN</text><text fill="black" x="470" y="350">who</text><text fill="black" x="470" y="400">WP</text><text fill="black" x="550" y="350">has</text><text fill="black" x="550" y="400">VBZ</text><text fill="black" x="630" y="350">been</text><text fill="black" x="630" y="400">VBN</text><text fill="black" x="710" y="350">going</text><text fill="black" x="710" y="400">VBG</text><text fill="black" x="790" y="350">to</text><text fill="black" x="790" y="400">TO</text><text fill="black" x="870" y="350">school</text><text fill="black" x="870" y="400">VB</text><text fill="black" x="950" y="350">for</text><text fill="black" x="950" y="400">IN</text><text fill="black" x="1030" y="350">a</text><text fill="black" x="1030" y="400">DT</text><text fill="black" x="1110" y="350">few</text><text fill="black" x="1110" y="400">JJ</text><text fill="black" x="1190" y="350">years</text><text fill="black" x="1190" y="400">NNS</text><text fill="black" x="1270" y="350">knows</text><text fill="black" x="1270" y="400">VBZ</text><text fill="black" x="1350" y="350">the</text><text fill="black" x="1350" y="400">DT</text><text fill="black" x="1430" y="350">multiplication</text><text fill="black" x="1430" y="400">NN</text><text fill="black" x="1510" y="350">table</text><text fill="black" x="1510" y="400">NN</text><text fill="black" x="1590" y="350">and</text><text fill="black" x="1590" y="400">CC</text><text fill="black" x="1670" y="350">the</text><text fill="black" x="1670" y="400">DT</text><text fill="black" x="1750" y="350">alphabet</text><text fill="black" x="1750" y="400">NN</text><text fill="black" x="1830" y="350">.</text><text fill="black" x="1830" y="400">.</text><line stroke="red" x1="160" x2="150" y1="210" y2="330" /><line stroke="red" x1="240" x2="239" y1="210" y2="330" /><line stroke="red" x1="320" x2="239" y1="210" y2="330" /><line stroke="red" x1="400" x2="313" y1="210" y2="330" /><line stroke="red" x1="560" x2="408" y1="210" y2="330" /><line stroke="red" x1="640" x2="408" y1="210" y2="330" /><line stroke="red" x1="720" x2="559" y1="210" y2="330" /><line stroke="red" x1="800" x2="793" y1="210" y2="330" /><line stroke="red" x1="920" x2="897" y1="210" y2="330" /><line stroke="red" x1="960" x2="1119" y1="210" y2="330" /><line stroke="red" x1="1040" x2="1208" y1="210" y2="330" /><line stroke="red" x1="1120" x2="1288" y1="210" y2="330" /><line stroke="red" x1="1210" x2="1288" y1="210" y2="330" /><line stroke="red" x1="1340" x2="1493" y1="210" y2="330" /><line stroke="red" x1="1360" x2="1599" y1="210" y2="330" /><line stroke="red" x1="1470" x2="1786" y1="210" y2="330" /><line stroke="red" x1="1540" x2="1786" y1="210" y2="330" /><line stroke="red" x1="1590" x2="1830" y1="210" y2="330" /></svg>