<?xml version="1.0" encoding="utf-8" ?>
<svg baseProfile="full" height="500" version="1.1" width="1700" xmlns="http://www.w3.org/2000/svg" xmlns:ev="http://www.w3.org/2001/xml-events" xmlns:xlink="http://www.w3.org/1999/xlink"><defs /><text fill="black" x="0" y="100">VIETNAMESE </text><text fill="black" x="20" y="150">POS: </text><text fill="black" x="20" y="200">Source: </text><text fill="black" x="150" y="150">Nq</text><text fill="black" x="150" y="200">Một</text><text fill="black" x="230" y="150">Nc</text><text fill="black" x="230" y="200">con</text><text fill="black" x="310" y="150">Nn</text><text fill="black" x="310" y="200">bướm</text><text fill="black" x="390" y="150">R</text><text fill="black" x="390" y="200">thường</text><text fill="black" x="470" y="150">Ve</text><text fill="black" x="470" y="200">có</text><text fill="black" x="550" y="150">Nn</text><text fill="black" x="550" y="200">râu</text><text fill="black" x="630" y="150">Aa</text><text fill="black" x="630" y="200">thon</text><text fill="black" x="710" y="150">Cp</text><text fill="black" x="710" y="200">với</text><text fill="black" x="790" y="150">Nn</text><text fill="black" x="790" y="200">đầu</text><text fill="black" x="870" y="150">Aa</text><text fill="black" x="870" y="200">dày</text><text fill="black" x="950" y="150">Cp</text><text fill="black" x="950" y="200">hoặc</text><text fill="black" x="1030" y="150">Ve</text><text fill="black" x="1030" y="200">có</text><text fill="black" x="1110" y="150">Nn</text><text fill="black" x="1110" y="200">dạng</text><text fill="black" x="1190" y="150">Nn</text><text fill="black" x="1190" y="200">gậy_tày</text><text fill="black" x="1270" y="150">PU</text><text fill="black" x="1270" y="200">.</text><text fill="black" x="0" y="450">ENGLISH </text><text fill="black" x="20" y="350">Target: </text><text fill="black" x="20" y="400">POS: </text><text fill="black" x="150" y="350">A</text><text fill="black" x="150" y="400">DT</text><text fill="black" x="230" y="350">butterfly</text><text fill="black" x="230" y="400">NN</text><text fill="black" x="310" y="350">has</text><text fill="black" x="310" y="400">VBZ</text><text fill="black" x="390" y="350">slender</text><text fill="black" x="390" y="400">JJR</text><text fill="black" x="470" y="350">feelers</text><text fill="black" x="470" y="400">NNS</text><text fill="black" x="550" y="350">with</text><text fill="black" x="550" y="400">IN</text><text fill="black" x="630" y="350">a</text><text fill="black" x="630" y="400">DT</text><text fill="black" x="710" y="350">thicker</text><text fill="black" x="710" y="400">JJR</text><text fill="black" x="790" y="350">part</text><text fill="black" x="790" y="400">NN</text><text fill="black" x="870" y="350">,</text><text fill="black" x="870" y="400">,</text><text fill="black" x="950" y="350">or</text><text fill="black" x="950" y="400">CC</text><text fill="black" x="1030" y="350">club</text><text fill="black" x="1030" y="400">NN</text><text fill="black" x="1110" y="350">,</text><text fill="black" x="1110" y="400">,</text><text fill="black" x="1190" y="350">at</text><text fill="black" x="1190" y="400">IN</text><text fill="black" x="1270" y="350">the</text><text fill="black" x="1270" y="400">DT</text><text fill="black" x="1350" y="350">end</text><text fill="black" x="1350" y="400">NN</text><text fill="black" x="1430" y="350">.</text><text fill="black" x="1430" y="400">.</text><line stroke="red" x1="160" x2="150" y1="210" y2="330" /><line stroke="red" x1="240" x2="266" y1="210" y2="330" /><line stroke="red" x1="330" x2="266" y1="210" y2="330" /><line stroke="red" x1="420" x2="266" y1="210" y2="330" /><line stroke="red" x1="480" x2="319" y1="210" y2="330" /><line stroke="red" x1="560" x2="497" y1="210" y2="330" /><line stroke="red" x1="650" x2="417" y1="210" y2="330" /><line stroke="red" x1="720" x2="568" y1="210" y2="330" /><line stroke="red" x1="800" x2="737" y1="210" y2="330" /><line stroke="red" x1="880" x2="737" y1="210" y2="330" /><line stroke="red" x1="970" x2="953" y1="210" y2="330" /><line stroke="red" x1="1130" x2="417" y1="210" y2="330" /><line stroke="red" x1="1220" x2="417" y1="210" y2="330" /><line stroke="red" x1="1270" x2="1430" y1="210" y2="330" /></svg>