<?xml version="1.0" encoding="utf-8" ?>
<svg baseProfile="full" height="500" version="1.1" width="1000" xmlns="http://www.w3.org/2000/svg" xmlns:ev="http://www.w3.org/2001/xml-events" xmlns:xlink="http://www.w3.org/1999/xlink"><defs /><text fill="black" x="0" y="100">VIETNAMESE </text><text fill="black" x="20" y="150">POS: </text><text fill="black" x="20" y="200">Source: </text><text fill="black" x="150" y="150">Nq</text><text fill="black" x="150" y="200">Một</text><text fill="black" x="230" y="150">Nn</text><text fill="black" x="230" y="200">lực_lượng</text><text fill="black" x="310" y="150">Nn</text><text fill="black" x="310" y="200">nòng_cốt</text><text fill="black" x="390" y="150">Nn</text><text fill="black" x="390" y="200">trung_sĩ</text><text fill="black" x="470" y="150">Cp</text><text fill="black" x="470" y="200">và</text><text fill="black" x="550" y="150">Nn</text><text fill="black" x="550" y="200">hạ_sĩ</text><text fill="black" x="630" y="150">Vv</text><text fill="black" x="630" y="200">huấn_luyện</text><text fill="black" x="710" y="150">Nn</text><text fill="black" x="710" y="200">tân_binh</text><text fill="black" x="790" y="150">PU</text><text fill="black" x="790" y="200">.</text><text fill="black" x="0" y="450">ENGLISH </text><text fill="black" x="20" y="350">Target: </text><text fill="black" x="20" y="400">POS: </text><text fill="black" x="150" y="350">A</text><text fill="black" x="150" y="400">DT</text><text fill="black" x="230" y="350">cadre</text><text fill="black" x="230" y="400">NN</text><text fill="black" x="310" y="350">of</text><text fill="black" x="310" y="400">IN</text><text fill="black" x="390" y="350">sergeants</text><text fill="black" x="390" y="400">NNS</text><text fill="black" x="470" y="350">and</text><text fill="black" x="470" y="400">CC</text><text fill="black" x="550" y="350">corporals</text><text fill="black" x="550" y="400">NNS</text><text fill="black" x="630" y="350">who</text><text fill="black" x="630" y="400">WP</text><text fill="black" x="710" y="350">train</text><text fill="black" x="710" y="400">VBP</text><text fill="black" x="790" y="350">recruits</text><text fill="black" x="790" y="400">NNS</text><text fill="black" x="870" y="350">.</text><text fill="black" x="870" y="400">.</text><line stroke="red" x1="160" x2="150" y1="210" y2="330" /><line stroke="red" x1="270" x2="248" y1="210" y2="330" /><line stroke="red" x1="350" x2="426" y1="210" y2="330" /><line stroke="red" x1="430" x2="426" y1="210" y2="330" /><line stroke="red" x1="480" x2="479" y1="210" y2="330" /><line stroke="red" x1="570" x2="586" y1="210" y2="330" /><line stroke="red" x1="680" x2="586" y1="210" y2="330" /><line stroke="red" x1="750" x2="826" y1="210" y2="330" /><line stroke="red" x1="790" x2="870" y1="210" y2="330" /></svg>