<?xml version="1.0" encoding="utf-8" ?>
<svg baseProfile="full" height="500" version="1.1" width="2000" xmlns="http://www.w3.org/2000/svg" xmlns:ev="http://www.w3.org/2001/xml-events" xmlns:xlink="http://www.w3.org/1999/xlink"><defs /><text fill="black" x="0" y="100">VIETNAMESE </text><text fill="black" x="20" y="150">POS: </text><text fill="black" x="20" y="200">Source: </text><text fill="black" x="150" y="150">Nq</text><text fill="black" x="150" y="200">Một</text><text fill="black" x="230" y="150">Nn</text><text fill="black" x="230" y="200">chùm</text><text fill="black" x="310" y="150">Nn</text><text fill="black" x="310" y="200">củ_cải</text><text fill="black" x="390" y="150">Cp</text><text fill="black" x="390" y="200">hoặc</text><text fill="black" x="470" y="150">Nq</text><text fill="black" x="470" y="200">một</text><text fill="black" x="550" y="150">Nn</text><text fill="black" x="550" y="200">miếng</text><text fill="black" x="630" y="150">Nn</text><text fill="black" x="630" y="200">sô</text><text fill="black" x="710" y="150">PU</text><text fill="black" x="710" y="200">-</text><text fill="black" x="790" y="150">Nn</text><text fill="black" x="790" y="200">cô</text><text fill="black" x="870" y="150">PU</text><text fill="black" x="870" y="200">-</text><text fill="black" x="950" y="150">Nn</text><text fill="black" x="950" y="200">la</text><text fill="black" x="1030" y="150">Cp</text><text fill="black" x="1030" y="200">đối_với</text><text fill="black" x="1110" y="150">Nn</text><text fill="black" x="1110" y="200">bà</text><text fill="black" x="1190" y="150">Aa</text><text fill="black" x="1190" y="200">thực_sự</text><text fill="black" x="1270" y="150">Vc</text><text fill="black" x="1270" y="200">là</text><text fill="black" x="1350" y="150">Nq</text><text fill="black" x="1350" y="200">một</text><text fill="black" x="1430" y="150">Nn</text><text fill="black" x="1430" y="200">bữa</text><text fill="black" x="1510" y="150">Vv</text><text fill="black" x="1510" y="200">ăn</text><text fill="black" x="1590" y="150">Aa</text><text fill="black" x="1590" y="200">sang_trọng</text><text fill="black" x="1670" y="150">PU</text><text fill="black" x="1670" y="200">.</text><text fill="black" x="0" y="450">ENGLISH </text><text fill="black" x="20" y="350">Target: </text><text fill="black" x="20" y="400">POS: </text><text fill="black" x="150" y="350">A</text><text fill="black" x="150" y="400">DT</text><text fill="black" x="230" y="350">bunch</text><text fill="black" x="230" y="400">NN</text><text fill="black" x="310" y="350">of</text><text fill="black" x="310" y="400">IN</text><text fill="black" x="390" y="350">radishes</text><text fill="black" x="390" y="400">NNS</text><text fill="black" x="470" y="350">or</text><text fill="black" x="470" y="400">CC</text><text fill="black" x="550" y="350">a</text><text fill="black" x="550" y="400">DT</text><text fill="black" x="630" y="350">bit</text><text fill="black" x="630" y="400">NN</text><text fill="black" x="710" y="350">of</text><text fill="black" x="710" y="400">IN</text><text fill="black" x="790" y="350">chocolate</text><text fill="black" x="790" y="400">NN</text><text fill="black" x="870" y="350">was</text><text fill="black" x="870" y="400">VBD</text><text fill="black" x="950" y="350">a</text><text fill="black" x="950" y="400">DT</text><text fill="black" x="1030" y="350">real</text><text fill="black" x="1030" y="400">JJ</text><text fill="black" x="1110" y="350">treat</text><text fill="black" x="1110" y="400">NN</text><text fill="black" x="1190" y="350">.</text><text fill="black" x="1190" y="400">.</text><line stroke="red" x1="160" x2="150" y1="210" y2="330" /><line stroke="red" x1="250" x2="426" y1="210" y2="330" /><line stroke="red" x1="340" x2="426" y1="210" y2="330" /><line stroke="red" x1="410" x2="473" y1="210" y2="330" /><line stroke="red" x1="480" x2="550" y1="210" y2="330" /><line stroke="red" x1="570" x2="426" y1="210" y2="330" /><line stroke="red" x1="640" x2="826" y1="210" y2="330" /><line stroke="red" x1="710" x2="826" y1="210" y2="330" /><line stroke="red" x1="800" x2="826" y1="210" y2="330" /><line stroke="red" x1="870" x2="826" y1="210" y2="330" /><line stroke="red" x1="960" x2="826" y1="210" y2="330" /><line stroke="red" x1="1060" x2="426" y1="210" y2="330" /><line stroke="red" x1="1120" x2="426" y1="210" y2="330" /><line stroke="red" x1="1220" x2="1048" y1="210" y2="330" /><line stroke="red" x1="1360" x2="950" y1="210" y2="330" /><line stroke="red" x1="1440" x2="426" y1="210" y2="330" /><line stroke="red" x1="1520" x2="426" y1="210" y2="330" /><line stroke="red" x1="1640" x2="426" y1="210" y2="330" /><line stroke="red" x1="1670" x2="1190" y1="210" y2="330" /></svg>