<?xml version="1.0" encoding="utf-8" ?>
<svg baseProfile="full" height="500" version="1.1" width="1500" xmlns="http://www.w3.org/2000/svg" xmlns:ev="http://www.w3.org/2001/xml-events" xmlns:xlink="http://www.w3.org/1999/xlink"><defs /><text fill="black" x="0" y="100">VIETNAMESE </text><text fill="black" x="20" y="150">POS: </text><text fill="black" x="20" y="200">Source: </text><text fill="black" x="150" y="150">Nq</text><text fill="black" x="150" y="200">Một</text><text fill="black" x="230" y="150">Nn</text><text fill="black" x="230" y="200">hải_cảng</text><text fill="black" x="310" y="150">Vv</text><text fill="black" x="310" y="200">buôn_bán</text><text fill="black" x="390" y="150">Aa</text><text fill="black" x="390" y="200">sầm_uất</text><text fill="black" x="470" y="150">PU</text><text fill="black" x="470" y="200">,</text><text fill="black" x="550" y="150">Nn</text><text fill="black" x="550" y="200">nơi</text><text fill="black" x="630" y="150">Cp</text><text fill="black" x="630" y="200">mà</text><text fill="black" x="710" y="150">Aa</text><text fill="black" x="710" y="200">đủ</text><text fill="black" x="790" y="150">Nn</text><text fill="black" x="790" y="200">loại</text><text fill="black" x="870" y="150">Nn</text><text fill="black" x="870" y="200">chủng_tộc</text><text fill="black" x="950" y="150">Aa</text><text fill="black" x="950" y="200">đều_hoà</text><text fill="black" x="1030" y="150">Nn</text><text fill="black" x="1030" y="200">đồng</text><text fill="black" x="1110" y="150">Cp</text><text fill="black" x="1110" y="200">với</text><text fill="black" x="1190" y="150">Nn</text><text fill="black" x="1190" y="200">nhau</text><text fill="black" x="1270" y="150">PU</text><text fill="black" x="1270" y="200">.</text><text fill="black" x="0" y="450">ENGLISH </text><text fill="black" x="20" y="350">Target: </text><text fill="black" x="20" y="400">POS: </text><text fill="black" x="150" y="350">A</text><text fill="black" x="150" y="400">DT</text><text fill="black" x="230" y="350">busy</text><text fill="black" x="230" y="400">JJ</text><text fill="black" x="310" y="350">trading</text><text fill="black" x="310" y="400">NN</text><text fill="black" x="390" y="350">port</text><text fill="black" x="390" y="400">NN</text><text fill="black" x="470" y="350">,</text><text fill="black" x="470" y="400">,</text><text fill="black" x="550" y="350">where</text><text fill="black" x="550" y="400">WRB</text><text fill="black" x="630" y="350">people</text><text fill="black" x="630" y="400">NNS</text><text fill="black" x="710" y="350">of</text><text fill="black" x="710" y="400">IN</text><text fill="black" x="790" y="350">all</text><text fill="black" x="790" y="400">DT</text><text fill="black" x="870" y="350">races</text><text fill="black" x="870" y="400">NNS</text><text fill="black" x="950" y="350">intermingle</text><text fill="black" x="950" y="400">VBP</text><text fill="black" x="1030" y="350">with</text><text fill="black" x="1030" y="400">IN</text><text fill="black" x="1110" y="350">each</text><text fill="black" x="1110" y="400">DT</text><text fill="black" x="1190" y="350">other</text><text fill="black" x="1190" y="400">JJ</text><text fill="black" x="1270" y="350">.</text><text fill="black" x="1270" y="400">.</text><line stroke="red" x1="160" x2="150" y1="210" y2="330" /><line stroke="red" x1="270" x2="337" y1="210" y2="330" /><line stroke="red" x1="350" x2="337" y1="210" y2="330" /><line stroke="red" x1="420" x2="408" y1="210" y2="330" /><line stroke="red" x1="470" x2="470" y1="210" y2="330" /><line stroke="red" x1="560" x2="568" y1="210" y2="330" /><line stroke="red" x1="640" x2="995" y1="210" y2="330" /><line stroke="red" x1="720" x2="995" y1="210" y2="330" /><line stroke="red" x1="810" x2="995" y1="210" y2="330" /><line stroke="red" x1="910" x2="995" y1="210" y2="330" /><line stroke="red" x1="980" x2="995" y1="210" y2="330" /><line stroke="red" x1="1050" x2="995" y1="210" y2="330" /><line stroke="red" x1="1120" x2="1048" y1="210" y2="330" /><line stroke="red" x1="1210" x2="1128" y1="210" y2="330" /><line stroke="red" x1="1270" x2="1270" y1="210" y2="330" /></svg>