<?xml version="1.0" encoding="utf-8" ?>
<svg baseProfile="full" height="500" version="1.1" width="1500" xmlns="http://www.w3.org/2000/svg" xmlns:ev="http://www.w3.org/2001/xml-events" xmlns:xlink="http://www.w3.org/1999/xlink"><defs /><text fill="black" x="0" y="100">VIETNAMESE </text><text fill="black" x="20" y="150">POS: </text><text fill="black" x="20" y="200">Source: </text><text fill="black" x="150" y="150">Nq</text><text fill="black" x="150" y="200">Một</text><text fill="black" x="230" y="150">Nc</text><text fill="black" x="230" y="200">con</text><text fill="black" x="310" y="150">Nn</text><text fill="black" x="310" y="200">lạc_đà</text><text fill="black" x="390" y="150">Aa</text><text fill="black" x="390" y="200">có_thể</text><text fill="black" x="470" y="150">Vv</text><text fill="black" x="470" y="200">bắt_đầu</text><text fill="black" x="550" y="150">Vv</text><text fill="black" x="550" y="200">mang</text><text fill="black" x="630" y="150">Nn</text><text fill="black" x="630" y="200">hàng</text><text fill="black" x="710" y="150">FW</text><text fill="black" x="710" y="200">hóa</text><text fill="black" x="790" y="150">Aa</text><text fill="black" x="790" y="200">nặng</text><text fill="black" x="870" y="150">Nt</text><text fill="black" x="870" y="200">khi</text><text fill="black" x="950" y="150">Pp</text><text fill="black" x="950" y="200">nó</text><text fill="black" x="1030" y="150">Vv</text><text fill="black" x="1030" y="200">được</text><text fill="black" x="1110" y="150">Nq</text><text fill="black" x="1110" y="200">bốn</text><text fill="black" x="1190" y="150">Nn</text><text fill="black" x="1190" y="200">tuổi</text><text fill="black" x="1270" y="150">PU</text><text fill="black" x="1270" y="200">.</text><text fill="black" x="0" y="450">ENGLISH </text><text fill="black" x="20" y="350">Target: </text><text fill="black" x="20" y="400">POS: </text><text fill="black" x="150" y="350">A</text><text fill="black" x="150" y="400">DT</text><text fill="black" x="230" y="350">camel</text><text fill="black" x="230" y="400">NN</text><text fill="black" x="310" y="350">can</text><text fill="black" x="310" y="400">MD</text><text fill="black" x="390" y="350">begin</text><text fill="black" x="390" y="400">VB</text><text fill="black" x="470" y="350">to</text><text fill="black" x="470" y="400">TO</text><text fill="black" x="550" y="350">carry</text><text fill="black" x="550" y="400">VB</text><text fill="black" x="630" y="350">heavy</text><text fill="black" x="630" y="400">JJ</text><text fill="black" x="710" y="350">loads</text><text fill="black" x="710" y="400">NNS</text><text fill="black" x="790" y="350">when</text><text fill="black" x="790" y="400">WRB</text><text fill="black" x="870" y="350">it</text><text fill="black" x="870" y="400">PRP</text><text fill="black" x="950" y="350">is</text><text fill="black" x="950" y="400">VBZ</text><text fill="black" x="1030" y="350">4</text><text fill="black" x="1030" y="400">CD</text><text fill="black" x="1110" y="350">years</text><text fill="black" x="1110" y="400">NNS</text><text fill="black" x="1190" y="350">old</text><text fill="black" x="1190" y="400">JJ</text><text fill="black" x="1270" y="350">.</text><text fill="black" x="1270" y="400">.</text><line stroke="red" x1="160" x2="150" y1="210" y2="330" /><line stroke="red" x1="240" x2="248" y1="210" y2="330" /><line stroke="red" x1="340" x2="248" y1="210" y2="330" /><line stroke="red" x1="420" x2="319" y1="210" y2="330" /><line stroke="red" x1="500" x2="408" y1="210" y2="330" /><line stroke="red" x1="570" x2="568" y1="210" y2="330" /><line stroke="red" x1="650" x2="728" y1="210" y2="330" /><line stroke="red" x1="720" x2="728" y1="210" y2="330" /><line stroke="red" x1="810" x2="648" y1="210" y2="330" /><line stroke="red" x1="880" x2="808" y1="210" y2="330" /><line stroke="red" x1="960" x2="873" y1="210" y2="330" /><line stroke="red" x1="1120" x2="1030" y1="210" y2="330" /><line stroke="red" x1="1210" x2="1128" y1="210" y2="330" /><line stroke="red" x1="1270" x2="1270" y1="210" y2="330" /></svg>