<?xml version="1.0" encoding="utf-8" ?>
<svg baseProfile="full" height="500" version="1.1" width="800" xmlns="http://www.w3.org/2000/svg" xmlns:ev="http://www.w3.org/2001/xml-events" xmlns:xlink="http://www.w3.org/1999/xlink"><defs /><text fill="black" x="0" y="100">VIETNAMESE </text><text fill="black" x="20" y="150">POS: </text><text fill="black" x="20" y="200">Source: </text><text fill="black" x="150" y="150">Nq</text><text fill="black" x="150" y="200">Một</text><text fill="black" x="230" y="150">Nc</text><text fill="black" x="230" y="200">tấm</text><text fill="black" x="310" y="150">Nn</text><text fill="black" x="310" y="200">lịch</text><text fill="black" x="390" y="150">Vv</text><text fill="black" x="390" y="200">trông</text><text fill="black" x="470" y="150">Cp</text><text fill="black" x="470" y="200">thì</text><text fill="black" x="550" y="150">R</text><text fill="black" x="550" y="200">rất</text><text fill="black" x="630" y="150">Aa</text><text fill="black" x="630" y="200">đơn_giản</text><text fill="black" x="710" y="150">PU</text><text fill="black" x="710" y="200">.</text><text fill="black" x="0" y="450">ENGLISH </text><text fill="black" x="20" y="350">Target: </text><text fill="black" x="20" y="400">POS: </text><text fill="black" x="150" y="350">A</text><text fill="black" x="150" y="400">DT</text><text fill="black" x="230" y="350">calendar</text><text fill="black" x="230" y="400">NN</text><text fill="black" x="310" y="350">looks</text><text fill="black" x="310" y="400">VBZ</text><text fill="black" x="390" y="350">very</text><text fill="black" x="390" y="400">RB</text><text fill="black" x="470" y="350">simple</text><text fill="black" x="470" y="400">JJ</text><text fill="black" x="550" y="350">.</text><text fill="black" x="550" y="400">.</text><line stroke="red" x1="160" x2="150" y1="210" y2="330" /><line stroke="red" x1="240" x2="266" y1="210" y2="330" /><line stroke="red" x1="330" x2="266" y1="210" y2="330" /><line stroke="red" x1="410" x2="328" y1="210" y2="330" /><line stroke="red" x1="560" x2="408" y1="210" y2="330" /><line stroke="red" x1="670" x2="497" y1="210" y2="330" /><line stroke="red" x1="710" x2="550" y1="210" y2="330" /></svg>