<?xml version="1.0" encoding="utf-8" ?>
<svg baseProfile="full" height="500" version="1.1" width="1800" xmlns="http://www.w3.org/2000/svg" xmlns:ev="http://www.w3.org/2001/xml-events" xmlns:xlink="http://www.w3.org/1999/xlink"><defs /><text fill="black" x="0" y="100">VIETNAMESE </text><text fill="black" x="20" y="150">POS: </text><text fill="black" x="20" y="200">Source: </text><text fill="black" x="150" y="150">Nq</text><text fill="black" x="150" y="200">Một</text><text fill="black" x="230" y="150">Nc</text><text fill="black" x="230" y="200">chiếc</text><text fill="black" x="310" y="150">Nn</text><text fill="black" x="310" y="200">xe</text><text fill="black" x="390" y="150">Nn</text><text fill="black" x="390" y="200">ôtô</text><text fill="black" x="470" y="150">Vv</text><text fill="black" x="470" y="200">vượt</text><text fill="black" x="550" y="150">D</text><text fill="black" x="550" y="200">qua</text><text fill="black" x="630" y="150">Nn</text><text fill="black" x="630" y="200">mặt</text><text fill="black" x="710" y="150">Pp</text><text fill="black" x="710" y="200">tôi</text><text fill="black" x="790" y="150">Cp</text><text fill="black" x="790" y="200">với</text><text fill="black" x="870" y="150">Nn</text><text fill="black" x="870" y="200">tốc_độ</text><text fill="black" x="950" y="150">Nq</text><text fill="black" x="950" y="200">90</text><text fill="black" x="1030" y="150">Nu</text><text fill="black" x="1030" y="200">dặm</text><text fill="black" x="1110" y="150">Nr</text><text fill="black" x="1110" y="200">Anh</text><text fill="black" x="1190" y="150">Nq</text><text fill="black" x="1190" y="200">một</text><text fill="black" x="1270" y="150">Nt</text><text fill="black" x="1270" y="200">giờ</text><text fill="black" x="1350" y="150">Cm</text><text fill="black" x="1350" y="200">trên</text><text fill="black" x="1430" y="150">Nn</text><text fill="black" x="1430" y="200">đường_cao_tốc</text><text fill="black" x="1510" y="150">PU</text><text fill="black" x="1510" y="200">.</text><text fill="black" x="0" y="450">ENGLISH </text><text fill="black" x="20" y="350">Target: </text><text fill="black" x="20" y="400">POS: </text><text fill="black" x="150" y="350">A</text><text fill="black" x="150" y="400">DT</text><text fill="black" x="230" y="350">car</text><text fill="black" x="230" y="400">NN</text><text fill="black" x="310" y="350">passed</text><text fill="black" x="310" y="400">VBD</text><text fill="black" x="390" y="350">me</text><text fill="black" x="390" y="400">PRP</text><text fill="black" x="470" y="350">at</text><text fill="black" x="470" y="400">IN</text><text fill="black" x="550" y="350">90</text><text fill="black" x="550" y="400">CD</text><text fill="black" x="630" y="350">mph</text><text fill="black" x="630" y="400">NN</text><text fill="black" x="710" y="350">on</text><text fill="black" x="710" y="400">IN</text><text fill="black" x="790" y="350">the</text><text fill="black" x="790" y="400">DT</text><text fill="black" x="870" y="350">motorway</text><text fill="black" x="870" y="400">NN</text><text fill="black" x="950" y="350">.</text><text fill="black" x="950" y="400">.</text><line stroke="red" x1="160" x2="150" y1="210" y2="330" /><line stroke="red" x1="250" x2="239" y1="210" y2="330" /><line stroke="red" x1="320" x2="239" y1="210" y2="330" /><line stroke="red" x1="400" x2="239" y1="210" y2="330" /><line stroke="red" x1="490" x2="337" y1="210" y2="330" /><line stroke="red" x1="560" x2="337" y1="210" y2="330" /><line stroke="red" x1="640" x2="553" y1="210" y2="330" /><line stroke="red" x1="720" x2="393" y1="210" y2="330" /><line stroke="red" x1="800" x2="553" y1="210" y2="330" /><line stroke="red" x1="900" x2="553" y1="210" y2="330" /><line stroke="red" x1="960" x2="553" y1="210" y2="330" /><line stroke="red" x1="1040" x2="639" y1="210" y2="330" /><line stroke="red" x1="1120" x2="639" y1="210" y2="330" /><line stroke="red" x1="1200" x2="639" y1="210" y2="330" /><line stroke="red" x1="1280" x2="639" y1="210" y2="330" /><line stroke="red" x1="1370" x2="713" y1="210" y2="330" /><line stroke="red" x1="1490" x2="906" y1="210" y2="330" /><line stroke="red" x1="1510" x2="950" y1="210" y2="330" /></svg>