<?xml version="1.0" encoding="utf-8" ?>
<svg baseProfile="full" height="500" version="1.1" width="1600" xmlns="http://www.w3.org/2000/svg" xmlns:ev="http://www.w3.org/2001/xml-events" xmlns:xlink="http://www.w3.org/1999/xlink"><defs /><text fill="black" x="0" y="100">VIETNAMESE </text><text fill="black" x="20" y="150">POS: </text><text fill="black" x="20" y="200">Source: </text><text fill="black" x="150" y="150">Nq</text><text fill="black" x="150" y="200">Một</text><text fill="black" x="230" y="150">Nn</text><text fill="black" x="230" y="200">máy_ảnh</text><text fill="black" x="310" y="150">Aa</text><text fill="black" x="310" y="200">có_thể</text><text fill="black" x="390" y="150">Vv</text><text fill="black" x="390" y="200">trị_giá</text><text fill="black" x="470" y="150">Nq</text><text fill="black" x="470" y="200">vài</text><text fill="black" x="550" y="150">Nu</text><text fill="black" x="550" y="200">đô</text><text fill="black" x="630" y="150">PU</text><text fill="black" x="630" y="200">-</text><text fill="black" x="710" y="150">Vv</text><text fill="black" x="710" y="200">la</text><text fill="black" x="790" y="150">PU</text><text fill="black" x="790" y="200">.</text><text fill="black" x="0" y="450">ENGLISH </text><text fill="black" x="20" y="350">Target: </text><text fill="black" x="20" y="400">POS: </text><text fill="black" x="150" y="350">A</text><text fill="black" x="150" y="400">DT</text><text fill="black" x="230" y="350">camera</text><text fill="black" x="230" y="400">NN</text><text fill="black" x="310" y="350">may</text><text fill="black" x="310" y="400">MD</text><text fill="black" x="390" y="350">cost</text><text fill="black" x="390" y="400">VB</text><text fill="black" x="470" y="350">only</text><text fill="black" x="470" y="400">RB</text><text fill="black" x="550" y="350">a</text><text fill="black" x="550" y="400">DT</text><text fill="black" x="630" y="350">few</text><text fill="black" x="630" y="400">JJ</text><text fill="black" x="710" y="350">dollars</text><text fill="black" x="710" y="400">NNS</text><text fill="black" x="790" y="350">or</text><text fill="black" x="790" y="400">CC</text><text fill="black" x="870" y="350">it</text><text fill="black" x="870" y="400">PRP</text><text fill="black" x="950" y="350">may</text><text fill="black" x="950" y="400">MD</text><text fill="black" x="1030" y="350">cost</text><text fill="black" x="1030" y="400">VB</text><text fill="black" x="1110" y="350">hundreds</text><text fill="black" x="1110" y="400">NNS</text><text fill="black" x="1190" y="350">of</text><text fill="black" x="1190" y="400">IN</text><text fill="black" x="1270" y="350">dollars</text><text fill="black" x="1270" y="400">NNS</text><text fill="black" x="1350" y="350">.</text><text fill="black" x="1350" y="400">.</text><line stroke="red" x1="160" x2="150" y1="210" y2="330" /><line stroke="red" x1="260" x2="257" y1="210" y2="330" /><line stroke="red" x1="340" x2="319" y1="210" y2="330" /><line stroke="red" x1="420" x2="408" y1="210" y2="330" /><line stroke="red" x1="480" x2="639" y1="210" y2="330" /><line stroke="red" x1="560" x2="737" y1="210" y2="330" /><line stroke="red" x1="630" x2="1146" y1="210" y2="330" /><line stroke="red" x1="720" x2="1297" y1="210" y2="330" /><line stroke="red" x1="790" x2="1350" y1="210" y2="330" /></svg>