<?xml version="1.0" encoding="utf-8" ?>
<svg baseProfile="full" height="500" version="1.1" width="1000" xmlns="http://www.w3.org/2000/svg" xmlns:ev="http://www.w3.org/2001/xml-events" xmlns:xlink="http://www.w3.org/1999/xlink"><defs /><text fill="black" x="0" y="100">VIETNAMESE </text><text fill="black" x="20" y="150">POS: </text><text fill="black" x="20" y="200">Source: </text><text fill="black" x="150" y="150">Pp</text><text fill="black" x="150" y="200">Nó</text><text fill="black" x="230" y="150">Vv</text><text fill="black" x="230" y="200">nối</text><text fill="black" x="310" y="150">Cp</text><text fill="black" x="310" y="200">với</text><text fill="black" x="390" y="150">Nn</text><text fill="black" x="390" y="200">sông</text><text fill="black" x="470" y="150">Nr</text><text fill="black" x="470" y="200">Rhine</text><text fill="black" x="550" y="150">Cm</text><text fill="black" x="550" y="200">bằng</text><text fill="black" x="630" y="150">Nq</text><text fill="black" x="630" y="200">một</text><text fill="black" x="710" y="150">Nc</text><text fill="black" x="710" y="200">con</text><text fill="black" x="790" y="150">Nn</text><text fill="black" x="790" y="200">kênh_đào</text><text fill="black" x="870" y="150">PU</text><text fill="black" x="870" y="200">.</text><text fill="black" x="0" y="450">ENGLISH </text><text fill="black" x="20" y="350">Target: </text><text fill="black" x="20" y="400">POS: </text><text fill="black" x="150" y="350">A</text><text fill="black" x="150" y="400">DT</text><text fill="black" x="230" y="350">canal</text><text fill="black" x="230" y="400">NN</text><text fill="black" x="310" y="350">connects</text><text fill="black" x="310" y="400">VBZ</text><text fill="black" x="390" y="350">it</text><text fill="black" x="390" y="400">PRP</text><text fill="black" x="470" y="350">to</text><text fill="black" x="470" y="400">TO</text><text fill="black" x="550" y="350">the</text><text fill="black" x="550" y="400">DT</text><text fill="black" x="630" y="350">Rhine</text><text fill="black" x="630" y="400">NNP</text><text fill="black" x="710" y="350">River</text><text fill="black" x="710" y="400">NNP</text><text fill="black" x="790" y="350">.</text><text fill="black" x="790" y="400">.</text><line stroke="red" x1="160" x2="248" y1="210" y2="330" /><line stroke="red" x1="240" x2="346" y1="210" y2="330" /><line stroke="red" x1="320" x2="346" y1="210" y2="330" /><line stroke="red" x1="410" x2="648" y1="210" y2="330" /><line stroke="red" x1="490" x2="648" y1="210" y2="330" /><line stroke="red" x1="570" x2="648" y1="210" y2="330" /><line stroke="red" x1="720" x2="728" y1="210" y2="330" /><line stroke="red" x1="830" x2="728" y1="210" y2="330" /><line stroke="red" x1="870" x2="790" y1="210" y2="330" /></svg>