<?xml version="1.0" encoding="utf-8" ?>
<svg baseProfile="full" height="500" version="1.1" width="1300" xmlns="http://www.w3.org/2000/svg" xmlns:ev="http://www.w3.org/2001/xml-events" xmlns:xlink="http://www.w3.org/1999/xlink"><defs /><text fill="black" x="0" y="100">VIETNAMESE </text><text fill="black" x="20" y="150">POS: </text><text fill="black" x="20" y="200">Source: </text><text fill="black" x="150" y="150">R</text><text fill="black" x="150" y="200">Đại</text><text fill="black" x="230" y="150">FW</text><text fill="black" x="230" y="200">úy</text><text fill="black" x="310" y="150">Nn</text><text fill="black" x="310" y="200">Hải_quân</text><text fill="black" x="390" y="150">Vv</text><text fill="black" x="390" y="200">xếp</text><text fill="black" x="470" y="150">Aa</text><text fill="black" x="470" y="200">cao</text><text fill="black" x="550" y="150">Aa</text><text fill="black" x="550" y="200">hơn</text><text fill="black" x="630" y="150">Nr</text><text fill="black" x="630" y="200">Đại</text><text fill="black" x="710" y="150">FW</text><text fill="black" x="710" y="200">úy</text><text fill="black" x="790" y="150">Nn</text><text fill="black" x="790" y="200">bộ_binh</text><text fill="black" x="870" y="150">PU</text><text fill="black" x="870" y="200">.</text><text fill="black" x="0" y="450">ENGLISH </text><text fill="black" x="20" y="350">Target: </text><text fill="black" x="20" y="400">POS: </text><text fill="black" x="150" y="350">A</text><text fill="black" x="150" y="400">DT</text><text fill="black" x="230" y="350">captain</text><text fill="black" x="230" y="400">NN</text><text fill="black" x="310" y="350">in</text><text fill="black" x="310" y="400">IN</text><text fill="black" x="390" y="350">the</text><text fill="black" x="390" y="400">DT</text><text fill="black" x="470" y="350">Navy</text><text fill="black" x="470" y="400">NNP</text><text fill="black" x="550" y="350">ranks</text><text fill="black" x="550" y="400">NNS</text><text fill="black" x="630" y="350">above</text><text fill="black" x="630" y="400">IN</text><text fill="black" x="710" y="350">a</text><text fill="black" x="710" y="400">DT</text><text fill="black" x="790" y="350">captain</text><text fill="black" x="790" y="400">NN</text><text fill="black" x="870" y="350">in</text><text fill="black" x="870" y="400">IN</text><text fill="black" x="950" y="350">the</text><text fill="black" x="950" y="400">DT</text><text fill="black" x="1030" y="350">Army</text><text fill="black" x="1030" y="400">NNP</text><text fill="black" x="1110" y="350">.</text><text fill="black" x="1110" y="400">.</text><line stroke="red" x1="160" x2="1048" y1="210" y2="330" /><line stroke="red" x1="240" x2="1048" y1="210" y2="330" /><line stroke="red" x1="350" x2="488" y1="210" y2="330" /><line stroke="red" x1="400" x2="1048" y1="210" y2="330" /><line stroke="red" x1="480" x2="648" y1="210" y2="330" /><line stroke="red" x1="560" x2="648" y1="210" y2="330" /><line stroke="red" x1="640" x2="1048" y1="210" y2="330" /><line stroke="red" x1="720" x2="1048" y1="210" y2="330" /><line stroke="red" x1="820" x2="1048" y1="210" y2="330" /><line stroke="red" x1="870" x2="1110" y1="210" y2="330" /></svg>