<?xml version="1.0" encoding="utf-8" ?>
<svg baseProfile="full" height="500" version="1.1" width="1000" xmlns="http://www.w3.org/2000/svg" xmlns:ev="http://www.w3.org/2001/xml-events" xmlns:xlink="http://www.w3.org/1999/xlink"><defs /><text fill="black" x="0" y="100">VIETNAMESE </text><text fill="black" x="20" y="150">POS: </text><text fill="black" x="20" y="200">Source: </text><text fill="black" x="150" y="150">Nc</text><text fill="black" x="150" y="200">Chiếc</text><text fill="black" x="230" y="150">Nn</text><text fill="black" x="230" y="200">xe</text><text fill="black" x="310" y="150">Nn</text><text fill="black" x="310" y="200">ôtô</text><text fill="black" x="390" y="150">R</text><text fill="black" x="390" y="200">thình_lình</text><text fill="black" x="470" y="150">Vv</text><text fill="black" x="470" y="200">đâm</text><text fill="black" x="550" y="150">Aa</text><text fill="black" x="550" y="200">ngang</text><text fill="black" x="630" y="150">Nn</text><text fill="black" x="630" y="200">trước</text><text fill="black" x="710" y="150">Nn</text><text fill="black" x="710" y="200">mặt</text><text fill="black" x="790" y="150">Pp</text><text fill="black" x="790" y="200">tôi</text><text fill="black" x="870" y="150">PU</text><text fill="black" x="870" y="200">.</text><text fill="black" x="0" y="450">ENGLISH </text><text fill="black" x="20" y="350">Target: </text><text fill="black" x="20" y="400">POS: </text><text fill="black" x="150" y="350">A</text><text fill="black" x="150" y="400">DT</text><text fill="black" x="230" y="350">car</text><text fill="black" x="230" y="400">NN</text><text fill="black" x="310" y="350">suddenly</text><text fill="black" x="310" y="400">RB</text><text fill="black" x="390" y="350">pulled</text><text fill="black" x="390" y="400">VBD</text><text fill="black" x="470" y="350">out</text><text fill="black" x="470" y="400">RP</text><text fill="black" x="550" y="350">in</text><text fill="black" x="550" y="400">IN</text><text fill="black" x="630" y="350">front</text><text fill="black" x="630" y="400">NN</text><text fill="black" x="710" y="350">of</text><text fill="black" x="710" y="400">IN</text><text fill="black" x="790" y="350">me</text><text fill="black" x="790" y="400">PRP</text><text fill="black" x="870" y="350">.</text><text fill="black" x="870" y="400">.</text><line stroke="red" x1="170" x2="239" y1="210" y2="330" /><line stroke="red" x1="240" x2="239" y1="210" y2="330" /><line stroke="red" x1="320" x2="239" y1="210" y2="330" /><line stroke="red" x1="440" x2="346" y1="210" y2="330" /><line stroke="red" x1="480" x2="417" y1="210" y2="330" /><line stroke="red" x1="570" x2="417" y1="210" y2="330" /><line stroke="red" x1="650" x2="648" y1="210" y2="330" /><line stroke="red" x1="720" x2="648" y1="210" y2="330" /><line stroke="red" x1="800" x2="793" y1="210" y2="330" /><line stroke="red" x1="870" x2="870" y1="210" y2="330" /></svg>