<?xml version="1.0" encoding="utf-8" ?>
<svg baseProfile="full" height="500" version="1.1" width="1300" xmlns="http://www.w3.org/2000/svg" xmlns:ev="http://www.w3.org/2001/xml-events" xmlns:xlink="http://www.w3.org/1999/xlink"><defs /><text fill="black" x="0" y="100">VIETNAMESE </text><text fill="black" x="20" y="150">POS: </text><text fill="black" x="20" y="200">Source: </text><text fill="black" x="150" y="150">Nq</text><text fill="black" x="150" y="200">Một</text><text fill="black" x="230" y="150">Nc</text><text fill="black" x="230" y="200">cái</text><text fill="black" x="310" y="150">Nn</text><text fill="black" x="310" y="200">vali</text><text fill="black" x="390" y="150">Ve</text><text fill="black" x="390" y="200">có</text><text fill="black" x="470" y="150">Nq</text><text fill="black" x="470" y="200">những</text><text fill="black" x="550" y="150">Nn</text><text fill="black" x="550" y="200">ngăn</text><text fill="black" x="630" y="150">Aa</text><text fill="black" x="630" y="200">riêng_biệt</text><text fill="black" x="710" y="150">Vv</text><text fill="black" x="710" y="200">đựng</text><text fill="black" x="790" y="150">Nn</text><text fill="black" x="790" y="200">giày</text><text fill="black" x="870" y="150">PU</text><text fill="black" x="870" y="200">,</text><text fill="black" x="950" y="150">Nn</text><text fill="black" x="950" y="200">đồ</text><text fill="black" x="1030" y="150">Vv</text><text fill="black" x="1030" y="200">trang_sức</text><text fill="black" x="1110" y="150">PU</text><text fill="black" x="1110" y="200">.</text><text fill="black" x="0" y="450">ENGLISH </text><text fill="black" x="20" y="350">Target: </text><text fill="black" x="20" y="400">POS: </text><text fill="black" x="150" y="350">A</text><text fill="black" x="150" y="400">DT</text><text fill="black" x="230" y="350">case</text><text fill="black" x="230" y="400">NN</text><text fill="black" x="310" y="350">with</text><text fill="black" x="310" y="400">IN</text><text fill="black" x="390" y="350">separate</text><text fill="black" x="390" y="400">JJ</text><text fill="black" x="470" y="350">compartments</text><text fill="black" x="470" y="400">NNS</text><text fill="black" x="550" y="350">for</text><text fill="black" x="550" y="400">IN</text><text fill="black" x="630" y="350">shoes</text><text fill="black" x="630" y="400">NNS</text><text fill="black" x="710" y="350">,</text><text fill="black" x="710" y="400">,</text><text fill="black" x="790" y="350">jewelry</text><text fill="black" x="790" y="400">NN</text><text fill="black" x="870" y="350">,</text><text fill="black" x="870" y="400">,</text><text fill="black" x="950" y="350">etc</text><text fill="black" x="950" y="400">NN</text><text fill="black" x="1030" y="350">.</text><text fill="black" x="1030" y="400">.</text><line stroke="red" x1="160" x2="150" y1="210" y2="330" /><line stroke="red" x1="240" x2="524" y1="210" y2="330" /><line stroke="red" x1="330" x2="524" y1="210" y2="330" /><line stroke="red" x1="490" x2="524" y1="210" y2="330" /><line stroke="red" x1="570" x2="524" y1="210" y2="330" /><line stroke="red" x1="680" x2="524" y1="210" y2="330" /><line stroke="red" x1="730" x2="524" y1="210" y2="330" /><line stroke="red" x1="810" x2="648" y1="210" y2="330" /><line stroke="red" x1="870" x2="710" y1="210" y2="330" /><line stroke="red" x1="960" x2="817" y1="210" y2="330" /><line stroke="red" x1="1070" x2="817" y1="210" y2="330" /><line stroke="red" x1="1110" x2="1030" y1="210" y2="330" /></svg>