<?xml version="1.0" encoding="utf-8" ?>
<svg baseProfile="full" height="500" version="1.1" width="900" xmlns="http://www.w3.org/2000/svg" xmlns:ev="http://www.w3.org/2001/xml-events" xmlns:xlink="http://www.w3.org/1999/xlink"><defs /><text fill="black" x="0" y="100">VIETNAMESE </text><text fill="black" x="20" y="150">POS: </text><text fill="black" x="20" y="200">Source: </text><text fill="black" x="150" y="150">Nq</text><text fill="black" x="150" y="200">Đôi</text><text fill="black" x="230" y="150">Nn</text><text fill="black" x="230" y="200">mắt</text><text fill="black" x="310" y="150">Nc</text><text fill="black" x="310" y="200">con</text><text fill="black" x="390" y="150">Nn</text><text fill="black" x="390" y="200">mèo</text><text fill="black" x="470" y="150">Aa</text><text fill="black" x="470" y="200">long_lanh</text><text fill="black" x="550" y="150">Cm</text><text fill="black" x="550" y="200">trong</text><text fill="black" x="630" y="150">Nt</text><text fill="black" x="630" y="200">đêm_tối</text><text fill="black" x="710" y="150">PU</text><text fill="black" x="710" y="200">.</text><text fill="black" x="0" y="450">ENGLISH </text><text fill="black" x="20" y="350">Target: </text><text fill="black" x="20" y="400">POS: </text><text fill="black" x="150" y="350">A</text><text fill="black" x="150" y="400">DT</text><text fill="black" x="230" y="350">cat</text><text fill="black" x="230" y="400">NN</text><text fill="black" x="310" y="350">'s</text><text fill="black" x="310" y="400">POS</text><text fill="black" x="390" y="350">eyes</text><text fill="black" x="390" y="400">NNS</text><text fill="black" x="470" y="350">gleaming</text><text fill="black" x="470" y="400">VBG</text><text fill="black" x="550" y="350">in</text><text fill="black" x="550" y="400">IN</text><text fill="black" x="630" y="350">the</text><text fill="black" x="630" y="400">DT</text><text fill="black" x="710" y="350">dark</text><text fill="black" x="710" y="400">NN</text><text fill="black" x="790" y="350">.</text><text fill="black" x="790" y="400">.</text><line stroke="red" x1="160" x2="408" y1="210" y2="330" /><line stroke="red" x1="240" x2="408" y1="210" y2="330" /><line stroke="red" x1="320" x2="239" y1="210" y2="330" /><line stroke="red" x1="400" x2="239" y1="210" y2="330" /><line stroke="red" x1="510" x2="506" y1="210" y2="330" /><line stroke="red" x1="570" x2="553" y1="210" y2="330" /><line stroke="red" x1="660" x2="728" y1="210" y2="330" /><line stroke="red" x1="710" x2="790" y1="210" y2="330" /></svg>