<?xml version="1.0" encoding="utf-8" ?>
<svg baseProfile="full" height="500" version="1.1" width="900" xmlns="http://www.w3.org/2000/svg" xmlns:ev="http://www.w3.org/2001/xml-events" xmlns:xlink="http://www.w3.org/1999/xlink"><defs /><text fill="black" x="0" y="100">VIETNAMESE </text><text fill="black" x="20" y="150">POS: </text><text fill="black" x="20" y="200">Source: </text><text fill="black" x="150" y="150">Aa</text><text fill="black" x="150" y="200">Sâu</text><text fill="black" x="230" y="150">Vc</text><text fill="black" x="230" y="200">là</text><text fill="black" x="310" y="150">Nn</text><text fill="black" x="310" y="200">ấu_trùng</text><text fill="black" x="390" y="150">Cm</text><text fill="black" x="390" y="200">của</text><text fill="black" x="470" y="150">Nc</text><text fill="black" x="470" y="200">con</text><text fill="black" x="550" y="150">Nn</text><text fill="black" x="550" y="200">bướm</text><text fill="black" x="630" y="150">PU</text><text fill="black" x="630" y="200">.</text><text fill="black" x="0" y="450">ENGLISH </text><text fill="black" x="20" y="350">Target: </text><text fill="black" x="20" y="400">POS: </text><text fill="black" x="150" y="350">A</text><text fill="black" x="150" y="400">DT</text><text fill="black" x="230" y="350">caterpillar</text><text fill="black" x="230" y="400">NN</text><text fill="black" x="310" y="350">is</text><text fill="black" x="310" y="400">VBZ</text><text fill="black" x="390" y="350">the</text><text fill="black" x="390" y="400">DT</text><text fill="black" x="470" y="350">larva</text><text fill="black" x="470" y="400">NN</text><text fill="black" x="550" y="350">of</text><text fill="black" x="550" y="400">IN</text><text fill="black" x="630" y="350">a</text><text fill="black" x="630" y="400">DT</text><text fill="black" x="710" y="350">butterfly</text><text fill="black" x="710" y="400">NN</text><text fill="black" x="790" y="350">.</text><text fill="black" x="790" y="400">.</text><line stroke="red" x1="160" x2="275" y1="210" y2="330" /><line stroke="red" x1="240" x2="313" y1="210" y2="330" /><line stroke="red" x1="350" x2="488" y1="210" y2="330" /><line stroke="red" x1="480" x2="746" y1="210" y2="330" /><line stroke="red" x1="570" x2="746" y1="210" y2="330" /><line stroke="red" x1="630" x2="790" y1="210" y2="330" /></svg>