<?xml version="1.0" encoding="utf-8" ?>
<svg baseProfile="full" height="500" version="1.1" width="2200" xmlns="http://www.w3.org/2000/svg" xmlns:ev="http://www.w3.org/2001/xml-events" xmlns:xlink="http://www.w3.org/1999/xlink"><defs /><text fill="black" x="0" y="100">VIETNAMESE </text><text fill="black" x="20" y="150">POS: </text><text fill="black" x="20" y="200">Source: </text><text fill="black" x="150" y="150">Nn</text><text fill="black" x="150" y="200">Da</text><text fill="black" x="230" y="150">Aa</text><text fill="black" x="230" y="200">mới</text><text fill="black" x="310" y="150">Cm</text><text fill="black" x="310" y="200">của</text><text fill="black" x="390" y="150">Nn</text><text fill="black" x="390" y="200">sâu</text><text fill="black" x="470" y="150">Nn</text><text fill="black" x="470" y="200">bướm</text><text fill="black" x="550" y="150">Aa</text><text fill="black" x="550" y="200">có_thể</text><text fill="black" x="630" y="150">R</text><text fill="black" x="630" y="200">hơi</text><text fill="black" x="710" y="150">Aa</text><text fill="black" x="710" y="200">khác</text><text fill="black" x="790" y="150">Cp</text><text fill="black" x="790" y="200">với</text><text fill="black" x="870" y="150">Nn</text><text fill="black" x="870" y="200">màu</text><text fill="black" x="950" y="150">Cm</text><text fill="black" x="950" y="200">của</text><text fill="black" x="1030" y="150">Nn</text><text fill="black" x="1030" y="200">da</text><text fill="black" x="1110" y="150">Aa</text><text fill="black" x="1110" y="200">cũ</text><text fill="black" x="1190" y="150">Nt</text><text fill="black" x="1190" y="200">lúc</text><text fill="black" x="1270" y="150">Pp</text><text fill="black" x="1270" y="200">nó</text><text fill="black" x="1350" y="150">R</text><text fill="black" x="1350" y="200">vừa_mới</text><text fill="black" x="1430" y="150">Vv</text><text fill="black" x="1430" y="200">bò</text><text fill="black" x="1510" y="150">D</text><text fill="black" x="1510" y="200">ra</text><text fill="black" x="1590" y="150">PU</text><text fill="black" x="1590" y="200">.</text><text fill="black" x="0" y="450">ENGLISH </text><text fill="black" x="20" y="350">Target: </text><text fill="black" x="20" y="400">POS: </text><text fill="black" x="150" y="350">A</text><text fill="black" x="150" y="400">DT</text><text fill="black" x="230" y="350">caterpillar</text><text fill="black" x="230" y="400">NN</text><text fill="black" x="310" y="350">'</text><text fill="black" x="310" y="400">POS</text><text fill="black" x="390" y="350">s</text><text fill="black" x="390" y="400">NN</text><text fill="black" x="470" y="350">new</text><text fill="black" x="470" y="400">JJ</text><text fill="black" x="550" y="350">skin</text><text fill="black" x="550" y="400">NN</text><text fill="black" x="630" y="350">may</text><text fill="black" x="630" y="400">MD</text><text fill="black" x="710" y="350">be</text><text fill="black" x="710" y="400">VB</text><text fill="black" x="790" y="350">quite</text><text fill="black" x="790" y="400">RB</text><text fill="black" x="870" y="350">different</text><text fill="black" x="870" y="400">JJ</text><text fill="black" x="950" y="350">in</text><text fill="black" x="950" y="400">IN</text><text fill="black" x="1030" y="350">color</text><text fill="black" x="1030" y="400">NN</text><text fill="black" x="1110" y="350">from</text><text fill="black" x="1110" y="400">IN</text><text fill="black" x="1190" y="350">the</text><text fill="black" x="1190" y="400">DT</text><text fill="black" x="1270" y="350">old</text><text fill="black" x="1270" y="400">JJ</text><text fill="black" x="1350" y="350">skin</text><text fill="black" x="1350" y="400">NN</text><text fill="black" x="1430" y="350">it</text><text fill="black" x="1430" y="400">PRP</text><text fill="black" x="1510" y="350">just</text><text fill="black" x="1510" y="400">RB</text><text fill="black" x="1590" y="350">crawled</text><text fill="black" x="1590" y="400">VBD</text><text fill="black" x="1670" y="350">out</text><text fill="black" x="1670" y="400">IN</text><text fill="black" x="1750" y="350">of</text><text fill="black" x="1750" y="400">IN</text><text fill="black" x="1830" y="350">.</text><text fill="black" x="1830" y="400">.</text><line stroke="red" x1="160" x2="275" y1="210" y2="330" /><line stroke="red" x1="240" x2="479" y1="210" y2="330" /><line stroke="red" x1="400" x2="275" y1="210" y2="330" /><line stroke="red" x1="490" x2="275" y1="210" y2="330" /><line stroke="red" x1="580" x2="639" y1="210" y2="330" /><line stroke="red" x1="640" x2="808" y1="210" y2="330" /><line stroke="red" x1="730" x2="906" y1="210" y2="330" /><line stroke="red" x1="800" x2="906" y1="210" y2="330" /><line stroke="red" x1="880" x2="1048" y1="210" y2="330" /><line stroke="red" x1="1040" x2="1368" y1="210" y2="330" /><line stroke="red" x1="1120" x2="1279" y1="210" y2="330" /><line stroke="red" x1="1200" x2="1617" y1="210" y2="330" /><line stroke="red" x1="1280" x2="1433" y1="210" y2="330" /><line stroke="red" x1="1380" x2="1528" y1="210" y2="330" /><line stroke="red" x1="1440" x2="1617" y1="210" y2="330" /><line stroke="red" x1="1520" x2="1679" y1="210" y2="330" /><line stroke="red" x1="1590" x2="1830" y1="210" y2="330" /></svg>