<?xml version="1.0" encoding="utf-8" ?>
<svg baseProfile="full" height="500" version="1.1" width="1000" xmlns="http://www.w3.org/2000/svg" xmlns:ev="http://www.w3.org/2001/xml-events" xmlns:xlink="http://www.w3.org/1999/xlink"><defs /><text fill="black" x="0" y="100">VIETNAMESE </text><text fill="black" x="20" y="150">POS: </text><text fill="black" x="20" y="200">Source: </text><text fill="black" x="150" y="150">Nq</text><text fill="black" x="150" y="200">Một</text><text fill="black" x="230" y="150">Nn</text><text fill="black" x="230" y="200">lò_sưởi</text><text fill="black" x="310" y="150">Nn</text><text fill="black" x="310" y="200">trung_tâm</text><text fill="black" x="390" y="150">PU</text><text fill="black" x="390" y="200">,</text><text fill="black" x="470" y="150">Nn</text><text fill="black" x="470" y="200">nồi</text><text fill="black" x="550" y="150">Nn</text><text fill="black" x="550" y="200">súp_de</text><text fill="black" x="630" y="150">Vv</text><text fill="black" x="630" y="200">đốt</text><text fill="black" x="710" y="150">Cm</text><text fill="black" x="710" y="200">bằng</text><text fill="black" x="790" y="150">Nn</text><text fill="black" x="790" y="200">dầu</text><text fill="black" x="870" y="150">PU</text><text fill="black" x="870" y="200">.</text><text fill="black" x="0" y="450">ENGLISH </text><text fill="black" x="20" y="350">Target: </text><text fill="black" x="20" y="400">POS: </text><text fill="black" x="150" y="350">A</text><text fill="black" x="150" y="400">DT</text><text fill="black" x="230" y="350">central</text><text fill="black" x="230" y="400">JJ</text><text fill="black" x="310" y="350">heating</text><text fill="black" x="310" y="400">NN</text><text fill="black" x="390" y="350">,</text><text fill="black" x="390" y="400">,</text><text fill="black" x="470" y="350">boiler</text><text fill="black" x="470" y="400">NN</text><text fill="black" x="550" y="350">that</text><text fill="black" x="550" y="400">WDT</text><text fill="black" x="630" y="350">burns</text><text fill="black" x="630" y="400">VBZ</text><text fill="black" x="710" y="350">oil</text><text fill="black" x="710" y="400">NN</text><text fill="black" x="790" y="350">.</text><text fill="black" x="790" y="400">.</text><line stroke="red" x1="160" x2="150" y1="210" y2="330" /><line stroke="red" x1="260" x2="337" y1="210" y2="330" /><line stroke="red" x1="350" x2="257" y1="210" y2="330" /><line stroke="red" x1="390" x2="390" y1="210" y2="330" /><line stroke="red" x1="480" x2="497" y1="210" y2="330" /><line stroke="red" x1="580" x2="497" y1="210" y2="330" /><line stroke="red" x1="640" x2="497" y1="210" y2="330" /><line stroke="red" x1="730" x2="497" y1="210" y2="330" /><line stroke="red" x1="800" x2="719" y1="210" y2="330" /><line stroke="red" x1="870" x2="790" y1="210" y2="330" /></svg>