<?xml version="1.0" encoding="utf-8" ?>
<svg baseProfile="full" height="500" version="1.1" width="1500" xmlns="http://www.w3.org/2000/svg" xmlns:ev="http://www.w3.org/2001/xml-events" xmlns:xlink="http://www.w3.org/1999/xlink"><defs /><text fill="black" x="0" y="100">VIETNAMESE </text><text fill="black" x="20" y="150">POS: </text><text fill="black" x="20" y="200">Source: </text><text fill="black" x="150" y="150">Nq</text><text fill="black" x="150" y="200">Một</text><text fill="black" x="230" y="150">Nc</text><text fill="black" x="230" y="200">cuộc</text><text fill="black" x="310" y="150">Vv</text><text fill="black" x="310" y="200">tranh_cãi</text><text fill="black" x="390" y="150">Aa</text><text fill="black" x="390" y="200">gay_gắt</text><text fill="black" x="470" y="150">Cm</text><text fill="black" x="470" y="200">giữa</text><text fill="black" x="550" y="150">Nq</text><text fill="black" x="550" y="200">các</text><text fill="black" x="630" y="150">Nn</text><text fill="black" x="630" y="200">trại</text><text fill="black" x="710" y="150">Nn</text><text fill="black" x="710" y="200">chủ</text><text fill="black" x="790" y="150">Cp</text><text fill="black" x="790" y="200">với</text><text fill="black" x="870" y="150">Nn</text><text fill="black" x="870" y="200">chính_phủ</text><text fill="black" x="950" y="150">Cm</text><text fill="black" x="950" y="200">về</text><text fill="black" x="1030" y="150">Nq</text><text fill="black" x="1030" y="200">những</text><text fill="black" x="1110" y="150">Nn</text><text fill="black" x="1110" y="200">khoản</text><text fill="black" x="1190" y="150">Vv</text><text fill="black" x="1190" y="200">tài_trợ</text><text fill="black" x="1270" y="150">PU</text><text fill="black" x="1270" y="200">.</text><text fill="black" x="0" y="450">ENGLISH </text><text fill="black" x="20" y="350">Target: </text><text fill="black" x="20" y="400">POS: </text><text fill="black" x="150" y="350">A</text><text fill="black" x="150" y="400">DT</text><text fill="black" x="230" y="350">catfight</text><text fill="black" x="230" y="400">NN</text><text fill="black" x="310" y="350">between</text><text fill="black" x="310" y="400">IN</text><text fill="black" x="390" y="350">farmers</text><text fill="black" x="390" y="400">NNS</text><text fill="black" x="470" y="350">and</text><text fill="black" x="470" y="400">CC</text><text fill="black" x="550" y="350">the</text><text fill="black" x="550" y="400">DT</text><text fill="black" x="630" y="350">government</text><text fill="black" x="630" y="400">NN</text><text fill="black" x="710" y="350">over</text><text fill="black" x="710" y="400">IN</text><text fill="black" x="790" y="350">subsidies</text><text fill="black" x="790" y="400">NNS</text><text fill="black" x="870" y="350">.</text><text fill="black" x="870" y="400">.</text><line stroke="red" x1="160" x2="150" y1="210" y2="330" /><line stroke="red" x1="250" x2="266" y1="210" y2="330" /><line stroke="red" x1="350" x2="266" y1="210" y2="330" /><line stroke="red" x1="420" x2="266" y1="210" y2="330" /><line stroke="red" x1="490" x2="337" y1="210" y2="330" /><line stroke="red" x1="650" x2="417" y1="210" y2="330" /><line stroke="red" x1="720" x2="266" y1="210" y2="330" /><line stroke="red" x1="800" x2="266" y1="210" y2="330" /><line stroke="red" x1="910" x2="675" y1="210" y2="330" /><line stroke="red" x1="960" x2="826" y1="210" y2="330" /><line stroke="red" x1="1050" x2="826" y1="210" y2="330" /><line stroke="red" x1="1130" x2="826" y1="210" y2="330" /><line stroke="red" x1="1220" x2="826" y1="210" y2="330" /><line stroke="red" x1="1270" x2="870" y1="210" y2="330" /></svg>