<?xml version="1.0" encoding="utf-8" ?>
<svg baseProfile="full" height="500" version="1.1" width="1600" xmlns="http://www.w3.org/2000/svg" xmlns:ev="http://www.w3.org/2001/xml-events" xmlns:xlink="http://www.w3.org/1999/xlink"><defs /><text fill="black" x="0" y="100">VIETNAMESE </text><text fill="black" x="20" y="150">POS: </text><text fill="black" x="20" y="200">Source: </text><text fill="black" x="150" y="150">Nq</text><text fill="black" x="150" y="200">Một_số</text><text fill="black" x="230" y="150">Nu</text><text fill="black" x="230" y="200">phần_trăm</text><text fill="black" x="310" y="150">Nn</text><text fill="black" x="310" y="200">tiền_lương</text><text fill="black" x="390" y="150">Cm</text><text fill="black" x="390" y="200">của</text><text fill="black" x="470" y="150">Pp</text><text fill="black" x="470" y="200">bạn</text><text fill="black" x="550" y="150">Vv</text><text fill="black" x="550" y="200">được</text><text fill="black" x="630" y="150">Nn</text><text fill="black" x="630" y="200">ông_chủ</text><text fill="black" x="710" y="150">Cm</text><text fill="black" x="710" y="200">của</text><text fill="black" x="790" y="150">Pp</text><text fill="black" x="790" y="200">bạn</text><text fill="black" x="870" y="150">Vv</text><text fill="black" x="870" y="200">giữ</text><text fill="black" x="950" y="150">R</text><text fill="black" x="950" y="200">lại</text><text fill="black" x="1030" y="150">Cm</text><text fill="black" x="1030" y="200">để</text><text fill="black" x="1110" y="150">Vv</text><text fill="black" x="1110" y="200">trả</text><text fill="black" x="1190" y="150">Nn</text><text fill="black" x="1190" y="200">bảo_hiểm</text><text fill="black" x="1270" y="150">PU</text><text fill="black" x="1270" y="200">.</text><text fill="black" x="0" y="450">ENGLISH </text><text fill="black" x="20" y="350">Target: </text><text fill="black" x="20" y="400">POS: </text><text fill="black" x="150" y="350">A</text><text fill="black" x="150" y="400">DT</text><text fill="black" x="230" y="350">certain</text><text fill="black" x="230" y="400">JJ</text><text fill="black" x="310" y="350">percentage</text><text fill="black" x="310" y="400">NN</text><text fill="black" x="390" y="350">of</text><text fill="black" x="390" y="400">IN</text><text fill="black" x="470" y="350">your</text><text fill="black" x="470" y="400">PRP$</text><text fill="black" x="550" y="350">salary</text><text fill="black" x="550" y="400">NN</text><text fill="black" x="630" y="350">is</text><text fill="black" x="630" y="400">VBZ</text><text fill="black" x="710" y="350">kept</text><text fill="black" x="710" y="400">VBN</text><text fill="black" x="790" y="350">back</text><text fill="black" x="790" y="400">RB</text><text fill="black" x="870" y="350">by</text><text fill="black" x="870" y="400">IN</text><text fill="black" x="950" y="350">your</text><text fill="black" x="950" y="400">PRP$</text><text fill="black" x="1030" y="350">employer</text><text fill="black" x="1030" y="400">NN</text><text fill="black" x="1110" y="350">as</text><text fill="black" x="1110" y="400">IN</text><text fill="black" x="1190" y="350">an</text><text fill="black" x="1190" y="400">DT</text><text fill="black" x="1270" y="350">insurance</text><text fill="black" x="1270" y="400">NN</text><text fill="black" x="1350" y="350">.</text><text fill="black" x="1350" y="400">.</text><line stroke="red" x1="180" x2="355" y1="210" y2="330" /><line stroke="red" x1="270" x2="355" y1="210" y2="330" /><line stroke="red" x1="360" x2="577" y1="210" y2="330" /><line stroke="red" x1="480" x2="488" y1="210" y2="330" /><line stroke="red" x1="660" x2="1066" y1="210" y2="330" /><line stroke="red" x1="800" x2="968" y1="210" y2="330" /><line stroke="red" x1="880" x2="728" y1="210" y2="330" /><line stroke="red" x1="960" x2="808" y1="210" y2="330" /><line stroke="red" x1="1040" x2="1066" y1="210" y2="330" /><line stroke="red" x1="1120" x2="1306" y1="210" y2="330" /><line stroke="red" x1="1230" x2="1306" y1="210" y2="330" /><line stroke="red" x1="1270" x2="1350" y1="210" y2="330" /></svg>