<?xml version="1.0" encoding="utf-8" ?>
<svg baseProfile="full" height="500" version="1.1" width="1200" xmlns="http://www.w3.org/2000/svg" xmlns:ev="http://www.w3.org/2001/xml-events" xmlns:xlink="http://www.w3.org/1999/xlink"><defs /><text fill="black" x="0" y="100">VIETNAMESE </text><text fill="black" x="20" y="150">POS: </text><text fill="black" x="20" y="200">Source: </text><text fill="black" x="150" y="150">Nq</text><text fill="black" x="150" y="200">Một_số</text><text fill="black" x="230" y="150">Nn</text><text fill="black" x="230" y="200">hành_động</text><text fill="black" x="310" y="150">Vv</text><text fill="black" x="310" y="200">mang</text><text fill="black" x="390" y="150">Nn</text><text fill="black" x="390" y="200">tính_chất</text><text fill="black" x="470" y="150">Vv</text><text fill="black" x="470" y="200">thù_nghịch</text><text fill="black" x="550" y="150">R</text><text fill="black" x="550" y="200">đã</text><text fill="black" x="630" y="150">R</text><text fill="black" x="630" y="200">dần_dần</text><text fill="black" x="710" y="150">Vv</text><text fill="black" x="710" y="200">xuất_hiện</text><text fill="black" x="790" y="150">Cm</text><text fill="black" x="790" y="200">trong</text><text fill="black" x="870" y="150">Nn</text><text fill="black" x="870" y="200">trận_đấu</text><text fill="black" x="950" y="150">PU</text><text fill="black" x="950" y="200">.</text><text fill="black" x="0" y="450">ENGLISH </text><text fill="black" x="20" y="350">Target: </text><text fill="black" x="20" y="400">POS: </text><text fill="black" x="150" y="350">A</text><text fill="black" x="150" y="400">DT</text><text fill="black" x="230" y="350">certain</text><text fill="black" x="230" y="400">JJ</text><text fill="black" x="310" y="350">a</text><text fill="black" x="310" y="400">DT</text><text fill="black" x="390" y="350">mount</text><text fill="black" x="390" y="400">VB</text><text fill="black" x="470" y="350">of</text><text fill="black" x="470" y="400">IN</text><text fill="black" x="550" y="350">needle</text><text fill="black" x="550" y="400">NN</text><text fill="black" x="630" y="350">has</text><text fill="black" x="630" y="400">VBZ</text><text fill="black" x="710" y="350">crept</text><text fill="black" x="710" y="400">VBN</text><text fill="black" x="790" y="350">into</text><text fill="black" x="790" y="400">IN</text><text fill="black" x="870" y="350">this</text><text fill="black" x="870" y="400">DT</text><text fill="black" x="950" y="350">game</text><text fill="black" x="950" y="400">NN</text><text fill="black" x="1030" y="350">.</text><text fill="black" x="1030" y="400">.</text><line stroke="red" x1="180" x2="408" y1="210" y2="330" /><line stroke="red" x1="270" x2="408" y1="210" y2="330" /><line stroke="red" x1="330" x2="408" y1="210" y2="330" /><line stroke="red" x1="430" x2="408" y1="210" y2="330" /><line stroke="red" x1="520" x2="408" y1="210" y2="330" /><line stroke="red" x1="560" x2="639" y1="210" y2="330" /><line stroke="red" x1="660" x2="728" y1="210" y2="330" /><line stroke="red" x1="750" x2="728" y1="210" y2="330" /><line stroke="red" x1="910" x2="968" y1="210" y2="330" /><line stroke="red" x1="950" x2="1030" y1="210" y2="330" /></svg>