<?xml version="1.0" encoding="utf-8" ?>
<svg baseProfile="full" height="500" version="1.1" width="1600" xmlns="http://www.w3.org/2000/svg" xmlns:ev="http://www.w3.org/2001/xml-events" xmlns:xlink="http://www.w3.org/1999/xlink"><defs /><text fill="black" x="0" y="100">VIETNAMESE </text><text fill="black" x="20" y="150">POS: </text><text fill="black" x="20" y="200">Source: </text><text fill="black" x="150" y="150">Nq</text><text fill="black" x="150" y="200">Một</text><text fill="black" x="230" y="150">Nt</text><text fill="black" x="230" y="200">buổi</text><text fill="black" x="310" y="150">Nn</text><text fill="black" x="310" y="200">lễ</text><text fill="black" x="390" y="150">Cm</text><text fill="black" x="390" y="200">để</text><text fill="black" x="470" y="150">Vv</text><text fill="black" x="470" y="200">tỏ</text><text fill="black" x="550" y="150">Nn</text><text fill="black" x="550" y="200">lòng</text><text fill="black" x="630" y="150">Aa</text><text fill="black" x="630" y="200">thành_kính</text><text fill="black" x="710" y="150">Cp</text><text fill="black" x="710" y="200">với</text><text fill="black" x="790" y="150">Nq</text><text fill="black" x="790" y="200">những</text><text fill="black" x="870" y="150">Nn</text><text fill="black" x="870" y="200">người</text><text fill="black" x="950" y="150">R</text><text fill="black" x="950" y="200">đã</text><text fill="black" x="1030" y="150">Vv</text><text fill="black" x="1030" y="200">hy_sinh</text><text fill="black" x="1110" y="150">Cm</text><text fill="black" x="1110" y="200">trong</text><text fill="black" x="1190" y="150">Nn</text><text fill="black" x="1190" y="200">trận</text><text fill="black" x="1270" y="150">Vv</text><text fill="black" x="1270" y="200">chiến_đấu</text><text fill="black" x="1350" y="150">PU</text><text fill="black" x="1350" y="200">.</text><text fill="black" x="0" y="450">ENGLISH </text><text fill="black" x="20" y="350">Target: </text><text fill="black" x="20" y="400">POS: </text><text fill="black" x="150" y="350">A</text><text fill="black" x="150" y="400">DT</text><text fill="black" x="230" y="350">ceremony</text><text fill="black" x="230" y="400">NN</text><text fill="black" x="310" y="350">in</text><text fill="black" x="310" y="400">IN</text><text fill="black" x="390" y="350">honour</text><text fill="black" x="390" y="400">NN</text><text fill="black" x="470" y="350">of</text><text fill="black" x="470" y="400">IN</text><text fill="black" x="550" y="350">those</text><text fill="black" x="550" y="400">DT</text><text fill="black" x="630" y="350">killed</text><text fill="black" x="630" y="400">VBN</text><text fill="black" x="710" y="350">in</text><text fill="black" x="710" y="400">IN</text><text fill="black" x="790" y="350">battle</text><text fill="black" x="790" y="400">NN</text><text fill="black" x="870" y="350">.</text><text fill="black" x="870" y="400">.</text><line stroke="red" x1="160" x2="150" y1="210" y2="330" /><line stroke="red" x1="250" x2="266" y1="210" y2="330" /><line stroke="red" x1="320" x2="266" y1="210" y2="330" /><line stroke="red" x1="400" x2="417" y1="210" y2="330" /><line stroke="red" x1="480" x2="417" y1="210" y2="330" /><line stroke="red" x1="570" x2="417" y1="210" y2="330" /><line stroke="red" x1="680" x2="417" y1="210" y2="330" /><line stroke="red" x1="720" x2="417" y1="210" y2="330" /><line stroke="red" x1="810" x2="568" y1="210" y2="330" /><line stroke="red" x1="960" x2="657" y1="210" y2="330" /><line stroke="red" x1="1060" x2="657" y1="210" y2="330" /><line stroke="red" x1="1130" x2="713" y1="210" y2="330" /><line stroke="red" x1="1210" x2="817" y1="210" y2="330" /><line stroke="red" x1="1310" x2="817" y1="210" y2="330" /><line stroke="red" x1="1350" x2="870" y1="210" y2="330" /></svg>