<?xml version="1.0" encoding="utf-8" ?>
<svg baseProfile="full" height="500" version="1.1" width="1000" xmlns="http://www.w3.org/2000/svg" xmlns:ev="http://www.w3.org/2001/xml-events" xmlns:xlink="http://www.w3.org/1999/xlink"><defs /><text fill="black" x="0" y="100">VIETNAMESE </text><text fill="black" x="20" y="150">POS: </text><text fill="black" x="20" y="200">Source: </text><text fill="black" x="150" y="150">Ve</text><text fill="black" x="150" y="200">Có</text><text fill="black" x="230" y="150">Nn</text><text fill="black" x="230" y="200">người</text><text fill="black" x="310" y="150">R</text><text fill="black" x="310" y="200">đã</text><text fill="black" x="390" y="150">Vv</text><text fill="black" x="390" y="200">nói</text><text fill="black" x="470" y="150">Cp</text><text fill="black" x="470" y="200">cho</text><text fill="black" x="550" y="150">Pp</text><text fill="black" x="550" y="200">tôi</text><text fill="black" x="630" y="150">Vv</text><text fill="black" x="630" y="200">biết</text><text fill="black" x="710" y="150">Nq</text><text fill="black" x="710" y="200">mọi</text><text fill="black" x="790" y="150">Nn</text><text fill="black" x="790" y="200">chuyện</text><text fill="black" x="870" y="150">PU</text><text fill="black" x="870" y="200">.</text><text fill="black" x="0" y="450">ENGLISH </text><text fill="black" x="20" y="350">Target: </text><text fill="black" x="20" y="400">POS: </text><text fill="black" x="150" y="350">A</text><text fill="black" x="150" y="400">DT</text><text fill="black" x="230" y="350">certain</text><text fill="black" x="230" y="400">JJ</text><text fill="black" x="310" y="350">person</text><text fill="black" x="310" y="400">NN</text><text fill="black" x="390" y="350">told</text><text fill="black" x="390" y="400">VBD</text><text fill="black" x="470" y="350">me</text><text fill="black" x="470" y="400">PRP</text><text fill="black" x="550" y="350">everything</text><text fill="black" x="550" y="400">NN</text><text fill="black" x="630" y="350">.</text><text fill="black" x="630" y="400">.</text><line stroke="red" x1="160" x2="150" y1="210" y2="330" /><line stroke="red" x1="250" x2="337" y1="210" y2="330" /><line stroke="red" x1="400" x2="408" y1="210" y2="330" /><line stroke="red" x1="560" x2="473" y1="210" y2="330" /><line stroke="red" x1="650" x2="408" y1="210" y2="330" /><line stroke="red" x1="720" x2="595" y1="210" y2="330" /><line stroke="red" x1="820" x2="595" y1="210" y2="330" /><line stroke="red" x1="870" x2="630" y1="210" y2="330" /></svg>