<?xml version="1.0" encoding="utf-8" ?>
<svg baseProfile="full" height="500" version="1.1" width="1500" xmlns="http://www.w3.org/2000/svg" xmlns:ev="http://www.w3.org/2001/xml-events" xmlns:xlink="http://www.w3.org/1999/xlink"><defs /><text fill="black" x="0" y="100">VIETNAMESE </text><text fill="black" x="20" y="150">POS: </text><text fill="black" x="20" y="200">Source: </text><text fill="black" x="150" y="150">Nq</text><text fill="black" x="150" y="200">Một</text><text fill="black" x="230" y="150">Nn</text><text fill="black" x="230" y="200">chương</text><text fill="black" x="310" y="150">Cm</text><text fill="black" x="310" y="200">trong</text><text fill="black" x="390" y="150">Pd</text><text fill="black" x="390" y="200">đó</text><text fill="black" x="470" y="150">Nn</text><text fill="black" x="470" y="200">cô</text><text fill="black" x="550" y="150">Pd</text><text fill="black" x="550" y="200">ấy</text><text fill="black" x="630" y="150">Nn</text><text fill="black" x="630" y="200">bàn</text><text fill="black" x="710" y="150">Aa</text><text fill="black" x="710" y="200">dài_dòng</text><text fill="black" x="790" y="150">Cm</text><text fill="black" x="790" y="200">về</text><text fill="black" x="870" y="150">Nq</text><text fill="black" x="870" y="200">những</text><text fill="black" x="950" y="150">Nn</text><text fill="black" x="950" y="200">lợi_ích</text><text fill="black" x="1030" y="150">Cm</text><text fill="black" x="1030" y="200">của</text><text fill="black" x="1110" y="150">Nn</text><text fill="black" x="1110" y="200">việc</text><text fill="black" x="1190" y="150">Vv</text><text fill="black" x="1190" y="200">ăn_chay</text><text fill="black" x="1270" y="150">PU</text><text fill="black" x="1270" y="200">.</text><text fill="black" x="0" y="450">ENGLISH </text><text fill="black" x="20" y="350">Target: </text><text fill="black" x="20" y="400">POS: </text><text fill="black" x="150" y="350">A</text><text fill="black" x="150" y="400">DT</text><text fill="black" x="230" y="350">chapter</text><text fill="black" x="230" y="400">NN</text><text fill="black" x="310" y="350">in</text><text fill="black" x="310" y="400">IN</text><text fill="black" x="390" y="350">which</text><text fill="black" x="390" y="400">WDT</text><text fill="black" x="470" y="350">she</text><text fill="black" x="470" y="400">PRP</text><text fill="black" x="550" y="350">dilates</text><text fill="black" x="550" y="400">VBZ</text><text fill="black" x="630" y="350">on</text><text fill="black" x="630" y="400">IN</text><text fill="black" x="710" y="350">the</text><text fill="black" x="710" y="400">DT</text><text fill="black" x="790" y="350">benefits</text><text fill="black" x="790" y="400">NNS</text><text fill="black" x="870" y="350">of</text><text fill="black" x="870" y="400">IN</text><text fill="black" x="950" y="350">vegetarianism</text><text fill="black" x="950" y="400">NN</text><text fill="black" x="1030" y="350">.</text><text fill="black" x="1030" y="400">.</text><line stroke="red" x1="160" x2="150" y1="210" y2="330" /><line stroke="red" x1="260" x2="257" y1="210" y2="330" /><line stroke="red" x1="330" x2="313" y1="210" y2="330" /><line stroke="red" x1="480" x2="479" y1="210" y2="330" /><line stroke="red" x1="560" x2="479" y1="210" y2="330" /><line stroke="red" x1="640" x2="577" y1="210" y2="330" /><line stroke="red" x1="750" x2="577" y1="210" y2="330" /><line stroke="red" x1="800" x2="633" y1="210" y2="330" /><line stroke="red" x1="890" x2="826" y1="210" y2="330" /><line stroke="red" x1="980" x2="826" y1="210" y2="330" /><line stroke="red" x1="1130" x2="1004" y1="210" y2="330" /><line stroke="red" x1="1220" x2="1004" y1="210" y2="330" /><line stroke="red" x1="1270" x2="1030" y1="210" y2="330" /></svg>