<?xml version="1.0" encoding="utf-8" ?>
<svg baseProfile="full" height="500" version="1.1" width="3500" xmlns="http://www.w3.org/2000/svg" xmlns:ev="http://www.w3.org/2001/xml-events" xmlns:xlink="http://www.w3.org/1999/xlink"><defs /><text fill="black" x="0" y="100">VIETNAMESE </text><text fill="black" x="20" y="150">POS: </text><text fill="black" x="20" y="200">Source: </text><text fill="black" x="150" y="150">Nq</text><text fill="black" x="150" y="200">Một</text><text fill="black" x="230" y="150">Nn</text><text fill="black" x="230" y="200">khoản</text><text fill="black" x="310" y="150">Nn</text><text fill="black" x="310" y="200">chi_phí</text><text fill="black" x="390" y="150">An</text><text fill="black" x="390" y="200">1</text><text fill="black" x="470" y="150">PU</text><text fill="black" x="470" y="200">,</text><text fill="black" x="550" y="150">An</text><text fill="black" x="550" y="200">90</text><text fill="black" x="630" y="150">Nu</text><text fill="black" x="630" y="200">bảng</text><text fill="black" x="710" y="150">Nr</text><text fill="black" x="710" y="200">Anh</text><text fill="black" x="790" y="150">R</text><text fill="black" x="790" y="200">sẽ</text><text fill="black" x="870" y="150">Vv</text><text fill="black" x="870" y="200">được</text><text fill="black" x="950" y="150">Vv</text><text fill="black" x="950" y="200">tính</text><text fill="black" x="1030" y="150">Aa</text><text fill="black" x="1030" y="200">tròn</text><text fill="black" x="1110" y="150">R</text><text fill="black" x="1110" y="200">lên</text><text fill="black" x="1190" y="150">Vv</text><text fill="black" x="1190" y="200">thành</text><text fill="black" x="1270" y="150">Nq</text><text fill="black" x="1270" y="200">2</text><text fill="black" x="1350" y="150">Nu</text><text fill="black" x="1350" y="200">bảng</text><text fill="black" x="1430" y="150">Nr</text><text fill="black" x="1430" y="200">Anh</text><text fill="black" x="1510" y="150">PU</text><text fill="black" x="1510" y="200">,</text><text fill="black" x="1590" y="150">Cp</text><text fill="black" x="1590" y="200">và</text><text fill="black" x="1670" y="150">Nq</text><text fill="black" x="1670" y="200">một</text><text fill="black" x="1750" y="150">Nn</text><text fill="black" x="1750" y="200">khoản</text><text fill="black" x="1830" y="150">Nn</text><text fill="black" x="1830" y="200">chi_phí</text><text fill="black" x="1910" y="150">An</text><text fill="black" x="1910" y="200">3</text><text fill="black" x="1990" y="150">PU</text><text fill="black" x="1990" y="200">,</text><text fill="black" x="2070" y="150">Nq</text><text fill="black" x="2070" y="200">10</text><text fill="black" x="2150" y="150">Nu</text><text fill="black" x="2150" y="200">bảng</text><text fill="black" x="2230" y="150">Nr</text><text fill="black" x="2230" y="200">Anh</text><text fill="black" x="2310" y="150">Vv</text><text fill="black" x="2310" y="200">tính</text><text fill="black" x="2390" y="150">Aa</text><text fill="black" x="2390" y="200">tròn</text><text fill="black" x="2470" y="150">R</text><text fill="black" x="2470" y="200">xuống</text><text fill="black" x="2550" y="150">Vv</text><text fill="black" x="2550" y="200">thành</text><text fill="black" x="2630" y="150">Nq</text><text fill="black" x="2630" y="200">3</text><text fill="black" x="2710" y="150">Nu</text><text fill="black" x="2710" y="200">bảng</text><text fill="black" x="2790" y="150">Nr</text><text fill="black" x="2790" y="200">Anh</text><text fill="black" x="2870" y="150">PU</text><text fill="black" x="2870" y="200">.</text><text fill="black" x="0" y="450">ENGLISH </text><text fill="black" x="20" y="350">Target: </text><text fill="black" x="20" y="400">POS: </text><text fill="black" x="150" y="350">A</text><text fill="black" x="150" y="400">DT</text><text fill="black" x="230" y="350">charge</text><text fill="black" x="230" y="400">NN</text><text fill="black" x="310" y="350">of</text><text fill="black" x="310" y="400">IN</text><text fill="black" x="390" y="350">1.90</text><text fill="black" x="390" y="400">CD</text><text fill="black" x="470" y="350">will</text><text fill="black" x="470" y="400">NN</text><text fill="black" x="550" y="350">rounded</text><text fill="black" x="550" y="400">VBD</text><text fill="black" x="630" y="350">up</text><text fill="black" x="630" y="400">RB</text><text fill="black" x="710" y="350">to</text><text fill="black" x="710" y="400">TO</text><text fill="black" x="790" y="350">2</text><text fill="black" x="790" y="400">CD</text><text fill="black" x="870" y="350">,</text><text fill="black" x="870" y="400">,</text><text fill="black" x="950" y="350">and</text><text fill="black" x="950" y="400">CC</text><text fill="black" x="1030" y="350">one</text><text fill="black" x="1030" y="400">CD</text><text fill="black" x="1110" y="350">of</text><text fill="black" x="1110" y="400">IN</text><text fill="black" x="1190" y="350">3.10</text><text fill="black" x="1190" y="400">CD</text><text fill="black" x="1270" y="350">rounded</text><text fill="black" x="1270" y="400">VBD</text><text fill="black" x="1350" y="350">down</text><text fill="black" x="1350" y="400">RB</text><text fill="black" x="1430" y="350">to</text><text fill="black" x="1430" y="400">TO</text><text fill="black" x="1510" y="350">3</text><text fill="black" x="1510" y="400">CD</text><text fill="black" x="1590" y="350">.</text><text fill="black" x="1590" y="400">.</text><line stroke="red" x1="160" x2="150" y1="210" y2="330" /><line stroke="red" x1="250" x2="408" y1="210" y2="330" /><line stroke="red" x1="340" x2="408" y1="210" y2="330" /><line stroke="red" x1="390" x2="408" y1="210" y2="330" /><line stroke="red" x1="560" x2="408" y1="210" y2="330" /><line stroke="red" x1="650" x2="408" y1="210" y2="330" /><line stroke="red" x1="720" x2="408" y1="210" y2="330" /><line stroke="red" x1="800" x2="488" y1="210" y2="330" /><line stroke="red" x1="970" x2="577" y1="210" y2="330" /><line stroke="red" x1="1050" x2="577" y1="210" y2="330" /><line stroke="red" x1="1120" x2="633" y1="210" y2="330" /><line stroke="red" x1="1210" x2="577" y1="210" y2="330" /><line stroke="red" x1="1270" x2="790" y1="210" y2="330" /><line stroke="red" x1="1370" x2="1208" y1="210" y2="330" /><line stroke="red" x1="1440" x2="1208" y1="210" y2="330" /><line stroke="red" x1="1510" x2="870" y1="210" y2="330" /><line stroke="red" x1="1600" x2="959" y1="210" y2="330" /><line stroke="red" x1="1680" x2="1039" y1="210" y2="330" /><line stroke="red" x1="1770" x2="1208" y1="210" y2="330" /><line stroke="red" x1="1860" x2="1208" y1="210" y2="330" /><line stroke="red" x1="1910" x2="408" y1="210" y2="330" /><line stroke="red" x1="2080" x2="1208" y1="210" y2="330" /><line stroke="red" x1="2170" x2="1208" y1="210" y2="330" /><line stroke="red" x1="2240" x2="1208" y1="210" y2="330" /><line stroke="red" x1="2330" x2="1297" y1="210" y2="330" /><line stroke="red" x1="2410" x2="1297" y1="210" y2="330" /><line stroke="red" x1="2490" x2="1368" y1="210" y2="330" /><line stroke="red" x1="2570" x2="577" y1="210" y2="330" /><line stroke="red" x1="2630" x2="1510" y1="210" y2="330" /><line stroke="red" x1="2730" x2="1208" y1="210" y2="330" /><line stroke="red" x1="2800" x2="1208" y1="210" y2="330" /><line stroke="red" x1="2870" x2="1590" y1="210" y2="330" /></svg>