<?xml version="1.0" encoding="utf-8" ?>
<svg baseProfile="full" height="500" version="1.1" width="1100" xmlns="http://www.w3.org/2000/svg" xmlns:ev="http://www.w3.org/2001/xml-events" xmlns:xlink="http://www.w3.org/1999/xlink"><defs /><text fill="black" x="0" y="100">VIETNAMESE </text><text fill="black" x="20" y="150">POS: </text><text fill="black" x="20" y="200">Source: </text><text fill="black" x="150" y="150">Nn</text><text fill="black" x="150" y="200">Thẻ</text><text fill="black" x="230" y="150">Nn</text><text fill="black" x="230" y="200">séc</text><text fill="black" x="310" y="150">R</text><text fill="black" x="310" y="200">không</text><text fill="black" x="390" y="150">Aa</text><text fill="black" x="390" y="200">phải</text><text fill="black" x="470" y="150">Vc</text><text fill="black" x="470" y="200">là</text><text fill="black" x="550" y="150">Nq</text><text fill="black" x="550" y="200">một</text><text fill="black" x="630" y="150">Nn</text><text fill="black" x="630" y="200">bằng_chứng</text><text fill="black" x="710" y="150">Nn</text><text fill="black" x="710" y="200">căn_cước</text><text fill="black" x="790" y="150">Ve</text><text fill="black" x="790" y="200">có</text><text fill="black" x="870" y="150">Nn</text><text fill="black" x="870" y="200">giá_trị</text><text fill="black" x="950" y="150">PU</text><text fill="black" x="950" y="200">.</text><text fill="black" x="0" y="450">ENGLISH </text><text fill="black" x="20" y="350">Target: </text><text fill="black" x="20" y="400">POS: </text><text fill="black" x="150" y="350">A</text><text fill="black" x="150" y="400">DT</text><text fill="black" x="230" y="350">cheque</text><text fill="black" x="230" y="400">NN</text><text fill="black" x="310" y="350">card</text><text fill="black" x="310" y="400">NN</text><text fill="black" x="390" y="350">is</text><text fill="black" x="390" y="400">VBZ</text><text fill="black" x="470" y="350">not</text><text fill="black" x="470" y="400">RB</text><text fill="black" x="550" y="350">a</text><text fill="black" x="550" y="400">DT</text><text fill="black" x="630" y="350">valid</text><text fill="black" x="630" y="400">JJ</text><text fill="black" x="710" y="350">proof</text><text fill="black" x="710" y="400">NN</text><text fill="black" x="790" y="350">of</text><text fill="black" x="790" y="400">IN</text><text fill="black" x="870" y="350">identity</text><text fill="black" x="870" y="400">NN</text><text fill="black" x="950" y="350">.</text><text fill="black" x="950" y="400">.</text><line stroke="red" x1="160" x2="257" y1="210" y2="330" /><line stroke="red" x1="240" x2="257" y1="210" y2="330" /><line stroke="red" x1="330" x2="479" y1="210" y2="330" /><line stroke="red" x1="560" x2="550" y1="210" y2="330" /><line stroke="red" x1="680" x2="728" y1="210" y2="330" /><line stroke="red" x1="750" x2="906" y1="210" y2="330" /><line stroke="red" x1="800" x2="648" y1="210" y2="330" /><line stroke="red" x1="900" x2="648" y1="210" y2="330" /><line stroke="red" x1="950" x2="950" y1="210" y2="330" /></svg>