<?xml version="1.0" encoding="utf-8" ?>
<svg baseProfile="full" height="500" version="1.1" width="1500" xmlns="http://www.w3.org/2000/svg" xmlns:ev="http://www.w3.org/2001/xml-events" xmlns:xlink="http://www.w3.org/1999/xlink"><defs /><text fill="black" x="0" y="100">VIETNAMESE </text><text fill="black" x="20" y="150">POS: </text><text fill="black" x="20" y="200">Source: </text><text fill="black" x="150" y="150">Nq</text><text fill="black" x="150" y="200">Một</text><text fill="black" x="230" y="150">Nc</text><text fill="black" x="230" y="200">con</text><text fill="black" x="310" y="150">Nr</text><text fill="black" x="310" y="200">Chihuahua</text><text fill="black" x="390" y="150">PU</text><text fill="black" x="390" y="200">,</text><text fill="black" x="470" y="150">M</text><text fill="black" x="470" y="200">chẳng_hạn</text><text fill="black" x="550" y="150">PU</text><text fill="black" x="550" y="200">,</text><text fill="black" x="630" y="150">R</text><text fill="black" x="630" y="200">không_thể</text><text fill="black" x="710" y="150">Vv</text><text fill="black" x="710" y="200">giúp_ích</text><text fill="black" x="790" y="150">Aa</text><text fill="black" x="790" y="200">nhiều</text><text fill="black" x="870" y="150">Cm</text><text fill="black" x="870" y="200">trong</text><text fill="black" x="950" y="150">Nn</text><text fill="black" x="950" y="200">việc</text><text fill="black" x="1030" y="150">Vv</text><text fill="black" x="1030" y="200">kéo</text><text fill="black" x="1110" y="150">Nn</text><text fill="black" x="1110" y="200">xe</text><text fill="black" x="1190" y="150">R</text><text fill="black" x="1190" y="200">được</text><text fill="black" x="1270" y="150">PU</text><text fill="black" x="1270" y="200">.</text><text fill="black" x="0" y="450">ENGLISH </text><text fill="black" x="20" y="350">Target: </text><text fill="black" x="20" y="400">POS: </text><text fill="black" x="150" y="350">A</text><text fill="black" x="150" y="400">DT</text><text fill="black" x="230" y="350">Chihuahua</text><text fill="black" x="230" y="400">NNP</text><text fill="black" x="310" y="350">,</text><text fill="black" x="310" y="400">,</text><text fill="black" x="390" y="350">for</text><text fill="black" x="390" y="400">IN</text><text fill="black" x="470" y="350">instance</text><text fill="black" x="470" y="400">NN</text><text fill="black" x="550" y="350">,</text><text fill="black" x="550" y="400">,</text><text fill="black" x="630" y="350">would</text><text fill="black" x="630" y="400">MD</text><text fill="black" x="710" y="350">not</text><text fill="black" x="710" y="400">RB</text><text fill="black" x="790" y="350">be</text><text fill="black" x="790" y="400">VB</text><text fill="black" x="870" y="350">very</text><text fill="black" x="870" y="400">RB</text><text fill="black" x="950" y="350">helpful</text><text fill="black" x="950" y="400">JJ</text><text fill="black" x="1030" y="350">a</text><text fill="black" x="1030" y="400">DT</text><text fill="black" x="1110" y="350">pulling</text><text fill="black" x="1110" y="400">VBG</text><text fill="black" x="1190" y="350">loads</text><text fill="black" x="1190" y="400">NNS</text><text fill="black" x="1270" y="350">.</text><text fill="black" x="1270" y="400">.</text><line stroke="red" x1="160" x2="150" y1="210" y2="330" /><line stroke="red" x1="240" x2="266" y1="210" y2="330" /><line stroke="red" x1="350" x2="266" y1="210" y2="330" /><line stroke="red" x1="390" x2="310" y1="210" y2="330" /><line stroke="red" x1="510" x2="266" y1="210" y2="330" /><line stroke="red" x1="550" x2="550" y1="210" y2="330" /><line stroke="red" x1="670" x2="266" y1="210" y2="330" /><line stroke="red" x1="750" x2="266" y1="210" y2="330" /><line stroke="red" x1="810" x2="977" y1="210" y2="330" /><line stroke="red" x1="970" x2="266" y1="210" y2="330" /><line stroke="red" x1="1040" x2="1137" y1="210" y2="330" /><line stroke="red" x1="1120" x2="1208" y1="210" y2="330" /><line stroke="red" x1="1270" x2="1270" y1="210" y2="330" /></svg>