<?xml version="1.0" encoding="utf-8" ?>
<svg baseProfile="full" height="500" version="1.1" width="1100" xmlns="http://www.w3.org/2000/svg" xmlns:ev="http://www.w3.org/2001/xml-events" xmlns:xlink="http://www.w3.org/1999/xlink"><defs /><text fill="black" x="0" y="100">VIETNAMESE </text><text fill="black" x="20" y="150">POS: </text><text fill="black" x="20" y="200">Source: </text><text fill="black" x="150" y="150">Nn</text><text fill="black" x="150" y="200">Ống_khói</text><text fill="black" x="230" y="150">Vv</text><text fill="black" x="230" y="200">bị</text><text fill="black" x="310" y="150">Vv</text><text fill="black" x="310" y="200">tắc</text><text fill="black" x="390" y="150">Cp</text><text fill="black" x="390" y="200">do</text><text fill="black" x="470" y="150">Nn</text><text fill="black" x="470" y="200">lớp</text><text fill="black" x="550" y="150">Nn</text><text fill="black" x="550" y="200">bồ_hóng</text><text fill="black" x="630" y="150">R</text><text fill="black" x="630" y="200">ngày_càng</text><text fill="black" x="710" y="150">Vv</text><text fill="black" x="710" y="200">đóng</text><text fill="black" x="790" y="150">Aa</text><text fill="black" x="790" y="200">dầy</text><text fill="black" x="870" y="150">Vv</text><text fill="black" x="870" y="200">thêm</text><text fill="black" x="950" y="150">PU</text><text fill="black" x="950" y="200">.</text><text fill="black" x="0" y="450">ENGLISH </text><text fill="black" x="20" y="350">Target: </text><text fill="black" x="20" y="400">POS: </text><text fill="black" x="150" y="350">A</text><text fill="black" x="150" y="400">DT</text><text fill="black" x="230" y="350">chimney</text><text fill="black" x="230" y="400">NN</text><text fill="black" x="310" y="350">blocked</text><text fill="black" x="310" y="400">VBN</text><text fill="black" x="390" y="350">by</text><text fill="black" x="390" y="400">IN</text><text fill="black" x="470" y="350">an</text><text fill="black" x="470" y="400">DT</text><text fill="black" x="550" y="350">accretion</text><text fill="black" x="550" y="400">NN</text><text fill="black" x="630" y="350">of</text><text fill="black" x="630" y="400">IN</text><text fill="black" x="710" y="350">soot</text><text fill="black" x="710" y="400">NN</text><text fill="black" x="790" y="350">.</text><text fill="black" x="790" y="400">.</text><line stroke="red" x1="190" x2="257" y1="210" y2="330" /><line stroke="red" x1="240" x2="337" y1="210" y2="330" /><line stroke="red" x1="320" x2="337" y1="210" y2="330" /><line stroke="red" x1="400" x2="393" y1="210" y2="330" /><line stroke="red" x1="480" x2="586" y1="210" y2="330" /><line stroke="red" x1="580" x2="586" y1="210" y2="330" /><line stroke="red" x1="670" x2="586" y1="210" y2="330" /><line stroke="red" x1="730" x2="586" y1="210" y2="330" /><line stroke="red" x1="800" x2="586" y1="210" y2="330" /><line stroke="red" x1="890" x2="586" y1="210" y2="330" /><line stroke="red" x1="950" x2="790" y1="210" y2="330" /></svg>