<?xml version="1.0" encoding="utf-8" ?>
<svg baseProfile="full" height="500" version="1.1" width="1200" xmlns="http://www.w3.org/2000/svg" xmlns:ev="http://www.w3.org/2001/xml-events" xmlns:xlink="http://www.w3.org/1999/xlink"><defs /><text fill="black" x="0" y="100">VIETNAMESE </text><text fill="black" x="20" y="150">POS: </text><text fill="black" x="20" y="200">Source: </text><text fill="black" x="150" y="150">Nq</text><text fill="black" x="150" y="200">Một</text><text fill="black" x="230" y="150">Nn</text><text fill="black" x="230" y="200">hội</text><text fill="black" x="310" y="150">Aa</text><text fill="black" x="310" y="200">từ_thiện</text><text fill="black" x="390" y="150">Vv</text><text fill="black" x="390" y="200">giúp</text><text fill="black" x="470" y="150">Nn</text><text fill="black" x="470" y="200">trẻ_con</text><text fill="black" x="550" y="150">R</text><text fill="black" x="550" y="200">không</text><text fill="black" x="630" y="150">Cm</text><text fill="black" x="630" y="200">nhằm</text><text fill="black" x="710" y="150">Nn</text><text fill="black" x="710" y="200">mục_đích</text><text fill="black" x="790" y="150">Vv</text><text fill="black" x="790" y="200">kiếm</text><text fill="black" x="870" y="150">Nn</text><text fill="black" x="870" y="200">lãi</text><text fill="black" x="950" y="150">PU</text><text fill="black" x="950" y="200">.</text><text fill="black" x="0" y="450">ENGLISH </text><text fill="black" x="20" y="350">Target: </text><text fill="black" x="20" y="400">POS: </text><text fill="black" x="150" y="350">A</text><text fill="black" x="150" y="400">DT</text><text fill="black" x="230" y="350">children</text><text fill="black" x="230" y="400">NNS</text><text fill="black" x="310" y="350">'s</text><text fill="black" x="310" y="400">POS</text><text fill="black" x="390" y="350">charity</text><text fill="black" x="390" y="400">NN</text><text fill="black" x="470" y="350">that</text><text fill="black" x="470" y="400">WDT</text><text fill="black" x="550" y="350">is</text><text fill="black" x="550" y="400">VBZ</text><text fill="black" x="630" y="350">non</text><text fill="black" x="630" y="400">JJ</text><text fill="black" x="710" y="350">-</text><text fill="black" x="710" y="400">:</text><text fill="black" x="790" y="350">profit</text><text fill="black" x="790" y="400">NN</text><text fill="black" x="870" y="350">-</text><text fill="black" x="870" y="400">:</text><text fill="black" x="950" y="350">making</text><text fill="black" x="950" y="400">VBG</text><text fill="black" x="1030" y="350">.</text><text fill="black" x="1030" y="400">.</text><line stroke="red" x1="160" x2="150" y1="210" y2="330" /><line stroke="red" x1="240" x2="417" y1="210" y2="330" /><line stroke="red" x1="350" x2="417" y1="210" y2="330" /><line stroke="red" x1="410" x2="417" y1="210" y2="330" /><line stroke="red" x1="500" x2="417" y1="210" y2="330" /><line stroke="red" x1="570" x2="639" y1="210" y2="330" /><line stroke="red" x1="650" x2="639" y1="210" y2="330" /><line stroke="red" x1="750" x2="639" y1="210" y2="330" /><line stroke="red" x1="810" x2="817" y1="210" y2="330" /><line stroke="red" x1="880" x2="817" y1="210" y2="330" /><line stroke="red" x1="950" x2="1030" y1="210" y2="330" /></svg>