<?xml version="1.0" encoding="utf-8" ?>
<svg baseProfile="full" height="500" version="1.1" width="1100" xmlns="http://www.w3.org/2000/svg" xmlns:ev="http://www.w3.org/2001/xml-events" xmlns:xlink="http://www.w3.org/1999/xlink"><defs /><text fill="black" x="0" y="100">VIETNAMESE </text><text fill="black" x="20" y="150">POS: </text><text fill="black" x="20" y="200">Source: </text><text fill="black" x="150" y="150">Nq</text><text fill="black" x="150" y="200">Một</text><text fill="black" x="230" y="150">Nc</text><text fill="black" x="230" y="200">đứa</text><text fill="black" x="310" y="150">Nn</text><text fill="black" x="310" y="200">bé</text><text fill="black" x="390" y="150">Vv</text><text fill="black" x="390" y="200">được</text><text fill="black" x="470" y="150">Vv</text><text fill="black" x="470" y="200">nâng_niu</text><text fill="black" x="550" y="150">Vv</text><text fill="black" x="550" y="200">bảo_vệ</text><text fill="black" x="630" y="150">Cm</text><text fill="black" x="630" y="200">để</text><text fill="black" x="710" y="150">Vv</text><text fill="black" x="710" y="200">khỏi</text><text fill="black" x="790" y="150">Vv</text><text fill="black" x="790" y="200">bị</text><text fill="black" x="870" y="150">Aa</text><text fill="black" x="870" y="200">khổ_sở</text><text fill="black" x="950" y="150">PU</text><text fill="black" x="950" y="200">.</text><text fill="black" x="0" y="450">ENGLISH </text><text fill="black" x="20" y="350">Target: </text><text fill="black" x="20" y="400">POS: </text><text fill="black" x="150" y="350">A</text><text fill="black" x="150" y="400">DT</text><text fill="black" x="230" y="350">child</text><text fill="black" x="230" y="400">NN</text><text fill="black" x="310" y="350">who</text><text fill="black" x="310" y="400">WP</text><text fill="black" x="390" y="350">has</text><text fill="black" x="390" y="400">VBZ</text><text fill="black" x="470" y="350">been</text><text fill="black" x="470" y="400">VBN</text><text fill="black" x="550" y="350">cushioned</text><text fill="black" x="550" y="400">VBN</text><text fill="black" x="630" y="350">from</text><text fill="black" x="630" y="400">IN</text><text fill="black" x="710" y="350">unpleasant</text><text fill="black" x="710" y="400">JJ</text><text fill="black" x="790" y="350">experiences</text><text fill="black" x="790" y="400">NNS</text><text fill="black" x="870" y="350">.</text><text fill="black" x="870" y="400">.</text><line stroke="red" x1="160" x2="150" y1="210" y2="330" /><line stroke="red" x1="240" x2="248" y1="210" y2="330" /><line stroke="red" x1="320" x2="248" y1="210" y2="330" /><line stroke="red" x1="410" x2="488" y1="210" y2="330" /><line stroke="red" x1="510" x2="586" y1="210" y2="330" /><line stroke="red" x1="580" x2="586" y1="210" y2="330" /><line stroke="red" x1="640" x2="586" y1="210" y2="330" /><line stroke="red" x1="730" x2="586" y1="210" y2="330" /><line stroke="red" x1="800" x2="586" y1="210" y2="330" /><line stroke="red" x1="900" x2="586" y1="210" y2="330" /><line stroke="red" x1="950" x2="870" y1="210" y2="330" /></svg>