<?xml version="1.0" encoding="utf-8" ?>
<svg baseProfile="full" height="500" version="1.1" width="1600" xmlns="http://www.w3.org/2000/svg" xmlns:ev="http://www.w3.org/2001/xml-events" xmlns:xlink="http://www.w3.org/1999/xlink"><defs /><text fill="black" x="0" y="100">VIETNAMESE </text><text fill="black" x="20" y="150">POS: </text><text fill="black" x="20" y="200">Source: </text><text fill="black" x="150" y="150">Nq</text><text fill="black" x="150" y="200">Một</text><text fill="black" x="230" y="150">Nc</text><text fill="black" x="230" y="200">bức</text><text fill="black" x="310" y="150">Nn</text><text fill="black" x="310" y="200">tượng</text><text fill="black" x="390" y="150">Aa</text><text fill="black" x="390" y="200">nhỏ</text><text fill="black" x="470" y="150">Cm</text><text fill="black" x="470" y="200">bằng</text><text fill="black" x="550" y="150">Nn</text><text fill="black" x="550" y="200">sứ</text><text fill="black" x="630" y="150">Nn</text><text fill="black" x="630" y="200">hình</text><text fill="black" x="710" y="150">Nc</text><text fill="black" x="710" y="200">cô</text><text fill="black" x="790" y="150">Nn</text><text fill="black" x="790" y="200">gái</text><text fill="black" x="870" y="150">Vv</text><text fill="black" x="870" y="200">chăn</text><text fill="black" x="950" y="150">Nn</text><text fill="black" x="950" y="200">cừu</text><text fill="black" x="1030" y="150">Vv</text><text fill="black" x="1030" y="200">đứng</text><text fill="black" x="1110" y="150">Cm</text><text fill="black" x="1110" y="200">ở</text><text fill="black" x="1190" y="150">Cm</text><text fill="black" x="1190" y="200">trên</text><text fill="black" x="1270" y="150">Nn</text><text fill="black" x="1270" y="200">bàn</text><text fill="black" x="1350" y="150">PU</text><text fill="black" x="1350" y="200">.</text><text fill="black" x="0" y="450">ENGLISH </text><text fill="black" x="20" y="350">Target: </text><text fill="black" x="20" y="400">POS: </text><text fill="black" x="150" y="350">A</text><text fill="black" x="150" y="400">DT</text><text fill="black" x="230" y="350">china</text><text fill="black" x="230" y="400">NN</text><text fill="black" x="310" y="350">statuette</text><text fill="black" x="310" y="400">NN</text><text fill="black" x="390" y="350">of</text><text fill="black" x="390" y="400">IN</text><text fill="black" x="470" y="350">a</text><text fill="black" x="470" y="400">DT</text><text fill="black" x="550" y="350">shepherdess</text><text fill="black" x="550" y="400">NN</text><text fill="black" x="630" y="350">stood</text><text fill="black" x="630" y="400">VBD</text><text fill="black" x="710" y="350">on</text><text fill="black" x="710" y="400">IN</text><text fill="black" x="790" y="350">the</text><text fill="black" x="790" y="400">DT</text><text fill="black" x="870" y="350">table</text><text fill="black" x="870" y="400">NN</text><text fill="black" x="950" y="350">.</text><text fill="black" x="950" y="400">.</text><line stroke="red" x1="160" x2="150" y1="210" y2="330" /><line stroke="red" x1="240" x2="346" y1="210" y2="330" /><line stroke="red" x1="330" x2="346" y1="210" y2="330" /><line stroke="red" x1="400" x2="346" y1="210" y2="330" /><line stroke="red" x1="490" x2="346" y1="210" y2="330" /><line stroke="red" x1="560" x2="595" y1="210" y2="330" /><line stroke="red" x1="650" x2="595" y1="210" y2="330" /><line stroke="red" x1="720" x2="595" y1="210" y2="330" /><line stroke="red" x1="800" x2="595" y1="210" y2="330" /><line stroke="red" x1="890" x2="595" y1="210" y2="330" /><line stroke="red" x1="960" x2="595" y1="210" y2="330" /><line stroke="red" x1="1050" x2="648" y1="210" y2="330" /><line stroke="red" x1="1210" x2="713" y1="210" y2="330" /><line stroke="red" x1="1280" x2="888" y1="210" y2="330" /><line stroke="red" x1="1350" x2="950" y1="210" y2="330" /></svg>