<?xml version="1.0" encoding="utf-8" ?>
<svg baseProfile="full" height="500" version="1.1" width="1500" xmlns="http://www.w3.org/2000/svg" xmlns:ev="http://www.w3.org/2001/xml-events" xmlns:xlink="http://www.w3.org/1999/xlink"><defs /><text fill="black" x="0" y="100">VIETNAMESE </text><text fill="black" x="20" y="150">POS: </text><text fill="black" x="20" y="200">Source: </text><text fill="black" x="150" y="150">Nc</text><text fill="black" x="150" y="200">Cái</text><text fill="black" x="230" y="150">Nn</text><text fill="black" x="230" y="200">thú</text><text fill="black" x="310" y="150">Aa</text><text fill="black" x="310" y="200">duy_nhất</text><text fill="black" x="390" y="150">Cm</text><text fill="black" x="390" y="200">của</text><text fill="black" x="470" y="150">Pp</text><text fill="black" x="470" y="200">tôi</text><text fill="black" x="550" y="150">Vc</text><text fill="black" x="550" y="200">là</text><text fill="black" x="630" y="150">Nn</text><text fill="black" x="630" y="200">sau</text><text fill="black" x="710" y="150">Nq</text><text fill="black" x="710" y="200">mỗi</text><text fill="black" x="790" y="150">Nn</text><text fill="black" x="790" y="200">bữa</text><text fill="black" x="870" y="150">Vv</text><text fill="black" x="870" y="200">ăn</text><text fill="black" x="950" y="150">Vv</text><text fill="black" x="950" y="200">hút</text><text fill="black" x="1030" y="150">Nq</text><text fill="black" x="1030" y="200">một</text><text fill="black" x="1110" y="150">Nn</text><text fill="black" x="1110" y="200">điếu</text><text fill="black" x="1190" y="150">Nn</text><text fill="black" x="1190" y="200">xì_gà</text><text fill="black" x="1270" y="150">PU</text><text fill="black" x="1270" y="200">.</text><text fill="black" x="0" y="450">ENGLISH </text><text fill="black" x="20" y="350">Target: </text><text fill="black" x="20" y="400">POS: </text><text fill="black" x="150" y="350">A</text><text fill="black" x="150" y="400">DT</text><text fill="black" x="230" y="350">cigar</text><text fill="black" x="230" y="400">NN</text><text fill="black" x="310" y="350">after</text><text fill="black" x="310" y="400">IN</text><text fill="black" x="390" y="350">dinner</text><text fill="black" x="390" y="400">NN</text><text fill="black" x="470" y="350">is</text><text fill="black" x="470" y="400">VBZ</text><text fill="black" x="550" y="350">my</text><text fill="black" x="550" y="400">PRP$</text><text fill="black" x="630" y="350">only</text><text fill="black" x="630" y="400">JJ</text><text fill="black" x="710" y="350">indulgence</text><text fill="black" x="710" y="400">NN</text><text fill="black" x="790" y="350">.</text><text fill="black" x="790" y="400">.</text><line stroke="red" x1="160" x2="248" y1="210" y2="330" /><line stroke="red" x1="240" x2="248" y1="210" y2="330" /><line stroke="red" x1="350" x2="248" y1="210" y2="330" /><line stroke="red" x1="480" x2="553" y1="210" y2="330" /><line stroke="red" x1="640" x2="328" y1="210" y2="330" /><line stroke="red" x1="720" x2="248" y1="210" y2="330" /><line stroke="red" x1="800" x2="417" y1="210" y2="330" /><line stroke="red" x1="880" x2="417" y1="210" y2="330" /><line stroke="red" x1="960" x2="248" y1="210" y2="330" /><line stroke="red" x1="1040" x2="248" y1="210" y2="330" /><line stroke="red" x1="1130" x2="248" y1="210" y2="330" /><line stroke="red" x1="1210" x2="248" y1="210" y2="330" /><line stroke="red" x1="1270" x2="790" y1="210" y2="330" /></svg>