<?xml version="1.0" encoding="utf-8" ?>
<svg baseProfile="full" height="500" version="1.1" width="1200" xmlns="http://www.w3.org/2000/svg" xmlns:ev="http://www.w3.org/2001/xml-events" xmlns:xlink="http://www.w3.org/1999/xlink"><defs /><text fill="black" x="0" y="100">VIETNAMESE </text><text fill="black" x="20" y="150">POS: </text><text fill="black" x="20" y="200">Source: </text><text fill="black" x="150" y="150">Nq</text><text fill="black" x="150" y="200">Một</text><text fill="black" x="230" y="150">Nn</text><text fill="black" x="230" y="200">danh_sách</text><text fill="black" x="310" y="150">Vv</text><text fill="black" x="310" y="200">xếp</text><text fill="black" x="390" y="150">Vv</text><text fill="black" x="390" y="200">theo</text><text fill="black" x="470" y="150">Nn</text><text fill="black" x="470" y="200">thứ_tự</text><text fill="black" x="550" y="150">Nn</text><text fill="black" x="550" y="200">thời_gian</text><text fill="black" x="630" y="150">Nq</text><text fill="black" x="630" y="200">các</text><text fill="black" x="710" y="150">Nn</text><text fill="black" x="710" y="200">kịch</text><text fill="black" x="790" y="150">Nn</text><text fill="black" x="790" y="200">tác</text><text fill="black" x="870" y="150">Cm</text><text fill="black" x="870" y="200">của</text><text fill="black" x="950" y="150">Nr</text><text fill="black" x="950" y="200">Shakespeare</text><text fill="black" x="1030" y="150">PU</text><text fill="black" x="1030" y="200">.</text><text fill="black" x="0" y="450">ENGLISH </text><text fill="black" x="20" y="350">Target: </text><text fill="black" x="20" y="400">POS: </text><text fill="black" x="150" y="350">A</text><text fill="black" x="150" y="400">DT</text><text fill="black" x="230" y="350">chronological</text><text fill="black" x="230" y="400">JJ</text><text fill="black" x="310" y="350">list</text><text fill="black" x="310" y="400">NN</text><text fill="black" x="390" y="350">of</text><text fill="black" x="390" y="400">IN</text><text fill="black" x="470" y="350">Shakespeare</text><text fill="black" x="470" y="400">NNP</text><text fill="black" x="550" y="350">'s</text><text fill="black" x="550" y="400">POS</text><text fill="black" x="630" y="350">plays</text><text fill="black" x="630" y="400">NNS</text><text fill="black" x="710" y="350">.</text><text fill="black" x="710" y="400">.</text><line stroke="red" x1="160" x2="150" y1="210" y2="330" /><line stroke="red" x1="270" x2="328" y1="210" y2="330" /><line stroke="red" x1="320" x2="284" y1="210" y2="330" /><line stroke="red" x1="410" x2="284" y1="210" y2="330" /><line stroke="red" x1="500" x2="284" y1="210" y2="330" /><line stroke="red" x1="590" x2="284" y1="210" y2="330" /><line stroke="red" x1="640" x2="648" y1="210" y2="330" /><line stroke="red" x1="730" x2="648" y1="210" y2="330" /><line stroke="red" x1="800" x2="284" y1="210" y2="330" /><line stroke="red" x1="1000" x2="515" y1="210" y2="330" /><line stroke="red" x1="1030" x2="710" y1="210" y2="330" /></svg>