<?xml version="1.0" encoding="utf-8" ?>
<svg baseProfile="full" height="500" version="1.1" width="1800" xmlns="http://www.w3.org/2000/svg" xmlns:ev="http://www.w3.org/2001/xml-events" xmlns:xlink="http://www.w3.org/1999/xlink"><defs /><text fill="black" x="0" y="100">VIETNAMESE </text><text fill="black" x="20" y="150">POS: </text><text fill="black" x="20" y="200">Source: </text><text fill="black" x="150" y="150">Nq</text><text fill="black" x="150" y="200">Một</text><text fill="black" x="230" y="150">Nn</text><text fill="black" x="230" y="200">hợp_âm</text><text fill="black" x="310" y="150">Nr</text><text fill="black" x="310" y="200">C</text><text fill="black" x="390" y="150">Nn</text><text fill="black" x="390" y="200">đô</text><text fill="black" x="470" y="150">Aa</text><text fill="black" x="470" y="200">trưởng</text><text fill="black" x="550" y="150">Cp</text><text fill="black" x="550" y="200">với</text><text fill="black" x="630" y="150">Nn</text><text fill="black" x="630" y="200">nốt</text><text fill="black" x="710" y="150">Nn</text><text fill="black" x="710" y="200">mi</text><text fill="black" x="790" y="150">Nr</text><text fill="black" x="790" y="200">E</text><text fill="black" x="870" y="150">Aa</text><text fill="black" x="870" y="200">thấp</text><text fill="black" x="950" y="150">Vc</text><text fill="black" x="950" y="200">là</text><text fill="black" x="1030" y="150">Nc</text><text fill="black" x="1030" y="200">sự</text><text fill="black" x="1110" y="150">Vv</text><text fill="black" x="1110" y="200">đảo_ngược</text><text fill="black" x="1190" y="150">Nn</text><text fill="black" x="1190" y="200">hợp_âm</text><text fill="black" x="1270" y="150">Nn</text><text fill="black" x="1270" y="200">lần</text><text fill="black" x="1350" y="150">Nn</text><text fill="black" x="1350" y="200">thứ</text><text fill="black" x="1430" y="150">An</text><text fill="black" x="1430" y="200">nhất</text><text fill="black" x="1510" y="150">PU</text><text fill="black" x="1510" y="200">.</text><text fill="black" x="0" y="450">ENGLISH </text><text fill="black" x="20" y="350">Target: </text><text fill="black" x="20" y="400">POS: </text><text fill="black" x="150" y="350">A</text><text fill="black" x="150" y="400">DT</text><text fill="black" x="230" y="350">chord</text><text fill="black" x="230" y="400">NN</text><text fill="black" x="310" y="350">of</text><text fill="black" x="310" y="400">IN</text><text fill="black" x="390" y="350">C</text><text fill="black" x="390" y="400">NN</text><text fill="black" x="470" y="350">major</text><text fill="black" x="470" y="400">JJ</text><text fill="black" x="550" y="350">with</text><text fill="black" x="550" y="400">IN</text><text fill="black" x="630" y="350">E</text><text fill="black" x="630" y="400">NN</text><text fill="black" x="710" y="350">in</text><text fill="black" x="710" y="400">IN</text><text fill="black" x="790" y="350">the</text><text fill="black" x="790" y="400">DT</text><text fill="black" x="870" y="350">bass</text><text fill="black" x="870" y="400">NN</text><text fill="black" x="950" y="350">is</text><text fill="black" x="950" y="400">VBZ</text><text fill="black" x="1030" y="350">in</text><text fill="black" x="1030" y="400">IN</text><text fill="black" x="1110" y="350">the</text><text fill="black" x="1110" y="400">DT</text><text fill="black" x="1190" y="350">1st</text><text fill="black" x="1190" y="400">JJ</text><text fill="black" x="1270" y="350">inversion</text><text fill="black" x="1270" y="400">NN</text><text fill="black" x="1350" y="350">.</text><text fill="black" x="1350" y="400">.</text><line stroke="red" x1="160" x2="150" y1="210" y2="330" /><line stroke="red" x1="260" x2="248" y1="210" y2="330" /><line stroke="red" x1="310" x2="390" y1="210" y2="330" /><line stroke="red" x1="400" x2="248" y1="210" y2="330" /><line stroke="red" x1="500" x2="248" y1="210" y2="330" /><line stroke="red" x1="560" x2="568" y1="210" y2="330" /><line stroke="red" x1="640" x2="1306" y1="210" y2="330" /><line stroke="red" x1="720" x2="1306" y1="210" y2="330" /><line stroke="red" x1="790" x2="630" y1="210" y2="330" /><line stroke="red" x1="890" x2="1306" y1="210" y2="330" /><line stroke="red" x1="1040" x2="1306" y1="210" y2="330" /><line stroke="red" x1="1150" x2="1306" y1="210" y2="330" /><line stroke="red" x1="1220" x2="1306" y1="210" y2="330" /><line stroke="red" x1="1280" x2="1306" y1="210" y2="330" /><line stroke="red" x1="1360" x2="1306" y1="210" y2="330" /><line stroke="red" x1="1450" x2="1306" y1="210" y2="330" /><line stroke="red" x1="1510" x2="1350" y1="210" y2="330" /></svg>