<?xml version="1.0" encoding="utf-8" ?>
<svg baseProfile="full" height="500" version="1.1" width="1500" xmlns="http://www.w3.org/2000/svg" xmlns:ev="http://www.w3.org/2001/xml-events" xmlns:xlink="http://www.w3.org/1999/xlink"><defs /><text fill="black" x="0" y="100">VIETNAMESE </text><text fill="black" x="20" y="150">POS: </text><text fill="black" x="20" y="200">Source: </text><text fill="black" x="150" y="150">Nq</text><text fill="black" x="150" y="200">Một</text><text fill="black" x="230" y="150">Nt</text><text fill="black" x="230" y="200">buổi</text><text fill="black" x="310" y="150">Nn</text><text fill="black" x="310" y="200">lễ</text><text fill="black" x="390" y="150">Cm</text><text fill="black" x="390" y="200">ở</text><text fill="black" x="470" y="150">Nn</text><text fill="black" x="470" y="200">nhà_thờ</text><text fill="black" x="550" y="150">Cm</text><text fill="black" x="550" y="200">để</text><text fill="black" x="630" y="150">Vv</text><text fill="black" x="630" y="200">cầu_nguyện</text><text fill="black" x="710" y="150">Cp</text><text fill="black" x="710" y="200">cho</text><text fill="black" x="790" y="150">Nq</text><text fill="black" x="790" y="200">những</text><text fill="black" x="870" y="150">Nn</text><text fill="black" x="870" y="200">người</text><text fill="black" x="950" y="150">R</text><text fill="black" x="950" y="200">đã</text><text fill="black" x="1030" y="150">Vv</text><text fill="black" x="1030" y="200">chết</text><text fill="black" x="1110" y="150">Cm</text><text fill="black" x="1110" y="200">trong</text><text fill="black" x="1190" y="150">Nn</text><text fill="black" x="1190" y="200">chiến_tranh</text><text fill="black" x="1270" y="150">PU</text><text fill="black" x="1270" y="200">.</text><text fill="black" x="0" y="450">ENGLISH </text><text fill="black" x="20" y="350">Target: </text><text fill="black" x="20" y="400">POS: </text><text fill="black" x="150" y="350">A</text><text fill="black" x="150" y="400">DT</text><text fill="black" x="230" y="350">church</text><text fill="black" x="230" y="400">NN</text><text fill="black" x="310" y="350">service</text><text fill="black" x="310" y="400">NN</text><text fill="black" x="390" y="350">to</text><text fill="black" x="390" y="400">TO</text><text fill="black" x="470" y="350">remember</text><text fill="black" x="470" y="400">VB</text><text fill="black" x="550" y="350">the</text><text fill="black" x="550" y="400">DT</text><text fill="black" x="630" y="350">war</text><text fill="black" x="630" y="400">NN</text><text fill="black" x="710" y="350">dead</text><text fill="black" x="710" y="400">JJ</text><text fill="black" x="790" y="350">.</text><text fill="black" x="790" y="400">.</text><line stroke="red" x1="160" x2="150" y1="210" y2="330" /><line stroke="red" x1="250" x2="337" y1="210" y2="330" /><line stroke="red" x1="320" x2="337" y1="210" y2="330" /><line stroke="red" x1="390" x2="257" y1="210" y2="330" /><line stroke="red" x1="500" x2="257" y1="210" y2="330" /><line stroke="red" x1="560" x2="393" y1="210" y2="330" /><line stroke="red" x1="680" x2="506" y1="210" y2="330" /><line stroke="red" x1="1050" x2="728" y1="210" y2="330" /><line stroke="red" x1="1240" x2="639" y1="210" y2="330" /><line stroke="red" x1="1270" x2="790" y1="210" y2="330" /></svg>