<?xml version="1.0" encoding="utf-8" ?>
<svg baseProfile="full" height="500" version="1.1" width="1600" xmlns="http://www.w3.org/2000/svg" xmlns:ev="http://www.w3.org/2001/xml-events" xmlns:xlink="http://www.w3.org/1999/xlink"><defs /><text fill="black" x="0" y="100">VIETNAMESE </text><text fill="black" x="20" y="150">POS: </text><text fill="black" x="20" y="200">Source: </text><text fill="black" x="150" y="150">Nc</text><text fill="black" x="150" y="200">Sự</text><text fill="black" x="230" y="150">Aa</text><text fill="black" x="230" y="200">bất_đồng</text><text fill="black" x="310" y="150">Aa</text><text fill="black" x="310" y="200">sâu_sắc</text><text fill="black" x="390" y="150">Cm</text><text fill="black" x="390" y="200">giữa</text><text fill="black" x="470" y="150">Nc</text><text fill="black" x="470" y="200">ngài</text><text fill="black" x="550" y="150">Nn</text><text fill="black" x="550" y="200">thủ_tướng</text><text fill="black" x="630" y="150">Cp</text><text fill="black" x="630" y="200">và</text><text fill="black" x="710" y="150">Nn</text><text fill="black" x="710" y="200">lãnh_tụ</text><text fill="black" x="790" y="150">Nn</text><text fill="black" x="790" y="200">phe</text><text fill="black" x="870" y="150">Vv</text><text fill="black" x="870" y="200">đối_lập</text><text fill="black" x="950" y="150">Cm</text><text fill="black" x="950" y="200">về</text><text fill="black" x="1030" y="150">Nn</text><text fill="black" x="1030" y="200">chi_phí</text><text fill="black" x="1110" y="150">Nn</text><text fill="black" x="1110" y="200">quốc_phòng</text><text fill="black" x="1190" y="150">PU</text><text fill="black" x="1190" y="200">.</text><text fill="black" x="0" y="450">ENGLISH </text><text fill="black" x="20" y="350">Target: </text><text fill="black" x="20" y="400">POS: </text><text fill="black" x="150" y="350">A</text><text fill="black" x="150" y="400">DT</text><text fill="black" x="230" y="350">clash</text><text fill="black" x="230" y="400">NN</text><text fill="black" x="310" y="350">between</text><text fill="black" x="310" y="400">IN</text><text fill="black" x="390" y="350">the</text><text fill="black" x="390" y="400">DT</text><text fill="black" x="470" y="350">Prime</text><text fill="black" x="470" y="400">NNP</text><text fill="black" x="550" y="350">Minister</text><text fill="black" x="550" y="400">NNP</text><text fill="black" x="630" y="350">and</text><text fill="black" x="630" y="400">CC</text><text fill="black" x="710" y="350">the</text><text fill="black" x="710" y="400">DT</text><text fill="black" x="790" y="350">leader</text><text fill="black" x="790" y="400">NN</text><text fill="black" x="870" y="350">of</text><text fill="black" x="870" y="400">IN</text><text fill="black" x="950" y="350">the</text><text fill="black" x="950" y="400">DT</text><text fill="black" x="1030" y="350">Opposition</text><text fill="black" x="1030" y="400">NN</text><text fill="black" x="1110" y="350">on</text><text fill="black" x="1110" y="400">IN</text><text fill="black" x="1190" y="350">defense</text><text fill="black" x="1190" y="400">NN</text><text fill="black" x="1270" y="350">spending</text><text fill="black" x="1270" y="400">NN</text><text fill="black" x="1350" y="350">.</text><text fill="black" x="1350" y="400">.</text><line stroke="red" x1="160" x2="150" y1="210" y2="330" /><line stroke="red" x1="270" x2="248" y1="210" y2="330" /><line stroke="red" x1="340" x2="248" y1="210" y2="330" /><line stroke="red" x1="410" x2="337" y1="210" y2="330" /><line stroke="red" x1="490" x2="586" y1="210" y2="330" /><line stroke="red" x1="590" x2="488" y1="210" y2="330" /><line stroke="red" x1="640" x2="639" y1="210" y2="330" /><line stroke="red" x1="740" x2="817" y1="210" y2="330" /><line stroke="red" x1="800" x2="1075" y1="210" y2="330" /><line stroke="red" x1="900" x2="1075" y1="210" y2="330" /><line stroke="red" x1="960" x2="1113" y1="210" y2="330" /><line stroke="red" x1="1060" x2="1306" y1="210" y2="330" /><line stroke="red" x1="1160" x2="1217" y1="210" y2="330" /><line stroke="red" x1="1190" x2="1350" y1="210" y2="330" /></svg>