<?xml version="1.0" encoding="utf-8" ?>
<svg baseProfile="full" height="500" version="1.1" width="1800" xmlns="http://www.w3.org/2000/svg" xmlns:ev="http://www.w3.org/2001/xml-events" xmlns:xlink="http://www.w3.org/1999/xlink"><defs /><text fill="black" x="0" y="100">VIETNAMESE </text><text fill="black" x="20" y="150">POS: </text><text fill="black" x="20" y="200">Source: </text><text fill="black" x="150" y="150">Nq</text><text fill="black" x="150" y="200">Một</text><text fill="black" x="230" y="150">Nn</text><text fill="black" x="230" y="200">nhân_viên</text><text fill="black" x="310" y="150">Nn</text><text fill="black" x="310" y="200">khách_sạn</text><text fill="black" x="390" y="150">Vv</text><text fill="black" x="390" y="200">dẫn</text><text fill="black" x="470" y="150">Nn</text><text fill="black" x="470" y="200">khách</text><text fill="black" x="550" y="150">D</text><text fill="black" x="550" y="200">đến</text><text fill="black" x="630" y="150">Nn</text><text fill="black" x="630" y="200">phòng</text><text fill="black" x="710" y="150">Cp</text><text fill="black" x="710" y="200">và</text><text fill="black" x="790" y="150">Vv</text><text fill="black" x="790" y="200">giới_thiệu</text><text fill="black" x="870" y="150">Aa</text><text fill="black" x="870" y="200">ngắn_gọn</text><text fill="black" x="950" y="150">Cp</text><text fill="black" x="950" y="200">với</text><text fill="black" x="1030" y="150">Nn</text><text fill="black" x="1030" y="200">ông</text><text fill="black" x="1110" y="150">Pd</text><text fill="black" x="1110" y="200">ấy</text><text fill="black" x="1190" y="150">Vd</text><text fill="black" x="1190" y="200">về</text><text fill="black" x="1270" y="150">Nn</text><text fill="black" x="1270" y="200">khách_sạn</text><text fill="black" x="1350" y="150">PU</text><text fill="black" x="1350" y="200">.</text><text fill="black" x="0" y="450">ENGLISH </text><text fill="black" x="20" y="350">Target: </text><text fill="black" x="20" y="400">POS: </text><text fill="black" x="150" y="350">A</text><text fill="black" x="150" y="400">DT</text><text fill="black" x="230" y="350">clerk</text><text fill="black" x="230" y="400">NN</text><text fill="black" x="310" y="350">shows</text><text fill="black" x="310" y="400">VBZ</text><text fill="black" x="390" y="350">the</text><text fill="black" x="390" y="400">DT</text><text fill="black" x="470" y="350">guest</text><text fill="black" x="470" y="400">NN</text><text fill="black" x="550" y="350">to</text><text fill="black" x="550" y="400">TO</text><text fill="black" x="630" y="350">his</text><text fill="black" x="630" y="400">PRP$</text><text fill="black" x="710" y="350">room</text><text fill="black" x="710" y="400">NN</text><text fill="black" x="790" y="350">and</text><text fill="black" x="790" y="400">CC</text><text fill="black" x="870" y="350">gives</text><text fill="black" x="870" y="400">VBZ</text><text fill="black" x="950" y="350">him</text><text fill="black" x="950" y="400">PRP</text><text fill="black" x="1030" y="350">a</text><text fill="black" x="1030" y="400">DT</text><text fill="black" x="1110" y="350">brief</text><text fill="black" x="1110" y="400">JJ</text><text fill="black" x="1190" y="350">introduction</text><text fill="black" x="1190" y="400">NN</text><text fill="black" x="1270" y="350">of</text><text fill="black" x="1270" y="400">IN</text><text fill="black" x="1350" y="350">the</text><text fill="black" x="1350" y="400">DT</text><text fill="black" x="1430" y="350">hotel</text><text fill="black" x="1430" y="400">NN</text><text fill="black" x="1510" y="350">.</text><text fill="black" x="1510" y="400">.</text><line stroke="red" x1="160" x2="150" y1="210" y2="330" /><line stroke="red" x1="270" x2="248" y1="210" y2="330" /><line stroke="red" x1="350" x2="248" y1="210" y2="330" /><line stroke="red" x1="400" x2="328" y1="210" y2="330" /><line stroke="red" x1="490" x2="488" y1="210" y2="330" /><line stroke="red" x1="560" x2="553" y1="210" y2="330" /><line stroke="red" x1="650" x2="728" y1="210" y2="330" /><line stroke="red" x1="720" x2="799" y1="210" y2="330" /><line stroke="red" x1="840" x2="1244" y1="210" y2="330" /><line stroke="red" x1="910" x2="1128" y1="210" y2="330" /><line stroke="red" x1="1040" x2="959" y1="210" y2="330" /><line stroke="red" x1="1120" x2="959" y1="210" y2="330" /><line stroke="red" x1="1200" x2="1273" y1="210" y2="330" /><line stroke="red" x1="1310" x2="1448" y1="210" y2="330" /><line stroke="red" x1="1350" x2="1510" y1="210" y2="330" /></svg>