<?xml version="1.0" encoding="utf-8" ?>
<svg baseProfile="full" height="500" version="1.1" width="2100" xmlns="http://www.w3.org/2000/svg" xmlns:ev="http://www.w3.org/2001/xml-events" xmlns:xlink="http://www.w3.org/1999/xlink"><defs /><text fill="black" x="0" y="100">VIETNAMESE </text><text fill="black" x="20" y="150">POS: </text><text fill="black" x="20" y="200">Source: </text><text fill="black" x="150" y="150">Nq</text><text fill="black" x="150" y="200">Một</text><text fill="black" x="230" y="150">Nn</text><text fill="black" x="230" y="200">nhân_viên</text><text fill="black" x="310" y="150">Nn</text><text fill="black" x="310" y="200">khách_sạn</text><text fill="black" x="390" y="150">Vd</text><text fill="black" x="390" y="200">đến</text><text fill="black" x="470" y="150">Vv</text><text fill="black" x="470" y="200">dọn_dẹp</text><text fill="black" x="550" y="150">Nn</text><text fill="black" x="550" y="200">phòng</text><text fill="black" x="630" y="150">PU</text><text fill="black" x="630" y="200">,</text><text fill="black" x="710" y="150">Nc</text><text fill="black" x="710" y="200">người</text><text fill="black" x="790" y="150">Nn</text><text fill="black" x="790" y="200">khách</text><text fill="black" x="870" y="150">Vv</text><text fill="black" x="870" y="200">trọ</text><text fill="black" x="950" y="150">Vv</text><text fill="black" x="950" y="200">muốn</text><text fill="black" x="1030" y="150">Vv</text><text fill="black" x="1030" y="200">mượn</text><text fill="black" x="1110" y="150">Nc</text><text fill="black" x="1110" y="200">cái</text><text fill="black" x="1190" y="150">Nn</text><text fill="black" x="1190" y="200">bàn_ủi</text><text fill="black" x="1270" y="150">Cp</text><text fill="black" x="1270" y="200">và</text><text fill="black" x="1350" y="150">Nc</text><text fill="black" x="1350" y="200">cái</text><text fill="black" x="1430" y="150">Nn</text><text fill="black" x="1430" y="200">bàn</text><text fill="black" x="1510" y="150">Cm</text><text fill="black" x="1510" y="200">để</text><text fill="black" x="1590" y="150">Vv</text><text fill="black" x="1590" y="200">ủi</text><text fill="black" x="1670" y="150">Nn</text><text fill="black" x="1670" y="200">quần_áo</text><text fill="black" x="1750" y="150">PU</text><text fill="black" x="1750" y="200">.</text><text fill="black" x="0" y="450">ENGLISH </text><text fill="black" x="20" y="350">Target: </text><text fill="black" x="20" y="400">POS: </text><text fill="black" x="150" y="350">A</text><text fill="black" x="150" y="400">DT</text><text fill="black" x="230" y="350">clerk</text><text fill="black" x="230" y="400">NN</text><text fill="black" x="310" y="350">comes</text><text fill="black" x="310" y="400">VBZ</text><text fill="black" x="390" y="350">to</text><text fill="black" x="390" y="400">TO</text><text fill="black" x="470" y="350">clean</text><text fill="black" x="470" y="400">VB</text><text fill="black" x="550" y="350">the</text><text fill="black" x="550" y="400">DT</text><text fill="black" x="630" y="350">room</text><text fill="black" x="630" y="400">NN</text><text fill="black" x="710" y="350">and</text><text fill="black" x="710" y="400">CC</text><text fill="black" x="790" y="350">the</text><text fill="black" x="790" y="400">DT</text><text fill="black" x="870" y="350">guest</text><text fill="black" x="870" y="400">NN</text><text fill="black" x="950" y="350">wants</text><text fill="black" x="950" y="400">VBZ</text><text fill="black" x="1030" y="350">to</text><text fill="black" x="1030" y="400">TO</text><text fill="black" x="1110" y="350">borrow</text><text fill="black" x="1110" y="400">VB</text><text fill="black" x="1190" y="350">an</text><text fill="black" x="1190" y="400">DT</text><text fill="black" x="1270" y="350">iron</text><text fill="black" x="1270" y="400">NN</text><text fill="black" x="1350" y="350">and</text><text fill="black" x="1350" y="400">CC</text><text fill="black" x="1430" y="350">an</text><text fill="black" x="1430" y="400">DT</text><text fill="black" x="1510" y="350">ironing</text><text fill="black" x="1510" y="400">VBG</text><text fill="black" x="1590" y="350">board</text><text fill="black" x="1590" y="400">NN</text><text fill="black" x="1670" y="350">.</text><text fill="black" x="1670" y="400">.</text><line stroke="red" x1="160" x2="150" y1="210" y2="330" /><line stroke="red" x1="270" x2="248" y1="210" y2="330" /><line stroke="red" x1="350" x2="248" y1="210" y2="330" /><line stroke="red" x1="400" x2="328" y1="210" y2="330" /><line stroke="red" x1="500" x2="488" y1="210" y2="330" /><line stroke="red" x1="570" x2="648" y1="210" y2="330" /><line stroke="red" x1="810" x2="888" y1="210" y2="330" /><line stroke="red" x1="880" x2="888" y1="210" y2="330" /><line stroke="red" x1="970" x2="968" y1="210" y2="330" /><line stroke="red" x1="1050" x2="1137" y1="210" y2="330" /><line stroke="red" x1="1120" x2="1137" y1="210" y2="330" /><line stroke="red" x1="1220" x2="1288" y1="210" y2="330" /><line stroke="red" x1="1280" x2="1359" y1="210" y2="330" /><line stroke="red" x1="1360" x2="1537" y1="210" y2="330" /><line stroke="red" x1="1440" x2="1537" y1="210" y2="330" /><line stroke="red" x1="1520" x2="1537" y1="210" y2="330" /><line stroke="red" x1="1600" x2="1537" y1="210" y2="330" /><line stroke="red" x1="1700" x2="1537" y1="210" y2="330" /><line stroke="red" x1="1750" x2="1670" y1="210" y2="330" /></svg>