<?xml version="1.0" encoding="utf-8" ?>
<svg baseProfile="full" height="500" version="1.1" width="1700" xmlns="http://www.w3.org/2000/svg" xmlns:ev="http://www.w3.org/2001/xml-events" xmlns:xlink="http://www.w3.org/1999/xlink"><defs /><text fill="black" x="0" y="100">VIETNAMESE </text><text fill="black" x="20" y="150">POS: </text><text fill="black" x="20" y="200">Source: </text><text fill="black" x="150" y="150">Nq</text><text fill="black" x="150" y="200">Một</text><text fill="black" x="230" y="150">Nn</text><text fill="black" x="230" y="200">điều_khoản</text><text fill="black" x="310" y="150">Cm</text><text fill="black" x="310" y="200">trong</text><text fill="black" x="390" y="150">Nn</text><text fill="black" x="390" y="200">hợp_đồng</text><text fill="black" x="470" y="150">Pd</text><text fill="black" x="470" y="200">này</text><text fill="black" x="550" y="150">Vv</text><text fill="black" x="550" y="200">quy_định</text><text fill="black" x="630" y="150">Cp</text><text fill="black" x="630" y="200">rằng</text><text fill="black" x="710" y="150">Nn</text><text fill="black" x="710" y="200">bên</text><text fill="black" x="790" y="150">Vv</text><text fill="black" x="790" y="200">thuê</text><text fill="black" x="870" y="150">R</text><text fill="black" x="870" y="200">sẽ</text><text fill="black" x="950" y="150">Vv</text><text fill="black" x="950" y="200">trả</text><text fill="black" x="1030" y="150">Nn</text><text fill="black" x="1030" y="200">tiền</text><text fill="black" x="1110" y="150">Vv</text><text fill="black" x="1110" y="200">sửa_chữa</text><text fill="black" x="1190" y="150">FW</text><text fill="black" x="1190" y="200">tòa</text><text fill="black" x="1270" y="150">Nn</text><text fill="black" x="1270" y="200">nhà</text><text fill="black" x="1350" y="150">PU</text><text fill="black" x="1350" y="200">.</text><text fill="black" x="0" y="450">ENGLISH </text><text fill="black" x="20" y="350">Target: </text><text fill="black" x="20" y="400">POS: </text><text fill="black" x="150" y="350">A</text><text fill="black" x="150" y="400">DT</text><text fill="black" x="230" y="350">clause</text><text fill="black" x="230" y="400">NN</text><text fill="black" x="310" y="350">in</text><text fill="black" x="310" y="400">IN</text><text fill="black" x="390" y="350">the</text><text fill="black" x="390" y="400">DT</text><text fill="black" x="470" y="350">agreement</text><text fill="black" x="470" y="400">NN</text><text fill="black" x="550" y="350">provides</text><text fill="black" x="550" y="400">VBZ</text><text fill="black" x="630" y="350">that</text><text fill="black" x="630" y="400">IN</text><text fill="black" x="710" y="350">the</text><text fill="black" x="710" y="400">DT</text><text fill="black" x="790" y="350">tenant</text><text fill="black" x="790" y="400">NN</text><text fill="black" x="870" y="350">shall</text><text fill="black" x="870" y="400">MD</text><text fill="black" x="950" y="350">pay</text><text fill="black" x="950" y="400">VB</text><text fill="black" x="1030" y="350">for</text><text fill="black" x="1030" y="400">IN</text><text fill="black" x="1110" y="350">repairs</text><text fill="black" x="1110" y="400">NNS</text><text fill="black" x="1190" y="350">to</text><text fill="black" x="1190" y="400">TO</text><text fill="black" x="1270" y="350">the</text><text fill="black" x="1270" y="400">DT</text><text fill="black" x="1350" y="350">building</text><text fill="black" x="1350" y="400">NN</text><text fill="black" x="1430" y="350">.</text><text fill="black" x="1430" y="400">.</text><line stroke="red" x1="160" x2="150" y1="210" y2="330" /><line stroke="red" x1="280" x2="257" y1="210" y2="330" /><line stroke="red" x1="330" x2="313" y1="210" y2="330" /><line stroke="red" x1="430" x2="506" y1="210" y2="330" /><line stroke="red" x1="590" x2="586" y1="210" y2="330" /><line stroke="red" x1="650" x2="648" y1="210" y2="330" /><line stroke="red" x1="720" x2="817" y1="210" y2="330" /><line stroke="red" x1="810" x2="817" y1="210" y2="330" /><line stroke="red" x1="880" x2="888" y1="210" y2="330" /><line stroke="red" x1="960" x2="959" y1="210" y2="330" /><line stroke="red" x1="1050" x2="959" y1="210" y2="330" /><line stroke="red" x1="1150" x2="1137" y1="210" y2="330" /><line stroke="red" x1="1200" x2="1386" y1="210" y2="330" /><line stroke="red" x1="1280" x2="1386" y1="210" y2="330" /><line stroke="red" x1="1350" x2="1430" y1="210" y2="330" /></svg>