<?xml version="1.0" encoding="utf-8" ?>
<svg baseProfile="full" height="500" version="1.1" width="1400" xmlns="http://www.w3.org/2000/svg" xmlns:ev="http://www.w3.org/2001/xml-events" xmlns:xlink="http://www.w3.org/1999/xlink"><defs /><text fill="black" x="0" y="100">VIETNAMESE </text><text fill="black" x="20" y="150">POS: </text><text fill="black" x="20" y="200">Source: </text><text fill="black" x="150" y="150">Nq</text><text fill="black" x="150" y="200">Một</text><text fill="black" x="230" y="150">Nn</text><text fill="black" x="230" y="200">nhân_viên</text><text fill="black" x="310" y="150">Nn</text><text fill="black" x="310" y="200">khách_sạn</text><text fill="black" x="390" y="150">Vv</text><text fill="black" x="390" y="200">gặp</text><text fill="black" x="470" y="150">Nr</text><text fill="black" x="470" y="200">Tom</text><text fill="black" x="550" y="150">Cp</text><text fill="black" x="550" y="200">và</text><text fill="black" x="630" y="150">Nr</text><text fill="black" x="630" y="200">Mary</text><text fill="black" x="710" y="150">PU</text><text fill="black" x="710" y="200">,</text><text fill="black" x="790" y="150">Pp</text><text fill="black" x="790" y="200">họ</text><text fill="black" x="870" y="150">R</text><text fill="black" x="870" y="200">vừa_mới</text><text fill="black" x="950" y="150">Vv</text><text fill="black" x="950" y="200">đi</text><text fill="black" x="1030" y="150">Vv</text><text fill="black" x="1030" y="200">nghỉ</text><text fill="black" x="1110" y="150">Vv</text><text fill="black" x="1110" y="200">trở_về</text><text fill="black" x="1190" y="150">PU</text><text fill="black" x="1190" y="200">.</text><text fill="black" x="0" y="450">ENGLISH </text><text fill="black" x="20" y="350">Target: </text><text fill="black" x="20" y="400">POS: </text><text fill="black" x="150" y="350">A</text><text fill="black" x="150" y="400">DT</text><text fill="black" x="230" y="350">clerk</text><text fill="black" x="230" y="400">NN</text><text fill="black" x="310" y="350">meets</text><text fill="black" x="310" y="400">VBZ</text><text fill="black" x="390" y="350">Tom</text><text fill="black" x="390" y="400">NNP</text><text fill="black" x="470" y="350">and</text><text fill="black" x="470" y="400">CC</text><text fill="black" x="550" y="350">Mary</text><text fill="black" x="550" y="400">NNP</text><text fill="black" x="630" y="350">who</text><text fill="black" x="630" y="400">WP</text><text fill="black" x="710" y="350">have</text><text fill="black" x="710" y="400">VBP</text><text fill="black" x="790" y="350">just</text><text fill="black" x="790" y="400">RB</text><text fill="black" x="870" y="350">returned</text><text fill="black" x="870" y="400">VBN</text><text fill="black" x="950" y="350">from</text><text fill="black" x="950" y="400">IN</text><text fill="black" x="1030" y="350">their</text><text fill="black" x="1030" y="400">PRP$</text><text fill="black" x="1110" y="350">vacation</text><text fill="black" x="1110" y="400">NN</text><text fill="black" x="1190" y="350">.</text><text fill="black" x="1190" y="400">.</text><line stroke="red" x1="160" x2="150" y1="210" y2="330" /><line stroke="red" x1="270" x2="248" y1="210" y2="330" /><line stroke="red" x1="350" x2="248" y1="210" y2="330" /><line stroke="red" x1="400" x2="328" y1="210" y2="330" /><line stroke="red" x1="480" x2="399" y1="210" y2="330" /><line stroke="red" x1="560" x2="479" y1="210" y2="330" /><line stroke="red" x1="650" x2="568" y1="210" y2="330" /><line stroke="red" x1="800" x2="1048" y1="210" y2="330" /><line stroke="red" x1="900" x2="808" y1="210" y2="330" /><line stroke="red" x1="960" x2="1146" y1="210" y2="330" /><line stroke="red" x1="1050" x2="1146" y1="210" y2="330" /><line stroke="red" x1="1140" x2="906" y1="210" y2="330" /><line stroke="red" x1="1190" x2="1190" y1="210" y2="330" /></svg>