<?xml version="1.0" encoding="utf-8" ?>
<svg baseProfile="full" height="500" version="1.1" width="1600" xmlns="http://www.w3.org/2000/svg" xmlns:ev="http://www.w3.org/2001/xml-events" xmlns:xlink="http://www.w3.org/1999/xlink"><defs /><text fill="black" x="0" y="100">VIETNAMESE </text><text fill="black" x="20" y="150">POS: </text><text fill="black" x="20" y="200">Source: </text><text fill="black" x="150" y="150">Nq</text><text fill="black" x="150" y="200">Một</text><text fill="black" x="230" y="150">Nn</text><text fill="black" x="230" y="200">nhân_viên</text><text fill="black" x="310" y="150">Nn</text><text fill="black" x="310" y="200">khách_sạn</text><text fill="black" x="390" y="150">Vv</text><text fill="black" x="390" y="200">dẫn</text><text fill="black" x="470" y="150">Nn</text><text fill="black" x="470" y="200">khách</text><text fill="black" x="550" y="150">D</text><text fill="black" x="550" y="200">đến</text><text fill="black" x="630" y="150">Nn</text><text fill="black" x="630" y="200">phòng</text><text fill="black" x="710" y="150">Cp</text><text fill="black" x="710" y="200">và</text><text fill="black" x="790" y="150">Vv</text><text fill="black" x="790" y="200">trả_lời</text><text fill="black" x="870" y="150">Nq</text><text fill="black" x="870" y="200">những</text><text fill="black" x="950" y="150">Nn</text><text fill="black" x="950" y="200">câu</text><text fill="black" x="1030" y="150">Vv</text><text fill="black" x="1030" y="200">hỏi</text><text fill="black" x="1110" y="150">Cm</text><text fill="black" x="1110" y="200">của</text><text fill="black" x="1190" y="150">Nn</text><text fill="black" x="1190" y="200">khách</text><text fill="black" x="1270" y="150">PU</text><text fill="black" x="1270" y="200">.</text><text fill="black" x="0" y="450">ENGLISH </text><text fill="black" x="20" y="350">Target: </text><text fill="black" x="20" y="400">POS: </text><text fill="black" x="150" y="350">A</text><text fill="black" x="150" y="400">DT</text><text fill="black" x="230" y="350">clerk</text><text fill="black" x="230" y="400">NN</text><text fill="black" x="310" y="350">shows</text><text fill="black" x="310" y="400">VBZ</text><text fill="black" x="390" y="350">the</text><text fill="black" x="390" y="400">DT</text><text fill="black" x="470" y="350">guest</text><text fill="black" x="470" y="400">NN</text><text fill="black" x="550" y="350">to</text><text fill="black" x="550" y="400">TO</text><text fill="black" x="630" y="350">his</text><text fill="black" x="630" y="400">PRP$</text><text fill="black" x="710" y="350">room</text><text fill="black" x="710" y="400">NN</text><text fill="black" x="790" y="350">and</text><text fill="black" x="790" y="400">CC</text><text fill="black" x="870" y="350">answers</text><text fill="black" x="870" y="400">VBZ</text><text fill="black" x="950" y="350">the</text><text fill="black" x="950" y="400">DT</text><text fill="black" x="1030" y="350">guest</text><text fill="black" x="1030" y="400">NN</text><text fill="black" x="1110" y="350">'</text><text fill="black" x="1110" y="400">POS</text><text fill="black" x="1190" y="350">s</text><text fill="black" x="1190" y="400">NN</text><text fill="black" x="1270" y="350">questions</text><text fill="black" x="1270" y="400">NNS</text><text fill="black" x="1350" y="350">.</text><text fill="black" x="1350" y="400">.</text><line stroke="red" x1="160" x2="150" y1="210" y2="330" /><line stroke="red" x1="270" x2="248" y1="210" y2="330" /><line stroke="red" x1="350" x2="248" y1="210" y2="330" /><line stroke="red" x1="400" x2="328" y1="210" y2="330" /><line stroke="red" x1="490" x2="488" y1="210" y2="330" /><line stroke="red" x1="560" x2="553" y1="210" y2="330" /><line stroke="red" x1="650" x2="728" y1="210" y2="330" /><line stroke="red" x1="720" x2="799" y1="210" y2="330" /><line stroke="red" x1="820" x2="897" y1="210" y2="330" /><line stroke="red" x1="960" x2="1306" y1="210" y2="330" /><line stroke="red" x1="1040" x2="1306" y1="210" y2="330" /><line stroke="red" x1="1210" x2="1048" y1="210" y2="330" /><line stroke="red" x1="1270" x2="1350" y1="210" y2="330" /></svg>