<?xml version="1.0" encoding="utf-8" ?>
<svg baseProfile="full" height="500" version="1.1" width="1400" xmlns="http://www.w3.org/2000/svg" xmlns:ev="http://www.w3.org/2001/xml-events" xmlns:xlink="http://www.w3.org/1999/xlink"><defs /><text fill="black" x="0" y="100">VIETNAMESE </text><text fill="black" x="20" y="150">POS: </text><text fill="black" x="20" y="200">Source: </text><text fill="black" x="150" y="150">Nn</text><text fill="black" x="150" y="200">Tiếng</text><text fill="black" x="230" y="150">Nn</text><text fill="black" x="230" y="200">chuông</text><text fill="black" x="310" y="150">Nn</text><text fill="black" x="310" y="200">đồng_hồ</text><text fill="black" x="390" y="150">Cm</text><text fill="black" x="390" y="200">trong</text><text fill="black" x="470" y="150">Nc</text><text fill="black" x="470" y="200">căn</text><text fill="black" x="550" y="150">Nn</text><text fill="black" x="550" y="200">nhà</text><text fill="black" x="630" y="150">Pd</text><text fill="black" x="630" y="200">đó</text><text fill="black" x="710" y="150">Nn</text><text fill="black" x="710" y="200">điểm</text><text fill="black" x="790" y="150">Aa</text><text fill="black" x="790" y="200">nhịp_nhàng</text><text fill="black" x="870" y="150">PU</text><text fill="black" x="870" y="200">,</text><text fill="black" x="950" y="150">Aa</text><text fill="black" x="950" y="200">trang_trọng</text><text fill="black" x="1030" y="150">PU</text><text fill="black" x="1030" y="200">.</text><text fill="black" x="0" y="450">ENGLISH </text><text fill="black" x="20" y="350">Target: </text><text fill="black" x="20" y="400">POS: </text><text fill="black" x="150" y="350">A</text><text fill="black" x="150" y="400">DT</text><text fill="black" x="230" y="350">clock</text><text fill="black" x="230" y="400">NN</text><text fill="black" x="310" y="350">struck</text><text fill="black" x="310" y="400">VBD</text><text fill="black" x="390" y="350">slowly</text><text fill="black" x="390" y="400">RB</text><text fill="black" x="470" y="350">in</text><text fill="black" x="470" y="400">IN</text><text fill="black" x="550" y="350">the</text><text fill="black" x="550" y="400">DT</text><text fill="black" x="630" y="350">house</text><text fill="black" x="630" y="400">NN</text><text fill="black" x="710" y="350">with</text><text fill="black" x="710" y="400">IN</text><text fill="black" x="790" y="350">a</text><text fill="black" x="790" y="400">DT</text><text fill="black" x="870" y="350">measured</text><text fill="black" x="870" y="400">JJ</text><text fill="black" x="950" y="350">,</text><text fill="black" x="950" y="400">,</text><text fill="black" x="1030" y="350">solemn</text><text fill="black" x="1030" y="400">JJ</text><text fill="black" x="1110" y="350">chime</text><text fill="black" x="1110" y="400">NN</text><text fill="black" x="1190" y="350">.</text><text fill="black" x="1190" y="400">.</text><line stroke="red" x1="170" x2="1128" y1="210" y2="330" /><line stroke="red" x1="260" x2="337" y1="210" y2="330" /><line stroke="red" x1="340" x2="248" y1="210" y2="330" /><line stroke="red" x1="410" x2="473" y1="210" y2="330" /><line stroke="red" x1="480" x2="648" y1="210" y2="330" /><line stroke="red" x1="560" x2="648" y1="210" y2="330" /><line stroke="red" x1="730" x2="1057" y1="210" y2="330" /><line stroke="red" x1="840" x2="1057" y1="210" y2="330" /><line stroke="red" x1="1000" x2="1057" y1="210" y2="330" /><line stroke="red" x1="1030" x2="1190" y1="210" y2="330" /></svg>