<?xml version="1.0" encoding="utf-8" ?>
<svg baseProfile="full" height="500" version="1.1" width="2000" xmlns="http://www.w3.org/2000/svg" xmlns:ev="http://www.w3.org/2001/xml-events" xmlns:xlink="http://www.w3.org/1999/xlink"><defs /><text fill="black" x="0" y="100">VIETNAMESE </text><text fill="black" x="20" y="150">POS: </text><text fill="black" x="20" y="200">Source: </text><text fill="black" x="150" y="150">Nq</text><text fill="black" x="150" y="200">Một</text><text fill="black" x="230" y="150">Nn</text><text fill="black" x="230" y="200">nhân_viên</text><text fill="black" x="310" y="150">Nn</text><text fill="black" x="310" y="200">khách_sạn</text><text fill="black" x="390" y="150">Vv</text><text fill="black" x="390" y="200">dẫn</text><text fill="black" x="470" y="150">Nn</text><text fill="black" x="470" y="200">khách</text><text fill="black" x="550" y="150">D</text><text fill="black" x="550" y="200">đến</text><text fill="black" x="630" y="150">Nn</text><text fill="black" x="630" y="200">phòng</text><text fill="black" x="710" y="150">Cm</text><text fill="black" x="710" y="200">của</text><text fill="black" x="790" y="150">Pp</text><text fill="black" x="790" y="200">họ</text><text fill="black" x="870" y="150">PU</text><text fill="black" x="870" y="200">,</text><text fill="black" x="950" y="150">Pp</text><text fill="black" x="950" y="200">họ</text><text fill="black" x="1030" y="150">Vv</text><text fill="black" x="1030" y="200">muốn</text><text fill="black" x="1110" y="150">Vv</text><text fill="black" x="1110" y="200">biết</text><text fill="black" x="1190" y="150">Nn</text><text fill="black" x="1190" y="200">số</text><text fill="black" x="1270" y="150">Nn</text><text fill="black" x="1270" y="200">điện_thoại</text><text fill="black" x="1350" y="150">Cm</text><text fill="black" x="1350" y="200">của</text><text fill="black" x="1430" y="150">Nn</text><text fill="black" x="1430" y="200">phòng_trọ</text><text fill="black" x="1510" y="150">PU</text><text fill="black" x="1510" y="200">.</text><text fill="black" x="0" y="450">ENGLISH </text><text fill="black" x="20" y="350">Target: </text><text fill="black" x="20" y="400">POS: </text><text fill="black" x="150" y="350">A</text><text fill="black" x="150" y="400">DT</text><text fill="black" x="230" y="350">clerk</text><text fill="black" x="230" y="400">NN</text><text fill="black" x="310" y="350">shows</text><text fill="black" x="310" y="400">VBZ</text><text fill="black" x="390" y="350">the</text><text fill="black" x="390" y="400">DT</text><text fill="black" x="470" y="350">guests</text><text fill="black" x="470" y="400">NNS</text><text fill="black" x="550" y="350">to</text><text fill="black" x="550" y="400">TO</text><text fill="black" x="630" y="350">their</text><text fill="black" x="630" y="400">PRP$</text><text fill="black" x="710" y="350">room</text><text fill="black" x="710" y="400">NN</text><text fill="black" x="790" y="350">and</text><text fill="black" x="790" y="400">CC</text><text fill="black" x="870" y="350">they</text><text fill="black" x="870" y="400">PRP</text><text fill="black" x="950" y="350">want</text><text fill="black" x="950" y="400">VBP</text><text fill="black" x="1030" y="350">to</text><text fill="black" x="1030" y="400">TO</text><text fill="black" x="1110" y="350">know</text><text fill="black" x="1110" y="400">VB</text><text fill="black" x="1190" y="350">their</text><text fill="black" x="1190" y="400">PRP$</text><text fill="black" x="1270" y="350">room</text><text fill="black" x="1270" y="400">NN</text><text fill="black" x="1350" y="350">'</text><text fill="black" x="1350" y="400">POS</text><text fill="black" x="1430" y="350">s</text><text fill="black" x="1430" y="400">NN</text><text fill="black" x="1510" y="350">telephone</text><text fill="black" x="1510" y="400">NN</text><text fill="black" x="1590" y="350">number</text><text fill="black" x="1590" y="400">NN</text><text fill="black" x="1670" y="350">.</text><text fill="black" x="1670" y="400">.</text><line stroke="red" x1="160" x2="150" y1="210" y2="330" /><line stroke="red" x1="270" x2="248" y1="210" y2="330" /><line stroke="red" x1="350" x2="248" y1="210" y2="330" /><line stroke="red" x1="400" x2="328" y1="210" y2="330" /><line stroke="red" x1="490" x2="497" y1="210" y2="330" /><line stroke="red" x1="560" x2="553" y1="210" y2="330" /><line stroke="red" x1="650" x2="728" y1="210" y2="330" /><line stroke="red" x1="800" x2="648" y1="210" y2="330" /><line stroke="red" x1="960" x2="888" y1="210" y2="330" /><line stroke="red" x1="1050" x2="968" y1="210" y2="330" /><line stroke="red" x1="1130" x2="1128" y1="210" y2="330" /><line stroke="red" x1="1200" x2="1617" y1="210" y2="330" /><line stroke="red" x1="1320" x2="1546" y1="210" y2="330" /><line stroke="red" x1="1470" x2="1546" y1="210" y2="330" /><line stroke="red" x1="1510" x2="1670" y1="210" y2="330" /></svg>