<?xml version="1.0" encoding="utf-8" ?>
<svg baseProfile="full" height="500" version="1.1" width="800" xmlns="http://www.w3.org/2000/svg" xmlns:ev="http://www.w3.org/2001/xml-events" xmlns:xlink="http://www.w3.org/1999/xlink"><defs /><text fill="black" x="0" y="100">VIETNAMESE </text><text fill="black" x="20" y="150">POS: </text><text fill="black" x="20" y="200">Source: </text><text fill="black" x="150" y="150">Nn</text><text fill="black" x="150" y="200">Một_cách</text><text fill="black" x="230" y="150">Vv</text><text fill="black" x="230" y="200">phối_hợp</text><text fill="black" x="310" y="150">Nn</text><text fill="black" x="310" y="200">màu_sắc</text><text fill="black" x="390" y="150">Ve</text><text fill="black" x="390" y="200">có</text><text fill="black" x="470" y="150">Nn</text><text fill="black" x="470" y="200">màu</text><text fill="black" x="550" y="150">Aa</text><text fill="black" x="550" y="200">đỏ</text><text fill="black" x="630" y="150">Aa</text><text fill="black" x="630" y="200">nổi_bật</text><text fill="black" x="710" y="150">PU</text><text fill="black" x="710" y="200">.</text><text fill="black" x="0" y="450">ENGLISH </text><text fill="black" x="20" y="350">Target: </text><text fill="black" x="20" y="400">POS: </text><text fill="black" x="150" y="350">A</text><text fill="black" x="150" y="400">DT</text><text fill="black" x="230" y="350">colour</text><text fill="black" x="230" y="400">NN</text><text fill="black" x="310" y="350">scheme</text><text fill="black" x="310" y="400">NN</text><text fill="black" x="390" y="350">in</text><text fill="black" x="390" y="400">IN</text><text fill="black" x="470" y="350">which</text><text fill="black" x="470" y="400">WDT</text><text fill="black" x="550" y="350">red</text><text fill="black" x="550" y="400">NN</text><text fill="black" x="630" y="350">predominates</text><text fill="black" x="630" y="400">VBZ</text><text fill="black" x="710" y="350">.</text><text fill="black" x="710" y="400">.</text><line stroke="red" x1="190" x2="684" y1="210" y2="330" /><line stroke="red" x1="270" x2="684" y1="210" y2="330" /><line stroke="red" x1="340" x2="257" y1="210" y2="330" /><line stroke="red" x1="480" x2="559" y1="210" y2="330" /><line stroke="red" x1="560" x2="559" y1="210" y2="330" /><line stroke="red" x1="660" x2="684" y1="210" y2="330" /><line stroke="red" x1="710" x2="710" y1="210" y2="330" /></svg>