<?xml version="1.0" encoding="utf-8" ?>
<svg baseProfile="full" height="500" version="1.1" width="2100" xmlns="http://www.w3.org/2000/svg" xmlns:ev="http://www.w3.org/2001/xml-events" xmlns:xlink="http://www.w3.org/1999/xlink"><defs /><text fill="black" x="0" y="100">VIETNAMESE </text><text fill="black" x="20" y="150">POS: </text><text fill="black" x="20" y="200">Source: </text><text fill="black" x="150" y="150">Nq</text><text fill="black" x="150" y="200">Một</text><text fill="black" x="230" y="150">Nn</text><text fill="black" x="230" y="200">cụm</text><text fill="black" x="310" y="150">Nn</text><text fill="black" x="310" y="200">mây</text><text fill="black" x="390" y="150">Aa</text><text fill="black" x="390" y="200">có_thể</text><text fill="black" x="470" y="150">Vv</text><text fill="black" x="470" y="200">biến_mất</text><text fill="black" x="550" y="150">Cp</text><text fill="black" x="550" y="200">vì</text><text fill="black" x="630" y="150">Nn</text><text fill="black" x="630" y="200">nước</text><text fill="black" x="710" y="150">Cp</text><text fill="black" x="710" y="200">hoặc</text><text fill="black" x="790" y="150">Nn</text><text fill="black" x="790" y="200">nước_đá</text><text fill="black" x="870" y="150">Cm</text><text fill="black" x="870" y="200">trong</text><text fill="black" x="950" y="150">Pp</text><text fill="black" x="950" y="200">nó</text><text fill="black" x="1030" y="150">R</text><text fill="black" x="1030" y="200">đã</text><text fill="black" x="1110" y="150">Vv</text><text fill="black" x="1110" y="200">rơi</text><text fill="black" x="1190" y="150">D</text><text fill="black" x="1190" y="200">xuống</text><text fill="black" x="1270" y="150">Nn</text><text fill="black" x="1270" y="200">đất</text><text fill="black" x="1350" y="150">Cm</text><text fill="black" x="1350" y="200">dưới</text><text fill="black" x="1430" y="150">Nn</text><text fill="black" x="1430" y="200">dạng</text><text fill="black" x="1510" y="150">Nn</text><text fill="black" x="1510" y="200">mưa</text><text fill="black" x="1590" y="150">Cp</text><text fill="black" x="1590" y="200">hoặc</text><text fill="black" x="1670" y="150">Nn</text><text fill="black" x="1670" y="200">tuyết</text><text fill="black" x="1750" y="150">PU</text><text fill="black" x="1750" y="200">.</text><text fill="black" x="0" y="450">ENGLISH </text><text fill="black" x="20" y="350">Target: </text><text fill="black" x="20" y="400">POS: </text><text fill="black" x="150" y="350">A</text><text fill="black" x="150" y="400">DT</text><text fill="black" x="230" y="350">clouds</text><text fill="black" x="230" y="400">NNS</text><text fill="black" x="310" y="350">may</text><text fill="black" x="310" y="400">MD</text><text fill="black" x="390" y="350">disappear</text><text fill="black" x="390" y="400">VB</text><text fill="black" x="470" y="350">because</text><text fill="black" x="470" y="400">IN</text><text fill="black" x="550" y="350">the</text><text fill="black" x="550" y="400">DT</text><text fill="black" x="630" y="350">water</text><text fill="black" x="630" y="400">NN</text><text fill="black" x="710" y="350">or</text><text fill="black" x="710" y="400">CC</text><text fill="black" x="790" y="350">ice</text><text fill="black" x="790" y="400">NN</text><text fill="black" x="870" y="350">in</text><text fill="black" x="870" y="400">IN</text><text fill="black" x="950" y="350">it</text><text fill="black" x="950" y="400">PRP</text><text fill="black" x="1030" y="350">has</text><text fill="black" x="1030" y="400">VBZ</text><text fill="black" x="1110" y="350">fallen</text><text fill="black" x="1110" y="400">VBN</text><text fill="black" x="1190" y="350">to</text><text fill="black" x="1190" y="400">TO</text><text fill="black" x="1270" y="350">the</text><text fill="black" x="1270" y="400">DT</text><text fill="black" x="1350" y="350">ground</text><text fill="black" x="1350" y="400">NN</text><text fill="black" x="1430" y="350">as</text><text fill="black" x="1430" y="400">IN</text><text fill="black" x="1510" y="350">rain</text><text fill="black" x="1510" y="400">NN</text><text fill="black" x="1590" y="350">or</text><text fill="black" x="1590" y="400">CC</text><text fill="black" x="1670" y="350">snow</text><text fill="black" x="1670" y="400">NN</text><text fill="black" x="1750" y="350">.</text><text fill="black" x="1750" y="400">.</text><line stroke="red" x1="160" x2="150" y1="210" y2="330" /><line stroke="red" x1="240" x2="257" y1="210" y2="330" /><line stroke="red" x1="320" x2="257" y1="210" y2="330" /><line stroke="red" x1="420" x2="319" y1="210" y2="330" /><line stroke="red" x1="510" x2="426" y1="210" y2="330" /><line stroke="red" x1="560" x2="497" y1="210" y2="330" /><line stroke="red" x1="650" x2="648" y1="210" y2="330" /><line stroke="red" x1="730" x2="713" y1="210" y2="330" /><line stroke="red" x1="820" x2="799" y1="210" y2="330" /><line stroke="red" x1="890" x2="873" y1="210" y2="330" /><line stroke="red" x1="960" x2="953" y1="210" y2="330" /><line stroke="red" x1="1040" x2="1039" y1="210" y2="330" /><line stroke="red" x1="1120" x2="1137" y1="210" y2="330" /><line stroke="red" x1="1210" x2="1377" y1="210" y2="330" /><line stroke="red" x1="1280" x2="1377" y1="210" y2="330" /><line stroke="red" x1="1370" x2="426" y1="210" y2="330" /><line stroke="red" x1="1450" x2="426" y1="210" y2="330" /><line stroke="red" x1="1520" x2="1528" y1="210" y2="330" /><line stroke="red" x1="1610" x2="1593" y1="210" y2="330" /><line stroke="red" x1="1690" x2="1688" y1="210" y2="330" /><line stroke="red" x1="1750" x2="1750" y1="210" y2="330" /></svg>