<?xml version="1.0" encoding="utf-8" ?>
<svg baseProfile="full" height="500" version="1.1" width="1600" xmlns="http://www.w3.org/2000/svg" xmlns:ev="http://www.w3.org/2001/xml-events" xmlns:xlink="http://www.w3.org/1999/xlink"><defs /><text fill="black" x="0" y="100">VIETNAMESE </text><text fill="black" x="20" y="150">POS: </text><text fill="black" x="20" y="200">Source: </text><text fill="black" x="150" y="150">Nn</text><text fill="black" x="150" y="200">Sao_chổi</text><text fill="black" x="230" y="150">Vv</text><text fill="black" x="230" y="200">trông</text><text fill="black" x="310" y="150">Vv</text><text fill="black" x="310" y="200">giống</text><text fill="black" x="390" y="150">Cp</text><text fill="black" x="390" y="200">như</text><text fill="black" x="470" y="150">Nq</text><text fill="black" x="470" y="200">một</text><text fill="black" x="550" y="150">Nn</text><text fill="black" x="550" y="200">ngôi_sao</text><text fill="black" x="630" y="150">Ve</text><text fill="black" x="630" y="200">có</text><text fill="black" x="710" y="150">Nn</text><text fill="black" x="710" y="200">mái_tóc</text><text fill="black" x="790" y="150">FW</text><text fill="black" x="790" y="200">tỏa</text><text fill="black" x="870" y="150">Nt</text><text fill="black" x="870" y="200">sáng</text><text fill="black" x="950" y="150">Vv</text><text fill="black" x="950" y="200">chảy</text><text fill="black" x="1030" y="150">Aa</text><text fill="black" x="1030" y="200">dài</text><text fill="black" x="1110" y="150">Cp</text><text fill="black" x="1110" y="200">như</text><text fill="black" x="1190" y="150">Nn</text><text fill="black" x="1190" y="200">dòng</text><text fill="black" x="1270" y="150">Nn</text><text fill="black" x="1270" y="200">suối</text><text fill="black" x="1350" y="150">PU</text><text fill="black" x="1350" y="200">.</text><text fill="black" x="0" y="450">ENGLISH </text><text fill="black" x="20" y="350">Target: </text><text fill="black" x="20" y="400">POS: </text><text fill="black" x="150" y="350">A</text><text fill="black" x="150" y="400">DT</text><text fill="black" x="230" y="350">comet</text><text fill="black" x="230" y="400">NN</text><text fill="black" x="310" y="350">looks</text><text fill="black" x="310" y="400">VBZ</text><text fill="black" x="390" y="350">like</text><text fill="black" x="390" y="400">IN</text><text fill="black" x="470" y="350">a</text><text fill="black" x="470" y="400">DT</text><text fill="black" x="550" y="350">star</text><text fill="black" x="550" y="400">NN</text><text fill="black" x="630" y="350">that</text><text fill="black" x="630" y="400">WDT</text><text fill="black" x="710" y="350">has</text><text fill="black" x="710" y="400">VBZ</text><text fill="black" x="790" y="350">shining</text><text fill="black" x="790" y="400">VBG</text><text fill="black" x="870" y="350">hair</text><text fill="black" x="870" y="400">NN</text><text fill="black" x="950" y="350">streaming</text><text fill="black" x="950" y="400">NN</text><text fill="black" x="1030" y="350">out</text><text fill="black" x="1030" y="400">IN</text><text fill="black" x="1110" y="350">from</text><text fill="black" x="1110" y="400">IN</text><text fill="black" x="1190" y="350">it</text><text fill="black" x="1190" y="400">PRP</text><text fill="black" x="1270" y="350">.</text><text fill="black" x="1270" y="400">.</text><line stroke="red" x1="190" x2="248" y1="210" y2="330" /><line stroke="red" x1="250" x2="328" y1="210" y2="330" /><line stroke="red" x1="330" x2="328" y1="210" y2="330" /><line stroke="red" x1="400" x2="408" y1="210" y2="330" /><line stroke="red" x1="480" x2="470" y1="210" y2="330" /><line stroke="red" x1="590" x2="568" y1="210" y2="330" /><line stroke="red" x1="740" x2="888" y1="210" y2="330" /><line stroke="red" x1="800" x2="817" y1="210" y2="330" /><line stroke="red" x1="890" x2="817" y1="210" y2="330" /><line stroke="red" x1="970" x2="986" y1="210" y2="330" /><line stroke="red" x1="1040" x2="986" y1="210" y2="330" /><line stroke="red" x1="1120" x2="986" y1="210" y2="330" /><line stroke="red" x1="1210" x2="986" y1="210" y2="330" /><line stroke="red" x1="1290" x2="986" y1="210" y2="330" /><line stroke="red" x1="1350" x2="1270" y1="210" y2="330" /></svg>