<?xml version="1.0" encoding="utf-8" ?>
<svg baseProfile="full" height="500" version="1.1" width="1300" xmlns="http://www.w3.org/2000/svg" xmlns:ev="http://www.w3.org/2001/xml-events" xmlns:xlink="http://www.w3.org/1999/xlink"><defs /><text fill="black" x="0" y="100">VIETNAMESE </text><text fill="black" x="20" y="150">POS: </text><text fill="black" x="20" y="200">Source: </text><text fill="black" x="150" y="150">Nn</text><text fill="black" x="150" y="200">Đuôi</text><text fill="black" x="230" y="150">Nn</text><text fill="black" x="230" y="200">sao_chổi</text><text fill="black" x="310" y="150">R</text><text fill="black" x="310" y="200">luôn_luôn</text><text fill="black" x="390" y="150">Vv</text><text fill="black" x="390" y="200">chảy</text><text fill="black" x="470" y="150">R</text><text fill="black" x="470" y="200">ra</text><text fill="black" x="550" y="150">Cp</text><text fill="black" x="550" y="200">như</text><text fill="black" x="630" y="150">Nn</text><text fill="black" x="630" y="200">dòng</text><text fill="black" x="710" y="150">Nn</text><text fill="black" x="710" y="200">suối</text><text fill="black" x="790" y="150">Vv</text><text fill="black" x="790" y="200">xuất_phát</text><text fill="black" x="870" y="150">Cm</text><text fill="black" x="870" y="200">từ</text><text fill="black" x="950" y="150">Nn</text><text fill="black" x="950" y="200">phía</text><text fill="black" x="1030" y="150">Nn</text><text fill="black" x="1030" y="200">mặt_trời</text><text fill="black" x="1110" y="150">PU</text><text fill="black" x="1110" y="200">.</text><text fill="black" x="0" y="450">ENGLISH </text><text fill="black" x="20" y="350">Target: </text><text fill="black" x="20" y="400">POS: </text><text fill="black" x="150" y="350">A</text><text fill="black" x="150" y="400">DT</text><text fill="black" x="230" y="350">comet</text><text fill="black" x="230" y="400">NN</text><text fill="black" x="310" y="350">'</text><text fill="black" x="310" y="400">POS</text><text fill="black" x="390" y="350">s</text><text fill="black" x="390" y="400">NN</text><text fill="black" x="470" y="350">tail</text><text fill="black" x="470" y="400">NN</text><text fill="black" x="550" y="350">always</text><text fill="black" x="550" y="400">RB</text><text fill="black" x="630" y="350">streams</text><text fill="black" x="630" y="400">NNS</text><text fill="black" x="710" y="350">out</text><text fill="black" x="710" y="400">IN</text><text fill="black" x="790" y="350">way</text><text fill="black" x="790" y="400">NN</text><text fill="black" x="870" y="350">from</text><text fill="black" x="870" y="400">IN</text><text fill="black" x="950" y="350">the</text><text fill="black" x="950" y="400">DT</text><text fill="black" x="1030" y="350">sun</text><text fill="black" x="1030" y="400">NN</text><text fill="black" x="1110" y="350">.</text><text fill="black" x="1110" y="400">.</text><line stroke="red" x1="170" x2="248" y1="210" y2="330" /><line stroke="red" x1="270" x2="248" y1="210" y2="330" /><line stroke="red" x1="350" x2="577" y1="210" y2="330" /><line stroke="red" x1="410" x2="657" y1="210" y2="330" /><line stroke="red" x1="480" x2="657" y1="210" y2="330" /><line stroke="red" x1="560" x2="657" y1="210" y2="330" /><line stroke="red" x1="650" x2="657" y1="210" y2="330" /><line stroke="red" x1="730" x2="657" y1="210" y2="330" /><line stroke="red" x1="830" x2="657" y1="210" y2="330" /><line stroke="red" x1="880" x2="888" y1="210" y2="330" /><line stroke="red" x1="970" x2="657" y1="210" y2="330" /><line stroke="red" x1="1070" x2="1039" y1="210" y2="330" /><line stroke="red" x1="1110" x2="1110" y1="210" y2="330" /></svg>