<?xml version="1.0" encoding="utf-8" ?>
<svg baseProfile="full" height="500" version="1.1" width="2500" xmlns="http://www.w3.org/2000/svg" xmlns:ev="http://www.w3.org/2001/xml-events" xmlns:xlink="http://www.w3.org/1999/xlink"><defs /><text fill="black" x="0" y="100">VIETNAMESE </text><text fill="black" x="20" y="150">POS: </text><text fill="black" x="20" y="200">Source: </text><text fill="black" x="150" y="150">Nq</text><text fill="black" x="150" y="200">Một</text><text fill="black" x="230" y="150">Nn</text><text fill="black" x="230" y="200">la_bàn</text><text fill="black" x="310" y="150">Nn</text><text fill="black" x="310" y="200">cấu_tạo</text><text fill="black" x="390" y="150">Cp</text><text fill="black" x="390" y="200">bởi</text><text fill="black" x="470" y="150">Nq</text><text fill="black" x="470" y="200">một</text><text fill="black" x="550" y="150">Nc</text><text fill="black" x="550" y="200">thanh</text><text fill="black" x="630" y="150">Nn</text><text fill="black" x="630" y="200">nam_châm</text><text fill="black" x="710" y="150">Vv</text><text fill="black" x="710" y="200">gọi</text><text fill="black" x="790" y="150">Cp</text><text fill="black" x="790" y="200">là</text><text fill="black" x="870" y="150">Nn</text><text fill="black" x="870" y="200">la_bàn</text><text fill="black" x="950" y="150">Cm</text><text fill="black" x="950" y="200">từ</text><text fill="black" x="1030" y="150">PU</text><text fill="black" x="1030" y="200">-</text><text fill="black" x="1110" y="150">Pp</text><text fill="black" x="1110" y="200">nó</text><text fill="black" x="1190" y="150">Aa</text><text fill="black" x="1190" y="200">có_thể</text><text fill="black" x="1270" y="150">Vv</text><text fill="black" x="1270" y="200">cho_biết</text><text fill="black" x="1350" y="150">Nn</text><text fill="black" x="1350" y="200">phương_hướng</text><text fill="black" x="1430" y="150">Cp</text><text fill="black" x="1430" y="200">vì</text><text fill="black" x="1510" y="150">Nn</text><text fill="black" x="1510" y="200">quả_đất</text><text fill="black" x="1590" y="150">Vv</text><text fill="black" x="1590" y="200">hoạt_động</text><text fill="black" x="1670" y="150">Cp</text><text fill="black" x="1670" y="200">như</text><text fill="black" x="1750" y="150">Nq</text><text fill="black" x="1750" y="200">một</text><text fill="black" x="1830" y="150">Nc</text><text fill="black" x="1830" y="200">thanh</text><text fill="black" x="1910" y="150">Nn</text><text fill="black" x="1910" y="200">nam_châm</text><text fill="black" x="1990" y="150">Aa</text><text fill="black" x="1990" y="200">vĩ_đại</text><text fill="black" x="2070" y="150">PU</text><text fill="black" x="2070" y="200">.</text><text fill="black" x="0" y="450">ENGLISH </text><text fill="black" x="20" y="350">Target: </text><text fill="black" x="20" y="400">POS: </text><text fill="black" x="150" y="350">A</text><text fill="black" x="150" y="400">DT</text><text fill="black" x="230" y="350">compass</text><text fill="black" x="230" y="400">NN</text><text fill="black" x="310" y="350">made</text><text fill="black" x="310" y="400">VBN</text><text fill="black" x="390" y="350">of</text><text fill="black" x="390" y="400">IN</text><text fill="black" x="470" y="350">a</text><text fill="black" x="470" y="400">DT</text><text fill="black" x="550" y="350">magnet</text><text fill="black" x="550" y="400">NN</text><text fill="black" x="630" y="350">-</text><text fill="black" x="630" y="400">:</text><text fill="black" x="710" y="350">a</text><text fill="black" x="710" y="400">DT</text><text fill="black" x="790" y="350">magnetic</text><text fill="black" x="790" y="400">JJ</text><text fill="black" x="870" y="350">compass</text><text fill="black" x="870" y="400">NN</text><text fill="black" x="950" y="350">-</text><text fill="black" x="950" y="400">:</text><text fill="black" x="1030" y="350">tells</text><text fill="black" x="1030" y="400">VBZ</text><text fill="black" x="1110" y="350">direction</text><text fill="black" x="1110" y="400">NN</text><text fill="black" x="1190" y="350">because</text><text fill="black" x="1190" y="400">IN</text><text fill="black" x="1270" y="350">the</text><text fill="black" x="1270" y="400">DT</text><text fill="black" x="1350" y="350">earth</text><text fill="black" x="1350" y="400">NN</text><text fill="black" x="1430" y="350">acts</text><text fill="black" x="1430" y="400">VBZ</text><text fill="black" x="1510" y="350">as</text><text fill="black" x="1510" y="400">IN</text><text fill="black" x="1590" y="350">a</text><text fill="black" x="1590" y="400">DT</text><text fill="black" x="1670" y="350">great</text><text fill="black" x="1670" y="400">JJ</text><text fill="black" x="1750" y="350">magnet</text><text fill="black" x="1750" y="400">NN</text><text fill="black" x="1830" y="350">.</text><text fill="black" x="1830" y="400">.</text><line stroke="red" x1="160" x2="150" y1="210" y2="330" /><line stroke="red" x1="260" x2="257" y1="210" y2="330" /><line stroke="red" x1="340" x2="577" y1="210" y2="330" /><line stroke="red" x1="400" x2="577" y1="210" y2="330" /><line stroke="red" x1="480" x2="710" y1="210" y2="330" /><line stroke="red" x1="570" x2="577" y1="210" y2="330" /><line stroke="red" x1="670" x2="577" y1="210" y2="330" /><line stroke="red" x1="720" x2="577" y1="210" y2="330" /><line stroke="red" x1="900" x2="897" y1="210" y2="330" /><line stroke="red" x1="960" x2="826" y1="210" y2="330" /><line stroke="red" x1="1030" x2="950" y1="210" y2="330" /><line stroke="red" x1="1120" x2="1777" y1="210" y2="330" /><line stroke="red" x1="1220" x2="1777" y1="210" y2="330" /><line stroke="red" x1="1310" x2="1777" y1="210" y2="330" /><line stroke="red" x1="1410" x2="1777" y1="210" y2="330" /><line stroke="red" x1="1440" x2="1217" y1="210" y2="330" /><line stroke="red" x1="1540" x2="1368" y1="210" y2="330" /><line stroke="red" x1="1630" x2="1448" y1="210" y2="330" /><line stroke="red" x1="1680" x2="1513" y1="210" y2="330" /><line stroke="red" x1="1760" x2="1590" y1="210" y2="330" /><line stroke="red" x1="1850" x2="1777" y1="210" y2="330" /><line stroke="red" x1="1950" x2="1777" y1="210" y2="330" /><line stroke="red" x1="2020" x2="1777" y1="210" y2="330" /><line stroke="red" x1="2070" x2="1830" y1="210" y2="330" /></svg>