<?xml version="1.0" encoding="utf-8" ?>
<svg baseProfile="full" height="500" version="1.1" width="1900" xmlns="http://www.w3.org/2000/svg" xmlns:ev="http://www.w3.org/2001/xml-events" xmlns:xlink="http://www.w3.org/1999/xlink"><defs /><text fill="black" x="0" y="100">VIETNAMESE </text><text fill="black" x="20" y="150">POS: </text><text fill="black" x="20" y="200">Source: </text><text fill="black" x="150" y="150">Nq</text><text fill="black" x="150" y="200">Một</text><text fill="black" x="230" y="150">Nn</text><text fill="black" x="230" y="200">công_ty</text><text fill="black" x="310" y="150">R</text><text fill="black" x="310" y="200">không</text><text fill="black" x="390" y="150">Pp</text><text fill="black" x="390" y="200">bao_giờ</text><text fill="black" x="470" y="150">Vv</text><text fill="black" x="470" y="200">mong_đợi</text><text fill="black" x="550" y="150">Cp</text><text fill="black" x="550" y="200">là</text><text fill="black" x="630" y="150">Aa</text><text fill="black" x="630" y="200">có_thể</text><text fill="black" x="710" y="150">Vv</text><text fill="black" x="710" y="200">bị</text><text fill="black" x="790" y="150">Vv</text><text fill="black" x="790" y="200">thách_thức</text><text fill="black" x="870" y="150">Cm</text><text fill="black" x="870" y="200">về</text><text fill="black" x="950" y="150">Nn</text><text fill="black" x="950" y="200">sở_trường</text><text fill="black" x="1030" y="150">Cm</text><text fill="black" x="1030" y="200">của</text><text fill="black" x="1110" y="150">Pp</text><text fill="black" x="1110" y="200">nó</text><text fill="black" x="1190" y="150">Cm</text><text fill="black" x="1190" y="200">trong</text><text fill="black" x="1270" y="150">Nn</text><text fill="black" x="1270" y="200">việc</text><text fill="black" x="1350" y="150">Vv</text><text fill="black" x="1350" y="200">phát_triển</text><text fill="black" x="1430" y="150">Nn</text><text fill="black" x="1430" y="200">phần_mềm</text><text fill="black" x="1510" y="150">Nn</text><text fill="black" x="1510" y="200">vi_tính</text><text fill="black" x="1590" y="150">PU</text><text fill="black" x="1590" y="200">.</text><text fill="black" x="0" y="450">ENGLISH </text><text fill="black" x="20" y="350">Target: </text><text fill="black" x="20" y="400">POS: </text><text fill="black" x="150" y="350">A</text><text fill="black" x="150" y="400">DT</text><text fill="black" x="230" y="350">company</text><text fill="black" x="230" y="400">NN</text><text fill="black" x="310" y="350">that</text><text fill="black" x="310" y="400">IN</text><text fill="black" x="390" y="350">never</text><text fill="black" x="390" y="400">RB</text><text fill="black" x="470" y="350">expected</text><text fill="black" x="470" y="400">VBN</text><text fill="black" x="550" y="350">to</text><text fill="black" x="550" y="400">TO</text><text fill="black" x="630" y="350">be</text><text fill="black" x="630" y="400">VB</text><text fill="black" x="710" y="350">challenged</text><text fill="black" x="710" y="400">VBN</text><text fill="black" x="790" y="350">on</text><text fill="black" x="790" y="400">IN</text><text fill="black" x="870" y="350">its</text><text fill="black" x="870" y="400">PRP$</text><text fill="black" x="950" y="350">home</text><text fill="black" x="950" y="400">NN</text><text fill="black" x="1030" y="350">ground</text><text fill="black" x="1030" y="400">NN</text><text fill="black" x="1110" y="350">of</text><text fill="black" x="1110" y="400">IN</text><text fill="black" x="1190" y="350">software</text><text fill="black" x="1190" y="400">NN</text><text fill="black" x="1270" y="350">development</text><text fill="black" x="1270" y="400">NN</text><text fill="black" x="1350" y="350">.</text><text fill="black" x="1350" y="400">.</text><line stroke="red" x1="160" x2="150" y1="210" y2="330" /><line stroke="red" x1="260" x2="257" y1="210" y2="330" /><line stroke="red" x1="330" x2="408" y1="210" y2="330" /><line stroke="red" x1="420" x2="408" y1="210" y2="330" /><line stroke="red" x1="510" x2="506" y1="210" y2="330" /><line stroke="red" x1="660" x2="755" y1="210" y2="330" /><line stroke="red" x1="720" x2="755" y1="210" y2="330" /><line stroke="red" x1="840" x2="755" y1="210" y2="330" /><line stroke="red" x1="880" x2="793" y1="210" y2="330" /><line stroke="red" x1="990" x2="755" y1="210" y2="330" /><line stroke="red" x1="1120" x2="879" y1="210" y2="330" /><line stroke="red" x1="1210" x2="1113" y1="210" y2="330" /><line stroke="red" x1="1290" x2="1315" y1="210" y2="330" /><line stroke="red" x1="1400" x2="1315" y1="210" y2="330" /><line stroke="red" x1="1470" x2="1226" y1="210" y2="330" /><line stroke="red" x1="1540" x2="1226" y1="210" y2="330" /><line stroke="red" x1="1590" x2="1350" y1="210" y2="330" /></svg>