<?xml version="1.0" encoding="utf-8" ?>
<svg baseProfile="full" height="500" version="1.1" width="1700" xmlns="http://www.w3.org/2000/svg" xmlns:ev="http://www.w3.org/2001/xml-events" xmlns:xlink="http://www.w3.org/1999/xlink"><defs /><text fill="black" x="0" y="100">VIETNAMESE </text><text fill="black" x="20" y="150">POS: </text><text fill="black" x="20" y="200">Source: </text><text fill="black" x="150" y="150">Nq</text><text fill="black" x="150" y="200">Một</text><text fill="black" x="230" y="150">Nn</text><text fill="black" x="230" y="200">công_ty</text><text fill="black" x="310" y="150">Ve</text><text fill="black" x="310" y="200">có</text><text fill="black" x="390" y="150">Nn</text><text fill="black" x="390" y="200">mức</text><text fill="black" x="470" y="150">Nn</text><text fill="black" x="470" y="200">lợi_nhuận</text><text fill="black" x="550" y="150">Aa</text><text fill="black" x="550" y="200">cao</text><text fill="black" x="630" y="150">Vv</text><text fill="black" x="630" y="200">phải</text><text fill="black" x="710" y="150">Vv</text><text fill="black" x="710" y="200">đóng</text><text fill="black" x="790" y="150">Vv</text><text fill="black" x="790" y="200">thêm</text><text fill="black" x="870" y="150">Nn</text><text fill="black" x="870" y="200">khoản</text><text fill="black" x="950" y="150">Nn</text><text fill="black" x="950" y="200">thuế</text><text fill="black" x="1030" y="150">Nn</text><text fill="black" x="1030" y="200">lợi_tức</text><text fill="black" x="1110" y="150">Vv</text><text fill="black" x="1110" y="200">vượt</text><text fill="black" x="1190" y="150">Nn</text><text fill="black" x="1190" y="200">mức</text><text fill="black" x="1270" y="150">Cp</text><text fill="black" x="1270" y="200">cho</text><text fill="black" x="1350" y="150">Nn</text><text fill="black" x="1350" y="200">chính_phủ</text><text fill="black" x="1430" y="150">PU</text><text fill="black" x="1430" y="200">.</text><text fill="black" x="0" y="450">ENGLISH </text><text fill="black" x="20" y="350">Target: </text><text fill="black" x="20" y="400">POS: </text><text fill="black" x="150" y="350">A</text><text fill="black" x="150" y="400">DT</text><text fill="black" x="230" y="350">company</text><text fill="black" x="230" y="400">NN</text><text fill="black" x="310" y="350">which</text><text fill="black" x="310" y="400">WDT</text><text fill="black" x="390" y="350">makes</text><text fill="black" x="390" y="400">VBZ</text><text fill="black" x="470" y="350">high</text><text fill="black" x="470" y="400">JJ</text><text fill="black" x="550" y="350">profits</text><text fill="black" x="550" y="400">NNS</text><text fill="black" x="630" y="350">must</text><text fill="black" x="630" y="400">MD</text><text fill="black" x="710" y="350">pay</text><text fill="black" x="710" y="400">VB</text><text fill="black" x="790" y="350">excess</text><text fill="black" x="790" y="400">JJ</text><text fill="black" x="870" y="350">profits</text><text fill="black" x="870" y="400">NNS</text><text fill="black" x="950" y="350">duty</text><text fill="black" x="950" y="400">NN</text><text fill="black" x="1030" y="350">to</text><text fill="black" x="1030" y="400">TO</text><text fill="black" x="1110" y="350">the</text><text fill="black" x="1110" y="400">DT</text><text fill="black" x="1190" y="350">government</text><text fill="black" x="1190" y="400">NN</text><text fill="black" x="1270" y="350">.</text><text fill="black" x="1270" y="400">.</text><line stroke="red" x1="160" x2="150" y1="210" y2="330" /><line stroke="red" x1="260" x2="257" y1="210" y2="330" /><line stroke="red" x1="400" x2="577" y1="210" y2="330" /><line stroke="red" x1="510" x2="577" y1="210" y2="330" /><line stroke="red" x1="560" x2="488" y1="210" y2="330" /><line stroke="red" x1="650" x2="648" y1="210" y2="330" /><line stroke="red" x1="730" x2="817" y1="210" y2="330" /><line stroke="red" x1="810" x2="817" y1="210" y2="330" /><line stroke="red" x1="890" x2="817" y1="210" y2="330" /><line stroke="red" x1="970" x2="968" y1="210" y2="330" /><line stroke="red" x1="1060" x2="897" y1="210" y2="330" /><line stroke="red" x1="1130" x2="817" y1="210" y2="330" /><line stroke="red" x1="1200" x2="817" y1="210" y2="330" /><line stroke="red" x1="1390" x2="1235" y1="210" y2="330" /><line stroke="red" x1="1430" x2="1270" y1="210" y2="330" /></svg>