<?xml version="1.0" encoding="utf-8" ?>
<svg baseProfile="full" height="500" version="1.1" width="1300" xmlns="http://www.w3.org/2000/svg" xmlns:ev="http://www.w3.org/2001/xml-events" xmlns:xlink="http://www.w3.org/1999/xlink"><defs /><text fill="black" x="0" y="100">VIETNAMESE </text><text fill="black" x="20" y="150">POS: </text><text fill="black" x="20" y="200">Source: </text><text fill="black" x="150" y="150">Nq</text><text fill="black" x="150" y="200">Một</text><text fill="black" x="230" y="150">Nn</text><text fill="black" x="230" y="200">công_ty</text><text fill="black" x="310" y="150">R</text><text fill="black" x="310" y="200">mới</text><text fill="black" x="390" y="150">Vv</text><text fill="black" x="390" y="200">nhảy</text><text fill="black" x="470" y="150">Cm</text><text fill="black" x="470" y="200">vào</text><text fill="black" x="550" y="150">Nn</text><text fill="black" x="550" y="200">thị_trường</text><text fill="black" x="630" y="150">Nn</text><text fill="black" x="630" y="200">trò_chơi</text><text fill="black" x="710" y="150">Nn</text><text fill="black" x="710" y="200">điện_tử</text><text fill="black" x="790" y="150">FW</text><text fill="black" x="790" y="200">video</text><text fill="black" x="870" y="150">PU</text><text fill="black" x="870" y="200">.</text><text fill="black" x="0" y="450">ENGLISH </text><text fill="black" x="20" y="350">Target: </text><text fill="black" x="20" y="400">POS: </text><text fill="black" x="150" y="350">A</text><text fill="black" x="150" y="400">DT</text><text fill="black" x="230" y="350">company</text><text fill="black" x="230" y="400">NN</text><text fill="black" x="310" y="350">that</text><text fill="black" x="310" y="400">WDT</text><text fill="black" x="390" y="350">was</text><text fill="black" x="390" y="400">VBD</text><text fill="black" x="470" y="350">a</text><text fill="black" x="470" y="400">DT</text><text fill="black" x="550" y="350">latecomer</text><text fill="black" x="550" y="400">NN</text><text fill="black" x="630" y="350">to</text><text fill="black" x="630" y="400">TO</text><text fill="black" x="710" y="350">the</text><text fill="black" x="710" y="400">DT</text><text fill="black" x="790" y="350">video</text><text fill="black" x="790" y="400">NN</text><text fill="black" x="870" y="350">-</text><text fill="black" x="870" y="400">:</text><text fill="black" x="950" y="350">game</text><text fill="black" x="950" y="400">NN</text><text fill="black" x="1030" y="350">market</text><text fill="black" x="1030" y="400">NN</text><text fill="black" x="1110" y="350">.</text><text fill="black" x="1110" y="400">.</text><line stroke="red" x1="160" x2="150" y1="210" y2="330" /><line stroke="red" x1="260" x2="257" y1="210" y2="330" /><line stroke="red" x1="320" x2="586" y1="210" y2="330" /><line stroke="red" x1="410" x2="586" y1="210" y2="330" /><line stroke="red" x1="480" x2="586" y1="210" y2="330" /><line stroke="red" x1="600" x2="1057" y1="210" y2="330" /><line stroke="red" x1="670" x2="586" y1="210" y2="330" /><line stroke="red" x1="740" x2="586" y1="210" y2="330" /><line stroke="red" x1="810" x2="808" y1="210" y2="330" /><line stroke="red" x1="870" x2="1110" y1="210" y2="330" /></svg>