<?xml version="1.0" encoding="utf-8" ?>
<svg baseProfile="full" height="500" version="1.1" width="1000" xmlns="http://www.w3.org/2000/svg" xmlns:ev="http://www.w3.org/2001/xml-events" xmlns:xlink="http://www.w3.org/1999/xlink"><defs /><text fill="black" x="0" y="100">VIETNAMESE </text><text fill="black" x="20" y="150">POS: </text><text fill="black" x="20" y="200">Source: </text><text fill="black" x="150" y="150">Nq</text><text fill="black" x="150" y="200">Một</text><text fill="black" x="230" y="150">Nn</text><text fill="black" x="230" y="200">chất</text><text fill="black" x="310" y="150">Vv</text><text fill="black" x="310" y="200">tổng_hợp</text><text fill="black" x="390" y="150">Vv</text><text fill="black" x="390" y="200">được</text><text fill="black" x="470" y="150">Vv</text><text fill="black" x="470" y="200">sử_dụng</text><text fill="black" x="550" y="150">Vv</text><text fill="black" x="550" y="200">làm</text><text fill="black" x="630" y="150">Nn</text><text fill="black" x="630" y="200">chất_liệu</text><text fill="black" x="710" y="150">Vv</text><text fill="black" x="710" y="200">lót</text><text fill="black" x="790" y="150">Nn</text><text fill="black" x="790" y="200">sàn</text><text fill="black" x="870" y="150">PU</text><text fill="black" x="870" y="200">.</text><text fill="black" x="0" y="450">ENGLISH </text><text fill="black" x="20" y="350">Target: </text><text fill="black" x="20" y="400">POS: </text><text fill="black" x="150" y="350">A</text><text fill="black" x="150" y="400">DT</text><text fill="black" x="230" y="350">composition</text><text fill="black" x="230" y="400">NN</text><text fill="black" x="310" y="350">used</text><text fill="black" x="310" y="400">VBN</text><text fill="black" x="390" y="350">as</text><text fill="black" x="390" y="400">IN</text><text fill="black" x="470" y="350">flooring</text><text fill="black" x="470" y="400">NN</text><text fill="black" x="550" y="350">material</text><text fill="black" x="550" y="400">NN</text><text fill="black" x="630" y="350">.</text><text fill="black" x="630" y="400">.</text><line stroke="red" x1="160" x2="150" y1="210" y2="330" /><line stroke="red" x1="250" x2="275" y1="210" y2="330" /><line stroke="red" x1="350" x2="506" y1="210" y2="330" /><line stroke="red" x1="500" x2="506" y1="210" y2="330" /><line stroke="red" x1="560" x2="506" y1="210" y2="330" /><line stroke="red" x1="670" x2="506" y1="210" y2="330" /><line stroke="red" x1="720" x2="506" y1="210" y2="330" /><line stroke="red" x1="800" x2="506" y1="210" y2="330" /><line stroke="red" x1="870" x2="630" y1="210" y2="330" /></svg>