<?xml version="1.0" encoding="utf-8" ?>
<svg baseProfile="full" height="500" version="1.1" width="1600" xmlns="http://www.w3.org/2000/svg" xmlns:ev="http://www.w3.org/2001/xml-events" xmlns:xlink="http://www.w3.org/1999/xlink"><defs /><text fill="black" x="0" y="100">VIETNAMESE </text><text fill="black" x="20" y="150">POS: </text><text fill="black" x="20" y="200">Source: </text><text fill="black" x="150" y="150">Nc</text><text fill="black" x="150" y="200">Sự</text><text fill="black" x="230" y="150">Vv</text><text fill="black" x="230" y="200">thay_đổi</text><text fill="black" x="310" y="150">Nn</text><text fill="black" x="310" y="200">khí_hậu</text><text fill="black" x="390" y="150">Aa</text><text fill="black" x="390" y="200">hoàn_toàn</text><text fill="black" x="470" y="150">R</text><text fill="black" x="470" y="200">đã</text><text fill="black" x="550" y="150">Vv</text><text fill="black" x="550" y="200">biến</text><text fill="black" x="630" y="150">Nn</text><text fill="black" x="630" y="200">vùng</text><text fill="black" x="710" y="150">Pd</text><text fill="black" x="710" y="200">này</text><text fill="black" x="790" y="150">Cm</text><text fill="black" x="790" y="200">từ</text><text fill="black" x="870" y="150">Nn</text><text fill="black" x="870" y="200">sa_mạc</text><text fill="black" x="950" y="150">Vv</text><text fill="black" x="950" y="200">thành</text><text fill="black" x="1030" y="150">Nn</text><text fill="black" x="1030" y="200">đầm</text><text fill="black" x="1110" y="150">Aa</text><text fill="black" x="1110" y="200">lầy</text><text fill="black" x="1190" y="150">PU</text><text fill="black" x="1190" y="200">.</text><text fill="black" x="0" y="450">ENGLISH </text><text fill="black" x="20" y="350">Target: </text><text fill="black" x="20" y="400">POS: </text><text fill="black" x="150" y="350">A</text><text fill="black" x="150" y="400">DT</text><text fill="black" x="230" y="350">complete</text><text fill="black" x="230" y="400">JJ</text><text fill="black" x="310" y="350">change</text><text fill="black" x="310" y="400">NN</text><text fill="black" x="390" y="350">of</text><text fill="black" x="390" y="400">IN</text><text fill="black" x="470" y="350">climate</text><text fill="black" x="470" y="400">NN</text><text fill="black" x="550" y="350">which</text><text fill="black" x="550" y="400">WDT</text><text fill="black" x="630" y="350">transformed</text><text fill="black" x="630" y="400">VBD</text><text fill="black" x="710" y="350">the</text><text fill="black" x="710" y="400">DT</text><text fill="black" x="790" y="350">area</text><text fill="black" x="790" y="400">NN</text><text fill="black" x="870" y="350">from</text><text fill="black" x="870" y="400">IN</text><text fill="black" x="950" y="350">a</text><text fill="black" x="950" y="400">DT</text><text fill="black" x="1030" y="350">desert</text><text fill="black" x="1030" y="400">NN</text><text fill="black" x="1110" y="350">into</text><text fill="black" x="1110" y="400">IN</text><text fill="black" x="1190" y="350">a</text><text fill="black" x="1190" y="400">DT</text><text fill="black" x="1270" y="350">swamp</text><text fill="black" x="1270" y="400">VB</text><text fill="black" x="1350" y="350">.</text><text fill="black" x="1350" y="400">.</text><line stroke="red" x1="160" x2="150" y1="210" y2="330" /><line stroke="red" x1="270" x2="337" y1="210" y2="330" /><line stroke="red" x1="340" x2="497" y1="210" y2="330" /><line stroke="red" x1="430" x2="675" y1="210" y2="330" /><line stroke="red" x1="570" x2="675" y1="210" y2="330" /><line stroke="red" x1="650" x2="808" y1="210" y2="330" /><line stroke="red" x1="800" x2="888" y1="210" y2="330" /><line stroke="red" x1="900" x2="1057" y1="210" y2="330" /><line stroke="red" x1="970" x2="1128" y1="210" y2="330" /><line stroke="red" x1="1040" x2="1288" y1="210" y2="330" /><line stroke="red" x1="1120" x2="1288" y1="210" y2="330" /><line stroke="red" x1="1190" x2="1350" y1="210" y2="330" /></svg>