<?xml version="1.0" encoding="utf-8" ?>
<svg baseProfile="full" height="500" version="1.1" width="900" xmlns="http://www.w3.org/2000/svg" xmlns:ev="http://www.w3.org/2001/xml-events" xmlns:xlink="http://www.w3.org/1999/xlink"><defs /><text fill="black" x="0" y="100">VIETNAMESE </text><text fill="black" x="20" y="150">POS: </text><text fill="black" x="20" y="200">Source: </text><text fill="black" x="150" y="150">Nq</text><text fill="black" x="150" y="200">Một</text><text fill="black" x="230" y="150">Nt</text><text fill="black" x="230" y="200">buổi</text><text fill="black" x="310" y="150">FW</text><text fill="black" x="310" y="200">hòa</text><text fill="black" x="390" y="150">Nn</text><text fill="black" x="390" y="200">nhạc</text><text fill="black" x="470" y="150">Cp</text><text fill="black" x="470" y="200">do</text><text fill="black" x="550" y="150">Nn</text><text fill="black" x="550" y="200">ông</text><text fill="black" x="630" y="150">Nr</text><text fill="black" x="630" y="200">Colin_David</text><text fill="black" x="710" y="150">Vv</text><text fill="black" x="710" y="200">điều_khiển</text><text fill="black" x="790" y="150">PU</text><text fill="black" x="790" y="200">.</text><text fill="black" x="0" y="450">ENGLISH </text><text fill="black" x="20" y="350">Target: </text><text fill="black" x="20" y="400">POS: </text><text fill="black" x="150" y="350">A</text><text fill="black" x="150" y="400">DT</text><text fill="black" x="230" y="350">concert</text><text fill="black" x="230" y="400">NN</text><text fill="black" x="310" y="350">conducted</text><text fill="black" x="310" y="400">VBN</text><text fill="black" x="390" y="350">by</text><text fill="black" x="390" y="400">IN</text><text fill="black" x="470" y="350">Sir</text><text fill="black" x="470" y="400">NNP</text><text fill="black" x="550" y="350">Colin</text><text fill="black" x="550" y="400">NNP</text><text fill="black" x="630" y="350">David</text><text fill="black" x="630" y="400">NNP</text><text fill="black" x="710" y="350">.</text><text fill="black" x="710" y="400">.</text><line stroke="red" x1="160" x2="150" y1="210" y2="330" /><line stroke="red" x1="250" x2="257" y1="210" y2="330" /><line stroke="red" x1="320" x2="257" y1="210" y2="330" /><line stroke="red" x1="410" x2="257" y1="210" y2="330" /><line stroke="red" x1="480" x2="346" y1="210" y2="330" /><line stroke="red" x1="560" x2="479" y1="210" y2="330" /><line stroke="red" x1="680" x2="568" y1="210" y2="330" /><line stroke="red" x1="760" x2="568" y1="210" y2="330" /><line stroke="red" x1="790" x2="710" y1="210" y2="330" /></svg>