<?xml version="1.0" encoding="utf-8" ?>
<svg baseProfile="full" height="500" version="1.1" width="900" xmlns="http://www.w3.org/2000/svg" xmlns:ev="http://www.w3.org/2001/xml-events" xmlns:xlink="http://www.w3.org/1999/xlink"><defs /><text fill="black" x="0" y="100">VIETNAMESE </text><text fill="black" x="20" y="150">POS: </text><text fill="black" x="20" y="200">Source: </text><text fill="black" x="150" y="150">Nq</text><text fill="black" x="150" y="200">Một</text><text fill="black" x="230" y="150">Nn</text><text fill="black" x="230" y="200">kế_hoạch</text><text fill="black" x="310" y="150">Vv</text><text fill="black" x="310" y="200">xây_dựng</text><text fill="black" x="390" y="150">Vv</text><text fill="black" x="390" y="200">bị</text><text fill="black" x="470" y="150">Nn</text><text fill="black" x="470" y="200">trở_ngại</text><text fill="black" x="550" y="150">Cp</text><text fill="black" x="550" y="200">do</text><text fill="black" x="630" y="150">Nn</text><text fill="black" x="630" y="200">thời_tiết</text><text fill="black" x="710" y="150">Aa</text><text fill="black" x="710" y="200">xấu</text><text fill="black" x="790" y="150">PU</text><text fill="black" x="790" y="200">.</text><text fill="black" x="0" y="450">ENGLISH </text><text fill="black" x="20" y="350">Target: </text><text fill="black" x="20" y="400">POS: </text><text fill="black" x="150" y="350">A</text><text fill="black" x="150" y="400">DT</text><text fill="black" x="230" y="350">construction</text><text fill="black" x="230" y="400">NN</text><text fill="black" x="310" y="350">schedule</text><text fill="black" x="310" y="400">NN</text><text fill="black" x="390" y="350">plagued</text><text fill="black" x="390" y="400">VBN</text><text fill="black" x="470" y="350">by</text><text fill="black" x="470" y="400">IN</text><text fill="black" x="550" y="350">bad</text><text fill="black" x="550" y="400">JJ</text><text fill="black" x="630" y="350">weather</text><text fill="black" x="630" y="400">NN</text><text fill="black" x="710" y="350">.</text><text fill="black" x="710" y="400">.</text><line stroke="red" x1="160" x2="150" y1="210" y2="330" /><line stroke="red" x1="270" x2="346" y1="210" y2="330" /><line stroke="red" x1="350" x2="284" y1="210" y2="330" /><line stroke="red" x1="400" x2="417" y1="210" y2="330" /><line stroke="red" x1="510" x2="417" y1="210" y2="330" /><line stroke="red" x1="560" x2="473" y1="210" y2="330" /><line stroke="red" x1="670" x2="657" y1="210" y2="330" /><line stroke="red" x1="720" x2="559" y1="210" y2="330" /><line stroke="red" x1="790" x2="710" y1="210" y2="330" /></svg>