<?xml version="1.0" encoding="utf-8" ?>
<svg baseProfile="full" height="500" version="1.1" width="1200" xmlns="http://www.w3.org/2000/svg" xmlns:ev="http://www.w3.org/2001/xml-events" xmlns:xlink="http://www.w3.org/1999/xlink"><defs /><text fill="black" x="0" y="100">VIETNAMESE </text><text fill="black" x="20" y="150">POS: </text><text fill="black" x="20" y="200">Source: </text><text fill="black" x="150" y="150">Nn</text><text fill="black" x="150" y="200">Liên_hợp</text><text fill="black" x="230" y="150">Nq</text><text fill="black" x="230" y="200">các</text><text fill="black" x="310" y="150">Nn</text><text fill="black" x="310" y="200">công_ty</text><text fill="black" x="390" y="150">Vv</text><text fill="black" x="390" y="200">xây_dựng</text><text fill="black" x="470" y="150">R</text><text fill="black" x="470" y="200">sẽ</text><text fill="black" x="550" y="150">Vv</text><text fill="black" x="550" y="200">xây</text><text fill="black" x="630" y="150">Nn</text><text fill="black" x="630" y="200">nhà_máy</text><text fill="black" x="710" y="150">Vv</text><text fill="black" x="710" y="200">phát_điện</text><text fill="black" x="790" y="150">PU</text><text fill="black" x="790" y="200">.</text><text fill="black" x="0" y="450">ENGLISH </text><text fill="black" x="20" y="350">Target: </text><text fill="black" x="20" y="400">POS: </text><text fill="black" x="150" y="350">A</text><text fill="black" x="150" y="400">DT</text><text fill="black" x="230" y="350">consortium</text><text fill="black" x="230" y="400">NN</text><text fill="black" x="310" y="350">of</text><text fill="black" x="310" y="400">IN</text><text fill="black" x="390" y="350">construction</text><text fill="black" x="390" y="400">NN</text><text fill="black" x="470" y="350">companies</text><text fill="black" x="470" y="400">NNS</text><text fill="black" x="550" y="350">will</text><text fill="black" x="550" y="400">MD</text><text fill="black" x="630" y="350">build</text><text fill="black" x="630" y="400">VB</text><text fill="black" x="710" y="350">the</text><text fill="black" x="710" y="400">DT</text><text fill="black" x="790" y="350">power</text><text fill="black" x="790" y="400">NN</text><text fill="black" x="870" y="350">-</text><text fill="black" x="870" y="400">:</text><text fill="black" x="950" y="350">station</text><text fill="black" x="950" y="400">NN</text><text fill="black" x="1030" y="350">.</text><text fill="black" x="1030" y="400">.</text><line stroke="red" x1="190" x2="275" y1="210" y2="330" /><line stroke="red" x1="240" x2="275" y1="210" y2="330" /><line stroke="red" x1="340" x2="506" y1="210" y2="330" /><line stroke="red" x1="430" x2="444" y1="210" y2="330" /><line stroke="red" x1="480" x2="568" y1="210" y2="330" /><line stroke="red" x1="560" x2="648" y1="210" y2="330" /><line stroke="red" x1="660" x2="275" y1="210" y2="330" /><line stroke="red" x1="750" x2="275" y1="210" y2="330" /><line stroke="red" x1="790" x2="1030" y1="210" y2="330" /></svg>