<?xml version="1.0" encoding="utf-8" ?>
<svg baseProfile="full" height="500" version="1.1" width="3400" xmlns="http://www.w3.org/2000/svg" xmlns:ev="http://www.w3.org/2001/xml-events" xmlns:xlink="http://www.w3.org/1999/xlink"><defs /><text fill="black" x="0" y="100">VIETNAMESE </text><text fill="black" x="20" y="150">POS: </text><text fill="black" x="20" y="200">Source: </text><text fill="black" x="150" y="150">Nq</text><text fill="black" x="150" y="200">Một</text><text fill="black" x="230" y="150">Nn</text><text fill="black" x="230" y="200">chòm_sao</text><text fill="black" x="310" y="150">Aa</text><text fill="black" x="310" y="200">có_thể</text><text fill="black" x="390" y="150">Vv</text><text fill="black" x="390" y="200">nhìn</text><text fill="black" x="470" y="150">Vv</text><text fill="black" x="470" y="200">thấy</text><text fill="black" x="550" y="150">R</text><text fill="black" x="550" y="200">được</text><text fill="black" x="630" y="150">Cm</text><text fill="black" x="630" y="200">ở</text><text fill="black" x="710" y="150">Nn</text><text fill="black" x="710" y="200">phía</text><text fill="black" x="790" y="150">Nn</text><text fill="black" x="790" y="200">tây</text><text fill="black" x="870" y="150">Cm</text><text fill="black" x="870" y="200">của</text><text fill="black" x="950" y="150">Nn</text><text fill="black" x="950" y="200">bầu_trời</text><text fill="black" x="1030" y="150">PU</text><text fill="black" x="1030" y="200">,</text><text fill="black" x="1110" y="150">R</text><text fill="black" x="1110" y="200">ngay</text><text fill="black" x="1190" y="150">Nn</text><text fill="black" x="1190" y="200">sau</text><text fill="black" x="1270" y="150">Nt</text><text fill="black" x="1270" y="200">khi</text><text fill="black" x="1350" y="150">Nn</text><text fill="black" x="1350" y="200">mặt_trời</text><text fill="black" x="1430" y="150">Vv</text><text fill="black" x="1430" y="200">lặn</text><text fill="black" x="1510" y="150">PU</text><text fill="black" x="1510" y="200">,</text><text fill="black" x="1590" y="150">R</text><text fill="black" x="1590" y="200">sẽ</text><text fill="black" x="1670" y="150">Vv</text><text fill="black" x="1670" y="200">lặn</text><text fill="black" x="1750" y="150">Cm</text><text fill="black" x="1750" y="200">vào</text><text fill="black" x="1830" y="150">Nt</text><text fill="black" x="1830" y="200">lúc</text><text fill="black" x="1910" y="150">Nt</text><text fill="black" x="1910" y="200">nửa_đêm</text><text fill="black" x="1990" y="150">Cp</text><text fill="black" x="1990" y="200">và</text><text fill="black" x="2070" y="150">Nq</text><text fill="black" x="2070" y="200">các</text><text fill="black" x="2150" y="150">Nn</text><text fill="black" x="2150" y="200">chòm_sao</text><text fill="black" x="2230" y="150">Aa</text><text fill="black" x="2230" y="200">khác</text><text fill="black" x="2310" y="150">R</text><text fill="black" x="2310" y="200">sẽ</text><text fill="black" x="2390" y="150">Vv</text><text fill="black" x="2390" y="200">mọc</text><text fill="black" x="2470" y="150">R</text><text fill="black" x="2470" y="200">lên</text><text fill="black" x="2550" y="150">Cm</text><text fill="black" x="2550" y="200">ở</text><text fill="black" x="2630" y="150">Nn</text><text fill="black" x="2630" y="200">hướng</text><text fill="black" x="2710" y="150">Nn</text><text fill="black" x="2710" y="200">đông</text><text fill="black" x="2790" y="150">PU</text><text fill="black" x="2790" y="200">.</text><text fill="black" x="0" y="450">ENGLISH </text><text fill="black" x="20" y="350">Target: </text><text fill="black" x="20" y="400">POS: </text><text fill="black" x="150" y="350">A</text><text fill="black" x="150" y="400">DT</text><text fill="black" x="230" y="350">constellation</text><text fill="black" x="230" y="400">NN</text><text fill="black" x="310" y="350">visible</text><text fill="black" x="310" y="400">JJ</text><text fill="black" x="390" y="350">in</text><text fill="black" x="390" y="400">IN</text><text fill="black" x="470" y="350">the</text><text fill="black" x="470" y="400">DT</text><text fill="black" x="550" y="350">western</text><text fill="black" x="550" y="400">JJ</text><text fill="black" x="630" y="350">sky</text><text fill="black" x="630" y="400">NN</text><text fill="black" x="710" y="350">just</text><text fill="black" x="710" y="400">RB</text><text fill="black" x="790" y="350">after</text><text fill="black" x="790" y="400">IN</text><text fill="black" x="870" y="350">sunset</text><text fill="black" x="870" y="400">NN</text><text fill="black" x="950" y="350">will</text><text fill="black" x="950" y="400">MD</text><text fill="black" x="1030" y="350">have</text><text fill="black" x="1030" y="400">VB</text><text fill="black" x="1110" y="350">set</text><text fill="black" x="1110" y="400">VBN</text><text fill="black" x="1190" y="350">by</text><text fill="black" x="1190" y="400">IN</text><text fill="black" x="1270" y="350">midnight</text><text fill="black" x="1270" y="400">NN</text><text fill="black" x="1350" y="350">,</text><text fill="black" x="1350" y="400">,</text><text fill="black" x="1430" y="350">and</text><text fill="black" x="1430" y="400">CC</text><text fill="black" x="1510" y="350">other</text><text fill="black" x="1510" y="400">JJ</text><text fill="black" x="1590" y="350">constellations</text><text fill="black" x="1590" y="400">NNS</text><text fill="black" x="1670" y="350">will</text><text fill="black" x="1670" y="400">MD</text><text fill="black" x="1750" y="350">have</text><text fill="black" x="1750" y="400">VB</text><text fill="black" x="1830" y="350">risen</text><text fill="black" x="1830" y="400">VBN</text><text fill="black" x="1910" y="350">in</text><text fill="black" x="1910" y="400">IN</text><text fill="black" x="1990" y="350">the</text><text fill="black" x="1990" y="400">DT</text><text fill="black" x="2070" y="350">east</text><text fill="black" x="2070" y="400">JJ</text><text fill="black" x="2150" y="350">.</text><text fill="black" x="2150" y="400">.</text><line stroke="red" x1="160" x2="150" y1="210" y2="330" /><line stroke="red" x1="270" x2="284" y1="210" y2="330" /><line stroke="red" x1="340" x2="337" y1="210" y2="330" /><line stroke="red" x1="410" x2="337" y1="210" y2="330" /><line stroke="red" x1="490" x2="337" y1="210" y2="330" /><line stroke="red" x1="630" x2="393" y1="210" y2="330" /><line stroke="red" x1="730" x2="577" y1="210" y2="330" /><line stroke="red" x1="800" x2="577" y1="210" y2="330" /><line stroke="red" x1="990" x2="639" y1="210" y2="330" /><line stroke="red" x1="1130" x2="728" y1="210" y2="330" /><line stroke="red" x1="1200" x2="808" y1="210" y2="330" /><line stroke="red" x1="1280" x2="808" y1="210" y2="330" /><line stroke="red" x1="1390" x2="897" y1="210" y2="330" /><line stroke="red" x1="1440" x2="897" y1="210" y2="330" /><line stroke="red" x1="1600" x2="968" y1="210" y2="330" /><line stroke="red" x1="1680" x2="1119" y1="210" y2="330" /><line stroke="red" x1="1840" x2="1306" y1="210" y2="330" /><line stroke="red" x1="1940" x2="1306" y1="210" y2="330" /><line stroke="red" x1="2000" x2="1439" y1="210" y2="330" /><line stroke="red" x1="2080" x2="1653" y1="210" y2="330" /><line stroke="red" x1="2190" x2="1653" y1="210" y2="330" /><line stroke="red" x1="2250" x2="1528" y1="210" y2="330" /><line stroke="red" x1="2320" x2="1688" y1="210" y2="330" /><line stroke="red" x1="2400" x2="1848" y1="210" y2="330" /><line stroke="red" x1="2480" x2="1848" y1="210" y2="330" /><line stroke="red" x1="2550" x2="1913" y1="210" y2="330" /><line stroke="red" x1="2650" x2="2088" y1="210" y2="330" /><line stroke="red" x1="2730" x2="2088" y1="210" y2="330" /><line stroke="red" x1="2790" x2="2150" y1="210" y2="330" /></svg>