<?xml version="1.0" encoding="utf-8" ?>
<svg baseProfile="full" height="500" version="1.1" width="1200" xmlns="http://www.w3.org/2000/svg" xmlns:ev="http://www.w3.org/2001/xml-events" xmlns:xlink="http://www.w3.org/1999/xlink"><defs /><text fill="black" x="0" y="100">VIETNAMESE </text><text fill="black" x="20" y="150">POS: </text><text fill="black" x="20" y="200">Source: </text><text fill="black" x="150" y="150">Nq</text><text fill="black" x="150" y="200">Một</text><text fill="black" x="230" y="150">Nn</text><text fill="black" x="230" y="200">hợp_đồng</text><text fill="black" x="310" y="150">Aa</text><text fill="black" x="310" y="200">có_thể</text><text fill="black" x="390" y="150">Vv</text><text fill="black" x="390" y="200">kết_thúc</text><text fill="black" x="470" y="150">Cm</text><text fill="black" x="470" y="200">trong</text><text fill="black" x="550" y="150">Nn</text><text fill="black" x="550" y="200">vòng</text><text fill="black" x="630" y="150">Nq</text><text fill="black" x="630" y="200">một</text><text fill="black" x="710" y="150">Nt</text><text fill="black" x="710" y="200">tháng</text><text fill="black" x="790" y="150">Cm</text><text fill="black" x="790" y="200">từ</text><text fill="black" x="870" y="150">Nt</text><text fill="black" x="870" y="200">ngày</text><text fill="black" x="950" y="150">Vv</text><text fill="black" x="950" y="200">thông_báo</text><text fill="black" x="1030" y="150">PU</text><text fill="black" x="1030" y="200">.</text><text fill="black" x="0" y="450">ENGLISH </text><text fill="black" x="20" y="350">Target: </text><text fill="black" x="20" y="400">POS: </text><text fill="black" x="150" y="350">A</text><text fill="black" x="150" y="400">DT</text><text fill="black" x="230" y="350">contract</text><text fill="black" x="230" y="400">NN</text><text fill="black" x="310" y="350">terminable</text><text fill="black" x="310" y="400">JJ</text><text fill="black" x="390" y="350">at</text><text fill="black" x="390" y="400">IN</text><text fill="black" x="470" y="350">a</text><text fill="black" x="470" y="400">DT</text><text fill="black" x="550" y="350">month</text><text fill="black" x="550" y="400">NN</text><text fill="black" x="630" y="350">'s</text><text fill="black" x="630" y="400">POS</text><text fill="black" x="710" y="350">notice</text><text fill="black" x="710" y="400">NN</text><text fill="black" x="790" y="350">.</text><text fill="black" x="790" y="400">.</text><line stroke="red" x1="160" x2="150" y1="210" y2="330" /><line stroke="red" x1="270" x2="266" y1="210" y2="330" /><line stroke="red" x1="340" x2="355" y1="210" y2="330" /><line stroke="red" x1="430" x2="355" y1="210" y2="330" /><line stroke="red" x1="490" x2="355" y1="210" y2="330" /><line stroke="red" x1="570" x2="355" y1="210" y2="330" /><line stroke="red" x1="640" x2="470" y1="210" y2="330" /><line stroke="red" x1="730" x2="568" y1="210" y2="330" /><line stroke="red" x1="800" x2="355" y1="210" y2="330" /><line stroke="red" x1="890" x2="355" y1="210" y2="330" /><line stroke="red" x1="990" x2="737" y1="210" y2="330" /><line stroke="red" x1="1030" x2="790" y1="210" y2="330" /></svg>