<?xml version="1.0" encoding="utf-8" ?>
<svg baseProfile="full" height="500" version="1.1" width="900" xmlns="http://www.w3.org/2000/svg" xmlns:ev="http://www.w3.org/2001/xml-events" xmlns:xlink="http://www.w3.org/1999/xlink"><defs /><text fill="black" x="0" y="100">VIETNAMESE </text><text fill="black" x="20" y="150">POS: </text><text fill="black" x="20" y="200">Source: </text><text fill="black" x="150" y="150">Nn</text><text fill="black" x="150" y="200">Hành_lang</text><text fill="black" x="230" y="150">Aa</text><text fill="black" x="230" y="200">chật_ních</text><text fill="black" x="310" y="150">Nq</text><text fill="black" x="310" y="200">những</text><text fill="black" x="390" y="150">Nn</text><text fill="black" x="390" y="200">người</text><text fill="black" x="470" y="150">Cp</text><text fill="black" x="470" y="200">và</text><text fill="black" x="550" y="150">Nn</text><text fill="black" x="550" y="200">hành_lý</text><text fill="black" x="630" y="150">PU</text><text fill="black" x="630" y="200">.</text><text fill="black" x="0" y="450">ENGLISH </text><text fill="black" x="20" y="350">Target: </text><text fill="black" x="20" y="400">POS: </text><text fill="black" x="150" y="350">A</text><text fill="black" x="150" y="400">DT</text><text fill="black" x="230" y="350">corridor</text><text fill="black" x="230" y="400">NN</text><text fill="black" x="310" y="350">jammed</text><text fill="black" x="310" y="400">VBD</text><text fill="black" x="390" y="350">full</text><text fill="black" x="390" y="400">JJ</text><text fill="black" x="470" y="350">of</text><text fill="black" x="470" y="400">IN</text><text fill="black" x="550" y="350">people</text><text fill="black" x="550" y="400">NNS</text><text fill="black" x="630" y="350">and</text><text fill="black" x="630" y="400">CC</text><text fill="black" x="710" y="350">luggage</text><text fill="black" x="710" y="400">NN</text><text fill="black" x="790" y="350">.</text><text fill="black" x="790" y="400">.</text><line stroke="red" x1="190" x2="266" y1="210" y2="330" /><line stroke="red" x1="270" x2="266" y1="210" y2="330" /><line stroke="red" x1="410" x2="577" y1="210" y2="330" /><line stroke="red" x1="480" x2="639" y1="210" y2="330" /><line stroke="red" x1="580" x2="737" y1="210" y2="330" /><line stroke="red" x1="630" x2="790" y1="210" y2="330" /></svg>