<?xml version="1.0" encoding="utf-8" ?>
<svg baseProfile="full" height="500" version="1.1" width="1200" xmlns="http://www.w3.org/2000/svg" xmlns:ev="http://www.w3.org/2001/xml-events" xmlns:xlink="http://www.w3.org/1999/xlink"><defs /><text fill="black" x="0" y="100">VIETNAMESE </text><text fill="black" x="20" y="150">POS: </text><text fill="black" x="20" y="200">Source: </text><text fill="black" x="150" y="150">Nq</text><text fill="black" x="150" y="200">Một</text><text fill="black" x="230" y="150">Nn</text><text fill="black" x="230" y="200">thức</text><text fill="black" x="310" y="150">Vv</text><text fill="black" x="310" y="200">uống</text><text fill="black" x="390" y="150">Aa</text><text fill="black" x="390" y="200">lạnh</text><text fill="black" x="470" y="150">Cm</text><text fill="black" x="470" y="200">vào</text><text fill="black" x="550" y="150">Nt</text><text fill="black" x="550" y="200">ngày</text><text fill="black" x="630" y="150">Aa</text><text fill="black" x="630" y="200">nóng</text><text fill="black" x="710" y="150">R</text><text fill="black" x="710" y="200">thường</text><text fill="black" x="790" y="150">Vv</text><text fill="black" x="790" y="200">được</text><text fill="black" x="870" y="150">Aa</text><text fill="black" x="870" y="200">vui_vẻ</text><text fill="black" x="950" y="150">Vv</text><text fill="black" x="950" y="200">đón_nhận</text><text fill="black" x="1030" y="150">PU</text><text fill="black" x="1030" y="200">.</text><text fill="black" x="0" y="450">ENGLISH </text><text fill="black" x="20" y="350">Target: </text><text fill="black" x="20" y="400">POS: </text><text fill="black" x="150" y="350">A</text><text fill="black" x="150" y="400">DT</text><text fill="black" x="230" y="350">cooling</text><text fill="black" x="230" y="400">JJ</text><text fill="black" x="310" y="350">drink</text><text fill="black" x="310" y="400">NN</text><text fill="black" x="390" y="350">is</text><text fill="black" x="390" y="400">VBZ</text><text fill="black" x="470" y="350">welcome</text><text fill="black" x="470" y="400">JJ</text><text fill="black" x="550" y="350">on</text><text fill="black" x="550" y="400">IN</text><text fill="black" x="630" y="350">a</text><text fill="black" x="630" y="400">DT</text><text fill="black" x="710" y="350">hot</text><text fill="black" x="710" y="400">JJ</text><text fill="black" x="790" y="350">day</text><text fill="black" x="790" y="400">NN</text><text fill="black" x="870" y="350">.</text><text fill="black" x="870" y="400">.</text><line stroke="red" x1="160" x2="150" y1="210" y2="330" /><line stroke="red" x1="250" x2="257" y1="210" y2="330" /><line stroke="red" x1="330" x2="328" y1="210" y2="330" /><line stroke="red" x1="410" x2="257" y1="210" y2="330" /><line stroke="red" x1="480" x2="553" y1="210" y2="330" /><line stroke="red" x1="570" x2="799" y1="210" y2="330" /><line stroke="red" x1="650" x2="719" y1="210" y2="330" /><line stroke="red" x1="740" x2="257" y1="210" y2="330" /><line stroke="red" x1="900" x2="257" y1="210" y2="330" /><line stroke="red" x1="990" x2="257" y1="210" y2="330" /><line stroke="red" x1="1030" x2="870" y1="210" y2="330" /></svg>