<?xml version="1.0" encoding="utf-8" ?>
<svg baseProfile="full" height="500" version="1.1" width="1200" xmlns="http://www.w3.org/2000/svg" xmlns:ev="http://www.w3.org/2001/xml-events" xmlns:xlink="http://www.w3.org/1999/xlink"><defs /><text fill="black" x="0" y="100">VIETNAMESE </text><text fill="black" x="20" y="150">POS: </text><text fill="black" x="20" y="200">Source: </text><text fill="black" x="150" y="150">Nn</text><text fill="black" x="150" y="200">Ông</text><text fill="black" x="230" y="150">Vv</text><text fill="black" x="230" y="200">nhận</text><text fill="black" x="310" y="150">M</text><text fill="black" x="310" y="200">được</text><text fill="black" x="390" y="150">Nq</text><text fill="black" x="390" y="200">một</text><text fill="black" x="470" y="150">Nc</text><text fill="black" x="470" y="200">bản</text><text fill="black" x="550" y="150">Vv</text><text fill="black" x="550" y="200">in</text><text fill="black" x="630" y="150">Cm</text><text fill="black" x="630" y="200">vào</text><text fill="black" x="710" y="150">Nt</text><text fill="black" x="710" y="200">ngày</text><text fill="black" x="790" y="150">Nn</text><text fill="black" x="790" y="200">ông</text><text fill="black" x="870" y="150">Ve</text><text fill="black" x="870" y="200">mất</text><text fill="black" x="950" y="150">PU</text><text fill="black" x="950" y="200">.</text><text fill="black" x="0" y="450">ENGLISH </text><text fill="black" x="20" y="350">Target: </text><text fill="black" x="20" y="400">POS: </text><text fill="black" x="150" y="350">A</text><text fill="black" x="150" y="400">DT</text><text fill="black" x="230" y="350">copy</text><text fill="black" x="230" y="400">NN</text><text fill="black" x="310" y="350">of</text><text fill="black" x="310" y="400">IN</text><text fill="black" x="390" y="350">it</text><text fill="black" x="390" y="400">PRP</text><text fill="black" x="470" y="350">reached</text><text fill="black" x="470" y="400">VBD</text><text fill="black" x="550" y="350">him</text><text fill="black" x="550" y="400">PRP</text><text fill="black" x="630" y="350">on</text><text fill="black" x="630" y="400">IN</text><text fill="black" x="710" y="350">the</text><text fill="black" x="710" y="400">DT</text><text fill="black" x="790" y="350">day</text><text fill="black" x="790" y="400">NN</text><text fill="black" x="870" y="350">he</text><text fill="black" x="870" y="400">PRP</text><text fill="black" x="950" y="350">died</text><text fill="black" x="950" y="400">VBD</text><text fill="black" x="1030" y="350">.</text><text fill="black" x="1030" y="400">.</text><line stroke="red" x1="160" x2="248" y1="210" y2="330" /><line stroke="red" x1="250" x2="248" y1="210" y2="330" /><line stroke="red" x1="400" x2="248" y1="210" y2="330" /><line stroke="red" x1="480" x2="248" y1="210" y2="330" /><line stroke="red" x1="560" x2="248" y1="210" y2="330" /><line stroke="red" x1="640" x2="633" y1="210" y2="330" /><line stroke="red" x1="730" x2="799" y1="210" y2="330" /><line stroke="red" x1="800" x2="873" y1="210" y2="330" /><line stroke="red" x1="880" x2="968" y1="210" y2="330" /><line stroke="red" x1="950" x2="1030" y1="210" y2="330" /></svg>