<?xml version="1.0" encoding="utf-8" ?>
<svg baseProfile="full" height="500" version="1.1" width="1400" xmlns="http://www.w3.org/2000/svg" xmlns:ev="http://www.w3.org/2001/xml-events" xmlns:xlink="http://www.w3.org/1999/xlink"><defs /><text fill="black" x="0" y="100">VIETNAMESE </text><text fill="black" x="20" y="150">POS: </text><text fill="black" x="20" y="200">Source: </text><text fill="black" x="150" y="150">Nq</text><text fill="black" x="150" y="200">Một</text><text fill="black" x="230" y="150">Nn</text><text fill="black" x="230" y="200">quốc_gia</text><text fill="black" x="310" y="150">Vv</text><text fill="black" x="310" y="200">được</text><text fill="black" x="390" y="150">Nq</text><text fill="black" x="390" y="200">mọi</text><text fill="black" x="470" y="150">Nn</text><text fill="black" x="470" y="200">người</text><text fill="black" x="550" y="150">Vv</text><text fill="black" x="550" y="200">ca_ngợi</text><text fill="black" x="630" y="150">Cp</text><text fill="black" x="630" y="200">như</text><text fill="black" x="710" y="150">Vc</text><text fill="black" x="710" y="200">là</text><text fill="black" x="790" y="150">Nq</text><text fill="black" x="790" y="200">một</text><text fill="black" x="870" y="150">Nn</text><text fill="black" x="870" y="200">nước</text><text fill="black" x="950" y="150">Vv</text><text fill="black" x="950" y="200">bảo_trợ</text><text fill="black" x="1030" y="150">Nc</text><text fill="black" x="1030" y="200">nền</text><text fill="black" x="1110" y="150">Aa</text><text fill="black" x="1110" y="200">dân_chủ</text><text fill="black" x="1190" y="150">PU</text><text fill="black" x="1190" y="200">.</text><text fill="black" x="0" y="450">ENGLISH </text><text fill="black" x="20" y="350">Target: </text><text fill="black" x="20" y="400">POS: </text><text fill="black" x="150" y="350">A</text><text fill="black" x="150" y="400">DT</text><text fill="black" x="230" y="350">country</text><text fill="black" x="230" y="400">NN</text><text fill="black" x="310" y="350">admired</text><text fill="black" x="310" y="400">VBD</text><text fill="black" x="390" y="350">as</text><text fill="black" x="390" y="400">IN</text><text fill="black" x="470" y="350">a</text><text fill="black" x="470" y="400">DT</text><text fill="black" x="550" y="350">buttress</text><text fill="black" x="550" y="400">VBP</text><text fill="black" x="630" y="350">of</text><text fill="black" x="630" y="400">IN</text><text fill="black" x="710" y="350">democracy</text><text fill="black" x="710" y="400">NN</text><text fill="black" x="790" y="350">.</text><text fill="black" x="790" y="400">.</text><line stroke="red" x1="160" x2="150" y1="210" y2="330" /><line stroke="red" x1="270" x2="257" y1="210" y2="330" /><line stroke="red" x1="330" x2="337" y1="210" y2="330" /><line stroke="red" x1="400" x2="586" y1="210" y2="330" /><line stroke="red" x1="490" x2="586" y1="210" y2="330" /><line stroke="red" x1="580" x2="586" y1="210" y2="330" /><line stroke="red" x1="640" x2="393" y1="210" y2="330" /><line stroke="red" x1="800" x2="470" y1="210" y2="330" /><line stroke="red" x1="890" x2="586" y1="210" y2="330" /><line stroke="red" x1="980" x2="586" y1="210" y2="330" /><line stroke="red" x1="1040" x2="746" y1="210" y2="330" /><line stroke="red" x1="1140" x2="746" y1="210" y2="330" /><line stroke="red" x1="1190" x2="790" y1="210" y2="330" /></svg>