<?xml version="1.0" encoding="utf-8" ?>
<svg baseProfile="full" height="500" version="1.1" width="1200" xmlns="http://www.w3.org/2000/svg" xmlns:ev="http://www.w3.org/2001/xml-events" xmlns:xlink="http://www.w3.org/1999/xlink"><defs /><text fill="black" x="0" y="100">VIETNAMESE </text><text fill="black" x="20" y="150">POS: </text><text fill="black" x="20" y="200">Source: </text><text fill="black" x="150" y="150">Nq</text><text fill="black" x="150" y="200">Một</text><text fill="black" x="230" y="150">Nn</text><text fill="black" x="230" y="200">đất_nước</text><text fill="black" x="310" y="150">Vv</text><text fill="black" x="310" y="200">sống</text><text fill="black" x="390" y="150">Cm</text><text fill="black" x="390" y="200">trong</text><text fill="black" x="470" y="150">Nn</text><text fill="black" x="470" y="200">mối</text><text fill="black" x="550" y="150">Aa</text><text fill="black" x="550" y="200">hiểm</text><text fill="black" x="630" y="150">FW</text><text fill="black" x="630" y="200">họa</text><text fill="black" x="710" y="150">Aa</text><text fill="black" x="710" y="200">triền_miên</text><text fill="black" x="790" y="150">Cm</text><text fill="black" x="790" y="200">của</text><text fill="black" x="870" y="150">Nn</text><text fill="black" x="870" y="200">nạn</text><text fill="black" x="950" y="150">Aa</text><text fill="black" x="950" y="200">đói</text><text fill="black" x="1030" y="150">PU</text><text fill="black" x="1030" y="200">.</text><text fill="black" x="0" y="450">ENGLISH </text><text fill="black" x="20" y="350">Target: </text><text fill="black" x="20" y="400">POS: </text><text fill="black" x="150" y="350">A</text><text fill="black" x="150" y="400">DT</text><text fill="black" x="230" y="350">country</text><text fill="black" x="230" y="400">NN</text><text fill="black" x="310" y="350">living</text><text fill="black" x="310" y="400">VBG</text><text fill="black" x="390" y="350">under</text><text fill="black" x="390" y="400">IN</text><text fill="black" x="470" y="350">the</text><text fill="black" x="470" y="400">DT</text><text fill="black" x="550" y="350">constant</text><text fill="black" x="550" y="400">JJ</text><text fill="black" x="630" y="350">threat</text><text fill="black" x="630" y="400">NN</text><text fill="black" x="710" y="350">of</text><text fill="black" x="710" y="400">IN</text><text fill="black" x="790" y="350">famine</text><text fill="black" x="790" y="400">NN</text><text fill="black" x="870" y="350">.</text><text fill="black" x="870" y="400">.</text><line stroke="red" x1="160" x2="150" y1="210" y2="330" /><line stroke="red" x1="270" x2="257" y1="210" y2="330" /><line stroke="red" x1="330" x2="337" y1="210" y2="330" /><line stroke="red" x1="410" x2="408" y1="210" y2="330" /><line stroke="red" x1="480" x2="657" y1="210" y2="330" /><line stroke="red" x1="570" x2="657" y1="210" y2="330" /><line stroke="red" x1="640" x2="817" y1="210" y2="330" /><line stroke="red" x1="760" x2="817" y1="210" y2="330" /><line stroke="red" x1="880" x2="817" y1="210" y2="330" /><line stroke="red" x1="960" x2="817" y1="210" y2="330" /><line stroke="red" x1="1030" x2="870" y1="210" y2="330" /></svg>