<?xml version="1.0" encoding="utf-8" ?>
<svg baseProfile="full" height="500" version="1.1" width="1100" xmlns="http://www.w3.org/2000/svg" xmlns:ev="http://www.w3.org/2001/xml-events" xmlns:xlink="http://www.w3.org/1999/xlink"><defs /><text fill="black" x="0" y="100">VIETNAMESE </text><text fill="black" x="20" y="150">POS: </text><text fill="black" x="20" y="200">Source: </text><text fill="black" x="150" y="150">Nn</text><text fill="black" x="150" y="200">Sức_mạnh</text><text fill="black" x="230" y="150">Cm</text><text fill="black" x="230" y="200">của</text><text fill="black" x="310" y="150">Nq</text><text fill="black" x="310" y="200">một</text><text fill="black" x="390" y="150">Nn</text><text fill="black" x="390" y="200">đất_nước</text><text fill="black" x="470" y="150">Vc</text><text fill="black" x="470" y="200">là</text><text fill="black" x="550" y="150">Nn</text><text fill="black" x="550" y="200">đường_sá</text><text fill="black" x="630" y="150">Cp</text><text fill="black" x="630" y="200">và</text><text fill="black" x="710" y="150">Nn</text><text fill="black" x="710" y="200">đường_sắt</text><text fill="black" x="790" y="150">Cm</text><text fill="black" x="790" y="200">của</text><text fill="black" x="870" y="150">Pp</text><text fill="black" x="870" y="200">nó</text><text fill="black" x="950" y="150">PU</text><text fill="black" x="950" y="200">.</text><text fill="black" x="0" y="450">ENGLISH </text><text fill="black" x="20" y="350">Target: </text><text fill="black" x="20" y="400">POS: </text><text fill="black" x="150" y="350">A</text><text fill="black" x="150" y="400">DT</text><text fill="black" x="230" y="350">country</text><text fill="black" x="230" y="400">NN</text><text fill="black" x="310" y="350">'s</text><text fill="black" x="310" y="400">POS</text><text fill="black" x="390" y="350">sinews</text><text fill="black" x="390" y="400">NNS</text><text fill="black" x="470" y="350">are</text><text fill="black" x="470" y="400">VBP</text><text fill="black" x="550" y="350">its</text><text fill="black" x="550" y="400">PRP$</text><text fill="black" x="630" y="350">roads</text><text fill="black" x="630" y="400">NNS</text><text fill="black" x="710" y="350">and</text><text fill="black" x="710" y="400">CC</text><text fill="black" x="790" y="350">railways</text><text fill="black" x="790" y="400">NNS</text><text fill="black" x="870" y="350">.</text><text fill="black" x="870" y="400">.</text><line stroke="red" x1="190" x2="417" y1="210" y2="330" /><line stroke="red" x1="320" x2="417" y1="210" y2="330" /><line stroke="red" x1="430" x2="257" y1="210" y2="330" /><line stroke="red" x1="590" x2="648" y1="210" y2="330" /><line stroke="red" x1="640" x2="719" y1="210" y2="330" /><line stroke="red" x1="750" x2="826" y1="210" y2="330" /><line stroke="red" x1="880" x2="826" y1="210" y2="330" /><line stroke="red" x1="950" x2="870" y1="210" y2="330" /></svg>