<?xml version="1.0" encoding="utf-8" ?>
<svg baseProfile="full" height="500" version="1.1" width="1400" xmlns="http://www.w3.org/2000/svg" xmlns:ev="http://www.w3.org/2001/xml-events" xmlns:xlink="http://www.w3.org/1999/xlink"><defs /><text fill="black" x="0" y="100">VIETNAMESE </text><text fill="black" x="20" y="150">POS: </text><text fill="black" x="20" y="200">Source: </text><text fill="black" x="150" y="150">Nq</text><text fill="black" x="150" y="200">Một</text><text fill="black" x="230" y="150">Nn</text><text fill="black" x="230" y="200">phiếu</text><text fill="black" x="310" y="150">Vv</text><text fill="black" x="310" y="200">tính</text><text fill="black" x="390" y="150">Nn</text><text fill="black" x="390" y="200">tiền</text><text fill="black" x="470" y="150">Vv</text><text fill="black" x="470" y="200">phụ_trội</text><text fill="black" x="550" y="150">Cm</text><text fill="black" x="550" y="200">ở</text><text fill="black" x="630" y="150">Nn</text><text fill="black" x="630" y="200">nhà_hàng</text><text fill="black" x="710" y="150">Vv</text><text fill="black" x="710" y="200">được</text><text fill="black" x="790" y="150">Vv</text><text fill="black" x="790" y="200">đính</text><text fill="black" x="870" y="150">Vv</text><text fill="black" x="870" y="200">kèm</text><text fill="black" x="950" y="150">Vv</text><text fill="black" x="950" y="200">theo</text><text fill="black" x="1030" y="150">FW</text><text fill="black" x="1030" y="200">hóa</text><text fill="black" x="1110" y="150">Aa</text><text fill="black" x="1110" y="200">đơn</text><text fill="black" x="1190" y="150">PU</text><text fill="black" x="1190" y="200">.</text><text fill="black" x="0" y="450">ENGLISH </text><text fill="black" x="20" y="350">Target: </text><text fill="black" x="20" y="400">POS: </text><text fill="black" x="150" y="350">A</text><text fill="black" x="150" y="400">DT</text><text fill="black" x="230" y="350">cover</text><text fill="black" x="230" y="400">NN</text><text fill="black" x="310" y="350">charge</text><text fill="black" x="310" y="400">NN</text><text fill="black" x="390" y="350">tacked</text><text fill="black" x="390" y="400">VBD</text><text fill="black" x="470" y="350">onto</text><text fill="black" x="470" y="400">IN</text><text fill="black" x="550" y="350">the</text><text fill="black" x="550" y="400">DT</text><text fill="black" x="630" y="350">bill</text><text fill="black" x="630" y="400">NN</text><text fill="black" x="710" y="350">.</text><text fill="black" x="710" y="400">.</text><line stroke="red" x1="160" x2="150" y1="210" y2="330" /><line stroke="red" x1="250" x2="417" y1="210" y2="330" /><line stroke="red" x1="330" x2="337" y1="210" y2="330" /><line stroke="red" x1="410" x2="337" y1="210" y2="330" /><line stroke="red" x1="510" x2="417" y1="210" y2="330" /><line stroke="red" x1="550" x2="417" y1="210" y2="330" /><line stroke="red" x1="670" x2="417" y1="210" y2="330" /><line stroke="red" x1="810" x2="417" y1="210" y2="330" /><line stroke="red" x1="880" x2="417" y1="210" y2="330" /><line stroke="red" x1="970" x2="417" y1="210" y2="330" /><line stroke="red" x1="1040" x2="648" y1="210" y2="330" /><line stroke="red" x1="1120" x2="648" y1="210" y2="330" /><line stroke="red" x1="1190" x2="710" y1="210" y2="330" /></svg>