<?xml version="1.0" encoding="utf-8" ?>
<svg baseProfile="full" height="500" version="1.1" width="1200" xmlns="http://www.w3.org/2000/svg" xmlns:ev="http://www.w3.org/2001/xml-events" xmlns:xlink="http://www.w3.org/1999/xlink"><defs /><text fill="black" x="0" y="100">VIETNAMESE </text><text fill="black" x="20" y="150">POS: </text><text fill="black" x="20" y="200">Source: </text><text fill="black" x="150" y="150">Nq</text><text fill="black" x="150" y="200">Một</text><text fill="black" x="230" y="150">Nq</text><text fill="black" x="230" y="200">cặp</text><text fill="black" x="310" y="150">Nn</text><text fill="black" x="310" y="200">vợ_chồng</text><text fill="black" x="390" y="150">Vv</text><text fill="black" x="390" y="200">dẫn</text><text fill="black" x="470" y="150">Nq</text><text fill="black" x="470" y="200">hai</text><text fill="black" x="550" y="150">Nc</text><text fill="black" x="550" y="200">đứa</text><text fill="black" x="630" y="150">Nn</text><text fill="black" x="630" y="200">con</text><text fill="black" x="710" y="150">Vv</text><text fill="black" x="710" y="200">đi</text><text fill="black" x="790" y="150">D</text><text fill="black" x="790" y="200">vào</text><text fill="black" x="870" y="150">Nn</text><text fill="black" x="870" y="200">quán</text><text fill="black" x="950" y="150">Nn</text><text fill="black" x="950" y="200">rượu</text><text fill="black" x="1030" y="150">PU</text><text fill="black" x="1030" y="200">.</text><text fill="black" x="0" y="450">ENGLISH </text><text fill="black" x="20" y="350">Target: </text><text fill="black" x="20" y="400">POS: </text><text fill="black" x="150" y="350">A</text><text fill="black" x="150" y="400">DT</text><text fill="black" x="230" y="350">couple</text><text fill="black" x="230" y="400">NN</text><text fill="black" x="310" y="350">with</text><text fill="black" x="310" y="400">IN</text><text fill="black" x="390" y="350">two</text><text fill="black" x="390" y="400">CD</text><text fill="black" x="470" y="350">children</text><text fill="black" x="470" y="400">NNS</text><text fill="black" x="550" y="350">enter</text><text fill="black" x="550" y="400">VBP</text><text fill="black" x="630" y="350">the</text><text fill="black" x="630" y="400">DT</text><text fill="black" x="710" y="350">bar</text><text fill="black" x="710" y="400">NN</text><text fill="black" x="790" y="350">.</text><text fill="black" x="790" y="400">.</text><line stroke="red" x1="160" x2="150" y1="210" y2="330" /><line stroke="red" x1="240" x2="257" y1="210" y2="330" /><line stroke="red" x1="350" x2="257" y1="210" y2="330" /><line stroke="red" x1="400" x2="257" y1="210" y2="330" /><line stroke="red" x1="480" x2="399" y1="210" y2="330" /><line stroke="red" x1="560" x2="506" y1="210" y2="330" /><line stroke="red" x1="640" x2="506" y1="210" y2="330" /><line stroke="red" x1="720" x2="568" y1="210" y2="330" /><line stroke="red" x1="800" x2="568" y1="210" y2="330" /><line stroke="red" x1="890" x2="719" y1="210" y2="330" /><line stroke="red" x1="970" x2="719" y1="210" y2="330" /><line stroke="red" x1="1030" x2="790" y1="210" y2="330" /></svg>