<?xml version="1.0" encoding="utf-8" ?>
<svg baseProfile="full" height="500" version="1.1" width="1300" xmlns="http://www.w3.org/2000/svg" xmlns:ev="http://www.w3.org/2001/xml-events" xmlns:xlink="http://www.w3.org/1999/xlink"><defs /><text fill="black" x="0" y="100">VIETNAMESE </text><text fill="black" x="20" y="150">POS: </text><text fill="black" x="20" y="200">Source: </text><text fill="black" x="150" y="150">Nq</text><text fill="black" x="150" y="200">Một</text><text fill="black" x="230" y="150">Nn</text><text fill="black" x="230" y="200">người</text><text fill="black" x="310" y="150">Vv</text><text fill="black" x="310" y="200">đưa</text><text fill="black" x="390" y="150">Nn</text><text fill="black" x="390" y="200">thư</text><text fill="black" x="470" y="150">Vv</text><text fill="black" x="470" y="200">giao</text><text fill="black" x="550" y="150">Nq</text><text fill="black" x="550" y="200">những</text><text fill="black" x="630" y="150">Nn</text><text fill="black" x="630" y="200">gói</text><text fill="black" x="710" y="150">Nn</text><text fill="black" x="710" y="200">hàng</text><text fill="black" x="790" y="150">D</text><text fill="black" x="790" y="200">đến</text><text fill="black" x="870" y="150">Nn</text><text fill="black" x="870" y="200">văn_phòng</text><text fill="black" x="950" y="150">Cm</text><text fill="black" x="950" y="200">của</text><text fill="black" x="1030" y="150">Pp</text><text fill="black" x="1030" y="200">chúng_tôi</text><text fill="black" x="1110" y="150">PU</text><text fill="black" x="1110" y="200">.</text><text fill="black" x="0" y="450">ENGLISH </text><text fill="black" x="20" y="350">Target: </text><text fill="black" x="20" y="400">POS: </text><text fill="black" x="150" y="350">A</text><text fill="black" x="150" y="400">DT</text><text fill="black" x="230" y="350">courier</text><text fill="black" x="230" y="400">NN</text><text fill="black" x="310" y="350">delivered</text><text fill="black" x="310" y="400">VBD</text><text fill="black" x="390" y="350">the</text><text fill="black" x="390" y="400">DT</text><text fill="black" x="470" y="350">parcels</text><text fill="black" x="470" y="400">NNS</text><text fill="black" x="550" y="350">to</text><text fill="black" x="550" y="400">TO</text><text fill="black" x="630" y="350">our</text><text fill="black" x="630" y="400">PRP$</text><text fill="black" x="710" y="350">office</text><text fill="black" x="710" y="400">NN</text><text fill="black" x="790" y="350">.</text><text fill="black" x="790" y="400">.</text><line stroke="red" x1="160" x2="150" y1="210" y2="330" /><line stroke="red" x1="250" x2="257" y1="210" y2="330" /><line stroke="red" x1="320" x2="257" y1="210" y2="330" /><line stroke="red" x1="400" x2="257" y1="210" y2="330" /><line stroke="red" x1="490" x2="346" y1="210" y2="330" /><line stroke="red" x1="640" x2="497" y1="210" y2="330" /><line stroke="red" x1="730" x2="497" y1="210" y2="330" /><line stroke="red" x1="800" x2="553" y1="210" y2="330" /><line stroke="red" x1="910" x2="737" y1="210" y2="330" /><line stroke="red" x1="1070" x2="639" y1="210" y2="330" /><line stroke="red" x1="1110" x2="790" y1="210" y2="330" /></svg>