<?xml version="1.0" encoding="utf-8" ?>
<svg baseProfile="full" height="500" version="1.1" width="900" xmlns="http://www.w3.org/2000/svg" xmlns:ev="http://www.w3.org/2001/xml-events" xmlns:xlink="http://www.w3.org/1999/xlink"><defs /><text fill="black" x="0" y="100">VIETNAMESE </text><text fill="black" x="20" y="150">POS: </text><text fill="black" x="20" y="200">Source: </text><text fill="black" x="150" y="150">Nq</text><text fill="black" x="150" y="200">Một</text><text fill="black" x="230" y="150">FW</text><text fill="black" x="230" y="200">khóa</text><text fill="black" x="310" y="150">Vv</text><text fill="black" x="310" y="200">học</text><text fill="black" x="390" y="150">Vv</text><text fill="black" x="390" y="200">kéo</text><text fill="black" x="470" y="150">Aa</text><text fill="black" x="470" y="200">dài</text><text fill="black" x="550" y="150">Nq</text><text fill="black" x="550" y="200">ba</text><text fill="black" x="630" y="150">Nt</text><text fill="black" x="630" y="200">năm</text><text fill="black" x="710" y="150">PU</text><text fill="black" x="710" y="200">.</text><text fill="black" x="0" y="450">ENGLISH </text><text fill="black" x="20" y="350">Target: </text><text fill="black" x="20" y="400">POS: </text><text fill="black" x="150" y="350">A</text><text fill="black" x="150" y="400">DT</text><text fill="black" x="230" y="350">course</text><text fill="black" x="230" y="400">NN</text><text fill="black" x="310" y="350">of</text><text fill="black" x="310" y="400">IN</text><text fill="black" x="390" y="350">studies</text><text fill="black" x="390" y="400">NNS</text><text fill="black" x="470" y="350">spread</text><text fill="black" x="470" y="400">VBN</text><text fill="black" x="550" y="350">over</text><text fill="black" x="550" y="400">IN</text><text fill="black" x="630" y="350">three</text><text fill="black" x="630" y="400">CD</text><text fill="black" x="710" y="350">years</text><text fill="black" x="710" y="400">NNS</text><text fill="black" x="790" y="350">.</text><text fill="black" x="790" y="400">.</text><line stroke="red" x1="160" x2="150" y1="210" y2="330" /><line stroke="red" x1="250" x2="257" y1="210" y2="330" /><line stroke="red" x1="320" x2="257" y1="210" y2="330" /><line stroke="red" x1="400" x2="417" y1="210" y2="330" /><line stroke="red" x1="480" x2="417" y1="210" y2="330" /><line stroke="red" x1="560" x2="648" y1="210" y2="330" /><line stroke="red" x1="640" x2="728" y1="210" y2="330" /><line stroke="red" x1="710" x2="790" y1="210" y2="330" /></svg>