<?xml version="1.0" encoding="utf-8" ?>
<svg baseProfile="full" height="500" version="1.1" width="900" xmlns="http://www.w3.org/2000/svg" xmlns:ev="http://www.w3.org/2001/xml-events" xmlns:xlink="http://www.w3.org/1999/xlink"><defs /><text fill="black" x="0" y="100">VIETNAMESE </text><text fill="black" x="20" y="150">POS: </text><text fill="black" x="20" y="200">Source: </text><text fill="black" x="150" y="150">Nq</text><text fill="black" x="150" y="200">Một</text><text fill="black" x="230" y="150">Nn</text><text fill="black" x="230" y="200">tội_ác</text><text fill="black" x="310" y="150">Vv</text><text fill="black" x="310" y="200">đè</text><text fill="black" x="390" y="150">Aa</text><text fill="black" x="390" y="200">nặng</text><text fill="black" x="470" y="150">Nn</text><text fill="black" x="470" y="200">lương_tâm</text><text fill="black" x="550" y="150">Cm</text><text fill="black" x="550" y="200">của</text><text fill="black" x="630" y="150">Pp</text><text fill="black" x="630" y="200">ai</text><text fill="black" x="710" y="150">PU</text><text fill="black" x="710" y="200">.</text><text fill="black" x="0" y="450">ENGLISH </text><text fill="black" x="20" y="350">Target: </text><text fill="black" x="20" y="400">POS: </text><text fill="black" x="150" y="350">A</text><text fill="black" x="150" y="400">DT</text><text fill="black" x="230" y="350">crime</text><text fill="black" x="230" y="400">NN</text><text fill="black" x="310" y="350">lying</text><text fill="black" x="310" y="400">VBG</text><text fill="black" x="390" y="350">heavy</text><text fill="black" x="390" y="400">NN</text><text fill="black" x="470" y="350">on</text><text fill="black" x="470" y="400">IN</text><text fill="black" x="550" y="350">one</text><text fill="black" x="550" y="400">NN</text><text fill="black" x="630" y="350">'s</text><text fill="black" x="630" y="400">POS</text><text fill="black" x="710" y="350">conscience</text><text fill="black" x="710" y="400">NN</text><text fill="black" x="790" y="350">.</text><text fill="black" x="790" y="400">.</text><line stroke="red" x1="160" x2="150" y1="210" y2="330" /><line stroke="red" x1="260" x2="248" y1="210" y2="330" /><line stroke="red" x1="320" x2="328" y1="210" y2="330" /><line stroke="red" x1="410" x2="408" y1="210" y2="330" /><line stroke="red" x1="510" x2="755" y1="210" y2="330" /><line stroke="red" x1="640" x2="559" y1="210" y2="330" /><line stroke="red" x1="710" x2="790" y1="210" y2="330" /></svg>