<?xml version="1.0" encoding="utf-8" ?>
<svg baseProfile="full" height="500" version="1.1" width="900" xmlns="http://www.w3.org/2000/svg" xmlns:ev="http://www.w3.org/2001/xml-events" xmlns:xlink="http://www.w3.org/1999/xlink"><defs /><text fill="black" x="0" y="100">VIETNAMESE </text><text fill="black" x="20" y="150">POS: </text><text fill="black" x="20" y="200">Source: </text><text fill="black" x="150" y="150">Nq</text><text fill="black" x="150" y="200">Một</text><text fill="black" x="230" y="150">Nn</text><text fill="black" x="230" y="200">đám_đông</text><text fill="black" x="310" y="150">Vv</text><text fill="black" x="310" y="200">xô_đẩy</text><text fill="black" x="390" y="150">Cp</text><text fill="black" x="390" y="200">và</text><text fill="black" x="470" y="150">Vv</text><text fill="black" x="470" y="200">chen_lấn</text><text fill="black" x="550" y="150">Nn</text><text fill="black" x="550" y="200">nhau</text><text fill="black" x="630" y="150">Cm</text><text fill="black" x="630" y="200">để</text><text fill="black" x="710" y="150">Vd</text><text fill="black" x="710" y="200">vào</text><text fill="black" x="790" y="150">PU</text><text fill="black" x="790" y="200">.</text><text fill="black" x="0" y="450">ENGLISH </text><text fill="black" x="20" y="350">Target: </text><text fill="black" x="20" y="400">POS: </text><text fill="black" x="150" y="350">A</text><text fill="black" x="150" y="400">DT</text><text fill="black" x="230" y="350">crowd</text><text fill="black" x="230" y="400">NN</text><text fill="black" x="310" y="350">pushing</text><text fill="black" x="310" y="400">VBG</text><text fill="black" x="390" y="350">and</text><text fill="black" x="390" y="400">CC</text><text fill="black" x="470" y="350">shoving</text><text fill="black" x="470" y="400">VBG</text><text fill="black" x="550" y="350">to</text><text fill="black" x="550" y="400">TO</text><text fill="black" x="630" y="350">get</text><text fill="black" x="630" y="400">VB</text><text fill="black" x="710" y="350">in</text><text fill="black" x="710" y="400">IN</text><text fill="black" x="790" y="350">.</text><text fill="black" x="790" y="400">.</text><line stroke="red" x1="160" x2="150" y1="210" y2="330" /><line stroke="red" x1="270" x2="248" y1="210" y2="330" /><line stroke="red" x1="340" x2="337" y1="210" y2="330" /><line stroke="red" x1="400" x2="399" y1="210" y2="330" /><line stroke="red" x1="510" x2="497" y1="210" y2="330" /><line stroke="red" x1="570" x2="497" y1="210" y2="330" /><line stroke="red" x1="640" x2="553" y1="210" y2="330" /><line stroke="red" x1="720" x2="713" y1="210" y2="330" /><line stroke="red" x1="790" x2="790" y1="210" y2="330" /></svg>