<?xml version="1.0" encoding="utf-8" ?>
<svg baseProfile="full" height="500" version="1.1" width="1200" xmlns="http://www.w3.org/2000/svg" xmlns:ev="http://www.w3.org/2001/xml-events" xmlns:xlink="http://www.w3.org/1999/xlink"><defs /><text fill="black" x="0" y="100">VIETNAMESE </text><text fill="black" x="20" y="150">POS: </text><text fill="black" x="20" y="200">Source: </text><text fill="black" x="150" y="150">Nq</text><text fill="black" x="150" y="200">Một</text><text fill="black" x="230" y="150">Nn</text><text fill="black" x="230" y="200">tội_ác</text><text fill="black" x="310" y="150">R</text><text fill="black" x="310" y="200">vẫn</text><text fill="black" x="390" y="150">R</text><text fill="black" x="390" y="200">còn</text><text fill="black" x="470" y="150">Vc</text><text fill="black" x="470" y="200">là</text><text fill="black" x="550" y="150">Nq</text><text fill="black" x="550" y="200">một</text><text fill="black" x="630" y="150">Nc</text><text fill="black" x="630" y="200">điều</text><text fill="black" x="710" y="150">Aa</text><text fill="black" x="710" y="200">bí_ẩn</text><text fill="black" x="790" y="150">R</text><text fill="black" x="790" y="200">chưa</text><text fill="black" x="870" y="150">Vv</text><text fill="black" x="870" y="200">được</text><text fill="black" x="950" y="150">Vv</text><text fill="black" x="950" y="200">giải_quyết</text><text fill="black" x="1030" y="150">PU</text><text fill="black" x="1030" y="200">.</text><text fill="black" x="0" y="450">ENGLISH </text><text fill="black" x="20" y="350">Target: </text><text fill="black" x="20" y="400">POS: </text><text fill="black" x="150" y="350">A</text><text fill="black" x="150" y="400">DT</text><text fill="black" x="230" y="350">crime</text><text fill="black" x="230" y="400">NN</text><text fill="black" x="310" y="350">that</text><text fill="black" x="310" y="400">WDT</text><text fill="black" x="390" y="350">is</text><text fill="black" x="390" y="400">VBZ</text><text fill="black" x="470" y="350">an</text><text fill="black" x="470" y="400">DT</text><text fill="black" x="550" y="350">unsolved</text><text fill="black" x="550" y="400">JJ</text><text fill="black" x="630" y="350">mystery</text><text fill="black" x="630" y="400">NN</text><text fill="black" x="710" y="350">.</text><text fill="black" x="710" y="400">.</text><line stroke="red" x1="160" x2="150" y1="210" y2="330" /><line stroke="red" x1="260" x2="248" y1="210" y2="330" /><line stroke="red" x1="320" x2="586" y1="210" y2="330" /><line stroke="red" x1="400" x2="586" y1="210" y2="330" /><line stroke="red" x1="480" x2="393" y1="210" y2="330" /><line stroke="red" x1="560" x2="473" y1="210" y2="330" /><line stroke="red" x1="650" x2="586" y1="210" y2="330" /><line stroke="red" x1="730" x2="657" y1="210" y2="330" /><line stroke="red" x1="810" x2="586" y1="210" y2="330" /><line stroke="red" x1="1000" x2="586" y1="210" y2="330" /><line stroke="red" x1="1030" x2="710" y1="210" y2="330" /></svg>