<?xml version="1.0" encoding="utf-8" ?>
<svg baseProfile="full" height="500" version="1.1" width="1100" xmlns="http://www.w3.org/2000/svg" xmlns:ev="http://www.w3.org/2001/xml-events" xmlns:xlink="http://www.w3.org/1999/xlink"><defs /><text fill="black" x="0" y="100">VIETNAMESE </text><text fill="black" x="20" y="150">POS: </text><text fill="black" x="20" y="200">Source: </text><text fill="black" x="150" y="150">Nn</text><text fill="black" x="150" y="200">Đám_đông</text><text fill="black" x="230" y="150">Aa</text><text fill="black" x="230" y="200">nhanh_chóng</text><text fill="black" x="310" y="150">Vv</text><text fill="black" x="310" y="200">tụ_tập</text><text fill="black" x="390" y="150">Cm</text><text fill="black" x="390" y="200">tại</text><text fill="black" x="470" y="150">Nn</text><text fill="black" x="470" y="200">địa_điểm</text><text fill="black" x="550" y="150">Vv</text><text fill="black" x="550" y="200">xảy_ra</text><text fill="black" x="630" y="150">Nn</text><text fill="black" x="630" y="200">tai_nạn</text><text fill="black" x="710" y="150">PU</text><text fill="black" x="710" y="200">.</text><text fill="black" x="0" y="450">ENGLISH </text><text fill="black" x="20" y="350">Target: </text><text fill="black" x="20" y="400">POS: </text><text fill="black" x="150" y="350">A</text><text fill="black" x="150" y="400">DT</text><text fill="black" x="230" y="350">crowd</text><text fill="black" x="230" y="400">NN</text><text fill="black" x="310" y="350">soon</text><text fill="black" x="310" y="400">RB</text><text fill="black" x="390" y="350">collected</text><text fill="black" x="390" y="400">VBN</text><text fill="black" x="470" y="350">at</text><text fill="black" x="470" y="400">IN</text><text fill="black" x="550" y="350">the</text><text fill="black" x="550" y="400">DT</text><text fill="black" x="630" y="350">scene</text><text fill="black" x="630" y="400">NN</text><text fill="black" x="710" y="350">of</text><text fill="black" x="710" y="400">IN</text><text fill="black" x="790" y="350">the</text><text fill="black" x="790" y="400">DT</text><text fill="black" x="870" y="350">accident</text><text fill="black" x="870" y="400">NN</text><text fill="black" x="950" y="350">.</text><text fill="black" x="950" y="400">.</text><line stroke="red" x1="190" x2="248" y1="210" y2="330" /><line stroke="red" x1="280" x2="426" y1="210" y2="330" /><line stroke="red" x1="340" x2="426" y1="210" y2="330" /><line stroke="red" x1="400" x2="473" y1="210" y2="330" /><line stroke="red" x1="510" x2="648" y1="210" y2="330" /><line stroke="red" x1="580" x2="648" y1="210" y2="330" /><line stroke="red" x1="660" x2="906" y1="210" y2="330" /><line stroke="red" x1="710" x2="950" y1="210" y2="330" /></svg>