<?xml version="1.0" encoding="utf-8" ?>
<svg baseProfile="full" height="500" version="1.1" width="900" xmlns="http://www.w3.org/2000/svg" xmlns:ev="http://www.w3.org/2001/xml-events" xmlns:xlink="http://www.w3.org/1999/xlink"><defs /><text fill="black" x="0" y="100">VIETNAMESE </text><text fill="black" x="20" y="150">POS: </text><text fill="black" x="20" y="200">Source: </text><text fill="black" x="150" y="150">Nn</text><text fill="black" x="150" y="200">Vận_tốc</text><text fill="black" x="230" y="150">Aa</text><text fill="black" x="230" y="200">vừa_phải</text><text fill="black" x="310" y="150">Nq</text><text fill="black" x="310" y="200">50</text><text fill="black" x="390" y="150">Nu</text><text fill="black" x="390" y="200">dặm</text><text fill="black" x="470" y="150">Nq</text><text fill="black" x="470" y="200">một</text><text fill="black" x="550" y="150">Nt</text><text fill="black" x="550" y="200">giờ</text><text fill="black" x="630" y="150">PU</text><text fill="black" x="630" y="200">.</text><text fill="black" x="0" y="450">ENGLISH </text><text fill="black" x="20" y="350">Target: </text><text fill="black" x="20" y="400">POS: </text><text fill="black" x="150" y="350">A</text><text fill="black" x="150" y="400">DT</text><text fill="black" x="230" y="350">cruising</text><text fill="black" x="230" y="400">VBG</text><text fill="black" x="310" y="350">speed</text><text fill="black" x="310" y="400">NN</text><text fill="black" x="390" y="350">of</text><text fill="black" x="390" y="400">IN</text><text fill="black" x="470" y="350">50</text><text fill="black" x="470" y="400">CD</text><text fill="black" x="550" y="350">miles</text><text fill="black" x="550" y="400">NNS</text><text fill="black" x="630" y="350">per</text><text fill="black" x="630" y="400">IN</text><text fill="black" x="710" y="350">hour</text><text fill="black" x="710" y="400">NN</text><text fill="black" x="790" y="350">.</text><text fill="black" x="790" y="400">.</text><line stroke="red" x1="180" x2="266" y1="210" y2="330" /><line stroke="red" x1="270" x2="266" y1="210" y2="330" /><line stroke="red" x1="320" x2="473" y1="210" y2="330" /><line stroke="red" x1="400" x2="568" y1="210" y2="330" /><line stroke="red" x1="480" x2="639" y1="210" y2="330" /><line stroke="red" x1="560" x2="728" y1="210" y2="330" /><line stroke="red" x1="630" x2="790" y1="210" y2="330" /></svg>