<?xml version="1.0" encoding="utf-8" ?>
<svg baseProfile="full" height="500" version="1.1" width="1300" xmlns="http://www.w3.org/2000/svg" xmlns:ev="http://www.w3.org/2001/xml-events" xmlns:xlink="http://www.w3.org/1999/xlink"><defs /><text fill="black" x="0" y="100">VIETNAMESE </text><text fill="black" x="20" y="150">POS: </text><text fill="black" x="20" y="200">Source: </text><text fill="black" x="150" y="150">Nq</text><text fill="black" x="150" y="200">Một</text><text fill="black" x="230" y="150">Nn</text><text fill="black" x="230" y="200">khu</text><text fill="black" x="310" y="150">Nn</text><text fill="black" x="310" y="200">rừng</text><text fill="black" x="390" y="150">Aa</text><text fill="black" x="390" y="200">tối_tăm</text><text fill="black" x="470" y="150">Cp</text><text fill="black" x="470" y="200">mà</text><text fill="black" x="550" y="150">Cm</text><text fill="black" x="550" y="200">ở</text><text fill="black" x="630" y="150">Cm</text><text fill="black" x="630" y="200">trong</text><text fill="black" x="710" y="150">Pd</text><text fill="black" x="710" y="200">đó</text><text fill="black" x="790" y="150">Aa</text><text fill="black" x="790" y="200">nhiều</text><text fill="black" x="870" y="150">Nn</text><text fill="black" x="870" y="200">nguy_hiểm</text><text fill="black" x="950" y="150">R</text><text fill="black" x="950" y="200">đang</text><text fill="black" x="1030" y="150">Vv</text><text fill="black" x="1030" y="200">rình_rập</text><text fill="black" x="1110" y="150">PU</text><text fill="black" x="1110" y="200">.</text><text fill="black" x="0" y="450">ENGLISH </text><text fill="black" x="20" y="350">Target: </text><text fill="black" x="20" y="400">POS: </text><text fill="black" x="150" y="350">A</text><text fill="black" x="150" y="400">DT</text><text fill="black" x="230" y="350">dark</text><text fill="black" x="230" y="400">JJ</text><text fill="black" x="310" y="350">forest</text><text fill="black" x="310" y="400">NN</text><text fill="black" x="390" y="350">wherein</text><text fill="black" x="390" y="400">WRB</text><text fill="black" x="470" y="350">dangers</text><text fill="black" x="470" y="400">NNS</text><text fill="black" x="550" y="350">lurk</text><text fill="black" x="550" y="400">VBP</text><text fill="black" x="630" y="350">.</text><text fill="black" x="630" y="400">.</text><line stroke="red" x1="160" x2="150" y1="210" y2="330" /><line stroke="red" x1="240" x2="337" y1="210" y2="330" /><line stroke="red" x1="330" x2="337" y1="210" y2="330" /><line stroke="red" x1="420" x2="417" y1="210" y2="330" /><line stroke="red" x1="480" x2="568" y1="210" y2="330" /><line stroke="red" x1="550" x2="568" y1="210" y2="330" /><line stroke="red" x1="650" x2="568" y1="210" y2="330" /><line stroke="red" x1="810" x2="497" y1="210" y2="330" /><line stroke="red" x1="910" x2="497" y1="210" y2="330" /><line stroke="red" x1="970" x2="568" y1="210" y2="330" /><line stroke="red" x1="1070" x2="568" y1="210" y2="330" /><line stroke="red" x1="1110" x2="630" y1="210" y2="330" /></svg>