<?xml version="1.0" encoding="utf-8" ?>
<svg baseProfile="full" height="500" version="1.1" width="1300" xmlns="http://www.w3.org/2000/svg" xmlns:ev="http://www.w3.org/2001/xml-events" xmlns:xlink="http://www.w3.org/1999/xlink"><defs /><text fill="black" x="0" y="100">VIETNAMESE </text><text fill="black" x="20" y="150">POS: </text><text fill="black" x="20" y="200">Source: </text><text fill="black" x="150" y="150">Nq</text><text fill="black" x="150" y="200">Một</text><text fill="black" x="230" y="150">Nn</text><text fill="black" x="230" y="200">nỗ_lực</text><text fill="black" x="310" y="150">Vv</text><text fill="black" x="310" y="200">nghiên_cứu</text><text fill="black" x="390" y="150">Cm</text><text fill="black" x="390" y="200">trên</text><text fill="black" x="470" y="150">Nn</text><text fill="black" x="470" y="200">qui_mô</text><text fill="black" x="550" y="150">Pp</text><text fill="black" x="550" y="200">cả</text><text fill="black" x="630" y="150">Nn</text><text fill="black" x="630" y="200">nước</text><text fill="black" x="710" y="150">Vv</text><text fill="black" x="710" y="200">kéo</text><text fill="black" x="790" y="150">Aa</text><text fill="black" x="790" y="200">dài</text><text fill="black" x="870" y="150">Aa</text><text fill="black" x="870" y="200">suốt</text><text fill="black" x="950" y="150">Nq</text><text fill="black" x="950" y="200">một</text><text fill="black" x="1030" y="150">Nt</text><text fill="black" x="1030" y="200">thập_kỷ</text><text fill="black" x="1110" y="150">PU</text><text fill="black" x="1110" y="200">.</text><text fill="black" x="0" y="450">ENGLISH </text><text fill="black" x="20" y="350">Target: </text><text fill="black" x="20" y="400">POS: </text><text fill="black" x="150" y="350">A</text><text fill="black" x="150" y="400">DT</text><text fill="black" x="230" y="350">decade</text><text fill="black" x="230" y="400">NN</text><text fill="black" x="310" y="350">long</text><text fill="black" x="310" y="400">JJ</text><text fill="black" x="390" y="350">national</text><text fill="black" x="390" y="400">JJ</text><text fill="black" x="470" y="350">research</text><text fill="black" x="470" y="400">NN</text><text fill="black" x="550" y="350">effort</text><text fill="black" x="550" y="400">NN</text><text fill="black" x="630" y="350">.</text><text fill="black" x="630" y="400">.</text><line stroke="red" x1="160" x2="150" y1="210" y2="330" /><line stroke="red" x1="260" x2="577" y1="210" y2="330" /><line stroke="red" x1="360" x2="506" y1="210" y2="330" /><line stroke="red" x1="410" x2="257" y1="210" y2="330" /><line stroke="red" x1="500" x2="257" y1="210" y2="330" /><line stroke="red" x1="560" x2="257" y1="210" y2="330" /><line stroke="red" x1="650" x2="426" y1="210" y2="330" /><line stroke="red" x1="720" x2="257" y1="210" y2="330" /><line stroke="red" x1="800" x2="328" y1="210" y2="330" /><line stroke="red" x1="890" x2="257" y1="210" y2="330" /><line stroke="red" x1="1060" x2="257" y1="210" y2="330" /><line stroke="red" x1="1110" x2="630" y1="210" y2="330" /></svg>