<?xml version="1.0" encoding="utf-8" ?>
<svg baseProfile="full" height="500" version="1.1" width="1200" xmlns="http://www.w3.org/2000/svg" xmlns:ev="http://www.w3.org/2001/xml-events" xmlns:xlink="http://www.w3.org/1999/xlink"><defs /><text fill="black" x="0" y="100">VIETNAMESE </text><text fill="black" x="20" y="150">POS: </text><text fill="black" x="20" y="200">Source: </text><text fill="black" x="150" y="150">Nq</text><text fill="black" x="150" y="200">Một</text><text fill="black" x="230" y="150">Nn</text><text fill="black" x="230" y="200">đầu_bếp</text><text fill="black" x="310" y="150">Aa</text><text fill="black" x="310" y="200">dối_trá</text><text fill="black" x="390" y="150">Vv</text><text fill="black" x="390" y="200">ăn_bớt</text><text fill="black" x="470" y="150">Nn</text><text fill="black" x="470" y="200">thực_phẩm</text><text fill="black" x="550" y="150">Cp</text><text fill="black" x="550" y="200">và</text><text fill="black" x="630" y="150">Vv</text><text fill="black" x="630" y="200">lừa_gạt</text><text fill="black" x="710" y="150">Nn</text><text fill="black" x="710" y="200">khách</text><text fill="black" x="790" y="150">PU</text><text fill="black" x="790" y="200">.</text><text fill="black" x="0" y="450">ENGLISH </text><text fill="black" x="20" y="350">Target: </text><text fill="black" x="20" y="400">POS: </text><text fill="black" x="150" y="350">A</text><text fill="black" x="150" y="400">DT</text><text fill="black" x="230" y="350">deceitful</text><text fill="black" x="230" y="400">JJ</text><text fill="black" x="310" y="350">cook</text><text fill="black" x="310" y="400">NN</text><text fill="black" x="390" y="350">who</text><text fill="black" x="390" y="400">WP</text><text fill="black" x="470" y="350">skimps</text><text fill="black" x="470" y="400">VBZ</text><text fill="black" x="550" y="350">on</text><text fill="black" x="550" y="400">IN</text><text fill="black" x="630" y="350">ingredients</text><text fill="black" x="630" y="400">NNS</text><text fill="black" x="710" y="350">and</text><text fill="black" x="710" y="400">CC</text><text fill="black" x="790" y="350">short</text><text fill="black" x="790" y="400">JJ</text><text fill="black" x="870" y="350">changes</text><text fill="black" x="870" y="400">NNS</text><text fill="black" x="950" y="350">guests</text><text fill="black" x="950" y="400">NNS</text><text fill="black" x="1030" y="350">.</text><text fill="black" x="1030" y="400">.</text><line stroke="red" x1="160" x2="150" y1="210" y2="330" /><line stroke="red" x1="260" x2="328" y1="210" y2="330" /><line stroke="red" x1="340" x2="497" y1="210" y2="330" /><line stroke="red" x1="420" x2="497" y1="210" y2="330" /><line stroke="red" x1="510" x2="497" y1="210" y2="330" /><line stroke="red" x1="560" x2="719" y1="210" y2="330" /><line stroke="red" x1="660" x2="497" y1="210" y2="330" /><line stroke="red" x1="730" x2="977" y1="210" y2="330" /><line stroke="red" x1="790" x2="1030" y1="210" y2="330" /></svg>