<?xml version="1.0" encoding="utf-8" ?>
<svg baseProfile="full" height="500" version="1.1" width="1500" xmlns="http://www.w3.org/2000/svg" xmlns:ev="http://www.w3.org/2001/xml-events" xmlns:xlink="http://www.w3.org/1999/xlink"><defs /><text fill="black" x="0" y="100">VIETNAMESE </text><text fill="black" x="20" y="150">POS: </text><text fill="black" x="20" y="200">Source: </text><text fill="black" x="150" y="150">Nq</text><text fill="black" x="150" y="200">Một</text><text fill="black" x="230" y="150">Nc</text><text fill="black" x="230" y="200">cuộc</text><text fill="black" x="310" y="150">Vv</text><text fill="black" x="310" y="200">bàn_cãi</text><text fill="black" x="390" y="150">Cp</text><text fill="black" x="390" y="200">mà</text><text fill="black" x="470" y="150">Nn</text><text fill="black" x="470" y="200">đời</text><text fill="black" x="550" y="150">Nn</text><text fill="black" x="550" y="200">sau</text><text fill="black" x="630" y="150">R</text><text fill="black" x="630" y="200">còn</text><text fill="black" x="710" y="150">Vv</text><text fill="black" x="710" y="200">ghi_nhớ</text><text fill="black" x="790" y="150">Vc</text><text fill="black" x="790" y="200">là</text><text fill="black" x="870" y="150">Nq</text><text fill="black" x="870" y="200">một</text><text fill="black" x="950" y="150">Nn</text><text fill="black" x="950" y="200">bước_ngoặt</text><text fill="black" x="1030" y="150">Cm</text><text fill="black" x="1030" y="200">trong</text><text fill="black" x="1110" y="150">Nn</text><text fill="black" x="1110" y="200">chiến_dịch</text><text fill="black" x="1190" y="150">Pd</text><text fill="black" x="1190" y="200">đó</text><text fill="black" x="1270" y="150">PU</text><text fill="black" x="1270" y="200">.</text><text fill="black" x="0" y="450">ENGLISH </text><text fill="black" x="20" y="350">Target: </text><text fill="black" x="20" y="400">POS: </text><text fill="black" x="150" y="350">A</text><text fill="black" x="150" y="400">DT</text><text fill="black" x="230" y="350">debate</text><text fill="black" x="230" y="400">NN</text><text fill="black" x="310" y="350">that</text><text fill="black" x="310" y="400">WDT</text><text fill="black" x="390" y="350">will</text><text fill="black" x="390" y="400">MD</text><text fill="black" x="470" y="350">go</text><text fill="black" x="470" y="400">VB</text><text fill="black" x="550" y="350">down</text><text fill="black" x="550" y="400">RP</text><text fill="black" x="630" y="350">as</text><text fill="black" x="630" y="400">IN</text><text fill="black" x="710" y="350">a</text><text fill="black" x="710" y="400">DT</text><text fill="black" x="790" y="350">turning</text><text fill="black" x="790" y="400">NN</text><text fill="black" x="870" y="350">point</text><text fill="black" x="870" y="400">NN</text><text fill="black" x="950" y="350">in</text><text fill="black" x="950" y="400">IN</text><text fill="black" x="1030" y="350">the</text><text fill="black" x="1030" y="400">DT</text><text fill="black" x="1110" y="350">campaign</text><text fill="black" x="1110" y="400">NN</text><text fill="black" x="1190" y="350">.</text><text fill="black" x="1190" y="400">.</text><line stroke="red" x1="160" x2="150" y1="210" y2="330" /><line stroke="red" x1="250" x2="257" y1="210" y2="330" /><line stroke="red" x1="340" x2="257" y1="210" y2="330" /><line stroke="red" x1="400" x2="328" y1="210" y2="330" /><line stroke="red" x1="480" x2="817" y1="210" y2="330" /><line stroke="red" x1="560" x2="817" y1="210" y2="330" /><line stroke="red" x1="640" x2="817" y1="210" y2="330" /><line stroke="red" x1="740" x2="817" y1="210" y2="330" /><line stroke="red" x1="1000" x2="817" y1="210" y2="330" /><line stroke="red" x1="1050" x2="953" y1="210" y2="330" /><line stroke="red" x1="1160" x2="1146" y1="210" y2="330" /><line stroke="red" x1="1270" x2="1190" y1="210" y2="330" /></svg>