<?xml version="1.0" encoding="utf-8" ?>
<svg baseProfile="full" height="500" version="1.1" width="1500" xmlns="http://www.w3.org/2000/svg" xmlns:ev="http://www.w3.org/2001/xml-events" xmlns:xlink="http://www.w3.org/1999/xlink"><defs /><text fill="black" x="0" y="100">VIETNAMESE </text><text fill="black" x="20" y="150">POS: </text><text fill="black" x="20" y="200">Source: </text><text fill="black" x="150" y="150">Nq</text><text fill="black" x="150" y="200">Một</text><text fill="black" x="230" y="150">Nt</text><text fill="black" x="230" y="200">ngày</text><text fill="black" x="310" y="150">Cm</text><text fill="black" x="310" y="200">trong</text><text fill="black" x="390" y="150">Nn</text><text fill="black" x="390" y="200">lịch</text><text fill="black" x="470" y="150">Cm</text><text fill="black" x="470" y="200">của</text><text fill="black" x="550" y="150">Pp</text><text fill="black" x="550" y="200">chúng_ta</text><text fill="black" x="630" y="150">Vc</text><text fill="black" x="630" y="200">là</text><text fill="black" x="710" y="150">Nn</text><text fill="black" x="710" y="200">thời_gian</text><text fill="black" x="790" y="150">Nt</text><text fill="black" x="790" y="200">ban_ngày</text><text fill="black" x="870" y="150">Cp</text><text fill="black" x="870" y="200">và</text><text fill="black" x="950" y="150">Nn</text><text fill="black" x="950" y="200">thời_gian</text><text fill="black" x="1030" y="150">Nt</text><text fill="black" x="1030" y="200">ban_đêm</text><text fill="black" x="1110" y="150">Vv</text><text fill="black" x="1110" y="200">cộng</text><text fill="black" x="1190" y="150">R</text><text fill="black" x="1190" y="200">lại</text><text fill="black" x="1270" y="150">PU</text><text fill="black" x="1270" y="200">.</text><text fill="black" x="0" y="450">ENGLISH </text><text fill="black" x="20" y="350">Target: </text><text fill="black" x="20" y="400">POS: </text><text fill="black" x="150" y="350">A</text><text fill="black" x="150" y="400">DT</text><text fill="black" x="230" y="350">day</text><text fill="black" x="230" y="400">NN</text><text fill="black" x="310" y="350">on</text><text fill="black" x="310" y="400">IN</text><text fill="black" x="390" y="350">our</text><text fill="black" x="390" y="400">PRP$</text><text fill="black" x="470" y="350">calendar</text><text fill="black" x="470" y="400">NN</text><text fill="black" x="550" y="350">is</text><text fill="black" x="550" y="400">VBZ</text><text fill="black" x="630" y="350">daytime</text><text fill="black" x="630" y="400">JJ</text><text fill="black" x="710" y="350">and</text><text fill="black" x="710" y="400">CC</text><text fill="black" x="790" y="350">night</text><text fill="black" x="790" y="400">NN</text><text fill="black" x="870" y="350">time</text><text fill="black" x="870" y="400">NN</text><text fill="black" x="950" y="350">together</text><text fill="black" x="950" y="400">RB</text><text fill="black" x="1030" y="350">.</text><text fill="black" x="1030" y="400">.</text><line stroke="red" x1="160" x2="150" y1="210" y2="330" /><line stroke="red" x1="250" x2="239" y1="210" y2="330" /><line stroke="red" x1="410" x2="506" y1="210" y2="330" /><line stroke="red" x1="590" x2="399" y1="210" y2="330" /><line stroke="red" x1="640" x2="553" y1="210" y2="330" /><line stroke="red" x1="750" x2="657" y1="210" y2="330" /><line stroke="red" x1="830" x2="657" y1="210" y2="330" /><line stroke="red" x1="880" x2="719" y1="210" y2="330" /><line stroke="red" x1="990" x2="657" y1="210" y2="330" /><line stroke="red" x1="1060" x2="808" y1="210" y2="330" /><line stroke="red" x1="1130" x2="657" y1="210" y2="330" /><line stroke="red" x1="1200" x2="986" y1="210" y2="330" /><line stroke="red" x1="1270" x2="1030" y1="210" y2="330" /></svg>