<?xml version="1.0" encoding="utf-8" ?>
<svg baseProfile="full" height="500" version="1.1" width="1000" xmlns="http://www.w3.org/2000/svg" xmlns:ev="http://www.w3.org/2001/xml-events" xmlns:xlink="http://www.w3.org/1999/xlink"><defs /><text fill="black" x="0" y="100">VIETNAMESE </text><text fill="black" x="20" y="150">POS: </text><text fill="black" x="20" y="200">Source: </text><text fill="black" x="150" y="150">Nn</text><text fill="black" x="150" y="200">Văn_bằng</text><text fill="black" x="230" y="150">Vc</text><text fill="black" x="230" y="200">là</text><text fill="black" x="310" y="150">Vv</text><text fill="black" x="310" y="200">cần</text><text fill="black" x="390" y="150">Cp</text><text fill="black" x="390" y="200">trước_hết</text><text fill="black" x="470" y="150">Cp</text><text fill="black" x="470" y="200">cho</text><text fill="black" x="550" y="150">Nn</text><text fill="black" x="550" y="200">công_việc</text><text fill="black" x="630" y="150">Cm</text><text fill="black" x="630" y="200">ở</text><text fill="black" x="710" y="150">Nn</text><text fill="black" x="710" y="200">trình_độ</text><text fill="black" x="790" y="150">Pd</text><text fill="black" x="790" y="200">này</text><text fill="black" x="870" y="150">PU</text><text fill="black" x="870" y="200">.</text><text fill="black" x="0" y="450">ENGLISH </text><text fill="black" x="20" y="350">Target: </text><text fill="black" x="20" y="400">POS: </text><text fill="black" x="150" y="350">A</text><text fill="black" x="150" y="400">DT</text><text fill="black" x="230" y="350">degree</text><text fill="black" x="230" y="400">NN</text><text fill="black" x="310" y="350">is</text><text fill="black" x="310" y="400">VBZ</text><text fill="black" x="390" y="350">prerequisite</text><text fill="black" x="390" y="400">JJ</text><text fill="black" x="470" y="350">for</text><text fill="black" x="470" y="400">IN</text><text fill="black" x="550" y="350">employment</text><text fill="black" x="550" y="400">NN</text><text fill="black" x="630" y="350">at</text><text fill="black" x="630" y="400">IN</text><text fill="black" x="710" y="350">this</text><text fill="black" x="710" y="400">DT</text><text fill="black" x="790" y="350">level</text><text fill="black" x="790" y="400">NN</text><text fill="black" x="870" y="350">.</text><text fill="black" x="870" y="400">.</text><line stroke="red" x1="190" x2="257" y1="210" y2="330" /><line stroke="red" x1="240" x2="313" y1="210" y2="330" /><line stroke="red" x1="320" x2="444" y1="210" y2="330" /><line stroke="red" x1="430" x2="444" y1="210" y2="330" /><line stroke="red" x1="480" x2="479" y1="210" y2="330" /><line stroke="red" x1="590" x2="595" y1="210" y2="330" /><line stroke="red" x1="630" x2="633" y1="210" y2="330" /><line stroke="red" x1="750" x2="808" y1="210" y2="330" /><line stroke="red" x1="800" x2="728" y1="210" y2="330" /><line stroke="red" x1="870" x2="870" y1="210" y2="330" /></svg>