<?xml version="1.0" encoding="utf-8" ?>
<svg baseProfile="full" height="500" version="1.1" width="1700" xmlns="http://www.w3.org/2000/svg" xmlns:ev="http://www.w3.org/2001/xml-events" xmlns:xlink="http://www.w3.org/1999/xlink"><defs /><text fill="black" x="0" y="100">VIETNAMESE </text><text fill="black" x="20" y="150">POS: </text><text fill="black" x="20" y="200">Source: </text><text fill="black" x="150" y="150">Vv</text><text fill="black" x="150" y="200">Cần</text><text fill="black" x="230" y="150">Ve</text><text fill="black" x="230" y="200">có</text><text fill="black" x="310" y="150">Nq</text><text fill="black" x="310" y="200">một</text><text fill="black" x="390" y="150">Nn</text><text fill="black" x="390" y="200">cách</text><text fill="black" x="470" y="150">Vv</text><text fill="black" x="470" y="200">đạt</text><text fill="black" x="550" y="150">FW</text><text fill="black" x="550" y="200">thỏa</text><text fill="black" x="630" y="150">Aa</text><text fill="black" x="630" y="200">thuận</text><text fill="black" x="710" y="150">Aa</text><text fill="black" x="710" y="200">khéo_léo</text><text fill="black" x="790" y="150">Cp</text><text fill="black" x="790" y="200">và</text><text fill="black" x="870" y="150">Aa</text><text fill="black" x="870" y="200">tế_nhị</text><text fill="black" x="950" y="150">Cm</text><text fill="black" x="950" y="200">để</text><text fill="black" x="1030" y="150">FW</text><text fill="black" x="1030" y="200">thỏa</text><text fill="black" x="1110" y="150">Vv</text><text fill="black" x="1110" y="200">mãn</text><text fill="black" x="1190" y="150">Pp</text><text fill="black" x="1190" y="200">cả</text><text fill="black" x="1270" y="150">Nq</text><text fill="black" x="1270" y="200">đôi</text><text fill="black" x="1350" y="150">Nn</text><text fill="black" x="1350" y="200">bên</text><text fill="black" x="1430" y="150">PU</text><text fill="black" x="1430" y="200">.</text><text fill="black" x="0" y="450">ENGLISH </text><text fill="black" x="20" y="350">Target: </text><text fill="black" x="20" y="400">POS: </text><text fill="black" x="150" y="350">A</text><text fill="black" x="150" y="400">DT</text><text fill="black" x="230" y="350">delicate</text><text fill="black" x="230" y="400">JJ</text><text fill="black" x="310" y="350">balancing</text><text fill="black" x="310" y="400">NN</text><text fill="black" x="390" y="350">act</text><text fill="black" x="390" y="400">NN</text><text fill="black" x="470" y="350">is</text><text fill="black" x="470" y="400">VBZ</text><text fill="black" x="550" y="350">needed</text><text fill="black" x="550" y="400">VBN</text><text fill="black" x="630" y="350">in</text><text fill="black" x="630" y="400">IN</text><text fill="black" x="710" y="350">order</text><text fill="black" x="710" y="400">NN</text><text fill="black" x="790" y="350">to</text><text fill="black" x="790" y="400">TO</text><text fill="black" x="870" y="350">satisfy</text><text fill="black" x="870" y="400">VB</text><text fill="black" x="950" y="350">the</text><text fill="black" x="950" y="400">DT</text><text fill="black" x="1030" y="350">two</text><text fill="black" x="1030" y="400">CD</text><text fill="black" x="1110" y="350">sides</text><text fill="black" x="1110" y="400">NNS</text><text fill="black" x="1190" y="350">.</text><text fill="black" x="1190" y="400">.</text><line stroke="red" x1="160" x2="346" y1="210" y2="330" /><line stroke="red" x1="320" x2="266" y1="210" y2="330" /><line stroke="red" x1="410" x2="346" y1="210" y2="330" /><line stroke="red" x1="480" x2="346" y1="210" y2="330" /><line stroke="red" x1="570" x2="346" y1="210" y2="330" /><line stroke="red" x1="650" x2="346" y1="210" y2="330" /><line stroke="red" x1="750" x2="266" y1="210" y2="330" /><line stroke="red" x1="800" x2="266" y1="210" y2="330" /><line stroke="red" x1="900" x2="266" y1="210" y2="330" /><line stroke="red" x1="960" x2="793" y1="210" y2="330" /><line stroke="red" x1="1050" x2="897" y1="210" y2="330" /><line stroke="red" x1="1120" x2="897" y1="210" y2="330" /><line stroke="red" x1="1200" x2="1128" y1="210" y2="330" /><line stroke="red" x1="1280" x2="1128" y1="210" y2="330" /><line stroke="red" x1="1360" x2="1128" y1="210" y2="330" /><line stroke="red" x1="1430" x2="1190" y1="210" y2="330" /></svg>