<?xml version="1.0" encoding="utf-8" ?>
<svg baseProfile="full" height="500" version="1.1" width="1200" xmlns="http://www.w3.org/2000/svg" xmlns:ev="http://www.w3.org/2001/xml-events" xmlns:xlink="http://www.w3.org/1999/xlink"><defs /><text fill="black" x="0" y="100">VIETNAMESE </text><text fill="black" x="20" y="150">POS: </text><text fill="black" x="20" y="200">Source: </text><text fill="black" x="150" y="150">Nn</text><text fill="black" x="150" y="200">Hệ_thống</text><text fill="black" x="230" y="150">Nn</text><text fill="black" x="230" y="200">vũ_khí</text><text fill="black" x="310" y="150">Vv</text><text fill="black" x="310" y="200">phòng_thủ</text><text fill="black" x="390" y="150">Cm</text><text fill="black" x="390" y="200">để</text><text fill="black" x="470" y="150">Vv</text><text fill="black" x="470" y="200">phá</text><text fill="black" x="550" y="150">FW</text><text fill="black" x="550" y="200">hủy</text><text fill="black" x="630" y="150">Nq</text><text fill="black" x="630" y="200">các</text><text fill="black" x="710" y="150">Nn</text><text fill="black" x="710" y="200">tên_lửa</text><text fill="black" x="790" y="150">Vd</text><text fill="black" x="790" y="200">tới</text><text fill="black" x="870" y="150">Aa</text><text fill="black" x="870" y="200">gần</text><text fill="black" x="950" y="150">Nn</text><text fill="black" x="950" y="200">đất_nước</text><text fill="black" x="1030" y="150">PU</text><text fill="black" x="1030" y="200">.</text><text fill="black" x="0" y="450">ENGLISH </text><text fill="black" x="20" y="350">Target: </text><text fill="black" x="20" y="400">POS: </text><text fill="black" x="150" y="350">A</text><text fill="black" x="150" y="400">DT</text><text fill="black" x="230" y="350">defensive</text><text fill="black" x="230" y="400">JJ</text><text fill="black" x="310" y="350">weapon</text><text fill="black" x="310" y="400">NN</text><text fill="black" x="390" y="350">system</text><text fill="black" x="390" y="400">NN</text><text fill="black" x="470" y="350">to</text><text fill="black" x="470" y="400">TO</text><text fill="black" x="550" y="350">destroy</text><text fill="black" x="550" y="400">VB</text><text fill="black" x="630" y="350">missiles</text><text fill="black" x="630" y="400">NNS</text><text fill="black" x="710" y="350">approaching</text><text fill="black" x="710" y="400">VBG</text><text fill="black" x="790" y="350">the</text><text fill="black" x="790" y="400">DT</text><text fill="black" x="870" y="350">country</text><text fill="black" x="870" y="400">NN</text><text fill="black" x="950" y="350">.</text><text fill="black" x="950" y="400">.</text><line stroke="red" x1="190" x2="417" y1="210" y2="330" /><line stroke="red" x1="260" x2="337" y1="210" y2="330" /><line stroke="red" x1="350" x2="266" y1="210" y2="330" /><line stroke="red" x1="400" x2="473" y1="210" y2="330" /><line stroke="red" x1="480" x2="577" y1="210" y2="330" /><line stroke="red" x1="560" x2="577" y1="210" y2="330" /><line stroke="red" x1="640" x2="666" y1="210" y2="330" /><line stroke="red" x1="740" x2="666" y1="210" y2="330" /><line stroke="red" x1="800" x2="755" y1="210" y2="330" /><line stroke="red" x1="880" x2="755" y1="210" y2="330" /><line stroke="red" x1="990" x2="897" y1="210" y2="330" /><line stroke="red" x1="1030" x2="950" y1="210" y2="330" /></svg>