<?xml version="1.0" encoding="utf-8" ?>
<svg baseProfile="full" height="500" version="1.1" width="1300" xmlns="http://www.w3.org/2000/svg" xmlns:ev="http://www.w3.org/2001/xml-events" xmlns:xlink="http://www.w3.org/1999/xlink"><defs /><text fill="black" x="0" y="100">VIETNAMESE </text><text fill="black" x="20" y="150">POS: </text><text fill="black" x="20" y="200">Source: </text><text fill="black" x="150" y="150">Nq</text><text fill="black" x="150" y="200">Một</text><text fill="black" x="230" y="150">Nc</text><text fill="black" x="230" y="200">cuộc</text><text fill="black" x="310" y="150">Vv</text><text fill="black" x="310" y="200">biểu_tình</text><text fill="black" x="390" y="150">R</text><text fill="black" x="390" y="200">đã</text><text fill="black" x="470" y="150">Vv</text><text fill="black" x="470" y="200">được</text><text fill="black" x="550" y="150">Vv</text><text fill="black" x="550" y="200">tổ_chức</text><text fill="black" x="630" y="150">Cm</text><text fill="black" x="630" y="200">để</text><text fill="black" x="710" y="150">Vv</text><text fill="black" x="710" y="200">phản_đối</text><text fill="black" x="790" y="150">Nc</text><text fill="black" x="790" y="200">sự</text><text fill="black" x="870" y="150">Vv</text><text fill="black" x="870" y="200">ngược_đãi</text><text fill="black" x="950" y="150">Cp</text><text fill="black" x="950" y="200">đối_với</text><text fill="black" x="1030" y="150">Nn</text><text fill="black" x="1030" y="200">tù_nhân</text><text fill="black" x="1110" y="150">PU</text><text fill="black" x="1110" y="200">.</text><text fill="black" x="0" y="450">ENGLISH </text><text fill="black" x="20" y="350">Target: </text><text fill="black" x="20" y="400">POS: </text><text fill="black" x="150" y="350">A</text><text fill="black" x="150" y="400">DT</text><text fill="black" x="230" y="350">demonstration</text><text fill="black" x="230" y="400">NN</text><text fill="black" x="310" y="350">was</text><text fill="black" x="310" y="400">VBD</text><text fill="black" x="390" y="350">planned</text><text fill="black" x="390" y="400">VBN</text><text fill="black" x="470" y="350">to</text><text fill="black" x="470" y="400">TO</text><text fill="black" x="550" y="350">protest</text><text fill="black" x="550" y="400">VB</text><text fill="black" x="630" y="350">the</text><text fill="black" x="630" y="400">DT</text><text fill="black" x="710" y="350">mistreatment</text><text fill="black" x="710" y="400">NN</text><text fill="black" x="790" y="350">of</text><text fill="black" x="790" y="400">IN</text><text fill="black" x="870" y="350">prisoners</text><text fill="black" x="870" y="400">NNS</text><text fill="black" x="950" y="350">.</text><text fill="black" x="950" y="400">.</text><line stroke="red" x1="160" x2="150" y1="210" y2="330" /><line stroke="red" x1="250" x2="284" y1="210" y2="330" /><line stroke="red" x1="350" x2="284" y1="210" y2="330" /><line stroke="red" x1="400" x2="417" y1="210" y2="330" /><line stroke="red" x1="490" x2="417" y1="210" y2="330" /><line stroke="red" x1="580" x2="764" y1="210" y2="330" /><line stroke="red" x1="640" x2="764" y1="210" y2="330" /><line stroke="red" x1="750" x2="764" y1="210" y2="330" /><line stroke="red" x1="800" x2="764" y1="210" y2="330" /><line stroke="red" x1="910" x2="764" y1="210" y2="330" /><line stroke="red" x1="980" x2="764" y1="210" y2="330" /><line stroke="red" x1="1060" x2="906" y1="210" y2="330" /><line stroke="red" x1="1110" x2="950" y1="210" y2="330" /></svg>