<?xml version="1.0" encoding="utf-8" ?>
<svg baseProfile="full" height="500" version="1.1" width="1100" xmlns="http://www.w3.org/2000/svg" xmlns:ev="http://www.w3.org/2001/xml-events" xmlns:xlink="http://www.w3.org/1999/xlink"><defs /><text fill="black" x="0" y="100">VIETNAMESE </text><text fill="black" x="20" y="150">POS: </text><text fill="black" x="20" y="200">Source: </text><text fill="black" x="150" y="150">Nq</text><text fill="black" x="150" y="200">Một</text><text fill="black" x="230" y="150">Nn</text><text fill="black" x="230" y="200">nhân_tố</text><text fill="black" x="310" y="150">Aa</text><text fill="black" x="310" y="200">quyết_định</text><text fill="black" x="390" y="150">Cm</text><text fill="black" x="390" y="200">trong</text><text fill="black" x="470" y="150">Nc</text><text fill="black" x="470" y="200">sự</text><text fill="black" x="550" y="150">Vv</text><text fill="black" x="550" y="200">phát_triển</text><text fill="black" x="630" y="150">Nn</text><text fill="black" x="630" y="200">tâm_lý</text><text fill="black" x="710" y="150">Cm</text><text fill="black" x="710" y="200">của</text><text fill="black" x="790" y="150">Nn</text><text fill="black" x="790" y="200">anh</text><text fill="black" x="870" y="150">Pp</text><text fill="black" x="870" y="200">ta</text><text fill="black" x="950" y="150">PU</text><text fill="black" x="950" y="200">.</text><text fill="black" x="0" y="450">ENGLISH </text><text fill="black" x="20" y="350">Target: </text><text fill="black" x="20" y="400">POS: </text><text fill="black" x="150" y="350">A</text><text fill="black" x="150" y="400">DT</text><text fill="black" x="230" y="350">determinative</text><text fill="black" x="230" y="400">JJ</text><text fill="black" x="310" y="350">factor</text><text fill="black" x="310" y="400">NN</text><text fill="black" x="390" y="350">in</text><text fill="black" x="390" y="400">IN</text><text fill="black" x="470" y="350">his</text><text fill="black" x="470" y="400">PRP$</text><text fill="black" x="550" y="350">psychological</text><text fill="black" x="550" y="400">JJ</text><text fill="black" x="630" y="350">development</text><text fill="black" x="630" y="400">NN</text><text fill="black" x="710" y="350">.</text><text fill="black" x="710" y="400">.</text><line stroke="red" x1="160" x2="150" y1="210" y2="330" /><line stroke="red" x1="260" x2="284" y1="210" y2="330" /><line stroke="red" x1="360" x2="284" y1="210" y2="330" /><line stroke="red" x1="410" x2="393" y1="210" y2="330" /><line stroke="red" x1="480" x2="675" y1="210" y2="330" /><line stroke="red" x1="600" x2="675" y1="210" y2="330" /><line stroke="red" x1="660" x2="604" y1="210" y2="330" /><line stroke="red" x1="800" x2="479" y1="210" y2="330" /><line stroke="red" x1="880" x2="479" y1="210" y2="330" /><line stroke="red" x1="950" x2="710" y1="210" y2="330" /></svg>