<?xml version="1.0" encoding="utf-8" ?>
<svg baseProfile="full" height="500" version="1.1" width="1300" xmlns="http://www.w3.org/2000/svg" xmlns:ev="http://www.w3.org/2001/xml-events" xmlns:xlink="http://www.w3.org/1999/xlink"><defs /><text fill="black" x="0" y="100">VIETNAMESE </text><text fill="black" x="20" y="150">POS: </text><text fill="black" x="20" y="200">Source: </text><text fill="black" x="150" y="150">Nn</text><text fill="black" x="150" y="200">Việc</text><text fill="black" x="230" y="150">Vv</text><text fill="black" x="230" y="200">chẩn_đoán</text><text fill="black" x="310" y="150">Nn</text><text fill="black" x="310" y="200">bệnh</text><text fill="black" x="390" y="150">Nn</text><text fill="black" x="390" y="200">ung_thư</text><text fill="black" x="470" y="150">R</text><text fill="black" x="470" y="200">đã</text><text fill="black" x="550" y="150">Vv</text><text fill="black" x="550" y="200">trở_nên</text><text fill="black" x="630" y="150">Aa</text><text fill="black" x="630" y="200">trầm_trọng</text><text fill="black" x="710" y="150">Vv</text><text fill="black" x="710" y="200">cho_thấy</text><text fill="black" x="790" y="150">Vv</text><text fill="black" x="790" y="200">cần</text><text fill="black" x="870" y="150">Vv</text><text fill="black" x="870" y="200">phải</text><text fill="black" x="950" y="150">Vv</text><text fill="black" x="950" y="200">giải_phẫu</text><text fill="black" x="1030" y="150">Aa</text><text fill="black" x="1030" y="200">gấp</text><text fill="black" x="1110" y="150">PU</text><text fill="black" x="1110" y="200">.</text><text fill="black" x="0" y="450">ENGLISH </text><text fill="black" x="20" y="350">Target: </text><text fill="black" x="20" y="400">POS: </text><text fill="black" x="150" y="350">A</text><text fill="black" x="150" y="400">DT</text><text fill="black" x="230" y="350">diagnosis</text><text fill="black" x="230" y="400">NN</text><text fill="black" x="310" y="350">of</text><text fill="black" x="310" y="400">IN</text><text fill="black" x="390" y="350">advanced</text><text fill="black" x="390" y="400">JJ</text><text fill="black" x="470" y="350">cancer</text><text fill="black" x="470" y="400">NN</text><text fill="black" x="550" y="350">indicating</text><text fill="black" x="550" y="400">VBG</text><text fill="black" x="630" y="350">an</text><text fill="black" x="630" y="400">DT</text><text fill="black" x="710" y="350">emergency</text><text fill="black" x="710" y="400">NN</text><text fill="black" x="790" y="350">operation</text><text fill="black" x="790" y="400">NN</text><text fill="black" x="870" y="350">.</text><text fill="black" x="870" y="400">.</text><line stroke="red" x1="170" x2="266" y1="210" y2="330" /><line stroke="red" x1="270" x2="266" y1="210" y2="330" /><line stroke="red" x1="330" x2="266" y1="210" y2="330" /><line stroke="red" x1="420" x2="497" y1="210" y2="330" /><line stroke="red" x1="580" x2="266" y1="210" y2="330" /><line stroke="red" x1="680" x2="266" y1="210" y2="330" /><line stroke="red" x1="750" x2="266" y1="210" y2="330" /><line stroke="red" x1="800" x2="266" y1="210" y2="330" /><line stroke="red" x1="990" x2="826" y1="210" y2="330" /><line stroke="red" x1="1040" x2="746" y1="210" y2="330" /><line stroke="red" x1="1110" x2="870" y1="210" y2="330" /></svg>