<?xml version="1.0" encoding="utf-8" ?>
<svg baseProfile="full" height="500" version="1.1" width="1500" xmlns="http://www.w3.org/2000/svg" xmlns:ev="http://www.w3.org/2001/xml-events" xmlns:xlink="http://www.w3.org/1999/xlink"><defs /><text fill="black" x="0" y="100">VIETNAMESE </text><text fill="black" x="20" y="150">POS: </text><text fill="black" x="20" y="200">Source: </text><text fill="black" x="150" y="150">Vv</text><text fill="black" x="150" y="200">Bán</text><text fill="black" x="230" y="150">Nq</text><text fill="black" x="230" y="200">một</text><text fill="black" x="310" y="150">Nc</text><text fill="black" x="310" y="200">căn</text><text fill="black" x="390" y="150">Nn</text><text fill="black" x="390" y="200">nhà</text><text fill="black" x="470" y="150">Aa</text><text fill="black" x="470" y="200">hấp_dẫn</text><text fill="black" x="550" y="150">Cm</text><text fill="black" x="550" y="200">ở</text><text fill="black" x="630" y="150">Nn</text><text fill="black" x="630" y="200">vùng</text><text fill="black" x="710" y="150">Nn</text><text fill="black" x="710" y="200">quê</text><text fill="black" x="790" y="150">PU</text><text fill="black" x="790" y="200">,</text><text fill="black" x="870" y="150">Cp</text><text fill="black" x="870" y="200">cho</text><text fill="black" x="950" y="150">Nn</text><text fill="black" x="950" y="200">gia_đình</text><text fill="black" x="1030" y="150">PU</text><text fill="black" x="1030" y="200">,</text><text fill="black" x="1110" y="150">Nn</text><text fill="black" x="1110" y="200">kiểu</text><text fill="black" x="1190" y="150">Nr</text><text fill="black" x="1190" y="200">Georgian</text><text fill="black" x="1270" y="150">PU</text><text fill="black" x="1270" y="200">.</text><text fill="black" x="0" y="450">ENGLISH </text><text fill="black" x="20" y="350">Target: </text><text fill="black" x="20" y="400">POS: </text><text fill="black" x="150" y="350">A</text><text fill="black" x="150" y="400">DT</text><text fill="black" x="230" y="350">desirable</text><text fill="black" x="230" y="400">JJ</text><text fill="black" x="310" y="350">country</text><text fill="black" x="310" y="400">NN</text><text fill="black" x="390" y="350">,</text><text fill="black" x="390" y="400">,</text><text fill="black" x="470" y="350">family</text><text fill="black" x="470" y="400">NN</text><text fill="black" x="550" y="350">,</text><text fill="black" x="550" y="400">,</text><text fill="black" x="630" y="350">Georgian</text><text fill="black" x="630" y="400">JJ</text><text fill="black" x="710" y="350">,</text><text fill="black" x="710" y="400">,</text><text fill="black" x="790" y="350">etc</text><text fill="black" x="790" y="400">NN</text><text fill="black" x="870" y="350">residence</text><text fill="black" x="870" y="400">NN</text><text fill="black" x="950" y="350">for</text><text fill="black" x="950" y="400">IN</text><text fill="black" x="1030" y="350">sale</text><text fill="black" x="1030" y="400">NN</text><text fill="black" x="1110" y="350">.</text><text fill="black" x="1110" y="400">.</text><line stroke="red" x1="160" x2="266" y1="210" y2="330" /><line stroke="red" x1="240" x2="266" y1="210" y2="330" /><line stroke="red" x1="320" x2="266" y1="210" y2="330" /><line stroke="red" x1="400" x2="666" y1="210" y2="330" /><line stroke="red" x1="500" x2="666" y1="210" y2="330" /><line stroke="red" x1="550" x2="666" y1="210" y2="330" /><line stroke="red" x1="650" x2="666" y1="210" y2="330" /><line stroke="red" x1="720" x2="666" y1="210" y2="330" /><line stroke="red" x1="790" x2="710" y1="210" y2="330" /><line stroke="red" x1="880" x2="959" y1="210" y2="330" /><line stroke="red" x1="990" x2="497" y1="210" y2="330" /><line stroke="red" x1="1030" x2="550" y1="210" y2="330" /><line stroke="red" x1="1130" x2="666" y1="210" y2="330" /><line stroke="red" x1="1230" x2="666" y1="210" y2="330" /><line stroke="red" x1="1270" x2="1110" y1="210" y2="330" /></svg>