<?xml version="1.0" encoding="utf-8" ?>
<svg baseProfile="full" height="500" version="1.1" width="1500" xmlns="http://www.w3.org/2000/svg" xmlns:ev="http://www.w3.org/2001/xml-events" xmlns:xlink="http://www.w3.org/1999/xlink"><defs /><text fill="black" x="0" y="100">VIETNAMESE </text><text fill="black" x="20" y="150">POS: </text><text fill="black" x="20" y="200">Source: </text><text fill="black" x="150" y="150">Nq</text><text fill="black" x="150" y="200">Một</text><text fill="black" x="230" y="150">Nn</text><text fill="black" x="230" y="200">mẫu</text><text fill="black" x="310" y="150">Vv</text><text fill="black" x="310" y="200">vẽ</text><text fill="black" x="390" y="150">Aa</text><text fill="black" x="390" y="200">có_thể</text><text fill="black" x="470" y="150">Vv</text><text fill="black" x="470" y="200">được</text><text fill="black" x="550" y="150">Vv</text><text fill="black" x="550" y="200">trang_trí</text><text fill="black" x="630" y="150">Cm</text><text fill="black" x="630" y="200">lên</text><text fill="black" x="710" y="150">Cm</text><text fill="black" x="710" y="200">trên</text><text fill="black" x="790" y="150">Nn</text><text fill="black" x="790" y="200">đất_sét</text><text fill="black" x="870" y="150">Aa</text><text fill="black" x="870" y="200">mềm</text><text fill="black" x="950" y="150">Nn</text><text fill="black" x="950" y="200">trước</text><text fill="black" x="1030" y="150">Nn</text><text fill="black" x="1030" y="200">lần</text><text fill="black" x="1110" y="150">Vv</text><text fill="black" x="1110" y="200">nung</text><text fill="black" x="1190" y="150">An</text><text fill="black" x="1190" y="200">đầu_tiên</text><text fill="black" x="1270" y="150">PU</text><text fill="black" x="1270" y="200">.</text><text fill="black" x="0" y="450">ENGLISH </text><text fill="black" x="20" y="350">Target: </text><text fill="black" x="20" y="400">POS: </text><text fill="black" x="150" y="350">A</text><text fill="black" x="150" y="400">DT</text><text fill="black" x="230" y="350">design</text><text fill="black" x="230" y="400">NN</text><text fill="black" x="310" y="350">may</text><text fill="black" x="310" y="400">MD</text><text fill="black" x="390" y="350">be</text><text fill="black" x="390" y="400">VB</text><text fill="black" x="470" y="350">pressed</text><text fill="black" x="470" y="400">VBN</text><text fill="black" x="550" y="350">into</text><text fill="black" x="550" y="400">IN</text><text fill="black" x="630" y="350">the</text><text fill="black" x="630" y="400">DT</text><text fill="black" x="710" y="350">soft</text><text fill="black" x="710" y="400">JJ</text><text fill="black" x="790" y="350">clay</text><text fill="black" x="790" y="400">NN</text><text fill="black" x="870" y="350">before</text><text fill="black" x="870" y="400">IN</text><text fill="black" x="950" y="350">the</text><text fill="black" x="950" y="400">DT</text><text fill="black" x="1030" y="350">first</text><text fill="black" x="1030" y="400">JJ</text><text fill="black" x="1110" y="350">firing</text><text fill="black" x="1110" y="400">NN</text><text fill="black" x="1190" y="350">.</text><text fill="black" x="1190" y="400">.</text><line stroke="red" x1="160" x2="150" y1="210" y2="330" /><line stroke="red" x1="240" x2="257" y1="210" y2="330" /><line stroke="red" x1="320" x2="257" y1="210" y2="330" /><line stroke="red" x1="420" x2="319" y1="210" y2="330" /><line stroke="red" x1="490" x2="393" y1="210" y2="330" /><line stroke="red" x1="590" x2="497" y1="210" y2="330" /><line stroke="red" x1="640" x2="497" y1="210" y2="330" /><line stroke="red" x1="730" x2="808" y1="210" y2="330" /><line stroke="red" x1="820" x2="808" y1="210" y2="330" /><line stroke="red" x1="880" x2="728" y1="210" y2="330" /><line stroke="red" x1="970" x2="897" y1="210" y2="330" /><line stroke="red" x1="1040" x2="1137" y1="210" y2="330" /><line stroke="red" x1="1130" x2="1137" y1="210" y2="330" /><line stroke="red" x1="1230" x2="1048" y1="210" y2="330" /><line stroke="red" x1="1270" x2="1190" y1="210" y2="330" /></svg>