<?xml version="1.0" encoding="utf-8" ?>
<svg baseProfile="full" height="500" version="1.1" width="1100" xmlns="http://www.w3.org/2000/svg" xmlns:ev="http://www.w3.org/2001/xml-events" xmlns:xlink="http://www.w3.org/1999/xlink"><defs /><text fill="black" x="0" y="100">VIETNAMESE </text><text fill="black" x="20" y="150">POS: </text><text fill="black" x="20" y="200">Source: </text><text fill="black" x="150" y="150">Nn</text><text fill="black" x="150" y="200">Từ_điển</text><text fill="black" x="230" y="150">Vv</text><text fill="black" x="230" y="200">giúp</text><text fill="black" x="310" y="150">Pp</text><text fill="black" x="310" y="200">ta</text><text fill="black" x="390" y="150">Vv</text><text fill="black" x="390" y="200">phân_biệt</text><text fill="black" x="470" y="150">R</text><text fill="black" x="470" y="200">được</text><text fill="black" x="550" y="150">Nn</text><text fill="black" x="550" y="200">cách</text><text fill="black" x="630" y="150">Vv</text><text fill="black" x="630" y="200">dùng</text><text fill="black" x="710" y="150">Aa</text><text fill="black" x="710" y="200">đúng</text><text fill="black" x="790" y="150">Cp</text><text fill="black" x="790" y="200">và</text><text fill="black" x="870" y="150">Aa</text><text fill="black" x="870" y="200">sai</text><text fill="black" x="950" y="150">PU</text><text fill="black" x="950" y="200">.</text><text fill="black" x="0" y="450">ENGLISH </text><text fill="black" x="20" y="350">Target: </text><text fill="black" x="20" y="400">POS: </text><text fill="black" x="150" y="350">A</text><text fill="black" x="150" y="400">DT</text><text fill="black" x="230" y="350">dictionary</text><text fill="black" x="230" y="400">NN</text><text fill="black" x="310" y="350">help</text><text fill="black" x="310" y="400">NN</text><text fill="black" x="390" y="350">one</text><text fill="black" x="390" y="400">CD</text><text fill="black" x="470" y="350">to</text><text fill="black" x="470" y="400">TO</text><text fill="black" x="550" y="350">distinguish</text><text fill="black" x="550" y="400">VB</text><text fill="black" x="630" y="350">correct</text><text fill="black" x="630" y="400">JJ</text><text fill="black" x="710" y="350">and</text><text fill="black" x="710" y="400">CC</text><text fill="black" x="790" y="350">incorrect</text><text fill="black" x="790" y="400">JJ</text><text fill="black" x="870" y="350">usage</text><text fill="black" x="870" y="400">NN</text><text fill="black" x="950" y="350">.</text><text fill="black" x="950" y="400">.</text><line stroke="red" x1="180" x2="275" y1="210" y2="330" /><line stroke="red" x1="250" x2="328" y1="210" y2="330" /><line stroke="red" x1="430" x2="595" y1="210" y2="330" /><line stroke="red" x1="570" x2="888" y1="210" y2="330" /><line stroke="red" x1="650" x2="888" y1="210" y2="330" /><line stroke="red" x1="730" x2="657" y1="210" y2="330" /><line stroke="red" x1="800" x2="719" y1="210" y2="330" /><line stroke="red" x1="880" x2="826" y1="210" y2="330" /><line stroke="red" x1="950" x2="950" y1="210" y2="330" /></svg>