<?xml version="1.0" encoding="utf-8" ?>
<svg baseProfile="full" height="500" version="1.1" width="1400" xmlns="http://www.w3.org/2000/svg" xmlns:ev="http://www.w3.org/2001/xml-events" xmlns:xlink="http://www.w3.org/1999/xlink"><defs /><text fill="black" x="0" y="100">VIETNAMESE </text><text fill="black" x="20" y="150">POS: </text><text fill="black" x="20" y="200">Source: </text><text fill="black" x="150" y="150">Nq</text><text fill="black" x="150" y="200">Một</text><text fill="black" x="230" y="150">Nc</text><text fill="black" x="230" y="200">cuốn</text><text fill="black" x="310" y="150">Nn</text><text fill="black" x="310" y="200">từ_điển</text><text fill="black" x="390" y="150">Vv</text><text fill="black" x="390" y="200">được</text><text fill="black" x="470" y="150">Vv</text><text fill="black" x="470" y="200">soạn</text><text fill="black" x="550" y="150">Aa</text><text fill="black" x="550" y="200">riêng</text><text fill="black" x="630" y="150">Cp</text><text fill="black" x="630" y="200">cho</text><text fill="black" x="710" y="150">Nq</text><text fill="black" x="710" y="200">các</text><text fill="black" x="790" y="150">Nn</text><text fill="black" x="790" y="200">sinh_viên</text><text fill="black" x="870" y="150">Nr</text><text fill="black" x="870" y="200">Việt_Nam</text><text fill="black" x="950" y="150">Vv</text><text fill="black" x="950" y="200">học</text><text fill="black" x="1030" y="150">Nn</text><text fill="black" x="1030" y="200">tiếng</text><text fill="black" x="1110" y="150">Nr</text><text fill="black" x="1110" y="200">Anh</text><text fill="black" x="1190" y="150">PU</text><text fill="black" x="1190" y="200">.</text><text fill="black" x="0" y="450">ENGLISH </text><text fill="black" x="20" y="350">Target: </text><text fill="black" x="20" y="400">POS: </text><text fill="black" x="150" y="350">A</text><text fill="black" x="150" y="400">DT</text><text fill="black" x="230" y="350">dictionary</text><text fill="black" x="230" y="400">NN</text><text fill="black" x="310" y="350">expressly</text><text fill="black" x="310" y="400">RB</text><text fill="black" x="390" y="350">compiled</text><text fill="black" x="390" y="400">VBN</text><text fill="black" x="470" y="350">for</text><text fill="black" x="470" y="400">IN</text><text fill="black" x="550" y="350">Vietnamese</text><text fill="black" x="550" y="400">JJ</text><text fill="black" x="630" y="350">students</text><text fill="black" x="630" y="400">NNS</text><text fill="black" x="710" y="350">of</text><text fill="black" x="710" y="400">IN</text><text fill="black" x="790" y="350">English</text><text fill="black" x="790" y="400">NNP</text><text fill="black" x="870" y="350">.</text><text fill="black" x="870" y="400">.</text><line stroke="red" x1="160" x2="150" y1="210" y2="330" /><line stroke="red" x1="250" x2="275" y1="210" y2="330" /><line stroke="red" x1="340" x2="275" y1="210" y2="330" /><line stroke="red" x1="490" x2="426" y1="210" y2="330" /><line stroke="red" x1="570" x2="426" y1="210" y2="330" /><line stroke="red" x1="640" x2="479" y1="210" y2="330" /><line stroke="red" x1="720" x2="666" y1="210" y2="330" /><line stroke="red" x1="830" x2="666" y1="210" y2="330" /><line stroke="red" x1="910" x2="595" y1="210" y2="330" /><line stroke="red" x1="960" x2="595" y1="210" y2="330" /><line stroke="red" x1="1050" x2="817" y1="210" y2="330" /><line stroke="red" x1="1120" x2="817" y1="210" y2="330" /><line stroke="red" x1="1190" x2="870" y1="210" y2="330" /></svg>