<?xml version="1.0" encoding="utf-8" ?>
<svg baseProfile="full" height="500" version="1.1" width="2100" xmlns="http://www.w3.org/2000/svg" xmlns:ev="http://www.w3.org/2001/xml-events" xmlns:xlink="http://www.w3.org/1999/xlink"><defs /><text fill="black" x="0" y="100">VIETNAMESE </text><text fill="black" x="20" y="150">POS: </text><text fill="black" x="20" y="200">Source: </text><text fill="black" x="150" y="150">Nq</text><text fill="black" x="150" y="200">Một</text><text fill="black" x="230" y="150">Nn</text><text fill="black" x="230" y="200">kẻ</text><text fill="black" x="310" y="150">Aa</text><text fill="black" x="310" y="200">độc_tài</text><text fill="black" x="390" y="150">Aa</text><text fill="black" x="390" y="200">hùng_hổ</text><text fill="black" x="470" y="150">Vv</text><text fill="black" x="470" y="200">tuôn</text><text fill="black" x="550" y="150">R</text><text fill="black" x="550" y="200">ra</text><text fill="black" x="630" y="150">Nq</text><text fill="black" x="630" y="200">những</text><text fill="black" x="710" y="150">Nn</text><text fill="black" x="710" y="200">lời</text><text fill="black" x="790" y="150">Vv</text><text fill="black" x="790" y="200">sỉ_nhục</text><text fill="black" x="870" y="150">Cm</text><text fill="black" x="870" y="200">của</text><text fill="black" x="950" y="150">Pp</text><text fill="black" x="950" y="200">hắn</text><text fill="black" x="1030" y="150">Pp</text><text fill="black" x="1030" y="200">ta</text><text fill="black" x="1110" y="150">Cm</text><text fill="black" x="1110" y="200">trên</text><text fill="black" x="1190" y="150">Nn</text><text fill="black" x="1190" y="200">đầu</text><text fill="black" x="1270" y="150">Aa</text><text fill="black" x="1270" y="200">cổ</text><text fill="black" x="1350" y="150">Nn</text><text fill="black" x="1350" y="200">đám</text><text fill="black" x="1430" y="150">Nn</text><text fill="black" x="1430" y="200">người</text><text fill="black" x="1510" y="150">Vv</text><text fill="black" x="1510" y="200">chịu_trận</text><text fill="black" x="1590" y="150">Vv</text><text fill="black" x="1590" y="200">ngồi</text><text fill="black" x="1670" y="150">Vv</text><text fill="black" x="1670" y="200">nghe</text><text fill="black" x="1750" y="150">PU</text><text fill="black" x="1750" y="200">.</text><text fill="black" x="0" y="450">ENGLISH </text><text fill="black" x="20" y="350">Target: </text><text fill="black" x="20" y="400">POS: </text><text fill="black" x="150" y="350">A</text><text fill="black" x="150" y="400">DT</text><text fill="black" x="230" y="350">dictator</text><text fill="black" x="230" y="400">NN</text><text fill="black" x="310" y="350">who</text><text fill="black" x="310" y="400">WP</text><text fill="black" x="390" y="350">ranted</text><text fill="black" x="390" y="400">VBD</text><text fill="black" x="470" y="350">his</text><text fill="black" x="470" y="400">PRP$</text><text fill="black" x="550" y="350">vitriol</text><text fill="black" x="550" y="400">NN</text><text fill="black" x="630" y="350">onto</text><text fill="black" x="630" y="400">IN</text><text fill="black" x="710" y="350">a</text><text fill="black" x="710" y="400">DT</text><text fill="black" x="790" y="350">captive</text><text fill="black" x="790" y="400">JJ</text><text fill="black" x="870" y="350">audience</text><text fill="black" x="870" y="400">NN</text><text fill="black" x="950" y="350">.</text><text fill="black" x="950" y="400">.</text><line stroke="red" x1="160" x2="150" y1="210" y2="330" /><line stroke="red" x1="240" x2="266" y1="210" y2="330" /><line stroke="red" x1="340" x2="266" y1="210" y2="330" /><line stroke="red" x1="420" x2="417" y1="210" y2="330" /><line stroke="red" x1="490" x2="417" y1="210" y2="330" /><line stroke="red" x1="560" x2="417" y1="210" y2="330" /><line stroke="red" x1="650" x2="577" y1="210" y2="330" /><line stroke="red" x1="720" x2="577" y1="210" y2="330" /><line stroke="red" x1="820" x2="577" y1="210" y2="330" /><line stroke="red" x1="960" x2="577" y1="210" y2="330" /><line stroke="red" x1="1040" x2="577" y1="210" y2="330" /><line stroke="red" x1="1130" x2="648" y1="210" y2="330" /><line stroke="red" x1="1200" x2="817" y1="210" y2="330" /><line stroke="red" x1="1280" x2="817" y1="210" y2="330" /><line stroke="red" x1="1360" x2="817" y1="210" y2="330" /><line stroke="red" x1="1450" x2="817" y1="210" y2="330" /><line stroke="red" x1="1550" x2="817" y1="210" y2="330" /><line stroke="red" x1="1610" x2="817" y1="210" y2="330" /><line stroke="red" x1="1690" x2="817" y1="210" y2="330" /><line stroke="red" x1="1750" x2="950" y1="210" y2="330" /></svg>