<?xml version="1.0" encoding="utf-8" ?>
<svg baseProfile="full" height="500" version="1.1" width="1200" xmlns="http://www.w3.org/2000/svg" xmlns:ev="http://www.w3.org/2001/xml-events" xmlns:xlink="http://www.w3.org/1999/xlink"><defs /><text fill="black" x="0" y="100">VIETNAMESE </text><text fill="black" x="20" y="150">POS: </text><text fill="black" x="20" y="200">Source: </text><text fill="black" x="150" y="150">Nq</text><text fill="black" x="150" y="200">Một</text><text fill="black" x="230" y="150">Nn</text><text fill="black" x="230" y="200">sơ_đồ</text><text fill="black" x="310" y="150">Vv</text><text fill="black" x="310" y="200">trình_bày</text><text fill="black" x="390" y="150">Ve</text><text fill="black" x="390" y="200">có</text><text fill="black" x="470" y="150">Nn</text><text fill="black" x="470" y="200">kế_hoạch</text><text fill="black" x="550" y="150">Nn</text><text fill="black" x="550" y="200">việc</text><text fill="black" x="630" y="150">Vv</text><text fill="black" x="630" y="200">tạo</text><text fill="black" x="710" y="150">R</text><text fill="black" x="710" y="200">ra</text><text fill="black" x="790" y="150">Cp</text><text fill="black" x="790" y="200">và</text><text fill="black" x="870" y="150">Vv</text><text fill="black" x="870" y="200">tiêu_thụ</text><text fill="black" x="950" y="150">Nn</text><text fill="black" x="950" y="200">của_cải</text><text fill="black" x="1030" y="150">PU</text><text fill="black" x="1030" y="200">.</text><text fill="black" x="0" y="450">ENGLISH </text><text fill="black" x="20" y="350">Target: </text><text fill="black" x="20" y="400">POS: </text><text fill="black" x="150" y="350">A</text><text fill="black" x="150" y="400">DT</text><text fill="black" x="230" y="350">diagram</text><text fill="black" x="230" y="400">NN</text><text fill="black" x="310" y="350">that</text><text fill="black" x="310" y="400">WDT</text><text fill="black" x="390" y="350">schematises</text><text fill="black" x="390" y="400">VBZ</text><text fill="black" x="470" y="350">the</text><text fill="black" x="470" y="400">DT</text><text fill="black" x="550" y="350">creation</text><text fill="black" x="550" y="400">NN</text><text fill="black" x="630" y="350">and</text><text fill="black" x="630" y="400">CC</text><text fill="black" x="710" y="350">consumption</text><text fill="black" x="710" y="400">NN</text><text fill="black" x="790" y="350">of</text><text fill="black" x="790" y="400">IN</text><text fill="black" x="870" y="350">wealth</text><text fill="black" x="870" y="400">NN</text><text fill="black" x="950" y="350">.</text><text fill="black" x="950" y="400">.</text><line stroke="red" x1="160" x2="150" y1="210" y2="330" /><line stroke="red" x1="250" x2="257" y1="210" y2="330" /><line stroke="red" x1="350" x2="257" y1="210" y2="330" /><line stroke="red" x1="510" x2="435" y1="210" y2="330" /><line stroke="red" x1="570" x2="435" y1="210" y2="330" /><line stroke="red" x1="640" x2="586" y1="210" y2="330" /><line stroke="red" x1="720" x2="586" y1="210" y2="330" /><line stroke="red" x1="800" x2="639" y1="210" y2="330" /><line stroke="red" x1="910" x2="755" y1="210" y2="330" /><line stroke="red" x1="980" x2="897" y1="210" y2="330" /><line stroke="red" x1="1030" x2="950" y1="210" y2="330" /></svg>