<?xml version="1.0" encoding="utf-8" ?>
<svg baseProfile="full" height="500" version="1.1" width="1200" xmlns="http://www.w3.org/2000/svg" xmlns:ev="http://www.w3.org/2001/xml-events" xmlns:xlink="http://www.w3.org/1999/xlink"><defs /><text fill="black" x="0" y="100">VIETNAMESE </text><text fill="black" x="20" y="150">POS: </text><text fill="black" x="20" y="200">Source: </text><text fill="black" x="150" y="150">Nq</text><text fill="black" x="150" y="200">Một</text><text fill="black" x="230" y="150">Nn</text><text fill="black" x="230" y="200">công_việc</text><text fill="black" x="310" y="150">Aa</text><text fill="black" x="310" y="200">khó_khăn</text><text fill="black" x="390" y="150">PU</text><text fill="black" x="390" y="200">,</text><text fill="black" x="470" y="150">Cp</text><text fill="black" x="470" y="200">nếu</text><text fill="black" x="550" y="150">R</text><text fill="black" x="550" y="200">không</text><text fill="black" x="630" y="150">Vv</text><text fill="black" x="630" y="200">nói</text><text fill="black" x="710" y="150">Cp</text><text fill="black" x="710" y="200">là</text><text fill="black" x="790" y="150">R</text><text fill="black" x="790" y="200">không_thể</text><text fill="black" x="870" y="150">Vv</text><text fill="black" x="870" y="200">làm</text><text fill="black" x="950" y="150">R</text><text fill="black" x="950" y="200">được</text><text fill="black" x="1030" y="150">PU</text><text fill="black" x="1030" y="200">.</text><text fill="black" x="0" y="450">ENGLISH </text><text fill="black" x="20" y="350">Target: </text><text fill="black" x="20" y="400">POS: </text><text fill="black" x="150" y="350">A</text><text fill="black" x="150" y="400">DT</text><text fill="black" x="230" y="350">difficult</text><text fill="black" x="230" y="400">JJ</text><text fill="black" x="310" y="350">,</text><text fill="black" x="310" y="400">,</text><text fill="black" x="390" y="350">not</text><text fill="black" x="390" y="400">RB</text><text fill="black" x="470" y="350">to</text><text fill="black" x="470" y="400">TO</text><text fill="black" x="550" y="350">say</text><text fill="black" x="550" y="400">VB</text><text fill="black" x="630" y="350">impossible</text><text fill="black" x="630" y="400">JJ</text><text fill="black" x="710" y="350">,</text><text fill="black" x="710" y="400">,</text><text fill="black" x="790" y="350">task</text><text fill="black" x="790" y="400">NN</text><text fill="black" x="870" y="350">.</text><text fill="black" x="870" y="400">.</text><line stroke="red" x1="160" x2="150" y1="210" y2="330" /><line stroke="red" x1="270" x2="808" y1="210" y2="330" /><line stroke="red" x1="350" x2="266" y1="210" y2="330" /><line stroke="red" x1="390" x2="310" y1="210" y2="330" /><line stroke="red" x1="480" x2="808" y1="210" y2="330" /><line stroke="red" x1="570" x2="399" y1="210" y2="330" /><line stroke="red" x1="640" x2="559" y1="210" y2="330" /><line stroke="red" x1="830" x2="675" y1="210" y2="330" /><line stroke="red" x1="880" x2="675" y1="210" y2="330" /><line stroke="red" x1="1030" x2="870" y1="210" y2="330" /></svg>