<?xml version="1.0" encoding="utf-8" ?>
<svg baseProfile="full" height="500" version="1.1" width="1100" xmlns="http://www.w3.org/2000/svg" xmlns:ev="http://www.w3.org/2001/xml-events" xmlns:xlink="http://www.w3.org/1999/xlink"><defs /><text fill="black" x="0" y="100">VIETNAMESE </text><text fill="black" x="20" y="150">POS: </text><text fill="black" x="20" y="200">Source: </text><text fill="black" x="150" y="150">Nc</text><text fill="black" x="150" y="200">Sự</text><text fill="black" x="230" y="150">Aa</text><text fill="black" x="230" y="200">bất_đồng</text><text fill="black" x="310" y="150">Nn</text><text fill="black" x="310" y="200">ý_kiến</text><text fill="black" x="390" y="150">Cm</text><text fill="black" x="390" y="200">về</text><text fill="black" x="470" y="150">Nn</text><text fill="black" x="470" y="200">cách</text><text fill="black" x="550" y="150">Aa</text><text fill="black" x="550" y="200">tốt</text><text fill="black" x="630" y="150">R</text><text fill="black" x="630" y="200">nhất</text><text fill="black" x="710" y="150">Cm</text><text fill="black" x="710" y="200">để</text><text fill="black" x="790" y="150">Vv</text><text fill="black" x="790" y="200">tiến_hành</text><text fill="black" x="870" y="150">Nn</text><text fill="black" x="870" y="200">công_việc</text><text fill="black" x="950" y="150">PU</text><text fill="black" x="950" y="200">.</text><text fill="black" x="0" y="450">ENGLISH </text><text fill="black" x="20" y="350">Target: </text><text fill="black" x="20" y="400">POS: </text><text fill="black" x="150" y="350">A</text><text fill="black" x="150" y="400">DT</text><text fill="black" x="230" y="350">disagreement</text><text fill="black" x="230" y="400">NN</text><text fill="black" x="310" y="350">over</text><text fill="black" x="310" y="400">IN</text><text fill="black" x="390" y="350">the</text><text fill="black" x="390" y="400">DT</text><text fill="black" x="470" y="350">best</text><text fill="black" x="470" y="400">JJS</text><text fill="black" x="550" y="350">way</text><text fill="black" x="550" y="400">NN</text><text fill="black" x="630" y="350">to</text><text fill="black" x="630" y="400">TO</text><text fill="black" x="710" y="350">proceed</text><text fill="black" x="710" y="400">VB</text><text fill="black" x="790" y="350">.</text><text fill="black" x="790" y="400">.</text><line stroke="red" x1="160" x2="150" y1="210" y2="330" /><line stroke="red" x1="270" x2="284" y1="210" y2="330" /><line stroke="red" x1="340" x2="284" y1="210" y2="330" /><line stroke="red" x1="400" x2="328" y1="210" y2="330" /><line stroke="red" x1="490" x2="559" y1="210" y2="330" /><line stroke="red" x1="560" x2="488" y1="210" y2="330" /><line stroke="red" x1="650" x2="488" y1="210" y2="330" /><line stroke="red" x1="720" x2="633" y1="210" y2="330" /><line stroke="red" x1="830" x2="737" y1="210" y2="330" /><line stroke="red" x1="910" x2="737" y1="210" y2="330" /><line stroke="red" x1="950" x2="790" y1="210" y2="330" /></svg>