<?xml version="1.0" encoding="utf-8" ?>
<svg baseProfile="full" height="500" version="1.1" width="1500" xmlns="http://www.w3.org/2000/svg" xmlns:ev="http://www.w3.org/2001/xml-events" xmlns:xlink="http://www.w3.org/1999/xlink"><defs /><text fill="black" x="0" y="100">VIETNAMESE </text><text fill="black" x="20" y="150">POS: </text><text fill="black" x="20" y="200">Source: </text><text fill="black" x="150" y="150">Nq</text><text fill="black" x="150" y="200">Một</text><text fill="black" x="230" y="150">Nc</text><text fill="black" x="230" y="200">cuộc</text><text fill="black" x="310" y="150">Vv</text><text fill="black" x="310" y="200">thảo_luận</text><text fill="black" x="390" y="150">Cp</text><text fill="black" x="390" y="200">với</text><text fill="black" x="470" y="150">Nc</text><text fill="black" x="470" y="200">sự</text><text fill="black" x="550" y="150">Vv</text><text fill="black" x="550" y="200">đóng_góp</text><text fill="black" x="630" y="150">Nn</text><text fill="black" x="630" y="200">ý_kiến</text><text fill="black" x="710" y="150">Cm</text><text fill="black" x="710" y="200">của</text><text fill="black" x="790" y="150">Nq</text><text fill="black" x="790" y="200">tất_cả</text><text fill="black" x="870" y="150">Nq</text><text fill="black" x="870" y="200">các</text><text fill="black" x="950" y="150">Nn</text><text fill="black" x="950" y="200">thành_viên</text><text fill="black" x="1030" y="150">Cm</text><text fill="black" x="1030" y="200">trong</text><text fill="black" x="1110" y="150">Nn</text><text fill="black" x="1110" y="200">nhóm</text><text fill="black" x="1190" y="150">Pd</text><text fill="black" x="1190" y="200">đó</text><text fill="black" x="1270" y="150">PU</text><text fill="black" x="1270" y="200">.</text><text fill="black" x="0" y="450">ENGLISH </text><text fill="black" x="20" y="350">Target: </text><text fill="black" x="20" y="400">POS: </text><text fill="black" x="150" y="350">A</text><text fill="black" x="150" y="400">DT</text><text fill="black" x="230" y="350">discussion</text><text fill="black" x="230" y="400">NN</text><text fill="black" x="310" y="350">with</text><text fill="black" x="310" y="400">IN</text><text fill="black" x="390" y="350">input</text><text fill="black" x="390" y="400">NN</text><text fill="black" x="470" y="350">from</text><text fill="black" x="470" y="400">IN</text><text fill="black" x="550" y="350">all</text><text fill="black" x="550" y="400">DT</text><text fill="black" x="630" y="350">members</text><text fill="black" x="630" y="400">NNS</text><text fill="black" x="710" y="350">of</text><text fill="black" x="710" y="400">IN</text><text fill="black" x="790" y="350">the</text><text fill="black" x="790" y="400">DT</text><text fill="black" x="870" y="350">group</text><text fill="black" x="870" y="400">NN</text><text fill="black" x="950" y="350">.</text><text fill="black" x="950" y="400">.</text><line stroke="red" x1="160" x2="150" y1="210" y2="330" /><line stroke="red" x1="250" x2="275" y1="210" y2="330" /><line stroke="red" x1="350" x2="275" y1="210" y2="330" /><line stroke="red" x1="400" x2="328" y1="210" y2="330" /><line stroke="red" x1="480" x2="408" y1="210" y2="330" /><line stroke="red" x1="590" x2="408" y1="210" y2="330" /><line stroke="red" x1="660" x2="408" y1="210" y2="330" /><line stroke="red" x1="820" x2="559" y1="210" y2="330" /><line stroke="red" x1="880" x2="657" y1="210" y2="330" /><line stroke="red" x1="1000" x2="657" y1="210" y2="330" /><line stroke="red" x1="1050" x2="657" y1="210" y2="330" /><line stroke="red" x1="1130" x2="888" y1="210" y2="330" /><line stroke="red" x1="1270" x2="950" y1="210" y2="330" /></svg>