<?xml version="1.0" encoding="utf-8" ?>
<svg baseProfile="full" height="500" version="1.1" width="1000" xmlns="http://www.w3.org/2000/svg" xmlns:ev="http://www.w3.org/2001/xml-events" xmlns:xlink="http://www.w3.org/1999/xlink"><defs /><text fill="black" x="0" y="100">VIETNAMESE </text><text fill="black" x="20" y="150">POS: </text><text fill="black" x="20" y="200">Source: </text><text fill="black" x="150" y="150">Nq</text><text fill="black" x="150" y="200">Một</text><text fill="black" x="230" y="150">Nn</text><text fill="black" x="230" y="200">chỉ_thị</text><text fill="black" x="310" y="150">Cm</text><text fill="black" x="310" y="200">từ</text><text fill="black" x="390" y="150">Nn</text><text fill="black" x="390" y="200">trụ_sở</text><text fill="black" x="470" y="150">Nn</text><text fill="black" x="470" y="200">văn_phòng</text><text fill="black" x="550" y="150">Aa</text><text fill="black" x="550" y="200">trung_ương</text><text fill="black" x="630" y="150">Aa</text><text fill="black" x="630" y="200">yêu_cầu</text><text fill="black" x="710" y="150">Vv</text><text fill="black" x="710" y="200">gia_tăng</text><text fill="black" x="790" y="150">Nn</text><text fill="black" x="790" y="200">năng_suất</text><text fill="black" x="870" y="150">PU</text><text fill="black" x="870" y="200">.</text><text fill="black" x="0" y="450">ENGLISH </text><text fill="black" x="20" y="350">Target: </text><text fill="black" x="20" y="400">POS: </text><text fill="black" x="150" y="350">A</text><text fill="black" x="150" y="400">DT</text><text fill="black" x="230" y="350">directive</text><text fill="black" x="230" y="400">NN</text><text fill="black" x="310" y="350">from</text><text fill="black" x="310" y="400">IN</text><text fill="black" x="390" y="350">headquarters</text><text fill="black" x="390" y="400">NNS</text><text fill="black" x="470" y="350">calling</text><text fill="black" x="470" y="400">VBG</text><text fill="black" x="550" y="350">for</text><text fill="black" x="550" y="400">IN</text><text fill="black" x="630" y="350">increased</text><text fill="black" x="630" y="400">VBN</text><text fill="black" x="710" y="350">output</text><text fill="black" x="710" y="400">NN</text><text fill="black" x="790" y="350">.</text><text fill="black" x="790" y="400">.</text><line stroke="red" x1="160" x2="150" y1="210" y2="330" /><line stroke="red" x1="260" x2="266" y1="210" y2="330" /><line stroke="red" x1="320" x2="328" y1="210" y2="330" /><line stroke="red" x1="420" x2="444" y1="210" y2="330" /><line stroke="red" x1="510" x2="266" y1="210" y2="330" /><line stroke="red" x1="600" x2="266" y1="210" y2="330" /><line stroke="red" x1="660" x2="266" y1="210" y2="330" /><line stroke="red" x1="750" x2="666" y1="210" y2="330" /><line stroke="red" x1="830" x2="737" y1="210" y2="330" /><line stroke="red" x1="870" x2="790" y1="210" y2="330" /></svg>