<?xml version="1.0" encoding="utf-8" ?>
<svg baseProfile="full" height="500" version="1.1" width="1600" xmlns="http://www.w3.org/2000/svg" xmlns:ev="http://www.w3.org/2001/xml-events" xmlns:xlink="http://www.w3.org/1999/xlink"><defs /><text fill="black" x="0" y="100">VIETNAMESE </text><text fill="black" x="20" y="150">POS: </text><text fill="black" x="20" y="200">Source: </text><text fill="black" x="150" y="150">Nq</text><text fill="black" x="150" y="200">Một</text><text fill="black" x="230" y="150">Nc</text><text fill="black" x="230" y="200">người</text><text fill="black" x="310" y="150">Nn</text><text fill="black" x="310" y="200">thợ_lặn</text><text fill="black" x="390" y="150">Cp</text><text fill="black" x="390" y="200">với</text><text fill="black" x="470" y="150">Nn</text><text fill="black" x="470" y="200">tình_trạng</text><text fill="black" x="550" y="150">Nn</text><text fill="black" x="550" y="200">tinh_thần</text><text fill="black" x="630" y="150">Cp</text><text fill="black" x="630" y="200">lẫn</text><text fill="black" x="710" y="150">Nn</text><text fill="black" x="710" y="200">thể_xác</text><text fill="black" x="790" y="150">Cm</text><text fill="black" x="790" y="200">ở</text><text fill="black" x="870" y="150">Nn</text><text fill="black" x="870" y="200">tư_thế</text><text fill="black" x="950" y="150">Aa</text><text fill="black" x="950" y="200">sẵn_sàng</text><text fill="black" x="1030" y="150">Nt</text><text fill="black" x="1030" y="200">khi</text><text fill="black" x="1110" y="150">Vv</text><text fill="black" x="1110" y="200">thực_hiện</text><text fill="black" x="1190" y="150">Nc</text><text fill="black" x="1190" y="200">vụ</text><text fill="black" x="1270" y="150">Vv</text><text fill="black" x="1270" y="200">lặn</text><text fill="black" x="1350" y="150">PU</text><text fill="black" x="1350" y="200">.</text><text fill="black" x="0" y="450">ENGLISH </text><text fill="black" x="20" y="350">Target: </text><text fill="black" x="20" y="400">POS: </text><text fill="black" x="150" y="350">A</text><text fill="black" x="150" y="400">DT</text><text fill="black" x="230" y="350">diver</text><text fill="black" x="230" y="400">NN</text><text fill="black" x="310" y="350">whose</text><text fill="black" x="310" y="400">WP$</text><text fill="black" x="390" y="350">mental</text><text fill="black" x="390" y="400">JJ</text><text fill="black" x="470" y="350">and</text><text fill="black" x="470" y="400">CC</text><text fill="black" x="550" y="350">physical</text><text fill="black" x="550" y="400">JJ</text><text fill="black" x="630" y="350">states</text><text fill="black" x="630" y="400">NNS</text><text fill="black" x="710" y="350">were</text><text fill="black" x="710" y="400">VBD</text><text fill="black" x="790" y="350">at</text><text fill="black" x="790" y="400">IN</text><text fill="black" x="870" y="350">concert</text><text fill="black" x="870" y="400">NN</text><text fill="black" x="950" y="350">pitch</text><text fill="black" x="950" y="400">NN</text><text fill="black" x="1030" y="350">before</text><text fill="black" x="1030" y="400">IN</text><text fill="black" x="1110" y="350">executing</text><text fill="black" x="1110" y="400">VBG</text><text fill="black" x="1190" y="350">the</text><text fill="black" x="1190" y="400">DT</text><text fill="black" x="1270" y="350">dive</text><text fill="black" x="1270" y="400">NN</text><text fill="black" x="1350" y="350">.</text><text fill="black" x="1350" y="400">.</text><line stroke="red" x1="160" x2="150" y1="210" y2="330" /><line stroke="red" x1="250" x2="248" y1="210" y2="330" /><line stroke="red" x1="340" x2="248" y1="210" y2="330" /><line stroke="red" x1="400" x2="248" y1="210" y2="330" /><line stroke="red" x1="520" x2="586" y1="210" y2="330" /><line stroke="red" x1="590" x2="417" y1="210" y2="330" /><line stroke="red" x1="640" x2="248" y1="210" y2="330" /><line stroke="red" x1="740" x2="586" y1="210" y2="330" /><line stroke="red" x1="790" x2="793" y1="210" y2="330" /><line stroke="red" x1="900" x2="1146" y1="210" y2="330" /><line stroke="red" x1="990" x2="1146" y1="210" y2="330" /><line stroke="red" x1="1040" x2="1146" y1="210" y2="330" /><line stroke="red" x1="1150" x2="1146" y1="210" y2="330" /><line stroke="red" x1="1200" x2="1146" y1="210" y2="330" /><line stroke="red" x1="1280" x2="1146" y1="210" y2="330" /><line stroke="red" x1="1350" x2="1350" y1="210" y2="330" /></svg>