<?xml version="1.0" encoding="utf-8" ?>
<svg baseProfile="full" height="500" version="1.1" width="1700" xmlns="http://www.w3.org/2000/svg" xmlns:ev="http://www.w3.org/2001/xml-events" xmlns:xlink="http://www.w3.org/1999/xlink"><defs /><text fill="black" x="0" y="100">VIETNAMESE </text><text fill="black" x="20" y="150">POS: </text><text fill="black" x="20" y="200">Source: </text><text fill="black" x="150" y="150">Nq</text><text fill="black" x="150" y="200">Một</text><text fill="black" x="230" y="150">Nn</text><text fill="black" x="230" y="200">bác_sĩ</text><text fill="black" x="310" y="150">Cp</text><text fill="black" x="310" y="200">mà</text><text fill="black" x="390" y="150">Vv</text><text fill="black" x="390" y="200">tiết_lộ</text><text fill="black" x="470" y="150">Nq</text><text fill="black" x="470" y="200">những</text><text fill="black" x="550" y="150">Nn</text><text fill="black" x="550" y="200">tin_tức</text><text fill="black" x="630" y="150">Aa</text><text fill="black" x="630" y="200">kín</text><text fill="black" x="710" y="150">Cm</text><text fill="black" x="710" y="200">về</text><text fill="black" x="790" y="150">Nn</text><text fill="black" x="790" y="200">bệnh_nhân</text><text fill="black" x="870" y="150">Vc</text><text fill="black" x="870" y="200">là</text><text fill="black" x="950" y="150">Ve</text><text fill="black" x="950" y="200">có</text><text fill="black" x="1030" y="150">Nn</text><text fill="black" x="1030" y="200">thái_độ</text><text fill="black" x="1110" y="150">R</text><text fill="black" x="1110" y="200">không</text><text fill="black" x="1190" y="150">Aa</text><text fill="black" x="1190" y="200">đúng</text><text fill="black" x="1270" y="150">Cp</text><text fill="black" x="1270" y="200">với</text><text fill="black" x="1350" y="150">Nn</text><text fill="black" x="1350" y="200">nghề_nghiệp</text><text fill="black" x="1430" y="150">PU</text><text fill="black" x="1430" y="200">.</text><text fill="black" x="0" y="450">ENGLISH </text><text fill="black" x="20" y="350">Target: </text><text fill="black" x="20" y="400">POS: </text><text fill="black" x="150" y="350">A</text><text fill="black" x="150" y="400">DT</text><text fill="black" x="230" y="350">doctor</text><text fill="black" x="230" y="400">NN</text><text fill="black" x="310" y="350">who</text><text fill="black" x="310" y="400">WP</text><text fill="black" x="390" y="350">gives</text><text fill="black" x="390" y="400">VBZ</text><text fill="black" x="470" y="350">away</text><text fill="black" x="470" y="400">RB</text><text fill="black" x="550" y="350">confidential</text><text fill="black" x="550" y="400">JJ</text><text fill="black" x="630" y="350">information</text><text fill="black" x="630" y="400">NN</text><text fill="black" x="710" y="350">about</text><text fill="black" x="710" y="400">IN</text><text fill="black" x="790" y="350">patients</text><text fill="black" x="790" y="400">NNS</text><text fill="black" x="870" y="350">is</text><text fill="black" x="870" y="400">VBZ</text><text fill="black" x="950" y="350">not</text><text fill="black" x="950" y="400">RB</text><text fill="black" x="1030" y="350">behaving</text><text fill="black" x="1030" y="400">VBG</text><text fill="black" x="1110" y="350">professionally</text><text fill="black" x="1110" y="400">RB</text><text fill="black" x="1190" y="350">.</text><text fill="black" x="1190" y="400">.</text><line stroke="red" x1="160" x2="150" y1="210" y2="330" /><line stroke="red" x1="260" x2="257" y1="210" y2="330" /><line stroke="red" x1="320" x2="319" y1="210" y2="330" /><line stroke="red" x1="420" x2="604" y1="210" y2="330" /><line stroke="red" x1="490" x2="604" y1="210" y2="330" /><line stroke="red" x1="580" x2="675" y1="210" y2="330" /><line stroke="red" x1="640" x2="675" y1="210" y2="330" /><line stroke="red" x1="720" x2="728" y1="210" y2="330" /><line stroke="red" x1="830" x2="826" y1="210" y2="330" /><line stroke="red" x1="1060" x2="1066" y1="210" y2="330" /><line stroke="red" x1="1130" x2="959" y1="210" y2="330" /><line stroke="red" x1="1210" x2="1066" y1="210" y2="330" /><line stroke="red" x1="1280" x2="1173" y1="210" y2="330" /><line stroke="red" x1="1400" x2="1173" y1="210" y2="330" /><line stroke="red" x1="1430" x2="1190" y1="210" y2="330" /></svg>