<?xml version="1.0" encoding="utf-8" ?>
<svg baseProfile="full" height="500" version="1.1" width="1100" xmlns="http://www.w3.org/2000/svg" xmlns:ev="http://www.w3.org/2001/xml-events" xmlns:xlink="http://www.w3.org/1999/xlink"><defs /><text fill="black" x="0" y="100">VIETNAMESE </text><text fill="black" x="20" y="150">POS: </text><text fill="black" x="20" y="200">Source: </text><text fill="black" x="150" y="150">Nq</text><text fill="black" x="150" y="200">Một</text><text fill="black" x="230" y="150">Nc</text><text fill="black" x="230" y="200">bản</text><text fill="black" x="310" y="150">Vv</text><text fill="black" x="310" y="200">báo_cáo</text><text fill="black" x="390" y="150">Vv</text><text fill="black" x="390" y="200">gồm</text><text fill="black" x="470" y="150">Nq</text><text fill="black" x="470" y="200">những</text><text fill="black" x="550" y="150">Nn</text><text fill="black" x="550" y="200">tài_liệu</text><text fill="black" x="630" y="150">Cm</text><text fill="black" x="630" y="200">về</text><text fill="black" x="710" y="150">Nc</text><text fill="black" x="710" y="200">cuộc</text><text fill="black" x="790" y="150">Nn</text><text fill="black" x="790" y="200">chiến_tranh</text><text fill="black" x="870" y="150">Nr</text><text fill="black" x="870" y="200">Việt_Nam</text><text fill="black" x="950" y="150">PU</text><text fill="black" x="950" y="200">.</text><text fill="black" x="0" y="450">ENGLISH </text><text fill="black" x="20" y="350">Target: </text><text fill="black" x="20" y="400">POS: </text><text fill="black" x="150" y="350">A</text><text fill="black" x="150" y="400">DT</text><text fill="black" x="230" y="350">documentary</text><text fill="black" x="230" y="400">NN</text><text fill="black" x="310" y="350">account</text><text fill="black" x="310" y="400">NN</text><text fill="black" x="390" y="350">of</text><text fill="black" x="390" y="400">IN</text><text fill="black" x="470" y="350">the</text><text fill="black" x="470" y="400">DT</text><text fill="black" x="550" y="350">Vietnam</text><text fill="black" x="550" y="400">NNP</text><text fill="black" x="630" y="350">war</text><text fill="black" x="630" y="400">NN</text><text fill="black" x="710" y="350">.</text><text fill="black" x="710" y="400">.</text><line stroke="red" x1="160" x2="150" y1="210" y2="330" /><line stroke="red" x1="240" x2="275" y1="210" y2="330" /><line stroke="red" x1="340" x2="275" y1="210" y2="330" /><line stroke="red" x1="400" x2="275" y1="210" y2="330" /><line stroke="red" x1="590" x2="275" y1="210" y2="330" /><line stroke="red" x1="640" x2="337" y1="210" y2="330" /><line stroke="red" x1="730" x2="639" y1="210" y2="330" /><line stroke="red" x1="840" x2="639" y1="210" y2="330" /><line stroke="red" x1="910" x2="577" y1="210" y2="330" /><line stroke="red" x1="950" x2="710" y1="210" y2="330" /></svg>