<?xml version="1.0" encoding="utf-8" ?>
<svg baseProfile="full" height="500" version="1.1" width="1300" xmlns="http://www.w3.org/2000/svg" xmlns:ev="http://www.w3.org/2001/xml-events" xmlns:xlink="http://www.w3.org/1999/xlink"><defs /><text fill="black" x="0" y="100">VIETNAMESE </text><text fill="black" x="20" y="150">POS: </text><text fill="black" x="20" y="200">Source: </text><text fill="black" x="150" y="150">Nq</text><text fill="black" x="150" y="200">Một</text><text fill="black" x="230" y="150">Nc</text><text fill="black" x="230" y="200">con</text><text fill="black" x="310" y="150">Nn</text><text fill="black" x="310" y="200">chó</text><text fill="black" x="390" y="150">Vv</text><text fill="black" x="390" y="200">chảy</text><text fill="black" x="470" y="150">Nn</text><text fill="black" x="470" y="200">nước_dãi</text><text fill="black" x="550" y="150">Nt</text><text fill="black" x="550" y="200">khi</text><text fill="black" x="630" y="150">Pp</text><text fill="black" x="630" y="200">nó</text><text fill="black" x="710" y="150">Vv</text><text fill="black" x="710" y="200">nhìn</text><text fill="black" x="790" y="150">Vv</text><text fill="black" x="790" y="200">thấy</text><text fill="black" x="870" y="150">Nq</text><text fill="black" x="870" y="200">một</text><text fill="black" x="950" y="150">Nc</text><text fill="black" x="950" y="200">cái</text><text fill="black" x="1030" y="150">Nn</text><text fill="black" x="1030" y="200">xương</text><text fill="black" x="1110" y="150">PU</text><text fill="black" x="1110" y="200">.</text><text fill="black" x="0" y="450">ENGLISH </text><text fill="black" x="20" y="350">Target: </text><text fill="black" x="20" y="400">POS: </text><text fill="black" x="150" y="350">A</text><text fill="black" x="150" y="400">DT</text><text fill="black" x="230" y="350">dog</text><text fill="black" x="230" y="400">NN</text><text fill="black" x="310" y="350">salivates</text><text fill="black" x="310" y="400">VBZ</text><text fill="black" x="390" y="350">when</text><text fill="black" x="390" y="400">WRB</text><text fill="black" x="470" y="350">it</text><text fill="black" x="470" y="400">PRP</text><text fill="black" x="550" y="350">sees</text><text fill="black" x="550" y="400">VBZ</text><text fill="black" x="630" y="350">a</text><text fill="black" x="630" y="400">DT</text><text fill="black" x="710" y="350">bone</text><text fill="black" x="710" y="400">NN</text><text fill="black" x="790" y="350">.</text><text fill="black" x="790" y="400">.</text><line stroke="red" x1="160" x2="150" y1="210" y2="330" /><line stroke="red" x1="240" x2="239" y1="210" y2="330" /><line stroke="red" x1="320" x2="239" y1="210" y2="330" /><line stroke="red" x1="410" x2="346" y1="210" y2="330" /><line stroke="red" x1="510" x2="346" y1="210" y2="330" /><line stroke="red" x1="560" x2="408" y1="210" y2="330" /><line stroke="red" x1="640" x2="473" y1="210" y2="330" /><line stroke="red" x1="730" x2="568" y1="210" y2="330" /><line stroke="red" x1="810" x2="568" y1="210" y2="330" /><line stroke="red" x1="880" x2="630" y1="210" y2="330" /><line stroke="red" x1="1050" x2="728" y1="210" y2="330" /><line stroke="red" x1="1110" x2="790" y1="210" y2="330" /></svg>