<?xml version="1.0" encoding="utf-8" ?>
<svg baseProfile="full" height="500" version="1.1" width="1300" xmlns="http://www.w3.org/2000/svg" xmlns:ev="http://www.w3.org/2001/xml-events" xmlns:xlink="http://www.w3.org/1999/xlink"><defs /><text fill="black" x="0" y="100">VIETNAMESE </text><text fill="black" x="20" y="150">POS: </text><text fill="black" x="20" y="200">Source: </text><text fill="black" x="150" y="150">Vv</text><text fill="black" x="150" y="200">Cần</text><text fill="black" x="230" y="150">Vv</text><text fill="black" x="230" y="200">phải</text><text fill="black" x="310" y="150">Vv</text><text fill="black" x="310" y="200">đưa</text><text fill="black" x="390" y="150">Nn</text><text fill="black" x="390" y="200">chó</text><text fill="black" x="470" y="150">D</text><text fill="black" x="470" y="200">ra</text><text fill="black" x="550" y="150">Nn</text><text fill="black" x="550" y="200">ngoài</text><text fill="black" x="630" y="150">Vv</text><text fill="black" x="630" y="200">đi</text><text fill="black" x="710" y="150">Vv</text><text fill="black" x="710" y="200">dạo</text><text fill="black" x="790" y="150">Nq</text><text fill="black" x="790" y="200">mỗi</text><text fill="black" x="870" y="150">Nt</text><text fill="black" x="870" y="200">ngày</text><text fill="black" x="950" y="150">PU</text><text fill="black" x="950" y="200">.</text><text fill="black" x="0" y="450">ENGLISH </text><text fill="black" x="20" y="350">Target: </text><text fill="black" x="20" y="400">POS: </text><text fill="black" x="150" y="350">A</text><text fill="black" x="150" y="400">DT</text><text fill="black" x="230" y="350">dog</text><text fill="black" x="230" y="400">NN</text><text fill="black" x="310" y="350">needs</text><text fill="black" x="310" y="400">VBZ</text><text fill="black" x="390" y="350">to</text><text fill="black" x="390" y="400">TO</text><text fill="black" x="470" y="350">be</text><text fill="black" x="470" y="400">VB</text><text fill="black" x="550" y="350">taken</text><text fill="black" x="550" y="400">VBN</text><text fill="black" x="630" y="350">out</text><text fill="black" x="630" y="400">RP</text><text fill="black" x="710" y="350">for</text><text fill="black" x="710" y="400">IN</text><text fill="black" x="790" y="350">a</text><text fill="black" x="790" y="400">DT</text><text fill="black" x="870" y="350">walk</text><text fill="black" x="870" y="400">NN</text><text fill="black" x="950" y="350">every</text><text fill="black" x="950" y="400">DT</text><text fill="black" x="1030" y="350">day</text><text fill="black" x="1030" y="400">NN</text><text fill="black" x="1110" y="350">.</text><text fill="black" x="1110" y="400">.</text><line stroke="red" x1="160" x2="239" y1="210" y2="330" /><line stroke="red" x1="250" x2="328" y1="210" y2="330" /><line stroke="red" x1="320" x2="568" y1="210" y2="330" /><line stroke="red" x1="400" x2="239" y1="210" y2="330" /><line stroke="red" x1="480" x2="639" y1="210" y2="330" /><line stroke="red" x1="570" x2="639" y1="210" y2="330" /><line stroke="red" x1="640" x2="888" y1="210" y2="330" /><line stroke="red" x1="720" x2="888" y1="210" y2="330" /><line stroke="red" x1="800" x2="968" y1="210" y2="330" /><line stroke="red" x1="890" x2="1039" y1="210" y2="330" /><line stroke="red" x1="950" x2="1110" y1="210" y2="330" /></svg>