<?xml version="1.0" encoding="utf-8" ?>
<svg baseProfile="full" height="500" version="1.1" width="1100" xmlns="http://www.w3.org/2000/svg" xmlns:ev="http://www.w3.org/2001/xml-events" xmlns:xlink="http://www.w3.org/1999/xlink"><defs /><text fill="black" x="0" y="100">VIETNAMESE </text><text fill="black" x="20" y="150">POS: </text><text fill="black" x="20" y="200">Source: </text><text fill="black" x="150" y="150">Nq</text><text fill="black" x="150" y="200">Một</text><text fill="black" x="230" y="150">Nn</text><text fill="black" x="230" y="200">rãnh</text><text fill="black" x="310" y="150">Nn</text><text fill="black" x="310" y="200">nước</text><text fill="black" x="390" y="150">Vv</text><text fill="black" x="390" y="200">bị</text><text fill="black" x="470" y="150">Nq</text><text fill="black" x="470" y="200">những</text><text fill="black" x="550" y="150">Nc</text><text fill="black" x="550" y="200">chiếc</text><text fill="black" x="630" y="150">Nn</text><text fill="black" x="630" y="200">lá</text><text fill="black" x="710" y="150">Vv</text><text fill="black" x="710" y="200">úa</text><text fill="black" x="790" y="150">Vv</text><text fill="black" x="790" y="200">làm</text><text fill="black" x="870" y="150">Aa</text><text fill="black" x="870" y="200">nghẹt</text><text fill="black" x="950" y="150">PU</text><text fill="black" x="950" y="200">.</text><text fill="black" x="0" y="450">ENGLISH </text><text fill="black" x="20" y="350">Target: </text><text fill="black" x="20" y="400">POS: </text><text fill="black" x="150" y="350">A</text><text fill="black" x="150" y="400">DT</text><text fill="black" x="230" y="350">drain</text><text fill="black" x="230" y="400">NN</text><text fill="black" x="310" y="350">clogged</text><text fill="black" x="310" y="400">VBD</text><text fill="black" x="390" y="350">up</text><text fill="black" x="390" y="400">RP</text><text fill="black" x="470" y="350">with</text><text fill="black" x="470" y="400">IN</text><text fill="black" x="550" y="350">dead</text><text fill="black" x="550" y="400">JJ</text><text fill="black" x="630" y="350">leaves</text><text fill="black" x="630" y="400">NNS</text><text fill="black" x="710" y="350">.</text><text fill="black" x="710" y="400">.</text><line stroke="red" x1="160" x2="150" y1="210" y2="330" /><line stroke="red" x1="250" x2="337" y1="210" y2="330" /><line stroke="red" x1="330" x2="337" y1="210" y2="330" /><line stroke="red" x1="400" x2="337" y1="210" y2="330" /><line stroke="red" x1="570" x2="657" y1="210" y2="330" /><line stroke="red" x1="640" x2="657" y1="210" y2="330" /><line stroke="red" x1="720" x2="337" y1="210" y2="330" /><line stroke="red" x1="800" x2="337" y1="210" y2="330" /><line stroke="red" x1="890" x2="337" y1="210" y2="330" /><line stroke="red" x1="950" x2="710" y1="210" y2="330" /></svg>