<?xml version="1.0" encoding="utf-8" ?>
<svg baseProfile="full" height="500" version="1.1" width="1300" xmlns="http://www.w3.org/2000/svg" xmlns:ev="http://www.w3.org/2001/xml-events" xmlns:xlink="http://www.w3.org/1999/xlink"><defs /><text fill="black" x="0" y="100">VIETNAMESE </text><text fill="black" x="20" y="150">POS: </text><text fill="black" x="20" y="200">Source: </text><text fill="black" x="150" y="150">Nq</text><text fill="black" x="150" y="200">Một</text><text fill="black" x="230" y="150">Nc</text><text fill="black" x="230" y="200">chiếc</text><text fill="black" x="310" y="150">Nn</text><text fill="black" x="310" y="200">áo</text><text fill="black" x="390" y="150">Nn</text><text fill="black" x="390" y="200">đầm</text><text fill="black" x="470" y="150">Vv</text><text fill="black" x="470" y="200">được</text><text fill="black" x="550" y="150">Vv</text><text fill="black" x="550" y="200">trang_trí</text><text fill="black" x="630" y="150">Cm</text><text fill="black" x="630" y="200">bằng</text><text fill="black" x="710" y="150">Nn</text><text fill="black" x="710" y="200">ren</text><text fill="black" x="790" y="150">Cp</text><text fill="black" x="790" y="200">và</text><text fill="black" x="870" y="150">FW</text><text fill="black" x="870" y="200">ruy</text><text fill="black" x="950" y="150">PU</text><text fill="black" x="950" y="200">-</text><text fill="black" x="1030" y="150">Nn</text><text fill="black" x="1030" y="200">băng</text><text fill="black" x="1110" y="150">PU</text><text fill="black" x="1110" y="200">.</text><text fill="black" x="0" y="450">ENGLISH </text><text fill="black" x="20" y="350">Target: </text><text fill="black" x="20" y="400">POS: </text><text fill="black" x="150" y="350">A</text><text fill="black" x="150" y="400">DT</text><text fill="black" x="230" y="350">dress</text><text fill="black" x="230" y="400">NN</text><text fill="black" x="310" y="350">embellished</text><text fill="black" x="310" y="400">VBN</text><text fill="black" x="390" y="350">with</text><text fill="black" x="390" y="400">IN</text><text fill="black" x="470" y="350">lace</text><text fill="black" x="470" y="400">NN</text><text fill="black" x="550" y="350">and</text><text fill="black" x="550" y="400">CC</text><text fill="black" x="630" y="350">ribbons</text><text fill="black" x="630" y="400">NNS</text><text fill="black" x="710" y="350">.</text><text fill="black" x="710" y="400">.</text><line stroke="red" x1="160" x2="150" y1="210" y2="330" /><line stroke="red" x1="250" x2="248" y1="210" y2="330" /><line stroke="red" x1="320" x2="248" y1="210" y2="330" /><line stroke="red" x1="400" x2="248" y1="210" y2="330" /><line stroke="red" x1="590" x2="355" y1="210" y2="330" /><line stroke="red" x1="650" x2="408" y1="210" y2="330" /><line stroke="red" x1="720" x2="488" y1="210" y2="330" /><line stroke="red" x1="800" x2="559" y1="210" y2="330" /><line stroke="red" x1="880" x2="488" y1="210" y2="330" /><line stroke="red" x1="950" x2="488" y1="210" y2="330" /><line stroke="red" x1="1050" x2="657" y1="210" y2="330" /><line stroke="red" x1="1110" x2="710" y1="210" y2="330" /></svg>