<?xml version="1.0" encoding="utf-8" ?>
<svg baseProfile="full" height="500" version="1.1" width="1700" xmlns="http://www.w3.org/2000/svg" xmlns:ev="http://www.w3.org/2001/xml-events" xmlns:xlink="http://www.w3.org/1999/xlink"><defs /><text fill="black" x="0" y="100">VIETNAMESE </text><text fill="black" x="20" y="150">POS: </text><text fill="black" x="20" y="200">Source: </text><text fill="black" x="150" y="150">Nq</text><text fill="black" x="150" y="200">Một</text><text fill="black" x="230" y="150">Nn</text><text fill="black" x="230" y="200">người</text><text fill="black" x="310" y="150">Vv</text><text fill="black" x="310" y="200">say</text><text fill="black" x="390" y="150">Nn</text><text fill="black" x="390" y="200">rượu</text><text fill="black" x="470" y="150">R</text><text fill="black" x="470" y="200">không_thể</text><text fill="black" x="550" y="150">Vv</text><text fill="black" x="550" y="200">được</text><text fill="black" x="630" y="150">Vv</text><text fill="black" x="630" y="200">coi</text><text fill="black" x="710" y="150">Cp</text><text fill="black" x="710" y="200">là</text><text fill="black" x="790" y="150">Ve</text><text fill="black" x="790" y="200">có</text><text fill="black" x="870" y="150">Nn</text><text fill="black" x="870" y="200">trách_nhiệm</text><text fill="black" x="950" y="150">Aa</text><text fill="black" x="950" y="200">đầy_đủ</text><text fill="black" x="1030" y="150">Cm</text><text fill="black" x="1030" y="200">về</text><text fill="black" x="1110" y="150">Nn</text><text fill="black" x="1110" y="200">hành_vi</text><text fill="black" x="1190" y="150">Cm</text><text fill="black" x="1190" y="200">của</text><text fill="black" x="1270" y="150">Nn</text><text fill="black" x="1270" y="200">anh</text><text fill="black" x="1350" y="150">Pp</text><text fill="black" x="1350" y="200">ta</text><text fill="black" x="1430" y="150">PU</text><text fill="black" x="1430" y="200">.</text><text fill="black" x="0" y="450">ENGLISH </text><text fill="black" x="20" y="350">Target: </text><text fill="black" x="20" y="400">POS: </text><text fill="black" x="150" y="350">A</text><text fill="black" x="150" y="400">DT</text><text fill="black" x="230" y="350">drunk</text><text fill="black" x="230" y="400">JJ</text><text fill="black" x="310" y="350">man</text><text fill="black" x="310" y="400">NN</text><text fill="black" x="390" y="350">cannot</text><text fill="black" x="390" y="400">-</text><text fill="black" x="470" y="350">be</text><text fill="black" x="470" y="400">-</text><text fill="black" x="550" y="350">considered</text><text fill="black" x="550" y="400">-</text><text fill="black" x="630" y="350">fully</text><text fill="black" x="630" y="400">-</text><text fill="black" x="710" y="350">responsible</text><text fill="black" x="710" y="400">-</text><text fill="black" x="790" y="350">for</text><text fill="black" x="790" y="400">-</text><text fill="black" x="870" y="350">his</text><text fill="black" x="870" y="400">-</text><text fill="black" x="950" y="350">actions</text><text fill="black" x="950" y="400">-</text><text fill="black" x="1030" y="350">.</text><text fill="black" x="1030" y="400">-</text><line stroke="red" x1="160" x2="150" y1="210" y2="330" /><line stroke="red" x1="250" x2="319" y1="210" y2="330" /><line stroke="red" x1="320" x2="248" y1="210" y2="330" /><line stroke="red" x1="410" x2="248" y1="210" y2="330" /><line stroke="red" x1="510" x2="417" y1="210" y2="330" /><line stroke="red" x1="570" x2="473" y1="210" y2="330" /><line stroke="red" x1="640" x2="595" y1="210" y2="330" /><line stroke="red" x1="720" x2="595" y1="210" y2="330" /><line stroke="red" x1="920" x2="755" y1="210" y2="330" /><line stroke="red" x1="980" x2="648" y1="210" y2="330" /><line stroke="red" x1="1040" x2="755" y1="210" y2="330" /><line stroke="red" x1="1140" x2="977" y1="210" y2="330" /><line stroke="red" x1="1280" x2="879" y1="210" y2="330" /><line stroke="red" x1="1360" x2="879" y1="210" y2="330" /><line stroke="red" x1="1430" x2="1030" y1="210" y2="330" /></svg>