<?xml version="1.0" encoding="utf-8" ?>
<svg baseProfile="full" height="500" version="1.1" width="900" xmlns="http://www.w3.org/2000/svg" xmlns:ev="http://www.w3.org/2001/xml-events" xmlns:xlink="http://www.w3.org/1999/xlink"><defs /><text fill="black" x="0" y="100">VIETNAMESE </text><text fill="black" x="20" y="150">POS: </text><text fill="black" x="20" y="200">Source: </text><text fill="black" x="150" y="150">Nn</text><text fill="black" x="150" y="200">Nhà_máy</text><text fill="black" x="230" y="150">Vv</text><text fill="black" x="230" y="200">cung_cấp</text><text fill="black" x="310" y="150">Nq</text><text fill="black" x="310" y="200">các</text><text fill="black" x="390" y="150">Nn</text><text fill="black" x="390" y="200">bộ_phận</text><text fill="black" x="470" y="150">Cp</text><text fill="black" x="470" y="200">cho</text><text fill="black" x="550" y="150">Nn</text><text fill="black" x="550" y="200">công_nghiệp</text><text fill="black" x="630" y="150">Nn</text><text fill="black" x="630" y="200">xe</text><text fill="black" x="710" y="150">Nn</text><text fill="black" x="710" y="200">ôtô</text><text fill="black" x="790" y="150">PU</text><text fill="black" x="790" y="200">.</text><text fill="black" x="0" y="450">ENGLISH </text><text fill="black" x="20" y="350">Target: </text><text fill="black" x="20" y="400">POS: </text><text fill="black" x="150" y="350">A</text><text fill="black" x="150" y="400">DT</text><text fill="black" x="230" y="350">factory</text><text fill="black" x="230" y="400">NN</text><text fill="black" x="310" y="350">supplying</text><text fill="black" x="310" y="400">VBG</text><text fill="black" x="390" y="350">components</text><text fill="black" x="390" y="400">NNS</text><text fill="black" x="470" y="350">for</text><text fill="black" x="470" y="400">IN</text><text fill="black" x="550" y="350">the</text><text fill="black" x="550" y="400">DT</text><text fill="black" x="630" y="350">car</text><text fill="black" x="630" y="400">NN</text><text fill="black" x="710" y="350">industry</text><text fill="black" x="710" y="400">NN</text><text fill="black" x="790" y="350">.</text><text fill="black" x="790" y="400">.</text><line stroke="red" x1="180" x2="257" y1="210" y2="330" /><line stroke="red" x1="270" x2="346" y1="210" y2="330" /><line stroke="red" x1="320" x2="435" y1="210" y2="330" /><line stroke="red" x1="420" x2="435" y1="210" y2="330" /><line stroke="red" x1="480" x2="479" y1="210" y2="330" /><line stroke="red" x1="600" x2="746" y1="210" y2="330" /><line stroke="red" x1="640" x2="639" y1="210" y2="330" /><line stroke="red" x1="720" x2="639" y1="210" y2="330" /><line stroke="red" x1="790" x2="790" y1="210" y2="330" /></svg>