<?xml version="1.0" encoding="utf-8" ?>
<svg baseProfile="full" height="500" version="1.1" width="1500" xmlns="http://www.w3.org/2000/svg" xmlns:ev="http://www.w3.org/2001/xml-events" xmlns:xlink="http://www.w3.org/1999/xlink"><defs /><text fill="black" x="0" y="100">VIETNAMESE </text><text fill="black" x="20" y="150">POS: </text><text fill="black" x="20" y="200">Source: </text><text fill="black" x="150" y="150">Nq</text><text fill="black" x="150" y="200">Một</text><text fill="black" x="230" y="150">Nn</text><text fill="black" x="230" y="200">gương_mặt</text><text fill="black" x="310" y="150">Vv</text><text fill="black" x="310" y="200">biểu_lộ</text><text fill="black" x="390" y="150">Pp</text><text fill="black" x="390" y="200">cả</text><text fill="black" x="470" y="150">Nn</text><text fill="black" x="470" y="200">loạt</text><text fill="black" x="550" y="150">Nn</text><text fill="black" x="550" y="200">cảm_xúc</text><text fill="black" x="630" y="150">Cm</text><text fill="black" x="630" y="200">từ</text><text fill="black" x="710" y="150">Aa</text><text fill="black" x="710" y="200">giận_dữ</text><text fill="black" x="790" y="150">Cm</text><text fill="black" x="790" y="200">tới</text><text fill="black" x="870" y="150">Vv</text><text fill="black" x="870" y="200">hài_lòng</text><text fill="black" x="950" y="150">Aa</text><text fill="black" x="950" y="200">thoải_mái</text><text fill="black" x="1030" y="150">PU</text><text fill="black" x="1030" y="200">.</text><text fill="black" x="0" y="450">ENGLISH </text><text fill="black" x="20" y="350">Target: </text><text fill="black" x="20" y="400">POS: </text><text fill="black" x="150" y="350">A</text><text fill="black" x="150" y="400">DT</text><text fill="black" x="230" y="350">face</text><text fill="black" x="230" y="400">NN</text><text fill="black" x="310" y="350">that</text><text fill="black" x="310" y="400">WDT</text><text fill="black" x="390" y="350">expressed</text><text fill="black" x="390" y="400">VBD</text><text fill="black" x="470" y="350">a</text><text fill="black" x="470" y="400">DT</text><text fill="black" x="550" y="350">gamut</text><text fill="black" x="550" y="400">NN</text><text fill="black" x="630" y="350">of</text><text fill="black" x="630" y="400">IN</text><text fill="black" x="710" y="350">emotions</text><text fill="black" x="710" y="400">NNS</text><text fill="black" x="790" y="350">,</text><text fill="black" x="790" y="400">,</text><text fill="black" x="870" y="350">from</text><text fill="black" x="870" y="400">IN</text><text fill="black" x="950" y="350">rage</text><text fill="black" x="950" y="400">NN</text><text fill="black" x="1030" y="350">to</text><text fill="black" x="1030" y="400">TO</text><text fill="black" x="1110" y="350">peaceful</text><text fill="black" x="1110" y="400">JJ</text><text fill="black" x="1190" y="350">contentment</text><text fill="black" x="1190" y="400">NN</text><text fill="black" x="1270" y="350">.</text><text fill="black" x="1270" y="400">.</text><line stroke="red" x1="160" x2="150" y1="210" y2="330" /><line stroke="red" x1="270" x2="248" y1="210" y2="330" /><line stroke="red" x1="340" x2="426" y1="210" y2="330" /><line stroke="red" x1="400" x2="568" y1="210" y2="330" /><line stroke="red" x1="490" x2="568" y1="210" y2="330" /><line stroke="red" x1="580" x2="746" y1="210" y2="330" /><line stroke="red" x1="640" x2="888" y1="210" y2="330" /><line stroke="red" x1="740" x2="1235" y1="210" y2="330" /><line stroke="red" x1="800" x2="1235" y1="210" y2="330" /><line stroke="red" x1="910" x2="1235" y1="210" y2="330" /><line stroke="red" x1="990" x2="1235" y1="210" y2="330" /><line stroke="red" x1="1030" x2="1270" y1="210" y2="330" /></svg>