<?xml version="1.0" encoding="utf-8" ?>
<svg baseProfile="full" height="500" version="1.1" width="1300" xmlns="http://www.w3.org/2000/svg" xmlns:ev="http://www.w3.org/2001/xml-events" xmlns:xlink="http://www.w3.org/1999/xlink"><defs /><text fill="black" x="0" y="100">VIETNAMESE </text><text fill="black" x="20" y="150">POS: </text><text fill="black" x="20" y="200">Source: </text><text fill="black" x="150" y="150">Nn</text><text fill="black" x="150" y="200">Gương_mặt</text><text fill="black" x="230" y="150">Vv</text><text fill="black" x="230" y="200">thay_đổi</text><text fill="black" x="310" y="150">Cp</text><text fill="black" x="310" y="200">vì</text><text fill="black" x="390" y="150">Ve</text><text fill="black" x="390" y="200">có</text><text fill="black" x="470" y="150">Nq</text><text fill="black" x="470" y="200">những</text><text fill="black" x="550" y="150">Nn</text><text fill="black" x="550" y="200">nét</text><text fill="black" x="630" y="150">Cp</text><text fill="black" x="630" y="200">và</text><text fill="black" x="710" y="150">Nn</text><text fill="black" x="710" y="200">nếp</text><text fill="black" x="790" y="150">Aa</text><text fill="black" x="790" y="200">nhăn</text><text fill="black" x="870" y="150">Aa</text><text fill="black" x="870" y="200">nho_nhỏ</text><text fill="black" x="950" y="150">Vv</text><text fill="black" x="950" y="200">hằn</text><text fill="black" x="1030" y="150">R</text><text fill="black" x="1030" y="200">lên</text><text fill="black" x="1110" y="150">PU</text><text fill="black" x="1110" y="200">.</text><text fill="black" x="0" y="450">ENGLISH </text><text fill="black" x="20" y="350">Target: </text><text fill="black" x="20" y="400">POS: </text><text fill="black" x="150" y="350">A</text><text fill="black" x="150" y="400">DT</text><text fill="black" x="230" y="350">face</text><text fill="black" x="230" y="400">NN</text><text fill="black" x="310" y="350">etched</text><text fill="black" x="310" y="400">VBN</text><text fill="black" x="390" y="350">with</text><text fill="black" x="390" y="400">IN</text><text fill="black" x="470" y="350">a</text><text fill="black" x="470" y="400">DT</text><text fill="black" x="550" y="350">patina</text><text fill="black" x="550" y="400">NN</text><text fill="black" x="630" y="350">of</text><text fill="black" x="630" y="400">IN</text><text fill="black" x="710" y="350">fine</text><text fill="black" x="710" y="400">NN</text><text fill="black" x="790" y="350">lines</text><text fill="black" x="790" y="400">NNS</text><text fill="black" x="870" y="350">and</text><text fill="black" x="870" y="400">CC</text><text fill="black" x="950" y="350">tiny</text><text fill="black" x="950" y="400">JJ</text><text fill="black" x="1030" y="350">wrinkles</text><text fill="black" x="1030" y="400">NNS</text><text fill="black" x="1110" y="350">.</text><text fill="black" x="1110" y="400">.</text><line stroke="red" x1="190" x2="248" y1="210" y2="330" /><line stroke="red" x1="270" x2="577" y1="210" y2="330" /><line stroke="red" x1="320" x2="577" y1="210" y2="330" /><line stroke="red" x1="490" x2="577" y1="210" y2="330" /><line stroke="red" x1="560" x2="577" y1="210" y2="330" /><line stroke="red" x1="640" x2="879" y1="210" y2="330" /><line stroke="red" x1="720" x2="1066" y1="210" y2="330" /><line stroke="red" x1="810" x2="1066" y1="210" y2="330" /><line stroke="red" x1="900" x2="577" y1="210" y2="330" /><line stroke="red" x1="960" x2="577" y1="210" y2="330" /><line stroke="red" x1="1040" x2="577" y1="210" y2="330" /><line stroke="red" x1="1110" x2="1110" y1="210" y2="330" /></svg>