<?xml version="1.0" encoding="utf-8" ?>
<svg baseProfile="full" height="500" version="1.1" width="1500" xmlns="http://www.w3.org/2000/svg" xmlns:ev="http://www.w3.org/2001/xml-events" xmlns:xlink="http://www.w3.org/1999/xlink"><defs /><text fill="black" x="0" y="100">VIETNAMESE </text><text fill="black" x="20" y="150">POS: </text><text fill="black" x="20" y="200">Source: </text><text fill="black" x="150" y="150">Nq</text><text fill="black" x="150" y="200">Một</text><text fill="black" x="230" y="150">Nn</text><text fill="black" x="230" y="200">bước</text><text fill="black" x="310" y="150">Aa</text><text fill="black" x="310" y="200">hụt</text><text fill="black" x="390" y="150">Cm</text><text fill="black" x="390" y="200">của</text><text fill="black" x="470" y="150">Nq</text><text fill="black" x="470" y="200">những</text><text fill="black" x="550" y="150">Nn</text><text fill="black" x="550" y="200">người</text><text fill="black" x="630" y="150">Vv</text><text fill="black" x="630" y="200">leo</text><text fill="black" x="710" y="150">Nn</text><text fill="black" x="710" y="200">núi</text><text fill="black" x="790" y="150">Aa</text><text fill="black" x="790" y="200">có_thể</text><text fill="black" x="870" y="150">Vv</text><text fill="black" x="870" y="200">đổi</text><text fill="black" x="950" y="150">Cm</text><text fill="black" x="950" y="200">bằng</text><text fill="black" x="1030" y="150">Nn</text><text fill="black" x="1030" y="200">tính_mạng</text><text fill="black" x="1110" y="150">Cm</text><text fill="black" x="1110" y="200">của</text><text fill="black" x="1190" y="150">Pp</text><text fill="black" x="1190" y="200">họ</text><text fill="black" x="1270" y="150">PU</text><text fill="black" x="1270" y="200">.</text><text fill="black" x="0" y="450">ENGLISH </text><text fill="black" x="20" y="350">Target: </text><text fill="black" x="20" y="400">POS: </text><text fill="black" x="150" y="350">A</text><text fill="black" x="150" y="400">DT</text><text fill="black" x="230" y="350">false</text><text fill="black" x="230" y="400">JJ</text><text fill="black" x="310" y="350">step</text><text fill="black" x="310" y="400">NN</text><text fill="black" x="390" y="350">could</text><text fill="black" x="390" y="400">MD</text><text fill="black" x="470" y="350">have</text><text fill="black" x="470" y="400">VB</text><text fill="black" x="550" y="350">cost</text><text fill="black" x="550" y="400">VBN</text><text fill="black" x="630" y="350">the</text><text fill="black" x="630" y="400">DT</text><text fill="black" x="710" y="350">climbers</text><text fill="black" x="710" y="400">NNS</text><text fill="black" x="790" y="350">their</text><text fill="black" x="790" y="400">PRP$</text><text fill="black" x="870" y="350">lives</text><text fill="black" x="870" y="400">NNS</text><text fill="black" x="950" y="350">.</text><text fill="black" x="950" y="400">.</text><line stroke="red" x1="160" x2="150" y1="210" y2="330" /><line stroke="red" x1="250" x2="328" y1="210" y2="330" /><line stroke="red" x1="320" x2="328" y1="210" y2="330" /><line stroke="red" x1="570" x2="746" y1="210" y2="330" /><line stroke="red" x1="640" x2="746" y1="210" y2="330" /><line stroke="red" x1="720" x2="746" y1="210" y2="330" /><line stroke="red" x1="820" x2="408" y1="210" y2="330" /><line stroke="red" x1="880" x2="746" y1="210" y2="330" /><line stroke="red" x1="970" x2="746" y1="210" y2="330" /><line stroke="red" x1="1070" x2="746" y1="210" y2="330" /><line stroke="red" x1="1200" x2="808" y1="210" y2="330" /><line stroke="red" x1="1270" x2="950" y1="210" y2="330" /></svg>