<?xml version="1.0" encoding="utf-8" ?>
<svg baseProfile="full" height="500" version="1.1" width="1400" xmlns="http://www.w3.org/2000/svg" xmlns:ev="http://www.w3.org/2001/xml-events" xmlns:xlink="http://www.w3.org/1999/xlink"><defs /><text fill="black" x="0" y="100">VIETNAMESE </text><text fill="black" x="20" y="150">POS: </text><text fill="black" x="20" y="200">Source: </text><text fill="black" x="150" y="150">Nc</text><text fill="black" x="150" y="200">Sự</text><text fill="black" x="230" y="150">Vv</text><text fill="black" x="230" y="200">giảm</text><text fill="black" x="310" y="150">Nn</text><text fill="black" x="310" y="200">mức</text><text fill="black" x="390" y="150">Nn</text><text fill="black" x="390" y="200">lãi_suất</text><text fill="black" x="470" y="150">Vc</text><text fill="black" x="470" y="200">là</text><text fill="black" x="550" y="150">Nq</text><text fill="black" x="550" y="200">một</text><text fill="black" x="630" y="150">Nc</text><text fill="black" x="630" y="200">điều</text><text fill="black" x="710" y="150">Aa</text><text fill="black" x="710" y="200">có_thể</text><text fill="black" x="790" y="150">Vv</text><text fill="black" x="790" y="200">xảy_ra</text><text fill="black" x="870" y="150">Cm</text><text fill="black" x="870" y="200">trong</text><text fill="black" x="950" y="150">Nn</text><text fill="black" x="950" y="200">tình_hình</text><text fill="black" x="1030" y="150">Nn</text><text fill="black" x="1030" y="200">kinh_tế</text><text fill="black" x="1110" y="150">Nt</text><text fill="black" x="1110" y="200">hiện_nay</text><text fill="black" x="1190" y="150">PU</text><text fill="black" x="1190" y="200">.</text><text fill="black" x="0" y="450">ENGLISH </text><text fill="black" x="20" y="350">Target: </text><text fill="black" x="20" y="400">POS: </text><text fill="black" x="150" y="350">A</text><text fill="black" x="150" y="400">DT</text><text fill="black" x="230" y="350">fall</text><text fill="black" x="230" y="400">NN</text><text fill="black" x="310" y="350">in</text><text fill="black" x="310" y="400">IN</text><text fill="black" x="390" y="350">interest</text><text fill="black" x="390" y="400">NN</text><text fill="black" x="470" y="350">rates</text><text fill="black" x="470" y="400">NNS</text><text fill="black" x="550" y="350">is</text><text fill="black" x="550" y="400">VBZ</text><text fill="black" x="630" y="350">a</text><text fill="black" x="630" y="400">DT</text><text fill="black" x="710" y="350">probability</text><text fill="black" x="710" y="400">NN</text><text fill="black" x="790" y="350">in</text><text fill="black" x="790" y="400">IN</text><text fill="black" x="870" y="350">the</text><text fill="black" x="870" y="400">DT</text><text fill="black" x="950" y="350">present</text><text fill="black" x="950" y="400">JJ</text><text fill="black" x="1030" y="350">economic</text><text fill="black" x="1030" y="400">JJ</text><text fill="black" x="1110" y="350">climate</text><text fill="black" x="1110" y="400">NN</text><text fill="black" x="1190" y="350">.</text><text fill="black" x="1190" y="400">.</text><line stroke="red" x1="160" x2="150" y1="210" y2="330" /><line stroke="red" x1="250" x2="248" y1="210" y2="330" /><line stroke="red" x1="320" x2="488" y1="210" y2="330" /><line stroke="red" x1="430" x2="488" y1="210" y2="330" /><line stroke="red" x1="480" x2="553" y1="210" y2="330" /><line stroke="red" x1="560" x2="630" y1="210" y2="330" /><line stroke="red" x1="650" x2="755" y1="210" y2="330" /><line stroke="red" x1="740" x2="755" y1="210" y2="330" /><line stroke="red" x1="820" x2="755" y1="210" y2="330" /><line stroke="red" x1="890" x2="793" y1="210" y2="330" /><line stroke="red" x1="990" x2="755" y1="210" y2="330" /><line stroke="red" x1="1060" x2="1066" y1="210" y2="330" /><line stroke="red" x1="1150" x2="977" y1="210" y2="330" /><line stroke="red" x1="1190" x2="1190" y1="210" y2="330" /></svg>