<?xml version="1.0" encoding="utf-8" ?>
<svg baseProfile="full" height="500" version="1.1" width="2200" xmlns="http://www.w3.org/2000/svg" xmlns:ev="http://www.w3.org/2001/xml-events" xmlns:xlink="http://www.w3.org/1999/xlink"><defs /><text fill="black" x="0" y="100">VIETNAMESE </text><text fill="black" x="20" y="150">POS: </text><text fill="black" x="20" y="200">Source: </text><text fill="black" x="150" y="150">Nc</text><text fill="black" x="150" y="200">Sự</text><text fill="black" x="230" y="150">Vv</text><text fill="black" x="230" y="200">giảm_sút</text><text fill="black" x="310" y="150">Nn</text><text fill="black" x="310" y="200">nhu_cầu</text><text fill="black" x="390" y="150">Nn</text><text fill="black" x="390" y="200">tàu</text><text fill="black" x="470" y="150">Vv</text><text fill="black" x="470" y="200">chở</text><text fill="black" x="550" y="150">Nn</text><text fill="black" x="550" y="200">dầu</text><text fill="black" x="630" y="150">R</text><text fill="black" x="630" y="200">đã</text><text fill="black" x="710" y="150">Vv</text><text fill="black" x="710" y="200">làm</text><text fill="black" x="790" y="150">Cp</text><text fill="black" x="790" y="200">cho</text><text fill="black" x="870" y="150">R</text><text fill="black" x="870" y="200">hàng</text><text fill="black" x="950" y="150">Nq</text><text fill="black" x="950" y="200">ngàn</text><text fill="black" x="1030" y="150">ID</text><text fill="black" x="1030" y="200">công_ăn_việc_làm</text><text fill="black" x="1110" y="150">Cm</text><text fill="black" x="1110" y="200">trong</text><text fill="black" x="1190" y="150">Nn</text><text fill="black" x="1190" y="200">ngành</text><text fill="black" x="1270" y="150">Nn</text><text fill="black" x="1270" y="200">công_nghiệp</text><text fill="black" x="1350" y="150">Vv</text><text fill="black" x="1350" y="200">đóng</text><text fill="black" x="1430" y="150">Nn</text><text fill="black" x="1430" y="200">tàu</text><text fill="black" x="1510" y="150">Vv</text><text fill="black" x="1510" y="200">lâm</text><text fill="black" x="1590" y="150">Cm</text><text fill="black" x="1590" y="200">vào</text><text fill="black" x="1670" y="150">Nn</text><text fill="black" x="1670" y="200">tình_trạng</text><text fill="black" x="1750" y="150">Aa</text><text fill="black" x="1750" y="200">nguy_ngập</text><text fill="black" x="1830" y="150">PU</text><text fill="black" x="1830" y="200">.</text><text fill="black" x="0" y="450">ENGLISH </text><text fill="black" x="20" y="350">Target: </text><text fill="black" x="20" y="400">POS: </text><text fill="black" x="150" y="350">A</text><text fill="black" x="150" y="400">DT</text><text fill="black" x="230" y="350">fall</text><text fill="black" x="230" y="400">NN</text><text fill="black" x="310" y="350">in</text><text fill="black" x="310" y="400">IN</text><text fill="black" x="390" y="350">demand</text><text fill="black" x="390" y="400">NN</text><text fill="black" x="470" y="350">for</text><text fill="black" x="470" y="400">IN</text><text fill="black" x="550" y="350">oil</text><text fill="black" x="550" y="400">NN</text><text fill="black" x="630" y="350">tankers</text><text fill="black" x="630" y="400">NNS</text><text fill="black" x="710" y="350">has</text><text fill="black" x="710" y="400">VBZ</text><text fill="black" x="790" y="350">placed</text><text fill="black" x="790" y="400">VBN</text><text fill="black" x="870" y="350">thousands</text><text fill="black" x="870" y="400">NNS</text><text fill="black" x="950" y="350">of</text><text fill="black" x="950" y="400">IN</text><text fill="black" x="1030" y="350">jobs</text><text fill="black" x="1030" y="400">NNS</text><text fill="black" x="1110" y="350">in</text><text fill="black" x="1110" y="400">IN</text><text fill="black" x="1190" y="350">the</text><text fill="black" x="1190" y="400">DT</text><text fill="black" x="1270" y="350">ship</text><text fill="black" x="1270" y="400">NN</text><text fill="black" x="1350" y="350">-</text><text fill="black" x="1350" y="400">:</text><text fill="black" x="1430" y="350">building</text><text fill="black" x="1430" y="400">VBG</text><text fill="black" x="1510" y="350">industry</text><text fill="black" x="1510" y="400">NN</text><text fill="black" x="1590" y="350">in</text><text fill="black" x="1590" y="400">IN</text><text fill="black" x="1670" y="350">jeopardy</text><text fill="black" x="1670" y="400">NN</text><text fill="black" x="1750" y="350">.</text><text fill="black" x="1750" y="400">.</text><line stroke="red" x1="160" x2="150" y1="210" y2="330" /><line stroke="red" x1="270" x2="248" y1="210" y2="330" /><line stroke="red" x1="340" x2="417" y1="210" y2="330" /><line stroke="red" x1="400" x2="1288" y1="210" y2="330" /><line stroke="red" x1="480" x2="657" y1="210" y2="330" /><line stroke="red" x1="560" x2="559" y1="210" y2="330" /><line stroke="red" x1="720" x2="657" y1="210" y2="330" /><line stroke="red" x1="890" x2="906" y1="210" y2="330" /><line stroke="red" x1="970" x2="906" y1="210" y2="330" /><line stroke="red" x1="1110" x2="1048" y1="210" y2="330" /><line stroke="red" x1="1130" x2="1113" y1="210" y2="330" /><line stroke="red" x1="1210" x2="1546" y1="210" y2="330" /><line stroke="red" x1="1320" x2="1546" y1="210" y2="330" /><line stroke="red" x1="1370" x2="1706" y1="210" y2="330" /><line stroke="red" x1="1440" x2="1288" y1="210" y2="330" /><line stroke="red" x1="1520" x2="1706" y1="210" y2="330" /><line stroke="red" x1="1600" x2="1706" y1="210" y2="330" /><line stroke="red" x1="1720" x2="1706" y1="210" y2="330" /><line stroke="red" x1="1790" x2="1706" y1="210" y2="330" /><line stroke="red" x1="1830" x2="1750" y1="210" y2="330" /></svg>