<?xml version="1.0" encoding="utf-8" ?>
<svg baseProfile="full" height="500" version="1.1" width="800" xmlns="http://www.w3.org/2000/svg" xmlns:ev="http://www.w3.org/2001/xml-events" xmlns:xlink="http://www.w3.org/1999/xlink"><defs /><text fill="black" x="0" y="100">VIETNAMESE </text><text fill="black" x="20" y="150">POS: </text><text fill="black" x="20" y="200">Source: </text><text fill="black" x="150" y="150">Nq</text><text fill="black" x="150" y="200">Một</text><text fill="black" x="230" y="150">Nn</text><text fill="black" x="230" y="200">gia_đình</text><text fill="black" x="310" y="150">R</text><text fill="black" x="310" y="200">đã</text><text fill="black" x="390" y="150">Vv</text><text fill="black" x="390" y="200">sinh</text><text fill="black" x="470" y="150">R</text><text fill="black" x="470" y="200">ra</text><text fill="black" x="550" y="150">Nq</text><text fill="black" x="550" y="200">một</text><text fill="black" x="630" y="150">Nn</text><text fill="black" x="630" y="200">quái_thai</text><text fill="black" x="710" y="150">PU</text><text fill="black" x="710" y="200">.</text><text fill="black" x="0" y="450">ENGLISH </text><text fill="black" x="20" y="350">Target: </text><text fill="black" x="20" y="400">POS: </text><text fill="black" x="150" y="350">A</text><text fill="black" x="150" y="400">DT</text><text fill="black" x="230" y="350">family</text><text fill="black" x="230" y="400">NN</text><text fill="black" x="310" y="350">that</text><text fill="black" x="310" y="400">WDT</text><text fill="black" x="390" y="350">has</text><text fill="black" x="390" y="400">VBZ</text><text fill="black" x="470" y="350">spawned</text><text fill="black" x="470" y="400">VBN</text><text fill="black" x="550" y="350">a</text><text fill="black" x="550" y="400">DT</text><text fill="black" x="630" y="350">monster</text><text fill="black" x="630" y="400">NN</text><text fill="black" x="710" y="350">.</text><text fill="black" x="710" y="400">.</text><line stroke="red" x1="160" x2="150" y1="210" y2="330" /><line stroke="red" x1="270" x2="257" y1="210" y2="330" /><line stroke="red" x1="320" x2="399" y1="210" y2="330" /><line stroke="red" x1="410" x2="497" y1="210" y2="330" /><line stroke="red" x1="480" x2="497" y1="210" y2="330" /><line stroke="red" x1="560" x2="550" y1="210" y2="330" /><line stroke="red" x1="670" x2="657" y1="210" y2="330" /><line stroke="red" x1="710" x2="710" y1="210" y2="330" /></svg>