<?xml version="1.0" encoding="utf-8" ?>
<svg baseProfile="full" height="500" version="1.1" width="1200" xmlns="http://www.w3.org/2000/svg" xmlns:ev="http://www.w3.org/2001/xml-events" xmlns:xlink="http://www.w3.org/1999/xlink"><defs /><text fill="black" x="0" y="100">VIETNAMESE </text><text fill="black" x="20" y="150">POS: </text><text fill="black" x="20" y="200">Source: </text><text fill="black" x="150" y="150">Nq</text><text fill="black" x="150" y="200">Một</text><text fill="black" x="230" y="150">Nn</text><text fill="black" x="230" y="200">bữa</text><text fill="black" x="310" y="150">Nn</text><text fill="black" x="310" y="200">tiệc</text><text fill="black" x="390" y="150">Nn</text><text fill="black" x="390" y="200">gia_đình</text><text fill="black" x="470" y="150">Cp</text><text fill="black" x="470" y="200">với</text><text fill="black" x="550" y="150">Nc</text><text fill="black" x="550" y="200">sự</text><text fill="black" x="630" y="150">Aa</text><text fill="black" x="630" y="200">có_mặt</text><text fill="black" x="710" y="150">Cm</text><text fill="black" x="710" y="200">của</text><text fill="black" x="790" y="150">Pp</text><text fill="black" x="790" y="200">cả</text><text fill="black" x="870" y="150">Nq</text><text fill="black" x="870" y="200">ba</text><text fill="black" x="950" y="150">Nn</text><text fill="black" x="950" y="200">đời</text><text fill="black" x="1030" y="150">PU</text><text fill="black" x="1030" y="200">.</text><text fill="black" x="0" y="450">ENGLISH </text><text fill="black" x="20" y="350">Target: </text><text fill="black" x="20" y="400">POS: </text><text fill="black" x="150" y="350">A</text><text fill="black" x="150" y="400">DT</text><text fill="black" x="230" y="350">family</text><text fill="black" x="230" y="400">NN</text><text fill="black" x="310" y="350">party</text><text fill="black" x="310" y="400">NN</text><text fill="black" x="390" y="350">at</text><text fill="black" x="390" y="400">IN</text><text fill="black" x="470" y="350">which</text><text fill="black" x="470" y="400">WDT</text><text fill="black" x="550" y="350">all</text><text fill="black" x="550" y="400">DT</text><text fill="black" x="630" y="350">three</text><text fill="black" x="630" y="400">CD</text><text fill="black" x="710" y="350">generations</text><text fill="black" x="710" y="400">NNS</text><text fill="black" x="790" y="350">were</text><text fill="black" x="790" y="400">VBD</text><text fill="black" x="870" y="350">present</text><text fill="black" x="870" y="400">JJ</text><text fill="black" x="950" y="350">.</text><text fill="black" x="950" y="400">.</text><line stroke="red" x1="160" x2="150" y1="210" y2="330" /><line stroke="red" x1="240" x2="328" y1="210" y2="330" /><line stroke="red" x1="330" x2="328" y1="210" y2="330" /><line stroke="red" x1="430" x2="257" y1="210" y2="330" /><line stroke="red" x1="560" x2="755" y1="210" y2="330" /><line stroke="red" x1="660" x2="897" y1="210" y2="330" /><line stroke="red" x1="800" x2="559" y1="210" y2="330" /><line stroke="red" x1="880" x2="648" y1="210" y2="330" /><line stroke="red" x1="960" x2="755" y1="210" y2="330" /><line stroke="red" x1="1030" x2="950" y1="210" y2="330" /></svg>