<?xml version="1.0" encoding="utf-8" ?>
<svg baseProfile="full" height="500" version="1.1" width="2500" xmlns="http://www.w3.org/2000/svg" xmlns:ev="http://www.w3.org/2001/xml-events" xmlns:xlink="http://www.w3.org/1999/xlink"><defs /><text fill="black" x="0" y="100">VIETNAMESE </text><text fill="black" x="20" y="150">POS: </text><text fill="black" x="20" y="200">Source: </text><text fill="black" x="150" y="150">Vv</text><text fill="black" x="150" y="200">Cứ</text><text fill="black" x="230" y="150">Nq</text><text fill="black" x="230" y="200">mỗi</text><text fill="black" x="310" y="150">Nn</text><text fill="black" x="310" y="200">lần</text><text fill="black" x="390" y="150">Nn</text><text fill="black" x="390" y="200">cửa_hàng</text><text fill="black" x="470" y="150">Pd</text><text fill="black" x="470" y="200">đó</text><text fill="black" x="550" y="150">Vv</text><text fill="black" x="550" y="200">thông_báo</text><text fill="black" x="630" y="150">Vv</text><text fill="black" x="630" y="200">bán</text><text fill="black" x="710" y="150">Nq</text><text fill="black" x="710" y="200">nửa</text><text fill="black" x="790" y="150">Nn</text><text fill="black" x="790" y="200">giá</text><text fill="black" x="870" y="150">Aa</text><text fill="black" x="870" y="200">đặc_biệt</text><text fill="black" x="950" y="150">Cm</text><text fill="black" x="950" y="200">về</text><text fill="black" x="1030" y="150">Nn</text><text fill="black" x="1030" y="200">thiết_bị</text><text fill="black" x="1110" y="150">FW</text><text fill="black" x="1110" y="200">stêrêo</text><text fill="black" x="1190" y="150">Aa</text><text fill="black" x="1190" y="200">đắt</text><text fill="black" x="1270" y="150">Nn</text><text fill="black" x="1270" y="200">tiền</text><text fill="black" x="1350" y="150">Cs</text><text fill="black" x="1350" y="200">thì</text><text fill="black" x="1430" y="150">Nn</text><text fill="black" x="1430" y="200">anh</text><text fill="black" x="1510" y="150">Pp</text><text fill="black" x="1510" y="200">ta</text><text fill="black" x="1590" y="150">R</text><text fill="black" x="1590" y="200">lại</text><text fill="black" x="1670" y="150">Ve</text><text fill="black" x="1670" y="200">có</text><text fill="black" x="1750" y="150">M</text><text fill="black" x="1750" y="200">được</text><text fill="black" x="1830" y="150">Nq</text><text fill="black" x="1830" y="200">một</text><text fill="black" x="1910" y="150">Nt</text><text fill="black" x="1910" y="200">lúc</text><text fill="black" x="1990" y="150">Aa</text><text fill="black" x="1990" y="200">hồ_hởi</text><text fill="black" x="2070" y="150">PU</text><text fill="black" x="2070" y="200">.</text><text fill="black" x="0" y="450">ENGLISH </text><text fill="black" x="20" y="350">Target: </text><text fill="black" x="20" y="400">POS: </text><text fill="black" x="150" y="350">A</text><text fill="black" x="150" y="400">DT</text><text fill="black" x="230" y="350">familiar</text><text fill="black" x="230" y="400">JJ</text><text fill="black" x="310" y="350">rush</text><text fill="black" x="310" y="400">NN</text><text fill="black" x="390" y="350">overtook</text><text fill="black" x="390" y="400">VBD</text><text fill="black" x="470" y="350">him</text><text fill="black" x="470" y="400">PRP</text><text fill="black" x="550" y="350">each</text><text fill="black" x="550" y="400">DT</text><text fill="black" x="630" y="350">time</text><text fill="black" x="630" y="400">NN</text><text fill="black" x="710" y="350">the</text><text fill="black" x="710" y="400">DT</text><text fill="black" x="790" y="350">store</text><text fill="black" x="790" y="400">NN</text><text fill="black" x="870" y="350">announced</text><text fill="black" x="870" y="400">VBD</text><text fill="black" x="950" y="350">a</text><text fill="black" x="950" y="400">DT</text><text fill="black" x="1030" y="350">half</text><text fill="black" x="1030" y="400">NN</text><text fill="black" x="1110" y="350">-</text><text fill="black" x="1110" y="400">:</text><text fill="black" x="1190" y="350">price</text><text fill="black" x="1190" y="400">NN</text><text fill="black" x="1270" y="350">special</text><text fill="black" x="1270" y="400">JJ</text><text fill="black" x="1350" y="350">on</text><text fill="black" x="1350" y="400">IN</text><text fill="black" x="1430" y="350">expensive</text><text fill="black" x="1430" y="400">JJ</text><text fill="black" x="1510" y="350">stereo</text><text fill="black" x="1510" y="400">NN</text><text fill="black" x="1590" y="350">equipment</text><text fill="black" x="1590" y="400">NN</text><text fill="black" x="1670" y="350">.</text><text fill="black" x="1670" y="400">.</text><line stroke="red" x1="160" x2="426" y1="210" y2="330" /><line stroke="red" x1="240" x2="568" y1="210" y2="330" /><line stroke="red" x1="320" x2="648" y1="210" y2="330" /><line stroke="red" x1="430" x2="808" y1="210" y2="330" /><line stroke="red" x1="590" x2="906" y1="210" y2="330" /><line stroke="red" x1="640" x2="906" y1="210" y2="330" /><line stroke="red" x1="720" x2="1048" y1="210" y2="330" /><line stroke="red" x1="800" x2="1208" y1="210" y2="330" /><line stroke="red" x1="910" x2="1297" y1="210" y2="330" /><line stroke="red" x1="960" x2="1353" y1="210" y2="330" /><line stroke="red" x1="1070" x2="1626" y1="210" y2="330" /><line stroke="red" x1="1140" x2="1537" y1="210" y2="330" /><line stroke="red" x1="1200" x2="1466" y1="210" y2="330" /><line stroke="red" x1="1290" x2="1466" y1="210" y2="330" /><line stroke="red" x1="1440" x2="479" y1="210" y2="330" /><line stroke="red" x1="1520" x2="479" y1="210" y2="330" /><line stroke="red" x1="1920" x2="1537" y1="210" y2="330" /><line stroke="red" x1="2020" x2="1537" y1="210" y2="330" /><line stroke="red" x1="2070" x2="1670" y1="210" y2="330" /></svg>