<?xml version="1.0" encoding="utf-8" ?>
<svg baseProfile="full" height="500" version="1.1" width="1300" xmlns="http://www.w3.org/2000/svg" xmlns:ev="http://www.w3.org/2001/xml-events" xmlns:xlink="http://www.w3.org/1999/xlink"><defs /><text fill="black" x="0" y="100">VIETNAMESE </text><text fill="black" x="20" y="150">POS: </text><text fill="black" x="20" y="200">Source: </text><text fill="black" x="150" y="150">Nq</text><text fill="black" x="150" y="200">Một</text><text fill="black" x="230" y="150">Nn</text><text fill="black" x="230" y="200">gia_đình</text><text fill="black" x="310" y="150">R</text><text fill="black" x="310" y="200">chỉ</text><text fill="black" x="390" y="150">Ve</text><text fill="black" x="390" y="200">có</text><text fill="black" x="470" y="150">Aa</text><text fill="black" x="470" y="200">ít</text><text fill="black" x="550" y="150">Nn</text><text fill="black" x="550" y="200">tiền</text><text fill="black" x="630" y="150">R</text><text fill="black" x="630" y="200">không_thể</text><text fill="black" x="710" y="150">Vv</text><text fill="black" x="710" y="200">mua</text><text fill="black" x="790" y="150">Nn</text><text fill="black" x="790" y="200">thịt</text><text fill="black" x="870" y="150">R</text><text fill="black" x="870" y="200">hàng</text><text fill="black" x="950" y="150">Nt</text><text fill="black" x="950" y="200">ngày</text><text fill="black" x="1030" y="150">R</text><text fill="black" x="1030" y="200">được</text><text fill="black" x="1110" y="150">PU</text><text fill="black" x="1110" y="200">.</text><text fill="black" x="0" y="450">ENGLISH </text><text fill="black" x="20" y="350">Target: </text><text fill="black" x="20" y="400">POS: </text><text fill="black" x="150" y="350">A</text><text fill="black" x="150" y="400">DT</text><text fill="black" x="230" y="350">family</text><text fill="black" x="230" y="400">NN</text><text fill="black" x="310" y="350">on</text><text fill="black" x="310" y="400">IN</text><text fill="black" x="390" y="350">a</text><text fill="black" x="390" y="400">DT</text><text fill="black" x="470" y="350">budget</text><text fill="black" x="470" y="400">NN</text><text fill="black" x="550" y="350">can't</text><text fill="black" x="550" y="400">-</text><text fill="black" x="630" y="350">afford</text><text fill="black" x="630" y="400">-</text><text fill="black" x="710" y="350">meat</text><text fill="black" x="710" y="400">-</text><text fill="black" x="790" y="350">every</text><text fill="black" x="790" y="400">-</text><text fill="black" x="870" y="350">day</text><text fill="black" x="870" y="400">-</text><text fill="black" x="950" y="350">.</text><text fill="black" x="950" y="400">-</text><line stroke="red" x1="160" x2="150" y1="210" y2="330" /><line stroke="red" x1="270" x2="257" y1="210" y2="330" /><line stroke="red" x1="320" x2="497" y1="210" y2="330" /><line stroke="red" x1="480" x2="497" y1="210" y2="330" /><line stroke="red" x1="570" x2="497" y1="210" y2="330" /><line stroke="red" x1="670" x2="568" y1="210" y2="330" /><line stroke="red" x1="720" x2="657" y1="210" y2="330" /><line stroke="red" x1="810" x2="728" y1="210" y2="330" /><line stroke="red" x1="890" x2="808" y1="210" y2="330" /><line stroke="red" x1="970" x2="879" y1="210" y2="330" /><line stroke="red" x1="1110" x2="950" y1="210" y2="330" /></svg>