<?xml version="1.0" encoding="utf-8" ?>
<svg baseProfile="full" height="500" version="1.1" width="1600" xmlns="http://www.w3.org/2000/svg" xmlns:ev="http://www.w3.org/2001/xml-events" xmlns:xlink="http://www.w3.org/1999/xlink"><defs /><text fill="black" x="0" y="100">VIETNAMESE </text><text fill="black" x="20" y="150">POS: </text><text fill="black" x="20" y="200">Source: </text><text fill="black" x="150" y="150">Nq</text><text fill="black" x="150" y="200">Một</text><text fill="black" x="230" y="150">Nt</text><text fill="black" x="230" y="200">buổi</text><text fill="black" x="310" y="150">Vv</text><text fill="black" x="310" y="200">trình_diễn</text><text fill="black" x="390" y="150">Nn</text><text fill="black" x="390" y="200">thời_trang</text><text fill="black" x="470" y="150">Cp</text><text fill="black" x="470" y="200">với</text><text fill="black" x="550" y="150">Nc</text><text fill="black" x="550" y="200">sự</text><text fill="black" x="630" y="150">Aa</text><text fill="black" x="630" y="200">có_mặt</text><text fill="black" x="710" y="150">Cm</text><text fill="black" x="710" y="200">của</text><text fill="black" x="790" y="150">Nq</text><text fill="black" x="790" y="200">tất_cả</text><text fill="black" x="870" y="150">Nq</text><text fill="black" x="870" y="200">những</text><text fill="black" x="950" y="150">Nn</text><text fill="black" x="950" y="200">nhân_vật</text><text fill="black" x="1030" y="150">Aa</text><text fill="black" x="1030" y="200">lỗi_lạc</text><text fill="black" x="1110" y="150">Cp</text><text fill="black" x="1110" y="200">và</text><text fill="black" x="1190" y="150">Nn</text><text fill="black" x="1190" y="200">đạo_đức</text><text fill="black" x="1270" y="150">Vv</text><text fill="black" x="1270" y="200">tham_dự</text><text fill="black" x="1350" y="150">PU</text><text fill="black" x="1350" y="200">.</text><text fill="black" x="0" y="450">ENGLISH </text><text fill="black" x="20" y="350">Target: </text><text fill="black" x="20" y="400">POS: </text><text fill="black" x="150" y="350">A</text><text fill="black" x="150" y="400">DT</text><text fill="black" x="230" y="350">fashionable</text><text fill="black" x="230" y="400">JJ</text><text fill="black" x="310" y="350">affair</text><text fill="black" x="310" y="400">NN</text><text fill="black" x="390" y="350">attended</text><text fill="black" x="390" y="400">VBN</text><text fill="black" x="470" y="350">by</text><text fill="black" x="470" y="400">IN</text><text fill="black" x="550" y="350">all</text><text fill="black" x="550" y="400">PDT</text><text fill="black" x="630" y="350">the</text><text fill="black" x="630" y="400">DT</text><text fill="black" x="710" y="350">great</text><text fill="black" x="710" y="400">JJ</text><text fill="black" x="790" y="350">and</text><text fill="black" x="790" y="400">CC</text><text fill="black" x="870" y="350">the</text><text fill="black" x="870" y="400">DT</text><text fill="black" x="950" y="350">good</text><text fill="black" x="950" y="400">NN</text><text fill="black" x="1030" y="350">.</text><text fill="black" x="1030" y="400">.</text><line stroke="red" x1="160" x2="150" y1="210" y2="330" /><line stroke="red" x1="250" x2="426" y1="210" y2="330" /><line stroke="red" x1="360" x2="426" y1="210" y2="330" /><line stroke="red" x1="440" x2="275" y1="210" y2="330" /><line stroke="red" x1="480" x2="337" y1="210" y2="330" /><line stroke="red" x1="560" x2="426" y1="210" y2="330" /><line stroke="red" x1="660" x2="426" y1="210" y2="330" /><line stroke="red" x1="820" x2="559" y1="210" y2="330" /><line stroke="red" x1="990" x2="275" y1="210" y2="330" /><line stroke="red" x1="1060" x2="275" y1="210" y2="330" /><line stroke="red" x1="1120" x2="799" y1="210" y2="330" /><line stroke="red" x1="1220" x2="426" y1="210" y2="330" /><line stroke="red" x1="1300" x2="426" y1="210" y2="330" /><line stroke="red" x1="1350" x2="1030" y1="210" y2="330" /></svg>