<?xml version="1.0" encoding="utf-8" ?>
<svg baseProfile="full" height="500" version="1.1" width="2700" xmlns="http://www.w3.org/2000/svg" xmlns:ev="http://www.w3.org/2001/xml-events" xmlns:xlink="http://www.w3.org/1999/xlink"><defs /><text fill="black" x="0" y="100">VIETNAMESE </text><text fill="black" x="20" y="150">POS: </text><text fill="black" x="20" y="200">Source: </text><text fill="black" x="150" y="150">Nq</text><text fill="black" x="150" y="200">Một</text><text fill="black" x="230" y="150">Nn</text><text fill="black" x="230" y="200">câu</text><text fill="black" x="310" y="150">Vv</text><text fill="black" x="310" y="200">nói</text><text fill="black" x="390" y="150">Aa</text><text fill="black" x="390" y="200">nổi_tiếng</text><text fill="black" x="470" y="150">Cm</text><text fill="black" x="470" y="200">của</text><text fill="black" x="550" y="150">Nr</text><text fill="black" x="550" y="200">Trung_Quốc</text><text fill="black" x="630" y="150">Nn</text><text fill="black" x="630" y="200">đại_ý</text><text fill="black" x="710" y="150">Cp</text><text fill="black" x="710" y="200">như</text><text fill="black" x="790" y="150">Pp</text><text fill="black" x="790" y="200">thế</text><text fill="black" x="870" y="150">Pd</text><text fill="black" x="870" y="200">này</text><text fill="black" x="950" y="150">FW</text><text fill="black" x="950" y="200">”</text><text fill="black" x="1030" y="150">Pp</text><text fill="black" x="1030" y="200">bạn</text><text fill="black" x="1110" y="150">R</text><text fill="black" x="1110" y="200">không_thể</text><text fill="black" x="1190" y="150">Vv</text><text fill="black" x="1190" y="200">được</text><text fill="black" x="1270" y="150">Vv</text><text fill="black" x="1270" y="200">gọi</text><text fill="black" x="1350" y="150">Cp</text><text fill="black" x="1350" y="200">là</text><text fill="black" x="1430" y="150">Nq</text><text fill="black" x="1430" y="200">một</text><text fill="black" x="1510" y="150">Nc</text><text fill="black" x="1510" y="200">người</text><text fill="black" x="1590" y="150">Nn</text><text fill="black" x="1590" y="200">đàn_ông</text><text fill="black" x="1670" y="150">Aa</text><text fill="black" x="1670" y="200">thực_sự</text><text fill="black" x="1750" y="150">Cp</text><text fill="black" x="1750" y="200">nếu</text><text fill="black" x="1830" y="150">Pp</text><text fill="black" x="1830" y="200">bạn</text><text fill="black" x="1910" y="150">R</text><text fill="black" x="1910" y="200">chưa</text><text fill="black" x="1990" y="150">Cm</text><text fill="black" x="1990" y="200">đến</text><text fill="black" x="2070" y="150">ID</text><text fill="black" x="2070" y="200">Vạn_Lý_Trường_Thành</text><text fill="black" x="2150" y="150">Nr</text><text fill="black" x="2150" y="200">”</text><text fill="black" x="2230" y="150">PU</text><text fill="black" x="2230" y="200">.</text><text fill="black" x="0" y="450">ENGLISH </text><text fill="black" x="20" y="350">Target: </text><text fill="black" x="20" y="400">POS: </text><text fill="black" x="150" y="350">A</text><text fill="black" x="150" y="400">DT</text><text fill="black" x="230" y="350">famous</text><text fill="black" x="230" y="400">JJ</text><text fill="black" x="310" y="350">Chinese</text><text fill="black" x="310" y="400">JJ</text><text fill="black" x="390" y="350">saying</text><text fill="black" x="390" y="400">NN</text><text fill="black" x="470" y="350">goes</text><text fill="black" x="470" y="400">VBZ</text><text fill="black" x="550" y="350">like</text><text fill="black" x="550" y="400">IN</text><text fill="black" x="630" y="350">this</text><text fill="black" x="630" y="400">DT</text><text fill="black" x="710" y="350">You</text><text fill="black" x="710" y="400">PRP</text><text fill="black" x="790" y="350">cannot</text><text fill="black" x="790" y="400">-</text><text fill="black" x="870" y="350">be</text><text fill="black" x="870" y="400">-</text><text fill="black" x="950" y="350">called</text><text fill="black" x="950" y="400">-</text><text fill="black" x="1030" y="350">a</text><text fill="black" x="1030" y="400">-</text><text fill="black" x="1110" y="350">true</text><text fill="black" x="1110" y="400">-</text><text fill="black" x="1190" y="350">man</text><text fill="black" x="1190" y="400">-</text><text fill="black" x="1270" y="350">unless</text><text fill="black" x="1270" y="400">-</text><text fill="black" x="1350" y="350">you</text><text fill="black" x="1350" y="400">-</text><text fill="black" x="1430" y="350">have</text><text fill="black" x="1430" y="400">-</text><text fill="black" x="1510" y="350">got</text><text fill="black" x="1510" y="400">-</text><text fill="black" x="1590" y="350">on</text><text fill="black" x="1590" y="400">-</text><text fill="black" x="1670" y="350">the</text><text fill="black" x="1670" y="400">-</text><text fill="black" x="1750" y="350">Great</text><text fill="black" x="1750" y="400">-</text><text fill="black" x="1830" y="350">Wall</text><text fill="black" x="1830" y="400">-</text><text fill="black" x="1910" y="350">.</text><text fill="black" x="1910" y="400">-</text><line stroke="red" x1="160" x2="150" y1="210" y2="330" /><line stroke="red" x1="240" x2="417" y1="210" y2="330" /><line stroke="red" x1="320" x2="417" y1="210" y2="330" /><line stroke="red" x1="430" x2="257" y1="210" y2="330" /><line stroke="red" x1="600" x2="337" y1="210" y2="330" /><line stroke="red" x1="650" x2="488" y1="210" y2="330" /><line stroke="red" x1="720" x2="568" y1="210" y2="330" /><line stroke="red" x1="800" x2="417" y1="210" y2="330" /><line stroke="red" x1="880" x2="648" y1="210" y2="330" /><line stroke="red" x1="950" x2="1848" y1="210" y2="330" /><line stroke="red" x1="1040" x2="719" y1="210" y2="330" /><line stroke="red" x1="1150" x2="817" y1="210" y2="330" /><line stroke="red" x1="1210" x2="873" y1="210" y2="330" /><line stroke="red" x1="1280" x2="977" y1="210" y2="330" /><line stroke="red" x1="1360" x2="977" y1="210" y2="330" /><line stroke="red" x1="1440" x2="1030" y1="210" y2="330" /><line stroke="red" x1="1530" x2="1199" y1="210" y2="330" /><line stroke="red" x1="1620" x2="1199" y1="210" y2="330" /><line stroke="red" x1="1700" x2="1128" y1="210" y2="330" /><line stroke="red" x1="1760" x2="1297" y1="210" y2="330" /><line stroke="red" x1="1840" x2="1359" y1="210" y2="330" /><line stroke="red" x1="1930" x2="1768" y1="210" y2="330" /><line stroke="red" x1="2160" x2="1768" y1="210" y2="330" /><line stroke="red" x1="2150" x2="1848" y1="210" y2="330" /><line stroke="red" x1="2230" x2="1910" y1="210" y2="330" /></svg>