<?xml version="1.0" encoding="utf-8" ?>
<svg baseProfile="full" height="500" version="1.1" width="1300" xmlns="http://www.w3.org/2000/svg" xmlns:ev="http://www.w3.org/2001/xml-events" xmlns:xlink="http://www.w3.org/1999/xlink"><defs /><text fill="black" x="0" y="100">VIETNAMESE </text><text fill="black" x="20" y="150">POS: </text><text fill="black" x="20" y="200">Source: </text><text fill="black" x="150" y="150">Nq</text><text fill="black" x="150" y="200">Một</text><text fill="black" x="230" y="150">Nc</text><text fill="black" x="230" y="200">cái</text><text fill="black" x="310" y="150">Nn</text><text fill="black" x="310" y="200">quạt</text><text fill="black" x="390" y="150">Vv</text><text fill="black" x="390" y="200">đặt</text><text fill="black" x="470" y="150">Cm</text><text fill="black" x="470" y="200">trong</text><text fill="black" x="550" y="150">Nn</text><text fill="black" x="550" y="200">bếp</text><text fill="black" x="630" y="150">Cm</text><text fill="black" x="630" y="200">để</text><text fill="black" x="710" y="150">Vv</text><text fill="black" x="710" y="200">thổi</text><text fill="black" x="790" y="150">R</text><text fill="black" x="790" y="200">đi</text><text fill="black" x="870" y="150">Nq</text><text fill="black" x="870" y="200">những</text><text fill="black" x="950" y="150">Nn</text><text fill="black" x="950" y="200">mùi</text><text fill="black" x="1030" y="150">Vv</text><text fill="black" x="1030" y="200">nấu_nướng</text><text fill="black" x="1110" y="150">PU</text><text fill="black" x="1110" y="200">.</text><text fill="black" x="0" y="450">ENGLISH </text><text fill="black" x="20" y="350">Target: </text><text fill="black" x="20" y="400">POS: </text><text fill="black" x="150" y="350">A</text><text fill="black" x="150" y="400">DT</text><text fill="black" x="230" y="350">fan</text><text fill="black" x="230" y="400">NN</text><text fill="black" x="310" y="350">in</text><text fill="black" x="310" y="400">IN</text><text fill="black" x="390" y="350">the</text><text fill="black" x="390" y="400">DT</text><text fill="black" x="470" y="350">kitchen</text><text fill="black" x="470" y="400">NN</text><text fill="black" x="550" y="350">for</text><text fill="black" x="550" y="400">IN</text><text fill="black" x="630" y="350">expelling</text><text fill="black" x="630" y="400">VBG</text><text fill="black" x="710" y="350">cooking</text><text fill="black" x="710" y="400">NN</text><text fill="black" x="790" y="350">smells</text><text fill="black" x="790" y="400">VBZ</text><text fill="black" x="870" y="350">.</text><text fill="black" x="870" y="400">.</text><line stroke="red" x1="160" x2="150" y1="210" y2="330" /><line stroke="red" x1="330" x2="666" y1="210" y2="330" /><line stroke="red" x1="400" x2="666" y1="210" y2="330" /><line stroke="red" x1="490" x2="313" y1="210" y2="330" /><line stroke="red" x1="560" x2="497" y1="210" y2="330" /><line stroke="red" x1="640" x2="559" y1="210" y2="330" /><line stroke="red" x1="730" x2="666" y1="210" y2="330" /><line stroke="red" x1="800" x2="666" y1="210" y2="330" /><line stroke="red" x1="890" x2="666" y1="210" y2="330" /><line stroke="red" x1="960" x2="817" y1="210" y2="330" /><line stroke="red" x1="1070" x2="737" y1="210" y2="330" /><line stroke="red" x1="1110" x2="870" y1="210" y2="330" /></svg>