<?xml version="1.0" encoding="utf-8" ?>
<svg baseProfile="full" height="500" version="1.1" width="1200" xmlns="http://www.w3.org/2000/svg" xmlns:ev="http://www.w3.org/2001/xml-events" xmlns:xlink="http://www.w3.org/1999/xlink"><defs /><text fill="black" x="0" y="100">VIETNAMESE </text><text fill="black" x="20" y="150">POS: </text><text fill="black" x="20" y="200">Source: </text><text fill="black" x="150" y="150">Nq</text><text fill="black" x="150" y="200">Một_vài</text><text fill="black" x="230" y="150">Nn</text><text fill="black" x="230" y="200">kẻ</text><text fill="black" x="310" y="150">Aa</text><text fill="black" x="310" y="200">ngoan_cố</text><text fill="black" x="390" y="150">R</text><text fill="black" x="390" y="200">đang</text><text fill="black" x="470" y="150">Vv</text><text fill="black" x="470" y="200">cố_gắng</text><text fill="black" x="550" y="150">Vv</text><text fill="black" x="550" y="200">ngăn_trở</text><text fill="black" x="630" y="150">Nq</text><text fill="black" x="630" y="200">các</text><text fill="black" x="710" y="150">Nc</text><text fill="black" x="710" y="200">cuộc</text><text fill="black" x="790" y="150">Vv</text><text fill="black" x="790" y="200">cải_tổ</text><text fill="black" x="870" y="150">PU</text><text fill="black" x="870" y="200">.</text><text fill="black" x="0" y="450">ENGLISH </text><text fill="black" x="20" y="350">Target: </text><text fill="black" x="20" y="400">POS: </text><text fill="black" x="150" y="350">A</text><text fill="black" x="150" y="400">DT</text><text fill="black" x="230" y="350">few</text><text fill="black" x="230" y="400">JJ</text><text fill="black" x="310" y="350">die</text><text fill="black" x="310" y="400">NN</text><text fill="black" x="390" y="350">-</text><text fill="black" x="390" y="400">:</text><text fill="black" x="470" y="350">hards</text><text fill="black" x="470" y="400">NNS</text><text fill="black" x="550" y="350">are</text><text fill="black" x="550" y="400">VBP</text><text fill="black" x="630" y="350">trying</text><text fill="black" x="630" y="400">VBG</text><text fill="black" x="710" y="350">to</text><text fill="black" x="710" y="400">TO</text><text fill="black" x="790" y="350">stop</text><text fill="black" x="790" y="400">VB</text><text fill="black" x="870" y="350">the</text><text fill="black" x="870" y="400">DT</text><text fill="black" x="950" y="350">reforms</text><text fill="black" x="950" y="400">NNS</text><text fill="black" x="1030" y="350">.</text><text fill="black" x="1030" y="400">.</text><line stroke="red" x1="180" x2="239" y1="210" y2="330" /><line stroke="red" x1="240" x2="488" y1="210" y2="330" /><line stroke="red" x1="350" x2="488" y1="210" y2="330" /><line stroke="red" x1="410" x2="488" y1="210" y2="330" /><line stroke="red" x1="500" x2="488" y1="210" y2="330" /><line stroke="red" x1="590" x2="488" y1="210" y2="330" /><line stroke="red" x1="640" x2="488" y1="210" y2="330" /><line stroke="red" x1="730" x2="488" y1="210" y2="330" /><line stroke="red" x1="820" x2="488" y1="210" y2="330" /><line stroke="red" x1="870" x2="1030" y1="210" y2="330" /></svg>