<?xml version="1.0" encoding="utf-8" ?>
<svg baseProfile="full" height="500" version="1.1" width="1600" xmlns="http://www.w3.org/2000/svg" xmlns:ev="http://www.w3.org/2001/xml-events" xmlns:xlink="http://www.w3.org/1999/xlink"><defs /><text fill="black" x="0" y="100">VIETNAMESE </text><text fill="black" x="20" y="150">POS: </text><text fill="black" x="20" y="200">Source: </text><text fill="black" x="150" y="150">Nq</text><text fill="black" x="150" y="200">Một</text><text fill="black" x="230" y="150">Nn</text><text fill="black" x="230" y="200">luận_chứng</text><text fill="black" x="310" y="150">Aa</text><text fill="black" x="310" y="200">khả_thi</text><text fill="black" x="390" y="150">R</text><text fill="black" x="390" y="200">đang</text><text fill="black" x="470" y="150">Vv</text><text fill="black" x="470" y="200">được</text><text fill="black" x="550" y="150">Vv</text><text fill="black" x="550" y="200">thực_hiện</text><text fill="black" x="630" y="150">Nn</text><text fill="black" x="630" y="200">trước</text><text fill="black" x="710" y="150">Nt</text><text fill="black" x="710" y="200">khi</text><text fill="black" x="790" y="150">Pp</text><text fill="black" x="790" y="200">chúng_tôi</text><text fill="black" x="870" y="150">Vv</text><text fill="black" x="870" y="200">đầu_tư</text><text fill="black" x="950" y="150">Cm</text><text fill="black" x="950" y="200">vào</text><text fill="black" x="1030" y="150">Nn</text><text fill="black" x="1030" y="200">công_ty</text><text fill="black" x="1110" y="150">Vv</text><text fill="black" x="1110" y="200">liên_doanh</text><text fill="black" x="1190" y="150">Pd</text><text fill="black" x="1190" y="200">này</text><text fill="black" x="1270" y="150">PU</text><text fill="black" x="1270" y="200">.</text><text fill="black" x="0" y="450">ENGLISH </text><text fill="black" x="20" y="350">Target: </text><text fill="black" x="20" y="400">POS: </text><text fill="black" x="150" y="350">A</text><text fill="black" x="150" y="400">DT</text><text fill="black" x="230" y="350">feasibility</text><text fill="black" x="230" y="400">NN</text><text fill="black" x="310" y="350">study</text><text fill="black" x="310" y="400">NN</text><text fill="black" x="390" y="350">is</text><text fill="black" x="390" y="400">VBZ</text><text fill="black" x="470" y="350">being</text><text fill="black" x="470" y="400">VBG</text><text fill="black" x="550" y="350">carried</text><text fill="black" x="550" y="400">VBN</text><text fill="black" x="630" y="350">out</text><text fill="black" x="630" y="400">RP</text><text fill="black" x="710" y="350">before</text><text fill="black" x="710" y="400">IN</text><text fill="black" x="790" y="350">we</text><text fill="black" x="790" y="400">PRP</text><text fill="black" x="870" y="350">invest</text><text fill="black" x="870" y="400">VBP</text><text fill="black" x="950" y="350">in</text><text fill="black" x="950" y="400">IN</text><text fill="black" x="1030" y="350">the</text><text fill="black" x="1030" y="400">DT</text><text fill="black" x="1110" y="350">joint</text><text fill="black" x="1110" y="400">JJ</text><text fill="black" x="1190" y="350">venture</text><text fill="black" x="1190" y="400">NN</text><text fill="black" x="1270" y="350">company</text><text fill="black" x="1270" y="400">NN</text><text fill="black" x="1350" y="350">.</text><text fill="black" x="1350" y="400">.</text><line stroke="red" x1="160" x2="150" y1="210" y2="330" /><line stroke="red" x1="280" x2="275" y1="210" y2="330" /><line stroke="red" x1="340" x2="275" y1="210" y2="330" /><line stroke="red" x1="410" x2="488" y1="210" y2="330" /><line stroke="red" x1="590" x2="577" y1="210" y2="330" /><line stroke="red" x1="650" x2="737" y1="210" y2="330" /><line stroke="red" x1="720" x2="737" y1="210" y2="330" /><line stroke="red" x1="830" x2="793" y1="210" y2="330" /><line stroke="red" x1="900" x2="897" y1="210" y2="330" /><line stroke="red" x1="960" x2="897" y1="210" y2="330" /><line stroke="red" x1="1060" x2="1297" y1="210" y2="330" /><line stroke="red" x1="1160" x2="1217" y1="210" y2="330" /><line stroke="red" x1="1200" x2="1128" y1="210" y2="330" /><line stroke="red" x1="1270" x2="1350" y1="210" y2="330" /></svg>