<?xml version="1.0" encoding="utf-8" ?>
<svg baseProfile="full" height="500" version="1.1" width="800" xmlns="http://www.w3.org/2000/svg" xmlns:ev="http://www.w3.org/2001/xml-events" xmlns:xlink="http://www.w3.org/1999/xlink"><defs /><text fill="black" x="0" y="100">VIETNAMESE </text><text fill="black" x="20" y="150">POS: </text><text fill="black" x="20" y="200">Source: </text><text fill="black" x="150" y="150">Vv</text><text fill="black" x="150" y="200">Cảm_thấy</text><text fill="black" x="230" y="150">Vv</text><text fill="black" x="230" y="200">bớt</text><text fill="black" x="310" y="150">Aa</text><text fill="black" x="310" y="200">đau</text><text fill="black" x="390" y="150">R</text><text fill="black" x="390" y="200">tức_khắc</text><text fill="black" x="470" y="150">Nn</text><text fill="black" x="470" y="200">sau</text><text fill="black" x="550" y="150">Nt</text><text fill="black" x="550" y="200">khi</text><text fill="black" x="630" y="150">Vv</text><text fill="black" x="630" y="200">điều_trị</text><text fill="black" x="710" y="150">PU</text><text fill="black" x="710" y="200">.</text><text fill="black" x="0" y="450">ENGLISH </text><text fill="black" x="20" y="350">Target: </text><text fill="black" x="20" y="400">POS: </text><text fill="black" x="150" y="350">A</text><text fill="black" x="150" y="400">DT</text><text fill="black" x="230" y="350">feel</text><text fill="black" x="230" y="400">VBP</text><text fill="black" x="310" y="350">instant</text><text fill="black" x="310" y="400">JJ</text><text fill="black" x="390" y="350">relief</text><text fill="black" x="390" y="400">NN</text><text fill="black" x="470" y="350">after</text><text fill="black" x="470" y="400">IN</text><text fill="black" x="550" y="350">treatment</text><text fill="black" x="550" y="400">NN</text><text fill="black" x="630" y="350">.</text><text fill="black" x="630" y="400">.</text><line stroke="red" x1="190" x2="248" y1="210" y2="330" /><line stroke="red" x1="240" x2="337" y1="210" y2="330" /><line stroke="red" x1="320" x2="337" y1="210" y2="330" /><line stroke="red" x1="430" x2="337" y1="210" y2="330" /><line stroke="red" x1="480" x2="488" y1="210" y2="330" /><line stroke="red" x1="560" x2="488" y1="210" y2="330" /><line stroke="red" x1="670" x2="586" y1="210" y2="330" /><line stroke="red" x1="710" x2="630" y1="210" y2="330" /></svg>