<?xml version="1.0" encoding="utf-8" ?>
<svg baseProfile="full" height="500" version="1.1" width="1200" xmlns="http://www.w3.org/2000/svg" xmlns:ev="http://www.w3.org/2001/xml-events" xmlns:xlink="http://www.w3.org/1999/xlink"><defs /><text fill="black" x="0" y="100">VIETNAMESE </text><text fill="black" x="20" y="150">POS: </text><text fill="black" x="20" y="200">Source: </text><text fill="black" x="150" y="150">Nq</text><text fill="black" x="150" y="200">Vài</text><text fill="black" x="230" y="150">Nn</text><text fill="black" x="230" y="200">tia</text><text fill="black" x="310" y="150">Nn</text><text fill="black" x="310" y="200">nắng</text><text fill="black" x="390" y="150">Aa</text><text fill="black" x="390" y="200">yếu_ớt</text><text fill="black" x="470" y="150">Vv</text><text fill="black" x="470" y="200">le_lói</text><text fill="black" x="550" y="150">Cm</text><text fill="black" x="550" y="200">trong</text><text fill="black" x="630" y="150">Nt</text><text fill="black" x="630" y="200">buổi</text><text fill="black" x="710" y="150">Nt</text><text fill="black" x="710" y="200">chiều</text><text fill="black" x="790" y="150">Aa</text><text fill="black" x="790" y="200">ảm_đạm</text><text fill="black" x="870" y="150">PU</text><text fill="black" x="870" y="200">.</text><text fill="black" x="0" y="450">ENGLISH </text><text fill="black" x="20" y="350">Target: </text><text fill="black" x="20" y="400">POS: </text><text fill="black" x="150" y="350">A</text><text fill="black" x="150" y="400">DT</text><text fill="black" x="230" y="350">few</text><text fill="black" x="230" y="400">JJ</text><text fill="black" x="310" y="350">faint</text><text fill="black" x="310" y="400">JJ</text><text fill="black" x="390" y="350">gleams</text><text fill="black" x="390" y="400">NNS</text><text fill="black" x="470" y="350">of</text><text fill="black" x="470" y="400">IN</text><text fill="black" x="550" y="350">sunshine</text><text fill="black" x="550" y="400">NN</text><text fill="black" x="630" y="350">lit</text><text fill="black" x="630" y="400">VBD</text><text fill="black" x="710" y="350">up</text><text fill="black" x="710" y="400">RP</text><text fill="black" x="790" y="350">the</text><text fill="black" x="790" y="400">DT</text><text fill="black" x="870" y="350">gloomy</text><text fill="black" x="870" y="400">JJ</text><text fill="black" x="950" y="350">afternoon</text><text fill="black" x="950" y="400">NN</text><text fill="black" x="1030" y="350">.</text><text fill="black" x="1030" y="400">.</text><line stroke="red" x1="160" x2="417" y1="210" y2="330" /><line stroke="red" x1="240" x2="417" y1="210" y2="330" /><line stroke="red" x1="330" x2="417" y1="210" y2="330" /><line stroke="red" x1="420" x2="417" y1="210" y2="330" /><line stroke="red" x1="500" x2="417" y1="210" y2="330" /><line stroke="red" x1="570" x2="417" y1="210" y2="330" /><line stroke="red" x1="650" x2="986" y1="210" y2="330" /><line stroke="red" x1="730" x2="986" y1="210" y2="330" /><line stroke="red" x1="820" x2="897" y1="210" y2="330" /><line stroke="red" x1="870" x2="1030" y1="210" y2="330" /></svg>