<?xml version="1.0" encoding="utf-8" ?>
<svg baseProfile="full" height="500" version="1.1" width="1700" xmlns="http://www.w3.org/2000/svg" xmlns:ev="http://www.w3.org/2001/xml-events" xmlns:xlink="http://www.w3.org/1999/xlink"><defs /><text fill="black" x="0" y="100">VIETNAMESE </text><text fill="black" x="20" y="150">POS: </text><text fill="black" x="20" y="200">Source: </text><text fill="black" x="150" y="150">R</text><text fill="black" x="150" y="200">Thậm_chí</text><text fill="black" x="230" y="150">Nq</text><text fill="black" x="230" y="200">một_số</text><text fill="black" x="310" y="150">Nn</text><text fill="black" x="310" y="200">loài</text><text fill="black" x="390" y="150">Nn</text><text fill="black" x="390" y="200">cá</text><text fill="black" x="470" y="150">PU</text><text fill="black" x="470" y="200">-</text><text fill="black" x="550" y="150">Nq</text><text fill="black" x="550" y="200">những</text><text fill="black" x="630" y="150">Nc</text><text fill="black" x="630" y="200">con</text><text fill="black" x="710" y="150">Nn</text><text fill="black" x="710" y="200">cá</text><text fill="black" x="790" y="150">Nn</text><text fill="black" x="790" y="200">bong_bóng</text><text fill="black" x="870" y="150">Vv</text><text fill="black" x="870" y="200">bơi</text><text fill="black" x="950" y="150">PU</text><text fill="black" x="950" y="200">-</text><text fill="black" x="1030" y="150">Vv</text><text fill="black" x="1030" y="200">bị</text><text fill="black" x="1110" y="150">Vv</text><text fill="black" x="1110" y="200">nổ</text><text fill="black" x="1190" y="150">Vv</text><text fill="black" x="1190" y="200">tung</text><text fill="black" x="1270" y="150">R</text><text fill="black" x="1270" y="200">ra</text><text fill="black" x="1350" y="150">PU</text><text fill="black" x="1350" y="200">.</text><text fill="black" x="0" y="450">ENGLISH </text><text fill="black" x="20" y="350">Target: </text><text fill="black" x="20" y="400">POS: </text><text fill="black" x="150" y="350">A</text><text fill="black" x="150" y="400">DT</text><text fill="black" x="230" y="350">few</text><text fill="black" x="230" y="400">JJ</text><text fill="black" x="310" y="350">kinds</text><text fill="black" x="310" y="400">NNS</text><text fill="black" x="390" y="350">of</text><text fill="black" x="390" y="400">IN</text><text fill="black" x="470" y="350">fishes</text><text fill="black" x="470" y="400">NNS</text><text fill="black" x="550" y="350">-</text><text fill="black" x="550" y="400">:</text><text fill="black" x="630" y="350">those</text><text fill="black" x="630" y="400">DT</text><text fill="black" x="710" y="350">that</text><text fill="black" x="710" y="400">WDT</text><text fill="black" x="790" y="350">have</text><text fill="black" x="790" y="400">VBP</text><text fill="black" x="870" y="350">swim</text><text fill="black" x="870" y="400">VBP</text><text fill="black" x="950" y="350">bladders</text><text fill="black" x="950" y="400">NNS</text><text fill="black" x="1030" y="350">-</text><text fill="black" x="1030" y="400">:</text><text fill="black" x="1110" y="350">even</text><text fill="black" x="1110" y="400">RB</text><text fill="black" x="1190" y="350">turn</text><text fill="black" x="1190" y="400">VB</text><text fill="black" x="1270" y="350">inside</text><text fill="black" x="1270" y="400">RB</text><text fill="black" x="1350" y="350">out</text><text fill="black" x="1350" y="400">RB</text><text fill="black" x="1430" y="350">.</text><text fill="black" x="1430" y="400">.</text><line stroke="red" x1="190" x2="986" y1="210" y2="330" /><line stroke="red" x1="260" x2="239" y1="210" y2="330" /><line stroke="red" x1="330" x2="328" y1="210" y2="330" /><line stroke="red" x1="400" x2="497" y1="210" y2="330" /><line stroke="red" x1="470" x2="550" y1="210" y2="330" /><line stroke="red" x1="570" x2="648" y1="210" y2="330" /><line stroke="red" x1="640" x2="497" y1="210" y2="330" /><line stroke="red" x1="720" x2="497" y1="210" y2="330" /><line stroke="red" x1="830" x2="986" y1="210" y2="330" /><line stroke="red" x1="880" x2="888" y1="210" y2="330" /><line stroke="red" x1="950" x2="1030" y1="210" y2="330" /><line stroke="red" x1="1040" x2="986" y1="210" y2="330" /><line stroke="red" x1="1120" x2="986" y1="210" y2="330" /><line stroke="red" x1="1210" x2="986" y1="210" y2="330" /><line stroke="red" x1="1280" x2="1359" y1="210" y2="330" /><line stroke="red" x1="1350" x2="1430" y1="210" y2="330" /></svg>