<?xml version="1.0" encoding="utf-8" ?>
<svg baseProfile="full" height="500" version="1.1" width="1200" xmlns="http://www.w3.org/2000/svg" xmlns:ev="http://www.w3.org/2001/xml-events" xmlns:xlink="http://www.w3.org/1999/xlink"><defs /><text fill="black" x="0" y="100">VIETNAMESE </text><text fill="black" x="20" y="150">POS: </text><text fill="black" x="20" y="200">Source: </text><text fill="black" x="150" y="150">Vv</text><text fill="black" x="150" y="200">Thức</text><text fill="black" x="230" y="150">Aa</text><text fill="black" x="230" y="200">khuya</text><text fill="black" x="310" y="150">Nq</text><text fill="black" x="310" y="200">một_vài</text><text fill="black" x="390" y="150">Nt</text><text fill="black" x="390" y="200">đêm</text><text fill="black" x="470" y="150">Cp</text><text fill="black" x="470" y="200">thì</text><text fill="black" x="550" y="150">R</text><text fill="black" x="550" y="200">chẳng</text><text fill="black" x="630" y="150">M</text><text fill="black" x="630" y="200">hề</text><text fill="black" x="710" y="150">Vv</text><text fill="black" x="710" y="200">hại</text><text fill="black" x="790" y="150">Cp</text><text fill="black" x="790" y="200">cho</text><text fill="black" x="870" y="150">Pp</text><text fill="black" x="870" y="200">ai</text><text fill="black" x="950" y="150">M</text><text fill="black" x="950" y="200">cả</text><text fill="black" x="1030" y="150">PU</text><text fill="black" x="1030" y="200">.</text><text fill="black" x="0" y="450">ENGLISH </text><text fill="black" x="20" y="350">Target: </text><text fill="black" x="20" y="400">POS: </text><text fill="black" x="150" y="350">A</text><text fill="black" x="150" y="400">DT</text><text fill="black" x="230" y="350">few</text><text fill="black" x="230" y="400">JJ</text><text fill="black" x="310" y="350">late</text><text fill="black" x="310" y="400">JJ</text><text fill="black" x="390" y="350">nights</text><text fill="black" x="390" y="400">NNS</text><text fill="black" x="470" y="350">never</text><text fill="black" x="470" y="400">RB</text><text fill="black" x="550" y="350">did</text><text fill="black" x="550" y="400">VBD</text><text fill="black" x="630" y="350">anyone</text><text fill="black" x="630" y="400">NN</text><text fill="black" x="710" y="350">any</text><text fill="black" x="710" y="400">DT</text><text fill="black" x="790" y="350">harm</text><text fill="black" x="790" y="400">NN</text><text fill="black" x="870" y="350">.</text><text fill="black" x="870" y="400">.</text><line stroke="red" x1="170" x2="417" y1="210" y2="330" /><line stroke="red" x1="250" x2="417" y1="210" y2="330" /><line stroke="red" x1="340" x2="239" y1="210" y2="330" /><line stroke="red" x1="400" x2="417" y1="210" y2="330" /><line stroke="red" x1="570" x2="488" y1="210" y2="330" /><line stroke="red" x1="640" x2="488" y1="210" y2="330" /><line stroke="red" x1="720" x2="808" y1="210" y2="330" /><line stroke="red" x1="880" x2="657" y1="210" y2="330" /><line stroke="red" x1="960" x2="719" y1="210" y2="330" /><line stroke="red" x1="1030" x2="870" y1="210" y2="330" /></svg>