<?xml version="1.0" encoding="utf-8" ?>
<svg baseProfile="full" height="500" version="1.1" width="1000" xmlns="http://www.w3.org/2000/svg" xmlns:ev="http://www.w3.org/2001/xml-events" xmlns:xlink="http://www.w3.org/1999/xlink"><defs /><text fill="black" x="0" y="100">VIETNAMESE </text><text fill="black" x="20" y="150">POS: </text><text fill="black" x="20" y="200">Source: </text><text fill="black" x="150" y="150">Nq</text><text fill="black" x="150" y="200">Một_ít</text><text fill="black" x="230" y="150">Nn</text><text fill="black" x="230" y="200">người</text><text fill="black" x="310" y="150">Vv</text><text fill="black" x="310" y="200">leo</text><text fill="black" x="390" y="150">Nn</text><text fill="black" x="390" y="200">núi</text><text fill="black" x="470" y="150">Aa</text><text fill="black" x="470" y="200">bền_bỉ</text><text fill="black" x="550" y="150">Aa</text><text fill="black" x="550" y="200">cuối_cùng</text><text fill="black" x="630" y="150">Vd</text><text fill="black" x="630" y="200">đến</text><text fill="black" x="710" y="150">R</text><text fill="black" x="710" y="200">được</text><text fill="black" x="790" y="150">Nn</text><text fill="black" x="790" y="200">đỉnh</text><text fill="black" x="870" y="150">PU</text><text fill="black" x="870" y="200">.</text><text fill="black" x="0" y="450">ENGLISH </text><text fill="black" x="20" y="350">Target: </text><text fill="black" x="20" y="400">POS: </text><text fill="black" x="150" y="350">A</text><text fill="black" x="150" y="400">DT</text><text fill="black" x="230" y="350">few</text><text fill="black" x="230" y="400">JJ</text><text fill="black" x="310" y="350">persevering</text><text fill="black" x="310" y="400">VBG</text><text fill="black" x="390" y="350">climbers</text><text fill="black" x="390" y="400">NNS</text><text fill="black" x="470" y="350">finally</text><text fill="black" x="470" y="400">RB</text><text fill="black" x="550" y="350">reached</text><text fill="black" x="550" y="400">VBD</text><text fill="black" x="630" y="350">the</text><text fill="black" x="630" y="400">DT</text><text fill="black" x="710" y="350">top</text><text fill="black" x="710" y="400">NN</text><text fill="black" x="790" y="350">.</text><text fill="black" x="790" y="400">.</text><line stroke="red" x1="180" x2="355" y1="210" y2="330" /><line stroke="red" x1="250" x2="426" y1="210" y2="330" /><line stroke="red" x1="320" x2="426" y1="210" y2="330" /><line stroke="red" x1="400" x2="426" y1="210" y2="330" /><line stroke="red" x1="500" x2="355" y1="210" y2="330" /><line stroke="red" x1="590" x2="497" y1="210" y2="330" /><line stroke="red" x1="640" x2="577" y1="210" y2="330" /><line stroke="red" x1="810" x2="719" y1="210" y2="330" /><line stroke="red" x1="870" x2="790" y1="210" y2="330" /></svg>