<?xml version="1.0" encoding="utf-8" ?>
<svg baseProfile="full" height="500" version="1.1" width="1000" xmlns="http://www.w3.org/2000/svg" xmlns:ev="http://www.w3.org/2001/xml-events" xmlns:xlink="http://www.w3.org/1999/xlink"><defs /><text fill="black" x="0" y="100">VIETNAMESE </text><text fill="black" x="20" y="150">POS: </text><text fill="black" x="20" y="200">Source: </text><text fill="black" x="150" y="150">Nq</text><text fill="black" x="150" y="200">Một_vài</text><text fill="black" x="230" y="150">Nn</text><text fill="black" x="230" y="200">người</text><text fill="black" x="310" y="150">Vv</text><text fill="black" x="310" y="200">chịu</text><text fill="black" x="390" y="150">R</text><text fill="black" x="390" y="200">được</text><text fill="black" x="470" y="150">Aa</text><text fill="black" x="470" y="200">rét</text><text fill="black" x="550" y="150">Vv</text><text fill="black" x="550" y="200">bơi</text><text fill="black" x="630" y="150">Cm</text><text fill="black" x="630" y="200">trong</text><text fill="black" x="710" y="150">Nn</text><text fill="black" x="710" y="200">nước</text><text fill="black" x="790" y="150">Nn</text><text fill="black" x="790" y="200">băng_giá</text><text fill="black" x="870" y="150">PU</text><text fill="black" x="870" y="200">.</text><text fill="black" x="0" y="450">ENGLISH </text><text fill="black" x="20" y="350">Target: </text><text fill="black" x="20" y="400">POS: </text><text fill="black" x="150" y="350">A</text><text fill="black" x="150" y="400">DT</text><text fill="black" x="230" y="350">few</text><text fill="black" x="230" y="400">JJ</text><text fill="black" x="310" y="350">hardy</text><text fill="black" x="310" y="400">JJ</text><text fill="black" x="390" y="350">people</text><text fill="black" x="390" y="400">NNS</text><text fill="black" x="470" y="350">swam</text><text fill="black" x="470" y="400">VBP</text><text fill="black" x="550" y="350">in</text><text fill="black" x="550" y="400">IN</text><text fill="black" x="630" y="350">the</text><text fill="black" x="630" y="400">DT</text><text fill="black" x="710" y="350">icy</text><text fill="black" x="710" y="400">NN</text><text fill="black" x="790" y="350">water</text><text fill="black" x="790" y="400">NN</text><text fill="black" x="870" y="350">.</text><text fill="black" x="870" y="400">.</text><line stroke="red" x1="180" x2="328" y1="210" y2="330" /><line stroke="red" x1="250" x2="417" y1="210" y2="330" /><line stroke="red" x1="330" x2="328" y1="210" y2="330" /><line stroke="red" x1="480" x2="328" y1="210" y2="330" /><line stroke="red" x1="560" x2="488" y1="210" y2="330" /><line stroke="red" x1="650" x2="553" y1="210" y2="330" /><line stroke="red" x1="730" x2="808" y1="210" y2="330" /><line stroke="red" x1="830" x2="719" y1="210" y2="330" /><line stroke="red" x1="870" x2="870" y1="210" y2="330" /></svg>