<?xml version="1.0" encoding="utf-8" ?>
<svg baseProfile="full" height="500" version="1.1" width="1800" xmlns="http://www.w3.org/2000/svg" xmlns:ev="http://www.w3.org/2001/xml-events" xmlns:xlink="http://www.w3.org/1999/xlink"><defs /><text fill="black" x="0" y="100">VIETNAMESE </text><text fill="black" x="20" y="150">POS: </text><text fill="black" x="20" y="200">Source: </text><text fill="black" x="150" y="150">Nq</text><text fill="black" x="150" y="200">Một_vài</text><text fill="black" x="230" y="150">Nn</text><text fill="black" x="230" y="200">người</text><text fill="black" x="310" y="150">Vv</text><text fill="black" x="310" y="200">nói</text><text fill="black" x="390" y="150">Cp</text><text fill="black" x="390" y="200">rằng</text><text fill="black" x="470" y="150">Nn</text><text fill="black" x="470" y="200">chủ_nghĩa_tư_bản</text><text fill="black" x="550" y="150">R</text><text fill="black" x="550" y="200">sẽ</text><text fill="black" x="630" y="150">R</text><text fill="black" x="630" y="200">không</text><text fill="black" x="710" y="150">R</text><text fill="black" x="710" y="200">còn</text><text fill="black" x="790" y="150">Aa</text><text fill="black" x="790" y="200">phù_hợp</text><text fill="black" x="870" y="150">Cm</text><text fill="black" x="870" y="200">trong</text><text fill="black" x="950" y="150">Nt</text><text fill="black" x="950" y="200">thế_kỉ</text><text fill="black" x="1030" y="150">Nt</text><text fill="black" x="1030" y="200">21</text><text fill="black" x="1110" y="150">R</text><text fill="black" x="1110" y="200">nữa</text><text fill="black" x="1190" y="150">PU</text><text fill="black" x="1190" y="200">.</text><text fill="black" x="0" y="450">ENGLISH </text><text fill="black" x="20" y="350">Target: </text><text fill="black" x="20" y="400">POS: </text><text fill="black" x="150" y="350">A</text><text fill="black" x="150" y="400">DT</text><text fill="black" x="230" y="350">few</text><text fill="black" x="230" y="400">JJ</text><text fill="black" x="310" y="350">people</text><text fill="black" x="310" y="400">NNS</text><text fill="black" x="390" y="350">say</text><text fill="black" x="390" y="400">VBP</text><text fill="black" x="470" y="350">that</text><text fill="black" x="470" y="400">IN</text><text fill="black" x="550" y="350">capitalism</text><text fill="black" x="550" y="400">NN</text><text fill="black" x="630" y="350">is</text><text fill="black" x="630" y="400">VBZ</text><text fill="black" x="710" y="350">going</text><text fill="black" x="710" y="400">VBG</text><text fill="black" x="790" y="350">to</text><text fill="black" x="790" y="400">TO</text><text fill="black" x="870" y="350">become</text><text fill="black" x="870" y="400">VB</text><text fill="black" x="950" y="350">out</text><text fill="black" x="950" y="400">IN</text><text fill="black" x="1030" y="350">of</text><text fill="black" x="1030" y="400">IN</text><text fill="black" x="1110" y="350">date</text><text fill="black" x="1110" y="400">NN</text><text fill="black" x="1190" y="350">in</text><text fill="black" x="1190" y="400">IN</text><text fill="black" x="1270" y="350">the</text><text fill="black" x="1270" y="400">DT</text><text fill="black" x="1350" y="350">21st</text><text fill="black" x="1350" y="400">JJ</text><text fill="black" x="1430" y="350">century</text><text fill="black" x="1430" y="400">NN</text><text fill="black" x="1510" y="350">.</text><text fill="black" x="1510" y="400">.</text><line stroke="red" x1="180" x2="239" y1="210" y2="330" /><line stroke="red" x1="250" x2="337" y1="210" y2="330" /><line stroke="red" x1="320" x2="399" y1="210" y2="330" /><line stroke="red" x1="410" x2="488" y1="210" y2="330" /><line stroke="red" x1="550" x2="595" y1="210" y2="330" /><line stroke="red" x1="560" x2="728" y1="210" y2="330" /><line stroke="red" x1="720" x2="1368" y1="210" y2="330" /><line stroke="red" x1="820" x2="1368" y1="210" y2="330" /><line stroke="red" x1="980" x2="1457" y1="210" y2="330" /><line stroke="red" x1="1040" x2="1368" y1="210" y2="330" /><line stroke="red" x1="1120" x2="1368" y1="210" y2="330" /><line stroke="red" x1="1190" x2="1510" y1="210" y2="330" /></svg>