<?xml version="1.0" encoding="utf-8" ?>
<svg baseProfile="full" height="500" version="1.1" width="1500" xmlns="http://www.w3.org/2000/svg" xmlns:ev="http://www.w3.org/2001/xml-events" xmlns:xlink="http://www.w3.org/1999/xlink"><defs /><text fill="black" x="0" y="100">VIETNAMESE </text><text fill="black" x="20" y="150">POS: </text><text fill="black" x="20" y="200">Source: </text><text fill="black" x="150" y="150">Nq</text><text fill="black" x="150" y="200">Một_vài</text><text fill="black" x="230" y="150">Nt</text><text fill="black" x="230" y="200">phút</text><text fill="black" x="310" y="150">Aa</text><text fill="black" x="310" y="200">yên_lặng</text><text fill="black" x="390" y="150">Nn</text><text fill="black" x="390" y="200">giữa</text><text fill="black" x="470" y="150">Nt</text><text fill="black" x="470" y="200">trưa</text><text fill="black" x="550" y="150">Cm</text><text fill="black" x="550" y="200">để</text><text fill="black" x="630" y="150">Vv</text><text fill="black" x="630" y="200">ngồi</text><text fill="black" x="710" y="150">Vv</text><text fill="black" x="710" y="200">suy_tư</text><text fill="black" x="790" y="150">PU</text><text fill="black" x="790" y="200">.</text><text fill="black" x="0" y="450">ENGLISH </text><text fill="black" x="20" y="350">Target: </text><text fill="black" x="20" y="400">POS: </text><text fill="black" x="150" y="350">A</text><text fill="black" x="150" y="400">DT</text><text fill="black" x="230" y="350">few</text><text fill="black" x="230" y="400">JJ</text><text fill="black" x="310" y="350">quiet</text><text fill="black" x="310" y="400">JJ</text><text fill="black" x="390" y="350">minutes</text><text fill="black" x="390" y="400">NNS</text><text fill="black" x="470" y="350">in</text><text fill="black" x="470" y="400">IN</text><text fill="black" x="550" y="350">the</text><text fill="black" x="550" y="400">DT</text><text fill="black" x="630" y="350">middle</text><text fill="black" x="630" y="400">NN</text><text fill="black" x="710" y="350">of</text><text fill="black" x="710" y="400">IN</text><text fill="black" x="790" y="350">the</text><text fill="black" x="790" y="400">DT</text><text fill="black" x="870" y="350">day</text><text fill="black" x="870" y="400">NN</text><text fill="black" x="950" y="350">to</text><text fill="black" x="950" y="400">TO</text><text fill="black" x="1030" y="350">sit</text><text fill="black" x="1030" y="400">VB</text><text fill="black" x="1110" y="350">and</text><text fill="black" x="1110" y="400">CC</text><text fill="black" x="1190" y="350">contemplate</text><text fill="black" x="1190" y="400">VB</text><text fill="black" x="1270" y="350">.</text><text fill="black" x="1270" y="400">.</text><line stroke="red" x1="180" x2="239" y1="210" y2="330" /><line stroke="red" x1="250" x2="417" y1="210" y2="330" /><line stroke="red" x1="350" x2="328" y1="210" y2="330" /><line stroke="red" x1="410" x2="657" y1="210" y2="330" /><line stroke="red" x1="490" x2="1235" y1="210" y2="330" /><line stroke="red" x1="560" x2="953" y1="210" y2="330" /><line stroke="red" x1="650" x2="1039" y1="210" y2="330" /><line stroke="red" x1="740" x2="1235" y1="210" y2="330" /><line stroke="red" x1="790" x2="1270" y1="210" y2="330" /></svg>