<?xml version="1.0" encoding="utf-8" ?>
<svg baseProfile="full" height="500" version="1.1" width="800" xmlns="http://www.w3.org/2000/svg" xmlns:ev="http://www.w3.org/2001/xml-events" xmlns:xlink="http://www.w3.org/1999/xlink"><defs /><text fill="black" x="0" y="100">VIETNAMESE </text><text fill="black" x="20" y="150">POS: </text><text fill="black" x="20" y="200">Source: </text><text fill="black" x="150" y="150">Nq</text><text fill="black" x="150" y="200">Một_ít</text><text fill="black" x="230" y="150">Nn</text><text fill="black" x="230" y="200">đồ_đạc</text><text fill="black" x="310" y="150">R</text><text fill="black" x="310" y="200">khá</text><text fill="black" x="390" y="150">Aa</text><text fill="black" x="390" y="200">thô_sơ</text><text fill="black" x="470" y="150">PU</text><text fill="black" x="470" y="200">.</text><text fill="black" x="0" y="450">ENGLISH </text><text fill="black" x="20" y="350">Target: </text><text fill="black" x="20" y="400">POS: </text><text fill="black" x="150" y="350">A</text><text fill="black" x="150" y="400">DT</text><text fill="black" x="230" y="350">few</text><text fill="black" x="230" y="400">JJ</text><text fill="black" x="310" y="350">rather</text><text fill="black" x="310" y="400">RB</text><text fill="black" x="390" y="350">plain</text><text fill="black" x="390" y="400">JJ</text><text fill="black" x="470" y="350">bits</text><text fill="black" x="470" y="400">NNS</text><text fill="black" x="550" y="350">of</text><text fill="black" x="550" y="400">IN</text><text fill="black" x="630" y="350">furniture</text><text fill="black" x="630" y="400">NN</text><text fill="black" x="710" y="350">.</text><text fill="black" x="710" y="400">.</text><line stroke="red" x1="180" x2="150" y1="210" y2="330" /><line stroke="red" x1="260" x2="666" y1="210" y2="330" /><line stroke="red" x1="320" x2="337" y1="210" y2="330" /><line stroke="red" x1="420" x2="488" y1="210" y2="330" /><line stroke="red" x1="470" x2="710" y1="210" y2="330" /></svg>