<?xml version="1.0" encoding="utf-8" ?>
<svg baseProfile="full" height="500" version="1.1" width="1000" xmlns="http://www.w3.org/2000/svg" xmlns:ev="http://www.w3.org/2001/xml-events" xmlns:xlink="http://www.w3.org/1999/xlink"><defs /><text fill="black" x="0" y="100">VIETNAMESE </text><text fill="black" x="20" y="150">POS: </text><text fill="black" x="20" y="200">Source: </text><text fill="black" x="150" y="150">Nq</text><text fill="black" x="150" y="200">Một_số</text><text fill="black" x="230" y="150">Nn</text><text fill="black" x="230" y="200">người</text><text fill="black" x="310" y="150">Vv</text><text fill="black" x="310" y="200">sống_sót</text><text fill="black" x="390" y="150">R</text><text fill="black" x="390" y="200">được</text><text fill="black" x="470" y="150">Vv</text><text fill="black" x="470" y="200">kéo</text><text fill="black" x="550" y="150">D</text><text fill="black" x="550" y="200">ra</text><text fill="black" x="630" y="150">Vv</text><text fill="black" x="630" y="200">khỏi</text><text fill="black" x="710" y="150">Nn</text><text fill="black" x="710" y="200">đống</text><text fill="black" x="790" y="150">Aa</text><text fill="black" x="790" y="200">đổ_nát</text><text fill="black" x="870" y="150">PU</text><text fill="black" x="870" y="200">.</text><text fill="black" x="0" y="450">ENGLISH </text><text fill="black" x="20" y="350">Target: </text><text fill="black" x="20" y="400">POS: </text><text fill="black" x="150" y="350">A</text><text fill="black" x="150" y="400">DT</text><text fill="black" x="230" y="350">few</text><text fill="black" x="230" y="400">JJ</text><text fill="black" x="310" y="350">survivors</text><text fill="black" x="310" y="400">NNS</text><text fill="black" x="390" y="350">were</text><text fill="black" x="390" y="400">VBD</text><text fill="black" x="470" y="350">pulled</text><text fill="black" x="470" y="400">VBN</text><text fill="black" x="550" y="350">from</text><text fill="black" x="550" y="400">IN</text><text fill="black" x="630" y="350">the</text><text fill="black" x="630" y="400">DT</text><text fill="black" x="710" y="350">wreckage</text><text fill="black" x="710" y="400">NN</text><text fill="black" x="790" y="350">.</text><text fill="black" x="790" y="400">.</text><line stroke="red" x1="180" x2="346" y1="210" y2="330" /><line stroke="red" x1="250" x2="346" y1="210" y2="330" /><line stroke="red" x1="350" x2="346" y1="210" y2="330" /><line stroke="red" x1="480" x2="497" y1="210" y2="330" /><line stroke="red" x1="560" x2="497" y1="210" y2="330" /><line stroke="red" x1="650" x2="568" y1="210" y2="330" /><line stroke="red" x1="730" x2="746" y1="210" y2="330" /><line stroke="red" x1="820" x2="746" y1="210" y2="330" /><line stroke="red" x1="870" x2="790" y1="210" y2="330" /></svg>