<?xml version="1.0" encoding="utf-8" ?>
<svg baseProfile="full" height="500" version="1.1" width="1100" xmlns="http://www.w3.org/2000/svg" xmlns:ev="http://www.w3.org/2001/xml-events" xmlns:xlink="http://www.w3.org/1999/xlink"><defs /><text fill="black" x="0" y="100">VIETNAMESE </text><text fill="black" x="20" y="150">POS: </text><text fill="black" x="20" y="200">Source: </text><text fill="black" x="150" y="150">Nc</text><text fill="black" x="150" y="200">Bộ</text><text fill="black" x="230" y="150">Nn</text><text fill="black" x="230" y="200">phim</text><text fill="black" x="310" y="150">Vv</text><text fill="black" x="310" y="200">kết_thúc</text><text fill="black" x="390" y="150">Nn</text><text fill="black" x="390" y="200">chương_trình</text><text fill="black" x="470" y="150">FW</text><text fill="black" x="470" y="200">TV</text><text fill="black" x="550" y="150">Nt</text><text fill="black" x="550" y="200">buổi</text><text fill="black" x="630" y="150">Nt</text><text fill="black" x="630" y="200">chiều</text><text fill="black" x="710" y="150">Pd</text><text fill="black" x="710" y="200">này</text><text fill="black" x="790" y="150">PU</text><text fill="black" x="790" y="200">.</text><text fill="black" x="0" y="450">ENGLISH </text><text fill="black" x="20" y="350">Target: </text><text fill="black" x="20" y="400">POS: </text><text fill="black" x="150" y="350">A</text><text fill="black" x="150" y="400">DT</text><text fill="black" x="230" y="350">film</text><text fill="black" x="230" y="400">NN</text><text fill="black" x="310" y="350">completes</text><text fill="black" x="310" y="400">VBZ</text><text fill="black" x="390" y="350">this</text><text fill="black" x="390" y="400">DT</text><text fill="black" x="470" y="350">evening</text><text fill="black" x="470" y="400">NN</text><text fill="black" x="550" y="350">'s</text><text fill="black" x="550" y="400">POS</text><text fill="black" x="630" y="350">TV</text><text fill="black" x="630" y="400">NN</text><text fill="black" x="710" y="350">line</text><text fill="black" x="710" y="400">NN</text><text fill="black" x="790" y="350">-</text><text fill="black" x="790" y="400">:</text><text fill="black" x="870" y="350">up</text><text fill="black" x="870" y="400">IN</text><text fill="black" x="950" y="350">.</text><text fill="black" x="950" y="400">.</text><line stroke="red" x1="160" x2="248" y1="210" y2="330" /><line stroke="red" x1="250" x2="248" y1="210" y2="330" /><line stroke="red" x1="350" x2="346" y1="210" y2="330" /><line stroke="red" x1="450" x2="346" y1="210" y2="330" /><line stroke="red" x1="480" x2="346" y1="210" y2="330" /><line stroke="red" x1="570" x2="497" y1="210" y2="330" /><line stroke="red" x1="650" x2="497" y1="210" y2="330" /><line stroke="red" x1="720" x2="408" y1="210" y2="330" /><line stroke="red" x1="790" x2="950" y1="210" y2="330" /></svg>