<?xml version="1.0" encoding="utf-8" ?>
<svg baseProfile="full" height="500" version="1.1" width="800" xmlns="http://www.w3.org/2000/svg" xmlns:ev="http://www.w3.org/2001/xml-events" xmlns:xlink="http://www.w3.org/1999/xlink"><defs /><text fill="black" x="0" y="100">VIETNAMESE </text><text fill="black" x="20" y="150">POS: </text><text fill="black" x="20" y="200">Source: </text><text fill="black" x="150" y="150">Nn</text><text fill="black" x="150" y="200">Cơ_hội</text><text fill="black" x="230" y="150">Vv</text><text fill="black" x="230" y="200">thắng</text><text fill="black" x="310" y="150">Vv</text><text fill="black" x="310" y="200">thua</text><text fill="black" x="390" y="150">Aa</text><text fill="black" x="390" y="200">ngang</text><text fill="black" x="470" y="150">Nn</text><text fill="black" x="470" y="200">nhau</text><text fill="black" x="550" y="150">PU</text><text fill="black" x="550" y="200">.</text><text fill="black" x="0" y="450">ENGLISH </text><text fill="black" x="20" y="350">Target: </text><text fill="black" x="20" y="400">POS: </text><text fill="black" x="150" y="350">A</text><text fill="black" x="150" y="400">DT</text><text fill="black" x="230" y="350">fifty</text><text fill="black" x="230" y="400">CD</text><text fill="black" x="310" y="350">-</text><text fill="black" x="310" y="400">:</text><text fill="black" x="390" y="350">fifty</text><text fill="black" x="390" y="400">CD</text><text fill="black" x="470" y="350">chance</text><text fill="black" x="470" y="400">NN</text><text fill="black" x="550" y="350">of</text><text fill="black" x="550" y="400">IN</text><text fill="black" x="630" y="350">winning</text><text fill="black" x="630" y="400">VBG</text><text fill="black" x="710" y="350">.</text><text fill="black" x="710" y="400">.</text><line stroke="red" x1="180" x2="248" y1="210" y2="330" /><line stroke="red" x1="250" x2="657" y1="210" y2="330" /><line stroke="red" x1="330" x2="657" y1="210" y2="330" /><line stroke="red" x1="410" x2="657" y1="210" y2="330" /><line stroke="red" x1="490" x2="657" y1="210" y2="330" /><line stroke="red" x1="550" x2="710" y1="210" y2="330" /></svg>