<?xml version="1.0" encoding="utf-8" ?>
<svg baseProfile="full" height="500" version="1.1" width="1500" xmlns="http://www.w3.org/2000/svg" xmlns:ev="http://www.w3.org/2001/xml-events" xmlns:xlink="http://www.w3.org/1999/xlink"><defs /><text fill="black" x="0" y="100">VIETNAMESE </text><text fill="black" x="20" y="150">POS: </text><text fill="black" x="20" y="200">Source: </text><text fill="black" x="150" y="150">Nq</text><text fill="black" x="150" y="200">Một</text><text fill="black" x="230" y="150">Nn</text><text fill="black" x="230" y="200">cầu_thủ</text><text fill="black" x="310" y="150">Vv</text><text fill="black" x="310" y="200">chặn</text><text fill="black" x="390" y="150">Nn</text><text fill="black" x="390" y="200">bóng</text><text fill="black" x="470" y="150">Vv</text><text fill="black" x="470" y="200">đứng</text><text fill="black" x="550" y="150">Aa</text><text fill="black" x="550" y="200">thẳng_góc</text><text fill="black" x="630" y="150">Cp</text><text fill="black" x="630" y="200">với</text><text fill="black" x="710" y="150">Nn</text><text fill="black" x="710" y="200">cầu_thủ</text><text fill="black" x="790" y="150">Vv</text><text fill="black" x="790" y="200">đánh</text><text fill="black" x="870" y="150">Nn</text><text fill="black" x="870" y="200">gậy</text><text fill="black" x="950" y="150">Cm</text><text fill="black" x="950" y="200">ở</text><text fill="black" x="1030" y="150">Nn</text><text fill="black" x="1030" y="200">phần</text><text fill="black" x="1110" y="150">Nn</text><text fill="black" x="1110" y="200">sân</text><text fill="black" x="1190" y="150">Vv</text><text fill="black" x="1190" y="200">đối_diện</text><text fill="black" x="1270" y="150">PU</text><text fill="black" x="1270" y="200">.</text><text fill="black" x="0" y="450">ENGLISH </text><text fill="black" x="20" y="350">Target: </text><text fill="black" x="20" y="400">POS: </text><text fill="black" x="150" y="350">A</text><text fill="black" x="150" y="400">DT</text><text fill="black" x="230" y="350">fielder</text><text fill="black" x="230" y="400">NN</text><text fill="black" x="310" y="350">standing</text><text fill="black" x="310" y="400">NN</text><text fill="black" x="390" y="350">square</text><text fill="black" x="390" y="400">NN</text><text fill="black" x="470" y="350">on</text><text fill="black" x="470" y="400">IN</text><text fill="black" x="550" y="350">the</text><text fill="black" x="550" y="400">DT</text><text fill="black" x="630" y="350">off</text><text fill="black" x="630" y="400">JJ</text><text fill="black" x="710" y="350">side</text><text fill="black" x="710" y="400">NN</text><text fill="black" x="790" y="350">.</text><text fill="black" x="790" y="400">.</text><line stroke="red" x1="160" x2="150" y1="210" y2="330" /><line stroke="red" x1="260" x2="257" y1="210" y2="330" /><line stroke="red" x1="330" x2="257" y1="210" y2="330" /><line stroke="red" x1="410" x2="257" y1="210" y2="330" /><line stroke="red" x1="490" x2="346" y1="210" y2="330" /><line stroke="red" x1="590" x2="257" y1="210" y2="330" /><line stroke="red" x1="740" x2="257" y1="210" y2="330" /><line stroke="red" x1="810" x2="257" y1="210" y2="330" /><line stroke="red" x1="880" x2="257" y1="210" y2="330" /><line stroke="red" x1="1050" x2="417" y1="210" y2="330" /><line stroke="red" x1="1120" x2="257" y1="210" y2="330" /><line stroke="red" x1="1230" x2="257" y1="210" y2="330" /><line stroke="red" x1="1270" x2="790" y1="210" y2="330" /></svg>