<?xml version="1.0" encoding="utf-8" ?>
<svg baseProfile="full" height="500" version="1.1" width="1300" xmlns="http://www.w3.org/2000/svg" xmlns:ev="http://www.w3.org/2001/xml-events" xmlns:xlink="http://www.w3.org/1999/xlink"><defs /><text fill="black" x="0" y="100">VIETNAMESE </text><text fill="black" x="20" y="150">POS: </text><text fill="black" x="20" y="200">Source: </text><text fill="black" x="150" y="150">Nq</text><text fill="black" x="150" y="200">Một</text><text fill="black" x="230" y="150">Nc</text><text fill="black" x="230" y="200">cuốn</text><text fill="black" x="310" y="150">Nn</text><text fill="black" x="310" y="200">phim</text><text fill="black" x="390" y="150">Cp</text><text fill="black" x="390" y="200">do</text><text fill="black" x="470" y="150">Nq</text><text fill="black" x="470" y="200">một</text><text fill="black" x="550" y="150">Nn</text><text fill="black" x="550" y="200">nữ_diễn_viên</text><text fill="black" x="630" y="150">Aa</text><text fill="black" x="630" y="200">mới</text><text fill="black" x="710" y="150">Nn</text><text fill="black" x="710" y="200">người</text><text fill="black" x="790" y="150">Nr</text><text fill="black" x="790" y="200">Pháp</text><text fill="black" x="870" y="150">Vv</text><text fill="black" x="870" y="200">đóng</text><text fill="black" x="950" y="150">Nn</text><text fill="black" x="950" y="200">vai</text><text fill="black" x="1030" y="150">Aa</text><text fill="black" x="1030" y="200">chính</text><text fill="black" x="1110" y="150">PU</text><text fill="black" x="1110" y="200">.</text><text fill="black" x="0" y="450">ENGLISH </text><text fill="black" x="20" y="350">Target: </text><text fill="black" x="20" y="400">POS: </text><text fill="black" x="150" y="350">A</text><text fill="black" x="150" y="400">DT</text><text fill="black" x="230" y="350">film</text><text fill="black" x="230" y="400">NN</text><text fill="black" x="310" y="350">that</text><text fill="black" x="310" y="400">WDT</text><text fill="black" x="390" y="350">features</text><text fill="black" x="390" y="400">VBZ</text><text fill="black" x="470" y="350">a</text><text fill="black" x="470" y="400">DT</text><text fill="black" x="550" y="350">new</text><text fill="black" x="550" y="400">JJ</text><text fill="black" x="630" y="350">French</text><text fill="black" x="630" y="400">JJ</text><text fill="black" x="710" y="350">actress</text><text fill="black" x="710" y="400">NN</text><text fill="black" x="790" y="350">.</text><text fill="black" x="790" y="400">.</text><line stroke="red" x1="160" x2="150" y1="210" y2="330" /><line stroke="red" x1="250" x2="248" y1="210" y2="330" /><line stroke="red" x1="330" x2="248" y1="210" y2="330" /><line stroke="red" x1="400" x2="426" y1="210" y2="330" /><line stroke="red" x1="480" x2="470" y1="210" y2="330" /><line stroke="red" x1="610" x2="737" y1="210" y2="330" /><line stroke="red" x1="640" x2="559" y1="210" y2="330" /><line stroke="red" x1="810" x2="657" y1="210" y2="330" /><line stroke="red" x1="890" x2="737" y1="210" y2="330" /><line stroke="red" x1="960" x2="737" y1="210" y2="330" /><line stroke="red" x1="1050" x2="737" y1="210" y2="330" /><line stroke="red" x1="1110" x2="790" y1="210" y2="330" /></svg>