<?xml version="1.0" encoding="utf-8" ?>
<svg baseProfile="full" height="500" version="1.1" width="1500" xmlns="http://www.w3.org/2000/svg" xmlns:ev="http://www.w3.org/2001/xml-events" xmlns:xlink="http://www.w3.org/1999/xlink"><defs /><text fill="black" x="0" y="100">VIETNAMESE </text><text fill="black" x="20" y="150">POS: </text><text fill="black" x="20" y="200">Source: </text><text fill="black" x="150" y="150">Nq</text><text fill="black" x="150" y="200">Một</text><text fill="black" x="230" y="150">Nc</text><text fill="black" x="230" y="200">cuốn</text><text fill="black" x="310" y="150">Nn</text><text fill="black" x="310" y="200">phim</text><text fill="black" x="390" y="150">Aa</text><text fill="black" x="390" y="200">đầy</text><text fill="black" x="470" y="150">Nn</text><text fill="black" x="470" y="200">xảo_thuật</text><text fill="black" x="550" y="150">Vv</text><text fill="black" x="550" y="200">quay_phim</text><text fill="black" x="630" y="150">Vv</text><text fill="black" x="630" y="200">khiến</text><text fill="black" x="710" y="150">Cp</text><text fill="black" x="710" y="200">cho</text><text fill="black" x="790" y="150">R</text><text fill="black" x="790" y="200">không</text><text fill="black" x="870" y="150">Vv</text><text fill="black" x="870" y="200">che_đậy</text><text fill="black" x="950" y="150">R</text><text fill="black" x="950" y="200">nổi</text><text fill="black" x="1030" y="150">Nq</text><text fill="black" x="1030" y="200">một</text><text fill="black" x="1110" y="150">Nn</text><text fill="black" x="1110" y="200">cốt_truyện</text><text fill="black" x="1190" y="150">Aa</text><text fill="black" x="1190" y="200">yếu_kém</text><text fill="black" x="1270" y="150">PU</text><text fill="black" x="1270" y="200">.</text><text fill="black" x="0" y="450">ENGLISH </text><text fill="black" x="20" y="350">Target: </text><text fill="black" x="20" y="400">POS: </text><text fill="black" x="150" y="350">A</text><text fill="black" x="150" y="400">DT</text><text fill="black" x="230" y="350">film</text><text fill="black" x="230" y="400">NN</text><text fill="black" x="310" y="350">full</text><text fill="black" x="310" y="400">JJ</text><text fill="black" x="390" y="350">of</text><text fill="black" x="390" y="400">IN</text><text fill="black" x="470" y="350">tricky</text><text fill="black" x="470" y="400">JJ</text><text fill="black" x="550" y="350">camera</text><text fill="black" x="550" y="400">NN</text><text fill="black" x="630" y="350">work</text><text fill="black" x="630" y="400">NN</text><text fill="black" x="710" y="350">that</text><text fill="black" x="710" y="400">WDT</text><text fill="black" x="790" y="350">fails</text><text fill="black" x="790" y="400">VBZ</text><text fill="black" x="870" y="350">to</text><text fill="black" x="870" y="400">TO</text><text fill="black" x="950" y="350">disguise</text><text fill="black" x="950" y="400">VB</text><text fill="black" x="1030" y="350">a</text><text fill="black" x="1030" y="400">DT</text><text fill="black" x="1110" y="350">weak</text><text fill="black" x="1110" y="400">JJ</text><text fill="black" x="1190" y="350">story</text><text fill="black" x="1190" y="400">NN</text><text fill="black" x="1270" y="350">.</text><text fill="black" x="1270" y="400">.</text><line stroke="red" x1="160" x2="150" y1="210" y2="330" /><line stroke="red" x1="250" x2="248" y1="210" y2="330" /><line stroke="red" x1="330" x2="248" y1="210" y2="330" /><line stroke="red" x1="400" x2="328" y1="210" y2="330" /><line stroke="red" x1="510" x2="497" y1="210" y2="330" /><line stroke="red" x1="590" x2="808" y1="210" y2="330" /><line stroke="red" x1="650" x2="808" y1="210" y2="330" /><line stroke="red" x1="810" x2="808" y1="210" y2="330" /><line stroke="red" x1="900" x2="808" y1="210" y2="330" /><line stroke="red" x1="960" x2="986" y1="210" y2="330" /><line stroke="red" x1="1040" x2="1030" y1="210" y2="330" /><line stroke="red" x1="1160" x2="1128" y1="210" y2="330" /><line stroke="red" x1="1220" x2="1128" y1="210" y2="330" /><line stroke="red" x1="1270" x2="1270" y1="210" y2="330" /></svg>