<?xml version="1.0" encoding="utf-8" ?>
<svg baseProfile="full" height="500" version="1.1" width="1200" xmlns="http://www.w3.org/2000/svg" xmlns:ev="http://www.w3.org/2001/xml-events" xmlns:xlink="http://www.w3.org/1999/xlink"><defs /><text fill="black" x="0" y="100">VIETNAMESE </text><text fill="black" x="20" y="150">POS: </text><text fill="black" x="20" y="200">Source: </text><text fill="black" x="150" y="150">Nq</text><text fill="black" x="150" y="200">Một</text><text fill="black" x="230" y="150">Nn</text><text fill="black" x="230" y="200">trận</text><text fill="black" x="310" y="150">Nn</text><text fill="black" x="310" y="200">chung_kết</text><text fill="black" x="390" y="150">Cm</text><text fill="black" x="390" y="200">giữa</text><text fill="black" x="470" y="150">Nn</text><text fill="black" x="470" y="200">đấu_thủ</text><text fill="black" x="550" y="150">Nn</text><text fill="black" x="550" y="200">hạt_giống</text><text fill="black" x="630" y="150">Nn</text><text fill="black" x="630" y="200">số</text><text fill="black" x="710" y="150">An</text><text fill="black" x="710" y="200">1</text><text fill="black" x="790" y="150">Cp</text><text fill="black" x="790" y="200">và</text><text fill="black" x="870" y="150">Nn</text><text fill="black" x="870" y="200">số</text><text fill="black" x="950" y="150">An</text><text fill="black" x="950" y="200">2</text><text fill="black" x="1030" y="150">PU</text><text fill="black" x="1030" y="200">.</text><text fill="black" x="0" y="450">ENGLISH </text><text fill="black" x="20" y="350">Target: </text><text fill="black" x="20" y="400">POS: </text><text fill="black" x="150" y="350">A</text><text fill="black" x="150" y="400">DT</text><text fill="black" x="230" y="350">final</text><text fill="black" x="230" y="400">JJ</text><text fill="black" x="310" y="350">between</text><text fill="black" x="310" y="400">IN</text><text fill="black" x="390" y="350">the</text><text fill="black" x="390" y="400">DT</text><text fill="black" x="470" y="350">first</text><text fill="black" x="470" y="400">JJ</text><text fill="black" x="550" y="350">and</text><text fill="black" x="550" y="400">CC</text><text fill="black" x="630" y="350">second</text><text fill="black" x="630" y="400">JJ</text><text fill="black" x="710" y="350">seeds</text><text fill="black" x="710" y="400">NNS</text><text fill="black" x="790" y="350">.</text><text fill="black" x="790" y="400">.</text><line stroke="red" x1="160" x2="150" y1="210" y2="330" /><line stroke="red" x1="250" x2="248" y1="210" y2="330" /><line stroke="red" x1="350" x2="248" y1="210" y2="330" /><line stroke="red" x1="410" x2="337" y1="210" y2="330" /><line stroke="red" x1="500" x2="728" y1="210" y2="330" /><line stroke="red" x1="590" x2="728" y1="210" y2="330" /><line stroke="red" x1="640" x2="728" y1="210" y2="330" /><line stroke="red" x1="710" x2="728" y1="210" y2="330" /><line stroke="red" x1="800" x2="559" y1="210" y2="330" /><line stroke="red" x1="880" x2="728" y1="210" y2="330" /><line stroke="red" x1="950" x2="728" y1="210" y2="330" /><line stroke="red" x1="1030" x2="790" y1="210" y2="330" /></svg>