<?xml version="1.0" encoding="utf-8" ?>
<svg baseProfile="full" height="500" version="1.1" width="1200" xmlns="http://www.w3.org/2000/svg" xmlns:ev="http://www.w3.org/2001/xml-events" xmlns:xlink="http://www.w3.org/1999/xlink"><defs /><text fill="black" x="0" y="100">VIETNAMESE </text><text fill="black" x="20" y="150">POS: </text><text fill="black" x="20" y="200">Source: </text><text fill="black" x="150" y="150">Nq</text><text fill="black" x="150" y="200">Một</text><text fill="black" x="230" y="150">Nn</text><text fill="black" x="230" y="200">bộ_phận</text><text fill="black" x="310" y="150">Vv</text><text fill="black" x="310" y="200">lọc</text><text fill="black" x="390" y="150">Vv</text><text fill="black" x="390" y="200">giữ</text><text fill="black" x="470" y="150">R</text><text fill="black" x="470" y="200">lại</text><text fill="black" x="550" y="150">Nn</text><text fill="black" x="550" y="200">bụi</text><text fill="black" x="630" y="150">Cm</text><text fill="black" x="630" y="200">từ</text><text fill="black" x="710" y="150">Nn</text><text fill="black" x="710" y="200">trên</text><text fill="black" x="790" y="150">R</text><text fill="black" x="790" y="200">không</text><text fill="black" x="870" y="150">Vv</text><text fill="black" x="870" y="200">rơi</text><text fill="black" x="950" y="150">D</text><text fill="black" x="950" y="200">xuống</text><text fill="black" x="1030" y="150">PU</text><text fill="black" x="1030" y="200">.</text><text fill="black" x="0" y="450">ENGLISH </text><text fill="black" x="20" y="350">Target: </text><text fill="black" x="20" y="400">POS: </text><text fill="black" x="150" y="350">A</text><text fill="black" x="150" y="400">DT</text><text fill="black" x="230" y="350">filter</text><text fill="black" x="230" y="400">NN</text><text fill="black" x="310" y="350">traps</text><text fill="black" x="310" y="400">NNS</text><text fill="black" x="390" y="350">dust</text><text fill="black" x="390" y="400">NN</text><text fill="black" x="470" y="350">from</text><text fill="black" x="470" y="400">IN</text><text fill="black" x="550" y="350">the</text><text fill="black" x="550" y="400">DT</text><text fill="black" x="630" y="350">air</text><text fill="black" x="630" y="400">NN</text><text fill="black" x="710" y="350">.</text><text fill="black" x="710" y="400">.</text><line stroke="red" x1="160" x2="150" y1="210" y2="330" /><line stroke="red" x1="260" x2="257" y1="210" y2="330" /><line stroke="red" x1="320" x2="257" y1="210" y2="330" /><line stroke="red" x1="400" x2="328" y1="210" y2="330" /><line stroke="red" x1="480" x2="328" y1="210" y2="330" /><line stroke="red" x1="560" x2="408" y1="210" y2="330" /><line stroke="red" x1="640" x2="488" y1="210" y2="330" /><line stroke="red" x1="730" x2="639" y1="210" y2="330" /><line stroke="red" x1="880" x2="328" y1="210" y2="330" /><line stroke="red" x1="970" x2="328" y1="210" y2="330" /><line stroke="red" x1="1030" x2="710" y1="210" y2="330" /></svg>