<?xml version="1.0" encoding="utf-8" ?>
<svg baseProfile="full" height="500" version="1.1" width="1100" xmlns="http://www.w3.org/2000/svg" xmlns:ev="http://www.w3.org/2001/xml-events" xmlns:xlink="http://www.w3.org/1999/xlink"><defs /><text fill="black" x="0" y="100">VIETNAMESE </text><text fill="black" x="20" y="150">POS: </text><text fill="black" x="20" y="200">Source: </text><text fill="black" x="150" y="150">Nn</text><text fill="black" x="150" y="200">Tỷ_số</text><text fill="black" x="230" y="150">Aa</text><text fill="black" x="230" y="200">cuối_cùng</text><text fill="black" x="310" y="150">Vc</text><text fill="black" x="310" y="200">là</text><text fill="black" x="390" y="150">Nq</text><text fill="black" x="390" y="200">hai</text><text fill="black" x="470" y="150">Nn</text><text fill="black" x="470" y="200">phát</text><text fill="black" x="550" y="150">Vv</text><text fill="black" x="550" y="200">trúng</text><text fill="black" x="630" y="150">PU</text><text fill="black" x="630" y="200">,</text><text fill="black" x="710" y="150">Nq</text><text fill="black" x="710" y="200">sáu</text><text fill="black" x="790" y="150">Nn</text><text fill="black" x="790" y="200">phát</text><text fill="black" x="870" y="150">Vv</text><text fill="black" x="870" y="200">trượt</text><text fill="black" x="950" y="150">PU</text><text fill="black" x="950" y="200">.</text><text fill="black" x="0" y="450">ENGLISH </text><text fill="black" x="20" y="350">Target: </text><text fill="black" x="20" y="400">POS: </text><text fill="black" x="150" y="350">A</text><text fill="black" x="150" y="400">DT</text><text fill="black" x="230" y="350">final</text><text fill="black" x="230" y="400">JJ</text><text fill="black" x="310" y="350">score</text><text fill="black" x="310" y="400">NN</text><text fill="black" x="390" y="350">of</text><text fill="black" x="390" y="400">IN</text><text fill="black" x="470" y="350">two</text><text fill="black" x="470" y="400">CD</text><text fill="black" x="550" y="350">hits</text><text fill="black" x="550" y="400">NNS</text><text fill="black" x="630" y="350">and</text><text fill="black" x="630" y="400">CC</text><text fill="black" x="710" y="350">six</text><text fill="black" x="710" y="400">CD</text><text fill="black" x="790" y="350">misses</text><text fill="black" x="790" y="400">VBZ</text><text fill="black" x="870" y="350">.</text><text fill="black" x="870" y="400">.</text><line stroke="red" x1="170" x2="817" y1="210" y2="330" /><line stroke="red" x1="270" x2="248" y1="210" y2="330" /><line stroke="red" x1="400" x2="479" y1="210" y2="330" /><line stroke="red" x1="490" x2="817" y1="210" y2="330" /><line stroke="red" x1="570" x2="568" y1="210" y2="330" /><line stroke="red" x1="720" x2="719" y1="210" y2="330" /><line stroke="red" x1="810" x2="817" y1="210" y2="330" /><line stroke="red" x1="890" x2="817" y1="210" y2="330" /><line stroke="red" x1="950" x2="870" y1="210" y2="330" /></svg>