<?xml version="1.0" encoding="utf-8" ?>
<svg baseProfile="full" height="500" version="1.1" width="800" xmlns="http://www.w3.org/2000/svg" xmlns:ev="http://www.w3.org/2001/xml-events" xmlns:xlink="http://www.w3.org/1999/xlink"><defs /><text fill="black" x="0" y="100">VIETNAMESE </text><text fill="black" x="20" y="150">POS: </text><text fill="black" x="20" y="200">Source: </text><text fill="black" x="150" y="150">Vv</text><text fill="black" x="150" y="200">Phạt_vạ</text><text fill="black" x="230" y="150">Cp</text><text fill="black" x="230" y="200">đối_với</text><text fill="black" x="310" y="150">Nc</text><text fill="black" x="310" y="200">sự</text><text fill="black" x="390" y="150">Aa</text><text fill="black" x="390" y="200">sai_lầm</text><text fill="black" x="470" y="150">Pd</text><text fill="black" x="470" y="200">này</text><text fill="black" x="550" y="150">Vc</text><text fill="black" x="550" y="200">là</text><text fill="black" x="630" y="150">Aa</text><text fill="black" x="630" y="200">đương_nhiên</text><text fill="black" x="710" y="150">PU</text><text fill="black" x="710" y="200">.</text><text fill="black" x="0" y="450">ENGLISH </text><text fill="black" x="20" y="350">Target: </text><text fill="black" x="20" y="400">POS: </text><text fill="black" x="150" y="350">A</text><text fill="black" x="150" y="400">DT</text><text fill="black" x="230" y="350">fine</text><text fill="black" x="230" y="400">NN</text><text fill="black" x="310" y="350">for</text><text fill="black" x="310" y="400">IN</text><text fill="black" x="390" y="350">this</text><text fill="black" x="390" y="400">DT</text><text fill="black" x="470" y="350">offence</text><text fill="black" x="470" y="400">NN</text><text fill="black" x="550" y="350">is</text><text fill="black" x="550" y="400">VBZ</text><text fill="black" x="630" y="350">automatic</text><text fill="black" x="630" y="400">JJ</text><text fill="black" x="710" y="350">.</text><text fill="black" x="710" y="400">.</text><line stroke="red" x1="180" x2="248" y1="210" y2="330" /><line stroke="red" x1="260" x2="319" y1="210" y2="330" /><line stroke="red" x1="320" x2="497" y1="210" y2="330" /><line stroke="red" x1="420" x2="666" y1="210" y2="330" /><line stroke="red" x1="480" x2="408" y1="210" y2="330" /><line stroke="red" x1="680" x2="666" y1="210" y2="330" /><line stroke="red" x1="710" x2="710" y1="210" y2="330" /></svg>