<?xml version="1.0" encoding="utf-8" ?>
<svg baseProfile="full" height="500" version="1.1" width="1000" xmlns="http://www.w3.org/2000/svg" xmlns:ev="http://www.w3.org/2001/xml-events" xmlns:xlink="http://www.w3.org/1999/xlink"><defs /><text fill="black" x="0" y="100">VIETNAMESE </text><text fill="black" x="20" y="150">POS: </text><text fill="black" x="20" y="200">Source: </text><text fill="black" x="150" y="150">Nq</text><text fill="black" x="150" y="200">Một</text><text fill="black" x="230" y="150">Nn</text><text fill="black" x="230" y="200">hãng</text><text fill="black" x="310" y="150">Aa</text><text fill="black" x="310" y="200">nổi_tiếng</text><text fill="black" x="390" y="150">Cm</text><text fill="black" x="390" y="200">nhờ</text><text fill="black" x="470" y="150">Nq</text><text fill="black" x="470" y="200">những</text><text fill="black" x="550" y="150">Nn</text><text fill="black" x="550" y="200">sản_phẩm</text><text fill="black" x="630" y="150">Ve</text><text fill="black" x="630" y="200">có</text><text fill="black" x="710" y="150">Nn</text><text fill="black" x="710" y="200">chất_lượng</text><text fill="black" x="790" y="150">Aa</text><text fill="black" x="790" y="200">cao</text><text fill="black" x="870" y="150">PU</text><text fill="black" x="870" y="200">.</text><text fill="black" x="0" y="450">ENGLISH </text><text fill="black" x="20" y="350">Target: </text><text fill="black" x="20" y="400">POS: </text><text fill="black" x="150" y="350">A</text><text fill="black" x="150" y="400">DT</text><text fill="black" x="230" y="350">firm</text><text fill="black" x="230" y="400">NN</text><text fill="black" x="310" y="350">known</text><text fill="black" x="310" y="400">VBN</text><text fill="black" x="390" y="350">for</text><text fill="black" x="390" y="400">IN</text><text fill="black" x="470" y="350">its</text><text fill="black" x="470" y="400">PRP$</text><text fill="black" x="550" y="350">high</text><text fill="black" x="550" y="400">JJ</text><text fill="black" x="630" y="350">-</text><text fill="black" x="630" y="400">:</text><text fill="black" x="710" y="350">quality</text><text fill="black" x="710" y="400">NN</text><text fill="black" x="790" y="350">products</text><text fill="black" x="790" y="400">NNS</text><text fill="black" x="870" y="350">.</text><text fill="black" x="870" y="400">.</text><line stroke="red" x1="160" x2="150" y1="210" y2="330" /><line stroke="red" x1="250" x2="248" y1="210" y2="330" /><line stroke="red" x1="350" x2="328" y1="210" y2="330" /><line stroke="red" x1="400" x2="328" y1="210" y2="330" /><line stroke="red" x1="590" x2="826" y1="210" y2="330" /><line stroke="red" x1="760" x2="737" y1="210" y2="330" /><line stroke="red" x1="800" x2="568" y1="210" y2="330" /><line stroke="red" x1="870" x2="870" y1="210" y2="330" /></svg>