<?xml version="1.0" encoding="utf-8" ?>
<svg baseProfile="full" height="500" version="1.1" width="900" xmlns="http://www.w3.org/2000/svg" xmlns:ev="http://www.w3.org/2001/xml-events" xmlns:xlink="http://www.w3.org/1999/xlink"><defs /><text fill="black" x="0" y="100">VIETNAMESE </text><text fill="black" x="20" y="150">POS: </text><text fill="black" x="20" y="200">Source: </text><text fill="black" x="150" y="150">Nq</text><text fill="black" x="150" y="200">Một</text><text fill="black" x="230" y="150">Nn</text><text fill="black" x="230" y="200">người</text><text fill="black" x="310" y="150">Aa</text><text fill="black" x="310" y="200">kiên_quyết</text><text fill="black" x="390" y="150">Vv</text><text fill="black" x="390" y="200">ủng_hộ</text><text fill="black" x="470" y="150">Nn</text><text fill="black" x="470" y="200">giáo_lý</text><text fill="black" x="550" y="150">Nr</text><text fill="black" x="550" y="200">Công</text><text fill="black" x="630" y="150">Nn</text><text fill="black" x="630" y="200">giáo</text><text fill="black" x="710" y="150">Aa</text><text fill="black" x="710" y="200">chính_thống</text><text fill="black" x="790" y="150">PU</text><text fill="black" x="790" y="200">.</text><text fill="black" x="0" y="450">ENGLISH </text><text fill="black" x="20" y="350">Target: </text><text fill="black" x="20" y="400">POS: </text><text fill="black" x="150" y="350">A</text><text fill="black" x="150" y="400">DT</text><text fill="black" x="230" y="350">firm</text><text fill="black" x="230" y="400">JJ</text><text fill="black" x="310" y="350">supporter</text><text fill="black" x="310" y="400">NN</text><text fill="black" x="390" y="350">of</text><text fill="black" x="390" y="400">IN</text><text fill="black" x="470" y="350">Catholic</text><text fill="black" x="470" y="400">NNP</text><text fill="black" x="550" y="350">orthodoxies</text><text fill="black" x="550" y="400">NNS</text><text fill="black" x="630" y="350">.</text><text fill="black" x="630" y="400">.</text><line stroke="red" x1="160" x2="150" y1="210" y2="330" /><line stroke="red" x1="250" x2="346" y1="210" y2="330" /><line stroke="red" x1="360" x2="346" y1="210" y2="330" /><line stroke="red" x1="420" x2="346" y1="210" y2="330" /><line stroke="red" x1="500" x2="595" y1="210" y2="330" /><line stroke="red" x1="570" x2="595" y1="210" y2="330" /><line stroke="red" x1="650" x2="506" y1="210" y2="330" /><line stroke="red" x1="760" x2="595" y1="210" y2="330" /><line stroke="red" x1="790" x2="630" y1="210" y2="330" /></svg>