<?xml version="1.0" encoding="utf-8" ?>
<svg baseProfile="full" height="500" version="1.1" width="1500" xmlns="http://www.w3.org/2000/svg" xmlns:ev="http://www.w3.org/2001/xml-events" xmlns:xlink="http://www.w3.org/1999/xlink"><defs /><text fill="black" x="0" y="100">VIETNAMESE </text><text fill="black" x="20" y="150">POS: </text><text fill="black" x="20" y="200">Source: </text><text fill="black" x="150" y="150">Nc</text><text fill="black" x="150" y="200">Vụ</text><text fill="black" x="230" y="150">Vv</text><text fill="black" x="230" y="200">cháy</text><text fill="black" x="310" y="150">Cm</text><text fill="black" x="310" y="200">ở</text><text fill="black" x="390" y="150">Nn</text><text fill="black" x="390" y="200">phòng</text><text fill="black" x="470" y="150">Vv</text><text fill="black" x="470" y="200">trưng_bày</text><text fill="black" x="550" y="150">Nn</text><text fill="black" x="550" y="200">tranh</text><text fill="black" x="630" y="150">R</text><text fill="black" x="630" y="200">đã</text><text fill="black" x="710" y="150">Vv</text><text fill="black" x="710" y="200">gây</text><text fill="black" x="790" y="150">R</text><text fill="black" x="790" y="200">ra</text><text fill="black" x="870" y="150">Nn</text><text fill="black" x="870" y="200">việc</text><text fill="black" x="950" y="150">Vv</text><text fill="black" x="950" y="200">kết_thúc</text><text fill="black" x="1030" y="150">Aa</text><text fill="black" x="1030" y="200">sớm</text><text fill="black" x="1110" y="150">Nc</text><text fill="black" x="1110" y="200">cuộc</text><text fill="black" x="1190" y="150">Vv</text><text fill="black" x="1190" y="200">triển_lãm</text><text fill="black" x="1270" y="150">PU</text><text fill="black" x="1270" y="200">.</text><text fill="black" x="0" y="450">ENGLISH </text><text fill="black" x="20" y="350">Target: </text><text fill="black" x="20" y="400">POS: </text><text fill="black" x="150" y="350">A</text><text fill="black" x="150" y="400">DT</text><text fill="black" x="230" y="350">fire</text><text fill="black" x="230" y="400">NN</text><text fill="black" x="310" y="350">in</text><text fill="black" x="310" y="400">IN</text><text fill="black" x="390" y="350">the</text><text fill="black" x="390" y="400">DT</text><text fill="black" x="470" y="350">gallery</text><text fill="black" x="470" y="400">NN</text><text fill="black" x="550" y="350">caused</text><text fill="black" x="550" y="400">VBD</text><text fill="black" x="630" y="350">the</text><text fill="black" x="630" y="400">DT</text><text fill="black" x="710" y="350">premature</text><text fill="black" x="710" y="400">JJ</text><text fill="black" x="790" y="350">closing</text><text fill="black" x="790" y="400">NN</text><text fill="black" x="870" y="350">of</text><text fill="black" x="870" y="400">IN</text><text fill="black" x="950" y="350">the</text><text fill="black" x="950" y="400">DT</text><text fill="black" x="1030" y="350">exhibition</text><text fill="black" x="1030" y="400">NN</text><text fill="black" x="1110" y="350">.</text><text fill="black" x="1110" y="400">.</text><line stroke="red" x1="160" x2="248" y1="210" y2="330" /><line stroke="red" x1="250" x2="248" y1="210" y2="330" /><line stroke="red" x1="310" x2="313" y1="210" y2="330" /><line stroke="red" x1="410" x2="497" y1="210" y2="330" /><line stroke="red" x1="510" x2="497" y1="210" y2="330" /><line stroke="red" x1="570" x2="497" y1="210" y2="330" /><line stroke="red" x1="720" x2="577" y1="210" y2="330" /><line stroke="red" x1="800" x2="577" y1="210" y2="330" /><line stroke="red" x1="890" x2="746" y1="210" y2="330" /><line stroke="red" x1="990" x2="817" y1="210" y2="330" /><line stroke="red" x1="1040" x2="817" y1="210" y2="330" /><line stroke="red" x1="1130" x2="1075" y1="210" y2="330" /><line stroke="red" x1="1230" x2="1075" y1="210" y2="330" /><line stroke="red" x1="1270" x2="1110" y1="210" y2="330" /></svg>