<?xml version="1.0" encoding="utf-8" ?>
<svg baseProfile="full" height="500" version="1.1" width="900" xmlns="http://www.w3.org/2000/svg" xmlns:ev="http://www.w3.org/2001/xml-events" xmlns:xlink="http://www.w3.org/1999/xlink"><defs /><text fill="black" x="0" y="100">VIETNAMESE </text><text fill="black" x="20" y="150">POS: </text><text fill="black" x="20" y="200">Source: </text><text fill="black" x="150" y="150">Nq</text><text fill="black" x="150" y="200">Một</text><text fill="black" x="230" y="150">Nn</text><text fill="black" x="230" y="200">miếng</text><text fill="black" x="310" y="150">Nn</text><text fill="black" x="310" y="200">xương</text><text fill="black" x="390" y="150">Nn</text><text fill="black" x="390" y="200">cá</text><text fill="black" x="470" y="150">Vv</text><text fill="black" x="470" y="200">mắc_kẹt</text><text fill="black" x="550" y="150">Cm</text><text fill="black" x="550" y="200">trong</text><text fill="black" x="630" y="150">Nn</text><text fill="black" x="630" y="200">họng</text><text fill="black" x="710" y="150">Pp</text><text fill="black" x="710" y="200">tôi</text><text fill="black" x="790" y="150">PU</text><text fill="black" x="790" y="200">.</text><text fill="black" x="0" y="450">ENGLISH </text><text fill="black" x="20" y="350">Target: </text><text fill="black" x="20" y="400">POS: </text><text fill="black" x="150" y="350">A</text><text fill="black" x="150" y="400">DT</text><text fill="black" x="230" y="350">fish</text><text fill="black" x="230" y="400">NN</text><text fill="black" x="310" y="350">bone</text><text fill="black" x="310" y="400">NN</text><text fill="black" x="390" y="350">has</text><text fill="black" x="390" y="400">VBZ</text><text fill="black" x="470" y="350">stuck</text><text fill="black" x="470" y="400">VBN</text><text fill="black" x="550" y="350">in</text><text fill="black" x="550" y="400">IN</text><text fill="black" x="630" y="350">my</text><text fill="black" x="630" y="400">PRP$</text><text fill="black" x="710" y="350">throat</text><text fill="black" x="710" y="400">NN</text><text fill="black" x="790" y="350">.</text><text fill="black" x="790" y="400">.</text><line stroke="red" x1="160" x2="150" y1="210" y2="330" /><line stroke="red" x1="250" x2="328" y1="210" y2="330" /><line stroke="red" x1="330" x2="328" y1="210" y2="330" /><line stroke="red" x1="400" x2="248" y1="210" y2="330" /><line stroke="red" x1="500" x2="488" y1="210" y2="330" /><line stroke="red" x1="570" x2="553" y1="210" y2="330" /><line stroke="red" x1="650" x2="737" y1="210" y2="330" /><line stroke="red" x1="720" x2="633" y1="210" y2="330" /><line stroke="red" x1="790" x2="790" y1="210" y2="330" /></svg>