<?xml version="1.0" encoding="utf-8" ?>
<svg baseProfile="full" height="500" version="1.1" width="1100" xmlns="http://www.w3.org/2000/svg" xmlns:ev="http://www.w3.org/2001/xml-events" xmlns:xlink="http://www.w3.org/1999/xlink"><defs /><text fill="black" x="0" y="100">VIETNAMESE </text><text fill="black" x="20" y="150">POS: </text><text fill="black" x="20" y="200">Source: </text><text fill="black" x="150" y="150">Nq</text><text fill="black" x="150" y="200">Một</text><text fill="black" x="230" y="150">Nn</text><text fill="black" x="230" y="200">hãng</text><text fill="black" x="310" y="150">Vv</text><text fill="black" x="310" y="200">buôn_bán</text><text fill="black" x="390" y="150">Nn</text><text fill="black" x="390" y="200">vũ_khí</text><text fill="black" x="470" y="150">PU</text><text fill="black" x="470" y="200">,</text><text fill="black" x="550" y="150">Nn</text><text fill="black" x="550" y="200">hàng</text><text fill="black" x="630" y="150">Vv</text><text fill="black" x="630" y="200">dệt</text><text fill="black" x="710" y="150">PU</text><text fill="black" x="710" y="200">,</text><text fill="black" x="790" y="150">Nn</text><text fill="black" x="790" y="200">ngũ_cốc</text><text fill="black" x="870" y="150">PU</text><text fill="black" x="870" y="200">.</text><text fill="black" x="0" y="450">ENGLISH </text><text fill="black" x="20" y="350">Target: </text><text fill="black" x="20" y="400">POS: </text><text fill="black" x="150" y="350">A</text><text fill="black" x="150" y="400">DT</text><text fill="black" x="230" y="350">firm</text><text fill="black" x="230" y="400">NN</text><text fill="black" x="310" y="350">which</text><text fill="black" x="310" y="400">WDT</text><text fill="black" x="390" y="350">trades</text><text fill="black" x="390" y="400">VBZ</text><text fill="black" x="470" y="350">in</text><text fill="black" x="470" y="400">IN</text><text fill="black" x="550" y="350">arms</text><text fill="black" x="550" y="400">NNS</text><text fill="black" x="630" y="350">,</text><text fill="black" x="630" y="400">,</text><text fill="black" x="710" y="350">textiles</text><text fill="black" x="710" y="400">NNS</text><text fill="black" x="790" y="350">,</text><text fill="black" x="790" y="400">,</text><text fill="black" x="870" y="350">grain</text><text fill="black" x="870" y="400">NN</text><text fill="black" x="950" y="350">.</text><text fill="black" x="950" y="400">.</text><line stroke="red" x1="160" x2="150" y1="210" y2="330" /><line stroke="red" x1="250" x2="248" y1="210" y2="330" /><line stroke="red" x1="350" x2="417" y1="210" y2="330" /><line stroke="red" x1="420" x2="568" y1="210" y2="330" /><line stroke="red" x1="470" x2="630" y1="210" y2="330" /><line stroke="red" x1="570" x2="746" y1="210" y2="330" /><line stroke="red" x1="640" x2="746" y1="210" y2="330" /><line stroke="red" x1="710" x2="790" y1="210" y2="330" /><line stroke="red" x1="820" x2="888" y1="210" y2="330" /><line stroke="red" x1="870" x2="950" y1="210" y2="330" /></svg>