<?xml version="1.0" encoding="utf-8" ?>
<svg baseProfile="full" height="500" version="1.1" width="1100" xmlns="http://www.w3.org/2000/svg" xmlns:ev="http://www.w3.org/2001/xml-events" xmlns:xlink="http://www.w3.org/1999/xlink"><defs /><text fill="black" x="0" y="100">VIETNAMESE </text><text fill="black" x="20" y="150">POS: </text><text fill="black" x="20" y="200">Source: </text><text fill="black" x="150" y="150">Nn</text><text fill="black" x="150" y="200">Chặng</text><text fill="black" x="230" y="150">An</text><text fill="black" x="230" y="200">đầu_tiên</text><text fill="black" x="310" y="150">Cm</text><text fill="black" x="310" y="200">trên</text><text fill="black" x="390" y="150">Nc</text><text fill="black" x="390" y="200">con</text><text fill="black" x="470" y="150">Nn</text><text fill="black" x="470" y="200">đường</text><text fill="black" x="550" y="150">D</text><text fill="black" x="550" y="200">đến</text><text fill="black" x="630" y="150">Nn</text><text fill="black" x="630" y="200">thành_công</text><text fill="black" x="710" y="150">PU</text><text fill="black" x="710" y="200">.</text><text fill="black" x="0" y="450">ENGLISH </text><text fill="black" x="20" y="350">Target: </text><text fill="black" x="20" y="400">POS: </text><text fill="black" x="150" y="350">A</text><text fill="black" x="150" y="400">DT</text><text fill="black" x="230" y="350">first</text><text fill="black" x="230" y="400">JJ</text><text fill="black" x="310" y="350">stepping</text><text fill="black" x="310" y="400">VBG</text><text fill="black" x="390" y="350">-</text><text fill="black" x="390" y="400">:</text><text fill="black" x="470" y="350">stone</text><text fill="black" x="470" y="400">NN</text><text fill="black" x="550" y="350">on</text><text fill="black" x="550" y="400">IN</text><text fill="black" x="630" y="350">the</text><text fill="black" x="630" y="400">DT</text><text fill="black" x="710" y="350">path</text><text fill="black" x="710" y="400">NN</text><text fill="black" x="790" y="350">to</text><text fill="black" x="790" y="400">TO</text><text fill="black" x="870" y="350">success</text><text fill="black" x="870" y="400">NN</text><text fill="black" x="950" y="350">.</text><text fill="black" x="950" y="400">.</text><line stroke="red" x1="170" x2="346" y1="210" y2="330" /><line stroke="red" x1="270" x2="248" y1="210" y2="330" /><line stroke="red" x1="330" x2="553" y1="210" y2="330" /><line stroke="red" x1="400" x2="728" y1="210" y2="330" /><line stroke="red" x1="490" x2="728" y1="210" y2="330" /><line stroke="red" x1="560" x2="793" y1="210" y2="330" /><line stroke="red" x1="680" x2="897" y1="210" y2="330" /><line stroke="red" x1="710" x2="950" y1="210" y2="330" /></svg>