<?xml version="1.0" encoding="utf-8" ?>
<svg baseProfile="full" height="500" version="1.1" width="1300" xmlns="http://www.w3.org/2000/svg" xmlns:ev="http://www.w3.org/2001/xml-events" xmlns:xlink="http://www.w3.org/1999/xlink"><defs /><text fill="black" x="0" y="100">VIETNAMESE </text><text fill="black" x="20" y="150">POS: </text><text fill="black" x="20" y="200">Source: </text><text fill="black" x="150" y="150">Nq</text><text fill="black" x="150" y="200">Một_chút</text><text fill="black" x="230" y="150">Nn</text><text fill="black" x="230" y="200">thích_thú</text><text fill="black" x="310" y="150">ID</text><text fill="black" x="310" y="200">chẳng_mấy_chốc</text><text fill="black" x="390" y="150">Vv</text><text fill="black" x="390" y="200">biến</text><text fill="black" x="470" y="150">Vv</text><text fill="black" x="470" y="200">thành</text><text fill="black" x="550" y="150">Nq</text><text fill="black" x="550" y="200">một</text><text fill="black" x="630" y="150">Nc</text><text fill="black" x="630" y="200">nỗi</text><text fill="black" x="710" y="150">Vv</text><text fill="black" x="710" y="200">khát_khao</text><text fill="black" x="790" y="150">Aa</text><text fill="black" x="790" y="200">nồng_cháy</text><text fill="black" x="870" y="150">PU</text><text fill="black" x="870" y="200">.</text><text fill="black" x="0" y="450">ENGLISH </text><text fill="black" x="20" y="350">Target: </text><text fill="black" x="20" y="400">POS: </text><text fill="black" x="150" y="350">A</text><text fill="black" x="150" y="400">DT</text><text fill="black" x="230" y="350">flicker</text><text fill="black" x="230" y="400">NN</text><text fill="black" x="310" y="350">of</text><text fill="black" x="310" y="400">IN</text><text fill="black" x="390" y="350">interest</text><text fill="black" x="390" y="400">NN</text><text fill="black" x="470" y="350">soon</text><text fill="black" x="470" y="400">RB</text><text fill="black" x="550" y="350">turned</text><text fill="black" x="550" y="400">VBD</text><text fill="black" x="630" y="350">into</text><text fill="black" x="630" y="400">IN</text><text fill="black" x="710" y="350">the</text><text fill="black" x="710" y="400">DT</text><text fill="black" x="790" y="350">burning</text><text fill="black" x="790" y="400">NN</text><text fill="black" x="870" y="350">flames</text><text fill="black" x="870" y="400">NNS</text><text fill="black" x="950" y="350">of</text><text fill="black" x="950" y="400">IN</text><text fill="black" x="1030" y="350">desire</text><text fill="black" x="1030" y="400">NN</text><text fill="black" x="1110" y="350">.</text><text fill="black" x="1110" y="400">.</text><line stroke="red" x1="190" x2="257" y1="210" y2="330" /><line stroke="red" x1="270" x2="257" y1="210" y2="330" /><line stroke="red" x1="380" x2="257" y1="210" y2="330" /><line stroke="red" x1="410" x2="577" y1="210" y2="330" /><line stroke="red" x1="490" x2="648" y1="210" y2="330" /><line stroke="red" x1="640" x2="257" y1="210" y2="330" /><line stroke="red" x1="750" x2="257" y1="210" y2="330" /><line stroke="red" x1="830" x2="257" y1="210" y2="330" /><line stroke="red" x1="870" x2="1110" y1="210" y2="330" /></svg>