<?xml version="1.0" encoding="utf-8" ?>
<svg baseProfile="full" height="500" version="1.1" width="1200" xmlns="http://www.w3.org/2000/svg" xmlns:ev="http://www.w3.org/2001/xml-events" xmlns:xlink="http://www.w3.org/1999/xlink"><defs /><text fill="black" x="0" y="100">VIETNAMESE </text><text fill="black" x="20" y="150">POS: </text><text fill="black" x="20" y="200">Source: </text><text fill="black" x="150" y="150">Nn</text><text fill="black" x="150" y="200">Đuốc</text><text fill="black" x="230" y="150">Vc</text><text fill="black" x="230" y="200">là</text><text fill="black" x="310" y="150">Nn</text><text fill="black" x="310" y="200">thứ</text><text fill="black" x="390" y="150">Nn</text><text fill="black" x="390" y="200">vũ_khí</text><text fill="black" x="470" y="150">Aa</text><text fill="black" x="470" y="200">lợi_hại</text><text fill="black" x="550" y="150">Vv</text><text fill="black" x="550" y="200">chống</text><text fill="black" x="630" y="150">R</text><text fill="black" x="630" y="200">lại</text><text fill="black" x="710" y="150">Nn</text><text fill="black" x="710" y="200">thú_vật</text><text fill="black" x="790" y="150">PU</text><text fill="black" x="790" y="200">.</text><text fill="black" x="0" y="450">ENGLISH </text><text fill="black" x="20" y="350">Target: </text><text fill="black" x="20" y="400">POS: </text><text fill="black" x="150" y="350">A</text><text fill="black" x="150" y="400">DT</text><text fill="black" x="230" y="350">flaming</text><text fill="black" x="230" y="400">JJ</text><text fill="black" x="310" y="350">torch</text><text fill="black" x="310" y="400">NN</text><text fill="black" x="390" y="350">was</text><text fill="black" x="390" y="400">VBD</text><text fill="black" x="470" y="350">a</text><text fill="black" x="470" y="400">DT</text><text fill="black" x="550" y="350">very</text><text fill="black" x="550" y="400">RB</text><text fill="black" x="630" y="350">good</text><text fill="black" x="630" y="400">JJ</text><text fill="black" x="710" y="350">weapon</text><text fill="black" x="710" y="400">NN</text><text fill="black" x="790" y="350">against</text><text fill="black" x="790" y="400">IN</text><text fill="black" x="870" y="350">an</text><text fill="black" x="870" y="400">DT</text><text fill="black" x="950" y="350">animal</text><text fill="black" x="950" y="400">NN</text><text fill="black" x="1030" y="350">.</text><text fill="black" x="1030" y="400">.</text><line stroke="red" x1="170" x2="257" y1="210" y2="330" /><line stroke="red" x1="320" x2="328" y1="210" y2="330" /><line stroke="red" x1="420" x2="737" y1="210" y2="330" /><line stroke="red" x1="500" x2="737" y1="210" y2="330" /><line stroke="red" x1="570" x2="817" y1="210" y2="330" /><line stroke="red" x1="640" x2="817" y1="210" y2="330" /><line stroke="red" x1="740" x2="977" y1="210" y2="330" /><line stroke="red" x1="790" x2="1030" y1="210" y2="330" /></svg>