<?xml version="1.0" encoding="utf-8" ?>
<svg baseProfile="full" height="500" version="1.1" width="1600" xmlns="http://www.w3.org/2000/svg" xmlns:ev="http://www.w3.org/2001/xml-events" xmlns:xlink="http://www.w3.org/1999/xlink"><defs /><text fill="black" x="0" y="100">VIETNAMESE </text><text fill="black" x="20" y="150">POS: </text><text fill="black" x="20" y="200">Source: </text><text fill="black" x="150" y="150">Nq</text><text fill="black" x="150" y="200">Một</text><text fill="black" x="230" y="150">Nc</text><text fill="black" x="230" y="200">chiếc</text><text fill="black" x="310" y="150">Nn</text><text fill="black" x="310" y="200">xe</text><text fill="black" x="390" y="150">Nn</text><text fill="black" x="390" y="200">ôtô</text><text fill="black" x="470" y="150">Aa</text><text fill="black" x="470" y="200">hào_nhoáng</text><text fill="black" x="550" y="150">Aa</text><text fill="black" x="550" y="200">đắt_giá</text><text fill="black" x="630" y="150">Ve</text><text fill="black" x="630" y="200">có</text><text fill="black" x="710" y="150">Nq</text><text fill="black" x="710" y="200">những</text><text fill="black" x="790" y="150">Nn</text><text fill="black" x="790" y="200">đồ</text><text fill="black" x="870" y="150">Vv</text><text fill="black" x="870" y="200">thêm_thắt</text><text fill="black" x="950" y="150">Aa</text><text fill="black" x="950" y="200">hấp_dẫn</text><text fill="black" x="1030" y="150">Cp</text><text fill="black" x="1030" y="200">như</text><text fill="black" x="1110" y="150">Nn</text><text fill="black" x="1110" y="200">cửa_kính</text><text fill="black" x="1190" y="150">Pp</text><text fill="black" x="1190" y="200">tự</text><text fill="black" x="1270" y="150">Vv</text><text fill="black" x="1270" y="200">quay</text><text fill="black" x="1350" y="150">PU</text><text fill="black" x="1350" y="200">.</text><text fill="black" x="0" y="450">ENGLISH </text><text fill="black" x="20" y="350">Target: </text><text fill="black" x="20" y="400">POS: </text><text fill="black" x="150" y="350">A</text><text fill="black" x="150" y="400">DT</text><text fill="black" x="230" y="350">flashy</text><text fill="black" x="230" y="400">JJ</text><text fill="black" x="310" y="350">expensive</text><text fill="black" x="310" y="400">JJ</text><text fill="black" x="390" y="350">car</text><text fill="black" x="390" y="400">NN</text><text fill="black" x="470" y="350">with</text><text fill="black" x="470" y="400">IN</text><text fill="black" x="550" y="350">all</text><text fill="black" x="550" y="400">DT</text><text fill="black" x="630" y="350">sorts</text><text fill="black" x="630" y="400">NNS</text><text fill="black" x="710" y="350">of</text><text fill="black" x="710" y="400">IN</text><text fill="black" x="790" y="350">gimmicks</text><text fill="black" x="790" y="400">NNS</text><text fill="black" x="870" y="350">like</text><text fill="black" x="870" y="400">IN</text><text fill="black" x="950" y="350">self</text><text fill="black" x="950" y="400">NN</text><text fill="black" x="1030" y="350">-</text><text fill="black" x="1030" y="400">:</text><text fill="black" x="1110" y="350">winding</text><text fill="black" x="1110" y="400">VBG</text><text fill="black" x="1190" y="350">windows</text><text fill="black" x="1190" y="400">NNS</text><text fill="black" x="1270" y="350">.</text><text fill="black" x="1270" y="400">.</text><line stroke="red" x1="160" x2="150" y1="210" y2="330" /><line stroke="red" x1="250" x2="257" y1="210" y2="330" /><line stroke="red" x1="320" x2="399" y1="210" y2="330" /><line stroke="red" x1="400" x2="399" y1="210" y2="330" /><line stroke="red" x1="520" x2="826" y1="210" y2="330" /><line stroke="red" x1="580" x2="826" y1="210" y2="330" /><line stroke="red" x1="730" x2="826" y1="210" y2="330" /><line stroke="red" x1="800" x2="826" y1="210" y2="330" /><line stroke="red" x1="910" x2="826" y1="210" y2="330" /><line stroke="red" x1="980" x2="826" y1="210" y2="330" /><line stroke="red" x1="1040" x2="888" y1="210" y2="330" /><line stroke="red" x1="1150" x2="1217" y1="210" y2="330" /><line stroke="red" x1="1200" x2="968" y1="210" y2="330" /><line stroke="red" x1="1290" x2="1137" y1="210" y2="330" /><line stroke="red" x1="1350" x2="1270" y1="210" y2="330" /></svg>