<?xml version="1.0" encoding="utf-8" ?>
<svg baseProfile="full" height="500" version="1.1" width="1400" xmlns="http://www.w3.org/2000/svg" xmlns:ev="http://www.w3.org/2001/xml-events" xmlns:xlink="http://www.w3.org/1999/xlink"><defs /><text fill="black" x="0" y="100">VIETNAMESE </text><text fill="black" x="20" y="150">POS: </text><text fill="black" x="20" y="200">Source: </text><text fill="black" x="150" y="150">Nc</text><text fill="black" x="150" y="200">Sự</text><text fill="black" x="230" y="150">Aa</text><text fill="black" x="230" y="200">ngu_xuẩn</text><text fill="black" x="310" y="150">Aa</text><text fill="black" x="310" y="200">trường_kỳ</text><text fill="black" x="390" y="150">Cm</text><text fill="black" x="390" y="200">của</text><text fill="black" x="470" y="150">Nq</text><text fill="black" x="470" y="200">những</text><text fill="black" x="550" y="150">Nn</text><text fill="black" x="550" y="200">khối</text><text fill="black" x="630" y="150">Nn</text><text fill="black" x="630" y="200">óc</text><text fill="black" x="710" y="150">Aa</text><text fill="black" x="710" y="200">nhỏ_bé</text><text fill="black" x="790" y="150">Vc</text><text fill="black" x="790" y="200">là</text><text fill="black" x="870" y="150">Nq</text><text fill="black" x="870" y="200">một</text><text fill="black" x="950" y="150">Nc</text><text fill="black" x="950" y="200">điều</text><text fill="black" x="1030" y="150">Vv</text><text fill="black" x="1030" y="200">đáng</text><text fill="black" x="1110" y="150">Vv</text><text fill="black" x="1110" y="200">sợ</text><text fill="black" x="1190" y="150">PU</text><text fill="black" x="1190" y="200">.</text><text fill="black" x="0" y="450">ENGLISH </text><text fill="black" x="20" y="350">Target: </text><text fill="black" x="20" y="400">POS: </text><text fill="black" x="150" y="350">A</text><text fill="black" x="150" y="400">DT</text><text fill="black" x="230" y="350">foolish</text><text fill="black" x="230" y="400">JJ</text><text fill="black" x="310" y="350">consistency</text><text fill="black" x="310" y="400">NN</text><text fill="black" x="390" y="350">is</text><text fill="black" x="390" y="400">VBZ</text><text fill="black" x="470" y="350">the</text><text fill="black" x="470" y="400">DT</text><text fill="black" x="550" y="350">hobgoblin</text><text fill="black" x="550" y="400">NN</text><text fill="black" x="630" y="350">of</text><text fill="black" x="630" y="400">IN</text><text fill="black" x="710" y="350">the</text><text fill="black" x="710" y="400">DT</text><text fill="black" x="790" y="350">little</text><text fill="black" x="790" y="400">JJ</text><text fill="black" x="870" y="350">minds</text><text fill="black" x="870" y="400">NNS</text><text fill="black" x="950" y="350">.</text><text fill="black" x="950" y="400">.</text><line stroke="red" x1="160" x2="257" y1="210" y2="330" /><line stroke="red" x1="270" x2="586" y1="210" y2="330" /><line stroke="red" x1="350" x2="586" y1="210" y2="330" /><line stroke="red" x1="570" x2="586" y1="210" y2="330" /><line stroke="red" x1="640" x2="586" y1="210" y2="330" /><line stroke="red" x1="740" x2="586" y1="210" y2="330" /><line stroke="red" x1="880" x2="586" y1="210" y2="330" /><line stroke="red" x1="970" x2="586" y1="210" y2="330" /><line stroke="red" x1="1050" x2="586" y1="210" y2="330" /><line stroke="red" x1="1120" x2="586" y1="210" y2="330" /><line stroke="red" x1="1190" x2="950" y1="210" y2="330" /></svg>