<?xml version="1.0" encoding="utf-8" ?>
<svg baseProfile="full" height="500" version="1.1" width="1300" xmlns="http://www.w3.org/2000/svg" xmlns:ev="http://www.w3.org/2001/xml-events" xmlns:xlink="http://www.w3.org/1999/xlink"><defs /><text fill="black" x="0" y="100">VIETNAMESE </text><text fill="black" x="20" y="150">POS: </text><text fill="black" x="20" y="200">Source: </text><text fill="black" x="150" y="150">Nn</text><text fill="black" x="150" y="200">Máy</text><text fill="black" x="230" y="150">Vv</text><text fill="black" x="230" y="200">xử_lý</text><text fill="black" x="310" y="150">Nn</text><text fill="black" x="310" y="200">thức_ăn</text><text fill="black" x="390" y="150">Vc</text><text fill="black" x="390" y="200">là</text><text fill="black" x="470" y="150">Nn</text><text fill="black" x="470" y="200">dụng_cụ</text><text fill="black" x="550" y="150">Aa</text><text fill="black" x="550" y="200">mới_mẻ</text><text fill="black" x="630" y="150">R</text><text fill="black" x="630" y="200">nhất</text><text fill="black" x="710" y="150">Cm</text><text fill="black" x="710" y="200">trong</text><text fill="black" x="790" y="150">Nq</text><text fill="black" x="790" y="200">các</text><text fill="black" x="870" y="150">Nn</text><text fill="black" x="870" y="200">thiết_bị</text><text fill="black" x="950" y="150">Cm</text><text fill="black" x="950" y="200">của</text><text fill="black" x="1030" y="150">Nn</text><text fill="black" x="1030" y="200">nhà_bếp</text><text fill="black" x="1110" y="150">PU</text><text fill="black" x="1110" y="200">.</text><text fill="black" x="0" y="450">ENGLISH </text><text fill="black" x="20" y="350">Target: </text><text fill="black" x="20" y="400">POS: </text><text fill="black" x="150" y="350">A</text><text fill="black" x="150" y="400">DT</text><text fill="black" x="230" y="350">food</text><text fill="black" x="230" y="400">NN</text><text fill="black" x="310" y="350">processor</text><text fill="black" x="310" y="400">NN</text><text fill="black" x="390" y="350">that</text><text fill="black" x="390" y="400">WDT</text><text fill="black" x="470" y="350">is</text><text fill="black" x="470" y="400">VBZ</text><text fill="black" x="550" y="350">the</text><text fill="black" x="550" y="400">DT</text><text fill="black" x="630" y="350">last</text><text fill="black" x="630" y="400">JJ</text><text fill="black" x="710" y="350">word</text><text fill="black" x="710" y="400">NN</text><text fill="black" x="790" y="350">in</text><text fill="black" x="790" y="400">IN</text><text fill="black" x="870" y="350">kitchen</text><text fill="black" x="870" y="400">NN</text><text fill="black" x="950" y="350">equipment</text><text fill="black" x="950" y="400">NN</text><text fill="black" x="1030" y="350">.</text><text fill="black" x="1030" y="400">.</text><line stroke="red" x1="160" x2="346" y1="210" y2="330" /><line stroke="red" x1="250" x2="346" y1="210" y2="330" /><line stroke="red" x1="340" x2="248" y1="210" y2="330" /><line stroke="red" x1="500" x2="346" y1="210" y2="330" /><line stroke="red" x1="580" x2="346" y1="210" y2="330" /><line stroke="red" x1="650" x2="346" y1="210" y2="330" /><line stroke="red" x1="730" x2="793" y1="210" y2="330" /><line stroke="red" x1="910" x2="986" y1="210" y2="330" /><line stroke="red" x1="1060" x2="897" y1="210" y2="330" /><line stroke="red" x1="1110" x2="1030" y1="210" y2="330" /></svg>