<?xml version="1.0" encoding="utf-8" ?>
<svg baseProfile="full" height="500" version="1.1" width="1100" xmlns="http://www.w3.org/2000/svg" xmlns:ev="http://www.w3.org/2001/xml-events" xmlns:xlink="http://www.w3.org/1999/xlink"><defs /><text fill="black" x="0" y="100">VIETNAMESE </text><text fill="black" x="20" y="150">POS: </text><text fill="black" x="20" y="200">Source: </text><text fill="black" x="150" y="150">Nq</text><text fill="black" x="150" y="200">Một</text><text fill="black" x="230" y="150">Nn</text><text fill="black" x="230" y="200">lực_lượng</text><text fill="black" x="310" y="150">PU</text><text fill="black" x="310" y="200">,</text><text fill="black" x="390" y="150">Nn</text><text fill="black" x="390" y="200">sự_kiện</text><text fill="black" x="470" y="150">PU</text><text fill="black" x="470" y="200">,</text><text fill="black" x="550" y="150">Nn</text><text fill="black" x="550" y="200">con_người</text><text fill="black" x="630" y="150">Vv</text><text fill="black" x="630" y="200">cần</text><text fill="black" x="710" y="150">Vv</text><text fill="black" x="710" y="200">được</text><text fill="black" x="790" y="150">Vv</text><text fill="black" x="790" y="200">coi_trọng</text><text fill="black" x="870" y="150">PU</text><text fill="black" x="870" y="200">.</text><text fill="black" x="0" y="450">ENGLISH </text><text fill="black" x="20" y="350">Target: </text><text fill="black" x="20" y="400">POS: </text><text fill="black" x="150" y="350">A</text><text fill="black" x="150" y="400">DT</text><text fill="black" x="230" y="350">force</text><text fill="black" x="230" y="400">NN</text><text fill="black" x="310" y="350">,</text><text fill="black" x="310" y="400">,</text><text fill="black" x="390" y="350">fact</text><text fill="black" x="390" y="400">NN</text><text fill="black" x="470" y="350">,</text><text fill="black" x="470" y="400">,</text><text fill="black" x="550" y="350">person</text><text fill="black" x="550" y="400">NN</text><text fill="black" x="630" y="350">to</text><text fill="black" x="630" y="400">TO</text><text fill="black" x="710" y="350">be</text><text fill="black" x="710" y="400">VB</text><text fill="black" x="790" y="350">reckoned</text><text fill="black" x="790" y="400">VBN</text><text fill="black" x="870" y="350">with</text><text fill="black" x="870" y="400">IN</text><text fill="black" x="950" y="350">.</text><text fill="black" x="950" y="400">.</text><line stroke="red" x1="160" x2="150" y1="210" y2="330" /><line stroke="red" x1="270" x2="248" y1="210" y2="330" /><line stroke="red" x1="310" x2="310" y1="210" y2="330" /><line stroke="red" x1="420" x2="408" y1="210" y2="330" /><line stroke="red" x1="470" x2="470" y1="210" y2="330" /><line stroke="red" x1="590" x2="577" y1="210" y2="330" /><line stroke="red" x1="640" x2="826" y1="210" y2="330" /><line stroke="red" x1="830" x2="826" y1="210" y2="330" /><line stroke="red" x1="870" x2="950" y1="210" y2="330" /></svg>