<?xml version="1.0" encoding="utf-8" ?>
<svg baseProfile="full" height="500" version="1.1" width="1100" xmlns="http://www.w3.org/2000/svg" xmlns:ev="http://www.w3.org/2001/xml-events" xmlns:xlink="http://www.w3.org/1999/xlink"><defs /><text fill="black" x="0" y="100">VIETNAMESE </text><text fill="black" x="20" y="150">POS: </text><text fill="black" x="20" y="200">Source: </text><text fill="black" x="150" y="150">Nq</text><text fill="black" x="150" y="200">Một</text><text fill="black" x="230" y="150">Nn</text><text fill="black" x="230" y="200">dịch</text><text fill="black" x="310" y="150">Nn</text><text fill="black" x="310" y="200">cúm</text><text fill="black" x="390" y="150">Vv</text><text fill="black" x="390" y="200">lan</text><text fill="black" x="470" y="150">Aa</text><text fill="black" x="470" y="200">rộng</text><text fill="black" x="550" y="150">Aa</text><text fill="black" x="550" y="200">khắp</text><text fill="black" x="630" y="150">Nn</text><text fill="black" x="630" y="200">trường</text><text fill="black" x="710" y="150">Cm</text><text fill="black" x="710" y="200">trong</text><text fill="black" x="790" y="150">Aa</text><text fill="black" x="790" y="200">nhiều</text><text fill="black" x="870" y="150">Nt</text><text fill="black" x="870" y="200">tuần_lễ</text><text fill="black" x="950" y="150">PU</text><text fill="black" x="950" y="200">.</text><text fill="black" x="0" y="450">ENGLISH </text><text fill="black" x="20" y="350">Target: </text><text fill="black" x="20" y="400">POS: </text><text fill="black" x="150" y="350">A</text><text fill="black" x="150" y="400">DT</text><text fill="black" x="230" y="350">flu</text><text fill="black" x="230" y="400">NN</text><text fill="black" x="310" y="350">epidemic</text><text fill="black" x="310" y="400">JJ</text><text fill="black" x="390" y="350">raged</text><text fill="black" x="390" y="400">VBD</text><text fill="black" x="470" y="350">through</text><text fill="black" x="470" y="400">IN</text><text fill="black" x="550" y="350">the</text><text fill="black" x="550" y="400">DT</text><text fill="black" x="630" y="350">school</text><text fill="black" x="630" y="400">NN</text><text fill="black" x="710" y="350">for</text><text fill="black" x="710" y="400">IN</text><text fill="black" x="790" y="350">weeks</text><text fill="black" x="790" y="400">NNS</text><text fill="black" x="870" y="350">.</text><text fill="black" x="870" y="400">.</text><line stroke="red" x1="160" x2="150" y1="210" y2="330" /><line stroke="red" x1="250" x2="346" y1="210" y2="330" /><line stroke="red" x1="320" x2="239" y1="210" y2="330" /><line stroke="red" x1="400" x2="408" y1="210" y2="330" /><line stroke="red" x1="490" x2="408" y1="210" y2="330" /><line stroke="red" x1="570" x2="497" y1="210" y2="330" /><line stroke="red" x1="660" x2="657" y1="210" y2="330" /><line stroke="red" x1="810" x2="808" y1="210" y2="330" /><line stroke="red" x1="900" x2="808" y1="210" y2="330" /><line stroke="red" x1="950" x2="870" y1="210" y2="330" /></svg>