<?xml version="1.0" encoding="utf-8" ?>
<svg baseProfile="full" height="500" version="1.1" width="900" xmlns="http://www.w3.org/2000/svg" xmlns:ev="http://www.w3.org/2001/xml-events" xmlns:xlink="http://www.w3.org/1999/xlink"><defs /><text fill="black" x="0" y="100">VIETNAMESE </text><text fill="black" x="20" y="150">POS: </text><text fill="black" x="20" y="200">Source: </text><text fill="black" x="150" y="150">Nn</text><text fill="black" x="150" y="200">Động_cơ_đốt_trong</text><text fill="black" x="230" y="150">Nq</text><text fill="black" x="230" y="200">bốn</text><text fill="black" x="310" y="150">M</text><text fill="black" x="310" y="200">thì</text><text fill="black" x="390" y="150">PU</text><text fill="black" x="390" y="200">.</text><text fill="black" x="0" y="450">ENGLISH </text><text fill="black" x="20" y="350">Target: </text><text fill="black" x="20" y="400">POS: </text><text fill="black" x="150" y="350">A</text><text fill="black" x="150" y="400">DT</text><text fill="black" x="230" y="350">four</text><text fill="black" x="230" y="400">CD</text><text fill="black" x="310" y="350">-</text><text fill="black" x="310" y="400">:</text><text fill="black" x="390" y="350">cycle</text><text fill="black" x="390" y="400">NN</text><text fill="black" x="470" y="350">internal</text><text fill="black" x="470" y="400">JJ</text><text fill="black" x="550" y="350">-</text><text fill="black" x="550" y="400">:</text><text fill="black" x="630" y="350">combustion</text><text fill="black" x="630" y="400">NN</text><text fill="black" x="710" y="350">engine</text><text fill="black" x="710" y="400">NN</text><text fill="black" x="790" y="350">.</text><text fill="black" x="790" y="400">.</text><line stroke="red" x1="230" x2="675" y1="210" y2="330" /><line stroke="red" x1="240" x2="248" y1="210" y2="330" /><line stroke="red" x1="320" x2="675" y1="210" y2="330" /><line stroke="red" x1="390" x2="790" y1="210" y2="330" /></svg>