<?xml version="1.0" encoding="utf-8" ?>
<svg baseProfile="full" height="500" version="1.1" width="1300" xmlns="http://www.w3.org/2000/svg" xmlns:ev="http://www.w3.org/2001/xml-events" xmlns:xlink="http://www.w3.org/1999/xlink"><defs /><text fill="black" x="0" y="100">VIETNAMESE </text><text fill="black" x="20" y="150">POS: </text><text fill="black" x="20" y="200">Source: </text><text fill="black" x="150" y="150">Nq</text><text fill="black" x="150" y="200">Một</text><text fill="black" x="230" y="150">Nn</text><text fill="black" x="230" y="200">lớp</text><text fill="black" x="310" y="150">Nn</text><text fill="black" x="310" y="200">sơn</text><text fill="black" x="390" y="150">Cp</text><text fill="black" x="390" y="200">mới</text><text fill="black" x="470" y="150">Aa</text><text fill="black" x="470" y="200">có_thể</text><text fill="black" x="550" y="150">Vv</text><text fill="black" x="550" y="200">làm</text><text fill="black" x="630" y="150">Vv</text><text fill="black" x="630" y="200">biến_đổi</text><text fill="black" x="710" y="150">Aa</text><text fill="black" x="710" y="200">hẳn</text><text fill="black" x="790" y="150">Nn</text><text fill="black" x="790" y="200">bề_ngoài</text><text fill="black" x="870" y="150">Nq</text><text fill="black" x="870" y="200">một</text><text fill="black" x="950" y="150">Nc</text><text fill="black" x="950" y="200">căn</text><text fill="black" x="1030" y="150">Nn</text><text fill="black" x="1030" y="200">phòng</text><text fill="black" x="1110" y="150">PU</text><text fill="black" x="1110" y="200">.</text><text fill="black" x="0" y="450">ENGLISH </text><text fill="black" x="20" y="350">Target: </text><text fill="black" x="20" y="400">POS: </text><text fill="black" x="150" y="350">A</text><text fill="black" x="150" y="400">DT</text><text fill="black" x="230" y="350">fresh</text><text fill="black" x="230" y="400">JJ</text><text fill="black" x="310" y="350">coat</text><text fill="black" x="310" y="400">NN</text><text fill="black" x="390" y="350">of</text><text fill="black" x="390" y="400">IN</text><text fill="black" x="470" y="350">paint</text><text fill="black" x="470" y="400">NN</text><text fill="black" x="550" y="350">can</text><text fill="black" x="550" y="400">MD</text><text fill="black" x="630" y="350">transform</text><text fill="black" x="630" y="400">VB</text><text fill="black" x="710" y="350">a</text><text fill="black" x="710" y="400">DT</text><text fill="black" x="790" y="350">room</text><text fill="black" x="790" y="400">NN</text><text fill="black" x="870" y="350">.</text><text fill="black" x="870" y="400">.</text><line stroke="red" x1="160" x2="150" y1="210" y2="330" /><line stroke="red" x1="240" x2="488" y1="210" y2="330" /><line stroke="red" x1="320" x2="488" y1="210" y2="330" /><line stroke="red" x1="400" x2="248" y1="210" y2="330" /><line stroke="red" x1="500" x2="559" y1="210" y2="330" /><line stroke="red" x1="560" x2="666" y1="210" y2="330" /><line stroke="red" x1="670" x2="666" y1="210" y2="330" /><line stroke="red" x1="720" x2="666" y1="210" y2="330" /><line stroke="red" x1="830" x2="666" y1="210" y2="330" /><line stroke="red" x1="880" x2="710" y1="210" y2="330" /><line stroke="red" x1="960" x2="808" y1="210" y2="330" /><line stroke="red" x1="1050" x2="808" y1="210" y2="330" /><line stroke="red" x1="1110" x2="870" y1="210" y2="330" /></svg>