<?xml version="1.0" encoding="utf-8" ?>
<svg baseProfile="full" height="500" version="1.1" width="1600" xmlns="http://www.w3.org/2000/svg" xmlns:ev="http://www.w3.org/2001/xml-events" xmlns:xlink="http://www.w3.org/1999/xlink"><defs /><text fill="black" x="0" y="100">VIETNAMESE </text><text fill="black" x="20" y="150">POS: </text><text fill="black" x="20" y="200">Source: </text><text fill="black" x="150" y="150">Nq</text><text fill="black" x="150" y="200">Một</text><text fill="black" x="230" y="150">Nc</text><text fill="black" x="230" y="200">quả</text><text fill="black" x="310" y="150">Nn</text><text fill="black" x="310" y="200">trứng</text><text fill="black" x="390" y="150">Vv</text><text fill="black" x="390" y="200">rán</text><text fill="black" x="470" y="150">Cp</text><text fill="black" x="470" y="200">và</text><text fill="black" x="550" y="150">Nq</text><text fill="black" x="550" y="200">vài</text><text fill="black" x="630" y="150">Nn</text><text fill="black" x="630" y="200">lát</text><text fill="black" x="710" y="150">Aa</text><text fill="black" x="710" y="200">mỏng</text><text fill="black" x="790" y="150">Nn</text><text fill="black" x="790" y="200">giăm</text><text fill="black" x="870" y="150">PU</text><text fill="black" x="870" y="200">-</text><text fill="black" x="950" y="150">Nn</text><text fill="black" x="950" y="200">bông</text><text fill="black" x="1030" y="150">Vv</text><text fill="black" x="1030" y="200">cho</text><text fill="black" x="1110" y="150">Nn</text><text fill="black" x="1110" y="200">bữa</text><text fill="black" x="1190" y="150">Vv</text><text fill="black" x="1190" y="200">ăn</text><text fill="black" x="1270" y="150">Nt</text><text fill="black" x="1270" y="200">sáng</text><text fill="black" x="1350" y="150">PU</text><text fill="black" x="1350" y="200">.</text><text fill="black" x="0" y="450">ENGLISH </text><text fill="black" x="20" y="350">Target: </text><text fill="black" x="20" y="400">POS: </text><text fill="black" x="150" y="350">A</text><text fill="black" x="150" y="400">DT</text><text fill="black" x="230" y="350">fried</text><text fill="black" x="230" y="400">JJ</text><text fill="black" x="310" y="350">egg</text><text fill="black" x="310" y="400">NN</text><text fill="black" x="390" y="350">and</text><text fill="black" x="390" y="400">CC</text><text fill="black" x="470" y="350">a</text><text fill="black" x="470" y="400">DT</text><text fill="black" x="550" y="350">couple</text><text fill="black" x="550" y="400">NN</text><text fill="black" x="630" y="350">of</text><text fill="black" x="630" y="400">IN</text><text fill="black" x="710" y="350">rashers</text><text fill="black" x="710" y="400">NNS</text><text fill="black" x="790" y="350">of</text><text fill="black" x="790" y="400">IN</text><text fill="black" x="870" y="350">bacon</text><text fill="black" x="870" y="400">NN</text><text fill="black" x="950" y="350">for</text><text fill="black" x="950" y="400">IN</text><text fill="black" x="1030" y="350">breakfast</text><text fill="black" x="1030" y="400">NN</text><text fill="black" x="1110" y="350">.</text><text fill="black" x="1110" y="400">.</text><line stroke="red" x1="160" x2="150" y1="210" y2="330" /><line stroke="red" x1="240" x2="319" y1="210" y2="330" /><line stroke="red" x1="330" x2="319" y1="210" y2="330" /><line stroke="red" x1="400" x2="248" y1="210" y2="330" /><line stroke="red" x1="480" x2="399" y1="210" y2="330" /><line stroke="red" x1="560" x2="577" y1="210" y2="330" /><line stroke="red" x1="640" x2="737" y1="210" y2="330" /><line stroke="red" x1="730" x2="737" y1="210" y2="330" /><line stroke="red" x1="810" x2="737" y1="210" y2="330" /><line stroke="red" x1="870" x2="737" y1="210" y2="330" /><line stroke="red" x1="970" x2="737" y1="210" y2="330" /><line stroke="red" x1="1040" x2="959" y1="210" y2="330" /><line stroke="red" x1="1120" x2="1066" y1="210" y2="330" /><line stroke="red" x1="1200" x2="1066" y1="210" y2="330" /><line stroke="red" x1="1290" x2="1066" y1="210" y2="330" /><line stroke="red" x1="1350" x2="1110" y1="210" y2="330" /></svg>