<?xml version="1.0" encoding="utf-8" ?>
<svg baseProfile="full" height="500" version="1.1" width="1600" xmlns="http://www.w3.org/2000/svg" xmlns:ev="http://www.w3.org/2001/xml-events" xmlns:xlink="http://www.w3.org/1999/xlink"><defs /><text fill="black" x="0" y="100">VIETNAMESE </text><text fill="black" x="20" y="150">POS: </text><text fill="black" x="20" y="200">Source: </text><text fill="black" x="150" y="150">Nn</text><text fill="black" x="150" y="200">Cuộc_chiến</text><text fill="black" x="230" y="150">Vv</text><text fill="black" x="230" y="200">tranh</text><text fill="black" x="310" y="150">Nn</text><text fill="black" x="310" y="200">hạt_nhân</text><text fill="black" x="390" y="150">Cm</text><text fill="black" x="390" y="200">trên</text><text fill="black" x="470" y="150">Nn</text><text fill="black" x="470" y="200">quy_mô</text><text fill="black" x="550" y="150">Aa</text><text fill="black" x="550" y="200">toàn_diện</text><text fill="black" x="630" y="150">Aa</text><text fill="black" x="630" y="200">có_thể</text><text fill="black" x="710" y="150">Vv</text><text fill="black" x="710" y="200">dẫn</text><text fill="black" x="790" y="150">Cm</text><text fill="black" x="790" y="200">đến</text><text fill="black" x="870" y="150">Nn</text><text fill="black" x="870" y="200">việc</text><text fill="black" x="950" y="150">FW</text><text fill="black" x="950" y="200">hủy</text><text fill="black" x="1030" y="150">Vv</text><text fill="black" x="1030" y="200">hoại</text><text fill="black" x="1110" y="150">Aa</text><text fill="black" x="1110" y="200">hoàn_toàn</text><text fill="black" x="1190" y="150">Nn</text><text fill="black" x="1190" y="200">loài_người</text><text fill="black" x="1270" y="150">PU</text><text fill="black" x="1270" y="200">.</text><text fill="black" x="0" y="450">ENGLISH </text><text fill="black" x="20" y="350">Target: </text><text fill="black" x="20" y="400">POS: </text><text fill="black" x="150" y="350">A</text><text fill="black" x="150" y="400">DT</text><text fill="black" x="230" y="350">full</text><text fill="black" x="230" y="400">JJ</text><text fill="black" x="310" y="350">-</text><text fill="black" x="310" y="400">:</text><text fill="black" x="390" y="350">scale</text><text fill="black" x="390" y="400">NN</text><text fill="black" x="470" y="350">nuclear</text><text fill="black" x="470" y="400">JJ</text><text fill="black" x="550" y="350">war</text><text fill="black" x="550" y="400">NN</text><text fill="black" x="630" y="350">could</text><text fill="black" x="630" y="400">MD</text><text fill="black" x="710" y="350">lead</text><text fill="black" x="710" y="400">VB</text><text fill="black" x="790" y="350">to</text><text fill="black" x="790" y="400">TO</text><text fill="black" x="870" y="350">the</text><text fill="black" x="870" y="400">DT</text><text fill="black" x="950" y="350">annihilation</text><text fill="black" x="950" y="400">NN</text><text fill="black" x="1030" y="350">of</text><text fill="black" x="1030" y="400">IN</text><text fill="black" x="1110" y="350">the</text><text fill="black" x="1110" y="400">DT</text><text fill="black" x="1190" y="350">human</text><text fill="black" x="1190" y="400">JJ</text><text fill="black" x="1270" y="350">race</text><text fill="black" x="1270" y="400">NN</text><text fill="black" x="1350" y="350">.</text><text fill="black" x="1350" y="400">.</text><line stroke="red" x1="200" x2="408" y1="210" y2="330" /><line stroke="red" x1="250" x2="497" y1="210" y2="330" /><line stroke="red" x1="350" x2="497" y1="210" y2="330" /><line stroke="red" x1="410" x2="408" y1="210" y2="330" /><line stroke="red" x1="500" x2="408" y1="210" y2="330" /><line stroke="red" x1="590" x2="408" y1="210" y2="330" /><line stroke="red" x1="660" x2="648" y1="210" y2="330" /><line stroke="red" x1="720" x2="728" y1="210" y2="330" /><line stroke="red" x1="890" x2="1004" y1="210" y2="330" /><line stroke="red" x1="960" x2="1004" y1="210" y2="330" /><line stroke="red" x1="1050" x2="1004" y1="210" y2="330" /><line stroke="red" x1="1150" x2="1004" y1="210" y2="330" /><line stroke="red" x1="1240" x2="1208" y1="210" y2="330" /><line stroke="red" x1="1270" x2="1350" y1="210" y2="330" /></svg>