<?xml version="1.0" encoding="utf-8" ?>
<svg baseProfile="full" height="500" version="1.1" width="800" xmlns="http://www.w3.org/2000/svg" xmlns:ev="http://www.w3.org/2001/xml-events" xmlns:xlink="http://www.w3.org/1999/xlink"><defs /><text fill="black" x="0" y="100">VIETNAMESE </text><text fill="black" x="20" y="150">POS: </text><text fill="black" x="20" y="200">Source: </text><text fill="black" x="150" y="150">Nn</text><text fill="black" x="150" y="200">Hỗn_hợp</text><text fill="black" x="230" y="150">Nn</text><text fill="black" x="230" y="200">trứng</text><text fill="black" x="310" y="150">Nn</text><text fill="black" x="310" y="200">sữa</text><text fill="black" x="390" y="150">Vv</text><text fill="black" x="390" y="200">đánh</text><text fill="black" x="470" y="150">Cp</text><text fill="black" x="470" y="200">cho</text><text fill="black" x="550" y="150">Vv</text><text fill="black" x="550" y="200">nổi</text><text fill="black" x="630" y="150">D</text><text fill="black" x="630" y="200">lên</text><text fill="black" x="710" y="150">PU</text><text fill="black" x="710" y="200">.</text><text fill="black" x="0" y="450">ENGLISH </text><text fill="black" x="20" y="350">Target: </text><text fill="black" x="20" y="400">POS: </text><text fill="black" x="150" y="350">A</text><text fill="black" x="150" y="400">DT</text><text fill="black" x="230" y="350">frothy</text><text fill="black" x="230" y="400">JJ</text><text fill="black" x="310" y="350">mixture</text><text fill="black" x="310" y="400">NN</text><text fill="black" x="390" y="350">of</text><text fill="black" x="390" y="400">IN</text><text fill="black" x="470" y="350">eggs</text><text fill="black" x="470" y="400">NNS</text><text fill="black" x="550" y="350">and</text><text fill="black" x="550" y="400">CC</text><text fill="black" x="630" y="350">milk</text><text fill="black" x="630" y="400">NN</text><text fill="black" x="710" y="350">.</text><text fill="black" x="710" y="400">.</text><line stroke="red" x1="180" x2="257" y1="210" y2="330" /><line stroke="red" x1="250" x2="488" y1="210" y2="330" /><line stroke="red" x1="320" x2="648" y1="210" y2="330" /><line stroke="red" x1="410" x2="257" y1="210" y2="330" /><line stroke="red" x1="560" x2="257" y1="210" y2="330" /><line stroke="red" x1="640" x2="257" y1="210" y2="330" /><line stroke="red" x1="710" x2="710" y1="210" y2="330" /></svg>