<?xml version="1.0" encoding="utf-8" ?>
<svg baseProfile="full" height="500" version="1.1" width="2000" xmlns="http://www.w3.org/2000/svg" xmlns:ev="http://www.w3.org/2001/xml-events" xmlns:xlink="http://www.w3.org/1999/xlink"><defs /><text fill="black" x="0" y="100">VIETNAMESE </text><text fill="black" x="20" y="150">POS: </text><text fill="black" x="20" y="200">Source: </text><text fill="black" x="150" y="150">Nq</text><text fill="black" x="150" y="200">Một</text><text fill="black" x="230" y="150">Nc</text><text fill="black" x="230" y="200">người</text><text fill="black" x="310" y="150">Nn</text><text fill="black" x="310" y="200">bạn</text><text fill="black" x="390" y="150">Vv</text><text fill="black" x="390" y="200">biết</text><text fill="black" x="470" y="150">Nc</text><text fill="black" x="470" y="200">sự</text><text fill="black" x="550" y="150">Vv</text><text fill="black" x="550" y="200">quan_tâm</text><text fill="black" x="630" y="150">Cm</text><text fill="black" x="630" y="200">của</text><text fill="black" x="710" y="150">Nr</text><text fill="black" x="710" y="200">Darwin</text><text fill="black" x="790" y="150">Cm</text><text fill="black" x="790" y="200">về</text><text fill="black" x="870" y="150">Nn</text><text fill="black" x="870" y="200">thiên_nhiên</text><text fill="black" x="950" y="150">R</text><text fill="black" x="950" y="200">đã</text><text fill="black" x="1030" y="150">Vv</text><text fill="black" x="1030" y="200">mời</text><text fill="black" x="1110" y="150">Nn</text><text fill="black" x="1110" y="200">ông</text><text fill="black" x="1190" y="150">Vv</text><text fill="black" x="1190" y="200">du_hành</text><text fill="black" x="1270" y="150">Cm</text><text fill="black" x="1270" y="200">trên</text><text fill="black" x="1350" y="150">Nc</text><text fill="black" x="1350" y="200">con</text><text fill="black" x="1430" y="150">Nn</text><text fill="black" x="1430" y="200">tàu</text><text fill="black" x="1510" y="150">Nr</text><text fill="black" x="1510" y="200">Beagle</text><text fill="black" x="1590" y="150">PU</text><text fill="black" x="1590" y="200">.</text><text fill="black" x="0" y="450">ENGLISH </text><text fill="black" x="20" y="350">Target: </text><text fill="black" x="20" y="400">POS: </text><text fill="black" x="150" y="350">A</text><text fill="black" x="150" y="400">DT</text><text fill="black" x="230" y="350">friend</text><text fill="black" x="230" y="400">NN</text><text fill="black" x="310" y="350">who</text><text fill="black" x="310" y="400">WP</text><text fill="black" x="390" y="350">knew</text><text fill="black" x="390" y="400">VBD</text><text fill="black" x="470" y="350">about</text><text fill="black" x="470" y="400">IN</text><text fill="black" x="550" y="350">Darwin</text><text fill="black" x="550" y="400">NNP</text><text fill="black" x="630" y="350">'</text><text fill="black" x="630" y="400">POS</text><text fill="black" x="710" y="350">s</text><text fill="black" x="710" y="400">NN</text><text fill="black" x="790" y="350">interested</text><text fill="black" x="790" y="400">JJ</text><text fill="black" x="870" y="350">in</text><text fill="black" x="870" y="400">IN</text><text fill="black" x="950" y="350">nature</text><text fill="black" x="950" y="400">NN</text><text fill="black" x="1030" y="350">invited</text><text fill="black" x="1030" y="400">VBD</text><text fill="black" x="1110" y="350">him</text><text fill="black" x="1110" y="400">PRP</text><text fill="black" x="1190" y="350">take</text><text fill="black" x="1190" y="400">VB</text><text fill="black" x="1270" y="350">the</text><text fill="black" x="1270" y="400">DT</text><text fill="black" x="1350" y="350">trip</text><text fill="black" x="1350" y="400">NN</text><text fill="black" x="1430" y="350">on</text><text fill="black" x="1430" y="400">IN</text><text fill="black" x="1510" y="350">the</text><text fill="black" x="1510" y="400">DT</text><text fill="black" x="1590" y="350">Beagle</text><text fill="black" x="1590" y="400">NNP</text><text fill="black" x="1670" y="350">.</text><text fill="black" x="1670" y="400">.</text><line stroke="red" x1="160" x2="150" y1="210" y2="330" /><line stroke="red" x1="250" x2="257" y1="210" y2="330" /><line stroke="red" x1="320" x2="257" y1="210" y2="330" /><line stroke="red" x1="410" x2="408" y1="210" y2="330" /><line stroke="red" x1="480" x2="577" y1="210" y2="330" /><line stroke="red" x1="590" x2="835" y1="210" y2="330" /><line stroke="red" x1="740" x2="577" y1="210" y2="330" /><line stroke="red" x1="920" x2="977" y1="210" y2="330" /><line stroke="red" x1="1040" x2="1057" y1="210" y2="330" /><line stroke="red" x1="1120" x2="1119" y1="210" y2="330" /><line stroke="red" x1="1220" x2="1617" y1="210" y2="330" /><line stroke="red" x1="1290" x2="1617" y1="210" y2="330" /><line stroke="red" x1="1360" x2="1617" y1="210" y2="330" /><line stroke="red" x1="1440" x2="1617" y1="210" y2="330" /><line stroke="red" x1="1540" x2="1617" y1="210" y2="330" /><line stroke="red" x1="1590" x2="1670" y1="210" y2="330" /></svg>