<?xml version="1.0" encoding="utf-8" ?>
<svg baseProfile="full" height="500" version="1.1" width="1300" xmlns="http://www.w3.org/2000/svg" xmlns:ev="http://www.w3.org/2001/xml-events" xmlns:xlink="http://www.w3.org/1999/xlink"><defs /><text fill="black" x="0" y="100">VIETNAMESE </text><text fill="black" x="20" y="150">POS: </text><text fill="black" x="20" y="200">Source: </text><text fill="black" x="150" y="150">Aa</text><text fill="black" x="150" y="200">Cùng</text><text fill="black" x="230" y="150">Nq</text><text fill="black" x="230" y="200">một</text><text fill="black" x="310" y="150">Nn</text><text fill="black" x="310" y="200">chất_lượng</text><text fill="black" x="390" y="150">Nn</text><text fill="black" x="390" y="200">trái_cây</text><text fill="black" x="470" y="150">Aa</text><text fill="black" x="470" y="200">chung</text><text fill="black" x="550" y="150">Cp</text><text fill="black" x="550" y="200">cho</text><text fill="black" x="630" y="150">Nq</text><text fill="black" x="630" y="200">tất_cả</text><text fill="black" x="710" y="150">Nn</text><text fill="black" x="710" y="200">rượu</text><text fill="black" x="790" y="150">Vv</text><text fill="black" x="790" y="200">làm</text><text fill="black" x="870" y="150">Nn</text><text fill="black" x="870" y="200">từ_loại</text><text fill="black" x="950" y="150">Nn</text><text fill="black" x="950" y="200">nho</text><text fill="black" x="1030" y="150">Pd</text><text fill="black" x="1030" y="200">này</text><text fill="black" x="1110" y="150">PU</text><text fill="black" x="1110" y="200">.</text><text fill="black" x="0" y="450">ENGLISH </text><text fill="black" x="20" y="350">Target: </text><text fill="black" x="20" y="400">POS: </text><text fill="black" x="150" y="350">A</text><text fill="black" x="150" y="400">DT</text><text fill="black" x="230" y="350">fruity</text><text fill="black" x="230" y="400">JJ</text><text fill="black" x="310" y="350">quality</text><text fill="black" x="310" y="400">NN</text><text fill="black" x="390" y="350">is</text><text fill="black" x="390" y="400">VBZ</text><text fill="black" x="470" y="350">common</text><text fill="black" x="470" y="400">JJ</text><text fill="black" x="550" y="350">to</text><text fill="black" x="550" y="400">TO</text><text fill="black" x="630" y="350">all</text><text fill="black" x="630" y="400">DT</text><text fill="black" x="710" y="350">wine</text><text fill="black" x="710" y="400">NN</text><text fill="black" x="790" y="350">made</text><text fill="black" x="790" y="400">VBN</text><text fill="black" x="870" y="350">from</text><text fill="black" x="870" y="400">IN</text><text fill="black" x="950" y="350">this</text><text fill="black" x="950" y="400">DT</text><text fill="black" x="1030" y="350">grape</text><text fill="black" x="1030" y="400">NN</text><text fill="black" x="1110" y="350">.</text><text fill="black" x="1110" y="400">.</text><line stroke="red" x1="170" x2="257" y1="210" y2="330" /><line stroke="red" x1="240" x2="257" y1="210" y2="330" /><line stroke="red" x1="360" x2="337" y1="210" y2="330" /><line stroke="red" x1="430" x2="497" y1="210" y2="330" /><line stroke="red" x1="490" x2="497" y1="210" y2="330" /><line stroke="red" x1="660" x2="639" y1="210" y2="330" /><line stroke="red" x1="730" x2="728" y1="210" y2="330" /><line stroke="red" x1="800" x2="808" y1="210" y2="330" /><line stroke="red" x1="900" x2="1048" y1="210" y2="330" /><line stroke="red" x1="960" x2="1048" y1="210" y2="330" /><line stroke="red" x1="1040" x2="968" y1="210" y2="330" /><line stroke="red" x1="1110" x2="1110" y1="210" y2="330" /></svg>