<?xml version="1.0" encoding="utf-8" ?>
<svg baseProfile="full" height="500" version="1.1" width="1200" xmlns="http://www.w3.org/2000/svg" xmlns:ev="http://www.w3.org/2001/xml-events" xmlns:xlink="http://www.w3.org/1999/xlink"><defs /><text fill="black" x="0" y="100">VIETNAMESE </text><text fill="black" x="20" y="150">POS: </text><text fill="black" x="20" y="200">Source: </text><text fill="black" x="150" y="150">Nn</text><text fill="black" x="150" y="200">Gà</text><text fill="black" x="230" y="150">Aa</text><text fill="black" x="230" y="200">đông_lạnh</text><text fill="black" x="310" y="150">Vv</text><text fill="black" x="310" y="200">phải</text><text fill="black" x="390" y="150">Vv</text><text fill="black" x="390" y="200">để</text><text fill="black" x="470" y="150">Cp</text><text fill="black" x="470" y="200">cho</text><text fill="black" x="550" y="150">Vv</text><text fill="black" x="550" y="200">tan</text><text fill="black" x="630" y="150">Ve</text><text fill="black" x="630" y="200">hết</text><text fill="black" x="710" y="150">Nn</text><text fill="black" x="710" y="200">đá</text><text fill="black" x="790" y="150">Cp</text><text fill="black" x="790" y="200">rồi</text><text fill="black" x="870" y="150">R</text><text fill="black" x="870" y="200">mới</text><text fill="black" x="950" y="150">Vv</text><text fill="black" x="950" y="200">nấu</text><text fill="black" x="1030" y="150">PU</text><text fill="black" x="1030" y="200">.</text><text fill="black" x="0" y="450">ENGLISH </text><text fill="black" x="20" y="350">Target: </text><text fill="black" x="20" y="400">POS: </text><text fill="black" x="150" y="350">A</text><text fill="black" x="150" y="400">DT</text><text fill="black" x="230" y="350">frozen</text><text fill="black" x="230" y="400">JJ</text><text fill="black" x="310" y="350">chicken</text><text fill="black" x="310" y="400">NN</text><text fill="black" x="390" y="350">should</text><text fill="black" x="390" y="400">MD</text><text fill="black" x="470" y="350">be</text><text fill="black" x="470" y="400">VB</text><text fill="black" x="550" y="350">allowed</text><text fill="black" x="550" y="400">VBN</text><text fill="black" x="630" y="350">to</text><text fill="black" x="630" y="400">TO</text><text fill="black" x="710" y="350">defrost</text><text fill="black" x="710" y="400">VB</text><text fill="black" x="790" y="350">completely</text><text fill="black" x="790" y="400">RB</text><text fill="black" x="870" y="350">before</text><text fill="black" x="870" y="400">IN</text><text fill="black" x="950" y="350">cooking</text><text fill="black" x="950" y="400">NN</text><text fill="black" x="1030" y="350">.</text><text fill="black" x="1030" y="400">.</text><line stroke="red" x1="160" x2="257" y1="210" y2="330" /><line stroke="red" x1="270" x2="257" y1="210" y2="330" /><line stroke="red" x1="330" x2="417" y1="210" y2="330" /><line stroke="red" x1="400" x2="577" y1="210" y2="330" /><line stroke="red" x1="560" x2="737" y1="210" y2="330" /><line stroke="red" x1="640" x2="737" y1="210" y2="330" /><line stroke="red" x1="720" x2="737" y1="210" y2="330" /><line stroke="red" x1="800" x2="737" y1="210" y2="330" /><line stroke="red" x1="880" x2="897" y1="210" y2="330" /><line stroke="red" x1="960" x2="977" y1="210" y2="330" /><line stroke="red" x1="1030" x2="1030" y1="210" y2="330" /></svg>