<?xml version="1.0" encoding="utf-8" ?>
<svg baseProfile="full" height="500" version="1.1" width="1600" xmlns="http://www.w3.org/2000/svg" xmlns:ev="http://www.w3.org/2001/xml-events" xmlns:xlink="http://www.w3.org/1999/xlink"><defs /><text fill="black" x="0" y="100">VIETNAMESE </text><text fill="black" x="20" y="150">POS: </text><text fill="black" x="20" y="200">Source: </text><text fill="black" x="150" y="150">Nq</text><text fill="black" x="150" y="200">Một</text><text fill="black" x="230" y="150">Nn</text><text fill="black" x="230" y="200">nhóm</text><text fill="black" x="310" y="150">Vv</text><text fill="black" x="310" y="200">nhiếp_ảnh</text><text fill="black" x="390" y="150">Nn</text><text fill="black" x="390" y="200">viên</text><text fill="black" x="470" y="150">Vv</text><text fill="black" x="470" y="200">tụ_tập</text><text fill="black" x="550" y="150">Cm</text><text fill="black" x="550" y="200">trên</text><text fill="black" x="630" y="150">Nn</text><text fill="black" x="630" y="200">vỉa_hè</text><text fill="black" x="710" y="150">Nn</text><text fill="black" x="710" y="200">bên</text><text fill="black" x="790" y="150">Nn</text><text fill="black" x="790" y="200">cạnh</text><text fill="black" x="870" y="150">Nq</text><text fill="black" x="870" y="200">một</text><text fill="black" x="950" y="150">Nn</text><text fill="black" x="950" y="200">đám_đông</text><text fill="black" x="1030" y="150">Nn</text><text fill="black" x="1030" y="200">người</text><text fill="black" x="1110" y="150">Vv</text><text fill="black" x="1110" y="200">xem</text><text fill="black" x="1190" y="150">Vv</text><text fill="black" x="1190" y="200">tăng</text><text fill="black" x="1270" y="150">R</text><text fill="black" x="1270" y="200">dần</text><text fill="black" x="1350" y="150">PU</text><text fill="black" x="1350" y="200">.</text><text fill="black" x="0" y="450">ENGLISH </text><text fill="black" x="20" y="350">Target: </text><text fill="black" x="20" y="400">POS: </text><text fill="black" x="150" y="350">A</text><text fill="black" x="150" y="400">DT</text><text fill="black" x="230" y="350">gaggle</text><text fill="black" x="230" y="400">NN</text><text fill="black" x="310" y="350">of</text><text fill="black" x="310" y="400">IN</text><text fill="black" x="390" y="350">photographers</text><text fill="black" x="390" y="400">NNS</text><text fill="black" x="470" y="350">huddled</text><text fill="black" x="470" y="400">VBD</text><text fill="black" x="550" y="350">on</text><text fill="black" x="550" y="400">IN</text><text fill="black" x="630" y="350">the</text><text fill="black" x="630" y="400">DT</text><text fill="black" x="710" y="350">sidewalk</text><text fill="black" x="710" y="400">NN</text><text fill="black" x="790" y="350">beside</text><text fill="black" x="790" y="400">IN</text><text fill="black" x="870" y="350">a</text><text fill="black" x="870" y="400">DT</text><text fill="black" x="950" y="350">swelling</text><text fill="black" x="950" y="400">VBG</text><text fill="black" x="1030" y="350">crowd</text><text fill="black" x="1030" y="400">NN</text><text fill="black" x="1110" y="350">of</text><text fill="black" x="1110" y="400">IN</text><text fill="black" x="1190" y="350">onlookers</text><text fill="black" x="1190" y="400">NNS</text><text fill="black" x="1270" y="350">.</text><text fill="black" x="1270" y="400">.</text><line stroke="red" x1="160" x2="150" y1="210" y2="330" /><line stroke="red" x1="250" x2="257" y1="210" y2="330" /><line stroke="red" x1="350" x2="444" y1="210" y2="330" /><line stroke="red" x1="410" x2="444" y1="210" y2="330" /><line stroke="red" x1="500" x2="257" y1="210" y2="330" /><line stroke="red" x1="570" x2="553" y1="210" y2="330" /><line stroke="red" x1="660" x2="746" y1="210" y2="330" /><line stroke="red" x1="720" x2="817" y1="210" y2="330" /><line stroke="red" x1="810" x2="817" y1="210" y2="330" /><line stroke="red" x1="880" x2="870" y1="210" y2="330" /><line stroke="red" x1="990" x2="1048" y1="210" y2="330" /><line stroke="red" x1="1050" x2="1226" y1="210" y2="330" /><line stroke="red" x1="1120" x2="1226" y1="210" y2="330" /><line stroke="red" x1="1210" x2="1226" y1="210" y2="330" /><line stroke="red" x1="1280" x2="1226" y1="210" y2="330" /><line stroke="red" x1="1350" x2="1270" y1="210" y2="330" /></svg>