<?xml version="1.0" encoding="utf-8" ?>
<svg baseProfile="full" height="500" version="1.1" width="1400" xmlns="http://www.w3.org/2000/svg" xmlns:ev="http://www.w3.org/2001/xml-events" xmlns:xlink="http://www.w3.org/1999/xlink"><defs /><text fill="black" x="0" y="100">VIETNAMESE </text><text fill="black" x="20" y="150">POS: </text><text fill="black" x="20" y="200">Source: </text><text fill="black" x="150" y="150">Nq</text><text fill="black" x="150" y="200">Một</text><text fill="black" x="230" y="150">Nc</text><text fill="black" x="230" y="200">sự</text><text fill="black" x="310" y="150">Nn</text><text fill="black" x="310" y="200">dung</text><text fill="black" x="390" y="150">FW</text><text fill="black" x="390" y="200">hòa</text><text fill="black" x="470" y="150">Aa</text><text fill="black" x="470" y="200">căn_bản</text><text fill="black" x="550" y="150">Cm</text><text fill="black" x="550" y="200">giữa</text><text fill="black" x="630" y="150">Nn</text><text fill="black" x="630" y="200">nền</text><text fill="black" x="710" y="150">Aa</text><text fill="black" x="710" y="200">thịnh_vượng</text><text fill="black" x="790" y="150">Aa</text><text fill="black" x="790" y="200">tư_bản</text><text fill="black" x="870" y="150">Cp</text><text fill="black" x="870" y="200">và</text><text fill="black" x="950" y="150">Nc</text><text fill="black" x="950" y="200">sự</text><text fill="black" x="1030" y="150">Aa</text><text fill="black" x="1030" y="200">an_toàn</text><text fill="black" x="1110" y="150">Nn</text><text fill="black" x="1110" y="200">kinh_tế</text><text fill="black" x="1190" y="150">PU</text><text fill="black" x="1190" y="200">.</text><text fill="black" x="0" y="450">ENGLISH </text><text fill="black" x="20" y="350">Target: </text><text fill="black" x="20" y="400">POS: </text><text fill="black" x="150" y="350">A</text><text fill="black" x="150" y="400">DT</text><text fill="black" x="230" y="350">fundamental</text><text fill="black" x="230" y="400">JJ</text><text fill="black" x="310" y="350">trade</text><text fill="black" x="310" y="400">NN</text><text fill="black" x="390" y="350">off</text><text fill="black" x="390" y="400">IN</text><text fill="black" x="470" y="350">between</text><text fill="black" x="470" y="400">IN</text><text fill="black" x="550" y="350">capitalist</text><text fill="black" x="550" y="400">JJ</text><text fill="black" x="630" y="350">prosperity</text><text fill="black" x="630" y="400">NN</text><text fill="black" x="710" y="350">and</text><text fill="black" x="710" y="400">CC</text><text fill="black" x="790" y="350">economic</text><text fill="black" x="790" y="400">JJ</text><text fill="black" x="870" y="350">security</text><text fill="black" x="870" y="400">NN</text><text fill="black" x="950" y="350">.</text><text fill="black" x="950" y="400">.</text><line stroke="red" x1="160" x2="150" y1="210" y2="330" /><line stroke="red" x1="240" x2="275" y1="210" y2="330" /><line stroke="red" x1="330" x2="595" y1="210" y2="330" /><line stroke="red" x1="400" x2="595" y1="210" y2="330" /><line stroke="red" x1="500" x2="595" y1="210" y2="330" /><line stroke="red" x1="570" x2="497" y1="210" y2="330" /><line stroke="red" x1="640" x2="595" y1="210" y2="330" /><line stroke="red" x1="760" x2="595" y1="210" y2="330" /><line stroke="red" x1="820" x2="595" y1="210" y2="330" /><line stroke="red" x1="880" x2="719" y1="210" y2="330" /><line stroke="red" x1="960" x2="906" y1="210" y2="330" /><line stroke="red" x1="1060" x2="906" y1="210" y2="330" /><line stroke="red" x1="1140" x2="826" y1="210" y2="330" /><line stroke="red" x1="1190" x2="950" y1="210" y2="330" /></svg>