<?xml version="1.0" encoding="utf-8" ?>
<svg baseProfile="full" height="500" version="1.1" width="1100" xmlns="http://www.w3.org/2000/svg" xmlns:ev="http://www.w3.org/2001/xml-events" xmlns:xlink="http://www.w3.org/1999/xlink"><defs /><text fill="black" x="0" y="100">VIETNAMESE </text><text fill="black" x="20" y="150">POS: </text><text fill="black" x="20" y="200">Source: </text><text fill="black" x="150" y="150">Nq</text><text fill="black" x="150" y="200">Một</text><text fill="black" x="230" y="150">Nn</text><text fill="black" x="230" y="200">nguyên_tắc</text><text fill="black" x="310" y="150">Aa</text><text fill="black" x="310" y="200">thông_thường</text><text fill="black" x="390" y="150">Aa</text><text fill="black" x="390" y="200">có_thể</text><text fill="black" x="470" y="150">Ve</text><text fill="black" x="470" y="200">có</text><text fill="black" x="550" y="150">Nq</text><text fill="black" x="550" y="200">một_vài</text><text fill="black" x="630" y="150">Nn</text><text fill="black" x="630" y="200">ngoại_lệ</text><text fill="black" x="710" y="150">PU</text><text fill="black" x="710" y="200">.</text><text fill="black" x="0" y="450">ENGLISH </text><text fill="black" x="20" y="350">Target: </text><text fill="black" x="20" y="400">POS: </text><text fill="black" x="150" y="350">A</text><text fill="black" x="150" y="400">DT</text><text fill="black" x="230" y="350">general</text><text fill="black" x="230" y="400">JJ</text><text fill="black" x="310" y="350">principle</text><text fill="black" x="310" y="400">NN</text><text fill="black" x="390" y="350">to</text><text fill="black" x="390" y="400">TO</text><text fill="black" x="470" y="350">which</text><text fill="black" x="470" y="400">WDT</text><text fill="black" x="550" y="350">there</text><text fill="black" x="550" y="400">EX</text><text fill="black" x="630" y="350">may</text><text fill="black" x="630" y="400">MD</text><text fill="black" x="710" y="350">be</text><text fill="black" x="710" y="400">VB</text><text fill="black" x="790" y="350">several</text><text fill="black" x="790" y="400">JJ</text><text fill="black" x="870" y="350">exceptions</text><text fill="black" x="870" y="400">NNS</text><text fill="black" x="950" y="350">.</text><text fill="black" x="950" y="400">.</text><line stroke="red" x1="160" x2="150" y1="210" y2="330" /><line stroke="red" x1="280" x2="346" y1="210" y2="330" /><line stroke="red" x1="370" x2="346" y1="210" y2="330" /><line stroke="red" x1="420" x2="639" y1="210" y2="330" /><line stroke="red" x1="580" x2="817" y1="210" y2="330" /><line stroke="red" x1="670" x2="915" y1="210" y2="330" /><line stroke="red" x1="710" x2="950" y1="210" y2="330" /></svg>