<?xml version="1.0" encoding="utf-8" ?>
<svg baseProfile="full" height="500" version="1.1" width="1400" xmlns="http://www.w3.org/2000/svg" xmlns:ev="http://www.w3.org/2001/xml-events" xmlns:xlink="http://www.w3.org/1999/xlink"><defs /><text fill="black" x="0" y="100">VIETNAMESE </text><text fill="black" x="20" y="150">POS: </text><text fill="black" x="20" y="200">Source: </text><text fill="black" x="150" y="150">Nq</text><text fill="black" x="150" y="200">Một</text><text fill="black" x="230" y="150">Nc</text><text fill="black" x="230" y="200">cô</text><text fill="black" x="310" y="150">Nn</text><text fill="black" x="310" y="200">gái</text><text fill="black" x="390" y="150">Vv</text><text fill="black" x="390" y="200">cợt_nhả</text><text fill="black" x="470" y="150">Cp</text><text fill="black" x="470" y="200">thì</text><text fill="black" x="550" y="150">R</text><text fill="black" x="550" y="200">không</text><text fill="black" x="630" y="150">Pp</text><text fill="black" x="630" y="200">bao_giờ</text><text fill="black" x="710" y="150">Vv</text><text fill="black" x="710" y="200">làm</text><text fill="black" x="790" y="150">R</text><text fill="black" x="790" y="200">được</text><text fill="black" x="870" y="150">Nn</text><text fill="black" x="870" y="200">việc</text><text fill="black" x="950" y="150">Pp</text><text fill="black" x="950" y="200">gì</text><text fill="black" x="1030" y="150">Cp</text><text fill="black" x="1030" y="200">cho</text><text fill="black" x="1110" y="150">Aa</text><text fill="black" x="1110" y="200">nghiêm_túc</text><text fill="black" x="1190" y="150">PU</text><text fill="black" x="1190" y="200">.</text><text fill="black" x="0" y="450">ENGLISH </text><text fill="black" x="20" y="350">Target: </text><text fill="black" x="20" y="400">POS: </text><text fill="black" x="150" y="350">A</text><text fill="black" x="150" y="400">DT</text><text fill="black" x="230" y="350">giddy</text><text fill="black" x="230" y="400">JJ</text><text fill="black" x="310" y="350">girl</text><text fill="black" x="310" y="400">NN</text><text fill="black" x="390" y="350">,</text><text fill="black" x="390" y="400">,</text><text fill="black" x="470" y="350">who</text><text fill="black" x="470" y="400">WP</text><text fill="black" x="550" y="350">will</text><text fill="black" x="550" y="400">MD</text><text fill="black" x="630" y="350">never</text><text fill="black" x="630" y="400">RB</text><text fill="black" x="710" y="350">settle</text><text fill="black" x="710" y="400">VB</text><text fill="black" x="790" y="350">down</text><text fill="black" x="790" y="400">RB</text><text fill="black" x="870" y="350">to</text><text fill="black" x="870" y="400">TO</text><text fill="black" x="950" y="350">anything</text><text fill="black" x="950" y="400">NN</text><text fill="black" x="1030" y="350">serious</text><text fill="black" x="1030" y="400">JJ</text><text fill="black" x="1110" y="350">.</text><text fill="black" x="1110" y="400">.</text><line stroke="red" x1="160" x2="150" y1="210" y2="330" /><line stroke="red" x1="240" x2="328" y1="210" y2="330" /><line stroke="red" x1="320" x2="328" y1="210" y2="330" /><line stroke="red" x1="420" x2="248" y1="210" y2="330" /><line stroke="red" x1="480" x2="390" y1="210" y2="330" /><line stroke="red" x1="570" x2="648" y1="210" y2="330" /><line stroke="red" x1="660" x2="648" y1="210" y2="330" /><line stroke="red" x1="720" x2="737" y1="210" y2="330" /><line stroke="red" x1="890" x2="737" y1="210" y2="330" /><line stroke="red" x1="960" x2="986" y1="210" y2="330" /><line stroke="red" x1="1160" x2="1057" y1="210" y2="330" /><line stroke="red" x1="1190" x2="1110" y1="210" y2="330" /></svg>