<?xml version="1.0" encoding="utf-8" ?>
<svg baseProfile="full" height="500" version="1.1" width="1100" xmlns="http://www.w3.org/2000/svg" xmlns:ev="http://www.w3.org/2001/xml-events" xmlns:xlink="http://www.w3.org/1999/xlink"><defs /><text fill="black" x="0" y="100">VIETNAMESE </text><text fill="black" x="20" y="150">POS: </text><text fill="black" x="20" y="200">Source: </text><text fill="black" x="150" y="150">Nq</text><text fill="black" x="150" y="200">Một</text><text fill="black" x="230" y="150">Nn</text><text fill="black" x="230" y="200">ly</text><text fill="black" x="310" y="150">Nn</text><text fill="black" x="310" y="200">nước</text><text fill="black" x="390" y="150">Cp</text><text fill="black" x="390" y="200">là</text><text fill="black" x="470" y="150">Vv</text><text fill="black" x="470" y="200">được</text><text fill="black" x="550" y="150">R</text><text fill="black" x="550" y="200">rồi</text><text fill="black" x="630" y="150">PU</text><text fill="black" x="630" y="200">,</text><text fill="black" x="710" y="150">Vv</text><text fill="black" x="710" y="200">cám_ơn</text><text fill="black" x="790" y="150">PU</text><text fill="black" x="790" y="200">.</text><text fill="black" x="0" y="450">ENGLISH </text><text fill="black" x="20" y="350">Target: </text><text fill="black" x="20" y="400">POS: </text><text fill="black" x="150" y="350">A</text><text fill="black" x="150" y="400">DT</text><text fill="black" x="230" y="350">glass</text><text fill="black" x="230" y="400">NN</text><text fill="black" x="310" y="350">of</text><text fill="black" x="310" y="400">IN</text><text fill="black" x="390" y="350">water</text><text fill="black" x="390" y="400">NN</text><text fill="black" x="470" y="350">would</text><text fill="black" x="470" y="400">MD</text><text fill="black" x="550" y="350">be</text><text fill="black" x="550" y="400">VB</text><text fill="black" x="630" y="350">nice</text><text fill="black" x="630" y="400">JJ</text><text fill="black" x="710" y="350">,</text><text fill="black" x="710" y="400">,</text><text fill="black" x="790" y="350">thank</text><text fill="black" x="790" y="400">VB</text><text fill="black" x="870" y="350">you</text><text fill="black" x="870" y="400">PRP</text><text fill="black" x="950" y="350">.</text><text fill="black" x="950" y="400">.</text><line stroke="red" x1="160" x2="150" y1="210" y2="330" /><line stroke="red" x1="240" x2="248" y1="210" y2="330" /><line stroke="red" x1="330" x2="408" y1="210" y2="330" /><line stroke="red" x1="490" x2="553" y1="210" y2="330" /><line stroke="red" x1="560" x2="648" y1="210" y2="330" /><line stroke="red" x1="630" x2="710" y1="210" y2="330" /><line stroke="red" x1="740" x2="808" y1="210" y2="330" /><line stroke="red" x1="790" x2="950" y1="210" y2="330" /></svg>