<?xml version="1.0" encoding="utf-8" ?>
<svg baseProfile="full" height="500" version="1.1" width="1100" xmlns="http://www.w3.org/2000/svg" xmlns:ev="http://www.w3.org/2001/xml-events" xmlns:xlink="http://www.w3.org/1999/xlink"><defs /><text fill="black" x="0" y="100">VIETNAMESE </text><text fill="black" x="20" y="150">POS: </text><text fill="black" x="20" y="200">Source: </text><text fill="black" x="150" y="150">Nq</text><text fill="black" x="150" y="200">Một</text><text fill="black" x="230" y="150">Nn</text><text fill="black" x="230" y="200">khoảng</text><text fill="black" x="310" y="150">Aa</text><text fill="black" x="310" y="200">trống</text><text fill="black" x="390" y="150">Cm</text><text fill="black" x="390" y="200">trong</text><text fill="black" x="470" y="150">Nn</text><text fill="black" x="470" y="200">rừng</text><text fill="black" x="550" y="150">Ve</text><text fill="black" x="550" y="200">có</text><text fill="black" x="630" y="150">Nn</text><text fill="black" x="630" y="200">ánh_sáng</text><text fill="black" x="710" y="150">Nn</text><text fill="black" x="710" y="200">mặt_trời</text><text fill="black" x="790" y="150">Vv</text><text fill="black" x="790" y="200">xuyên</text><text fill="black" x="870" y="150">D</text><text fill="black" x="870" y="200">qua</text><text fill="black" x="950" y="150">PU</text><text fill="black" x="950" y="200">.</text><text fill="black" x="0" y="450">ENGLISH </text><text fill="black" x="20" y="350">Target: </text><text fill="black" x="20" y="400">POS: </text><text fill="black" x="150" y="350">A</text><text fill="black" x="150" y="400">DT</text><text fill="black" x="230" y="350">glade</text><text fill="black" x="230" y="400">NN</text><text fill="black" x="310" y="350">that</text><text fill="black" x="310" y="400">WDT</text><text fill="black" x="390" y="350">was</text><text fill="black" x="390" y="400">VBD</text><text fill="black" x="470" y="350">transfused</text><text fill="black" x="470" y="400">VBN</text><text fill="black" x="550" y="350">with</text><text fill="black" x="550" y="400">IN</text><text fill="black" x="630" y="350">sunlight</text><text fill="black" x="630" y="400">NN</text><text fill="black" x="710" y="350">.</text><text fill="black" x="710" y="400">.</text><line stroke="red" x1="160" x2="150" y1="210" y2="330" /><line stroke="red" x1="260" x2="248" y1="210" y2="330" /><line stroke="red" x1="330" x2="248" y1="210" y2="330" /><line stroke="red" x1="410" x2="248" y1="210" y2="330" /><line stroke="red" x1="490" x2="248" y1="210" y2="330" /><line stroke="red" x1="670" x2="666" y1="210" y2="330" /><line stroke="red" x1="750" x2="666" y1="210" y2="330" /><line stroke="red" x1="810" x2="515" y1="210" y2="330" /><line stroke="red" x1="880" x2="515" y1="210" y2="330" /><line stroke="red" x1="950" x2="710" y1="210" y2="330" /></svg>