<?xml version="1.0" encoding="utf-8" ?>
<svg baseProfile="full" height="500" version="1.1" width="1800" xmlns="http://www.w3.org/2000/svg" xmlns:ev="http://www.w3.org/2001/xml-events" xmlns:xlink="http://www.w3.org/1999/xlink"><defs /><text fill="black" x="0" y="100">VIETNAMESE </text><text fill="black" x="20" y="150">POS: </text><text fill="black" x="20" y="200">Source: </text><text fill="black" x="150" y="150">Nq</text><text fill="black" x="150" y="200">Một</text><text fill="black" x="230" y="150">Nc</text><text fill="black" x="230" y="200">cái</text><text fill="black" x="310" y="150">Vv</text><text fill="black" x="310" y="200">liếc</text><text fill="black" x="390" y="150">D</text><text fill="black" x="390" y="200">vào</text><text fill="black" x="470" y="150">Nn</text><text fill="black" x="470" y="200">gương</text><text fill="black" x="550" y="150">Vv</text><text fill="black" x="550" y="200">làm</text><text fill="black" x="630" y="150">Nn</text><text fill="black" x="630" y="200">anh</text><text fill="black" x="710" y="150">Pp</text><text fill="black" x="710" y="200">ta</text><text fill="black" x="790" y="150">Aa</text><text fill="black" x="790" y="200">yên_tâm</text><text fill="black" x="870" y="150">Vc</text><text fill="black" x="870" y="200">là</text><text fill="black" x="950" y="150">Nc</text><text fill="black" x="950" y="200">chiếc</text><text fill="black" x="1030" y="150">Nn</text><text fill="black" x="1030" y="200">cà_vạt</text><text fill="black" x="1110" y="150">Cm</text><text fill="black" x="1110" y="200">của</text><text fill="black" x="1190" y="150">Pp</text><text fill="black" x="1190" y="200">mình</text><text fill="black" x="1270" y="150">R</text><text fill="black" x="1270" y="200">không</text><text fill="black" x="1350" y="150">Vv</text><text fill="black" x="1350" y="200">bị</text><text fill="black" x="1430" y="150">Aa</text><text fill="black" x="1430" y="200">lệch</text><text fill="black" x="1510" y="150">PU</text><text fill="black" x="1510" y="200">.</text><text fill="black" x="0" y="450">ENGLISH </text><text fill="black" x="20" y="350">Target: </text><text fill="black" x="20" y="400">POS: </text><text fill="black" x="150" y="350">A</text><text fill="black" x="150" y="400">DT</text><text fill="black" x="230" y="350">glance</text><text fill="black" x="230" y="400">NN</text><text fill="black" x="310" y="350">in</text><text fill="black" x="310" y="400">IN</text><text fill="black" x="390" y="350">the</text><text fill="black" x="390" y="400">DT</text><text fill="black" x="470" y="350">mirror</text><text fill="black" x="470" y="400">NN</text><text fill="black" x="550" y="350">reassured</text><text fill="black" x="550" y="400">VBD</text><text fill="black" x="630" y="350">him</text><text fill="black" x="630" y="400">PRP</text><text fill="black" x="710" y="350">that</text><text fill="black" x="710" y="400">IN</text><text fill="black" x="790" y="350">his</text><text fill="black" x="790" y="400">PRP$</text><text fill="black" x="870" y="350">tie</text><text fill="black" x="870" y="400">NN</text><text fill="black" x="950" y="350">wasn</text><text fill="black" x="950" y="400">NN</text><text fill="black" x="1030" y="350">'</text><text fill="black" x="1030" y="400">''</text><text fill="black" x="1110" y="350">t</text><text fill="black" x="1110" y="400">NN</text><text fill="black" x="1190" y="350">crooked</text><text fill="black" x="1190" y="400">JJ</text><text fill="black" x="1270" y="350">.</text><text fill="black" x="1270" y="400">.</text><line stroke="red" x1="160" x2="150" y1="210" y2="330" /><line stroke="red" x1="240" x2="257" y1="210" y2="330" /><line stroke="red" x1="330" x2="257" y1="210" y2="330" /><line stroke="red" x1="400" x2="313" y1="210" y2="330" /><line stroke="red" x1="490" x2="497" y1="210" y2="330" /><line stroke="red" x1="560" x2="586" y1="210" y2="330" /><line stroke="red" x1="640" x2="639" y1="210" y2="330" /><line stroke="red" x1="720" x2="639" y1="210" y2="330" /><line stroke="red" x1="820" x2="586" y1="210" y2="330" /><line stroke="red" x1="970" x2="879" y1="210" y2="330" /><line stroke="red" x1="1060" x2="879" y1="210" y2="330" /><line stroke="red" x1="1210" x2="799" y1="210" y2="330" /><line stroke="red" x1="1290" x2="968" y1="210" y2="330" /><line stroke="red" x1="1360" x2="1217" y1="210" y2="330" /><line stroke="red" x1="1450" x2="1217" y1="210" y2="330" /><line stroke="red" x1="1510" x2="1270" y1="210" y2="330" /></svg>