<?xml version="1.0" encoding="utf-8" ?>
<svg baseProfile="full" height="500" version="1.1" width="1300" xmlns="http://www.w3.org/2000/svg" xmlns:ev="http://www.w3.org/2001/xml-events" xmlns:xlink="http://www.w3.org/1999/xlink"><defs /><text fill="black" x="0" y="100">VIETNAMESE </text><text fill="black" x="20" y="150">POS: </text><text fill="black" x="20" y="200">Source: </text><text fill="black" x="150" y="150">Pp</text><text fill="black" x="150" y="200">Người_ta</text><text fill="black" x="230" y="150">R</text><text fill="black" x="230" y="200">đã</text><text fill="black" x="310" y="150">Vv</text><text fill="black" x="310" y="200">đoán</text><text fill="black" x="390" y="150">Nn</text><text fill="black" x="390" y="200">trước</text><text fill="black" x="470" y="150">Nn</text><text fill="black" x="470" y="200">nàng</text><text fill="black" x="550" y="150">R</text><text fill="black" x="550" y="200">sẽ</text><text fill="black" x="630" y="150">R</text><text fill="black" x="630" y="200">rất</text><text fill="black" x="710" y="150">Aa</text><text fill="black" x="710" y="200">thành_công</text><text fill="black" x="790" y="150">Cm</text><text fill="black" x="790" y="200">trong</text><text fill="black" x="870" y="150">Nn</text><text fill="black" x="870" y="200">ngành</text><text fill="black" x="950" y="150">Nn</text><text fill="black" x="950" y="200">Dân_Chính</text><text fill="black" x="1030" y="150">PU</text><text fill="black" x="1030" y="200">.</text><text fill="black" x="0" y="450">ENGLISH </text><text fill="black" x="20" y="350">Target: </text><text fill="black" x="20" y="400">POS: </text><text fill="black" x="150" y="350">A</text><text fill="black" x="150" y="400">DT</text><text fill="black" x="230" y="350">glittering</text><text fill="black" x="230" y="400">VBG</text><text fill="black" x="310" y="350">career</text><text fill="black" x="310" y="400">NN</text><text fill="black" x="390" y="350">had</text><text fill="black" x="390" y="400">VBD</text><text fill="black" x="470" y="350">been</text><text fill="black" x="470" y="400">VBN</text><text fill="black" x="550" y="350">predicted</text><text fill="black" x="550" y="400">VBN</text><text fill="black" x="630" y="350">for</text><text fill="black" x="630" y="400">IN</text><text fill="black" x="710" y="350">her</text><text fill="black" x="710" y="400">PRP</text><text fill="black" x="790" y="350">in</text><text fill="black" x="790" y="400">IN</text><text fill="black" x="870" y="350">the</text><text fill="black" x="870" y="400">DT</text><text fill="black" x="950" y="350">Civil</text><text fill="black" x="950" y="400">NNP</text><text fill="black" x="1030" y="350">Service</text><text fill="black" x="1030" y="400">NNP</text><text fill="black" x="1110" y="350">.</text><text fill="black" x="1110" y="400">.</text><line stroke="red" x1="190" x2="275" y1="210" y2="330" /><line stroke="red" x1="240" x2="399" y1="210" y2="330" /><line stroke="red" x1="330" x2="586" y1="210" y2="330" /><line stroke="red" x1="410" x2="586" y1="210" y2="330" /><line stroke="red" x1="490" x2="275" y1="210" y2="330" /><line stroke="red" x1="560" x2="275" y1="210" y2="330" /><line stroke="red" x1="640" x2="275" y1="210" y2="330" /><line stroke="red" x1="760" x2="275" y1="210" y2="330" /><line stroke="red" x1="810" x2="793" y1="210" y2="330" /><line stroke="red" x1="890" x2="968" y1="210" y2="330" /><line stroke="red" x1="990" x2="968" y1="210" y2="330" /><line stroke="red" x1="1030" x2="1110" y1="210" y2="330" /></svg>