<?xml version="1.0" encoding="utf-8" ?>
<svg baseProfile="full" height="500" version="1.1" width="1600" xmlns="http://www.w3.org/2000/svg" xmlns:ev="http://www.w3.org/2001/xml-events" xmlns:xlink="http://www.w3.org/1999/xlink"><defs /><text fill="black" x="0" y="100">VIETNAMESE </text><text fill="black" x="20" y="150">POS: </text><text fill="black" x="20" y="200">Source: </text><text fill="black" x="150" y="150">Nn</text><text fill="black" x="150" y="200">Chất</text><text fill="black" x="230" y="150">Nn</text><text fill="black" x="230" y="200">men</text><text fill="black" x="310" y="150">Vv</text><text fill="black" x="310" y="200">tráng</text><text fill="black" x="390" y="150">Vc</text><text fill="black" x="390" y="200">là</text><text fill="black" x="470" y="150">Nn</text><text fill="black" x="470" y="200">chất</text><text fill="black" x="550" y="150">Ve</text><text fill="black" x="550" y="200">có</text><text fill="black" x="630" y="150">Nn</text><text fill="black" x="630" y="200">khả_năng</text><text fill="black" x="710" y="150">Aa</text><text fill="black" x="710" y="200">cứng</text><text fill="black" x="790" y="150">R</text><text fill="black" x="790" y="200">lại</text><text fill="black" x="870" y="150">Vv</text><text fill="black" x="870" y="200">thành</text><text fill="black" x="950" y="150">Nq</text><text fill="black" x="950" y="200">một</text><text fill="black" x="1030" y="150">Nn</text><text fill="black" x="1030" y="200">lớp</text><text fill="black" x="1110" y="150">FW</text><text fill="black" x="1110" y="200">thủy</text><text fill="black" x="1190" y="150">Aa</text><text fill="black" x="1190" y="200">tinh</text><text fill="black" x="1270" y="150">Aa</text><text fill="black" x="1270" y="200">mỏng</text><text fill="black" x="1350" y="150">PU</text><text fill="black" x="1350" y="200">.</text><text fill="black" x="0" y="450">ENGLISH </text><text fill="black" x="20" y="350">Target: </text><text fill="black" x="20" y="400">POS: </text><text fill="black" x="150" y="350">A</text><text fill="black" x="150" y="400">DT</text><text fill="black" x="230" y="350">glaze</text><text fill="black" x="230" y="400">VBP</text><text fill="black" x="310" y="350">is</text><text fill="black" x="310" y="400">VBZ</text><text fill="black" x="390" y="350">a</text><text fill="black" x="390" y="400">DT</text><text fill="black" x="470" y="350">substance</text><text fill="black" x="470" y="400">NN</text><text fill="black" x="550" y="350">that</text><text fill="black" x="550" y="400">WDT</text><text fill="black" x="630" y="350">hardens</text><text fill="black" x="630" y="400">VBZ</text><text fill="black" x="710" y="350">into</text><text fill="black" x="710" y="400">IN</text><text fill="black" x="790" y="350">a</text><text fill="black" x="790" y="400">DT</text><text fill="black" x="870" y="350">thin</text><text fill="black" x="870" y="400">JJ</text><text fill="black" x="950" y="350">layer</text><text fill="black" x="950" y="400">NN</text><text fill="black" x="1030" y="350">of</text><text fill="black" x="1030" y="400">IN</text><text fill="black" x="1110" y="350">glass</text><text fill="black" x="1110" y="400">NN</text><text fill="black" x="1190" y="350">.</text><text fill="black" x="1190" y="400">.</text><line stroke="red" x1="170" x2="248" y1="210" y2="330" /><line stroke="red" x1="240" x2="248" y1="210" y2="330" /><line stroke="red" x1="330" x2="248" y1="210" y2="330" /><line stroke="red" x1="400" x2="313" y1="210" y2="330" /><line stroke="red" x1="490" x2="506" y1="210" y2="330" /><line stroke="red" x1="670" x2="657" y1="210" y2="330" /><line stroke="red" x1="730" x2="657" y1="210" y2="330" /><line stroke="red" x1="800" x2="657" y1="210" y2="330" /><line stroke="red" x1="890" x2="728" y1="210" y2="330" /><line stroke="red" x1="960" x2="790" y1="210" y2="330" /><line stroke="red" x1="1040" x2="968" y1="210" y2="330" /><line stroke="red" x1="1130" x2="657" y1="210" y2="330" /><line stroke="red" x1="1210" x2="657" y1="210" y2="330" /><line stroke="red" x1="1290" x2="888" y1="210" y2="330" /><line stroke="red" x1="1350" x2="1190" y1="210" y2="330" /></svg>