<?xml version="1.0" encoding="utf-8" ?>
<svg baseProfile="full" height="500" version="1.1" width="1200" xmlns="http://www.w3.org/2000/svg" xmlns:ev="http://www.w3.org/2001/xml-events" xmlns:xlink="http://www.w3.org/1999/xlink"><defs /><text fill="black" x="0" y="100">VIETNAMESE </text><text fill="black" x="20" y="150">POS: </text><text fill="black" x="20" y="200">Source: </text><text fill="black" x="150" y="150">Nn</text><text fill="black" x="150" y="200">Tình_trạng</text><text fill="black" x="230" y="150">Aa</text><text fill="black" x="230" y="200">dư_thừa</text><text fill="black" x="310" y="150">Nn</text><text fill="black" x="310" y="200">trái_cây</text><text fill="black" x="390" y="150">PU</text><text fill="black" x="390" y="200">,</text><text fill="black" x="470" y="150">Nn</text><text fill="black" x="470" y="200">phim</text><text fill="black" x="550" y="150">Nr</text><text fill="black" x="550" y="200">Mỹ</text><text fill="black" x="630" y="150">PU</text><text fill="black" x="630" y="200">,</text><text fill="black" x="710" y="150">Nn</text><text fill="black" x="710" y="200">tài_năng</text><text fill="black" x="790" y="150">PU</text><text fill="black" x="790" y="200">.</text><text fill="black" x="0" y="450">ENGLISH </text><text fill="black" x="20" y="350">Target: </text><text fill="black" x="20" y="400">POS: </text><text fill="black" x="150" y="350">A</text><text fill="black" x="150" y="400">DT</text><text fill="black" x="230" y="350">glut</text><text fill="black" x="230" y="400">NN</text><text fill="black" x="310" y="350">of</text><text fill="black" x="310" y="400">IN</text><text fill="black" x="390" y="350">fruit</text><text fill="black" x="390" y="400">NN</text><text fill="black" x="470" y="350">,</text><text fill="black" x="470" y="400">,</text><text fill="black" x="550" y="350">of</text><text fill="black" x="550" y="400">IN</text><text fill="black" x="630" y="350">American</text><text fill="black" x="630" y="400">JJ</text><text fill="black" x="710" y="350">films</text><text fill="black" x="710" y="400">NNS</text><text fill="black" x="790" y="350">,</text><text fill="black" x="790" y="400">,</text><text fill="black" x="870" y="350">of</text><text fill="black" x="870" y="400">IN</text><text fill="black" x="950" y="350">talent</text><text fill="black" x="950" y="400">NN</text><text fill="black" x="1030" y="350">.</text><text fill="black" x="1030" y="400">.</text><line stroke="red" x1="200" x2="248" y1="210" y2="330" /><line stroke="red" x1="260" x2="248" y1="210" y2="330" /><line stroke="red" x1="350" x2="408" y1="210" y2="330" /><line stroke="red" x1="390" x2="470" y1="210" y2="330" /><line stroke="red" x1="490" x2="728" y1="210" y2="330" /><line stroke="red" x1="560" x2="666" y1="210" y2="330" /><line stroke="red" x1="630" x2="790" y1="210" y2="330" /><line stroke="red" x1="750" x2="977" y1="210" y2="330" /><line stroke="red" x1="790" x2="1030" y1="210" y2="330" /></svg>