<?xml version="1.0" encoding="utf-8" ?>
<svg baseProfile="full" height="500" version="1.1" width="1600" xmlns="http://www.w3.org/2000/svg" xmlns:ev="http://www.w3.org/2001/xml-events" xmlns:xlink="http://www.w3.org/1999/xlink"><defs /><text fill="black" x="0" y="100">VIETNAMESE </text><text fill="black" x="20" y="150">POS: </text><text fill="black" x="20" y="200">Source: </text><text fill="black" x="150" y="150">Nq</text><text fill="black" x="150" y="200">Một</text><text fill="black" x="230" y="150">Nn</text><text fill="black" x="230" y="200">người</text><text fill="black" x="310" y="150">Vv</text><text fill="black" x="310" y="200">đi</text><text fill="black" x="390" y="150">Nn</text><text fill="black" x="390" y="200">xe_đạp</text><text fill="black" x="470" y="150">Aa</text><text fill="black" x="470" y="200">cừ_khôi</text><text fill="black" x="550" y="150">Aa</text><text fill="black" x="550" y="200">có_thể</text><text fill="black" x="630" y="150">Vv</text><text fill="black" x="630" y="200">vượt_qua</text><text fill="black" x="710" y="150">Nq</text><text fill="black" x="710" y="200">một</text><text fill="black" x="790" y="150">Nn</text><text fill="black" x="790" y="200">quãng</text><text fill="black" x="870" y="150">Nn</text><text fill="black" x="870" y="200">đường</text><text fill="black" x="950" y="150">Aa</text><text fill="black" x="950" y="200">hơn</text><text fill="black" x="1030" y="150">Nq</text><text fill="black" x="1030" y="200">trăm</text><text fill="black" x="1110" y="150">Nu</text><text fill="black" x="1110" y="200">dặm</text><text fill="black" x="1190" y="150">Nq</text><text fill="black" x="1190" y="200">một</text><text fill="black" x="1270" y="150">Nt</text><text fill="black" x="1270" y="200">ngày</text><text fill="black" x="1350" y="150">PU</text><text fill="black" x="1350" y="200">.</text><text fill="black" x="0" y="450">ENGLISH </text><text fill="black" x="20" y="350">Target: </text><text fill="black" x="20" y="400">POS: </text><text fill="black" x="150" y="350">A</text><text fill="black" x="150" y="400">DT</text><text fill="black" x="230" y="350">good</text><text fill="black" x="230" y="400">JJ</text><text fill="black" x="310" y="350">cyclist</text><text fill="black" x="310" y="400">NN</text><text fill="black" x="390" y="350">can</text><text fill="black" x="390" y="400">MD</text><text fill="black" x="470" y="350">cover</text><text fill="black" x="470" y="400">VB</text><text fill="black" x="550" y="350">distances</text><text fill="black" x="550" y="400">NNS</text><text fill="black" x="630" y="350">of</text><text fill="black" x="630" y="400">IN</text><text fill="black" x="710" y="350">over</text><text fill="black" x="710" y="400">IN</text><text fill="black" x="790" y="350">a</text><text fill="black" x="790" y="400">DT</text><text fill="black" x="870" y="350">hundred</text><text fill="black" x="870" y="400">CD</text><text fill="black" x="950" y="350">miles</text><text fill="black" x="950" y="400">NNS</text><text fill="black" x="1030" y="350">a</text><text fill="black" x="1030" y="400">DT</text><text fill="black" x="1110" y="350">day</text><text fill="black" x="1110" y="400">NN</text><text fill="black" x="1190" y="350">.</text><text fill="black" x="1190" y="400">.</text><line stroke="red" x1="160" x2="150" y1="210" y2="330" /><line stroke="red" x1="250" x2="337" y1="210" y2="330" /><line stroke="red" x1="320" x2="337" y1="210" y2="330" /><line stroke="red" x1="420" x2="337" y1="210" y2="330" /><line stroke="red" x1="500" x2="337" y1="210" y2="330" /><line stroke="red" x1="580" x2="399" y1="210" y2="330" /><line stroke="red" x1="670" x2="586" y1="210" y2="330" /><line stroke="red" x1="810" x2="586" y1="210" y2="330" /><line stroke="red" x1="890" x2="586" y1="210" y2="330" /><line stroke="red" x1="960" x2="728" y1="210" y2="330" /><line stroke="red" x1="1050" x2="897" y1="210" y2="330" /><line stroke="red" x1="1120" x2="968" y1="210" y2="330" /><line stroke="red" x1="1200" x2="1030" y1="210" y2="330" /><line stroke="red" x1="1290" x2="1119" y1="210" y2="330" /><line stroke="red" x1="1350" x2="1190" y1="210" y2="330" /></svg>