<?xml version="1.0" encoding="utf-8" ?>
<svg baseProfile="full" height="500" version="1.1" width="1600" xmlns="http://www.w3.org/2000/svg" xmlns:ev="http://www.w3.org/2001/xml-events" xmlns:xlink="http://www.w3.org/1999/xlink"><defs /><text fill="black" x="0" y="100">VIETNAMESE </text><text fill="black" x="20" y="150">POS: </text><text fill="black" x="20" y="200">Source: </text><text fill="black" x="150" y="150">Nq</text><text fill="black" x="150" y="200">Một</text><text fill="black" x="230" y="150">Nn</text><text fill="black" x="230" y="200">diễn_viên</text><text fill="black" x="310" y="150">Nn</text><text fill="black" x="310" y="200">múa</text><text fill="black" x="390" y="150">Nn</text><text fill="black" x="390" y="200">ba</text><text fill="black" x="470" y="150">PU</text><text fill="black" x="470" y="200">-</text><text fill="black" x="550" y="150">Nn</text><text fill="black" x="550" y="200">lê</text><text fill="black" x="630" y="150">Nn</text><text fill="black" x="630" y="200">tài_năng</text><text fill="black" x="710" y="150">Vv</text><text fill="black" x="710" y="200">phải</text><text fill="black" x="790" y="150">Vv</text><text fill="black" x="790" y="200">bắt_đầu</text><text fill="black" x="870" y="150">Vv</text><text fill="black" x="870" y="200">tập</text><text fill="black" x="950" y="150">Vv</text><text fill="black" x="950" y="200">múa</text><text fill="black" x="1030" y="150">Nt</text><text fill="black" x="1030" y="200">khi</text><text fill="black" x="1110" y="150">Pp</text><text fill="black" x="1110" y="200">con</text><text fill="black" x="1190" y="150">R</text><text fill="black" x="1190" y="200">rất</text><text fill="black" x="1270" y="150">Aa</text><text fill="black" x="1270" y="200">trẻ</text><text fill="black" x="1350" y="150">PU</text><text fill="black" x="1350" y="200">.</text><text fill="black" x="0" y="450">ENGLISH </text><text fill="black" x="20" y="350">Target: </text><text fill="black" x="20" y="400">POS: </text><text fill="black" x="150" y="350">A</text><text fill="black" x="150" y="400">DT</text><text fill="black" x="230" y="350">good</text><text fill="black" x="230" y="400">JJ</text><text fill="black" x="310" y="350">ballet</text><text fill="black" x="310" y="400">JJ</text><text fill="black" x="390" y="350">dancer</text><text fill="black" x="390" y="400">NN</text><text fill="black" x="470" y="350">must</text><text fill="black" x="470" y="400">MD</text><text fill="black" x="550" y="350">begin</text><text fill="black" x="550" y="400">VB</text><text fill="black" x="630" y="350">to</text><text fill="black" x="630" y="400">TO</text><text fill="black" x="710" y="350">learn</text><text fill="black" x="710" y="400">VB</text><text fill="black" x="790" y="350">dancing</text><text fill="black" x="790" y="400">NN</text><text fill="black" x="870" y="350">when</text><text fill="black" x="870" y="400">WRB</text><text fill="black" x="950" y="350">he</text><text fill="black" x="950" y="400">PRP</text><text fill="black" x="1030" y="350">is</text><text fill="black" x="1030" y="400">VBZ</text><text fill="black" x="1110" y="350">very</text><text fill="black" x="1110" y="400">RB</text><text fill="black" x="1190" y="350">young</text><text fill="black" x="1190" y="400">JJ</text><text fill="black" x="1270" y="350">.</text><text fill="black" x="1270" y="400">.</text><line stroke="red" x1="160" x2="150" y1="210" y2="330" /><line stroke="red" x1="270" x2="417" y1="210" y2="330" /><line stroke="red" x1="320" x2="417" y1="210" y2="330" /><line stroke="red" x1="400" x2="337" y1="210" y2="330" /><line stroke="red" x1="470" x2="337" y1="210" y2="330" /><line stroke="red" x1="560" x2="337" y1="210" y2="330" /><line stroke="red" x1="670" x2="417" y1="210" y2="330" /><line stroke="red" x1="730" x2="488" y1="210" y2="330" /><line stroke="red" x1="820" x2="568" y1="210" y2="330" /><line stroke="red" x1="880" x2="417" y1="210" y2="330" /><line stroke="red" x1="960" x2="417" y1="210" y2="330" /><line stroke="red" x1="1040" x2="888" y1="210" y2="330" /><line stroke="red" x1="1120" x2="817" y1="210" y2="330" /><line stroke="red" x1="1200" x2="1128" y1="210" y2="330" /><line stroke="red" x1="1280" x2="1208" y1="210" y2="330" /><line stroke="red" x1="1350" x2="1270" y1="210" y2="330" /></svg>