<?xml version="1.0" encoding="utf-8" ?>
<svg baseProfile="full" height="500" version="1.1" width="1100" xmlns="http://www.w3.org/2000/svg" xmlns:ev="http://www.w3.org/2001/xml-events" xmlns:xlink="http://www.w3.org/1999/xlink"><defs /><text fill="black" x="0" y="100">VIETNAMESE </text><text fill="black" x="20" y="150">POS: </text><text fill="black" x="20" y="200">Source: </text><text fill="black" x="150" y="150">Vv</text><text fill="black" x="150" y="200">Cần</text><text fill="black" x="230" y="150">Vv</text><text fill="black" x="230" y="200">phải</text><text fill="black" x="310" y="150">Vv</text><text fill="black" x="310" y="200">xem_xét</text><text fill="black" x="390" y="150">R</text><text fill="black" x="390" y="200">lại</text><text fill="black" x="470" y="150">Aa</text><text fill="black" x="470" y="200">kỹ</text><text fill="black" x="550" y="150">Nn</text><text fill="black" x="550" y="200">vấn_đề</text><text fill="black" x="630" y="150">Pd</text><text fill="black" x="630" y="200">này</text><text fill="black" x="710" y="150">PU</text><text fill="black" x="710" y="200">.</text><text fill="black" x="0" y="450">ENGLISH </text><text fill="black" x="20" y="350">Target: </text><text fill="black" x="20" y="400">POS: </text><text fill="black" x="150" y="350">A</text><text fill="black" x="150" y="400">DT</text><text fill="black" x="230" y="350">good</text><text fill="black" x="230" y="400">JJ</text><text fill="black" x="310" y="350">deal</text><text fill="black" x="310" y="400">NN</text><text fill="black" x="390" y="350">of</text><text fill="black" x="390" y="400">IN</text><text fill="black" x="470" y="350">rethinking</text><text fill="black" x="470" y="400">VBG</text><text fill="black" x="550" y="350">is</text><text fill="black" x="550" y="400">VBZ</text><text fill="black" x="630" y="350">needed</text><text fill="black" x="630" y="400">VBN</text><text fill="black" x="710" y="350">on</text><text fill="black" x="710" y="400">IN</text><text fill="black" x="790" y="350">this</text><text fill="black" x="790" y="400">DT</text><text fill="black" x="870" y="350">question</text><text fill="black" x="870" y="400">NN</text><text fill="black" x="950" y="350">.</text><text fill="black" x="950" y="400">.</text><line stroke="red" x1="160" x2="515" y1="210" y2="330" /><line stroke="red" x1="250" x2="515" y1="210" y2="330" /><line stroke="red" x1="340" x2="515" y1="210" y2="330" /><line stroke="red" x1="400" x2="515" y1="210" y2="330" /><line stroke="red" x1="480" x2="515" y1="210" y2="330" /><line stroke="red" x1="580" x2="906" y1="210" y2="330" /><line stroke="red" x1="640" x2="808" y1="210" y2="330" /><line stroke="red" x1="710" x2="950" y1="210" y2="330" /></svg>