<?xml version="1.0" encoding="utf-8" ?>
<svg baseProfile="full" height="500" version="1.1" width="2500" xmlns="http://www.w3.org/2000/svg" xmlns:ev="http://www.w3.org/2001/xml-events" xmlns:xlink="http://www.w3.org/1999/xlink"><defs /><text fill="black" x="0" y="100">VIETNAMESE </text><text fill="black" x="20" y="150">POS: </text><text fill="black" x="20" y="200">Source: </text><text fill="black" x="150" y="150">Nq</text><text fill="black" x="150" y="200">Một</text><text fill="black" x="230" y="150">Nn</text><text fill="black" x="230" y="200">ví_dụ</text><text fill="black" x="310" y="150">Aa</text><text fill="black" x="310" y="200">rõ_ràng</text><text fill="black" x="390" y="150">Cm</text><text fill="black" x="390" y="200">về</text><text fill="black" x="470" y="150">Nn</text><text fill="black" x="470" y="200">điểm</text><text fill="black" x="550" y="150">Pd</text><text fill="black" x="550" y="200">này</text><text fill="black" x="630" y="150">Vc</text><text fill="black" x="630" y="200">là</text><text fill="black" x="710" y="150">Nn</text><text fill="black" x="710" y="200">vị_trí</text><text fill="black" x="790" y="150">Cm</text><text fill="black" x="790" y="200">của</text><text fill="black" x="870" y="150">Nn</text><text fill="black" x="870" y="200">Sảnh_Đường</text><text fill="black" x="950" y="150">Nn</text><text fill="black" x="950" y="200">Sứ_giả</text><text fill="black" x="1030" y="150">Nr</text><text fill="black" x="1030" y="200">Mùa_Xuân</text><text fill="black" x="1110" y="150">Cm</text><text fill="black" x="1110" y="200">trên</text><text fill="black" x="1190" y="150">Nn</text><text fill="black" x="1190" y="200">bờ</text><text fill="black" x="1270" y="150">Nn</text><text fill="black" x="1270" y="200">hồ</text><text fill="black" x="1350" y="150">Nr</text><text fill="black" x="1350" y="200">Côn_Minh</text><text fill="black" x="1430" y="150">Cm</text><text fill="black" x="1430" y="200">ở</text><text fill="black" x="1510" y="150">Nr</text><text fill="black" x="1510" y="200">Cung_Điện_Mùa_Hè</text><text fill="black" x="1590" y="150">PU</text><text fill="black" x="1590" y="200">.</text><text fill="black" x="0" y="450">ENGLISH </text><text fill="black" x="20" y="350">Target: </text><text fill="black" x="20" y="400">POS: </text><text fill="black" x="150" y="350">A</text><text fill="black" x="150" y="400">DT</text><text fill="black" x="230" y="350">good</text><text fill="black" x="230" y="400">JJ</text><text fill="black" x="310" y="350">case</text><text fill="black" x="310" y="400">NN</text><text fill="black" x="390" y="350">in</text><text fill="black" x="390" y="400">IN</text><text fill="black" x="470" y="350">point</text><text fill="black" x="470" y="400">NN</text><text fill="black" x="550" y="350">is</text><text fill="black" x="550" y="400">VBZ</text><text fill="black" x="630" y="350">the</text><text fill="black" x="630" y="400">DT</text><text fill="black" x="710" y="350">site</text><text fill="black" x="710" y="400">NN</text><text fill="black" x="790" y="350">of</text><text fill="black" x="790" y="400">IN</text><text fill="black" x="870" y="350">the</text><text fill="black" x="870" y="400">DT</text><text fill="black" x="950" y="350">Herald</text><text fill="black" x="950" y="400">NNP</text><text fill="black" x="1030" y="350">of</text><text fill="black" x="1030" y="400">IN</text><text fill="black" x="1110" y="350">Spring</text><text fill="black" x="1110" y="400">NNP</text><text fill="black" x="1190" y="350">Pavilion</text><text fill="black" x="1190" y="400">NNP</text><text fill="black" x="1270" y="350">on</text><text fill="black" x="1270" y="400">IN</text><text fill="black" x="1350" y="350">the</text><text fill="black" x="1350" y="400">DT</text><text fill="black" x="1430" y="350">bank</text><text fill="black" x="1430" y="400">NN</text><text fill="black" x="1510" y="350">of</text><text fill="black" x="1510" y="400">IN</text><text fill="black" x="1590" y="350">Kunming</text><text fill="black" x="1590" y="400">NNP</text><text fill="black" x="1670" y="350">lake</text><text fill="black" x="1670" y="400">NN</text><text fill="black" x="1750" y="350">in</text><text fill="black" x="1750" y="400">IN</text><text fill="black" x="1830" y="350">the</text><text fill="black" x="1830" y="400">DT</text><text fill="black" x="1910" y="350">Summer</text><text fill="black" x="1910" y="400">NNP</text><text fill="black" x="1990" y="350">Palace</text><text fill="black" x="1990" y="400">NNP</text><text fill="black" x="2070" y="350">.</text><text fill="black" x="2070" y="400">.</text><line stroke="red" x1="160" x2="150" y1="210" y2="330" /><line stroke="red" x1="250" x2="977" y1="210" y2="330" /><line stroke="red" x1="340" x2="977" y1="210" y2="330" /><line stroke="red" x1="400" x2="488" y1="210" y2="330" /><line stroke="red" x1="490" x2="488" y1="210" y2="330" /><line stroke="red" x1="640" x2="553" y1="210" y2="330" /><line stroke="red" x1="740" x2="728" y1="210" y2="330" /><line stroke="red" x1="920" x2="1226" y1="210" y2="330" /><line stroke="red" x1="980" x2="1226" y1="210" y2="330" /><line stroke="red" x1="1070" x2="1226" y1="210" y2="330" /><line stroke="red" x1="1130" x2="1226" y1="210" y2="330" /><line stroke="red" x1="1200" x2="1448" y1="210" y2="330" /><line stroke="red" x1="1280" x2="1688" y1="210" y2="330" /><line stroke="red" x1="1390" x2="1617" y1="210" y2="330" /><line stroke="red" x1="1430" x2="1753" y1="210" y2="330" /><line stroke="red" x1="1590" x2="1937" y1="210" y2="330" /><line stroke="red" x1="1590" x2="2070" y1="210" y2="330" /></svg>