<?xml version="1.0" encoding="utf-8" ?>
<svg baseProfile="full" height="500" version="1.1" width="1200" xmlns="http://www.w3.org/2000/svg" xmlns:ev="http://www.w3.org/2001/xml-events" xmlns:xlink="http://www.w3.org/1999/xlink"><defs /><text fill="black" x="0" y="100">VIETNAMESE </text><text fill="black" x="20" y="150">POS: </text><text fill="black" x="20" y="200">Source: </text><text fill="black" x="150" y="150">Nq</text><text fill="black" x="150" y="200">Một</text><text fill="black" x="230" y="150">Nc</text><text fill="black" x="230" y="200">vị</text><text fill="black" x="310" y="150">Nn</text><text fill="black" x="310" y="200">tướng</text><text fill="black" x="390" y="150">Aa</text><text fill="black" x="390" y="200">tài_ba</text><text fill="black" x="470" y="150">Aa</text><text fill="black" x="470" y="200">có_thể</text><text fill="black" x="550" y="150">Vv</text><text fill="black" x="550" y="200">tính</text><text fill="black" x="630" y="150">R</text><text fill="black" x="630" y="200">được</text><text fill="black" x="710" y="150">ID</text><text fill="black" x="710" y="200">đường_đi_nước_bước</text><text fill="black" x="790" y="150">Cm</text><text fill="black" x="790" y="200">của</text><text fill="black" x="870" y="150">Nn</text><text fill="black" x="870" y="200">quân</text><text fill="black" x="950" y="150">Nn</text><text fill="black" x="950" y="200">địch</text><text fill="black" x="1030" y="150">PU</text><text fill="black" x="1030" y="200">.</text><text fill="black" x="0" y="450">ENGLISH </text><text fill="black" x="20" y="350">Target: </text><text fill="black" x="20" y="400">POS: </text><text fill="black" x="150" y="350">A</text><text fill="black" x="150" y="400">DT</text><text fill="black" x="230" y="350">good</text><text fill="black" x="230" y="400">JJ</text><text fill="black" x="310" y="350">general</text><text fill="black" x="310" y="400">NN</text><text fill="black" x="390" y="350">can</text><text fill="black" x="390" y="400">MD</text><text fill="black" x="470" y="350">anticipate</text><text fill="black" x="470" y="400">VB</text><text fill="black" x="550" y="350">what</text><text fill="black" x="550" y="400">WP</text><text fill="black" x="630" y="350">the</text><text fill="black" x="630" y="400">DT</text><text fill="black" x="710" y="350">enemy</text><text fill="black" x="710" y="400">NN</text><text fill="black" x="790" y="350">will</text><text fill="black" x="790" y="400">MD</text><text fill="black" x="870" y="350">do</text><text fill="black" x="870" y="400">VB</text><text fill="black" x="950" y="350">.</text><text fill="black" x="950" y="400">.</text><line stroke="red" x1="160" x2="150" y1="210" y2="330" /><line stroke="red" x1="240" x2="337" y1="210" y2="330" /><line stroke="red" x1="330" x2="337" y1="210" y2="330" /><line stroke="red" x1="420" x2="515" y1="210" y2="330" /><line stroke="red" x1="500" x2="399" y1="210" y2="330" /><line stroke="red" x1="570" x2="515" y1="210" y2="330" /><line stroke="red" x1="800" x2="515" y1="210" y2="330" /><line stroke="red" x1="890" x2="728" y1="210" y2="330" /><line stroke="red" x1="970" x2="728" y1="210" y2="330" /><line stroke="red" x1="1030" x2="950" y1="210" y2="330" /></svg>