<?xml version="1.0" encoding="utf-8" ?>
<svg baseProfile="full" height="500" version="1.1" width="1300" xmlns="http://www.w3.org/2000/svg" xmlns:ev="http://www.w3.org/2001/xml-events" xmlns:xlink="http://www.w3.org/1999/xlink"><defs /><text fill="black" x="0" y="100">VIETNAMESE </text><text fill="black" x="20" y="150">POS: </text><text fill="black" x="20" y="200">Source: </text><text fill="black" x="150" y="150">Nq</text><text fill="black" x="150" y="200">Một</text><text fill="black" x="230" y="150">Nn</text><text fill="black" x="230" y="200">bà_chủ</text><text fill="black" x="310" y="150">Aa</text><text fill="black" x="310" y="200">khéo_léo</text><text fill="black" x="390" y="150">R</text><text fill="black" x="390" y="200">luôn</text><text fill="black" x="470" y="150">Vv</text><text fill="black" x="470" y="200">để_ý</text><text fill="black" x="550" y="150">Cm</text><text fill="black" x="550" y="200">tới</text><text fill="black" x="630" y="150">Nq</text><text fill="black" x="630" y="200">những</text><text fill="black" x="710" y="150">Nn</text><text fill="black" x="710" y="200">nhu_cầu</text><text fill="black" x="790" y="150">Cm</text><text fill="black" x="790" y="200">của</text><text fill="black" x="870" y="150">Nn</text><text fill="black" x="870" y="200">khách_khứa</text><text fill="black" x="950" y="150">PU</text><text fill="black" x="950" y="200">.</text><text fill="black" x="0" y="450">ENGLISH </text><text fill="black" x="20" y="350">Target: </text><text fill="black" x="20" y="400">POS: </text><text fill="black" x="150" y="350">A</text><text fill="black" x="150" y="400">DT</text><text fill="black" x="230" y="350">good</text><text fill="black" x="230" y="400">JJ</text><text fill="black" x="310" y="350">hostess</text><text fill="black" x="310" y="400">NN</text><text fill="black" x="390" y="350">is</text><text fill="black" x="390" y="400">VBZ</text><text fill="black" x="470" y="350">always</text><text fill="black" x="470" y="400">RB</text><text fill="black" x="550" y="350">attentive</text><text fill="black" x="550" y="400">JJ</text><text fill="black" x="630" y="350">to</text><text fill="black" x="630" y="400">TO</text><text fill="black" x="710" y="350">the</text><text fill="black" x="710" y="400">DT</text><text fill="black" x="790" y="350">needs</text><text fill="black" x="790" y="400">NNS</text><text fill="black" x="870" y="350">of</text><text fill="black" x="870" y="400">IN</text><text fill="black" x="950" y="350">her</text><text fill="black" x="950" y="400">PRP$</text><text fill="black" x="1030" y="350">guests</text><text fill="black" x="1030" y="400">NNS</text><text fill="black" x="1110" y="350">.</text><text fill="black" x="1110" y="400">.</text><line stroke="red" x1="160" x2="150" y1="210" y2="330" /><line stroke="red" x1="260" x2="337" y1="210" y2="330" /><line stroke="red" x1="350" x2="337" y1="210" y2="330" /><line stroke="red" x1="410" x2="497" y1="210" y2="330" /><line stroke="red" x1="490" x2="586" y1="210" y2="330" /><line stroke="red" x1="560" x2="586" y1="210" y2="330" /><line stroke="red" x1="740" x2="808" y1="210" y2="330" /><line stroke="red" x1="920" x2="1057" y1="210" y2="330" /><line stroke="red" x1="950" x2="1110" y1="210" y2="330" /></svg>