<?xml version="1.0" encoding="utf-8" ?>
<svg baseProfile="full" height="500" version="1.1" width="1200" xmlns="http://www.w3.org/2000/svg" xmlns:ev="http://www.w3.org/2001/xml-events" xmlns:xlink="http://www.w3.org/1999/xlink"><defs /><text fill="black" x="0" y="100">VIETNAMESE </text><text fill="black" x="20" y="150">POS: </text><text fill="black" x="20" y="200">Source: </text><text fill="black" x="150" y="150">Nq</text><text fill="black" x="150" y="200">Một</text><text fill="black" x="230" y="150">Nn</text><text fill="black" x="230" y="200">luật_sư</text><text fill="black" x="310" y="150">Aa</text><text fill="black" x="310" y="200">giỏi</text><text fill="black" x="390" y="150">Aa</text><text fill="black" x="390" y="200">có_thể</text><text fill="black" x="470" y="150">R</text><text fill="black" x="470" y="200">luôn</text><text fill="black" x="550" y="150">Vv</text><text fill="black" x="550" y="200">tìm</text><text fill="black" x="630" y="150">R</text><text fill="black" x="630" y="200">ra</text><text fill="black" x="710" y="150">R</text><text fill="black" x="710" y="200">được</text><text fill="black" x="790" y="150">Nn</text><text fill="black" x="790" y="200">một_cách</text><text fill="black" x="870" y="150">Vv</text><text fill="black" x="870" y="200">né_tránh</text><text fill="black" x="950" y="150">Nn</text><text fill="black" x="950" y="200">pháp_luật</text><text fill="black" x="1030" y="150">PU</text><text fill="black" x="1030" y="200">.</text><text fill="black" x="0" y="450">ENGLISH </text><text fill="black" x="20" y="350">Target: </text><text fill="black" x="20" y="400">POS: </text><text fill="black" x="150" y="350">A</text><text fill="black" x="150" y="400">DT</text><text fill="black" x="230" y="350">good</text><text fill="black" x="230" y="400">JJ</text><text fill="black" x="310" y="350">lawyer</text><text fill="black" x="310" y="400">NN</text><text fill="black" x="390" y="350">can</text><text fill="black" x="390" y="400">MD</text><text fill="black" x="470" y="350">always</text><text fill="black" x="470" y="400">RB</text><text fill="black" x="550" y="350">find</text><text fill="black" x="550" y="400">VB</text><text fill="black" x="630" y="350">a</text><text fill="black" x="630" y="400">DT</text><text fill="black" x="710" y="350">loophole</text><text fill="black" x="710" y="400">NN</text><text fill="black" x="790" y="350">.</text><text fill="black" x="790" y="400">.</text><line stroke="red" x1="160" x2="150" y1="210" y2="330" /><line stroke="red" x1="260" x2="337" y1="210" y2="330" /><line stroke="red" x1="330" x2="337" y1="210" y2="330" /><line stroke="red" x1="420" x2="399" y1="210" y2="330" /><line stroke="red" x1="490" x2="497" y1="210" y2="330" /><line stroke="red" x1="560" x2="568" y1="210" y2="330" /><line stroke="red" x1="640" x2="746" y1="210" y2="330" /><line stroke="red" x1="830" x2="746" y1="210" y2="330" /><line stroke="red" x1="910" x2="746" y1="210" y2="330" /><line stroke="red" x1="990" x2="746" y1="210" y2="330" /><line stroke="red" x1="1030" x2="790" y1="210" y2="330" /></svg>