<?xml version="1.0" encoding="utf-8" ?>
<svg baseProfile="full" height="500" version="1.1" width="1100" xmlns="http://www.w3.org/2000/svg" xmlns:ev="http://www.w3.org/2001/xml-events" xmlns:xlink="http://www.w3.org/1999/xlink"><defs /><text fill="black" x="0" y="100">VIETNAMESE </text><text fill="black" x="20" y="150">POS: </text><text fill="black" x="20" y="200">Source: </text><text fill="black" x="150" y="150">Nq</text><text fill="black" x="150" y="200">Một</text><text fill="black" x="230" y="150">Nc</text><text fill="black" x="230" y="200">nền</text><text fill="black" x="310" y="150">Nn</text><text fill="black" x="310" y="200">giáo_dục</text><text fill="black" x="390" y="150">Aa</text><text fill="black" x="390" y="200">tốt</text><text fill="black" x="470" y="150">Aa</text><text fill="black" x="470" y="200">có_thể</text><text fill="black" x="550" y="150">Vv</text><text fill="black" x="550" y="200">trang_bị</text><text fill="black" x="630" y="150">Cp</text><text fill="black" x="630" y="200">cho</text><text fill="black" x="710" y="150">Pp</text><text fill="black" x="710" y="200">bạn</text><text fill="black" x="790" y="150">Aa</text><text fill="black" x="790" y="200">suốt</text><text fill="black" x="870" y="150">Nn</text><text fill="black" x="870" y="200">đời</text><text fill="black" x="950" y="150">PU</text><text fill="black" x="950" y="200">.</text><text fill="black" x="0" y="450">ENGLISH </text><text fill="black" x="20" y="350">Target: </text><text fill="black" x="20" y="400">POS: </text><text fill="black" x="150" y="350">A</text><text fill="black" x="150" y="400">DT</text><text fill="black" x="230" y="350">good</text><text fill="black" x="230" y="400">JJ</text><text fill="black" x="310" y="350">education</text><text fill="black" x="310" y="400">NN</text><text fill="black" x="390" y="350">should</text><text fill="black" x="390" y="400">MD</text><text fill="black" x="470" y="350">equip</text><text fill="black" x="470" y="400">VB</text><text fill="black" x="550" y="350">you</text><text fill="black" x="550" y="400">PRP</text><text fill="black" x="630" y="350">for</text><text fill="black" x="630" y="400">IN</text><text fill="black" x="710" y="350">life</text><text fill="black" x="710" y="400">NN</text><text fill="black" x="790" y="350">.</text><text fill="black" x="790" y="400">.</text><line stroke="red" x1="160" x2="150" y1="210" y2="330" /><line stroke="red" x1="240" x2="346" y1="210" y2="330" /><line stroke="red" x1="350" x2="346" y1="210" y2="330" /><line stroke="red" x1="400" x2="248" y1="210" y2="330" /><line stroke="red" x1="500" x2="488" y1="210" y2="330" /><line stroke="red" x1="590" x2="488" y1="210" y2="330" /><line stroke="red" x1="720" x2="559" y1="210" y2="330" /><line stroke="red" x1="810" x2="488" y1="210" y2="330" /><line stroke="red" x1="880" x2="728" y1="210" y2="330" /><line stroke="red" x1="950" x2="790" y1="210" y2="330" /></svg>