<?xml version="1.0" encoding="utf-8" ?>
<svg baseProfile="full" height="500" version="1.1" width="1100" xmlns="http://www.w3.org/2000/svg" xmlns:ev="http://www.w3.org/2001/xml-events" xmlns:xlink="http://www.w3.org/1999/xlink"><defs /><text fill="black" x="0" y="100">VIETNAMESE </text><text fill="black" x="20" y="150">POS: </text><text fill="black" x="20" y="200">Source: </text><text fill="black" x="150" y="150">Nq</text><text fill="black" x="150" y="200">Một</text><text fill="black" x="230" y="150">Nn</text><text fill="black" x="230" y="200">luật_sư</text><text fill="black" x="310" y="150">Aa</text><text fill="black" x="310" y="200">giỏi</text><text fill="black" x="390" y="150">Aa</text><text fill="black" x="390" y="200">có_thể</text><text fill="black" x="470" y="150">Vv</text><text fill="black" x="470" y="200">giúp</text><text fill="black" x="550" y="150">Pp</text><text fill="black" x="550" y="200">anh</text><text fill="black" x="630" y="150">Vv</text><text fill="black" x="630" y="200">thoát</text><text fill="black" x="710" y="150">Vv</text><text fill="black" x="710" y="200">khỏi</text><text fill="black" x="790" y="150">Nn</text><text fill="black" x="790" y="200">bản_án</text><text fill="black" x="870" y="150">PU</text><text fill="black" x="870" y="200">.</text><text fill="black" x="0" y="450">ENGLISH </text><text fill="black" x="20" y="350">Target: </text><text fill="black" x="20" y="400">POS: </text><text fill="black" x="150" y="350">A</text><text fill="black" x="150" y="400">DT</text><text fill="black" x="230" y="350">good</text><text fill="black" x="230" y="400">JJ</text><text fill="black" x="310" y="350">lawyer</text><text fill="black" x="310" y="400">NN</text><text fill="black" x="390" y="350">might</text><text fill="black" x="390" y="400">MD</text><text fill="black" x="470" y="350">be</text><text fill="black" x="470" y="400">VB</text><text fill="black" x="550" y="350">able</text><text fill="black" x="550" y="400">JJ</text><text fill="black" x="630" y="350">to</text><text fill="black" x="630" y="400">TO</text><text fill="black" x="710" y="350">get</text><text fill="black" x="710" y="400">VB</text><text fill="black" x="790" y="350">you</text><text fill="black" x="790" y="400">PRP</text><text fill="black" x="870" y="350">off</text><text fill="black" x="870" y="400">RP</text><text fill="black" x="950" y="350">.</text><text fill="black" x="950" y="400">.</text><line stroke="red" x1="160" x2="150" y1="210" y2="330" /><line stroke="red" x1="260" x2="337" y1="210" y2="330" /><line stroke="red" x1="330" x2="337" y1="210" y2="330" /><line stroke="red" x1="420" x2="408" y1="210" y2="330" /><line stroke="red" x1="490" x2="568" y1="210" y2="330" /><line stroke="red" x1="650" x2="719" y1="210" y2="330" /><line stroke="red" x1="730" x2="879" y1="210" y2="330" /><line stroke="red" x1="820" x2="879" y1="210" y2="330" /><line stroke="red" x1="870" x2="950" y1="210" y2="330" /></svg>