<?xml version="1.0" encoding="utf-8" ?>
<svg baseProfile="full" height="500" version="1.1" width="1200" xmlns="http://www.w3.org/2000/svg" xmlns:ev="http://www.w3.org/2001/xml-events" xmlns:xlink="http://www.w3.org/1999/xlink"><defs /><text fill="black" x="0" y="100">VIETNAMESE </text><text fill="black" x="20" y="150">POS: </text><text fill="black" x="20" y="200">Source: </text><text fill="black" x="150" y="150">Nq</text><text fill="black" x="150" y="200">Một</text><text fill="black" x="230" y="150">Nn</text><text fill="black" x="230" y="200">người</text><text fill="black" x="310" y="150">Vv</text><text fill="black" x="310" y="200">chào_hàng</text><text fill="black" x="390" y="150">Aa</text><text fill="black" x="390" y="200">giỏi</text><text fill="black" x="470" y="150">Vv</text><text fill="black" x="470" y="200">phải</text><text fill="black" x="550" y="150">Aa</text><text fill="black" x="550" y="200">mạnh_dạn</text><text fill="black" x="630" y="150">PU</text><text fill="black" x="630" y="200">,</text><text fill="black" x="710" y="150">Aa</text><text fill="black" x="710" y="200">xông_xáo</text><text fill="black" x="790" y="150">Cp</text><text fill="black" x="790" y="200">nếu</text><text fill="black" x="870" y="150">Vv</text><text fill="black" x="870" y="200">muốn</text><text fill="black" x="950" y="150">Vv</text><text fill="black" x="950" y="200">thành_công</text><text fill="black" x="1030" y="150">PU</text><text fill="black" x="1030" y="200">.</text><text fill="black" x="0" y="450">ENGLISH </text><text fill="black" x="20" y="350">Target: </text><text fill="black" x="20" y="400">POS: </text><text fill="black" x="150" y="350">A</text><text fill="black" x="150" y="400">DT</text><text fill="black" x="230" y="350">good</text><text fill="black" x="230" y="400">JJ</text><text fill="black" x="310" y="350">salesman</text><text fill="black" x="310" y="400">NN</text><text fill="black" x="390" y="350">must</text><text fill="black" x="390" y="400">MD</text><text fill="black" x="470" y="350">be</text><text fill="black" x="470" y="400">VB</text><text fill="black" x="550" y="350">aggressive</text><text fill="black" x="550" y="400">JJ</text><text fill="black" x="630" y="350">if</text><text fill="black" x="630" y="400">IN</text><text fill="black" x="710" y="350">he</text><text fill="black" x="710" y="400">PRP</text><text fill="black" x="790" y="350">wants</text><text fill="black" x="790" y="400">VBZ</text><text fill="black" x="870" y="350">to</text><text fill="black" x="870" y="400">TO</text><text fill="black" x="950" y="350">succeed</text><text fill="black" x="950" y="400">VB</text><text fill="black" x="1030" y="350">.</text><text fill="black" x="1030" y="400">.</text><line stroke="red" x1="160" x2="150" y1="210" y2="330" /><line stroke="red" x1="250" x2="346" y1="210" y2="330" /><line stroke="red" x1="350" x2="346" y1="210" y2="330" /><line stroke="red" x1="410" x2="248" y1="210" y2="330" /><line stroke="red" x1="490" x2="408" y1="210" y2="330" /><line stroke="red" x1="590" x2="595" y1="210" y2="330" /><line stroke="red" x1="750" x2="595" y1="210" y2="330" /><line stroke="red" x1="800" x2="633" y1="210" y2="330" /><line stroke="red" x1="890" x2="808" y1="210" y2="330" /><line stroke="red" x1="1000" x2="977" y1="210" y2="330" /><line stroke="red" x1="1030" x2="1030" y1="210" y2="330" /></svg>