<?xml version="1.0" encoding="utf-8" ?>
<svg baseProfile="full" height="500" version="1.1" width="900" xmlns="http://www.w3.org/2000/svg" xmlns:ev="http://www.w3.org/2001/xml-events" xmlns:xlink="http://www.w3.org/1999/xlink"><defs /><text fill="black" x="0" y="100">VIETNAMESE </text><text fill="black" x="20" y="150">POS: </text><text fill="black" x="20" y="200">Source: </text><text fill="black" x="150" y="150">Nq</text><text fill="black" x="150" y="200">Một</text><text fill="black" x="230" y="150">Nc</text><text fill="black" x="230" y="200">cuộc</text><text fill="black" x="310" y="150">Nn</text><text fill="black" x="310" y="200">hôn_nhân</text><text fill="black" x="390" y="150">Aa</text><text fill="black" x="390" y="200">tốt_đẹp</text><text fill="black" x="470" y="150">Vv</text><text fill="black" x="470" y="200">dựa</text><text fill="black" x="550" y="150">Cm</text><text fill="black" x="550" y="200">vào</text><text fill="black" x="630" y="150">Nn</text><text fill="black" x="630" y="200">lòng</text><text fill="black" x="710" y="150">Vv</text><text fill="black" x="710" y="200">tin_cậy</text><text fill="black" x="790" y="150">PU</text><text fill="black" x="790" y="200">.</text><text fill="black" x="0" y="450">ENGLISH </text><text fill="black" x="20" y="350">Target: </text><text fill="black" x="20" y="400">POS: </text><text fill="black" x="150" y="350">A</text><text fill="black" x="150" y="400">DT</text><text fill="black" x="230" y="350">good</text><text fill="black" x="230" y="400">JJ</text><text fill="black" x="310" y="350">marriage</text><text fill="black" x="310" y="400">NN</text><text fill="black" x="390" y="350">is</text><text fill="black" x="390" y="400">VBZ</text><text fill="black" x="470" y="350">based</text><text fill="black" x="470" y="400">VBN</text><text fill="black" x="550" y="350">on</text><text fill="black" x="550" y="400">IN</text><text fill="black" x="630" y="350">trust</text><text fill="black" x="630" y="400">NN</text><text fill="black" x="710" y="350">.</text><text fill="black" x="710" y="400">.</text><line stroke="red" x1="160" x2="150" y1="210" y2="330" /><line stroke="red" x1="250" x2="346" y1="210" y2="330" /><line stroke="red" x1="350" x2="346" y1="210" y2="330" /><line stroke="red" x1="420" x2="488" y1="210" y2="330" /><line stroke="red" x1="480" x2="488" y1="210" y2="330" /><line stroke="red" x1="560" x2="553" y1="210" y2="330" /><line stroke="red" x1="650" x2="648" y1="210" y2="330" /><line stroke="red" x1="740" x2="648" y1="210" y2="330" /><line stroke="red" x1="790" x2="710" y1="210" y2="330" /></svg>