<?xml version="1.0" encoding="utf-8" ?>
<svg baseProfile="full" height="500" version="1.1" width="1000" xmlns="http://www.w3.org/2000/svg" xmlns:ev="http://www.w3.org/2001/xml-events" xmlns:xlink="http://www.w3.org/1999/xlink"><defs /><text fill="black" x="0" y="100">VIETNAMESE </text><text fill="black" x="20" y="150">POS: </text><text fill="black" x="20" y="200">Source: </text><text fill="black" x="150" y="150">Nn</text><text fill="black" x="150" y="200">Lời</text><text fill="black" x="230" y="150">Vv</text><text fill="black" x="230" y="200">hứa</text><text fill="black" x="310" y="150">Cm</text><text fill="black" x="310" y="200">của</text><text fill="black" x="390" y="150">Nn</text><text fill="black" x="390" y="200">chính_phủ</text><text fill="black" x="470" y="150">Vv</text><text fill="black" x="470" y="200">cắt_giảm</text><text fill="black" x="550" y="150">Aa</text><text fill="black" x="550" y="200">mạnh</text><text fill="black" x="630" y="150">Nq</text><text fill="black" x="630" y="200">các</text><text fill="black" x="710" y="150">Nn</text><text fill="black" x="710" y="200">loại</text><text fill="black" x="790" y="150">Nn</text><text fill="black" x="790" y="200">thuế</text><text fill="black" x="870" y="150">PU</text><text fill="black" x="870" y="200">.</text><text fill="black" x="0" y="450">ENGLISH </text><text fill="black" x="20" y="350">Target: </text><text fill="black" x="20" y="400">POS: </text><text fill="black" x="150" y="350">A</text><text fill="black" x="150" y="400">DT</text><text fill="black" x="230" y="350">government</text><text fill="black" x="230" y="400">NN</text><text fill="black" x="310" y="350">promise</text><text fill="black" x="310" y="400">NN</text><text fill="black" x="390" y="350">to</text><text fill="black" x="390" y="400">TO</text><text fill="black" x="470" y="350">slash</text><text fill="black" x="470" y="400">VB</text><text fill="black" x="550" y="350">taxes</text><text fill="black" x="550" y="400">NNS</text><text fill="black" x="630" y="350">.</text><text fill="black" x="630" y="400">.</text><line stroke="red" x1="160" x2="337" y1="210" y2="330" /><line stroke="red" x1="240" x2="337" y1="210" y2="330" /><line stroke="red" x1="430" x2="275" y1="210" y2="330" /><line stroke="red" x1="510" x2="488" y1="210" y2="330" /><line stroke="red" x1="570" x2="488" y1="210" y2="330" /><line stroke="red" x1="640" x2="488" y1="210" y2="330" /><line stroke="red" x1="730" x2="488" y1="210" y2="330" /><line stroke="red" x1="810" x2="568" y1="210" y2="330" /><line stroke="red" x1="870" x2="630" y1="210" y2="330" /></svg>