<?xml version="1.0" encoding="utf-8" ?>
<svg baseProfile="full" height="500" version="1.1" width="1300" xmlns="http://www.w3.org/2000/svg" xmlns:ev="http://www.w3.org/2001/xml-events" xmlns:xlink="http://www.w3.org/1999/xlink"><defs /><text fill="black" x="0" y="100">VIETNAMESE </text><text fill="black" x="20" y="150">POS: </text><text fill="black" x="20" y="200">Source: </text><text fill="black" x="150" y="150">Nq</text><text fill="black" x="150" y="200">Một</text><text fill="black" x="230" y="150">Nc</text><text fill="black" x="230" y="200">vị</text><text fill="black" x="310" y="150">Nn</text><text fill="black" x="310" y="200">cố_vấn</text><text fill="black" x="390" y="150">Cm</text><text fill="black" x="390" y="200">của</text><text fill="black" x="470" y="150">Nn</text><text fill="black" x="470" y="200">chính_phủ</text><text fill="black" x="550" y="150">R</text><text fill="black" x="550" y="200">đã</text><text fill="black" x="630" y="150">Vv</text><text fill="black" x="630" y="200">bị</text><text fill="black" x="710" y="150">Nq</text><text fill="black" x="710" y="200">một</text><text fill="black" x="790" y="150">Nn</text><text fill="black" x="790" y="200">chuyên_gia</text><text fill="black" x="870" y="150">Aa</text><text fill="black" x="870" y="200">trẻ</text><text fill="black" x="950" y="150">Aa</text><text fill="black" x="950" y="200">hơn</text><text fill="black" x="1030" y="150">Vv</text><text fill="black" x="1030" y="200">hạ_bệ</text><text fill="black" x="1110" y="150">PU</text><text fill="black" x="1110" y="200">.</text><text fill="black" x="0" y="450">ENGLISH </text><text fill="black" x="20" y="350">Target: </text><text fill="black" x="20" y="400">POS: </text><text fill="black" x="150" y="350">A</text><text fill="black" x="150" y="400">DT</text><text fill="black" x="230" y="350">government</text><text fill="black" x="230" y="400">NN</text><text fill="black" x="310" y="350">adviser</text><text fill="black" x="310" y="400">NN</text><text fill="black" x="390" y="350">dethroned</text><text fill="black" x="390" y="400">VBN</text><text fill="black" x="470" y="350">by</text><text fill="black" x="470" y="400">IN</text><text fill="black" x="550" y="350">a</text><text fill="black" x="550" y="400">DT</text><text fill="black" x="630" y="350">young</text><text fill="black" x="630" y="400">JJ</text><text fill="black" x="710" y="350">expert</text><text fill="black" x="710" y="400">NN</text><text fill="black" x="790" y="350">.</text><text fill="black" x="790" y="400">.</text><line stroke="red" x1="160" x2="150" y1="210" y2="330" /><line stroke="red" x1="240" x2="337" y1="210" y2="330" /><line stroke="red" x1="340" x2="337" y1="210" y2="330" /><line stroke="red" x1="510" x2="275" y1="210" y2="330" /><line stroke="red" x1="560" x2="426" y1="210" y2="330" /><line stroke="red" x1="640" x2="426" y1="210" y2="330" /><line stroke="red" x1="720" x2="550" y1="210" y2="330" /><line stroke="red" x1="840" x2="737" y1="210" y2="330" /><line stroke="red" x1="880" x2="648" y1="210" y2="330" /><line stroke="red" x1="960" x2="426" y1="210" y2="330" /><line stroke="red" x1="1050" x2="426" y1="210" y2="330" /><line stroke="red" x1="1110" x2="790" y1="210" y2="330" /></svg>