<?xml version="1.0" encoding="utf-8" ?>
<svg baseProfile="full" height="500" version="1.1" width="2000" xmlns="http://www.w3.org/2000/svg" xmlns:ev="http://www.w3.org/2001/xml-events" xmlns:xlink="http://www.w3.org/1999/xlink"><defs /><text fill="black" x="0" y="100">VIETNAMESE </text><text fill="black" x="20" y="150">POS: </text><text fill="black" x="20" y="200">Source: </text><text fill="black" x="150" y="150">Nn</text><text fill="black" x="150" y="200">Mục</text><text fill="black" x="230" y="150">Vv</text><text fill="black" x="230" y="200">tin</text><text fill="black" x="310" y="150">Aa</text><text fill="black" x="310" y="200">vặt</text><text fill="black" x="390" y="150">Aa</text><text fill="black" x="390" y="200">gần_xa</text><text fill="black" x="470" y="150">Cm</text><text fill="black" x="470" y="200">trên</text><text fill="black" x="550" y="150">Nn</text><text fill="black" x="550" y="200">báo</text><text fill="black" x="630" y="150">Vv</text><text fill="black" x="630" y="200">được</text><text fill="black" x="710" y="150">Vv</text><text fill="black" x="710" y="200">viết</text><text fill="black" x="790" y="150">Cp</text><text fill="black" x="790" y="200">với</text><text fill="black" x="870" y="150">Nq</text><text fill="black" x="870" y="200">những</text><text fill="black" x="950" y="150">Nn</text><text fill="black" x="950" y="200">mẫu</text><text fill="black" x="1030" y="150">Nn</text><text fill="black" x="1030" y="200">tin</text><text fill="black" x="1110" y="150">Vv</text><text fill="black" x="1110" y="200">lượm_lặt</text><text fill="black" x="1190" y="150">Cm</text><text fill="black" x="1190" y="200">từ</text><text fill="black" x="1270" y="150">Nq</text><text fill="black" x="1270" y="200">các</text><text fill="black" x="1350" y="150">Nc</text><text fill="black" x="1350" y="200">cuộc</text><text fill="black" x="1430" y="150">Vv</text><text fill="black" x="1430" y="200">nói_chuyện</text><text fill="black" x="1510" y="150">Cm</text><text fill="black" x="1510" y="200">trong</text><text fill="black" x="1590" y="150">Nn</text><text fill="black" x="1590" y="200">tiệc_rượu</text><text fill="black" x="1670" y="150">PU</text><text fill="black" x="1670" y="200">.</text><text fill="black" x="0" y="450">ENGLISH </text><text fill="black" x="20" y="350">Target: </text><text fill="black" x="20" y="400">POS: </text><text fill="black" x="150" y="350">A</text><text fill="black" x="150" y="400">DT</text><text fill="black" x="230" y="350">gossip</text><text fill="black" x="230" y="400">NN</text><text fill="black" x="310" y="350">column</text><text fill="black" x="310" y="400">NN</text><text fill="black" x="390" y="350">put</text><text fill="black" x="390" y="400">VBD</text><text fill="black" x="470" y="350">together</text><text fill="black" x="470" y="400">RB</text><text fill="black" x="550" y="350">with</text><text fill="black" x="550" y="400">IN</text><text fill="black" x="630" y="350">a</text><text fill="black" x="630" y="400">DT</text><text fill="black" x="710" y="350">few</text><text fill="black" x="710" y="400">JJ</text><text fill="black" x="790" y="350">gleanings</text><text fill="black" x="790" y="400">NNS</text><text fill="black" x="870" y="350">from</text><text fill="black" x="870" y="400">IN</text><text fill="black" x="950" y="350">cocktail</text><text fill="black" x="950" y="400">NN</text><text fill="black" x="1030" y="350">-</text><text fill="black" x="1030" y="400">:</text><text fill="black" x="1110" y="350">party</text><text fill="black" x="1110" y="400">NN</text><text fill="black" x="1190" y="350">conversations</text><text fill="black" x="1190" y="400">NNS</text><text fill="black" x="1270" y="350">.</text><text fill="black" x="1270" y="400">.</text><line stroke="red" x1="160" x2="337" y1="210" y2="330" /><line stroke="red" x1="240" x2="826" y1="210" y2="330" /><line stroke="red" x1="320" x2="826" y1="210" y2="330" /><line stroke="red" x1="420" x2="826" y1="210" y2="330" /><line stroke="red" x1="490" x2="826" y1="210" y2="330" /><line stroke="red" x1="560" x2="826" y1="210" y2="330" /><line stroke="red" x1="730" x2="826" y1="210" y2="330" /><line stroke="red" x1="960" x2="826" y1="210" y2="330" /><line stroke="red" x1="1040" x2="826" y1="210" y2="330" /><line stroke="red" x1="1150" x2="826" y1="210" y2="330" /><line stroke="red" x1="1200" x2="888" y1="210" y2="330" /><line stroke="red" x1="1280" x2="986" y1="210" y2="330" /><line stroke="red" x1="1370" x2="1244" y1="210" y2="330" /><line stroke="red" x1="1480" x2="1244" y1="210" y2="330" /><line stroke="red" x1="1530" x2="1244" y1="210" y2="330" /><line stroke="red" x1="1630" x2="1244" y1="210" y2="330" /><line stroke="red" x1="1670" x2="1270" y1="210" y2="330" /></svg>