<?xml version="1.0" encoding="utf-8" ?>
<svg baseProfile="full" height="500" version="1.1" width="1800" xmlns="http://www.w3.org/2000/svg" xmlns:ev="http://www.w3.org/2001/xml-events" xmlns:xlink="http://www.w3.org/1999/xlink"><defs /><text fill="black" x="0" y="100">VIETNAMESE </text><text fill="black" x="20" y="150">POS: </text><text fill="black" x="20" y="200">Source: </text><text fill="black" x="150" y="150">Nq</text><text fill="black" x="150" y="200">Một</text><text fill="black" x="230" y="150">Nn</text><text fill="black" x="230" y="200">thống_đốc</text><text fill="black" x="310" y="150">R</text><text fill="black" x="310" y="200">đã</text><text fill="black" x="390" y="150">Aa</text><text fill="black" x="390" y="200">tạm</text><text fill="black" x="470" y="150">Vv</text><text fill="black" x="470" y="200">giữ</text><text fill="black" x="550" y="150">R</text><text fill="black" x="550" y="200">lại</text><text fill="black" x="630" y="150">Nq</text><text fill="black" x="630" y="200">những</text><text fill="black" x="710" y="150">Nc</text><text fill="black" x="710" y="200">món</text><text fill="black" x="790" y="150">Nn</text><text fill="black" x="790" y="200">tiền</text><text fill="black" x="870" y="150">Vv</text><text fill="black" x="870" y="200">được</text><text fill="black" x="950" y="150">Vv</text><text fill="black" x="950" y="200">dành</text><text fill="black" x="1030" y="150">Cp</text><text fill="black" x="1030" y="200">cho</text><text fill="black" x="1110" y="150">Nq</text><text fill="black" x="1110" y="200">các</text><text fill="black" x="1190" y="150">Nu</text><text fill="black" x="1190" y="200">thành_phố</text><text fill="black" x="1270" y="150">Cp</text><text fill="black" x="1270" y="200">và</text><text fill="black" x="1350" y="150">Nu</text><text fill="black" x="1350" y="200">thị_trấn</text><text fill="black" x="1430" y="150">Vv</text><text fill="black" x="1430" y="200">sử_dụng</text><text fill="black" x="1510" y="150">PU</text><text fill="black" x="1510" y="200">.</text><text fill="black" x="0" y="450">ENGLISH </text><text fill="black" x="20" y="350">Target: </text><text fill="black" x="20" y="400">POS: </text><text fill="black" x="150" y="350">A</text><text fill="black" x="150" y="400">DT</text><text fill="black" x="230" y="350">governor</text><text fill="black" x="230" y="400">NN</text><text fill="black" x="310" y="350">who</text><text fill="black" x="310" y="400">WP</text><text fill="black" x="390" y="350">impounded</text><text fill="black" x="390" y="400">VBD</text><text fill="black" x="470" y="350">monies</text><text fill="black" x="470" y="400">NNS</text><text fill="black" x="550" y="350">designated</text><text fill="black" x="550" y="400">VBN</text><text fill="black" x="630" y="350">for</text><text fill="black" x="630" y="400">IN</text><text fill="black" x="710" y="350">the</text><text fill="black" x="710" y="400">DT</text><text fill="black" x="790" y="350">use</text><text fill="black" x="790" y="400">NN</text><text fill="black" x="870" y="350">of</text><text fill="black" x="870" y="400">IN</text><text fill="black" x="950" y="350">cities</text><text fill="black" x="950" y="400">NNS</text><text fill="black" x="1030" y="350">and</text><text fill="black" x="1030" y="400">CC</text><text fill="black" x="1110" y="350">towns</text><text fill="black" x="1110" y="400">NNS</text><text fill="black" x="1190" y="350">.</text><text fill="black" x="1190" y="400">.</text><line stroke="red" x1="160" x2="150" y1="210" y2="330" /><line stroke="red" x1="270" x2="266" y1="210" y2="330" /><line stroke="red" x1="400" x2="426" y1="210" y2="330" /><line stroke="red" x1="480" x2="426" y1="210" y2="330" /><line stroke="red" x1="560" x2="426" y1="210" y2="330" /><line stroke="red" x1="720" x2="426" y1="210" y2="330" /><line stroke="red" x1="810" x2="497" y1="210" y2="330" /><line stroke="red" x1="890" x2="595" y1="210" y2="330" /><line stroke="red" x1="970" x2="426" y1="210" y2="330" /><line stroke="red" x1="1120" x2="977" y1="210" y2="330" /><line stroke="red" x1="1230" x2="977" y1="210" y2="330" /><line stroke="red" x1="1280" x2="1039" y1="210" y2="330" /><line stroke="red" x1="1390" x2="1128" y1="210" y2="330" /><line stroke="red" x1="1460" x2="799" y1="210" y2="330" /><line stroke="red" x1="1510" x2="1190" y1="210" y2="330" /></svg>