<?xml version="1.0" encoding="utf-8" ?>
<svg baseProfile="full" height="500" version="1.1" width="1200" xmlns="http://www.w3.org/2000/svg" xmlns:ev="http://www.w3.org/2001/xml-events" xmlns:xlink="http://www.w3.org/1999/xlink"><defs /><text fill="black" x="0" y="100">VIETNAMESE </text><text fill="black" x="20" y="150">POS: </text><text fill="black" x="20" y="200">Source: </text><text fill="black" x="150" y="150">Nc</text><text fill="black" x="150" y="200">Sự</text><text fill="black" x="230" y="150">Vv</text><text fill="black" x="230" y="200">di_chuyển</text><text fill="black" x="310" y="150">R</text><text fill="black" x="310" y="200">dần</text><text fill="black" x="390" y="150">Cm</text><text fill="black" x="390" y="200">của</text><text fill="black" x="470" y="150">Nn</text><text fill="black" x="470" y="200">dân</text><text fill="black" x="550" y="150">Cm</text><text fill="black" x="550" y="200">từ</text><text fill="black" x="630" y="150">Nn</text><text fill="black" x="630" y="200">nông_thôn</text><text fill="black" x="710" y="150">D</text><text fill="black" x="710" y="200">ra</text><text fill="black" x="790" y="150">Nn</text><text fill="black" x="790" y="200">thành_thị</text><text fill="black" x="870" y="150">PU</text><text fill="black" x="870" y="200">.</text><text fill="black" x="0" y="450">ENGLISH </text><text fill="black" x="20" y="350">Target: </text><text fill="black" x="20" y="400">POS: </text><text fill="black" x="150" y="350">A</text><text fill="black" x="150" y="400">DT</text><text fill="black" x="230" y="350">gradual</text><text fill="black" x="230" y="400">JJ</text><text fill="black" x="310" y="350">shift</text><text fill="black" x="310" y="400">NN</text><text fill="black" x="390" y="350">of</text><text fill="black" x="390" y="400">IN</text><text fill="black" x="470" y="350">people</text><text fill="black" x="470" y="400">NNS</text><text fill="black" x="550" y="350">from</text><text fill="black" x="550" y="400">IN</text><text fill="black" x="630" y="350">the</text><text fill="black" x="630" y="400">DT</text><text fill="black" x="710" y="350">country</text><text fill="black" x="710" y="400">NN</text><text fill="black" x="790" y="350">to</text><text fill="black" x="790" y="400">TO</text><text fill="black" x="870" y="350">the</text><text fill="black" x="870" y="400">DT</text><text fill="black" x="950" y="350">town</text><text fill="black" x="950" y="400">NN</text><text fill="black" x="1030" y="350">.</text><text fill="black" x="1030" y="400">.</text><line stroke="red" x1="160" x2="257" y1="210" y2="330" /><line stroke="red" x1="270" x2="257" y1="210" y2="330" /><line stroke="red" x1="320" x2="257" y1="210" y2="330" /><line stroke="red" x1="480" x2="497" y1="210" y2="330" /><line stroke="red" x1="560" x2="568" y1="210" y2="330" /><line stroke="red" x1="670" x2="737" y1="210" y2="330" /><line stroke="red" x1="830" x2="968" y1="210" y2="330" /><line stroke="red" x1="870" x2="1030" y1="210" y2="330" /></svg>