<?xml version="1.0" encoding="utf-8" ?>
<svg baseProfile="full" height="500" version="1.1" width="2000" xmlns="http://www.w3.org/2000/svg" xmlns:ev="http://www.w3.org/2001/xml-events" xmlns:xlink="http://www.w3.org/1999/xlink"><defs /><text fill="black" x="0" y="100">VIETNAMESE </text><text fill="black" x="20" y="150">POS: </text><text fill="black" x="20" y="200">Source: </text><text fill="black" x="150" y="150">Nq</text><text fill="black" x="150" y="200">Một</text><text fill="black" x="230" y="150">Nn</text><text fill="black" x="230" y="200">chính_phủ</text><text fill="black" x="310" y="150">Cm</text><text fill="black" x="310" y="200">trong</text><text fill="black" x="390" y="150">Nt</text><text fill="black" x="390" y="200">khi</text><text fill="black" x="470" y="150">Vv</text><text fill="black" x="470" y="200">thi_hành</text><text fill="black" x="550" y="150">Nq</text><text fill="black" x="550" y="200">các</text><text fill="black" x="630" y="150">Nn</text><text fill="black" x="630" y="200">chính_sách</text><text fill="black" x="710" y="150">Nn</text><text fill="black" x="710" y="200">quân_phiệt</text><text fill="black" x="790" y="150">R</text><text fill="black" x="790" y="200">đã</text><text fill="black" x="870" y="150">Vv</text><text fill="black" x="870" y="200">khiến</text><text fill="black" x="950" y="150">Cp</text><text fill="black" x="950" y="200">cho</text><text fill="black" x="1030" y="150">Nn</text><text fill="black" x="1030" y="200">việc</text><text fill="black" x="1110" y="150">Vv</text><text fill="black" x="1110" y="200">giết</text><text fill="black" x="1190" y="150">Nn</text><text fill="black" x="1190" y="200">người</text><text fill="black" x="1270" y="150">Nq</text><text fill="black" x="1270" y="200">hàng_loạt</text><text fill="black" x="1350" y="150">Vv</text><text fill="black" x="1350" y="200">phải</text><text fill="black" x="1430" y="150">Vv</text><text fill="black" x="1430" y="200">trở_thành</text><text fill="black" x="1510" y="150">Nn</text><text fill="black" x="1510" y="200">chuyện</text><text fill="black" x="1590" y="150">Aa</text><text fill="black" x="1590" y="200">thường_xuyên</text><text fill="black" x="1670" y="150">PU</text><text fill="black" x="1670" y="200">.</text><text fill="black" x="0" y="450">ENGLISH </text><text fill="black" x="20" y="350">Target: </text><text fill="black" x="20" y="400">POS: </text><text fill="black" x="150" y="350">A</text><text fill="black" x="150" y="400">DT</text><text fill="black" x="230" y="350">government</text><text fill="black" x="230" y="400">NN</text><text fill="black" x="310" y="350">that</text><text fill="black" x="310" y="400">WDT</text><text fill="black" x="390" y="350">routinized</text><text fill="black" x="390" y="400">VBD</text><text fill="black" x="470" y="350">mass</text><text fill="black" x="470" y="400">NN</text><text fill="black" x="550" y="350">murder</text><text fill="black" x="550" y="400">NN</text><text fill="black" x="630" y="350">while</text><text fill="black" x="630" y="400">IN</text><text fill="black" x="710" y="350">carrying</text><text fill="black" x="710" y="400">VBG</text><text fill="black" x="790" y="350">out</text><text fill="black" x="790" y="400">RP</text><text fill="black" x="870" y="350">its</text><text fill="black" x="870" y="400">PRP$</text><text fill="black" x="950" y="350">militaristic</text><text fill="black" x="950" y="400">JJ</text><text fill="black" x="1030" y="350">policies</text><text fill="black" x="1030" y="400">NNS</text><text fill="black" x="1110" y="350">.</text><text fill="black" x="1110" y="400">.</text><line stroke="red" x1="160" x2="150" y1="210" y2="330" /><line stroke="red" x1="270" x2="275" y1="210" y2="330" /><line stroke="red" x1="330" x2="435" y1="210" y2="330" /><line stroke="red" x1="400" x2="648" y1="210" y2="330" /><line stroke="red" x1="510" x2="435" y1="210" y2="330" /><line stroke="red" x1="560" x2="746" y1="210" y2="330" /><line stroke="red" x1="680" x2="1066" y1="210" y2="330" /><line stroke="red" x1="760" x2="1004" y1="210" y2="330" /><line stroke="red" x1="890" x2="1004" y1="210" y2="330" /><line stroke="red" x1="960" x2="1004" y1="210" y2="330" /><line stroke="red" x1="1050" x2="435" y1="210" y2="330" /><line stroke="red" x1="1130" x2="577" y1="210" y2="330" /><line stroke="red" x1="1210" x2="577" y1="210" y2="330" /><line stroke="red" x1="1310" x2="1004" y1="210" y2="330" /><line stroke="red" x1="1370" x2="1004" y1="210" y2="330" /><line stroke="red" x1="1470" x2="1004" y1="210" y2="330" /><line stroke="red" x1="1540" x2="1004" y1="210" y2="330" /><line stroke="red" x1="1650" x2="1004" y1="210" y2="330" /><line stroke="red" x1="1670" x2="1110" y1="210" y2="330" /></svg>