<?xml version="1.0" encoding="utf-8" ?>
<svg baseProfile="full" height="500" version="1.1" width="1600" xmlns="http://www.w3.org/2000/svg" xmlns:ev="http://www.w3.org/2001/xml-events" xmlns:xlink="http://www.w3.org/1999/xlink"><defs /><text fill="black" x="0" y="100">VIETNAMESE </text><text fill="black" x="20" y="150">POS: </text><text fill="black" x="20" y="200">Source: </text><text fill="black" x="150" y="150">Nt</text><text fill="black" x="150" y="200">Khi</text><text fill="black" x="230" y="150">Vv</text><text fill="black" x="230" y="200">tính</text><text fill="black" x="310" y="150">Cm</text><text fill="black" x="310" y="200">tới</text><text fill="black" x="390" y="150">Nn</text><text fill="black" x="390" y="200">việc</text><text fill="black" x="470" y="150">R</text><text fill="black" x="470" y="200">sẽ</text><text fill="black" x="550" y="150">Vv</text><text fill="black" x="550" y="200">phải</text><text fill="black" x="630" y="150">Vv</text><text fill="black" x="630" y="200">làm</text><text fill="black" x="710" y="150">PU</text><text fill="black" x="710" y="200">,</text><text fill="black" x="790" y="150">Nn</text><text fill="black" x="790" y="200">cậu</text><text fill="black" x="870" y="150">Pd</text><text fill="black" x="870" y="200">ấy</text><text fill="black" x="950" y="150">Vv</text><text fill="black" x="950" y="200">thấy</text><text fill="black" x="1030" y="150">Aa</text><text fill="black" x="1030" y="200">chắc</text><text fill="black" x="1110" y="150">Vv</text><text fill="black" x="1110" y="200">phải</text><text fill="black" x="1190" y="150">Aa</text><text fill="black" x="1190" y="200">mệt</text><text fill="black" x="1270" y="150">R</text><text fill="black" x="1270" y="200">lắm</text><text fill="black" x="1350" y="150">PU</text><text fill="black" x="1350" y="200">.</text><text fill="black" x="0" y="450">ENGLISH </text><text fill="black" x="20" y="350">Target: </text><text fill="black" x="20" y="400">POS: </text><text fill="black" x="150" y="350">A</text><text fill="black" x="150" y="400">DT</text><text fill="black" x="230" y="350">great</text><text fill="black" x="230" y="400">JJ</text><text fill="black" x="310" y="350">weariness</text><text fill="black" x="310" y="400">NN</text><text fill="black" x="390" y="350">settled</text><text fill="black" x="390" y="400">VBN</text><text fill="black" x="470" y="350">over</text><text fill="black" x="470" y="400">IN</text><text fill="black" x="550" y="350">him</text><text fill="black" x="550" y="400">PRP</text><text fill="black" x="630" y="350">when</text><text fill="black" x="630" y="400">WRB</text><text fill="black" x="710" y="350">he</text><text fill="black" x="710" y="400">PRP</text><text fill="black" x="790" y="350">considered</text><text fill="black" x="790" y="400">VBD</text><text fill="black" x="870" y="350">what</text><text fill="black" x="870" y="400">WP</text><text fill="black" x="950" y="350">must</text><text fill="black" x="950" y="400">MD</text><text fill="black" x="1030" y="350">be</text><text fill="black" x="1030" y="400">VB</text><text fill="black" x="1110" y="350">done</text><text fill="black" x="1110" y="400">VBN</text><text fill="black" x="1190" y="350">.</text><text fill="black" x="1190" y="400">.</text><line stroke="red" x1="160" x2="346" y1="210" y2="330" /><line stroke="red" x1="250" x2="346" y1="210" y2="330" /><line stroke="red" x1="320" x2="346" y1="210" y2="330" /><line stroke="red" x1="410" x2="346" y1="210" y2="330" /><line stroke="red" x1="480" x2="346" y1="210" y2="330" /><line stroke="red" x1="800" x2="346" y1="210" y2="330" /><line stroke="red" x1="880" x2="559" y1="210" y2="330" /><line stroke="red" x1="970" x2="346" y1="210" y2="330" /><line stroke="red" x1="1050" x2="968" y1="210" y2="330" /><line stroke="red" x1="1130" x2="968" y1="210" y2="330" /><line stroke="red" x1="1200" x2="346" y1="210" y2="330" /><line stroke="red" x1="1280" x2="346" y1="210" y2="330" /><line stroke="red" x1="1350" x2="1190" y1="210" y2="330" /></svg>