<?xml version="1.0" encoding="utf-8" ?>
<svg baseProfile="full" height="500" version="1.1" width="2400" xmlns="http://www.w3.org/2000/svg" xmlns:ev="http://www.w3.org/2001/xml-events" xmlns:xlink="http://www.w3.org/1999/xlink"><defs /><text fill="black" x="0" y="100">VIETNAMESE </text><text fill="black" x="20" y="150">POS: </text><text fill="black" x="20" y="200">Source: </text><text fill="black" x="150" y="150">Nq</text><text fill="black" x="150" y="200">Một</text><text fill="black" x="230" y="150">Nn</text><text fill="black" x="230" y="200">người</text><text fill="black" x="310" y="150">Vv</text><text fill="black" x="310" y="200">sưu_tầm</text><text fill="black" x="390" y="150">Nn</text><text fill="black" x="390" y="200">sách</text><text fill="black" x="470" y="150">Aa</text><text fill="black" x="470" y="200">vĩ_đại</text><text fill="black" x="550" y="150">Vv</text><text fill="black" x="550" y="200">sống</text><text fill="black" x="630" y="150">Vv</text><text fill="black" x="630" y="200">cách</text><text fill="black" x="710" y="150">Pd</text><text fill="black" x="710" y="200">đây</text><text fill="black" x="790" y="150">Nq</text><text fill="black" x="790" y="200">500</text><text fill="black" x="870" y="150">Nt</text><text fill="black" x="870" y="200">năm</text><text fill="black" x="950" y="150">Vv</text><text fill="black" x="950" y="200">lấy</text><text fill="black" x="1030" y="150">Vv</text><text fill="black" x="1030" y="200">làm</text><text fill="black" x="1110" y="150">Vv</text><text fill="black" x="1110" y="200">kiêu_hãnh</text><text fill="black" x="1190" y="150">Cp</text><text fill="black" x="1190" y="200">vì</text><text fill="black" x="1270" y="150">Nq</text><text fill="black" x="1270" y="200">tất_cả</text><text fill="black" x="1350" y="150">Nn</text><text fill="black" x="1350" y="200">sách</text><text fill="black" x="1430" y="150">Cm</text><text fill="black" x="1430" y="200">của</text><text fill="black" x="1510" y="150">Nn</text><text fill="black" x="1510" y="200">ông</text><text fill="black" x="1590" y="150">R</text><text fill="black" x="1590" y="200">đều</text><text fill="black" x="1670" y="150">Vv</text><text fill="black" x="1670" y="200">được</text><text fill="black" x="1750" y="150">Vv</text><text fill="black" x="1750" y="200">viết</text><text fill="black" x="1830" y="150">Cm</text><text fill="black" x="1830" y="200">bằng</text><text fill="black" x="1910" y="150">Nn</text><text fill="black" x="1910" y="200">tay</text><text fill="black" x="1990" y="150">PU</text><text fill="black" x="1990" y="200">.</text><text fill="black" x="0" y="450">ENGLISH </text><text fill="black" x="20" y="350">Target: </text><text fill="black" x="20" y="400">POS: </text><text fill="black" x="150" y="350">A</text><text fill="black" x="150" y="400">DT</text><text fill="black" x="230" y="350">great</text><text fill="black" x="230" y="400">JJ</text><text fill="black" x="310" y="350">book</text><text fill="black" x="310" y="400">NN</text><text fill="black" x="390" y="350">collector</text><text fill="black" x="390" y="400">NN</text><text fill="black" x="470" y="350">who</text><text fill="black" x="470" y="400">WP</text><text fill="black" x="550" y="350">lived</text><text fill="black" x="550" y="400">VBD</text><text fill="black" x="630" y="350">500</text><text fill="black" x="630" y="400">CD</text><text fill="black" x="710" y="350">years</text><text fill="black" x="710" y="400">NNS</text><text fill="black" x="790" y="350">ago</text><text fill="black" x="790" y="400">RB</text><text fill="black" x="870" y="350">boasted</text><text fill="black" x="870" y="400">VBD</text><text fill="black" x="950" y="350">that</text><text fill="black" x="950" y="400">IN</text><text fill="black" x="1030" y="350">every</text><text fill="black" x="1030" y="400">DT</text><text fill="black" x="1110" y="350">book</text><text fill="black" x="1110" y="400">NN</text><text fill="black" x="1190" y="350">he</text><text fill="black" x="1190" y="400">PRP</text><text fill="black" x="1270" y="350">had</text><text fill="black" x="1270" y="400">VBD</text><text fill="black" x="1350" y="350">was</text><text fill="black" x="1350" y="400">VBD</text><text fill="black" x="1430" y="350">written</text><text fill="black" x="1430" y="400">VBN</text><text fill="black" x="1510" y="350">with</text><text fill="black" x="1510" y="400">IN</text><text fill="black" x="1590" y="350">the</text><text fill="black" x="1590" y="400">DT</text><text fill="black" x="1670" y="350">pen</text><text fill="black" x="1670" y="400">NN</text><text fill="black" x="1750" y="350">.</text><text fill="black" x="1750" y="400">.</text><line stroke="red" x1="160" x2="150" y1="210" y2="330" /><line stroke="red" x1="250" x2="426" y1="210" y2="330" /><line stroke="red" x1="340" x2="426" y1="210" y2="330" /><line stroke="red" x1="410" x2="328" y1="210" y2="330" /><line stroke="red" x1="500" x2="248" y1="210" y2="330" /><line stroke="red" x1="570" x2="568" y1="210" y2="330" /><line stroke="red" x1="650" x2="799" y1="210" y2="330" /><line stroke="red" x1="720" x2="799" y1="210" y2="330" /><line stroke="red" x1="800" x2="639" y1="210" y2="330" /><line stroke="red" x1="880" x2="728" y1="210" y2="330" /><line stroke="red" x1="960" x2="426" y1="210" y2="330" /><line stroke="red" x1="1150" x2="426" y1="210" y2="330" /><line stroke="red" x1="1200" x2="426" y1="210" y2="330" /><line stroke="red" x1="1300" x2="426" y1="210" y2="330" /><line stroke="red" x1="1370" x2="1128" y1="210" y2="330" /><line stroke="red" x1="1520" x2="1193" y1="210" y2="330" /><line stroke="red" x1="1600" x2="426" y1="210" y2="330" /><line stroke="red" x1="1770" x2="1457" y1="210" y2="330" /><line stroke="red" x1="1850" x2="1528" y1="210" y2="330" /><line stroke="red" x1="1920" x2="1679" y1="210" y2="330" /><line stroke="red" x1="1990" x2="1750" y1="210" y2="330" /></svg>