<?xml version="1.0" encoding="utf-8" ?>
<svg baseProfile="full" height="500" version="1.1" width="900" xmlns="http://www.w3.org/2000/svg" xmlns:ev="http://www.w3.org/2001/xml-events" xmlns:xlink="http://www.w3.org/1999/xlink"><defs /><text fill="black" x="0" y="100">VIETNAMESE </text><text fill="black" x="20" y="150">POS: </text><text fill="black" x="20" y="200">Source: </text><text fill="black" x="150" y="150">Nn</text><text fill="black" x="150" y="200">Tên</text><text fill="black" x="230" y="150">Nn</text><text fill="black" x="230" y="200">cụ</text><text fill="black" x="310" y="150">Vv</text><text fill="black" x="310" y="200">súc</text><text fill="black" x="390" y="150">Aa</text><text fill="black" x="390" y="200">vũ_phu</text><text fill="black" x="470" y="150">R</text><text fill="black" x="470" y="200">đã</text><text fill="black" x="550" y="150">Vv</text><text fill="black" x="550" y="200">đánh</text><text fill="black" x="630" y="150">Nn</text><text fill="black" x="630" y="200">cô</text><text fill="black" x="710" y="150">Pd</text><text fill="black" x="710" y="200">ấy</text><text fill="black" x="790" y="150">PU</text><text fill="black" x="790" y="200">.</text><text fill="black" x="0" y="450">ENGLISH </text><text fill="black" x="20" y="350">Target: </text><text fill="black" x="20" y="400">POS: </text><text fill="black" x="150" y="350">A</text><text fill="black" x="150" y="400">DT</text><text fill="black" x="230" y="350">great</text><text fill="black" x="230" y="400">JJ</text><text fill="black" x="310" y="350">brute</text><text fill="black" x="310" y="400">JJ</text><text fill="black" x="390" y="350">of</text><text fill="black" x="390" y="400">IN</text><text fill="black" x="470" y="350">a</text><text fill="black" x="470" y="400">DT</text><text fill="black" x="550" y="350">man</text><text fill="black" x="550" y="400">NN</text><text fill="black" x="630" y="350">attacked</text><text fill="black" x="630" y="400">VBD</text><text fill="black" x="710" y="350">her</text><text fill="black" x="710" y="400">PRP</text><text fill="black" x="790" y="350">.</text><text fill="black" x="790" y="400">.</text><line stroke="red" x1="160" x2="328" y1="210" y2="330" /><line stroke="red" x1="240" x2="328" y1="210" y2="330" /><line stroke="red" x1="320" x2="328" y1="210" y2="330" /><line stroke="red" x1="420" x2="328" y1="210" y2="330" /><line stroke="red" x1="570" x2="666" y1="210" y2="330" /><line stroke="red" x1="640" x2="719" y1="210" y2="330" /><line stroke="red" x1="720" x2="719" y1="210" y2="330" /><line stroke="red" x1="790" x2="790" y1="210" y2="330" /></svg>