<?xml version="1.0" encoding="utf-8" ?>
<svg baseProfile="full" height="500" version="1.1" width="800" xmlns="http://www.w3.org/2000/svg" xmlns:ev="http://www.w3.org/2001/xml-events" xmlns:xlink="http://www.w3.org/1999/xlink"><defs /><text fill="black" x="0" y="100">VIETNAMESE </text><text fill="black" x="20" y="150">POS: </text><text fill="black" x="20" y="200">Source: </text><text fill="black" x="150" y="150">R</text><text fill="black" x="150" y="200">Rất</text><text fill="black" x="230" y="150">Aa</text><text fill="black" x="230" y="200">nhiều_chuyện</text><text fill="black" x="310" y="150">Vv</text><text fill="black" x="310" y="200">phụ_thuộc</text><text fill="black" x="390" y="150">Cm</text><text fill="black" x="390" y="200">vào</text><text fill="black" x="470" y="150">Nn</text><text fill="black" x="470" y="200">quyết_định</text><text fill="black" x="550" y="150">Pd</text><text fill="black" x="550" y="200">này</text><text fill="black" x="630" y="150">PU</text><text fill="black" x="630" y="200">.</text><text fill="black" x="0" y="450">ENGLISH </text><text fill="black" x="20" y="350">Target: </text><text fill="black" x="20" y="400">POS: </text><text fill="black" x="150" y="350">A</text><text fill="black" x="150" y="400">DT</text><text fill="black" x="230" y="350">great</text><text fill="black" x="230" y="400">JJ</text><text fill="black" x="310" y="350">deal</text><text fill="black" x="310" y="400">NN</text><text fill="black" x="390" y="350">hangs</text><text fill="black" x="390" y="400">VBZ</text><text fill="black" x="470" y="350">on</text><text fill="black" x="470" y="400">IN</text><text fill="black" x="550" y="350">this</text><text fill="black" x="550" y="400">DT</text><text fill="black" x="630" y="350">decision</text><text fill="black" x="630" y="400">NN</text><text fill="black" x="710" y="350">.</text><text fill="black" x="710" y="400">.</text><line stroke="red" x1="160" x2="408" y1="210" y2="330" /><line stroke="red" x1="290" x2="408" y1="210" y2="330" /><line stroke="red" x1="350" x2="408" y1="210" y2="330" /><line stroke="red" x1="400" x2="408" y1="210" y2="330" /><line stroke="red" x1="520" x2="666" y1="210" y2="330" /><line stroke="red" x1="560" x2="568" y1="210" y2="330" /><line stroke="red" x1="630" x2="710" y1="210" y2="330" /></svg>