<?xml version="1.0" encoding="utf-8" ?>
<svg baseProfile="full" height="500" version="1.1" width="1100" xmlns="http://www.w3.org/2000/svg" xmlns:ev="http://www.w3.org/2001/xml-events" xmlns:xlink="http://www.w3.org/1999/xlink"><defs /><text fill="black" x="0" y="100">VIETNAMESE </text><text fill="black" x="20" y="150">POS: </text><text fill="black" x="20" y="200">Source: </text><text fill="black" x="150" y="150">Nq</text><text fill="black" x="150" y="200">Một</text><text fill="black" x="230" y="150">Nn</text><text fill="black" x="230" y="200">nhóm</text><text fill="black" x="310" y="150">Nn</text><text fill="black" x="310" y="200">người</text><text fill="black" x="390" y="150">Vv</text><text fill="black" x="390" y="200">phản_đối</text><text fill="black" x="470" y="150">R</text><text fill="black" x="470" y="200">đã</text><text fill="black" x="550" y="150">Vv</text><text fill="black" x="550" y="200">tụ_tập</text><text fill="black" x="630" y="150">Nn</text><text fill="black" x="630" y="200">bên</text><text fill="black" x="710" y="150">Nn</text><text fill="black" x="710" y="200">ngoài</text><text fill="black" x="790" y="150">Nn</text><text fill="black" x="790" y="200">văn_phòng</text><text fill="black" x="870" y="150">Nn</text><text fill="black" x="870" y="200">hãng</text><text fill="black" x="950" y="150">PU</text><text fill="black" x="950" y="200">.</text><text fill="black" x="0" y="450">ENGLISH </text><text fill="black" x="20" y="350">Target: </text><text fill="black" x="20" y="400">POS: </text><text fill="black" x="150" y="350">A</text><text fill="black" x="150" y="400">DT</text><text fill="black" x="230" y="350">group</text><text fill="black" x="230" y="400">NN</text><text fill="black" x="310" y="350">of</text><text fill="black" x="310" y="400">IN</text><text fill="black" x="390" y="350">protesters</text><text fill="black" x="390" y="400">NNS</text><text fill="black" x="470" y="350">gathered</text><text fill="black" x="470" y="400">VBN</text><text fill="black" x="550" y="350">outside</text><text fill="black" x="550" y="400">IN</text><text fill="black" x="630" y="350">the</text><text fill="black" x="630" y="400">DT</text><text fill="black" x="710" y="350">firm</text><text fill="black" x="710" y="400">NN</text><text fill="black" x="790" y="350">'s</text><text fill="black" x="790" y="400">POS</text><text fill="black" x="870" y="350">office</text><text fill="black" x="870" y="400">NN</text><text fill="black" x="950" y="350">.</text><text fill="black" x="950" y="400">.</text><line stroke="red" x1="160" x2="150" y1="210" y2="330" /><line stroke="red" x1="250" x2="248" y1="210" y2="330" /><line stroke="red" x1="330" x2="435" y1="210" y2="330" /><line stroke="red" x1="430" x2="435" y1="210" y2="330" /><line stroke="red" x1="580" x2="506" y1="210" y2="330" /><line stroke="red" x1="640" x2="577" y1="210" y2="330" /><line stroke="red" x1="730" x2="577" y1="210" y2="330" /><line stroke="red" x1="830" x2="897" y1="210" y2="330" /><line stroke="red" x1="890" x2="728" y1="210" y2="330" /><line stroke="red" x1="950" x2="950" y1="210" y2="330" /></svg>