<?xml version="1.0" encoding="utf-8" ?>
<svg baseProfile="full" height="500" version="1.1" width="1300" xmlns="http://www.w3.org/2000/svg" xmlns:ev="http://www.w3.org/2001/xml-events" xmlns:xlink="http://www.w3.org/1999/xlink"><defs /><text fill="black" x="0" y="100">VIETNAMESE </text><text fill="black" x="20" y="150">POS: </text><text fill="black" x="20" y="200">Source: </text><text fill="black" x="150" y="150">Nn</text><text fill="black" x="150" y="200">Tiếng</text><text fill="black" x="230" y="150">Vv</text><text fill="black" x="230" y="200">chép</text><text fill="black" x="310" y="150">Nn</text><text fill="black" x="310" y="200">môi</text><text fill="black" x="390" y="150">Vv</text><text fill="black" x="390" y="200">háu</text><text fill="black" x="470" y="150">Vv</text><text fill="black" x="470" y="200">ăn</text><text fill="black" x="550" y="150">Nt</text><text fill="black" x="550" y="200">khi</text><text fill="black" x="630" y="150">Pp</text><text fill="black" x="630" y="200">hắn</text><text fill="black" x="710" y="150">Vv</text><text fill="black" x="710" y="200">cắt</text><text fill="black" x="790" y="150">Nn</text><text fill="black" x="790" y="200">miếng</text><text fill="black" x="870" y="150">Vv</text><text fill="black" x="870" y="200">bít</text><text fill="black" x="950" y="150">Nt</text><text fill="black" x="950" y="200">tết</text><text fill="black" x="1030" y="150">PU</text><text fill="black" x="1030" y="200">.</text><text fill="black" x="0" y="450">ENGLISH </text><text fill="black" x="20" y="350">Target: </text><text fill="black" x="20" y="400">POS: </text><text fill="black" x="150" y="350">A</text><text fill="black" x="150" y="400">DT</text><text fill="black" x="230" y="350">greedy</text><text fill="black" x="230" y="400">JJ</text><text fill="black" x="310" y="350">smack</text><text fill="black" x="310" y="400">VBP</text><text fill="black" x="390" y="350">of</text><text fill="black" x="390" y="400">IN</text><text fill="black" x="470" y="350">the</text><text fill="black" x="470" y="400">DT</text><text fill="black" x="550" y="350">slips</text><text fill="black" x="550" y="400">VBZ</text><text fill="black" x="630" y="350">as</text><text fill="black" x="630" y="400">IN</text><text fill="black" x="710" y="350">he</text><text fill="black" x="710" y="400">PRP</text><text fill="black" x="790" y="350">cut</text><text fill="black" x="790" y="400">VBD</text><text fill="black" x="870" y="350">into</text><text fill="black" x="870" y="400">IN</text><text fill="black" x="950" y="350">the</text><text fill="black" x="950" y="400">DT</text><text fill="black" x="1030" y="350">steak</text><text fill="black" x="1030" y="400">NN</text><text fill="black" x="1110" y="350">.</text><text fill="black" x="1110" y="400">.</text><line stroke="red" x1="170" x2="568" y1="210" y2="330" /><line stroke="red" x1="250" x2="568" y1="210" y2="330" /><line stroke="red" x1="320" x2="568" y1="210" y2="330" /><line stroke="red" x1="400" x2="568" y1="210" y2="330" /><line stroke="red" x1="480" x2="568" y1="210" y2="330" /><line stroke="red" x1="560" x2="633" y1="210" y2="330" /><line stroke="red" x1="640" x2="713" y1="210" y2="330" /><line stroke="red" x1="720" x2="799" y1="210" y2="330" /><line stroke="red" x1="810" x2="1048" y1="210" y2="330" /><line stroke="red" x1="880" x2="1048" y1="210" y2="330" /><line stroke="red" x1="960" x2="1048" y1="210" y2="330" /><line stroke="red" x1="1030" x2="1110" y1="210" y2="330" /></svg>