<?xml version="1.0" encoding="utf-8" ?>
<svg baseProfile="full" height="500" version="1.1" width="1800" xmlns="http://www.w3.org/2000/svg" xmlns:ev="http://www.w3.org/2001/xml-events" xmlns:xlink="http://www.w3.org/1999/xlink"><defs /><text fill="black" x="0" y="100">VIETNAMESE </text><text fill="black" x="20" y="150">POS: </text><text fill="black" x="20" y="200">Source: </text><text fill="black" x="150" y="150">Nq</text><text fill="black" x="150" y="200">Một</text><text fill="black" x="230" y="150">Nn</text><text fill="black" x="230" y="200">nhóm</text><text fill="black" x="310" y="150">Nn</text><text fill="black" x="310" y="200">bạn</text><text fill="black" x="390" y="150">Cm</text><text fill="black" x="390" y="200">của</text><text fill="black" x="470" y="150">Pp</text><text fill="black" x="470" y="200">tôi</text><text fill="black" x="550" y="150">R</text><text fill="black" x="550" y="200">sẽ</text><text fill="black" x="630" y="150">Vv</text><text fill="black" x="630" y="200">họp_mặt</text><text fill="black" x="710" y="150">Nn</text><text fill="black" x="710" y="200">nhau</text><text fill="black" x="790" y="150">Cm</text><text fill="black" x="790" y="200">để</text><text fill="black" x="870" y="150">Vv</text><text fill="black" x="870" y="200">uống</text><text fill="black" x="950" y="150">Nn</text><text fill="black" x="950" y="200">rượu</text><text fill="black" x="1030" y="150">Cp</text><text fill="black" x="1030" y="200">và</text><text fill="black" x="1110" y="150">Vv</text><text fill="black" x="1110" y="200">nghe</text><text fill="black" x="1190" y="150">Nn</text><text fill="black" x="1190" y="200">nhạc</text><text fill="black" x="1270" y="150">PU</text><text fill="black" x="1270" y="200">.</text><text fill="black" x="0" y="450">ENGLISH </text><text fill="black" x="20" y="350">Target: </text><text fill="black" x="20" y="400">POS: </text><text fill="black" x="150" y="350">A</text><text fill="black" x="150" y="400">DT</text><text fill="black" x="230" y="350">group</text><text fill="black" x="230" y="400">NN</text><text fill="black" x="310" y="350">of</text><text fill="black" x="310" y="400">IN</text><text fill="black" x="390" y="350">my</text><text fill="black" x="390" y="400">PRP$</text><text fill="black" x="470" y="350">friends</text><text fill="black" x="470" y="400">NNS</text><text fill="black" x="550" y="350">are</text><text fill="black" x="550" y="400">VBP</text><text fill="black" x="630" y="350">getting</text><text fill="black" x="630" y="400">VBG</text><text fill="black" x="710" y="350">together</text><text fill="black" x="710" y="400">RB</text><text fill="black" x="790" y="350">to</text><text fill="black" x="790" y="400">TO</text><text fill="black" x="870" y="350">have</text><text fill="black" x="870" y="400">VB</text><text fill="black" x="950" y="350">some</text><text fill="black" x="950" y="400">DT</text><text fill="black" x="1030" y="350">drinks</text><text fill="black" x="1030" y="400">NNS</text><text fill="black" x="1110" y="350">and</text><text fill="black" x="1110" y="400">CC</text><text fill="black" x="1190" y="350">listen</text><text fill="black" x="1190" y="400">VB</text><text fill="black" x="1270" y="350">to</text><text fill="black" x="1270" y="400">TO</text><text fill="black" x="1350" y="350">some</text><text fill="black" x="1350" y="400">DT</text><text fill="black" x="1430" y="350">music</text><text fill="black" x="1430" y="400">NN</text><text fill="black" x="1510" y="350">.</text><text fill="black" x="1510" y="400">.</text><line stroke="red" x1="160" x2="150" y1="210" y2="330" /><line stroke="red" x1="250" x2="248" y1="210" y2="330" /><line stroke="red" x1="320" x2="497" y1="210" y2="330" /><line stroke="red" x1="480" x2="393" y1="210" y2="330" /><line stroke="red" x1="560" x2="657" y1="210" y2="330" /><line stroke="red" x1="660" x2="746" y1="210" y2="330" /><line stroke="red" x1="730" x2="746" y1="210" y2="330" /><line stroke="red" x1="800" x2="793" y1="210" y2="330" /><line stroke="red" x1="890" x2="1057" y1="210" y2="330" /><line stroke="red" x1="970" x2="1057" y1="210" y2="330" /><line stroke="red" x1="1040" x2="1119" y1="210" y2="330" /><line stroke="red" x1="1130" x2="1217" y1="210" y2="330" /><line stroke="red" x1="1210" x2="1448" y1="210" y2="330" /><line stroke="red" x1="1270" x2="1510" y1="210" y2="330" /></svg>