<?xml version="1.0" encoding="utf-8" ?>
<svg baseProfile="full" height="500" version="1.1" width="1900" xmlns="http://www.w3.org/2000/svg" xmlns:ev="http://www.w3.org/2001/xml-events" xmlns:xlink="http://www.w3.org/1999/xlink"><defs /><text fill="black" x="0" y="100">VIETNAMESE </text><text fill="black" x="20" y="150">POS: </text><text fill="black" x="20" y="200">Source: </text><text fill="black" x="150" y="150">Nq</text><text fill="black" x="150" y="200">Một</text><text fill="black" x="230" y="150">Nc</text><text fill="black" x="230" y="200">người</text><text fill="black" x="310" y="150">Nn</text><text fill="black" x="310" y="200">đàn_ông</text><text fill="black" x="390" y="150">Aa</text><text fill="black" x="390" y="200">bé_nhỏ</text><text fill="black" x="470" y="150">Aa</text><text fill="black" x="470" y="200">khốn_khổ</text><text fill="black" x="550" y="150">Vv</text><text fill="black" x="550" y="200">sống</text><text fill="black" x="630" y="150">Cm</text><text fill="black" x="630" y="200">trong</text><text fill="black" x="710" y="150">Nq</text><text fill="black" x="710" y="200">một</text><text fill="black" x="790" y="150">Nc</text><text fill="black" x="790" y="200">căn</text><text fill="black" x="870" y="150">Nn</text><text fill="black" x="870" y="200">phòng</text><text fill="black" x="950" y="150">Aa</text><text fill="black" x="950" y="200">nhỏ</text><text fill="black" x="1030" y="150">Aa</text><text fill="black" x="1030" y="200">tồi_tàn</text><text fill="black" x="1110" y="150">Cm</text><text fill="black" x="1110" y="200">tại</text><text fill="black" x="1190" y="150">Nq</text><text fill="black" x="1190" y="200">một</text><text fill="black" x="1270" y="150">Nn</text><text fill="black" x="1270" y="200">khu</text><text fill="black" x="1350" y="150">Nn</text><text fill="black" x="1350" y="200">ổ_chuột</text><text fill="black" x="1430" y="150">Cm</text><text fill="black" x="1430" y="200">của</text><text fill="black" x="1510" y="150">Nu</text><text fill="black" x="1510" y="200">thành_phố</text><text fill="black" x="1590" y="150">PU</text><text fill="black" x="1590" y="200">.</text><text fill="black" x="0" y="450">ENGLISH </text><text fill="black" x="20" y="350">Target: </text><text fill="black" x="20" y="400">POS: </text><text fill="black" x="150" y="350">A</text><text fill="black" x="150" y="400">DT</text><text fill="black" x="230" y="350">grotty</text><text fill="black" x="230" y="400">JJ</text><text fill="black" x="310" y="350">little</text><text fill="black" x="310" y="400">JJ</text><text fill="black" x="390" y="350">man</text><text fill="black" x="390" y="400">NN</text><text fill="black" x="470" y="350">living</text><text fill="black" x="470" y="400">VBG</text><text fill="black" x="550" y="350">in</text><text fill="black" x="550" y="400">IN</text><text fill="black" x="630" y="350">a</text><text fill="black" x="630" y="400">DT</text><text fill="black" x="710" y="350">grotty</text><text fill="black" x="710" y="400">JJ</text><text fill="black" x="790" y="350">little</text><text fill="black" x="790" y="400">JJ</text><text fill="black" x="870" y="350">room</text><text fill="black" x="870" y="400">NN</text><text fill="black" x="950" y="350">in</text><text fill="black" x="950" y="400">IN</text><text fill="black" x="1030" y="350">a</text><text fill="black" x="1030" y="400">DT</text><text fill="black" x="1110" y="350">grotty</text><text fill="black" x="1110" y="400">JJ</text><text fill="black" x="1190" y="350">part</text><text fill="black" x="1190" y="400">NN</text><text fill="black" x="1270" y="350">of</text><text fill="black" x="1270" y="400">IN</text><text fill="black" x="1350" y="350">town</text><text fill="black" x="1350" y="400">NN</text><text fill="black" x="1430" y="350">.</text><text fill="black" x="1430" y="400">.</text><line stroke="red" x1="160" x2="150" y1="210" y2="330" /><line stroke="red" x1="250" x2="399" y1="210" y2="330" /><line stroke="red" x1="340" x2="399" y1="210" y2="330" /><line stroke="red" x1="420" x2="257" y1="210" y2="330" /><line stroke="red" x1="510" x2="257" y1="210" y2="330" /><line stroke="red" x1="570" x2="497" y1="210" y2="330" /><line stroke="red" x1="650" x2="553" y1="210" y2="330" /><line stroke="red" x1="720" x2="630" y1="210" y2="330" /><line stroke="red" x1="800" x2="737" y1="210" y2="330" /><line stroke="red" x1="890" x2="888" y1="210" y2="330" /><line stroke="red" x1="960" x2="817" y1="210" y2="330" /><line stroke="red" x1="1060" x2="737" y1="210" y2="330" /><line stroke="red" x1="1120" x2="737" y1="210" y2="330" /><line stroke="red" x1="1200" x2="1030" y1="210" y2="330" /><line stroke="red" x1="1280" x2="1137" y1="210" y2="330" /><line stroke="red" x1="1380" x2="737" y1="210" y2="330" /><line stroke="red" x1="1550" x2="1368" y1="210" y2="330" /><line stroke="red" x1="1590" x2="1430" y1="210" y2="330" /></svg>