<?xml version="1.0" encoding="utf-8" ?>
<svg baseProfile="full" height="500" version="1.1" width="1300" xmlns="http://www.w3.org/2000/svg" xmlns:ev="http://www.w3.org/2001/xml-events" xmlns:xlink="http://www.w3.org/1999/xlink"><defs /><text fill="black" x="0" y="100">VIETNAMESE </text><text fill="black" x="20" y="150">POS: </text><text fill="black" x="20" y="200">Source: </text><text fill="black" x="150" y="150">Nq</text><text fill="black" x="150" y="200">Một</text><text fill="black" x="230" y="150">Nn</text><text fill="black" x="230" y="200">khuynh_hướng</text><text fill="black" x="310" y="150">R</text><text fill="black" x="310" y="200">ngày_càng</text><text fill="black" x="390" y="150">Vv</text><text fill="black" x="390" y="200">tăng</text><text fill="black" x="470" y="150">Vv</text><text fill="black" x="470" y="200">nghiêng</text><text fill="black" x="550" y="150">Cm</text><text fill="black" x="550" y="200">về</text><text fill="black" x="630" y="150">Nq</text><text fill="black" x="630" y="200">những</text><text fill="black" x="710" y="150">Nn</text><text fill="black" x="710" y="200">gia_đình</text><text fill="black" x="790" y="150">Ve</text><text fill="black" x="790" y="200">có</text><text fill="black" x="870" y="150">Aa</text><text fill="black" x="870" y="200">ít</text><text fill="black" x="950" y="150">Nn</text><text fill="black" x="950" y="200">con</text><text fill="black" x="1030" y="150">Aa</text><text fill="black" x="1030" y="200">hơn</text><text fill="black" x="1110" y="150">PU</text><text fill="black" x="1110" y="200">.</text><text fill="black" x="0" y="450">ENGLISH </text><text fill="black" x="20" y="350">Target: </text><text fill="black" x="20" y="400">POS: </text><text fill="black" x="150" y="350">A</text><text fill="black" x="150" y="400">DT</text><text fill="black" x="230" y="350">growing</text><text fill="black" x="230" y="400">VBG</text><text fill="black" x="310" y="350">trend</text><text fill="black" x="310" y="400">NN</text><text fill="black" x="390" y="350">towards</text><text fill="black" x="390" y="400">IN</text><text fill="black" x="470" y="350">smaller</text><text fill="black" x="470" y="400">JJR</text><text fill="black" x="550" y="350">families</text><text fill="black" x="550" y="400">NNS</text><text fill="black" x="630" y="350">.</text><text fill="black" x="630" y="400">.</text><line stroke="red" x1="160" x2="150" y1="210" y2="330" /><line stroke="red" x1="290" x2="328" y1="210" y2="330" /><line stroke="red" x1="350" x2="257" y1="210" y2="330" /><line stroke="red" x1="410" x2="257" y1="210" y2="330" /><line stroke="red" x1="500" x2="328" y1="210" y2="330" /><line stroke="red" x1="560" x2="417" y1="210" y2="330" /><line stroke="red" x1="750" x2="586" y1="210" y2="330" /><line stroke="red" x1="880" x2="328" y1="210" y2="330" /><line stroke="red" x1="960" x2="328" y1="210" y2="330" /><line stroke="red" x1="1040" x2="497" y1="210" y2="330" /><line stroke="red" x1="1110" x2="630" y1="210" y2="330" /></svg>