<?xml version="1.0" encoding="utf-8" ?>
<svg baseProfile="full" height="500" version="1.1" width="1200" xmlns="http://www.w3.org/2000/svg" xmlns:ev="http://www.w3.org/2001/xml-events" xmlns:xlink="http://www.w3.org/1999/xlink"><defs /><text fill="black" x="0" y="100">VIETNAMESE </text><text fill="black" x="20" y="150">POS: </text><text fill="black" x="20" y="200">Source: </text><text fill="black" x="150" y="150">Nq</text><text fill="black" x="150" y="200">Một</text><text fill="black" x="230" y="150">Nn</text><text fill="black" x="230" y="200">nhóm</text><text fill="black" x="310" y="150">Nn</text><text fill="black" x="310" y="200">nhà_văn</text><text fill="black" x="390" y="150">R</text><text fill="black" x="390" y="200">đã</text><text fill="black" x="470" y="150">Vv</text><text fill="black" x="470" y="200">phối_hợp</text><text fill="black" x="550" y="150">Vv</text><text fill="black" x="550" y="200">tạo</text><text fill="black" x="630" y="150">R</text><text fill="black" x="630" y="200">ra</text><text fill="black" x="710" y="150">Nq</text><text fill="black" x="710" y="200">một</text><text fill="black" x="790" y="150">Nn</text><text fill="black" x="790" y="200">loạt</text><text fill="black" x="870" y="150">Nn</text><text fill="black" x="870" y="200">chương_trình</text><text fill="black" x="950" y="150">Nn</text><text fill="black" x="950" y="200">tivi</text><text fill="black" x="1030" y="150">PU</text><text fill="black" x="1030" y="200">.</text><text fill="black" x="0" y="450">ENGLISH </text><text fill="black" x="20" y="350">Target: </text><text fill="black" x="20" y="400">POS: </text><text fill="black" x="150" y="350">A</text><text fill="black" x="150" y="400">DT</text><text fill="black" x="230" y="350">group</text><text fill="black" x="230" y="400">NN</text><text fill="black" x="310" y="350">of</text><text fill="black" x="310" y="400">IN</text><text fill="black" x="390" y="350">writers</text><text fill="black" x="390" y="400">NNS</text><text fill="black" x="470" y="350">who</text><text fill="black" x="470" y="400">WP</text><text fill="black" x="550" y="350">confected</text><text fill="black" x="550" y="400">VBD</text><text fill="black" x="630" y="350">a</text><text fill="black" x="630" y="400">DT</text><text fill="black" x="710" y="350">television</text><text fill="black" x="710" y="400">NN</text><text fill="black" x="790" y="350">series</text><text fill="black" x="790" y="400">NN</text><text fill="black" x="870" y="350">.</text><text fill="black" x="870" y="400">.</text><line stroke="red" x1="160" x2="150" y1="210" y2="330" /><line stroke="red" x1="250" x2="248" y1="210" y2="330" /><line stroke="red" x1="340" x2="417" y1="210" y2="330" /><line stroke="red" x1="510" x2="586" y1="210" y2="330" /><line stroke="red" x1="560" x2="586" y1="210" y2="330" /><line stroke="red" x1="640" x2="586" y1="210" y2="330" /><line stroke="red" x1="720" x2="630" y1="210" y2="330" /><line stroke="red" x1="810" x2="817" y1="210" y2="330" /><line stroke="red" x1="930" x2="586" y1="210" y2="330" /><line stroke="red" x1="970" x2="755" y1="210" y2="330" /><line stroke="red" x1="1030" x2="870" y1="210" y2="330" /></svg>