<?xml version="1.0" encoding="utf-8" ?>
<svg baseProfile="full" height="500" version="1.1" width="1300" xmlns="http://www.w3.org/2000/svg" xmlns:ev="http://www.w3.org/2001/xml-events" xmlns:xlink="http://www.w3.org/1999/xlink"><defs /><text fill="black" x="0" y="100">VIETNAMESE </text><text fill="black" x="20" y="150">POS: </text><text fill="black" x="20" y="200">Source: </text><text fill="black" x="150" y="150">Nq</text><text fill="black" x="150" y="200">Một</text><text fill="black" x="230" y="150">Nn</text><text fill="black" x="230" y="200">nhóm</text><text fill="black" x="310" y="150">Cm</text><text fill="black" x="310" y="200">trong</text><text fill="black" x="390" y="150">Pp</text><text fill="black" x="390" y="200">chúng_tôi</text><text fill="black" x="470" y="150">R</text><text fill="black" x="470" y="200">sẽ</text><text fill="black" x="550" y="150">Vd</text><text fill="black" x="550" y="200">đến</text><text fill="black" x="630" y="150">Nr</text><text fill="black" x="630" y="200">Luân_Đôn</text><text fill="black" x="710" y="150">Vv</text><text fill="black" x="710" y="200">dự</text><text fill="black" x="790" y="150">Nt</text><text fill="black" x="790" y="200">ngày</text><text fill="black" x="870" y="150">Nn</text><text fill="black" x="870" y="200">lễ</text><text fill="black" x="950" y="150">Pd</text><text fill="black" x="950" y="200">đó</text><text fill="black" x="1030" y="150">PU</text><text fill="black" x="1030" y="200">.</text><text fill="black" x="0" y="450">ENGLISH </text><text fill="black" x="20" y="350">Target: </text><text fill="black" x="20" y="400">POS: </text><text fill="black" x="150" y="350">A</text><text fill="black" x="150" y="400">DT</text><text fill="black" x="230" y="350">group</text><text fill="black" x="230" y="400">NN</text><text fill="black" x="310" y="350">of</text><text fill="black" x="310" y="400">IN</text><text fill="black" x="390" y="350">us</text><text fill="black" x="390" y="400">PRP</text><text fill="black" x="470" y="350">are</text><text fill="black" x="470" y="400">VBP</text><text fill="black" x="550" y="350">going</text><text fill="black" x="550" y="400">VBG</text><text fill="black" x="630" y="350">up</text><text fill="black" x="630" y="400">RB</text><text fill="black" x="710" y="350">to</text><text fill="black" x="710" y="400">TO</text><text fill="black" x="790" y="350">London</text><text fill="black" x="790" y="400">NNP</text><text fill="black" x="870" y="350">for</text><text fill="black" x="870" y="400">IN</text><text fill="black" x="950" y="350">the</text><text fill="black" x="950" y="400">DT</text><text fill="black" x="1030" y="350">day</text><text fill="black" x="1030" y="400">NN</text><text fill="black" x="1110" y="350">.</text><text fill="black" x="1110" y="400">.</text><line stroke="red" x1="160" x2="150" y1="210" y2="330" /><line stroke="red" x1="250" x2="248" y1="210" y2="330" /><line stroke="red" x1="430" x2="393" y1="210" y2="330" /><line stroke="red" x1="480" x2="568" y1="210" y2="330" /><line stroke="red" x1="560" x2="713" y1="210" y2="330" /><line stroke="red" x1="670" x2="817" y1="210" y2="330" /><line stroke="red" x1="720" x2="817" y1="210" y2="330" /><line stroke="red" x1="810" x2="1039" y1="210" y2="330" /><line stroke="red" x1="880" x2="1039" y1="210" y2="330" /><line stroke="red" x1="1030" x2="1110" y1="210" y2="330" /></svg>