<?xml version="1.0" encoding="utf-8" ?>
<svg baseProfile="full" height="500" version="1.1" width="1400" xmlns="http://www.w3.org/2000/svg" xmlns:ev="http://www.w3.org/2001/xml-events" xmlns:xlink="http://www.w3.org/1999/xlink"><defs /><text fill="black" x="0" y="100">VIETNAMESE </text><text fill="black" x="20" y="150">POS: </text><text fill="black" x="20" y="200">Source: </text><text fill="black" x="150" y="150">Nq</text><text fill="black" x="150" y="200">Một</text><text fill="black" x="230" y="150">Nn</text><text fill="black" x="230" y="200">ứng_cử_viên</text><text fill="black" x="310" y="150">Nn</text><text fill="black" x="310" y="200">thống_đốc</text><text fill="black" x="390" y="150">Nu</text><text fill="black" x="390" y="200">tiểu_bang</text><text fill="black" x="470" y="150">Vv</text><text fill="black" x="470" y="200">bị</text><text fill="black" x="550" y="150">Vv</text><text fill="black" x="550" y="200">mất_lòng</text><text fill="black" x="630" y="150">Nn</text><text fill="black" x="630" y="200">dân</text><text fill="black" x="710" y="150">Aa</text><text fill="black" x="710" y="200">nhanh_chóng</text><text fill="black" x="790" y="150">Nn</text><text fill="black" x="790" y="200">sau</text><text fill="black" x="870" y="150">Nq</text><text fill="black" x="870" y="200">một</text><text fill="black" x="950" y="150">Nc</text><text fill="black" x="950" y="200">cuộc</text><text fill="black" x="1030" y="150">Vv</text><text fill="black" x="1030" y="200">tranh_luận</text><text fill="black" x="1110" y="150">Aa</text><text fill="black" x="1110" y="200">tai_hại</text><text fill="black" x="1190" y="150">PU</text><text fill="black" x="1190" y="200">.</text><text fill="black" x="0" y="450">ENGLISH </text><text fill="black" x="20" y="350">Target: </text><text fill="black" x="20" y="400">POS: </text><text fill="black" x="150" y="350">A</text><text fill="black" x="150" y="400">DT</text><text fill="black" x="230" y="350">gubernatorial</text><text fill="black" x="230" y="400">JJ</text><text fill="black" x="310" y="350">candidate</text><text fill="black" x="310" y="400">NN</text><text fill="black" x="390" y="350">whose</text><text fill="black" x="390" y="400">WP$</text><text fill="black" x="470" y="350">popularity</text><text fill="black" x="470" y="400">NN</text><text fill="black" x="550" y="350">haemorrhaged</text><text fill="black" x="550" y="400">VBN</text><text fill="black" x="630" y="350">after</text><text fill="black" x="630" y="400">IN</text><text fill="black" x="710" y="350">a</text><text fill="black" x="710" y="400">DT</text><text fill="black" x="790" y="350">disastrous</text><text fill="black" x="790" y="400">JJ</text><text fill="black" x="870" y="350">debate</text><text fill="black" x="870" y="400">NN</text><text fill="black" x="950" y="350">.</text><text fill="black" x="950" y="400">.</text><line stroke="red" x1="160" x2="150" y1="210" y2="330" /><line stroke="red" x1="280" x2="284" y1="210" y2="330" /><line stroke="red" x1="350" x2="284" y1="210" y2="330" /><line stroke="red" x1="430" x2="284" y1="210" y2="330" /><line stroke="red" x1="480" x2="604" y1="210" y2="330" /><line stroke="red" x1="590" x2="604" y1="210" y2="330" /><line stroke="red" x1="640" x2="604" y1="210" y2="330" /><line stroke="red" x1="760" x2="604" y1="210" y2="330" /><line stroke="red" x1="800" x2="648" y1="210" y2="330" /><line stroke="red" x1="880" x2="710" y1="210" y2="330" /><line stroke="red" x1="970" x2="897" y1="210" y2="330" /><line stroke="red" x1="1080" x2="897" y1="210" y2="330" /><line stroke="red" x1="1140" x2="835" y1="210" y2="330" /><line stroke="red" x1="1190" x2="950" y1="210" y2="330" /></svg>