<?xml version="1.0" encoding="utf-8" ?>
<svg baseProfile="full" height="500" version="1.1" width="1500" xmlns="http://www.w3.org/2000/svg" xmlns:ev="http://www.w3.org/2001/xml-events" xmlns:xlink="http://www.w3.org/1999/xlink"><defs /><text fill="black" x="0" y="100">VIETNAMESE </text><text fill="black" x="20" y="150">POS: </text><text fill="black" x="20" y="200">Source: </text><text fill="black" x="150" y="150">Nq</text><text fill="black" x="150" y="200">Một</text><text fill="black" x="230" y="150">Nc</text><text fill="black" x="230" y="200">vị</text><text fill="black" x="310" y="150">Nn</text><text fill="black" x="310" y="200">khách</text><text fill="black" x="390" y="150">Vv</text><text fill="black" x="390" y="200">cảm_thấy</text><text fill="black" x="470" y="150">R</text><text fill="black" x="470" y="200">hơi</text><text fill="black" x="550" y="150">Aa</text><text fill="black" x="550" y="200">đói</text><text fill="black" x="630" y="150">Cp</text><text fill="black" x="630" y="200">nên</text><text fill="black" x="710" y="150">Nn</text><text fill="black" x="710" y="200">ông</text><text fill="black" x="790" y="150">Pd</text><text fill="black" x="790" y="200">ấy</text><text fill="black" x="870" y="150">Vv</text><text fill="black" x="870" y="200">muốn</text><text fill="black" x="950" y="150">Vv</text><text fill="black" x="950" y="200">ăn</text><text fill="black" x="1030" y="150">Nq</text><text fill="black" x="1030" y="200">chút</text><text fill="black" x="1110" y="150">Pp</text><text fill="black" x="1110" y="200">gì</text><text fill="black" x="1190" y="150">Pd</text><text fill="black" x="1190" y="200">đó</text><text fill="black" x="1270" y="150">PU</text><text fill="black" x="1270" y="200">.</text><text fill="black" x="0" y="450">ENGLISH </text><text fill="black" x="20" y="350">Target: </text><text fill="black" x="20" y="400">POS: </text><text fill="black" x="150" y="350">A</text><text fill="black" x="150" y="400">DT</text><text fill="black" x="230" y="350">guest</text><text fill="black" x="230" y="400">NN</text><text fill="black" x="310" y="350">feels</text><text fill="black" x="310" y="400">VBZ</text><text fill="black" x="390" y="350">a</text><text fill="black" x="390" y="400">DT</text><text fill="black" x="470" y="350">little</text><text fill="black" x="470" y="400">JJ</text><text fill="black" x="550" y="350">hungry</text><text fill="black" x="550" y="400">JJ</text><text fill="black" x="630" y="350">and</text><text fill="black" x="630" y="400">CC</text><text fill="black" x="710" y="350">he</text><text fill="black" x="710" y="400">PRP</text><text fill="black" x="790" y="350">asks</text><text fill="black" x="790" y="400">VBZ</text><text fill="black" x="870" y="350">for</text><text fill="black" x="870" y="400">IN</text><text fill="black" x="950" y="350">something</text><text fill="black" x="950" y="400">NN</text><text fill="black" x="1030" y="350">to</text><text fill="black" x="1030" y="400">TO</text><text fill="black" x="1110" y="350">eat</text><text fill="black" x="1110" y="400">VB</text><text fill="black" x="1190" y="350">.</text><text fill="black" x="1190" y="400">.</text><line stroke="red" x1="160" x2="150" y1="210" y2="330" /><line stroke="red" x1="240" x2="248" y1="210" y2="330" /><line stroke="red" x1="330" x2="248" y1="210" y2="330" /><line stroke="red" x1="430" x2="328" y1="210" y2="330" /><line stroke="red" x1="480" x2="497" y1="210" y2="330" /><line stroke="red" x1="560" x2="577" y1="210" y2="330" /><line stroke="red" x1="640" x2="639" y1="210" y2="330" /><line stroke="red" x1="720" x2="713" y1="210" y2="330" /><line stroke="red" x1="800" x2="713" y1="210" y2="330" /><line stroke="red" x1="890" x2="808" y1="210" y2="330" /><line stroke="red" x1="960" x2="1119" y1="210" y2="330" /><line stroke="red" x1="1050" x2="808" y1="210" y2="330" /><line stroke="red" x1="1120" x2="986" y1="210" y2="330" /><line stroke="red" x1="1270" x2="1190" y1="210" y2="330" /></svg>