<?xml version="1.0" encoding="utf-8" ?>
<svg baseProfile="full" height="500" version="1.1" width="1800" xmlns="http://www.w3.org/2000/svg" xmlns:ev="http://www.w3.org/2001/xml-events" xmlns:xlink="http://www.w3.org/1999/xlink"><defs /><text fill="black" x="0" y="100">VIETNAMESE </text><text fill="black" x="20" y="150">POS: </text><text fill="black" x="20" y="200">Source: </text><text fill="black" x="150" y="150">Nq</text><text fill="black" x="150" y="200">Một</text><text fill="black" x="230" y="150">Nc</text><text fill="black" x="230" y="200">người</text><text fill="black" x="310" y="150">Nn</text><text fill="black" x="310" y="200">khách</text><text fill="black" x="390" y="150">Vv</text><text fill="black" x="390" y="200">đi</text><text fill="black" x="470" y="150">D</text><text fill="black" x="470" y="200">vào</text><text fill="black" x="550" y="150">Nn</text><text fill="black" x="550" y="200">quán</text><text fill="black" x="630" y="150">Nn</text><text fill="black" x="630" y="200">rượu</text><text fill="black" x="710" y="150">PU</text><text fill="black" x="710" y="200">,</text><text fill="black" x="790" y="150">Nq</text><text fill="black" x="790" y="200">một</text><text fill="black" x="870" y="150">Nn</text><text fill="black" x="870" y="200">nhân_viên</text><text fill="black" x="950" y="150">Nn</text><text fill="black" x="950" y="200">quán</text><text fill="black" x="1030" y="150">Nn</text><text fill="black" x="1030" y="200">rượu</text><text fill="black" x="1110" y="150">Vv</text><text fill="black" x="1110" y="200">tiến</text><text fill="black" x="1190" y="150">D</text><text fill="black" x="1190" y="200">đến</text><text fill="black" x="1270" y="150">Nn</text><text fill="black" x="1270" y="200">chỗ</text><text fill="black" x="1350" y="150">Nn</text><text fill="black" x="1350" y="200">ông</text><text fill="black" x="1430" y="150">Pd</text><text fill="black" x="1430" y="200">ấy</text><text fill="black" x="1510" y="150">PU</text><text fill="black" x="1510" y="200">.</text><text fill="black" x="0" y="450">ENGLISH </text><text fill="black" x="20" y="350">Target: </text><text fill="black" x="20" y="400">POS: </text><text fill="black" x="150" y="350">A</text><text fill="black" x="150" y="400">DT</text><text fill="black" x="230" y="350">guest</text><text fill="black" x="230" y="400">NN</text><text fill="black" x="310" y="350">enters</text><text fill="black" x="310" y="400">VBZ</text><text fill="black" x="390" y="350">the</text><text fill="black" x="390" y="400">DT</text><text fill="black" x="470" y="350">bar</text><text fill="black" x="470" y="400">NN</text><text fill="black" x="550" y="350">and</text><text fill="black" x="550" y="400">CC</text><text fill="black" x="630" y="350">a</text><text fill="black" x="630" y="400">DT</text><text fill="black" x="710" y="350">barman</text><text fill="black" x="710" y="400">NN</text><text fill="black" x="790" y="350">comes</text><text fill="black" x="790" y="400">VBZ</text><text fill="black" x="870" y="350">up</text><text fill="black" x="870" y="400">RP</text><text fill="black" x="950" y="350">to</text><text fill="black" x="950" y="400">TO</text><text fill="black" x="1030" y="350">him</text><text fill="black" x="1030" y="400">PRP</text><text fill="black" x="1110" y="350">.</text><text fill="black" x="1110" y="400">.</text><line stroke="red" x1="160" x2="150" y1="210" y2="330" /><line stroke="red" x1="250" x2="248" y1="210" y2="330" /><line stroke="red" x1="330" x2="248" y1="210" y2="330" /><line stroke="red" x1="400" x2="337" y1="210" y2="330" /><line stroke="red" x1="480" x2="337" y1="210" y2="330" /><line stroke="red" x1="570" x2="479" y1="210" y2="330" /><line stroke="red" x1="650" x2="479" y1="210" y2="330" /><line stroke="red" x1="800" x2="630" y1="210" y2="330" /><line stroke="red" x1="910" x2="737" y1="210" y2="330" /><line stroke="red" x1="970" x2="737" y1="210" y2="330" /><line stroke="red" x1="1050" x2="737" y1="210" y2="330" /><line stroke="red" x1="1130" x2="737" y1="210" y2="330" /><line stroke="red" x1="1200" x2="808" y1="210" y2="330" /><line stroke="red" x1="1280" x2="737" y1="210" y2="330" /><line stroke="red" x1="1360" x2="1039" y1="210" y2="330" /><line stroke="red" x1="1440" x2="1039" y1="210" y2="330" /><line stroke="red" x1="1510" x2="1110" y1="210" y2="330" /></svg>