<?xml version="1.0" encoding="utf-8" ?>
<svg baseProfile="full" height="500" version="1.1" width="1600" xmlns="http://www.w3.org/2000/svg" xmlns:ev="http://www.w3.org/2001/xml-events" xmlns:xlink="http://www.w3.org/1999/xlink"><defs /><text fill="black" x="0" y="100">VIETNAMESE </text><text fill="black" x="20" y="150">POS: </text><text fill="black" x="20" y="200">Source: </text><text fill="black" x="150" y="150">Nq</text><text fill="black" x="150" y="200">Một</text><text fill="black" x="230" y="150">Nn</text><text fill="black" x="230" y="200">khách</text><text fill="black" x="310" y="150">Vv</text><text fill="black" x="310" y="200">trọ</text><text fill="black" x="390" y="150">R</text><text fill="black" x="390" y="200">đã</text><text fill="black" x="470" y="150">Vv</text><text fill="black" x="470" y="200">hút</text><text fill="black" x="550" y="150">Nn</text><text fill="black" x="550" y="200">thuốc</text><text fill="black" x="630" y="150">Vv</text><text fill="black" x="630" y="200">làm</text><text fill="black" x="710" y="150">Vv</text><text fill="black" x="710" y="200">cháy</text><text fill="black" x="790" y="150">Aa</text><text fill="black" x="790" y="200">thủng</text><text fill="black" x="870" y="150">Nq</text><text fill="black" x="870" y="200">một</text><text fill="black" x="950" y="150">Nn</text><text fill="black" x="950" y="200">lỗ</text><text fill="black" x="1030" y="150">Cm</text><text fill="black" x="1030" y="200">trên</text><text fill="black" x="1110" y="150">Nc</text><text fill="black" x="1110" y="200">tấm</text><text fill="black" x="1190" y="150">Vv</text><text fill="black" x="1190" y="200">trải</text><text fill="black" x="1270" y="150">Nn</text><text fill="black" x="1270" y="200">giường</text><text fill="black" x="1350" y="150">PU</text><text fill="black" x="1350" y="200">.</text><text fill="black" x="0" y="450">ENGLISH </text><text fill="black" x="20" y="350">Target: </text><text fill="black" x="20" y="400">POS: </text><text fill="black" x="150" y="350">A</text><text fill="black" x="150" y="400">DT</text><text fill="black" x="230" y="350">guest</text><text fill="black" x="230" y="400">NN</text><text fill="black" x="310" y="350">burnt</text><text fill="black" x="310" y="400">VBD</text><text fill="black" x="390" y="350">a</text><text fill="black" x="390" y="400">DT</text><text fill="black" x="470" y="350">hole</text><text fill="black" x="470" y="400">NN</text><text fill="black" x="550" y="350">in</text><text fill="black" x="550" y="400">IN</text><text fill="black" x="630" y="350">the</text><text fill="black" x="630" y="400">DT</text><text fill="black" x="710" y="350">bed</text><text fill="black" x="710" y="400">NN</text><text fill="black" x="790" y="350">sheet</text><text fill="black" x="790" y="400">NN</text><text fill="black" x="870" y="350">with</text><text fill="black" x="870" y="400">IN</text><text fill="black" x="950" y="350">a</text><text fill="black" x="950" y="400">DT</text><text fill="black" x="1030" y="350">cigarette</text><text fill="black" x="1030" y="400">NN</text><text fill="black" x="1110" y="350">.</text><text fill="black" x="1110" y="400">.</text><line stroke="red" x1="160" x2="150" y1="210" y2="330" /><line stroke="red" x1="250" x2="248" y1="210" y2="330" /><line stroke="red" x1="320" x2="248" y1="210" y2="330" /><line stroke="red" x1="480" x2="1066" y1="210" y2="330" /><line stroke="red" x1="570" x2="1066" y1="210" y2="330" /><line stroke="red" x1="640" x2="328" y1="210" y2="330" /><line stroke="red" x1="730" x2="328" y1="210" y2="330" /><line stroke="red" x1="810" x2="488" y1="210" y2="330" /><line stroke="red" x1="880" x2="390" y1="210" y2="330" /><line stroke="red" x1="960" x2="488" y1="210" y2="330" /><line stroke="red" x1="1050" x2="488" y1="210" y2="330" /><line stroke="red" x1="1120" x2="808" y1="210" y2="330" /><line stroke="red" x1="1210" x2="808" y1="210" y2="330" /><line stroke="red" x1="1300" x2="719" y1="210" y2="330" /><line stroke="red" x1="1350" x2="1110" y1="210" y2="330" /></svg>