<?xml version="1.0" encoding="utf-8" ?>
<svg baseProfile="full" height="500" version="1.1" width="1400" xmlns="http://www.w3.org/2000/svg" xmlns:ev="http://www.w3.org/2001/xml-events" xmlns:xlink="http://www.w3.org/1999/xlink"><defs /><text fill="black" x="0" y="100">VIETNAMESE </text><text fill="black" x="20" y="150">POS: </text><text fill="black" x="20" y="200">Source: </text><text fill="black" x="150" y="150">Nq</text><text fill="black" x="150" y="200">Một</text><text fill="black" x="230" y="150">Nc</text><text fill="black" x="230" y="200">người</text><text fill="black" x="310" y="150">Nn</text><text fill="black" x="310" y="200">khách</text><text fill="black" x="390" y="150">Vd</text><text fill="black" x="390" y="200">đến</text><text fill="black" x="470" y="150">Vv</text><text fill="black" x="470" y="200">thăm</text><text fill="black" x="550" y="150">Nn</text><text fill="black" x="550" y="200">ông</text><text fill="black" x="630" y="150">Nr</text><text fill="black" x="630" y="200">Brown</text><text fill="black" x="710" y="150">Vd</text><text fill="black" x="710" y="200">đến</text><text fill="black" x="790" y="150">Cm</text><text fill="black" x="790" y="200">từ</text><text fill="black" x="870" y="150">Nr</text><text fill="black" x="870" y="200">Mỹ</text><text fill="black" x="950" y="150">PU</text><text fill="black" x="950" y="200">.</text><text fill="black" x="0" y="450">ENGLISH </text><text fill="black" x="20" y="350">Target: </text><text fill="black" x="20" y="400">POS: </text><text fill="black" x="150" y="350">A</text><text fill="black" x="150" y="400">DT</text><text fill="black" x="230" y="350">guest</text><text fill="black" x="230" y="400">NN</text><text fill="black" x="310" y="350">has</text><text fill="black" x="310" y="400">VBZ</text><text fill="black" x="390" y="350">come</text><text fill="black" x="390" y="400">VBN</text><text fill="black" x="470" y="350">to</text><text fill="black" x="470" y="400">TO</text><text fill="black" x="550" y="350">see</text><text fill="black" x="550" y="400">VB</text><text fill="black" x="630" y="350">Mr</text><text fill="black" x="630" y="400">NNP</text><text fill="black" x="710" y="350">.</text><text fill="black" x="710" y="400">.</text><text fill="black" x="790" y="350">Brown</text><text fill="black" x="790" y="400">NNP</text><text fill="black" x="870" y="350">from</text><text fill="black" x="870" y="400">IN</text><text fill="black" x="950" y="350">the</text><text fill="black" x="950" y="400">DT</text><text fill="black" x="1030" y="350">United</text><text fill="black" x="1030" y="400">NNP</text><text fill="black" x="1110" y="350">States</text><text fill="black" x="1110" y="400">NNPS</text><text fill="black" x="1190" y="350">.</text><text fill="black" x="1190" y="400">.</text><line stroke="red" x1="160" x2="150" y1="210" y2="330" /><line stroke="red" x1="250" x2="248" y1="210" y2="330" /><line stroke="red" x1="330" x2="248" y1="210" y2="330" /><line stroke="red" x1="400" x2="408" y1="210" y2="330" /><line stroke="red" x1="490" x2="559" y1="210" y2="330" /><line stroke="red" x1="560" x2="633" y1="210" y2="330" /><line stroke="red" x1="650" x2="808" y1="210" y2="330" /><line stroke="red" x1="800" x2="888" y1="210" y2="330" /><line stroke="red" x1="880" x2="1137" y1="210" y2="330" /><line stroke="red" x1="950" x2="1190" y1="210" y2="330" /></svg>