<?xml version="1.0" encoding="utf-8" ?>
<svg baseProfile="full" height="500" version="1.1" width="1300" xmlns="http://www.w3.org/2000/svg" xmlns:ev="http://www.w3.org/2001/xml-events" xmlns:xlink="http://www.w3.org/1999/xlink"><defs /><text fill="black" x="0" y="100">VIETNAMESE </text><text fill="black" x="20" y="150">POS: </text><text fill="black" x="20" y="200">Source: </text><text fill="black" x="150" y="150">Nq</text><text fill="black" x="150" y="200">Một</text><text fill="black" x="230" y="150">Nn</text><text fill="black" x="230" y="200">khách</text><text fill="black" x="310" y="150">Vv</text><text fill="black" x="310" y="200">trọ</text><text fill="black" x="390" y="150">R</text><text fill="black" x="390" y="200">đã</text><text fill="black" x="470" y="150">Vv</text><text fill="black" x="470" y="200">trượt</text><text fill="black" x="550" y="150">Nn</text><text fill="black" x="550" y="200">chân</text><text fill="black" x="630" y="150">Vv</text><text fill="black" x="630" y="200">ngã</text><text fill="black" x="710" y="150">Cm</text><text fill="black" x="710" y="200">trên</text><text fill="black" x="790" y="150">Nn</text><text fill="black" x="790" y="200">nước</text><text fill="black" x="870" y="150">Cm</text><text fill="black" x="870" y="200">trong</text><text fill="black" x="950" y="150">Nn</text><text fill="black" x="950" y="200">phòng</text><text fill="black" x="1030" y="150">Vv</text><text fill="black" x="1030" y="200">tắm</text><text fill="black" x="1110" y="150">PU</text><text fill="black" x="1110" y="200">.</text><text fill="black" x="0" y="450">ENGLISH </text><text fill="black" x="20" y="350">Target: </text><text fill="black" x="20" y="400">POS: </text><text fill="black" x="150" y="350">A</text><text fill="black" x="150" y="400">DT</text><text fill="black" x="230" y="350">guest</text><text fill="black" x="230" y="400">NN</text><text fill="black" x="310" y="350">slipped</text><text fill="black" x="310" y="400">VBD</text><text fill="black" x="390" y="350">in</text><text fill="black" x="390" y="400">IN</text><text fill="black" x="470" y="350">some</text><text fill="black" x="470" y="400">DT</text><text fill="black" x="550" y="350">water</text><text fill="black" x="550" y="400">NN</text><text fill="black" x="630" y="350">in</text><text fill="black" x="630" y="400">IN</text><text fill="black" x="710" y="350">the</text><text fill="black" x="710" y="400">DT</text><text fill="black" x="790" y="350">bathroom</text><text fill="black" x="790" y="400">NN</text><text fill="black" x="870" y="350">.</text><text fill="black" x="870" y="400">.</text><line stroke="red" x1="160" x2="150" y1="210" y2="330" /><line stroke="red" x1="250" x2="248" y1="210" y2="330" /><line stroke="red" x1="320" x2="248" y1="210" y2="330" /><line stroke="red" x1="490" x2="337" y1="210" y2="330" /><line stroke="red" x1="570" x2="337" y1="210" y2="330" /><line stroke="red" x1="640" x2="337" y1="210" y2="330" /><line stroke="red" x1="730" x2="337" y1="210" y2="330" /><line stroke="red" x1="810" x2="568" y1="210" y2="330" /><line stroke="red" x1="890" x2="633" y1="210" y2="330" /><line stroke="red" x1="970" x2="826" y1="210" y2="330" /><line stroke="red" x1="1040" x2="826" y1="210" y2="330" /><line stroke="red" x1="1110" x2="870" y1="210" y2="330" /></svg>