<?xml version="1.0" encoding="utf-8" ?>
<svg baseProfile="full" height="500" version="1.1" width="1900" xmlns="http://www.w3.org/2000/svg" xmlns:ev="http://www.w3.org/2001/xml-events" xmlns:xlink="http://www.w3.org/1999/xlink"><defs /><text fill="black" x="0" y="100">VIETNAMESE </text><text fill="black" x="20" y="150">POS: </text><text fill="black" x="20" y="200">Source: </text><text fill="black" x="150" y="150">Nq</text><text fill="black" x="150" y="200">Một</text><text fill="black" x="230" y="150">Nn</text><text fill="black" x="230" y="200">khách</text><text fill="black" x="310" y="150">Vv</text><text fill="black" x="310" y="200">trọ</text><text fill="black" x="390" y="150">Vv</text><text fill="black" x="390" y="200">muốn</text><text fill="black" x="470" y="150">Vv</text><text fill="black" x="470" y="200">nhờ</text><text fill="black" x="550" y="150">Vv</text><text fill="black" x="550" y="200">giặt</text><text fill="black" x="630" y="150">Nc</text><text fill="black" x="630" y="200">cái</text><text fill="black" x="710" y="150">Nn</text><text fill="black" x="710" y="200">áo</text><text fill="black" x="790" y="150">Vv</text><text fill="black" x="790" y="200">vét</text><text fill="black" x="870" y="150">Cp</text><text fill="black" x="870" y="200">và</text><text fill="black" x="950" y="150">Nc</text><text fill="black" x="950" y="200">cái</text><text fill="black" x="1030" y="150">Nn</text><text fill="black" x="1030" y="200">áo</text><text fill="black" x="1110" y="150">Nn</text><text fill="black" x="1110" y="200">kiểu</text><text fill="black" x="1190" y="150">Cm</text><text fill="black" x="1190" y="200">bằng</text><text fill="black" x="1270" y="150">Nn</text><text fill="black" x="1270" y="200">lụa</text><text fill="black" x="1350" y="150">Cm</text><text fill="black" x="1350" y="200">của</text><text fill="black" x="1430" y="150">Nn</text><text fill="black" x="1430" y="200">bà</text><text fill="black" x="1510" y="150">Pd</text><text fill="black" x="1510" y="200">ấy</text><text fill="black" x="1590" y="150">PU</text><text fill="black" x="1590" y="200">.</text><text fill="black" x="0" y="450">ENGLISH </text><text fill="black" x="20" y="350">Target: </text><text fill="black" x="20" y="400">POS: </text><text fill="black" x="150" y="350">A</text><text fill="black" x="150" y="400">DT</text><text fill="black" x="230" y="350">guest</text><text fill="black" x="230" y="400">NN</text><text fill="black" x="310" y="350">wants</text><text fill="black" x="310" y="400">VBZ</text><text fill="black" x="390" y="350">to</text><text fill="black" x="390" y="400">TO</text><text fill="black" x="470" y="350">have</text><text fill="black" x="470" y="400">VB</text><text fill="black" x="550" y="350">her</text><text fill="black" x="550" y="400">PRP$</text><text fill="black" x="630" y="350">jacket</text><text fill="black" x="630" y="400">NN</text><text fill="black" x="710" y="350">and</text><text fill="black" x="710" y="400">CC</text><text fill="black" x="790" y="350">a</text><text fill="black" x="790" y="400">DT</text><text fill="black" x="870" y="350">silk</text><text fill="black" x="870" y="400">NN</text><text fill="black" x="950" y="350">blouse</text><text fill="black" x="950" y="400">NN</text><text fill="black" x="1030" y="350">cleaned</text><text fill="black" x="1030" y="400">VBD</text><text fill="black" x="1110" y="350">.</text><text fill="black" x="1110" y="400">.</text><line stroke="red" x1="160" x2="150" y1="210" y2="330" /><line stroke="red" x1="250" x2="248" y1="210" y2="330" /><line stroke="red" x1="320" x2="248" y1="210" y2="330" /><line stroke="red" x1="410" x2="328" y1="210" y2="330" /><line stroke="red" x1="480" x2="1057" y1="210" y2="330" /><line stroke="red" x1="570" x2="1057" y1="210" y2="330" /><line stroke="red" x1="640" x2="657" y1="210" y2="330" /><line stroke="red" x1="720" x2="657" y1="210" y2="330" /><line stroke="red" x1="800" x2="657" y1="210" y2="330" /><line stroke="red" x1="880" x2="719" y1="210" y2="330" /><line stroke="red" x1="960" x2="657" y1="210" y2="330" /><line stroke="red" x1="1040" x2="977" y1="210" y2="330" /><line stroke="red" x1="1130" x2="977" y1="210" y2="330" /><line stroke="red" x1="1210" x2="888" y1="210" y2="330" /><line stroke="red" x1="1280" x2="888" y1="210" y2="330" /><line stroke="red" x1="1440" x2="559" y1="210" y2="330" /><line stroke="red" x1="1520" x2="559" y1="210" y2="330" /><line stroke="red" x1="1590" x2="1110" y1="210" y2="330" /></svg>