<?xml version="1.0" encoding="utf-8" ?>
<svg baseProfile="full" height="500" version="1.1" width="1400" xmlns="http://www.w3.org/2000/svg" xmlns:ev="http://www.w3.org/2001/xml-events" xmlns:xlink="http://www.w3.org/1999/xlink"><defs /><text fill="black" x="0" y="100">VIETNAMESE </text><text fill="black" x="20" y="150">POS: </text><text fill="black" x="20" y="200">Source: </text><text fill="black" x="150" y="150">Nq</text><text fill="black" x="150" y="200">Một</text><text fill="black" x="230" y="150">Nc</text><text fill="black" x="230" y="200">người</text><text fill="black" x="310" y="150">Nn</text><text fill="black" x="310" y="200">khách</text><text fill="black" x="390" y="150">R</text><text fill="black" x="390" y="200">đang</text><text fill="black" x="470" y="150">Vv</text><text fill="black" x="470" y="200">gọi</text><text fill="black" x="550" y="150">Nn</text><text fill="black" x="550" y="200">điện</text><text fill="black" x="630" y="150">Cp</text><text fill="black" x="630" y="200">cho</text><text fill="black" x="710" y="150">Nn</text><text fill="black" x="710" y="200">quán</text><text fill="black" x="790" y="150">Vv</text><text fill="black" x="790" y="200">ăn</text><text fill="black" x="870" y="150">Nr</text><text fill="black" x="870" y="200">Lệ_Đô</text><text fill="black" x="950" y="150">Cm</text><text fill="black" x="950" y="200">để</text><text fill="black" x="1030" y="150">Vv</text><text fill="black" x="1030" y="200">đặt</text><text fill="black" x="1110" y="150">Nn</text><text fill="black" x="1110" y="200">bàn</text><text fill="black" x="1190" y="150">PU</text><text fill="black" x="1190" y="200">.</text><text fill="black" x="0" y="450">ENGLISH </text><text fill="black" x="20" y="350">Target: </text><text fill="black" x="20" y="400">POS: </text><text fill="black" x="150" y="350">A</text><text fill="black" x="150" y="400">DT</text><text fill="black" x="230" y="350">guest</text><text fill="black" x="230" y="400">NN</text><text fill="black" x="310" y="350">is</text><text fill="black" x="310" y="400">VBZ</text><text fill="black" x="390" y="350">calling</text><text fill="black" x="390" y="400">VBG</text><text fill="black" x="470" y="350">Lido</text><text fill="black" x="470" y="400">NNP</text><text fill="black" x="550" y="350">Holiday</text><text fill="black" x="550" y="400">NNP</text><text fill="black" x="630" y="350">Inn</text><text fill="black" x="630" y="400">NNP</text><text fill="black" x="710" y="350">for</text><text fill="black" x="710" y="400">IN</text><text fill="black" x="790" y="350">booking</text><text fill="black" x="790" y="400">VBG</text><text fill="black" x="870" y="350">a</text><text fill="black" x="870" y="400">DT</text><text fill="black" x="950" y="350">table</text><text fill="black" x="950" y="400">NN</text><text fill="black" x="1030" y="350">.</text><text fill="black" x="1030" y="400">.</text><line stroke="red" x1="160" x2="150" y1="210" y2="330" /><line stroke="red" x1="250" x2="248" y1="210" y2="330" /><line stroke="red" x1="330" x2="248" y1="210" y2="330" /><line stroke="red" x1="410" x2="417" y1="210" y2="330" /><line stroke="red" x1="480" x2="417" y1="210" y2="330" /><line stroke="red" x1="570" x2="488" y1="210" y2="330" /><line stroke="red" x1="730" x2="488" y1="210" y2="330" /><line stroke="red" x1="800" x2="639" y1="210" y2="330" /><line stroke="red" x1="890" x2="639" y1="210" y2="330" /><line stroke="red" x1="960" x2="639" y1="210" y2="330" /><line stroke="red" x1="1040" x2="639" y1="210" y2="330" /><line stroke="red" x1="1120" x2="968" y1="210" y2="330" /><line stroke="red" x1="1190" x2="1030" y1="210" y2="330" /></svg>