<?xml version="1.0" encoding="utf-8" ?>
<svg baseProfile="full" height="500" version="1.1" width="1200" xmlns="http://www.w3.org/2000/svg" xmlns:ev="http://www.w3.org/2001/xml-events" xmlns:xlink="http://www.w3.org/1999/xlink"><defs /><text fill="black" x="0" y="100">VIETNAMESE </text><text fill="black" x="20" y="150">POS: </text><text fill="black" x="20" y="200">Source: </text><text fill="black" x="150" y="150">Nq</text><text fill="black" x="150" y="200">Một</text><text fill="black" x="230" y="150">Nn</text><text fill="black" x="230" y="200">luồng</text><text fill="black" x="310" y="150">Nn</text><text fill="black" x="310" y="200">gió</text><text fill="black" x="390" y="150">Aa</text><text fill="black" x="390" y="200">mạnh</text><text fill="black" x="470" y="150">Vv</text><text fill="black" x="470" y="200">thổi</text><text fill="black" x="550" y="150">Nn</text><text fill="black" x="550" y="200">cánh</text><text fill="black" x="630" y="150">Nn</text><text fill="black" x="630" y="200">cửa</text><text fill="black" x="710" y="150">Vd</text><text fill="black" x="710" y="200">ra_vào</text><text fill="black" x="790" y="150">Vv</text><text fill="black" x="790" y="200">đóng</text><text fill="black" x="870" y="150">Aa</text><text fill="black" x="870" y="200">sầm</text><text fill="black" x="950" y="150">R</text><text fill="black" x="950" y="200">lại</text><text fill="black" x="1030" y="150">PU</text><text fill="black" x="1030" y="200">.</text><text fill="black" x="0" y="450">ENGLISH </text><text fill="black" x="20" y="350">Target: </text><text fill="black" x="20" y="400">POS: </text><text fill="black" x="150" y="350">A</text><text fill="black" x="150" y="400">DT</text><text fill="black" x="230" y="350">gust</text><text fill="black" x="230" y="400">NN</text><text fill="black" x="310" y="350">of</text><text fill="black" x="310" y="400">IN</text><text fill="black" x="390" y="350">wind</text><text fill="black" x="390" y="400">NN</text><text fill="black" x="470" y="350">blew</text><text fill="black" x="470" y="400">VBD</text><text fill="black" x="550" y="350">the</text><text fill="black" x="550" y="400">DT</text><text fill="black" x="630" y="350">door</text><text fill="black" x="630" y="400">NN</text><text fill="black" x="710" y="350">shut</text><text fill="black" x="710" y="400">VBD</text><text fill="black" x="790" y="350">.</text><text fill="black" x="790" y="400">.</text><line stroke="red" x1="160" x2="150" y1="210" y2="330" /><line stroke="red" x1="250" x2="248" y1="210" y2="330" /><line stroke="red" x1="320" x2="408" y1="210" y2="330" /><line stroke="red" x1="410" x2="488" y1="210" y2="330" /><line stroke="red" x1="490" x2="488" y1="210" y2="330" /><line stroke="red" x1="570" x2="648" y1="210" y2="330" /><line stroke="red" x1="640" x2="648" y1="210" y2="330" /><line stroke="red" x1="740" x2="648" y1="210" y2="330" /><line stroke="red" x1="810" x2="728" y1="210" y2="330" /><line stroke="red" x1="880" x2="728" y1="210" y2="330" /><line stroke="red" x1="960" x2="728" y1="210" y2="330" /><line stroke="red" x1="1030" x2="790" y1="210" y2="330" /></svg>