<?xml version="1.0" encoding="utf-8" ?>
<svg baseProfile="full" height="500" version="1.1" width="1000" xmlns="http://www.w3.org/2000/svg" xmlns:ev="http://www.w3.org/2001/xml-events" xmlns:xlink="http://www.w3.org/1999/xlink"><defs /><text fill="black" x="0" y="100">VIETNAMESE </text><text fill="black" x="20" y="150">POS: </text><text fill="black" x="20" y="200">Source: </text><text fill="black" x="150" y="150">Nn</text><text fill="black" x="150" y="200">Hướng_dẫn_viên</text><text fill="black" x="230" y="150">Vv</text><text fill="black" x="230" y="200">đưa</text><text fill="black" x="310" y="150">Nn</text><text fill="black" x="310" y="200">khách</text><text fill="black" x="390" y="150">Vv</text><text fill="black" x="390" y="200">đi</text><text fill="black" x="470" y="150">Vv</text><text fill="black" x="470" y="200">tham_quan</text><text fill="black" x="550" y="150">Aa</text><text fill="black" x="550" y="200">khắp</text><text fill="black" x="630" y="150">Nn</text><text fill="black" x="630" y="200">viện</text><text fill="black" x="710" y="150">Vv</text><text fill="black" x="710" y="200">bào</text><text fill="black" x="790" y="150">Aa</text><text fill="black" x="790" y="200">tàng</text><text fill="black" x="870" y="150">PU</text><text fill="black" x="870" y="200">.</text><text fill="black" x="0" y="450">ENGLISH </text><text fill="black" x="20" y="350">Target: </text><text fill="black" x="20" y="400">POS: </text><text fill="black" x="150" y="350">A</text><text fill="black" x="150" y="400">DT</text><text fill="black" x="230" y="350">guide</text><text fill="black" x="230" y="400">NN</text><text fill="black" x="310" y="350">conducted</text><text fill="black" x="310" y="400">VBD</text><text fill="black" x="390" y="350">the</text><text fill="black" x="390" y="400">DT</text><text fill="black" x="470" y="350">visitors</text><text fill="black" x="470" y="400">NNS</text><text fill="black" x="550" y="350">round</text><text fill="black" x="550" y="400">VBP</text><text fill="black" x="630" y="350">the</text><text fill="black" x="630" y="400">DT</text><text fill="black" x="710" y="350">museum</text><text fill="black" x="710" y="400">NN</text><text fill="black" x="790" y="350">.</text><text fill="black" x="790" y="400">.</text><line stroke="red" x1="220" x2="248" y1="210" y2="330" /><line stroke="red" x1="240" x2="346" y1="210" y2="330" /><line stroke="red" x1="330" x2="506" y1="210" y2="330" /><line stroke="red" x1="400" x2="346" y1="210" y2="330" /><line stroke="red" x1="510" x2="346" y1="210" y2="330" /><line stroke="red" x1="570" x2="346" y1="210" y2="330" /><line stroke="red" x1="650" x2="346" y1="210" y2="330" /><line stroke="red" x1="720" x2="346" y1="210" y2="330" /><line stroke="red" x1="810" x2="346" y1="210" y2="330" /><line stroke="red" x1="870" x2="790" y1="210" y2="330" /></svg>