<?xml version="1.0" encoding="utf-8" ?>
<svg baseProfile="full" height="500" version="1.1" width="1100" xmlns="http://www.w3.org/2000/svg" xmlns:ev="http://www.w3.org/2001/xml-events" xmlns:xlink="http://www.w3.org/1999/xlink"><defs /><text fill="black" x="0" y="100">VIETNAMESE </text><text fill="black" x="20" y="150">POS: </text><text fill="black" x="20" y="200">Source: </text><text fill="black" x="150" y="150">Nn</text><text fill="black" x="150" y="200">Máu</text><text fill="black" x="230" y="150">Cm</text><text fill="black" x="230" y="200">của</text><text fill="black" x="310" y="150">Nn</text><text fill="black" x="310" y="200">người</text><text fill="black" x="390" y="150">Ve</text><text fill="black" x="390" y="200">có</text><text fill="black" x="470" y="150">Nn</text><text fill="black" x="470" y="200">hội_chứng</text><text fill="black" x="550" y="150">Vv</text><text fill="black" x="550" y="200">xuất_huyết</text><text fill="black" x="630" y="150">R</text><text fill="black" x="630" y="200">không</text><text fill="black" x="710" y="150">Aa</text><text fill="black" x="710" y="200">đông</text><text fill="black" x="790" y="150">R</text><text fill="black" x="790" y="200">lại</text><text fill="black" x="870" y="150">Aa</text><text fill="black" x="870" y="200">bình_thường</text><text fill="black" x="950" y="150">PU</text><text fill="black" x="950" y="200">.</text><text fill="black" x="0" y="450">ENGLISH </text><text fill="black" x="20" y="350">Target: </text><text fill="black" x="20" y="400">POS: </text><text fill="black" x="150" y="350">A</text><text fill="black" x="150" y="400">DT</text><text fill="black" x="230" y="350">haemophiliac</text><text fill="black" x="230" y="400">NN</text><text fill="black" x="310" y="350">'s</text><text fill="black" x="310" y="400">POS</text><text fill="black" x="390" y="350">blood</text><text fill="black" x="390" y="400">NN</text><text fill="black" x="470" y="350">will</text><text fill="black" x="470" y="400">MD</text><text fill="black" x="550" y="350">not</text><text fill="black" x="550" y="400">RB</text><text fill="black" x="630" y="350">clot</text><text fill="black" x="630" y="400">VB</text><text fill="black" x="710" y="350">properly</text><text fill="black" x="710" y="400">RB</text><text fill="black" x="790" y="350">.</text><text fill="black" x="790" y="400">.</text><line stroke="red" x1="160" x2="284" y1="210" y2="330" /><line stroke="red" x1="330" x2="284" y1="210" y2="330" /><line stroke="red" x1="400" x2="284" y1="210" y2="330" /><line stroke="red" x1="510" x2="284" y1="210" y2="330" /><line stroke="red" x1="600" x2="284" y1="210" y2="330" /><line stroke="red" x1="650" x2="559" y1="210" y2="330" /><line stroke="red" x1="730" x2="648" y1="210" y2="330" /><line stroke="red" x1="800" x2="648" y1="210" y2="330" /><line stroke="red" x1="920" x2="648" y1="210" y2="330" /><line stroke="red" x1="950" x2="790" y1="210" y2="330" /></svg>