<?xml version="1.0" encoding="utf-8" ?>
<svg baseProfile="full" height="500" version="1.1" width="1200" xmlns="http://www.w3.org/2000/svg" xmlns:ev="http://www.w3.org/2001/xml-events" xmlns:xlink="http://www.w3.org/1999/xlink"><defs /><text fill="black" x="0" y="100">VIETNAMESE </text><text fill="black" x="20" y="150">POS: </text><text fill="black" x="20" y="200">Source: </text><text fill="black" x="150" y="150">Vv</text><text fill="black" x="150" y="200">Xin</text><text fill="black" x="230" y="150">Cp</text><text fill="black" x="230" y="200">cho</text><text fill="black" x="310" y="150">Nq</text><text fill="black" x="310" y="200">một</text><text fill="black" x="390" y="150">Nn</text><text fill="black" x="390" y="200">hăm</text><text fill="black" x="470" y="150">PU</text><text fill="black" x="470" y="200">-</text><text fill="black" x="550" y="150">Nn</text><text fill="black" x="550" y="200">bơ</text><text fill="black" x="630" y="150">PU</text><text fill="black" x="630" y="200">-</text><text fill="black" x="710" y="150">Vv</text><text fill="black" x="710" y="200">gơ</text><text fill="black" x="790" y="150">Cp</text><text fill="black" x="790" y="200">và</text><text fill="black" x="870" y="150">Nn</text><text fill="black" x="870" y="200">khoai_tây</text><text fill="black" x="950" y="150">Vv</text><text fill="black" x="950" y="200">chiên</text><text fill="black" x="1030" y="150">PU</text><text fill="black" x="1030" y="200">.</text><text fill="black" x="0" y="450">ENGLISH </text><text fill="black" x="20" y="350">Target: </text><text fill="black" x="20" y="400">POS: </text><text fill="black" x="150" y="350">A</text><text fill="black" x="150" y="400">DT</text><text fill="black" x="230" y="350">hamburger</text><text fill="black" x="230" y="400">NN</text><text fill="black" x="310" y="350">and</text><text fill="black" x="310" y="400">CC</text><text fill="black" x="390" y="350">French</text><text fill="black" x="390" y="400">JJ</text><text fill="black" x="470" y="350">fries</text><text fill="black" x="470" y="400">NNS</text><text fill="black" x="550" y="350">,</text><text fill="black" x="550" y="400">,</text><text fill="black" x="630" y="350">please</text><text fill="black" x="630" y="400">VB</text><text fill="black" x="710" y="350">.</text><text fill="black" x="710" y="400">.</text><line stroke="red" x1="160" x2="266" y1="210" y2="330" /><line stroke="red" x1="240" x2="266" y1="210" y2="330" /><line stroke="red" x1="320" x2="266" y1="210" y2="330" /><line stroke="red" x1="400" x2="266" y1="210" y2="330" /><line stroke="red" x1="470" x2="266" y1="210" y2="330" /><line stroke="red" x1="560" x2="266" y1="210" y2="330" /><line stroke="red" x1="630" x2="266" y1="210" y2="330" /><line stroke="red" x1="720" x2="266" y1="210" y2="330" /><line stroke="red" x1="800" x2="319" y1="210" y2="330" /><line stroke="red" x1="910" x2="488" y1="210" y2="330" /><line stroke="red" x1="970" x2="488" y1="210" y2="330" /><line stroke="red" x1="1030" x2="710" y1="210" y2="330" /></svg>