<?xml version="1.0" encoding="utf-8" ?>
<svg baseProfile="full" height="500" version="1.1" width="900" xmlns="http://www.w3.org/2000/svg" xmlns:ev="http://www.w3.org/2001/xml-events" xmlns:xlink="http://www.w3.org/1999/xlink"><defs /><text fill="black" x="0" y="100">VIETNAMESE </text><text fill="black" x="20" y="150">POS: </text><text fill="black" x="20" y="200">Source: </text><text fill="black" x="150" y="150">Nq</text><text fill="black" x="150" y="200">Một</text><text fill="black" x="230" y="150">Nn</text><text fill="black" x="230" y="200">hội_trường</text><text fill="black" x="310" y="150">Vv</text><text fill="black" x="310" y="200">chứa</text><text fill="black" x="390" y="150">R</text><text fill="black" x="390" y="200">được</text><text fill="black" x="470" y="150">Nq</text><text fill="black" x="470" y="200">500</text><text fill="black" x="550" y="150">Nn</text><text fill="black" x="550" y="200">chỗ</text><text fill="black" x="630" y="150">Vv</text><text fill="black" x="630" y="200">ngồi</text><text fill="black" x="710" y="150">PU</text><text fill="black" x="710" y="200">.</text><text fill="black" x="0" y="450">ENGLISH </text><text fill="black" x="20" y="350">Target: </text><text fill="black" x="20" y="400">POS: </text><text fill="black" x="150" y="350">A</text><text fill="black" x="150" y="400">DT</text><text fill="black" x="230" y="350">hall</text><text fill="black" x="230" y="400">NN</text><text fill="black" x="310" y="350">with</text><text fill="black" x="310" y="400">IN</text><text fill="black" x="390" y="350">a</text><text fill="black" x="390" y="400">DT</text><text fill="black" x="470" y="350">seating</text><text fill="black" x="470" y="400">VBG</text><text fill="black" x="550" y="350">capacity</text><text fill="black" x="550" y="400">NN</text><text fill="black" x="630" y="350">of</text><text fill="black" x="630" y="400">IN</text><text fill="black" x="710" y="350">500</text><text fill="black" x="710" y="400">CD</text><text fill="black" x="790" y="350">.</text><text fill="black" x="790" y="400">.</text><line stroke="red" x1="160" x2="150" y1="210" y2="330" /><line stroke="red" x1="280" x2="248" y1="210" y2="330" /><line stroke="red" x1="330" x2="586" y1="210" y2="330" /><line stroke="red" x1="480" x2="719" y1="210" y2="330" /><line stroke="red" x1="560" x2="497" y1="210" y2="330" /><line stroke="red" x1="650" x2="497" y1="210" y2="330" /><line stroke="red" x1="710" x2="790" y1="210" y2="330" /></svg>