<?xml version="1.0" encoding="utf-8" ?>
<svg baseProfile="full" height="500" version="1.1" width="1900" xmlns="http://www.w3.org/2000/svg" xmlns:ev="http://www.w3.org/2001/xml-events" xmlns:xlink="http://www.w3.org/1999/xlink"><defs /><text fill="black" x="0" y="100">VIETNAMESE </text><text fill="black" x="20" y="150">POS: </text><text fill="black" x="20" y="200">Source: </text><text fill="black" x="150" y="150">Nn</text><text fill="black" x="150" y="200">Nhiệt_độ</text><text fill="black" x="230" y="150">Nq</text><text fill="black" x="230" y="200">một</text><text fill="black" x="310" y="150">Nn</text><text fill="black" x="310" y="200">cơ_thể</text><text fill="black" x="390" y="150">Aa</text><text fill="black" x="390" y="200">khoẻ_mạnh</text><text fill="black" x="470" y="150">Vc</text><text fill="black" x="470" y="200">là</text><text fill="black" x="550" y="150">Nq</text><text fill="black" x="550" y="200">98,4</text><text fill="black" x="630" y="150">Nu</text><text fill="black" x="630" y="200">độ</text><text fill="black" x="710" y="150">Nr</text><text fill="black" x="710" y="200">Fahrenheit</text><text fill="black" x="790" y="150">Cm</text><text fill="black" x="790" y="200">ở</text><text fill="black" x="870" y="150">Nr</text><text fill="black" x="870" y="200">Anh</text><text fill="black" x="950" y="150">Cp</text><text fill="black" x="950" y="200">và</text><text fill="black" x="1030" y="150">Nq</text><text fill="black" x="1030" y="200">98,6</text><text fill="black" x="1110" y="150">Nu</text><text fill="black" x="1110" y="200">độ</text><text fill="black" x="1190" y="150">Nr</text><text fill="black" x="1190" y="200">Fahrenheit</text><text fill="black" x="1270" y="150">Cm</text><text fill="black" x="1270" y="200">ở</text><text fill="black" x="1350" y="150">Nr</text><text fill="black" x="1350" y="200">Mỹ</text><text fill="black" x="1430" y="150">PU</text><text fill="black" x="1430" y="200">.</text><text fill="black" x="0" y="450">ENGLISH </text><text fill="black" x="20" y="350">Target: </text><text fill="black" x="20" y="400">POS: </text><text fill="black" x="150" y="350">A</text><text fill="black" x="150" y="400">DT</text><text fill="black" x="230" y="350">healthy</text><text fill="black" x="230" y="400">JJ</text><text fill="black" x="310" y="350">body</text><text fill="black" x="310" y="400">NN</text><text fill="black" x="390" y="350">temperature</text><text fill="black" x="390" y="400">NN</text><text fill="black" x="470" y="350">is</text><text fill="black" x="470" y="400">VBZ</text><text fill="black" x="550" y="350">98.4</text><text fill="black" x="550" y="400">CD</text><text fill="black" x="630" y="350">degrees</text><text fill="black" x="630" y="400">NNS</text><text fill="black" x="710" y="350">Fahrenheit</text><text fill="black" x="710" y="400">NN</text><text fill="black" x="790" y="350">in</text><text fill="black" x="790" y="400">IN</text><text fill="black" x="870" y="350">Britain</text><text fill="black" x="870" y="400">NNP</text><text fill="black" x="950" y="350">,</text><text fill="black" x="950" y="400">,</text><text fill="black" x="1030" y="350">and</text><text fill="black" x="1030" y="400">CC</text><text fill="black" x="1110" y="350">98.6</text><text fill="black" x="1110" y="400">CD</text><text fill="black" x="1190" y="350">degrees</text><text fill="black" x="1190" y="400">NNS</text><text fill="black" x="1270" y="350">Fahrenheit</text><text fill="black" x="1270" y="400">NN</text><text fill="black" x="1350" y="350">in</text><text fill="black" x="1350" y="400">IN</text><text fill="black" x="1430" y="350">the</text><text fill="black" x="1430" y="400">DT</text><text fill="black" x="1510" y="350">USA</text><text fill="black" x="1510" y="400">NN</text><text fill="black" x="1590" y="350">.</text><text fill="black" x="1590" y="400">.</text><line stroke="red" x1="190" x2="435" y1="210" y2="330" /><line stroke="red" x1="340" x2="328" y1="210" y2="330" /><line stroke="red" x1="430" x2="257" y1="210" y2="330" /><line stroke="red" x1="480" x2="473" y1="210" y2="330" /><line stroke="red" x1="570" x2="568" y1="210" y2="330" /><line stroke="red" x1="640" x2="657" y1="210" y2="330" /><line stroke="red" x1="760" x2="755" y1="210" y2="330" /><line stroke="red" x1="790" x2="793" y1="210" y2="330" /><line stroke="red" x1="880" x2="897" y1="210" y2="330" /><line stroke="red" x1="960" x2="1039" y1="210" y2="330" /><line stroke="red" x1="1050" x2="1128" y1="210" y2="330" /><line stroke="red" x1="1120" x2="1217" y1="210" y2="330" /><line stroke="red" x1="1240" x2="1315" y1="210" y2="330" /><line stroke="red" x1="1270" x2="1353" y1="210" y2="330" /><line stroke="red" x1="1360" x2="1519" y1="210" y2="330" /><line stroke="red" x1="1430" x2="1590" y1="210" y2="330" /></svg>