<?xml version="1.0" encoding="utf-8" ?>
<svg baseProfile="full" height="500" version="1.1" width="800" xmlns="http://www.w3.org/2000/svg" xmlns:ev="http://www.w3.org/2001/xml-events" xmlns:xlink="http://www.w3.org/1999/xlink"><defs /><text fill="black" x="0" y="100">VIETNAMESE </text><text fill="black" x="20" y="150">POS: </text><text fill="black" x="20" y="200">Source: </text><text fill="black" x="150" y="150">Nn</text><text fill="black" x="150" y="200">Lông</text><text fill="black" x="230" y="150">Nc</text><text fill="black" x="230" y="200">con</text><text fill="black" x="310" y="150">Nn</text><text fill="black" x="310" y="200">nhím</text><text fill="black" x="390" y="150">Vv</text><text fill="black" x="390" y="200">chĩa</text><text fill="black" x="470" y="150">D</text><text fill="black" x="470" y="200">ra</text><text fill="black" x="550" y="150">Nn</text><text fill="black" x="550" y="200">phía</text><text fill="black" x="630" y="150">Nn</text><text fill="black" x="630" y="200">sau</text><text fill="black" x="710" y="150">PU</text><text fill="black" x="710" y="200">.</text><text fill="black" x="0" y="450">ENGLISH </text><text fill="black" x="20" y="350">Target: </text><text fill="black" x="20" y="400">POS: </text><text fill="black" x="150" y="350">A</text><text fill="black" x="150" y="400">DT</text><text fill="black" x="230" y="350">hedgehog</text><text fill="black" x="230" y="400">NN</text><text fill="black" x="310" y="350">'s</text><text fill="black" x="310" y="400">POS</text><text fill="black" x="390" y="350">spines</text><text fill="black" x="390" y="400">NNS</text><text fill="black" x="470" y="350">point</text><text fill="black" x="470" y="400">VBP</text><text fill="black" x="550" y="350">backwards</text><text fill="black" x="550" y="400">RB</text><text fill="black" x="630" y="350">.</text><text fill="black" x="630" y="400">.</text><line stroke="red" x1="170" x2="266" y1="210" y2="330" /><line stroke="red" x1="240" x2="266" y1="210" y2="330" /><line stroke="red" x1="330" x2="266" y1="210" y2="330" /><line stroke="red" x1="410" x2="417" y1="210" y2="330" /><line stroke="red" x1="480" x2="417" y1="210" y2="330" /><line stroke="red" x1="570" x2="586" y1="210" y2="330" /><line stroke="red" x1="640" x2="586" y1="210" y2="330" /><line stroke="red" x1="710" x2="630" y1="210" y2="330" /></svg>