<?xml version="1.0" encoding="utf-8" ?>
<svg baseProfile="full" height="500" version="1.1" width="1300" xmlns="http://www.w3.org/2000/svg" xmlns:ev="http://www.w3.org/2001/xml-events" xmlns:xlink="http://www.w3.org/1999/xlink"><defs /><text fill="black" x="0" y="100">VIETNAMESE </text><text fill="black" x="20" y="150">POS: </text><text fill="black" x="20" y="200">Source: </text><text fill="black" x="150" y="150">Nq</text><text fill="black" x="150" y="200">Một</text><text fill="black" x="230" y="150">Nn</text><text fill="black" x="230" y="200">bờ_rào</text><text fill="black" x="310" y="150">Vv</text><text fill="black" x="310" y="200">ngăn</text><text fill="black" x="390" y="150">Vv</text><text fill="black" x="390" y="200">chia</text><text fill="black" x="470" y="150">Cm</text><text fill="black" x="470" y="200">giữa</text><text fill="black" x="550" y="150">Nn</text><text fill="black" x="550" y="200">đất</text><text fill="black" x="630" y="150">Cm</text><text fill="black" x="630" y="200">của</text><text fill="black" x="710" y="150">Nn</text><text fill="black" x="710" y="200">cô</text><text fill="black" x="790" y="150">Pp</text><text fill="black" x="790" y="200">ta</text><text fill="black" x="870" y="150">Cp</text><text fill="black" x="870" y="200">và</text><text fill="black" x="950" y="150">Cm</text><text fill="black" x="950" y="200">của</text><text fill="black" x="1030" y="150">Pp</text><text fill="black" x="1030" y="200">tôi</text><text fill="black" x="1110" y="150">PU</text><text fill="black" x="1110" y="200">.</text><text fill="black" x="0" y="450">ENGLISH </text><text fill="black" x="20" y="350">Target: </text><text fill="black" x="20" y="400">POS: </text><text fill="black" x="150" y="350">A</text><text fill="black" x="150" y="400">DT</text><text fill="black" x="230" y="350">hedge</text><text fill="black" x="230" y="400">NN</text><text fill="black" x="310" y="350">forms</text><text fill="black" x="310" y="400">VBZ</text><text fill="black" x="390" y="350">the</text><text fill="black" x="390" y="400">DT</text><text fill="black" x="470" y="350">division</text><text fill="black" x="470" y="400">NN</text><text fill="black" x="550" y="350">between</text><text fill="black" x="550" y="400">IN</text><text fill="black" x="630" y="350">her</text><text fill="black" x="630" y="400">PRP$</text><text fill="black" x="710" y="350">land</text><text fill="black" x="710" y="400">NN</text><text fill="black" x="790" y="350">and</text><text fill="black" x="790" y="400">CC</text><text fill="black" x="870" y="350">mine</text><text fill="black" x="870" y="400">NN</text><text fill="black" x="950" y="350">.</text><text fill="black" x="950" y="400">.</text><line stroke="red" x1="160" x2="150" y1="210" y2="330" /><line stroke="red" x1="260" x2="248" y1="210" y2="330" /><line stroke="red" x1="330" x2="248" y1="210" y2="330" /><line stroke="red" x1="410" x2="506" y1="210" y2="330" /><line stroke="red" x1="490" x2="577" y1="210" y2="330" /><line stroke="red" x1="560" x2="728" y1="210" y2="330" /><line stroke="red" x1="720" x2="639" y1="210" y2="330" /><line stroke="red" x1="800" x2="639" y1="210" y2="330" /><line stroke="red" x1="880" x2="799" y1="210" y2="330" /><line stroke="red" x1="1040" x2="888" y1="210" y2="330" /><line stroke="red" x1="1110" x2="950" y1="210" y2="330" /></svg>