<?xml version="1.0" encoding="utf-8" ?>
<svg baseProfile="full" height="500" version="1.1" width="1500" xmlns="http://www.w3.org/2000/svg" xmlns:ev="http://www.w3.org/2001/xml-events" xmlns:xlink="http://www.w3.org/1999/xlink"><defs /><text fill="black" x="0" y="100">VIETNAMESE </text><text fill="black" x="20" y="150">POS: </text><text fill="black" x="20" y="200">Source: </text><text fill="black" x="150" y="150">Nq</text><text fill="black" x="150" y="200">Một</text><text fill="black" x="230" y="150">Nc</text><text fill="black" x="230" y="200">chiếc</text><text fill="black" x="310" y="150">Nn</text><text fill="black" x="310" y="200">xe_tải</text><text fill="black" x="390" y="150">Aa</text><text fill="black" x="390" y="200">nặng</text><text fill="black" x="470" y="150">R</text><text fill="black" x="470" y="200">đã</text><text fill="black" x="550" y="150">Vv</text><text fill="black" x="550" y="200">gãy</text><text fill="black" x="630" y="150">Vv</text><text fill="black" x="630" y="200">gập</text><text fill="black" x="710" y="150">Cm</text><text fill="black" x="710" y="200">trên</text><text fill="black" x="790" y="150">Nn</text><text fill="black" x="790" y="200">xa_lộ</text><text fill="black" x="870" y="150">PU</text><text fill="black" x="870" y="200">,</text><text fill="black" x="950" y="150">Vv</text><text fill="black" x="950" y="200">làm</text><text fill="black" x="1030" y="150">Vv</text><text fill="black" x="1030" y="200">tắc_nghẽn</text><text fill="black" x="1110" y="150">Nn</text><text fill="black" x="1110" y="200">giao_thông</text><text fill="black" x="1190" y="150">Aa</text><text fill="black" x="1190" y="200">lâu</text><text fill="black" x="1270" y="150">PU</text><text fill="black" x="1270" y="200">.</text><text fill="black" x="0" y="450">ENGLISH </text><text fill="black" x="20" y="350">Target: </text><text fill="black" x="20" y="400">POS: </text><text fill="black" x="150" y="350">A</text><text fill="black" x="150" y="400">DT</text><text fill="black" x="230" y="350">heavy</text><text fill="black" x="230" y="400">JJ</text><text fill="black" x="310" y="350">lorry</text><text fill="black" x="310" y="400">NN</text><text fill="black" x="390" y="350">has</text><text fill="black" x="390" y="400">VBZ</text><text fill="black" x="470" y="350">jackknifed</text><text fill="black" x="470" y="400">VBN</text><text fill="black" x="550" y="350">on</text><text fill="black" x="550" y="400">IN</text><text fill="black" x="630" y="350">the</text><text fill="black" x="630" y="400">DT</text><text fill="black" x="710" y="350">motorway</text><text fill="black" x="710" y="400">NN</text><text fill="black" x="790" y="350">,</text><text fill="black" x="790" y="400">,</text><text fill="black" x="870" y="350">causing</text><text fill="black" x="870" y="400">VBG</text><text fill="black" x="950" y="350">long</text><text fill="black" x="950" y="400">JJ</text><text fill="black" x="1030" y="350">delays</text><text fill="black" x="1030" y="400">NNS</text><text fill="black" x="1110" y="350">.</text><text fill="black" x="1110" y="400">.</text><line stroke="red" x1="160" x2="150" y1="210" y2="330" /><line stroke="red" x1="250" x2="328" y1="210" y2="330" /><line stroke="red" x1="340" x2="328" y1="210" y2="330" /><line stroke="red" x1="410" x2="248" y1="210" y2="330" /><line stroke="red" x1="480" x2="399" y1="210" y2="330" /><line stroke="red" x1="560" x2="515" y1="210" y2="330" /><line stroke="red" x1="640" x2="515" y1="210" y2="330" /><line stroke="red" x1="730" x2="553" y1="210" y2="330" /><line stroke="red" x1="810" x2="746" y1="210" y2="330" /><line stroke="red" x1="870" x2="790" y1="210" y2="330" /><line stroke="red" x1="960" x2="897" y1="210" y2="330" /><line stroke="red" x1="1070" x2="515" y1="210" y2="330" /><line stroke="red" x1="1160" x2="515" y1="210" y2="330" /><line stroke="red" x1="1200" x2="968" y1="210" y2="330" /><line stroke="red" x1="1270" x2="1110" y1="210" y2="330" /></svg>