<?xml version="1.0" encoding="utf-8" ?>
<svg baseProfile="full" height="500" version="1.1" width="1100" xmlns="http://www.w3.org/2000/svg" xmlns:ev="http://www.w3.org/2001/xml-events" xmlns:xlink="http://www.w3.org/1999/xlink"><defs /><text fill="black" x="0" y="100">VIETNAMESE </text><text fill="black" x="20" y="150">POS: </text><text fill="black" x="20" y="200">Source: </text><text fill="black" x="150" y="150">Nq</text><text fill="black" x="150" y="200">Một</text><text fill="black" x="230" y="150">Nn</text><text fill="black" x="230" y="200">hàng_rào</text><text fill="black" x="310" y="150">Aa</text><text fill="black" x="310" y="200">cao</text><text fill="black" x="390" y="150">Vv</text><text fill="black" x="390" y="200">bảo_vệ</text><text fill="black" x="470" y="150">Nc</text><text fill="black" x="470" y="200">ngôi</text><text fill="black" x="550" y="150">Nn</text><text fill="black" x="550" y="200">nhà</text><text fill="black" x="630" y="150">Vv</text><text fill="black" x="630" y="200">khỏi</text><text fill="black" x="710" y="150">Nq</text><text fill="black" x="710" y="200">những</text><text fill="black" x="790" y="150">Nn</text><text fill="black" x="790" y="200">kẻ</text><text fill="black" x="870" y="150">Vv</text><text fill="black" x="870" y="200">xâm_nhập</text><text fill="black" x="950" y="150">PU</text><text fill="black" x="950" y="200">.</text><text fill="black" x="0" y="450">ENGLISH </text><text fill="black" x="20" y="350">Target: </text><text fill="black" x="20" y="400">POS: </text><text fill="black" x="150" y="350">A</text><text fill="black" x="150" y="400">DT</text><text fill="black" x="230" y="350">high</text><text fill="black" x="230" y="400">JJ</text><text fill="black" x="310" y="350">fence</text><text fill="black" x="310" y="400">NN</text><text fill="black" x="390" y="350">that</text><text fill="black" x="390" y="400">WDT</text><text fill="black" x="470" y="350">safeguard</text><text fill="black" x="470" y="400">VBP</text><text fill="black" x="550" y="350">the</text><text fill="black" x="550" y="400">DT</text><text fill="black" x="630" y="350">house</text><text fill="black" x="630" y="400">NN</text><text fill="black" x="710" y="350">against</text><text fill="black" x="710" y="400">IN</text><text fill="black" x="790" y="350">intruders</text><text fill="black" x="790" y="400">NNS</text><text fill="black" x="870" y="350">.</text><text fill="black" x="870" y="400">.</text><line stroke="red" x1="160" x2="150" y1="210" y2="330" /><line stroke="red" x1="270" x2="328" y1="210" y2="330" /><line stroke="red" x1="320" x2="248" y1="210" y2="330" /><line stroke="red" x1="420" x2="506" y1="210" y2="330" /><line stroke="red" x1="490" x2="648" y1="210" y2="330" /><line stroke="red" x1="560" x2="648" y1="210" y2="330" /><line stroke="red" x1="650" x2="506" y1="210" y2="330" /><line stroke="red" x1="730" x2="826" y1="210" y2="330" /><line stroke="red" x1="800" x2="826" y1="210" y2="330" /><line stroke="red" x1="910" x2="826" y1="210" y2="330" /><line stroke="red" x1="950" x2="870" y1="210" y2="330" /></svg>