<?xml version="1.0" encoding="utf-8" ?>
<svg baseProfile="full" height="500" version="1.1" width="1600" xmlns="http://www.w3.org/2000/svg" xmlns:ev="http://www.w3.org/2001/xml-events" xmlns:xlink="http://www.w3.org/1999/xlink"><defs /><text fill="black" x="0" y="100">VIETNAMESE </text><text fill="black" x="20" y="150">POS: </text><text fill="black" x="20" y="200">Source: </text><text fill="black" x="150" y="150">Nn</text><text fill="black" x="150" y="200">Vùng</text><text fill="black" x="230" y="150">Vv</text><text fill="black" x="230" y="200">áp</text><text fill="black" x="310" y="150">Aa</text><text fill="black" x="310" y="200">cao</text><text fill="black" x="390" y="150">Aa</text><text fill="black" x="390" y="200">khắp</text><text fill="black" x="470" y="150">Nn</text><text fill="black" x="470" y="200">nam</text><text fill="black" x="550" y="150">Nn</text><text fill="black" x="550" y="200">châu</text><text fill="black" x="630" y="150">Nr</text><text fill="black" x="630" y="200">Âu</text><text fill="black" x="710" y="150">R</text><text fill="black" x="710" y="200">đã</text><text fill="black" x="790" y="150">Vv</text><text fill="black" x="790" y="200">tạo</text><text fill="black" x="870" y="150">Nn</text><text fill="black" x="870" y="200">thời_tiết</text><text fill="black" x="950" y="150">Aa</text><text fill="black" x="950" y="200">đẹp</text><text fill="black" x="1030" y="150">Aa</text><text fill="black" x="1030" y="200">ấm_áp</text><text fill="black" x="1110" y="150">Cp</text><text fill="black" x="1110" y="200">cho</text><text fill="black" x="1190" y="150">Nq</text><text fill="black" x="1190" y="200">mọi</text><text fill="black" x="1270" y="150">Nn</text><text fill="black" x="1270" y="200">miền</text><text fill="black" x="1350" y="150">PU</text><text fill="black" x="1350" y="200">.</text><text fill="black" x="0" y="450">ENGLISH </text><text fill="black" x="20" y="350">Target: </text><text fill="black" x="20" y="400">POS: </text><text fill="black" x="150" y="350">A</text><text fill="black" x="150" y="400">DT</text><text fill="black" x="230" y="350">high</text><text fill="black" x="230" y="400">JJ</text><text fill="black" x="310" y="350">over</text><text fill="black" x="310" y="400">IN</text><text fill="black" x="390" y="350">southern</text><text fill="black" x="390" y="400">JJ</text><text fill="black" x="470" y="350">Europe</text><text fill="black" x="470" y="400">NNP</text><text fill="black" x="550" y="350">is</text><text fill="black" x="550" y="400">VBZ</text><text fill="black" x="630" y="350">bringing</text><text fill="black" x="630" y="400">VBG</text><text fill="black" x="710" y="350">fine</text><text fill="black" x="710" y="400">JJ</text><text fill="black" x="790" y="350">sunny</text><text fill="black" x="790" y="400">JJ</text><text fill="black" x="870" y="350">weather</text><text fill="black" x="870" y="400">NN</text><text fill="black" x="950" y="350">to</text><text fill="black" x="950" y="400">TO</text><text fill="black" x="1030" y="350">all</text><text fill="black" x="1030" y="400">DT</text><text fill="black" x="1110" y="350">parts</text><text fill="black" x="1110" y="400">NNS</text><text fill="black" x="1190" y="350">.</text><text fill="black" x="1190" y="400">.</text><line stroke="red" x1="170" x2="426" y1="210" y2="330" /><line stroke="red" x1="240" x2="426" y1="210" y2="330" /><line stroke="red" x1="320" x2="248" y1="210" y2="330" /><line stroke="red" x1="410" x2="426" y1="210" y2="330" /><line stroke="red" x1="480" x2="426" y1="210" y2="330" /><line stroke="red" x1="570" x2="497" y1="210" y2="330" /><line stroke="red" x1="640" x2="497" y1="210" y2="330" /><line stroke="red" x1="800" x2="666" y1="210" y2="330" /><line stroke="red" x1="910" x2="897" y1="210" y2="330" /><line stroke="red" x1="960" x2="728" y1="210" y2="330" /><line stroke="red" x1="1050" x2="808" y1="210" y2="330" /><line stroke="red" x1="1200" x2="1039" y1="210" y2="330" /><line stroke="red" x1="1290" x2="1128" y1="210" y2="330" /><line stroke="red" x1="1350" x2="1190" y1="210" y2="330" /></svg>