<?xml version="1.0" encoding="utf-8" ?>
<svg baseProfile="full" height="500" version="1.1" width="1000" xmlns="http://www.w3.org/2000/svg" xmlns:ev="http://www.w3.org/2001/xml-events" xmlns:xlink="http://www.w3.org/1999/xlink"><defs /><text fill="black" x="0" y="100">VIETNAMESE </text><text fill="black" x="20" y="150">POS: </text><text fill="black" x="20" y="200">Source: </text><text fill="black" x="150" y="150">Nn</text><text fill="black" x="150" y="200">Mức_độ</text><text fill="black" x="230" y="150">Aa</text><text fill="black" x="230" y="200">dư_thừa</text><text fill="black" x="310" y="150">Aa</text><text fill="black" x="310" y="200">cao</text><text fill="black" x="390" y="150">Cm</text><text fill="black" x="390" y="200">ở</text><text fill="black" x="470" y="150">Nq</text><text fill="black" x="470" y="200">các</text><text fill="black" x="550" y="150">Nn</text><text fill="black" x="550" y="200">công_nhân</text><text fill="black" x="630" y="150">R</text><text fill="black" x="630" y="200">không</text><text fill="black" x="710" y="150">Ve</text><text fill="black" x="710" y="200">có</text><text fill="black" x="790" y="150">Nn</text><text fill="black" x="790" y="200">tay_nghề</text><text fill="black" x="870" y="150">PU</text><text fill="black" x="870" y="200">.</text><text fill="black" x="0" y="450">ENGLISH </text><text fill="black" x="20" y="350">Target: </text><text fill="black" x="20" y="400">POS: </text><text fill="black" x="150" y="350">A</text><text fill="black" x="150" y="400">DT</text><text fill="black" x="230" y="350">high</text><text fill="black" x="230" y="400">JJ</text><text fill="black" x="310" y="350">level</text><text fill="black" x="310" y="400">NN</text><text fill="black" x="390" y="350">of</text><text fill="black" x="390" y="400">IN</text><text fill="black" x="470" y="350">redundancy</text><text fill="black" x="470" y="400">NN</text><text fill="black" x="550" y="350">among</text><text fill="black" x="550" y="400">IN</text><text fill="black" x="630" y="350">unskilled</text><text fill="black" x="630" y="400">JJ</text><text fill="black" x="710" y="350">workers</text><text fill="black" x="710" y="400">NNS</text><text fill="black" x="790" y="350">.</text><text fill="black" x="790" y="400">.</text><line stroke="red" x1="180" x2="515" y1="210" y2="330" /><line stroke="red" x1="260" x2="515" y1="210" y2="330" /><line stroke="red" x1="320" x2="248" y1="210" y2="330" /><line stroke="red" x1="390" x2="568" y1="210" y2="330" /><line stroke="red" x1="480" x2="568" y1="210" y2="330" /><line stroke="red" x1="590" x2="737" y1="210" y2="330" /><line stroke="red" x1="650" x2="666" y1="210" y2="330" /><line stroke="red" x1="830" x2="666" y1="210" y2="330" /><line stroke="red" x1="870" x2="790" y1="210" y2="330" /></svg>