<?xml version="1.0" encoding="utf-8" ?>
<svg baseProfile="full" height="500" version="1.1" width="900" xmlns="http://www.w3.org/2000/svg" xmlns:ev="http://www.w3.org/2001/xml-events" xmlns:xlink="http://www.w3.org/1999/xlink"><defs /><text fill="black" x="0" y="100">VIETNAMESE </text><text fill="black" x="20" y="150">POS: </text><text fill="black" x="20" y="200">Source: </text><text fill="black" x="150" y="150">R</text><text fill="black" x="150" y="200">Không</text><text fill="black" x="230" y="150">Ve</text><text fill="black" x="230" y="200">có</text><text fill="black" x="310" y="150">Nn</text><text fill="black" x="310" y="200">ong_chúa</text><text fill="black" x="390" y="150">Cp</text><text fill="black" x="390" y="200">thì</text><text fill="black" x="470" y="150">R</text><text fill="black" x="470" y="200">không</text><text fill="black" x="550" y="150">Ve</text><text fill="black" x="550" y="200">có</text><text fill="black" x="630" y="150">Nn</text><text fill="black" x="630" y="200">tổ</text><text fill="black" x="710" y="150">Nn</text><text fill="black" x="710" y="200">ong</text><text fill="black" x="790" y="150">PU</text><text fill="black" x="790" y="200">.</text><text fill="black" x="0" y="450">ENGLISH </text><text fill="black" x="20" y="350">Target: </text><text fill="black" x="20" y="400">POS: </text><text fill="black" x="150" y="350">A</text><text fill="black" x="150" y="400">DT</text><text fill="black" x="230" y="350">hive</text><text fill="black" x="230" y="400">NN</text><text fill="black" x="310" y="350">cannot</text><text fill="black" x="310" y="400">-</text><text fill="black" x="390" y="350">exist</text><text fill="black" x="390" y="400">-</text><text fill="black" x="470" y="350">without</text><text fill="black" x="470" y="400">-</text><text fill="black" x="550" y="350">a</text><text fill="black" x="550" y="400">-</text><text fill="black" x="630" y="350">queen</text><text fill="black" x="630" y="400">-</text><text fill="black" x="710" y="350">.</text><text fill="black" x="710" y="400">-</text><line stroke="red" x1="170" x2="248" y1="210" y2="330" /><line stroke="red" x1="240" x2="248" y1="210" y2="330" /><line stroke="red" x1="350" x2="248" y1="210" y2="330" /><line stroke="red" x1="400" x2="248" y1="210" y2="330" /><line stroke="red" x1="490" x2="497" y1="210" y2="330" /><line stroke="red" x1="640" x2="248" y1="210" y2="330" /><line stroke="red" x1="720" x2="248" y1="210" y2="330" /><line stroke="red" x1="790" x2="710" y1="210" y2="330" /></svg>