<?xml version="1.0" encoding="utf-8" ?>
<svg baseProfile="full" height="500" version="1.1" width="1400" xmlns="http://www.w3.org/2000/svg" xmlns:ev="http://www.w3.org/2001/xml-events" xmlns:xlink="http://www.w3.org/1999/xlink"><defs /><text fill="black" x="0" y="100">VIETNAMESE </text><text fill="black" x="20" y="150">POS: </text><text fill="black" x="20" y="200">Source: </text><text fill="black" x="150" y="150">Nc</text><text fill="black" x="150" y="200">Ngôi</text><text fill="black" x="230" y="150">Nn</text><text fill="black" x="230" y="200">nhà</text><text fill="black" x="310" y="150">Vv</text><text fill="black" x="310" y="200">nghỉ_mát</text><text fill="black" x="390" y="150">Cp</text><text fill="black" x="390" y="200">thật_ra</text><text fill="black" x="470" y="150">R</text><text fill="black" x="470" y="200">chỉ</text><text fill="black" x="550" y="150">Vc</text><text fill="black" x="550" y="200">là</text><text fill="black" x="630" y="150">Nq</text><text fill="black" x="630" y="200">một</text><text fill="black" x="710" y="150">Nn</text><text fill="black" x="710" y="200">kho</text><text fill="black" x="790" y="150">Nn</text><text fill="black" x="790" y="200">thóc</text><text fill="black" x="870" y="150">Vv</text><text fill="black" x="870" y="200">được</text><text fill="black" x="950" y="150">Vv</text><text fill="black" x="950" y="200">cường_điệu</text><text fill="black" x="1030" y="150">D</text><text fill="black" x="1030" y="200">lên</text><text fill="black" x="1110" y="150">M</text><text fill="black" x="1110" y="200">thôi</text><text fill="black" x="1190" y="150">PU</text><text fill="black" x="1190" y="200">.</text><text fill="black" x="0" y="450">ENGLISH </text><text fill="black" x="20" y="350">Target: </text><text fill="black" x="20" y="400">POS: </text><text fill="black" x="150" y="350">A</text><text fill="black" x="150" y="400">DT</text><text fill="black" x="230" y="350">holiday</text><text fill="black" x="230" y="400">NN</text><text fill="black" x="310" y="350">cottage</text><text fill="black" x="310" y="400">NN</text><text fill="black" x="390" y="350">which</text><text fill="black" x="390" y="400">WDT</text><text fill="black" x="470" y="350">is</text><text fill="black" x="470" y="400">VBZ</text><text fill="black" x="550" y="350">only</text><text fill="black" x="550" y="400">RB</text><text fill="black" x="630" y="350">a</text><text fill="black" x="630" y="400">DT</text><text fill="black" x="710" y="350">glorified</text><text fill="black" x="710" y="400">JJ</text><text fill="black" x="790" y="350">barn</text><text fill="black" x="790" y="400">NN</text><text fill="black" x="870" y="350">.</text><text fill="black" x="870" y="400">.</text><line stroke="red" x1="170" x2="337" y1="210" y2="330" /><line stroke="red" x1="240" x2="337" y1="210" y2="330" /><line stroke="red" x1="350" x2="257" y1="210" y2="330" /><line stroke="red" x1="420" x2="746" y1="210" y2="330" /><line stroke="red" x1="480" x2="568" y1="210" y2="330" /><line stroke="red" x1="560" x2="473" y1="210" y2="330" /><line stroke="red" x1="640" x2="630" y1="210" y2="330" /><line stroke="red" x1="720" x2="808" y1="210" y2="330" /><line stroke="red" x1="810" x2="808" y1="210" y2="330" /><line stroke="red" x1="1000" x2="746" y1="210" y2="330" /><line stroke="red" x1="1040" x2="746" y1="210" y2="330" /><line stroke="red" x1="1130" x2="746" y1="210" y2="330" /><line stroke="red" x1="1190" x2="870" y1="210" y2="330" /></svg>