<?xml version="1.0" encoding="utf-8" ?>
<svg baseProfile="full" height="500" version="1.1" width="1400" xmlns="http://www.w3.org/2000/svg" xmlns:ev="http://www.w3.org/2001/xml-events" xmlns:xlink="http://www.w3.org/1999/xlink"><defs /><text fill="black" x="0" y="100">VIETNAMESE </text><text fill="black" x="20" y="150">POS: </text><text fill="black" x="20" y="200">Source: </text><text fill="black" x="150" y="150">Nq</text><text fill="black" x="150" y="200">Một</text><text fill="black" x="230" y="150">Nc</text><text fill="black" x="230" y="200">cái</text><text fill="black" x="310" y="150">Nn</text><text fill="black" x="310" y="200">đồi</text><text fill="black" x="390" y="150">Ve</text><text fill="black" x="390" y="200">có</text><text fill="black" x="470" y="150">Nn</text><text fill="black" x="470" y="200">độ</text><text fill="black" x="550" y="150">Aa</text><text fill="black" x="550" y="200">dốc</text><text fill="black" x="630" y="150">Nq</text><text fill="black" x="630" y="200">1</text><text fill="black" x="710" y="150">Cm</text><text fill="black" x="710" y="200">trong</text><text fill="black" x="790" y="150">Nq</text><text fill="black" x="790" y="200">4</text><text fill="black" x="870" y="150">Cp</text><text fill="black" x="870" y="200">hoặc</text><text fill="black" x="950" y="150">Vc</text><text fill="black" x="950" y="200">là</text><text fill="black" x="1030" y="150">Nq</text><text fill="black" x="1030" y="200">25</text><text fill="black" x="1110" y="150">Nu</text><text fill="black" x="1110" y="200">%</text><text fill="black" x="1190" y="150">PU</text><text fill="black" x="1190" y="200">.</text><text fill="black" x="0" y="450">ENGLISH </text><text fill="black" x="20" y="350">Target: </text><text fill="black" x="20" y="400">POS: </text><text fill="black" x="150" y="350">A</text><text fill="black" x="150" y="400">DT</text><text fill="black" x="230" y="350">hill</text><text fill="black" x="230" y="400">NN</text><text fill="black" x="310" y="350">with</text><text fill="black" x="310" y="400">IN</text><text fill="black" x="390" y="350">a</text><text fill="black" x="390" y="400">DT</text><text fill="black" x="470" y="350">gradient</text><text fill="black" x="470" y="400">NN</text><text fill="black" x="550" y="350">of</text><text fill="black" x="550" y="400">IN</text><text fill="black" x="630" y="350">1</text><text fill="black" x="630" y="400">CD</text><text fill="black" x="710" y="350">in</text><text fill="black" x="710" y="400">IN</text><text fill="black" x="790" y="350">4</text><text fill="black" x="790" y="400">CD</text><text fill="black" x="870" y="350">or</text><text fill="black" x="870" y="400">CC</text><text fill="black" x="950" y="350">25</text><text fill="black" x="950" y="400">CD</text><text fill="black" x="1030" y="350">%</text><text fill="black" x="1030" y="400">NN</text><text fill="black" x="1110" y="350">.</text><text fill="black" x="1110" y="400">.</text><line stroke="red" x1="160" x2="150" y1="210" y2="330" /><line stroke="red" x1="320" x2="248" y1="210" y2="330" /><line stroke="red" x1="400" x2="506" y1="210" y2="330" /><line stroke="red" x1="480" x2="506" y1="210" y2="330" /><line stroke="red" x1="560" x2="506" y1="210" y2="330" /><line stroke="red" x1="630" x2="630" y1="210" y2="330" /><line stroke="red" x1="730" x2="713" y1="210" y2="330" /><line stroke="red" x1="790" x2="790" y1="210" y2="330" /><line stroke="red" x1="890" x2="873" y1="210" y2="330" /><line stroke="red" x1="1040" x2="953" y1="210" y2="330" /><line stroke="red" x1="1110" x2="1030" y1="210" y2="330" /><line stroke="red" x1="1190" x2="1110" y1="210" y2="330" /></svg>