<?xml version="1.0" encoding="utf-8" ?>
<svg baseProfile="full" height="500" version="1.1" width="2000" xmlns="http://www.w3.org/2000/svg" xmlns:ev="http://www.w3.org/2001/xml-events" xmlns:xlink="http://www.w3.org/1999/xlink"><defs /><text fill="black" x="0" y="100">VIETNAMESE </text><text fill="black" x="20" y="150">POS: </text><text fill="black" x="20" y="200">Source: </text><text fill="black" x="150" y="150">Nq</text><text fill="black" x="150" y="200">Một</text><text fill="black" x="230" y="150">Nt</text><text fill="black" x="230" y="200">kỳ</text><text fill="black" x="310" y="150">Vv</text><text fill="black" x="310" y="200">nghỉ</text><text fill="black" x="390" y="150">Aa</text><text fill="black" x="390" y="200">có_thể</text><text fill="black" x="470" y="150">R</text><text fill="black" x="470" y="200">sẽ</text><text fill="black" x="550" y="150">Aa</text><text fill="black" x="550" y="200">tuyệt_vời</text><text fill="black" x="630" y="150">Cp</text><text fill="black" x="630" y="200">nhưng</text><text fill="black" x="710" y="150">Aa</text><text fill="black" x="710" y="200">thực_tế</text><text fill="black" x="790" y="150">Vc</text><text fill="black" x="790" y="200">là</text><text fill="black" x="870" y="150">Pp</text><text fill="black" x="870" y="200">chúng_ta</text><text fill="black" x="950" y="150">R</text><text fill="black" x="950" y="200">không</text><text fill="black" x="1030" y="150">Ve</text><text fill="black" x="1030" y="200">có</text><text fill="black" x="1110" y="150">Aa</text><text fill="black" x="1110" y="200">đủ</text><text fill="black" x="1190" y="150">Nn</text><text fill="black" x="1190" y="200">điều_kiện</text><text fill="black" x="1270" y="150">Cm</text><text fill="black" x="1270" y="200">để</text><text fill="black" x="1350" y="150">Vv</text><text fill="black" x="1350" y="200">thực_hiện</text><text fill="black" x="1430" y="150">PU</text><text fill="black" x="1430" y="200">.</text><text fill="black" x="0" y="450">ENGLISH </text><text fill="black" x="20" y="350">Target: </text><text fill="black" x="20" y="400">POS: </text><text fill="black" x="150" y="350">A</text><text fill="black" x="150" y="400">DT</text><text fill="black" x="230" y="350">holiday</text><text fill="black" x="230" y="400">NN</text><text fill="black" x="310" y="350">would</text><text fill="black" x="310" y="400">MD</text><text fill="black" x="390" y="350">be</text><text fill="black" x="390" y="400">VB</text><text fill="black" x="470" y="350">wonderful</text><text fill="black" x="470" y="400">JJ</text><text fill="black" x="550" y="350">but</text><text fill="black" x="550" y="400">CC</text><text fill="black" x="630" y="350">the</text><text fill="black" x="630" y="400">DT</text><text fill="black" x="710" y="350">fact</text><text fill="black" x="710" y="400">NN</text><text fill="black" x="790" y="350">of</text><text fill="black" x="790" y="400">IN</text><text fill="black" x="870" y="350">the</text><text fill="black" x="870" y="400">DT</text><text fill="black" x="950" y="350">matter</text><text fill="black" x="950" y="400">NN</text><text fill="black" x="1030" y="350">is</text><text fill="black" x="1030" y="400">VBZ</text><text fill="black" x="1110" y="350">that</text><text fill="black" x="1110" y="400">IN</text><text fill="black" x="1190" y="350">we</text><text fill="black" x="1190" y="400">PRP</text><text fill="black" x="1270" y="350">can</text><text fill="black" x="1270" y="400">MD</text><text fill="black" x="1350" y="350">'</text><text fill="black" x="1350" y="400">POS</text><text fill="black" x="1430" y="350">t</text><text fill="black" x="1430" y="400">NN</text><text fill="black" x="1510" y="350">afford</text><text fill="black" x="1510" y="400">VB</text><text fill="black" x="1590" y="350">one</text><text fill="black" x="1590" y="400">CD</text><text fill="black" x="1670" y="350">.</text><text fill="black" x="1670" y="400">.</text><line stroke="red" x1="160" x2="150" y1="210" y2="330" /><line stroke="red" x1="240" x2="257" y1="210" y2="330" /><line stroke="red" x1="330" x2="257" y1="210" y2="330" /><line stroke="red" x1="420" x2="328" y1="210" y2="330" /><line stroke="red" x1="480" x2="328" y1="210" y2="330" /><line stroke="red" x1="590" x2="506" y1="210" y2="330" /><line stroke="red" x1="650" x2="559" y1="210" y2="330" /><line stroke="red" x1="740" x2="728" y1="210" y2="330" /><line stroke="red" x1="910" x2="1193" y1="210" y2="330" /><line stroke="red" x1="970" x2="1430" y1="210" y2="330" /><line stroke="red" x1="1120" x2="1537" y1="210" y2="330" /><line stroke="red" x1="1230" x2="1537" y1="210" y2="330" /><line stroke="red" x1="1280" x2="1537" y1="210" y2="330" /><line stroke="red" x1="1390" x2="1537" y1="210" y2="330" /><line stroke="red" x1="1430" x2="1670" y1="210" y2="330" /></svg>