<?xml version="1.0" encoding="utf-8" ?>
<svg baseProfile="full" height="500" version="1.1" width="1400" xmlns="http://www.w3.org/2000/svg" xmlns:ev="http://www.w3.org/2001/xml-events" xmlns:xlink="http://www.w3.org/1999/xlink"><defs /><text fill="black" x="0" y="100">VIETNAMESE </text><text fill="black" x="20" y="150">POS: </text><text fill="black" x="20" y="200">Source: </text><text fill="black" x="150" y="150">Nq</text><text fill="black" x="150" y="200">Một</text><text fill="black" x="230" y="150">Nt</text><text fill="black" x="230" y="200">kỳ</text><text fill="black" x="310" y="150">Vv</text><text fill="black" x="310" y="200">nghỉ</text><text fill="black" x="390" y="150">Aa</text><text fill="black" x="390" y="200">có_thể</text><text fill="black" x="470" y="150">Vv</text><text fill="black" x="470" y="200">làm</text><text fill="black" x="550" y="150">Nn</text><text fill="black" x="550" y="200">nàng</text><text fill="black" x="630" y="150">Vv</text><text fill="black" x="630" y="200">nguôi_ngoai</text><text fill="black" x="710" y="150">Nn</text><text fill="black" x="710" y="200">nỗi_niềm</text><text fill="black" x="790" y="150">Vv</text><text fill="black" x="790" y="200">tâm_sự</text><text fill="black" x="870" y="150">Cm</text><text fill="black" x="870" y="200">của</text><text fill="black" x="950" y="150">M</text><text fill="black" x="950" y="200">chính</text><text fill="black" x="1030" y="150">Nn</text><text fill="black" x="1030" y="200">cô</text><text fill="black" x="1110" y="150">Pp</text><text fill="black" x="1110" y="200">ta</text><text fill="black" x="1190" y="150">PU</text><text fill="black" x="1190" y="200">.</text><text fill="black" x="0" y="450">ENGLISH </text><text fill="black" x="20" y="350">Target: </text><text fill="black" x="20" y="400">POS: </text><text fill="black" x="150" y="350">A</text><text fill="black" x="150" y="400">DT</text><text fill="black" x="230" y="350">holiday</text><text fill="black" x="230" y="400">NN</text><text fill="black" x="310" y="350">would</text><text fill="black" x="310" y="400">MD</text><text fill="black" x="390" y="350">help</text><text fill="black" x="390" y="400">VB</text><text fill="black" x="470" y="350">to</text><text fill="black" x="470" y="400">TO</text><text fill="black" x="550" y="350">take</text><text fill="black" x="550" y="400">VB</text><text fill="black" x="630" y="350">her</text><text fill="black" x="630" y="400">PRP</text><text fill="black" x="710" y="350">out</text><text fill="black" x="710" y="400">IN</text><text fill="black" x="790" y="350">of</text><text fill="black" x="790" y="400">IN</text><text fill="black" x="870" y="350">herself</text><text fill="black" x="870" y="400">PRP</text><text fill="black" x="950" y="350">.</text><text fill="black" x="950" y="400">.</text><line stroke="red" x1="160" x2="150" y1="210" y2="330" /><line stroke="red" x1="240" x2="257" y1="210" y2="330" /><line stroke="red" x1="330" x2="257" y1="210" y2="330" /><line stroke="red" x1="420" x2="328" y1="210" y2="330" /><line stroke="red" x1="480" x2="408" y1="210" y2="330" /><line stroke="red" x1="570" x2="639" y1="210" y2="330" /><line stroke="red" x1="680" x2="897" y1="210" y2="330" /><line stroke="red" x1="750" x2="897" y1="210" y2="330" /><line stroke="red" x1="820" x2="897" y1="210" y2="330" /><line stroke="red" x1="970" x2="897" y1="210" y2="330" /><line stroke="red" x1="1040" x2="897" y1="210" y2="330" /><line stroke="red" x1="1190" x2="950" y1="210" y2="330" /></svg>