<?xml version="1.0" encoding="utf-8" ?>
<svg baseProfile="full" height="500" version="1.1" width="1100" xmlns="http://www.w3.org/2000/svg" xmlns:ev="http://www.w3.org/2001/xml-events" xmlns:xlink="http://www.w3.org/1999/xlink"><defs /><text fill="black" x="0" y="100">VIETNAMESE </text><text fill="black" x="20" y="150">POS: </text><text fill="black" x="20" y="200">Source: </text><text fill="black" x="150" y="150">Nt</text><text fill="black" x="150" y="200">Ngày</text><text fill="black" x="230" y="150">Vv</text><text fill="black" x="230" y="200">nghỉ</text><text fill="black" x="310" y="150">R</text><text fill="black" x="310" y="200">không</text><text fill="black" x="390" y="150">Aa</text><text fill="black" x="390" y="200">hẳn</text><text fill="black" x="470" y="150">Ve</text><text fill="black" x="470" y="200">có</text><text fill="black" x="550" y="150">Nn</text><text fill="black" x="550" y="200">nghĩa</text><text fill="black" x="630" y="150">Vc</text><text fill="black" x="630" y="200">là</text><text fill="black" x="710" y="150">R</text><text fill="black" x="710" y="200">chẳng</text><text fill="black" x="790" y="150">Vv</text><text fill="black" x="790" y="200">làm</text><text fill="black" x="870" y="150">M</text><text fill="black" x="870" y="200">gì</text><text fill="black" x="950" y="150">PU</text><text fill="black" x="950" y="200">.</text><text fill="black" x="0" y="450">ENGLISH </text><text fill="black" x="20" y="350">Target: </text><text fill="black" x="20" y="400">POS: </text><text fill="black" x="150" y="350">A</text><text fill="black" x="150" y="400">DT</text><text fill="black" x="230" y="350">holiday</text><text fill="black" x="230" y="400">NN</text><text fill="black" x="310" y="350">need</text><text fill="black" x="310" y="400">MD</text><text fill="black" x="390" y="350">not</text><text fill="black" x="390" y="400">RB</text><text fill="black" x="470" y="350">mean</text><text fill="black" x="470" y="400">VB</text><text fill="black" x="550" y="350">inactivity</text><text fill="black" x="550" y="400">NN</text><text fill="black" x="630" y="350">.</text><text fill="black" x="630" y="400">.</text><line stroke="red" x1="170" x2="257" y1="210" y2="330" /><line stroke="red" x1="250" x2="257" y1="210" y2="330" /><line stroke="red" x1="330" x2="399" y1="210" y2="330" /><line stroke="red" x1="400" x2="595" y1="210" y2="330" /><line stroke="red" x1="570" x2="595" y1="210" y2="330" /><line stroke="red" x1="640" x2="595" y1="210" y2="330" /><line stroke="red" x1="730" x2="595" y1="210" y2="330" /><line stroke="red" x1="800" x2="595" y1="210" y2="330" /><line stroke="red" x1="880" x2="595" y1="210" y2="330" /><line stroke="red" x1="950" x2="630" y1="210" y2="330" /></svg>