<?xml version="1.0" encoding="utf-8" ?>
<svg baseProfile="full" height="500" version="1.1" width="1200" xmlns="http://www.w3.org/2000/svg" xmlns:ev="http://www.w3.org/2001/xml-events" xmlns:xlink="http://www.w3.org/1999/xlink"><defs /><text fill="black" x="0" y="100">VIETNAMESE </text><text fill="black" x="20" y="150">POS: </text><text fill="black" x="20" y="200">Source: </text><text fill="black" x="150" y="150">Nq</text><text fill="black" x="150" y="200">Một</text><text fill="black" x="230" y="150">Nc</text><text fill="black" x="230" y="200">con</text><text fill="black" x="310" y="150">Nn</text><text fill="black" x="310" y="200">ngựa</text><text fill="black" x="390" y="150">R</text><text fill="black" x="390" y="200">đã</text><text fill="black" x="470" y="150">Vv</text><text fill="black" x="470" y="200">dự_thi</text><text fill="black" x="550" y="150">Nn</text><text fill="black" x="550" y="200">giải</text><text fill="black" x="630" y="150">FW</text><text fill="black" x="630" y="200">Grand_National</text><text fill="black" x="710" y="150">Nq</text><text fill="black" x="710" y="200">bốn</text><text fill="black" x="790" y="150">Nn</text><text fill="black" x="790" y="200">lần</text><text fill="black" x="870" y="150">PU</text><text fill="black" x="870" y="200">.</text><text fill="black" x="0" y="450">ENGLISH </text><text fill="black" x="20" y="350">Target: </text><text fill="black" x="20" y="400">POS: </text><text fill="black" x="150" y="350">A</text><text fill="black" x="150" y="400">DT</text><text fill="black" x="230" y="350">horse</text><text fill="black" x="230" y="400">NN</text><text fill="black" x="310" y="350">that</text><text fill="black" x="310" y="400">WDT</text><text fill="black" x="390" y="350">has</text><text fill="black" x="390" y="400">VBZ</text><text fill="black" x="470" y="350">competed</text><text fill="black" x="470" y="400">VBN</text><text fill="black" x="550" y="350">in</text><text fill="black" x="550" y="400">IN</text><text fill="black" x="630" y="350">the</text><text fill="black" x="630" y="400">DT</text><text fill="black" x="710" y="350">Grand</text><text fill="black" x="710" y="400">NNP</text><text fill="black" x="790" y="350">National</text><text fill="black" x="790" y="400">NNP</text><text fill="black" x="870" y="350">four</text><text fill="black" x="870" y="400">CD</text><text fill="black" x="950" y="350">times</text><text fill="black" x="950" y="400">NNS</text><text fill="black" x="1030" y="350">.</text><text fill="black" x="1030" y="400">.</text><line stroke="red" x1="160" x2="150" y1="210" y2="330" /><line stroke="red" x1="240" x2="248" y1="210" y2="330" /><line stroke="red" x1="330" x2="248" y1="210" y2="330" /><line stroke="red" x1="400" x2="399" y1="210" y2="330" /><line stroke="red" x1="500" x2="506" y1="210" y2="330" /><line stroke="red" x1="570" x2="506" y1="210" y2="330" /><line stroke="red" x1="700" x2="506" y1="210" y2="330" /><line stroke="red" x1="720" x2="888" y1="210" y2="330" /><line stroke="red" x1="800" x2="968" y1="210" y2="330" /><line stroke="red" x1="870" x2="1030" y1="210" y2="330" /></svg>