<?xml version="1.0" encoding="utf-8" ?>
<svg baseProfile="full" height="500" version="1.1" width="900" xmlns="http://www.w3.org/2000/svg" xmlns:ev="http://www.w3.org/2001/xml-events" xmlns:xlink="http://www.w3.org/1999/xlink"><defs /><text fill="black" x="0" y="100">VIETNAMESE </text><text fill="black" x="20" y="150">POS: </text><text fill="black" x="20" y="200">Source: </text><text fill="black" x="150" y="150">Nq</text><text fill="black" x="150" y="200">Một</text><text fill="black" x="230" y="150">Nn</text><text fill="black" x="230" y="200">bệnh_viện</text><text fill="black" x="310" y="150">Aa</text><text fill="black" x="310" y="200">có_thể</text><text fill="black" x="390" y="150">Vv</text><text fill="black" x="390" y="200">được</text><text fill="black" x="470" y="150">Nq</text><text fill="black" x="470" y="200">các</text><text fill="black" x="550" y="150">Nn</text><text fill="black" x="550" y="200">viên_chức</text><text fill="black" x="630" y="150">Nn</text><text fill="black" x="630" y="200">nhà_nước</text><text fill="black" x="710" y="150">Vv</text><text fill="black" x="710" y="200">thanh_tra</text><text fill="black" x="790" y="150">PU</text><text fill="black" x="790" y="200">.</text><text fill="black" x="0" y="450">ENGLISH </text><text fill="black" x="20" y="350">Target: </text><text fill="black" x="20" y="400">POS: </text><text fill="black" x="150" y="350">A</text><text fill="black" x="150" y="400">DT</text><text fill="black" x="230" y="350">hospital</text><text fill="black" x="230" y="400">NN</text><text fill="black" x="310" y="350">that</text><text fill="black" x="310" y="400">WDT</text><text fill="black" x="390" y="350">was</text><text fill="black" x="390" y="400">VBD</text><text fill="black" x="470" y="350">visitable</text><text fill="black" x="470" y="400">JJ</text><text fill="black" x="550" y="350">by</text><text fill="black" x="550" y="400">IN</text><text fill="black" x="630" y="350">state</text><text fill="black" x="630" y="400">NN</text><text fill="black" x="710" y="350">officials</text><text fill="black" x="710" y="400">NNS</text><text fill="black" x="790" y="350">.</text><text fill="black" x="790" y="400">.</text><line stroke="red" x1="160" x2="150" y1="210" y2="330" /><line stroke="red" x1="270" x2="266" y1="210" y2="330" /><line stroke="red" x1="340" x2="506" y1="210" y2="330" /><line stroke="red" x1="410" x2="506" y1="210" y2="330" /><line stroke="red" x1="480" x2="506" y1="210" y2="330" /><line stroke="red" x1="590" x2="746" y1="210" y2="330" /><line stroke="red" x1="670" x2="506" y1="210" y2="330" /><line stroke="red" x1="750" x2="506" y1="210" y2="330" /><line stroke="red" x1="790" x2="790" y1="210" y2="330" /></svg>