<?xml version="1.0" encoding="utf-8" ?>
<svg baseProfile="full" height="500" version="1.1" width="1400" xmlns="http://www.w3.org/2000/svg" xmlns:ev="http://www.w3.org/2001/xml-events" xmlns:xlink="http://www.w3.org/1999/xlink"><defs /><text fill="black" x="0" y="100">VIETNAMESE </text><text fill="black" x="20" y="150">POS: </text><text fill="black" x="20" y="200">Source: </text><text fill="black" x="150" y="150">Nq</text><text fill="black" x="150" y="200">Một</text><text fill="black" x="230" y="150">Nn</text><text fill="black" x="230" y="200">cục</text><text fill="black" x="310" y="150">Nn</text><text fill="black" x="310" y="200">than</text><text fill="black" x="390" y="150">Aa</text><text fill="black" x="390" y="200">hồng</text><text fill="black" x="470" y="150">Vv</text><text fill="black" x="470" y="200">rơi</text><text fill="black" x="550" y="150">D</text><text fill="black" x="550" y="200">ra</text><text fill="black" x="630" y="150">Nn</text><text fill="black" x="630" y="200">ngoài</text><text fill="black" x="710" y="150">Nn</text><text fill="black" x="710" y="200">lò</text><text fill="black" x="790" y="150">Cp</text><text fill="black" x="790" y="200">và</text><text fill="black" x="870" y="150">Vv</text><text fill="black" x="870" y="200">làm</text><text fill="black" x="950" y="150">Vv</text><text fill="black" x="950" y="200">cháy</text><text fill="black" x="1030" y="150">Nc</text><text fill="black" x="1030" y="200">tấm</text><text fill="black" x="1110" y="150">Nn</text><text fill="black" x="1110" y="200">thảm</text><text fill="black" x="1190" y="150">PU</text><text fill="black" x="1190" y="200">.</text><text fill="black" x="0" y="450">ENGLISH </text><text fill="black" x="20" y="350">Target: </text><text fill="black" x="20" y="400">POS: </text><text fill="black" x="150" y="350">A</text><text fill="black" x="150" y="400">DT</text><text fill="black" x="230" y="350">hot</text><text fill="black" x="230" y="400">JJ</text><text fill="black" x="310" y="350">coal</text><text fill="black" x="310" y="400">NN</text><text fill="black" x="390" y="350">fell</text><text fill="black" x="390" y="400">VBD</text><text fill="black" x="470" y="350">out</text><text fill="black" x="470" y="400">IN</text><text fill="black" x="550" y="350">of</text><text fill="black" x="550" y="400">IN</text><text fill="black" x="630" y="350">the</text><text fill="black" x="630" y="400">DT</text><text fill="black" x="710" y="350">fire</text><text fill="black" x="710" y="400">NN</text><text fill="black" x="790" y="350">and</text><text fill="black" x="790" y="400">CC</text><text fill="black" x="870" y="350">burnt</text><text fill="black" x="870" y="400">VBD</text><text fill="black" x="950" y="350">the</text><text fill="black" x="950" y="400">DT</text><text fill="black" x="1030" y="350">carpet</text><text fill="black" x="1030" y="400">NN</text><text fill="black" x="1110" y="350">.</text><text fill="black" x="1110" y="400">.</text><line stroke="red" x1="160" x2="150" y1="210" y2="330" /><line stroke="red" x1="240" x2="328" y1="210" y2="330" /><line stroke="red" x1="330" x2="328" y1="210" y2="330" /><line stroke="red" x1="410" x2="328" y1="210" y2="330" /><line stroke="red" x1="480" x2="408" y1="210" y2="330" /><line stroke="red" x1="560" x2="479" y1="210" y2="330" /><line stroke="red" x1="650" x2="479" y1="210" y2="330" /><line stroke="red" x1="720" x2="728" y1="210" y2="330" /><line stroke="red" x1="800" x2="799" y1="210" y2="330" /><line stroke="red" x1="880" x2="888" y1="210" y2="330" /><line stroke="red" x1="970" x2="888" y1="210" y2="330" /><line stroke="red" x1="1040" x2="1057" y1="210" y2="330" /><line stroke="red" x1="1130" x2="1057" y1="210" y2="330" /><line stroke="red" x1="1190" x2="1110" y1="210" y2="330" /></svg>