<?xml version="1.0" encoding="utf-8" ?>
<svg baseProfile="full" height="500" version="1.1" width="1000" xmlns="http://www.w3.org/2000/svg" xmlns:ev="http://www.w3.org/2001/xml-events" xmlns:xlink="http://www.w3.org/1999/xlink"><defs /><text fill="black" x="0" y="100">VIETNAMESE </text><text fill="black" x="20" y="150">POS: </text><text fill="black" x="20" y="200">Source: </text><text fill="black" x="150" y="150">Nq</text><text fill="black" x="150" y="200">Một</text><text fill="black" x="230" y="150">Nc</text><text fill="black" x="230" y="200">ngôi</text><text fill="black" x="310" y="150">Nn</text><text fill="black" x="310" y="200">nhà</text><text fill="black" x="390" y="150">Vv</text><text fill="black" x="390" y="200">được</text><text fill="black" x="470" y="150">Vv</text><text fill="black" x="470" y="200">xây_dựng</text><text fill="black" x="550" y="150">Cp</text><text fill="black" x="550" y="200">như</text><text fill="black" x="630" y="150">Nq</text><text fill="black" x="630" y="200">một</text><text fill="black" x="710" y="150">Nn</text><text fill="black" x="710" y="200">lâu_đài</text><text fill="black" x="790" y="150">Nr</text><text fill="black" x="790" y="200">Ấn_Độ</text><text fill="black" x="870" y="150">PU</text><text fill="black" x="870" y="200">.</text><text fill="black" x="0" y="450">ENGLISH </text><text fill="black" x="20" y="350">Target: </text><text fill="black" x="20" y="400">POS: </text><text fill="black" x="150" y="350">A</text><text fill="black" x="150" y="400">DT</text><text fill="black" x="230" y="350">house</text><text fill="black" x="230" y="400">NN</text><text fill="black" x="310" y="350">built</text><text fill="black" x="310" y="400">VBN</text><text fill="black" x="390" y="350">like</text><text fill="black" x="390" y="400">IN</text><text fill="black" x="470" y="350">an</text><text fill="black" x="470" y="400">DT</text><text fill="black" x="550" y="350">Indian</text><text fill="black" x="550" y="400">JJ</text><text fill="black" x="630" y="350">palace</text><text fill="black" x="630" y="400">NN</text><text fill="black" x="710" y="350">.</text><text fill="black" x="710" y="400">.</text><line stroke="red" x1="160" x2="150" y1="210" y2="330" /><line stroke="red" x1="250" x2="248" y1="210" y2="330" /><line stroke="red" x1="320" x2="248" y1="210" y2="330" /><line stroke="red" x1="510" x2="328" y1="210" y2="330" /><line stroke="red" x1="560" x2="408" y1="210" y2="330" /><line stroke="red" x1="640" x2="473" y1="210" y2="330" /><line stroke="red" x1="740" x2="657" y1="210" y2="330" /><line stroke="red" x1="810" x2="577" y1="210" y2="330" /><line stroke="red" x1="870" x2="710" y1="210" y2="330" /></svg>