<?xml version="1.0" encoding="utf-8" ?>
<svg baseProfile="full" height="500" version="1.1" width="1400" xmlns="http://www.w3.org/2000/svg" xmlns:ev="http://www.w3.org/2001/xml-events" xmlns:xlink="http://www.w3.org/1999/xlink"><defs /><text fill="black" x="0" y="100">VIETNAMESE </text><text fill="black" x="20" y="150">POS: </text><text fill="black" x="20" y="200">Source: </text><text fill="black" x="150" y="150">Nq</text><text fill="black" x="150" y="200">Một</text><text fill="black" x="230" y="150">Nn</text><text fill="black" x="230" y="200">bệnh_viện</text><text fill="black" x="310" y="150">Vv</text><text fill="black" x="310" y="200">cần</text><text fill="black" x="390" y="150">Vv</text><text fill="black" x="390" y="200">được</text><text fill="black" x="470" y="150">Vv</text><text fill="black" x="470" y="200">thiết_kế</text><text fill="black" x="550" y="150">Cp</text><text fill="black" x="550" y="200">với</text><text fill="black" x="630" y="150">Nn</text><text fill="black" x="630" y="200">tính_cách</text><text fill="black" x="710" y="150">Nq</text><text fill="black" x="710" y="200">một</text><text fill="black" x="790" y="150">Nn</text><text fill="black" x="790" y="200">công_trình</text><text fill="black" x="870" y="150">Vv</text><text fill="black" x="870" y="200">xây_dựng</text><text fill="black" x="950" y="150">Ve</text><text fill="black" x="950" y="200">có</text><text fill="black" x="1030" y="150">Nn</text><text fill="black" x="1030" y="200">chức_năng</text><text fill="black" x="1110" y="150">Aa</text><text fill="black" x="1110" y="200">riêng</text><text fill="black" x="1190" y="150">PU</text><text fill="black" x="1190" y="200">.</text><text fill="black" x="0" y="450">ENGLISH </text><text fill="black" x="20" y="350">Target: </text><text fill="black" x="20" y="400">POS: </text><text fill="black" x="150" y="350">A</text><text fill="black" x="150" y="400">DT</text><text fill="black" x="230" y="350">hospital</text><text fill="black" x="230" y="400">NN</text><text fill="black" x="310" y="350">should</text><text fill="black" x="310" y="400">MD</text><text fill="black" x="390" y="350">be</text><text fill="black" x="390" y="400">VB</text><text fill="black" x="470" y="350">planned</text><text fill="black" x="470" y="400">VBN</text><text fill="black" x="550" y="350">as</text><text fill="black" x="550" y="400">IN</text><text fill="black" x="630" y="350">a</text><text fill="black" x="630" y="400">DT</text><text fill="black" x="710" y="350">functional</text><text fill="black" x="710" y="400">JJ</text><text fill="black" x="790" y="350">building</text><text fill="black" x="790" y="400">NN</text><text fill="black" x="870" y="350">.</text><text fill="black" x="870" y="400">.</text><line stroke="red" x1="160" x2="150" y1="210" y2="330" /><line stroke="red" x1="270" x2="266" y1="210" y2="330" /><line stroke="red" x1="320" x2="337" y1="210" y2="330" /><line stroke="red" x1="410" x2="393" y1="210" y2="330" /><line stroke="red" x1="510" x2="497" y1="210" y2="330" /><line stroke="red" x1="560" x2="755" y1="210" y2="330" /><line stroke="red" x1="670" x2="755" y1="210" y2="330" /><line stroke="red" x1="840" x2="755" y1="210" y2="330" /><line stroke="red" x1="910" x2="755" y1="210" y2="330" /><line stroke="red" x1="1070" x2="755" y1="210" y2="330" /><line stroke="red" x1="1130" x2="755" y1="210" y2="330" /><line stroke="red" x1="1190" x2="870" y1="210" y2="330" /></svg>