<?xml version="1.0" encoding="utf-8" ?>
<svg baseProfile="full" height="500" version="1.1" width="1000" xmlns="http://www.w3.org/2000/svg" xmlns:ev="http://www.w3.org/2001/xml-events" xmlns:xlink="http://www.w3.org/1999/xlink"><defs /><text fill="black" x="0" y="100">VIETNAMESE </text><text fill="black" x="20" y="150">POS: </text><text fill="black" x="20" y="200">Source: </text><text fill="black" x="150" y="150">Nq</text><text fill="black" x="150" y="200">Một</text><text fill="black" x="230" y="150">Nn</text><text fill="black" x="230" y="200">nhân_viên</text><text fill="black" x="310" y="150">R</text><text fill="black" x="310" y="200">sẽ</text><text fill="black" x="390" y="150">Vd</text><text fill="black" x="390" y="200">đến</text><text fill="black" x="470" y="150">Nn</text><text fill="black" x="470" y="200">phòng</text><text fill="black" x="550" y="150">Nn</text><text fill="black" x="550" y="200">ông</text><text fill="black" x="630" y="150">R</text><text fill="black" x="630" y="200">ngay</text><text fill="black" x="710" y="150">M</text><text fill="black" x="710" y="200">ạ</text><text fill="black" x="790" y="150">PU</text><text fill="black" x="790" y="200">.</text><text fill="black" x="0" y="450">ENGLISH </text><text fill="black" x="20" y="350">Target: </text><text fill="black" x="20" y="400">POS: </text><text fill="black" x="150" y="350">A</text><text fill="black" x="150" y="400">DT</text><text fill="black" x="230" y="350">house</text><text fill="black" x="230" y="400">NN</text><text fill="black" x="310" y="350">man</text><text fill="black" x="310" y="400">NN</text><text fill="black" x="390" y="350">will</text><text fill="black" x="390" y="400">MD</text><text fill="black" x="470" y="350">soon</text><text fill="black" x="470" y="400">RB</text><text fill="black" x="550" y="350">be</text><text fill="black" x="550" y="400">VB</text><text fill="black" x="630" y="350">in</text><text fill="black" x="630" y="400">IN</text><text fill="black" x="710" y="350">your</text><text fill="black" x="710" y="400">PRP$</text><text fill="black" x="790" y="350">room</text><text fill="black" x="790" y="400">NN</text><text fill="black" x="870" y="350">.</text><text fill="black" x="870" y="400">.</text><line stroke="red" x1="160" x2="150" y1="210" y2="330" /><line stroke="red" x1="270" x2="319" y1="210" y2="330" /><line stroke="red" x1="320" x2="408" y1="210" y2="330" /><line stroke="red" x1="490" x2="808" y1="210" y2="330" /><line stroke="red" x1="560" x2="728" y1="210" y2="330" /><line stroke="red" x1="650" x2="488" y1="210" y2="330" /><line stroke="red" x1="710" x2="488" y1="210" y2="330" /><line stroke="red" x1="790" x2="870" y1="210" y2="330" /></svg>