<?xml version="1.0" encoding="utf-8" ?>
<svg baseProfile="full" height="500" version="1.1" width="1100" xmlns="http://www.w3.org/2000/svg" xmlns:ev="http://www.w3.org/2001/xml-events" xmlns:xlink="http://www.w3.org/1999/xlink"><defs /><text fill="black" x="0" y="100">VIETNAMESE </text><text fill="black" x="20" y="150">POS: </text><text fill="black" x="20" y="200">Source: </text><text fill="black" x="150" y="150">Nq</text><text fill="black" x="150" y="200">Một</text><text fill="black" x="230" y="150">Nc</text><text fill="black" x="230" y="200">ngôi</text><text fill="black" x="310" y="150">Nn</text><text fill="black" x="310" y="200">nhà</text><text fill="black" x="390" y="150">Nn</text><text fill="black" x="390" y="200">bên</text><text fill="black" x="470" y="150">Nn</text><text fill="black" x="470" y="200">ngoài</text><text fill="black" x="550" y="150">Aa</text><text fill="black" x="550" y="200">cổ_điển</text><text fill="black" x="630" y="150">Cp</text><text fill="black" x="630" y="200">và</text><text fill="black" x="710" y="150">Nn</text><text fill="black" x="710" y="200">bên</text><text fill="black" x="790" y="150">Nn</text><text fill="black" x="790" y="200">trong</text><text fill="black" x="870" y="150">Aa</text><text fill="black" x="870" y="200">hiện_đại</text><text fill="black" x="950" y="150">PU</text><text fill="black" x="950" y="200">.</text><text fill="black" x="0" y="450">ENGLISH </text><text fill="black" x="20" y="350">Target: </text><text fill="black" x="20" y="400">POS: </text><text fill="black" x="150" y="350">A</text><text fill="black" x="150" y="400">DT</text><text fill="black" x="230" y="350">house</text><text fill="black" x="230" y="400">NN</text><text fill="black" x="310" y="350">with</text><text fill="black" x="310" y="400">IN</text><text fill="black" x="390" y="350">a</text><text fill="black" x="390" y="400">DT</text><text fill="black" x="470" y="350">classical</text><text fill="black" x="470" y="400">JJ</text><text fill="black" x="550" y="350">exterior</text><text fill="black" x="550" y="400">NN</text><text fill="black" x="630" y="350">and</text><text fill="black" x="630" y="400">CC</text><text fill="black" x="710" y="350">a</text><text fill="black" x="710" y="400">DT</text><text fill="black" x="790" y="350">modern</text><text fill="black" x="790" y="400">JJ</text><text fill="black" x="870" y="350">interior</text><text fill="black" x="870" y="400">NN</text><text fill="black" x="950" y="350">.</text><text fill="black" x="950" y="400">.</text><line stroke="red" x1="160" x2="150" y1="210" y2="330" /><line stroke="red" x1="250" x2="248" y1="210" y2="330" /><line stroke="red" x1="320" x2="248" y1="210" y2="330" /><line stroke="red" x1="400" x2="586" y1="210" y2="330" /><line stroke="red" x1="490" x2="586" y1="210" y2="330" /><line stroke="red" x1="580" x2="506" y1="210" y2="330" /><line stroke="red" x1="640" x2="639" y1="210" y2="330" /><line stroke="red" x1="720" x2="906" y1="210" y2="330" /><line stroke="red" x1="810" x2="906" y1="210" y2="330" /><line stroke="red" x1="910" x2="817" y1="210" y2="330" /><line stroke="red" x1="950" x2="950" y1="210" y2="330" /></svg>