<?xml version="1.0" encoding="utf-8" ?>
<svg baseProfile="full" height="500" version="1.1" width="1900" xmlns="http://www.w3.org/2000/svg" xmlns:ev="http://www.w3.org/2001/xml-events" xmlns:xlink="http://www.w3.org/1999/xlink"><defs /><text fill="black" x="0" y="100">VIETNAMESE </text><text fill="black" x="20" y="150">POS: </text><text fill="black" x="20" y="200">Source: </text><text fill="black" x="150" y="150">Nq</text><text fill="black" x="150" y="200">Một</text><text fill="black" x="230" y="150">Nn</text><text fill="black" x="230" y="200">khu</text><text fill="black" x="310" y="150">Nn</text><text fill="black" x="310" y="200">vườn</text><text fill="black" x="390" y="150">Aa</text><text fill="black" x="390" y="200">rộng</text><text fill="black" x="470" y="150">Cm</text><text fill="black" x="470" y="200">trong</text><text fill="black" x="550" y="150">Pd</text><text fill="black" x="550" y="200">đó</text><text fill="black" x="630" y="150">Nq</text><text fill="black" x="630" y="200">các</text><text fill="black" x="710" y="150">Nn</text><text fill="black" x="710" y="200">loại</text><text fill="black" x="790" y="150">Nn</text><text fill="black" x="790" y="200">hoa</text><text fill="black" x="870" y="150">Aa</text><text fill="black" x="870" y="200">khác</text><text fill="black" x="950" y="150">Nn</text><text fill="black" x="950" y="200">nhau</text><text fill="black" x="1030" y="150">Vv</text><text fill="black" x="1030" y="200">nở_rộ</text><text fill="black" x="1110" y="150">Cm</text><text fill="black" x="1110" y="200">vào</text><text fill="black" x="1190" y="150">Nn</text><text fill="black" x="1190" y="200">mùa</text><text fill="black" x="1270" y="150">Nt</text><text fill="black" x="1270" y="200">xuân</text><text fill="black" x="1350" y="150">Cp</text><text fill="black" x="1350" y="200">và</text><text fill="black" x="1430" y="150">Nn</text><text fill="black" x="1430" y="200">mùa</text><text fill="black" x="1510" y="150">Nt</text><text fill="black" x="1510" y="200">hạ</text><text fill="black" x="1590" y="150">PU</text><text fill="black" x="1590" y="200">.</text><text fill="black" x="0" y="450">ENGLISH </text><text fill="black" x="20" y="350">Target: </text><text fill="black" x="20" y="400">POS: </text><text fill="black" x="150" y="350">A</text><text fill="black" x="150" y="400">DT</text><text fill="black" x="230" y="350">huge</text><text fill="black" x="230" y="400">JJ</text><text fill="black" x="310" y="350">garden</text><text fill="black" x="310" y="400">NN</text><text fill="black" x="390" y="350">in</text><text fill="black" x="390" y="400">IN</text><text fill="black" x="470" y="350">which</text><text fill="black" x="470" y="400">WDT</text><text fill="black" x="550" y="350">different</text><text fill="black" x="550" y="400">JJ</text><text fill="black" x="630" y="350">flowers</text><text fill="black" x="630" y="400">NNS</text><text fill="black" x="710" y="350">rioted</text><text fill="black" x="710" y="400">VBD</text><text fill="black" x="790" y="350">during</text><text fill="black" x="790" y="400">IN</text><text fill="black" x="870" y="350">spring</text><text fill="black" x="870" y="400">NN</text><text fill="black" x="950" y="350">and</text><text fill="black" x="950" y="400">CC</text><text fill="black" x="1030" y="350">summer</text><text fill="black" x="1030" y="400">NN</text><text fill="black" x="1110" y="350">.</text><text fill="black" x="1110" y="400">.</text><line stroke="red" x1="160" x2="150" y1="210" y2="330" /><line stroke="red" x1="240" x2="337" y1="210" y2="330" /><line stroke="red" x1="330" x2="337" y1="210" y2="330" /><line stroke="red" x1="410" x2="737" y1="210" y2="330" /><line stroke="red" x1="490" x2="393" y1="210" y2="330" /><line stroke="red" x1="640" x2="737" y1="210" y2="330" /><line stroke="red" x1="730" x2="737" y1="210" y2="330" /><line stroke="red" x1="800" x2="657" y1="210" y2="330" /><line stroke="red" x1="890" x2="586" y1="210" y2="330" /><line stroke="red" x1="970" x2="586" y1="210" y2="330" /><line stroke="red" x1="1050" x2="737" y1="210" y2="330" /><line stroke="red" x1="1120" x2="737" y1="210" y2="330" /><line stroke="red" x1="1200" x2="897" y1="210" y2="330" /><line stroke="red" x1="1290" x2="897" y1="210" y2="330" /><line stroke="red" x1="1360" x2="959" y1="210" y2="330" /><line stroke="red" x1="1440" x2="1057" y1="210" y2="330" /><line stroke="red" x1="1520" x2="1057" y1="210" y2="330" /><line stroke="red" x1="1590" x2="1110" y1="210" y2="330" /></svg>