<?xml version="1.0" encoding="utf-8" ?>
<svg baseProfile="full" height="500" version="1.1" width="2800" xmlns="http://www.w3.org/2000/svg" xmlns:ev="http://www.w3.org/2001/xml-events" xmlns:xlink="http://www.w3.org/1999/xlink"><defs /><text fill="black" x="0" y="100">VIETNAMESE </text><text fill="black" x="20" y="150">POS: </text><text fill="black" x="20" y="200">Source: </text><text fill="black" x="150" y="150">Nq</text><text fill="black" x="150" y="200">Một</text><text fill="black" x="230" y="150">Nn</text><text fill="black" x="230" y="200">trăm_năm</text><text fill="black" x="310" y="150">Nn</text><text fill="black" x="310" y="200">sau</text><text fill="black" x="390" y="150">Pd</text><text fill="black" x="390" y="200">đó</text><text fill="black" x="470" y="150">Nn</text><text fill="black" x="470" y="200">người</text><text fill="black" x="550" y="150">Nr</text><text fill="black" x="550" y="200">Anh</text><text fill="black" x="630" y="150">Vv</text><text fill="black" x="630" y="200">biết</text><text fill="black" x="710" y="150">Nn</text><text fill="black" x="710" y="200">cách</text><text fill="black" x="790" y="150">Vv</text><text fill="black" x="790" y="200">làm</text><text fill="black" x="870" y="150">R</text><text fill="black" x="870" y="200">ra</text><text fill="black" x="950" y="150">Nq</text><text fill="black" x="950" y="200">một</text><text fill="black" x="1030" y="150">Nn</text><text fill="black" x="1030" y="200">thức</text><text fill="black" x="1110" y="150">Vv</text><text fill="black" x="1110" y="200">uống</text><text fill="black" x="1190" y="150">Nn</text><text fill="black" x="1190" y="200">sô</text><text fill="black" x="1270" y="150">PU</text><text fill="black" x="1270" y="200">-</text><text fill="black" x="1350" y="150">Nn</text><text fill="black" x="1350" y="200">cô</text><text fill="black" x="1430" y="150">PU</text><text fill="black" x="1430" y="200">-</text><text fill="black" x="1510" y="150">Vv</text><text fill="black" x="1510" y="200">la</text><text fill="black" x="1590" y="150">R</text><text fill="black" x="1590" y="200">rất</text><text fill="black" x="1670" y="150">Aa</text><text fill="black" x="1670" y="200">ngon</text><text fill="black" x="1750" y="150">Cm</text><text fill="black" x="1750" y="200">bằng</text><text fill="black" x="1830" y="150">Nn</text><text fill="black" x="1830" y="200">cách</text><text fill="black" x="1910" y="150">Vv</text><text fill="black" x="1910" y="200">dùng</text><text fill="black" x="1990" y="150">Cp</text><text fill="black" x="1990" y="200">với</text><text fill="black" x="2070" y="150">Nn</text><text fill="black" x="2070" y="200">sữa</text><text fill="black" x="2150" y="150">Vv</text><text fill="black" x="2150" y="200">thay</text><text fill="black" x="2230" y="150">Nn</text><text fill="black" x="2230" y="200">nước</text><text fill="black" x="2310" y="150">PU</text><text fill="black" x="2310" y="200">.</text><text fill="black" x="0" y="450">ENGLISH </text><text fill="black" x="20" y="350">Target: </text><text fill="black" x="20" y="400">POS: </text><text fill="black" x="150" y="350">A</text><text fill="black" x="150" y="400">DT</text><text fill="black" x="230" y="350">hundred</text><text fill="black" x="230" y="400">CD</text><text fill="black" x="310" y="350">years</text><text fill="black" x="310" y="400">NNS</text><text fill="black" x="390" y="350">later</text><text fill="black" x="390" y="400">RB</text><text fill="black" x="470" y="350">the</text><text fill="black" x="470" y="400">DT</text><text fill="black" x="550" y="350">English</text><text fill="black" x="550" y="400">NNP</text><text fill="black" x="630" y="350">had</text><text fill="black" x="630" y="400">VBD</text><text fill="black" x="710" y="350">learned</text><text fill="black" x="710" y="400">VBN</text><text fill="black" x="790" y="350">to</text><text fill="black" x="790" y="400">TO</text><text fill="black" x="870" y="350">make</text><text fill="black" x="870" y="400">VB</text><text fill="black" x="950" y="350">a</text><text fill="black" x="950" y="400">DT</text><text fill="black" x="1030" y="350">very</text><text fill="black" x="1030" y="400">RB</text><text fill="black" x="1110" y="350">good</text><text fill="black" x="1110" y="400">JJ</text><text fill="black" x="1190" y="350">drink</text><text fill="black" x="1190" y="400">NN</text><text fill="black" x="1270" y="350">of</text><text fill="black" x="1270" y="400">IN</text><text fill="black" x="1350" y="350">chocolate</text><text fill="black" x="1350" y="400">NN</text><text fill="black" x="1430" y="350">by</text><text fill="black" x="1430" y="400">IN</text><text fill="black" x="1510" y="350">using</text><text fill="black" x="1510" y="400">VBG</text><text fill="black" x="1590" y="350">milk</text><text fill="black" x="1590" y="400">NN</text><text fill="black" x="1670" y="350">instead</text><text fill="black" x="1670" y="400">RB</text><text fill="black" x="1750" y="350">of</text><text fill="black" x="1750" y="400">IN</text><text fill="black" x="1830" y="350">water</text><text fill="black" x="1830" y="400">NN</text><text fill="black" x="1910" y="350">.</text><text fill="black" x="1910" y="400">.</text><line stroke="red" x1="160" x2="150" y1="210" y2="330" /><line stroke="red" x1="270" x2="257" y1="210" y2="330" /><line stroke="red" x1="320" x2="408" y1="210" y2="330" /><line stroke="red" x1="560" x2="577" y1="210" y2="330" /><line stroke="red" x1="650" x2="737" y1="210" y2="330" /><line stroke="red" x1="730" x2="737" y1="210" y2="330" /><line stroke="red" x1="800" x2="888" y1="210" y2="330" /><line stroke="red" x1="960" x2="950" y1="210" y2="330" /><line stroke="red" x1="1050" x2="1208" y1="210" y2="330" /><line stroke="red" x1="1130" x2="1208" y1="210" y2="330" /><line stroke="red" x1="1200" x2="1386" y1="210" y2="330" /><line stroke="red" x1="1270" x2="1386" y1="210" y2="330" /><line stroke="red" x1="1360" x2="1386" y1="210" y2="330" /><line stroke="red" x1="1430" x2="1386" y1="210" y2="330" /><line stroke="red" x1="1520" x2="1386" y1="210" y2="330" /><line stroke="red" x1="1600" x2="1048" y1="210" y2="330" /><line stroke="red" x1="1690" x2="1128" y1="210" y2="330" /><line stroke="red" x1="1770" x2="1433" y1="210" y2="330" /><line stroke="red" x1="1850" x2="1528" y1="210" y2="330" /><line stroke="red" x1="1930" x2="1528" y1="210" y2="330" /><line stroke="red" x1="2080" x2="1608" y1="210" y2="330" /><line stroke="red" x1="2170" x2="1697" y1="210" y2="330" /><line stroke="red" x1="2250" x2="1848" y1="210" y2="330" /><line stroke="red" x1="2310" x2="1910" y1="210" y2="330" /></svg>