<?xml version="1.0" encoding="utf-8" ?>
<svg baseProfile="full" height="500" version="1.1" width="1700" xmlns="http://www.w3.org/2000/svg" xmlns:ev="http://www.w3.org/2001/xml-events" xmlns:xlink="http://www.w3.org/1999/xlink"><defs /><text fill="black" x="0" y="100">VIETNAMESE </text><text fill="black" x="20" y="150">POS: </text><text fill="black" x="20" y="200">Source: </text><text fill="black" x="150" y="150">Nq</text><text fill="black" x="150" y="200">Một</text><text fill="black" x="230" y="150">Nc</text><text fill="black" x="230" y="200">chiếc</text><text fill="black" x="310" y="150">Nn</text><text fill="black" x="310" y="200">áo</text><text fill="black" x="390" y="150">Vv</text><text fill="black" x="390" y="200">vét</text><text fill="black" x="470" y="150">PU</text><text fill="black" x="470" y="200">-</text><text fill="black" x="550" y="150">Nn</text><text fill="black" x="550" y="200">tông</text><text fill="black" x="630" y="150">Ve</text><text fill="black" x="630" y="200">có</text><text fill="black" x="710" y="150">Nq</text><text fill="black" x="710" y="200">những</text><text fill="black" x="790" y="150">Nn</text><text fill="black" x="790" y="200">miếng</text><text fill="black" x="870" y="150">Vv</text><text fill="black" x="870" y="200">đắp</text><text fill="black" x="950" y="150">Cm</text><text fill="black" x="950" y="200">bằng</text><text fill="black" x="1030" y="150">Nn</text><text fill="black" x="1030" y="200">da</text><text fill="black" x="1110" y="150">Cm</text><text fill="black" x="1110" y="200">trên</text><text fill="black" x="1190" y="150">Nq</text><text fill="black" x="1190" y="200">hai</text><text fill="black" x="1270" y="150">Nn</text><text fill="black" x="1270" y="200">khuỷu</text><text fill="black" x="1350" y="150">Nn</text><text fill="black" x="1350" y="200">tay_áo</text><text fill="black" x="1430" y="150">PU</text><text fill="black" x="1430" y="200">.</text><text fill="black" x="0" y="450">ENGLISH </text><text fill="black" x="20" y="350">Target: </text><text fill="black" x="20" y="400">POS: </text><text fill="black" x="150" y="350">A</text><text fill="black" x="150" y="400">DT</text><text fill="black" x="230" y="350">jacket</text><text fill="black" x="230" y="400">NN</text><text fill="black" x="310" y="350">with</text><text fill="black" x="310" y="400">IN</text><text fill="black" x="390" y="350">leather</text><text fill="black" x="390" y="400">NN</text><text fill="black" x="470" y="350">patches</text><text fill="black" x="470" y="400">NNS</text><text fill="black" x="550" y="350">on</text><text fill="black" x="550" y="400">IN</text><text fill="black" x="630" y="350">the</text><text fill="black" x="630" y="400">DT</text><text fill="black" x="710" y="350">elbows</text><text fill="black" x="710" y="400">NNS</text><text fill="black" x="790" y="350">.</text><text fill="black" x="790" y="400">.</text><line stroke="red" x1="160" x2="150" y1="210" y2="330" /><line stroke="red" x1="250" x2="257" y1="210" y2="330" /><line stroke="red" x1="320" x2="257" y1="210" y2="330" /><line stroke="red" x1="400" x2="257" y1="210" y2="330" /><line stroke="red" x1="470" x2="497" y1="210" y2="330" /><line stroke="red" x1="570" x2="497" y1="210" y2="330" /><line stroke="red" x1="730" x2="497" y1="210" y2="330" /><line stroke="red" x1="810" x2="497" y1="210" y2="330" /><line stroke="red" x1="880" x2="497" y1="210" y2="330" /><line stroke="red" x1="970" x2="497" y1="210" y2="330" /><line stroke="red" x1="1040" x2="417" y1="210" y2="330" /><line stroke="red" x1="1130" x2="553" y1="210" y2="330" /><line stroke="red" x1="1200" x2="737" y1="210" y2="330" /><line stroke="red" x1="1290" x2="737" y1="210" y2="330" /><line stroke="red" x1="1380" x2="737" y1="210" y2="330" /><line stroke="red" x1="1430" x2="790" y1="210" y2="330" /></svg>