<?xml version="1.0" encoding="utf-8" ?>
<svg baseProfile="full" height="500" version="1.1" width="800" xmlns="http://www.w3.org/2000/svg" xmlns:ev="http://www.w3.org/2001/xml-events" xmlns:xlink="http://www.w3.org/1999/xlink"><defs /><text fill="black" x="0" y="100">VIETNAMESE </text><text fill="black" x="20" y="150">POS: </text><text fill="black" x="20" y="200">Source: </text><text fill="black" x="150" y="150">Nq</text><text fill="black" x="150" y="200">Một</text><text fill="black" x="230" y="150">Nq</text><text fill="black" x="230" y="200">trăm</text><text fill="black" x="310" y="150">Nu</text><text fill="black" x="310" y="200">xu</text><text fill="black" x="390" y="150">Cm</text><text fill="black" x="390" y="200">bằng</text><text fill="black" x="470" y="150">Nq</text><text fill="black" x="470" y="200">một</text><text fill="black" x="550" y="150">Nu</text><text fill="black" x="550" y="200">bảng</text><text fill="black" x="630" y="150">Nr</text><text fill="black" x="630" y="200">Anh</text><text fill="black" x="710" y="150">PU</text><text fill="black" x="710" y="200">.</text><text fill="black" x="0" y="450">ENGLISH </text><text fill="black" x="20" y="350">Target: </text><text fill="black" x="20" y="400">POS: </text><text fill="black" x="150" y="350">A</text><text fill="black" x="150" y="400">DT</text><text fill="black" x="230" y="350">hundred</text><text fill="black" x="230" y="400">CD</text><text fill="black" x="310" y="350">pence</text><text fill="black" x="310" y="400">NN</text><text fill="black" x="390" y="350">make</text><text fill="black" x="390" y="400">VBP</text><text fill="black" x="470" y="350">one</text><text fill="black" x="470" y="400">CD</text><text fill="black" x="550" y="350">pound</text><text fill="black" x="550" y="400">NN</text><text fill="black" x="630" y="350">.</text><text fill="black" x="630" y="400">.</text><line stroke="red" x1="160" x2="150" y1="210" y2="330" /><line stroke="red" x1="250" x2="257" y1="210" y2="330" /><line stroke="red" x1="320" x2="328" y1="210" y2="330" /><line stroke="red" x1="410" x2="328" y1="210" y2="330" /><line stroke="red" x1="480" x2="479" y1="210" y2="330" /><line stroke="red" x1="570" x2="568" y1="210" y2="330" /><line stroke="red" x1="640" x2="568" y1="210" y2="330" /><line stroke="red" x1="710" x2="630" y1="210" y2="330" /></svg>