<?xml version="1.0" encoding="utf-8" ?>
<svg baseProfile="full" height="500" version="1.1" width="1100" xmlns="http://www.w3.org/2000/svg" xmlns:ev="http://www.w3.org/2001/xml-events" xmlns:xlink="http://www.w3.org/1999/xlink"><defs /><text fill="black" x="0" y="100">VIETNAMESE </text><text fill="black" x="20" y="150">POS: </text><text fill="black" x="20" y="200">Source: </text><text fill="black" x="150" y="150">Nr</text><text fill="black" x="150" y="200">A</text><text fill="black" x="230" y="150">R</text><text fill="black" x="230" y="200">sắp</text><text fill="black" x="310" y="150">Vv</text><text fill="black" x="310" y="200">đổi</text><text fill="black" x="390" y="150">Nq</text><text fill="black" x="390" y="200">một_vài</text><text fill="black" x="470" y="150">Nu</text><text fill="black" x="470" y="200">đô_la</text><text fill="black" x="550" y="150">Nr</text><text fill="black" x="550" y="200">Mỹ</text><text fill="black" x="630" y="150">Vd</text><text fill="black" x="630" y="200">sang</text><text fill="black" x="710" y="150">Nu</text><text fill="black" x="710" y="200">nhân_dân_tệ</text><text fill="black" x="790" y="150">PU</text><text fill="black" x="790" y="200">.</text><text fill="black" x="0" y="450">ENGLISH </text><text fill="black" x="20" y="350">Target: </text><text fill="black" x="20" y="400">POS: </text><text fill="black" x="150" y="350">A</text><text fill="black" x="150" y="400">DT</text><text fill="black" x="230" y="350">is</text><text fill="black" x="230" y="400">VBZ</text><text fill="black" x="310" y="350">going</text><text fill="black" x="310" y="400">VBG</text><text fill="black" x="390" y="350">to</text><text fill="black" x="390" y="400">TO</text><text fill="black" x="470" y="350">change</text><text fill="black" x="470" y="400">VB</text><text fill="black" x="550" y="350">some</text><text fill="black" x="550" y="400">DT</text><text fill="black" x="630" y="350">US</text><text fill="black" x="630" y="400">NNP</text><text fill="black" x="710" y="350">dollars</text><text fill="black" x="710" y="400">NNS</text><text fill="black" x="790" y="350">into</text><text fill="black" x="790" y="400">IN</text><text fill="black" x="870" y="350">RMB</text><text fill="black" x="870" y="400">NN</text><text fill="black" x="950" y="350">.</text><text fill="black" x="950" y="400">.</text><line stroke="red" x1="150" x2="150" y1="210" y2="330" /><line stroke="red" x1="240" x2="328" y1="210" y2="330" /><line stroke="red" x1="320" x2="497" y1="210" y2="330" /><line stroke="red" x1="420" x2="568" y1="210" y2="330" /><line stroke="red" x1="490" x2="737" y1="210" y2="330" /><line stroke="red" x1="560" x2="633" y1="210" y2="330" /><line stroke="red" x1="650" x2="879" y1="210" y2="330" /><line stroke="red" x1="760" x2="879" y1="210" y2="330" /><line stroke="red" x1="790" x2="950" y1="210" y2="330" /></svg>