<?xml version="1.0" encoding="utf-8" ?>
<svg baseProfile="full" height="500" version="1.1" width="1500" xmlns="http://www.w3.org/2000/svg" xmlns:ev="http://www.w3.org/2001/xml-events" xmlns:xlink="http://www.w3.org/1999/xlink"><defs /><text fill="black" x="0" y="100">VIETNAMESE </text><text fill="black" x="20" y="150">POS: </text><text fill="black" x="20" y="200">Source: </text><text fill="black" x="150" y="150">Nq</text><text fill="black" x="150" y="200">Một</text><text fill="black" x="230" y="150">Nn</text><text fill="black" x="230" y="200">lời_nói</text><text fill="black" x="310" y="150">Vv</text><text fill="black" x="310" y="200">đùa</text><text fill="black" x="390" y="150">PU</text><text fill="black" x="390" y="200">,</text><text fill="black" x="470" y="150">Nn</text><text fill="black" x="470" y="200">câu_chuyện</text><text fill="black" x="550" y="150">PU</text><text fill="black" x="550" y="200">,</text><text fill="black" x="630" y="150">Nq</text><text fill="black" x="630" y="200">một</text><text fill="black" x="710" y="150">Nn</text><text fill="black" x="710" y="200">người</text><text fill="black" x="790" y="150">Aa</text><text fill="black" x="790" y="200">thực_sự</text><text fill="black" x="870" y="150">Vv</text><text fill="black" x="870" y="200">khiến</text><text fill="black" x="950" y="150">Cp</text><text fill="black" x="950" y="200">cho</text><text fill="black" x="1030" y="150">Nn</text><text fill="black" x="1030" y="200">thiên_hạ</text><text fill="black" x="1110" y="150">Vv</text><text fill="black" x="1110" y="200">phải</text><text fill="black" x="1190" y="150">Vv</text><text fill="black" x="1190" y="200">kêu_ca</text><text fill="black" x="1270" y="150">PU</text><text fill="black" x="1270" y="200">.</text><text fill="black" x="0" y="450">ENGLISH </text><text fill="black" x="20" y="350">Target: </text><text fill="black" x="20" y="400">POS: </text><text fill="black" x="150" y="350">A</text><text fill="black" x="150" y="400">DT</text><text fill="black" x="230" y="350">joke</text><text fill="black" x="230" y="400">NN</text><text fill="black" x="310" y="350">,</text><text fill="black" x="310" y="400">,</text><text fill="black" x="390" y="350">story</text><text fill="black" x="390" y="400">NN</text><text fill="black" x="470" y="350">,</text><text fill="black" x="470" y="400">,</text><text fill="black" x="550" y="350">person</text><text fill="black" x="550" y="400">NN</text><text fill="black" x="630" y="350">that</text><text fill="black" x="630" y="400">WDT</text><text fill="black" x="710" y="350">is</text><text fill="black" x="710" y="400">VBZ</text><text fill="black" x="790" y="350">a</text><text fill="black" x="790" y="400">DT</text><text fill="black" x="870" y="350">bit</text><text fill="black" x="870" y="400">NN</text><text fill="black" x="950" y="350">of</text><text fill="black" x="950" y="400">IN</text><text fill="black" x="1030" y="350">a</text><text fill="black" x="1030" y="400">DT</text><text fill="black" x="1110" y="350">groan</text><text fill="black" x="1110" y="400">NN</text><text fill="black" x="1190" y="350">.</text><text fill="black" x="1190" y="400">.</text><line stroke="red" x1="160" x2="150" y1="210" y2="330" /><line stroke="red" x1="260" x2="248" y1="210" y2="330" /><line stroke="red" x1="320" x2="248" y1="210" y2="330" /><line stroke="red" x1="390" x2="310" y1="210" y2="330" /><line stroke="red" x1="520" x2="408" y1="210" y2="330" /><line stroke="red" x1="550" x2="470" y1="210" y2="330" /><line stroke="red" x1="640" x2="1030" y1="210" y2="330" /><line stroke="red" x1="730" x2="577" y1="210" y2="330" /><line stroke="red" x1="820" x2="1128" y1="210" y2="330" /><line stroke="red" x1="890" x2="1128" y1="210" y2="330" /><line stroke="red" x1="1070" x2="1128" y1="210" y2="330" /><line stroke="red" x1="1130" x2="1128" y1="210" y2="330" /><line stroke="red" x1="1220" x2="1128" y1="210" y2="330" /><line stroke="red" x1="1270" x2="1190" y1="210" y2="330" /></svg>