<?xml version="1.0" encoding="utf-8" ?>
<svg baseProfile="full" height="500" version="1.1" width="1300" xmlns="http://www.w3.org/2000/svg" xmlns:ev="http://www.w3.org/2001/xml-events" xmlns:xlink="http://www.w3.org/1999/xlink"><defs /><text fill="black" x="0" y="100">VIETNAMESE </text><text fill="black" x="20" y="150">POS: </text><text fill="black" x="20" y="200">Source: </text><text fill="black" x="150" y="150">Nq</text><text fill="black" x="150" y="200">Một</text><text fill="black" x="230" y="150">Nc</text><text fill="black" x="230" y="200">vụ</text><text fill="black" x="310" y="150">Vv</text><text fill="black" x="310" y="200">liên_doanh</text><text fill="black" x="390" y="150">Cm</text><text fill="black" x="390" y="200">giữa</text><text fill="black" x="470" y="150">Nq</text><text fill="black" x="470" y="200">các</text><text fill="black" x="550" y="150">Nn</text><text fill="black" x="550" y="200">hãng</text><text fill="black" x="630" y="150">Nn</text><text fill="black" x="630" y="200">phim</text><text fill="black" x="710" y="150">Cm</text><text fill="black" x="710" y="200">để</text><text fill="black" x="790" y="150">Vv</text><text fill="black" x="790" y="200">sản_xuất</text><text fill="black" x="870" y="150">Nq</text><text fill="black" x="870" y="200">các</text><text fill="black" x="950" y="150">Nc</text><text fill="black" x="950" y="200">bộ</text><text fill="black" x="1030" y="150">Nn</text><text fill="black" x="1030" y="200">phim_truyền_hình</text><text fill="black" x="1110" y="150">PU</text><text fill="black" x="1110" y="200">.</text><text fill="black" x="0" y="450">ENGLISH </text><text fill="black" x="20" y="350">Target: </text><text fill="black" x="20" y="400">POS: </text><text fill="black" x="150" y="350">A</text><text fill="black" x="150" y="400">DT</text><text fill="black" x="230" y="350">joint</text><text fill="black" x="230" y="400">JJ</text><text fill="black" x="310" y="350">venture</text><text fill="black" x="310" y="400">NN</text><text fill="black" x="390" y="350">between</text><text fill="black" x="390" y="400">IN</text><text fill="black" x="470" y="350">the</text><text fill="black" x="470" y="400">DT</text><text fill="black" x="550" y="350">film</text><text fill="black" x="550" y="400">NN</text><text fill="black" x="630" y="350">companies</text><text fill="black" x="630" y="400">NNS</text><text fill="black" x="710" y="350">to</text><text fill="black" x="710" y="400">TO</text><text fill="black" x="790" y="350">produce</text><text fill="black" x="790" y="400">VB</text><text fill="black" x="870" y="350">TV</text><text fill="black" x="870" y="400">NN</text><text fill="black" x="950" y="350">shows</text><text fill="black" x="950" y="400">NNS</text><text fill="black" x="1030" y="350">.</text><text fill="black" x="1030" y="400">.</text><line stroke="red" x1="160" x2="150" y1="210" y2="330" /><line stroke="red" x1="240" x2="337" y1="210" y2="330" /><line stroke="red" x1="360" x2="337" y1="210" y2="330" /><line stroke="red" x1="410" x2="417" y1="210" y2="330" /><line stroke="red" x1="480" x2="666" y1="210" y2="330" /><line stroke="red" x1="570" x2="666" y1="210" y2="330" /><line stroke="red" x1="650" x2="568" y1="210" y2="330" /><line stroke="red" x1="720" x2="713" y1="210" y2="330" /><line stroke="red" x1="830" x2="817" y1="210" y2="330" /><line stroke="red" x1="960" x2="568" y1="210" y2="330" /><line stroke="red" x1="1110" x2="817" y1="210" y2="330" /><line stroke="red" x1="1110" x2="1030" y1="210" y2="330" /></svg>