<?xml version="1.0" encoding="utf-8" ?>
<svg baseProfile="full" height="500" version="1.1" width="1300" xmlns="http://www.w3.org/2000/svg" xmlns:ev="http://www.w3.org/2001/xml-events" xmlns:xlink="http://www.w3.org/1999/xlink"><defs /><text fill="black" x="0" y="100">VIETNAMESE </text><text fill="black" x="20" y="150">POS: </text><text fill="black" x="20" y="200">Source: </text><text fill="black" x="150" y="150">Nq</text><text fill="black" x="150" y="200">Một</text><text fill="black" x="230" y="150">Nn</text><text fill="black" x="230" y="200">quan</text><text fill="black" x="310" y="150">FW</text><text fill="black" x="310" y="200">tòa</text><text fill="black" x="390" y="150">Vv</text><text fill="black" x="390" y="200">phải</text><text fill="black" x="470" y="150">Aa</text><text fill="black" x="470" y="200">công_bằng</text><text fill="black" x="550" y="150">Cp</text><text fill="black" x="550" y="200">và</text><text fill="black" x="630" y="150">Vv</text><text fill="black" x="630" y="200">phải</text><text fill="black" x="710" y="150">Vv</text><text fill="black" x="710" y="200">xem_xét</text><text fill="black" x="790" y="150">Nq</text><text fill="black" x="790" y="200">mọi</text><text fill="black" x="870" y="150">Nn</text><text fill="black" x="870" y="200">việc</text><text fill="black" x="950" y="150">Nn</text><text fill="black" x="950" y="200">một_cách</text><text fill="black" x="1030" y="150">Aa</text><text fill="black" x="1030" y="200">khách_quan</text><text fill="black" x="1110" y="150">PU</text><text fill="black" x="1110" y="200">.</text><text fill="black" x="0" y="450">ENGLISH </text><text fill="black" x="20" y="350">Target: </text><text fill="black" x="20" y="400">POS: </text><text fill="black" x="150" y="350">A</text><text fill="black" x="150" y="400">DT</text><text fill="black" x="230" y="350">judge</text><text fill="black" x="230" y="400">NN</text><text fill="black" x="310" y="350">should</text><text fill="black" x="310" y="400">MD</text><text fill="black" x="390" y="350">be</text><text fill="black" x="390" y="400">VB</text><text fill="black" x="470" y="350">impartial</text><text fill="black" x="470" y="400">JJ</text><text fill="black" x="550" y="350">and</text><text fill="black" x="550" y="400">CC</text><text fill="black" x="630" y="350">should</text><text fill="black" x="630" y="400">MD</text><text fill="black" x="710" y="350">study</text><text fill="black" x="710" y="400">VB</text><text fill="black" x="790" y="350">every</text><text fill="black" x="790" y="400">DT</text><text fill="black" x="870" y="350">matter</text><text fill="black" x="870" y="400">NN</text><text fill="black" x="950" y="350">objectively</text><text fill="black" x="950" y="400">RB</text><text fill="black" x="1030" y="350">.</text><text fill="black" x="1030" y="400">.</text><line stroke="red" x1="160" x2="150" y1="210" y2="330" /><line stroke="red" x1="250" x2="248" y1="210" y2="330" /><line stroke="red" x1="320" x2="248" y1="210" y2="330" /><line stroke="red" x1="410" x2="337" y1="210" y2="330" /><line stroke="red" x1="510" x2="506" y1="210" y2="330" /><line stroke="red" x1="560" x2="559" y1="210" y2="330" /><line stroke="red" x1="650" x2="657" y1="210" y2="330" /><line stroke="red" x1="740" x2="995" y1="210" y2="330" /><line stroke="red" x1="800" x2="808" y1="210" y2="330" /><line stroke="red" x1="890" x2="995" y1="210" y2="330" /><line stroke="red" x1="990" x2="995" y1="210" y2="330" /><line stroke="red" x1="1080" x2="995" y1="210" y2="330" /><line stroke="red" x1="1110" x2="1030" y1="210" y2="330" /></svg>