<?xml version="1.0" encoding="utf-8" ?>
<svg baseProfile="full" height="500" version="1.1" width="1500" xmlns="http://www.w3.org/2000/svg" xmlns:ev="http://www.w3.org/2001/xml-events" xmlns:xlink="http://www.w3.org/1999/xlink"><defs /><text fill="black" x="0" y="100">VIETNAMESE </text><text fill="black" x="20" y="150">POS: </text><text fill="black" x="20" y="200">Source: </text><text fill="black" x="150" y="150">Nn</text><text fill="black" x="150" y="200">Quyết_định</text><text fill="black" x="230" y="150">Cm</text><text fill="black" x="230" y="200">của</text><text fill="black" x="310" y="150">Nn</text><text fill="black" x="310" y="200">ban</text><text fill="black" x="390" y="150">Nn</text><text fill="black" x="390" y="200">bồi_thẩm</text><text fill="black" x="470" y="150">Cm</text><text fill="black" x="470" y="200">trong</text><text fill="black" x="550" y="150">Nq</text><text fill="black" x="550" y="200">một</text><text fill="black" x="630" y="150">Nc</text><text fill="black" x="630" y="200">vụ</text><text fill="black" x="710" y="150">Vv</text><text fill="black" x="710" y="200">xử</text><text fill="black" x="790" y="150">Nn</text><text fill="black" x="790" y="200">án</text><text fill="black" x="870" y="150">Cm</text><text fill="black" x="870" y="200">ở</text><text fill="black" x="950" y="150">FW</text><text fill="black" x="950" y="200">tòa</text><text fill="black" x="1030" y="150">Vv</text><text fill="black" x="1030" y="200">phải</text><text fill="black" x="1110" y="150">Aa</text><text fill="black" x="1110" y="200">tuyệt_đối</text><text fill="black" x="1190" y="150">Aa</text><text fill="black" x="1190" y="200">công_bình</text><text fill="black" x="1270" y="150">PU</text><text fill="black" x="1270" y="200">.</text><text fill="black" x="0" y="450">ENGLISH </text><text fill="black" x="20" y="350">Target: </text><text fill="black" x="20" y="400">POS: </text><text fill="black" x="150" y="350">A</text><text fill="black" x="150" y="400">DT</text><text fill="black" x="230" y="350">jury</text><text fill="black" x="230" y="400">NN</text><text fill="black" x="310" y="350">'s</text><text fill="black" x="310" y="400">POS</text><text fill="black" x="390" y="350">decision</text><text fill="black" x="390" y="400">NN</text><text fill="black" x="470" y="350">in</text><text fill="black" x="470" y="400">IN</text><text fill="black" x="550" y="350">a</text><text fill="black" x="550" y="400">DT</text><text fill="black" x="630" y="350">court</text><text fill="black" x="630" y="400">NN</text><text fill="black" x="710" y="350">case</text><text fill="black" x="710" y="400">NN</text><text fill="black" x="790" y="350">must</text><text fill="black" x="790" y="400">MD</text><text fill="black" x="870" y="350">be</text><text fill="black" x="870" y="400">VB</text><text fill="black" x="950" y="350">absolutely</text><text fill="black" x="950" y="400">RB</text><text fill="black" x="1030" y="350">objective</text><text fill="black" x="1030" y="400">JJ</text><text fill="black" x="1110" y="350">.</text><text fill="black" x="1110" y="400">.</text><line stroke="red" x1="200" x2="426" y1="210" y2="330" /><line stroke="red" x1="320" x2="248" y1="210" y2="330" /><line stroke="red" x1="430" x2="248" y1="210" y2="330" /><line stroke="red" x1="490" x2="473" y1="210" y2="330" /><line stroke="red" x1="560" x2="550" y1="210" y2="330" /><line stroke="red" x1="640" x2="728" y1="210" y2="330" /><line stroke="red" x1="720" x2="648" y1="210" y2="330" /><line stroke="red" x1="800" x2="648" y1="210" y2="330" /><line stroke="red" x1="960" x2="648" y1="210" y2="330" /><line stroke="red" x1="1050" x2="808" y1="210" y2="330" /><line stroke="red" x1="1150" x2="995" y1="210" y2="330" /><line stroke="red" x1="1230" x2="1066" y1="210" y2="330" /><line stroke="red" x1="1270" x2="1110" y1="210" y2="330" /></svg>