<?xml version="1.0" encoding="utf-8" ?>
<svg baseProfile="full" height="500" version="1.1" width="1100" xmlns="http://www.w3.org/2000/svg" xmlns:ev="http://www.w3.org/2001/xml-events" xmlns:xlink="http://www.w3.org/1999/xlink"><defs /><text fill="black" x="0" y="100">VIETNAMESE </text><text fill="black" x="20" y="150">POS: </text><text fill="black" x="20" y="200">Source: </text><text fill="black" x="150" y="150">Nq</text><text fill="black" x="150" y="200">Một</text><text fill="black" x="230" y="150">Nn</text><text fill="black" x="230" y="200">phản_ứng</text><text fill="black" x="310" y="150">Nn</text><text fill="black" x="310" y="200">máy_móc</text><text fill="black" x="390" y="150">Nt</text><text fill="black" x="390" y="200">khi</text><text fill="black" x="470" y="150">Vv</text><text fill="black" x="470" y="200">đề_cập</text><text fill="black" x="550" y="150">Cm</text><text fill="black" x="550" y="200">đến</text><text fill="black" x="630" y="150">Nn</text><text fill="black" x="630" y="200">vấn_đề</text><text fill="black" x="710" y="150">Vv</text><text fill="black" x="710" y="200">mãi_dâm</text><text fill="black" x="790" y="150">PU</text><text fill="black" x="790" y="200">.</text><text fill="black" x="0" y="450">ENGLISH </text><text fill="black" x="20" y="350">Target: </text><text fill="black" x="20" y="400">POS: </text><text fill="black" x="150" y="350">A</text><text fill="black" x="150" y="400">DT</text><text fill="black" x="230" y="350">knee</text><text fill="black" x="230" y="400">NN</text><text fill="black" x="310" y="350">-</text><text fill="black" x="310" y="400">:</text><text fill="black" x="390" y="350">jerk</text><text fill="black" x="390" y="400">NN</text><text fill="black" x="470" y="350">reaction</text><text fill="black" x="470" y="400">NN</text><text fill="black" x="550" y="350">to</text><text fill="black" x="550" y="400">TO</text><text fill="black" x="630" y="350">the</text><text fill="black" x="630" y="400">DT</text><text fill="black" x="710" y="350">mention</text><text fill="black" x="710" y="400">NN</text><text fill="black" x="790" y="350">of</text><text fill="black" x="790" y="400">IN</text><text fill="black" x="870" y="350">prostitution</text><text fill="black" x="870" y="400">NN</text><text fill="black" x="950" y="350">.</text><text fill="black" x="950" y="400">.</text><line stroke="red" x1="160" x2="150" y1="210" y2="330" /><line stroke="red" x1="270" x2="506" y1="210" y2="330" /><line stroke="red" x1="340" x2="408" y1="210" y2="330" /><line stroke="red" x1="400" x2="408" y1="210" y2="330" /><line stroke="red" x1="500" x2="737" y1="210" y2="330" /><line stroke="red" x1="560" x2="737" y1="210" y2="330" /><line stroke="red" x1="660" x2="924" y1="210" y2="330" /><line stroke="red" x1="740" x2="924" y1="210" y2="330" /><line stroke="red" x1="790" x2="950" y1="210" y2="330" /></svg>